<svg xmlns="http://www.w3.org/2000/svg" viewBox="0 0 500 502"><defs><style>.cls-1{isolation:isolate;}.cls-2{fill:#67b2dc;}.cls-3{fill:#0f253b;}.cls-12,.cls-19,.cls-4{fill:#fff;}.cls-5{fill:#f8f8f8;}.cls-6{fill:#2c7a8c;}.cls-7{fill:#cfd1d1;}.cls-8{fill:#4192a7;}.cls-9{fill:#4aa2e9;}.cls-10{fill:#8fbd15;opacity:0.2;mix-blend-mode:multiply;}.cls-11{fill:#aaa;}.cls-12{mix-blend-mode:soft-light;}.cls-13{fill:#474747;}.cls-14{fill:#363636;}.cls-15{fill:#bbb;}.cls-16{font-size:28.79px;font-family:Roboto-BlackItalic, Roboto BlackItalic;font-style:italic;}.cls-16,.cls-18{fill:#eb1f20;}.cls-17{letter-spacing:-0.01em;}.cls-19{font-size:60px;font-family:DKStickyToffee-Regular, DK Sticky Toffee;}.cls-20{letter-spacing:-0.02em;}.cls-21{letter-spacing:-0.05em;}</style></defs><g class="cls-1"><g id="Camada_1" data-name="Camada 1"><rect class="cls-2" y="4" width="500" height="500"/><path class="cls-3" d="M251,392.53c-101.39,0-191.67-23.26-250-63.43V504H501V329.1C442.67,369.32,352.39,392.53,251,392.53Z"/><path class="cls-4" d="M319,261.75s65.35-5,81.38-.13C400.38,261.62,369,260.45,319,261.75Z"/><path class="cls-4" d="M338.73,248.68s45-5,56.1-.13C394.82,248.55,373.22,247.38,338.73,248.68Z"/><path class="cls-4" d="M359.68,271.61s37.24-5,46.37-.13C406.06,271.48,388.2,270.31,359.68,271.61Z"/><path class="cls-4" d="M28.11,174.35s42.48-3.82,52.9-.1C81,174.25,60.64,173.35,28.11,174.35Z"/><path class="cls-4" d="M53.35,163.44s29.28-3.82,36.46-.1C89.81,163.34,75.77,162.45,53.35,163.44Z"/><path class="cls-4" d="M67,181s24.2-3.82,30.14-.1A255.11,255.11,0,0,0,67,181Z"/><path class="cls-4" d="M28.11,200.18s42.48-3.82,52.9-.1C81,200.09,60.64,199.19,28.11,200.18Z"/><path class="cls-4" d="M53.35,189.28s29.28-3.82,36.46-.1C89.81,189.18,75.77,188.28,53.35,189.28Z"/><path class="cls-4" d="M67,206.85s24.2-3.82,30.14-.1A255.11,255.11,0,0,0,67,206.85Z"/><path class="cls-4" d="M399.88,282.84s-2.08-7.89-7.36-5.68a16.76,16.76,0,0,0-7.46,5.68Z"/><path class="cls-4" d="M344.71,282.84s-1.55-5.89-5.49-4.24a12.52,12.52,0,0,0-5.57,4.24Z"/><path class="cls-4" d="M330.82,282.84s-.79-3-2.78-2.15a6.33,6.33,0,0,0-2.82,2.15Z"/><path class="cls-4" d="M385.07,282.84s-3-11.54-10.76-8.31-10.91,8.31-10.91,8.31Z"/><path class="cls-4" d="M367,282.84s-3.11-11.79-11-8.49-11.14,8.49-11.14,8.49Z"/><path class="cls-4" d="M130.59,282.84s-2.08-7.89-7.36-5.68a16.76,16.76,0,0,0-7.46,5.68Z"/><path class="cls-4" d="M95.06,282.84s-1.55-5.89-5.49-4.24A12.52,12.52,0,0,0,84,282.84Z"/><path class="cls-4" d="M81.16,282.84s-.79-3-2.78-2.15a6.33,6.33,0,0,0-2.82,2.15Z"/><path class="cls-4" d="M115.78,282.84s-3-11.54-10.76-8.31-10.91,8.31-10.91,8.31Z"/><path class="cls-4" d="M28.11,239s65.35-5,81.38-.13C109.49,238.87,78.15,237.7,28.11,239Z"/><path class="cls-4" d="M35,250s65.35-5,81.38-.13C116.33,249.91,85,248.73,35,250Z"/><path class="cls-4" d="M28.11,216s65.35-5,81.38-.13C109.49,215.91,78.15,214.74,28.11,216Z"/><path class="cls-4" d="M35,227.07s65.35-5,81.38-.13C116.33,226.94,85,225.77,35,227.07Z"/><path class="cls-4" d="M82.25,262.87s37.24-5,46.37-.13C128.62,262.75,110.76,261.58,82.25,262.87Z"/><path class="cls-5" d="M77.15,99.78v141a3.66,3.66,0,0,0,3.66,3.66H375.38a3.66,3.66,0,0,0,3.66-3.66V94.22a3.66,3.66,0,0,0-3.66-3.66h-289A9.22,9.22,0,0,0,77.15,99.78Z"/><polygon class="cls-4" points="85.25 244.42 132.39 244.42 286.24 90.56 239.11 90.56 85.25 244.42"/><path class="cls-4" d="M77.15,226.29v14.47a3.64,3.64,0,0,0,.06.66L228.06,90.56H212.87Z"/><polygon class="cls-4" points="77.15 199.19 77.15 207.97 194.56 90.56 185.78 90.56 77.15 199.19"/><path class="cls-4" d="M320,90.56V244.42H461.35a10.55,10.55,0,0,0,10.55-10.55V202.38a22.9,22.9,0,0,0-10.48-19.24l-.14-.09-33.79-21.48a22.92,22.92,0,0,1-7.71-8.15L388.56,97.57a13.69,13.69,0,0,0-11.95-7Z"/><path class="cls-6" d="M328.41,162.51h71.84a6.83,6.83,0,0,0,6.05-10L380,102.23a6.83,6.83,0,0,0-6.05-3.66H328.41a4.29,4.29,0,0,0-4.29,4.29v55.35A4.29,4.29,0,0,0,328.41,162.51Z"/><path class="cls-7" d="M319.87,244.42h.33V101A4.77,4.77,0,0,1,325,96.24h52.29a7.66,7.66,0,0,1,6.8,4.12l27,51.51a28.59,28.59,0,0,1,3.25,13.2v79.34h.33V165.07a28.92,28.92,0,0,0-3.29-13.36l-27-51.51a8,8,0,0,0-7.1-4.3H325a5.1,5.1,0,0,0-5.1,5.1Z"/><path class="cls-8" d="M330.72,108.71v43a3.34,3.34,0,0,0,3.33,3.34h55.78a5.31,5.31,0,0,0,4.7-7.77L383.43,126l-3-5.77-2.09-4-1.51-2.88-2.7-5.16a5.31,5.31,0,0,0-4.7-2.84H334.05A3.33,3.33,0,0,0,330.72,108.71Z"/><polygon class="cls-9" points="345.63 155.03 354.42 155.03 383.43 126.03 380.4 120.26 345.63 155.03"/><polygon class="cls-9" points="335.16 155.03 339.55 155.03 378.32 116.27 376.81 113.39 335.16 155.03"/><polygon class="cls-9" points="330.72 139.14 330.72 141.34 366.68 105.38 364.48 105.38 330.72 139.14"/><path class="cls-10" d="M77.15,183.14v57.61a3.66,3.66,0,0,0,3.66,3.66H320V183.14Z"/><path class="cls-10" d="M320,183.14v61.28H461.35a10.55,10.55,0,0,0,10.55-10.55V202.38a22.9,22.9,0,0,0-10.48-19.24Z"/><rect class="cls-7" x="317.52" y="90.56" width="2.52" height="153.86"/><path d="M398.63,221.77v22.65h62.72a10.55,10.55,0,0,0,10.55-10.55v-12.1Z"/><path d="M77.15,221.77v19a3.62,3.62,0,0,0,3.62,3.62h59.1a10.55,10.55,0,0,0,10.55-10.55v-12.1Z"/><path d="M77.15,238.76H453.58a5.66,5.66,0,0,1,5.66,5.66v0a0,0,0,0,1,0,0H77.15a0,0,0,0,1,0,0v-5.66A0,0,0,0,1,77.15,238.76Z" transform="translate(536.39 483.17) rotate(180)"/><path class="cls-7" d="M402.44,143v24a12,12,0,0,0,0-24Z"/><path class="cls-11" d="M329.56,168.69h13.7a2.67,2.67,0,1,1,0,5.35h-13.7a2.67,2.67,0,0,1,0-5.35Z"/><rect class="cls-12" x="77.15" y="221.77" width="394.74" height="5.44" transform="translate(549.04 448.98) rotate(180)"/><path d="M370.47,244.6H458.4a44,44,0,1,0-87.93,0Z"/><circle class="cls-13" cx="414.43" cy="244.6" r="39.93"/><circle class="cls-14" cx="414.43" cy="244.6" r="38.84"/><circle cx="414.43" cy="244.6" r="33.71"/><circle class="cls-15" cx="414.43" cy="244.6" r="21.98"/><circle cx="414.43" cy="244.6" r="17.57"/><circle class="cls-15" cx="414.43" cy="244.6" r="4.3"/><circle class="cls-15" cx="414.43" cy="233.56" r="2.11"/><circle class="cls-15" cx="414.43" cy="255.64" r="2.11"/><circle class="cls-15" cx="422.24" cy="236.8" r="2.11" transform="translate(-43.77 367.92) rotate(-45)"/><circle class="cls-15" cx="406.63" cy="252.4" r="2.11" transform="translate(-59.38 361.46) rotate(-45)"/><circle class="cls-15" cx="425.47" cy="244.6" r="2.11"/><circle class="cls-15" cx="403.4" cy="244.6" r="2.11"/><circle class="cls-15" cx="422.24" cy="252.4" r="2.11" transform="translate(-54.81 372.49) rotate(-45)"/><circle class="cls-15" cx="406.63" cy="236.8" r="2.11" transform="translate(-48.34 356.88) rotate(-45)"/><path d="M99,244.6H187a44,44,0,1,0-87.93,0Z"/><circle class="cls-13" cx="143.01" cy="244.6" r="39.93"/><circle class="cls-14" cx="143.01" cy="244.6" r="38.84"/><circle cx="143.01" cy="244.6" r="33.71"/><circle class="cls-15" cx="143.01" cy="244.6" r="21.98"/><circle cx="143.01" cy="244.6" r="17.57"/><circle class="cls-15" cx="143.01" cy="244.6" r="4.3"/><circle class="cls-15" cx="143.01" cy="233.56" r="2.11"/><circle class="cls-15" cx="143.01" cy="255.64" r="2.11"/><circle class="cls-15" cx="150.82" cy="236.8" r="2.11" transform="translate(-123.27 176) rotate(-45)"/><circle class="cls-15" cx="135.21" cy="252.4" r="2.11" transform="translate(-138.88 169.53) rotate(-45)"/><circle class="cls-15" cx="154.05" cy="244.6" r="2.11"/><circle class="cls-15" cx="131.97" cy="244.6" r="2.11"/><circle class="cls-15" cx="150.82" cy="252.4" r="2.11" transform="translate(-134.3 180.57) rotate(-45)"/><circle class="cls-15" cx="135.21" cy="236.8" r="2.11" transform="translate(-127.84 164.96) rotate(-45)"/><text class="cls-16" transform="translate(152.97 153.65)">DELIVE<tspan class="cls-17" x="84.04" y="0">R</tspan><tspan x="99.21" y="0">Y</tspan></text><polygon class="cls-18" points="152.27 139.03 110.81 135.59 152.94 135.59 152.27 139.03"/><polygon class="cls-18" points="151.06 145.24 120.81 141.8 152.06 141.8 151.06 145.24"/><polygon class="cls-18" points="150.06 151.44 128.81 148.01 151.06 148.01 150.06 151.44"/><text class="cls-19" transform="translate(174.54 467.69)">f<tspan class="cls-20" x="31.02" y="0">r</tspan><tspan class="cls-21" x="63.42" y="0">e</tspan><tspan x="89.94" y="0">te</tspan></text></g></g></svg>