<svg xmlns="http://www.w3.org/2000/svg" viewBox="0 0 69.34 100"><defs><style>.cls-1{isolation:isolate;}.cls-2{fill:#f2f2f2;mix-blend-mode:multiply;}.cls-3{fill:#fddbbb;}.cls-4{fill:#f5f5f5;}.cls-5{fill:#424242;}.cls-6{fill:gray;}.cls-7{fill:#b35730;}.cls-8{fill:#4f423a;}.cls-9{fill:#eb7d86;}</style></defs><title>icone-estab-representante</title><g class="cls-1"><g id="Camada_1" data-name="Camada 1"><ellipse class="cls-2" cx="30.66" cy="96.78" rx="25.4" ry="3.22"/><path class="cls-3" d="M84.25,19.78s1.47-3.54-1.07-4-2.54,3.15-2.54,3.15Z" transform="translate(-15.33)"/><polygon class="cls-4" points="64.9 19.41 65.1 18.44 69.18 19.56 68.92 20.51 64.9 19.41"/><path class="cls-5" d="M60.43,47.52s18.4-3.2,24.17-27.23l-4.5-1.44S76,38.41,59.93,42.81Z" transform="translate(-15.33)"/><circle class="cls-6" cx="82.95" cy="22.35" r="0.43" transform="translate(33.93 101.38) rotate(-81.99)"/><circle class="cls-6" cx="83.41" cy="20.95" r="0.43" transform="translate(35.68 100.61) rotate(-81.96)"/><path class="cls-3" d="M25.09,50.1s-8-29.85,10.25-35.22C58.64,8,59.64,44.43,59.64,44.43Z" transform="translate(-15.33)"/><path class="cls-5" d="M59.93,42.81l-3.1.52-8,15.92L35.5,47.11l-11.42,2.2c2.36,8.22,5.3,22,5.31,34.52l-2,12.09s11.08,3.34,9.27-.27c-2.54-5.06-7.26-1.78-7.26-1.78l3.32-9.51,1.86-6.88c14.25,1.09,21.91-.83,21.91-.83l.27,7.42L54.48,95.84s12.88,3.45,8.71-1.55C60,90.46,56.36,94,56.36,94l4.07-9.86C62.54,68.84,63.44,57.27,59.93,42.81Z" transform="translate(-15.33)"/><polygon class="cls-4" points="41.51 43.33 33.5 59.24 20.17 47.11 41.51 43.33"/><polygon class="cls-6" points="41.51 43.33 42.7 49.33 39.42 50.62 40.69 55.13 33.5 59.24 41.51 43.33"/><polygon class="cls-6" points="33.5 59.24 25.45 56.92 25.13 53.54 21.32 52.87 20.17 47.11 33.5 59.24"/><polygon class="cls-7" points="34.6 47.58 33.19 46.09 30.27 46.5 29.56 48.71 30.96 49.87 30.49 56.52 33.5 59.24 35.63 55.02 33.54 49.49 34.6 47.58"/><circle class="cls-6" cx="48.86" cy="61.91" r="0.99" transform="translate(-34.9 22.7) rotate(-21.91)"/><circle class="cls-6" cx="48.61" cy="65.97" r="0.99" transform="translate(-36.43 22.9) rotate(-21.91)"/><path class="cls-8" d="M54.68,0S65.06,22.21,29.3,25L30,32.7s-3.55-2.31-3.79,1.22c-.27,4.07,3.35,1.7,3.35,1.7s-1.69,9.6-4.66,13.55c-.56-.5-17.75-32.83-2-33.61,0-.93.82-7.38,9.43-10.34C45.33.74,47.44,11.34,54.68,0Z" transform="translate(-15.33)"/><ellipse class="cls-8" cx="37.54" cy="31.61" rx="1.28" ry="2.48" transform="translate(-22.45 11.26) rotate(-15.6)"/><ellipse class="cls-8" cx="51.93" cy="27.44" rx="1.28" ry="2.48" transform="translate(-20.8 14.97) rotate(-15.6)"/><path class="cls-9" d="M51.6,35.23s-6.52.87-10.28,2.8c0,0,.52,5.35,6.56,3.89S51.6,35.23,51.6,35.23Z" transform="translate(-15.33)"/><path class="cls-3" d="M27.12,74.62s3.2,2.53,4.55-.18-2.73-3.06-2.73-3.06Z" transform="translate(-15.33)"/><polygon class="cls-4" points="13.21 70.94 14.11 71.31 11.95 74.85 11.11 74.35 13.21 70.94"/><path class="cls-5" d="M24.08,49.31S2.85,61.81,26.53,74.83l2.59-3.95s-18.86-8-3.69-17.71Z" transform="translate(-15.33)"/><circle class="cls-6" cx="25" cy="72.69" r="0.43" transform="translate(-66.96 66.57) rotate(-66.45)"/><circle class="cls-6" cx="26.22" cy="73.5" r="0.43" transform="translate(-66.97 68.14) rotate(-66.42)"/></g></g></svg>