<svg id="Camada_1" data-name="Camada 1" xmlns="http://www.w3.org/2000/svg" viewBox="0 0 84 43"><defs><style>.cls-1{fill:#bd916a;opacity:0.4;}.cls-2{fill:#cc6a00;}.cls-3{fill:#fff;}.cls-4{fill:#fdb62e;}</style></defs><title>icones-adm</title><path class="cls-1" d="M10.55,11.86v0H73.82a1.82,1.82,0,0,0-.16-1.61,4.31,4.31,0,0,0-3.24-2A24.51,24.51,0,0,0,67.31,8l0-.11a4.85,4.85,0,0,0-8-1.87,4.78,4.78,0,0,0-.55.67,2.58,2.58,0,0,0-.6-.76l-.82-.68a4.58,4.58,0,0,0-2-1.16,4.53,4.53,0,0,0-2.38,0,4.58,4.58,0,0,0-2.8,2.2,4.2,4.2,0,0,0-.51-1.42,4.14,4.14,0,0,0-7.58,1,4,4,0,0,0-.12.6A4,4,0,0,0,40,6.6c-.09-.11-.19-.22-.29-.32a4.4,4.4,0,0,0-6.22,0,4.24,4.24,0,0,0-.42.51l-.64,0a3.32,3.32,0,0,0-.21-.43,3.55,3.55,0,0,0-2.72-1.69,3.91,3.91,0,0,0-2.75-3c-2.4-.71-4.31,1.17-6.09,2.47h0l-.82.63a2.86,2.86,0,0,0-.92,1.33,3.71,3.71,0,0,0-2.47.44l-.31.21h-.33a8.66,8.66,0,0,0-2.75.79,3.77,3.77,0,0,0-2.52,4.12C10.56,11.72,10.55,11.79,10.55,11.86Z"/><rect class="cls-2" x="51.98" y="11.82" width="9.17" height="26.44"/><rect class="cls-3" x="53.6" y="14.52" width="2.43" height="6.48"/><rect class="cls-3" x="57.11" y="14.52" width="2.43" height="6.48"/><rect class="cls-3" x="53.6" y="22.07" width="2.43" height="6.48"/><rect class="cls-3" x="57.11" y="22.07" width="2.43" height="6.48"/><rect class="cls-3" x="53.6" y="29.63" width="2.43" height="6.48"/><rect class="cls-3" x="57.11" y="29.63" width="2.43" height="6.48"/><rect class="cls-2" x="11.78" y="20.99" width="9.44" height="17.27"/><rect class="cls-2" x="5.57" y="4" width="10.37" height="34.27"/><rect class="cls-3" x="5.57" y="6.96" width="2.97" height="4.32"/><rect class="cls-3" x="9.35" y="6.96" width="2.97" height="4.32"/><rect class="cls-3" x="13.13" y="6.96" width="3.24" height="4.32"/><rect class="cls-3" x="5.57" y="12.36" width="2.97" height="4.32"/><rect class="cls-3" x="9.35" y="12.36" width="2.97" height="4.32"/><rect class="cls-3" x="13.13" y="12.36" width="3.24" height="4.32"/><rect class="cls-3" x="5.57" y="17.76" width="2.97" height="4.59"/><rect class="cls-3" x="9.35" y="17.76" width="2.97" height="4.59"/><rect class="cls-3" x="13.13" y="17.76" width="3.24" height="4.59"/><rect class="cls-3" x="5.57" y="23.15" width="2.97" height="4.32"/><rect class="cls-3" x="9.35" y="23.15" width="2.97" height="4.32"/><rect class="cls-3" x="13.13" y="23.15" width="3.24" height="4.32"/><rect class="cls-3" x="5.57" y="28.55" width="2.97" height="4.59"/><rect class="cls-3" x="9.35" y="28.55" width="2.97" height="4.59"/><rect class="cls-3" x="13.13" y="28.55" width="3.24" height="4.59"/><path class="cls-2" d="M25.81,9.66V7.23H23.92V9.66h-.54V6.42H21.49V9.66H19.88v28.6h9.71V9.66ZM23.92,33.95H22V30.44h1.89Zm0-5.94H22V24.5h1.89Zm0-5.94H22V18.57h1.89Zm0-5.94H22V12.63h1.89Zm3.24,17.81H25.27V30.44h1.89Zm0-5.94H25.27V24.5h1.89Zm0-5.94H25.27V18.57h1.89Zm0-5.94H25.27V12.63h1.89Z"/><rect class="cls-3" x="22.03" y="12.63" width="1.89" height="3.51"/><rect class="cls-3" x="25.27" y="12.63" width="1.89" height="3.51"/><rect class="cls-3" x="22.03" y="18.57" width="1.89" height="3.51"/><rect class="cls-3" x="25.27" y="18.57" width="1.89" height="3.51"/><rect class="cls-3" x="22.03" y="24.5" width="1.89" height="3.51"/><rect class="cls-3" x="25.27" y="24.5" width="1.89" height="3.51"/><rect class="cls-3" x="22.03" y="30.44" width="1.89" height="3.51"/><rect class="cls-3" x="25.27" y="30.44" width="1.89" height="3.51"/><path class="cls-2" d="M62.24,21.53v17H77.89v-17Zm14,2.43H63.59v-.54H76.27Zm0,1.89H63.59v-.54H76.27Zm0,1.89H63.59V27.2H76.27Zm0,1.89H63.59v-.54H76.27Zm0,1.89H63.59V31H76.27Zm0,1.89H63.59v-.54H76.27Zm0,1.89H63.59v-.54H76.27Z"/><rect class="cls-2" x="30.94" y="5.07" width="10.25" height="33.19"/><rect class="cls-3" x="32.83" y="6.96" width="0.81" height="5.4"/><rect class="cls-3" x="35.52" y="6.96" width="1.08" height="5.4"/><rect class="cls-3" x="38.49" y="6.96" width="0.81" height="5.4"/><rect class="cls-3" x="32.83" y="13.71" width="0.81" height="5.4"/><rect class="cls-3" x="35.52" y="13.71" width="1.08" height="5.4"/><rect class="cls-3" x="38.49" y="13.71" width="0.81" height="5.4"/><rect class="cls-3" x="32.83" y="20.45" width="0.81" height="5.4"/><rect class="cls-3" x="35.52" y="20.45" width="1.08" height="5.4"/><rect class="cls-3" x="38.49" y="20.45" width="0.81" height="5.4"/><rect class="cls-3" x="32.83" y="27.2" width="0.81" height="5.4"/><rect class="cls-3" x="35.52" y="27.2" width="1.08" height="5.4"/><rect class="cls-3" x="38.49" y="27.2" width="0.81" height="5.4"/><path class="cls-2" d="M76.81,12.36V9.93h-3V7.23H71.95v2.7H70.33v2.43h-.81V38.53h10V12.36Zm-4,21.32H70.87V31.52h1.89Zm0-4H70.87V27.47h1.89Zm0-4H70.87V23.42h1.89Zm0-4H70.87V19.38h1.89Zm0-4H70.87V15.33h1.89Zm3.51,16.19H74.38V31.52h1.89Zm0-4H74.38V27.47h1.89Zm0-4H74.38V23.42h1.89Zm0-4H74.38V19.38h1.89Zm0-4H74.38V15.33h1.89Z"/><rect class="cls-3" x="70.87" y="15.33" width="1.89" height="2.16"/><rect class="cls-3" x="74.38" y="15.33" width="1.89" height="2.16"/><rect class="cls-3" x="70.87" y="19.38" width="1.89" height="2.16"/><rect class="cls-3" x="74.38" y="19.38" width="1.89" height="2.16"/><rect class="cls-3" x="70.87" y="23.42" width="1.89" height="2.16"/><rect class="cls-3" x="74.38" y="23.42" width="1.89" height="2.16"/><rect class="cls-3" x="70.87" y="27.47" width="1.89" height="2.16"/><rect class="cls-3" x="74.38" y="27.47" width="1.89" height="2.16"/><rect class="cls-3" x="70.87" y="31.52" width="1.89" height="2.16"/><rect class="cls-3" x="74.38" y="31.52" width="1.89" height="2.16"/><rect class="cls-4" x="1.26" y="38.26" width="81.48" height="3.24"/><path class="cls-2" d="M51.17,9.12a4.7,4.7,0,0,0-9.17,0V38.26h9.17Z"/><rect class="cls-3" x="43.35" y="10.74" width="1.08" height="4.05"/><rect class="cls-3" x="46.05" y="10.74" width="1.08" height="4.05"/><rect class="cls-3" x="48.75" y="10.74" width="1.08" height="4.05"/><rect class="cls-3" x="43.35" y="17.22" width="1.08" height="4.05"/><rect class="cls-3" x="46.05" y="17.22" width="1.08" height="4.05"/><rect class="cls-3" x="48.75" y="17.22" width="1.08" height="4.05"/><rect class="cls-3" x="43.35" y="23.69" width="1.08" height="4.05"/><rect class="cls-3" x="46.05" y="23.69" width="1.08" height="4.05"/><rect class="cls-3" x="48.75" y="23.69" width="1.08" height="4.05"/><rect class="cls-3" x="43.35" y="30.17" width="1.08" height="4.05"/><rect class="cls-3" x="46.05" y="30.17" width="1.08" height="4.05"/><rect class="cls-3" x="48.75" y="30.17" width="1.08" height="4.05"/></svg>