<svg xmlns="http://www.w3.org/2000/svg" xmlns:xlink="http://www.w3.org/1999/xlink" viewBox="0 0 200 200"><defs><style>.cls-1{fill:url(#linear-gradient);}.cls-2{fill:#449494;}.cls-3{fill:#1f6e6e;}.cls-4{fill:#ffc29e;}.cls-5{opacity:0.5;}.cls-6{fill:#cc906f;}.cls-7{fill:#c98f4e;}.cls-8{fill:#613b23;}.cls-9{fill:#a66f32;}.cls-10{fill:#8c171b;}.cls-11{fill:#c1272d;}.cls-12{fill:#d4145a;opacity:0.2;}.cls-13{fill:#238bb5;}.cls-14{fill:#5eab88;}.cls-15{fill:#b0895e;}.cls-16{fill:#40916c;}.cls-17{fill:#c69c6d;}.cls-18{fill:#9e7344;}.cls-19,.cls-27{fill:#f88f81;}.cls-20{fill:#db7162;}.cls-21{fill:#784b2f;}.cls-22{fill:#8f5938;}.cls-23{fill:#5d93ab;}.cls-24{fill:#452614;}.cls-25,.cls-32{fill:#fff;}.cls-26{fill:#cc5545;}.cls-27,.cls-30{opacity:0.4;}.cls-28{opacity:0.3;}.cls-29{fill:#4d2914;}.cls-30{fill:#f8a581;}.cls-31{fill:#0f253b;}.cls-32{font-size:18.82px;font-family:DKStickyToffee-Regular, DK Sticky Toffee;}.cls-33{letter-spacing:-0.02em;}.cls-34{letter-spacing:-0.06em;}.cls-35{letter-spacing:-0.05em;}.cls-36{letter-spacing:-0.05em;}.cls-37{letter-spacing:-0.04em;}</style><linearGradient id="linear-gradient" x1="100" y1="4.56" x2="100" y2="158.51" gradientUnits="userSpaceOnUse"><stop offset="0.27" stop-color="#e8f8ff"/><stop offset="0.65" stop-color="#d9f4ff"/></linearGradient></defs><title>112865-OOAXZD-926</title><g id="objects"><rect class="cls-1" width="200" height="200"/><path class="cls-2" d="M17,102.89c-.65-5.56-.45-20.44,5.7-26.32a34.74,34.74,0,0,1,17.44-7.8c5.24-.93,16.81-3.18,19.08,5.44s4.13,20.72,4.13,20.72S20.33,112.86,17,102.89Z"/><path class="cls-2" d="M76.86,87.1c3.77,1.67,9.78,5.93,11.05,9C85.4,99.35,76.85,98,76.64,97.91S73.95,90.54,76.86,87.1Z"/><path class="cls-3" d="M57.1,90.36s-.19-.1-.38-.42a5.84,5.84,0,0,1-.54-1.42,30.53,30.53,0,0,1-.74-4.89c-.17-1.92-.27-3.65-.36-4.9,0-.62-.09-1.13-.14-1.47s-.07-.54,0-.55.13.16.24.51a11.11,11.11,0,0,1,.31,1.47c.19,1.25.35,3,.52,4.89s.35,3.63.58,4.85a8.82,8.82,0,0,0,.37,1.41C57,90.17,57.13,90.33,57.1,90.36Z"/><path class="cls-4" d="M31.91,64.59c.17,2.74.83,5.14.9,8,.1,4,13.42,4.57,12.77-2.62a61.3,61.3,0,0,0-1.51-6.22Z"/><g class="cls-5"><path class="cls-6" d="M31.91,64.59c.17,2.74.83,5.14.9,8,.1,4,13.42,4.57,12.77-2.62a61.3,61.3,0,0,0-1.51-6.22Z"/></g><path class="cls-7" d="M13.47,56.15c-1.67,2.62,2.14,10.38,8.46,10.54,3.43.09,6.69-2.72,6.69-2.72S19.18,49.82,13.47,56.15Z"/><path class="cls-4" d="M14.38,38.07C14.2,46.74,16.67,55.24,18.73,59s11,12.15,25.85,6.24,10.1-20.32,8-27.18c-2.55-8.3-5.76-10.74-6.43-11.72S13.92,19.06,14.38,38.07Z"/><path class="cls-4" d="M16.2,50.39c-5.69-4.74-9.15,2.4-6.3,5.69s7.88,3.89,8.41-.72C18.23,54.13,16.2,50.39,16.2,50.39Z"/><path class="cls-7" d="M25.77,21.28C30.1,20.6,35.91,14,43.1,15s13.67,6.89,13.18,8.86c-.36.74-6.57-2.44-7-2,5.91,3.4,9.52,13.91,7.62,16.16-.53.24-8.28-2.2-16.18.15-2,.59-5.21-6.81-5.33-8.73.68,6.07,1.76,8.65,1.26,8.88a29.15,29.15,0,0,1-3.22.71c-1.36-2.26-3.68-11.69-3.73-12.5-6.59,5.4-5.28,14-6.76,14.81a14.84,14.84,0,0,1-4.44,2.31A15.77,15.77,0,0,1,18,36.08c-1.75,1.36-1.85,7.38-.53,14.43.39,2.1-2.51-2.22-5.86-1.47-2.86-10-2.51-23.57,7.7-24.72C22.32,21.59,23.53,21.41,25.77,21.28Z"/><path class="cls-8" d="M29.22,47.54c-.06,0-.2,0-.39-.19s-.45-.38-.77-.62a4.25,4.25,0,0,0-1.24-.6A3.67,3.67,0,0,0,25.21,46a4.43,4.43,0,0,0-2.54,1.59c-.25.32-.46.6-.58.8s-.26.31-.33.29-.09-.17-.06-.43A3.25,3.25,0,0,1,22,47.22,4.28,4.28,0,0,1,25,45a4,4,0,0,1,2.12.21,3.85,3.85,0,0,1,1.42,1,3.14,3.14,0,0,1,.61.94C29.27,47.36,29.29,47.5,29.22,47.54Z"/><path class="cls-8" d="M43.94,44.46c-.07,0-.09-.17-.05-.41a2.3,2.3,0,0,1,.09-.44c.06-.17.13-.35.22-.56a6.4,6.4,0,0,1,.4-.63,3.65,3.65,0,0,1,.63-.62,3.35,3.35,0,0,1,1.92-.72,3.54,3.54,0,0,1,2,.52,4,4,0,0,1,.7.52,6.6,6.6,0,0,1,.5.55,3.41,3.41,0,0,1,.49.93c.08.24.09.38,0,.42s-.19,0-.37-.19-.41-.38-.69-.64c-.16-.11-.32-.25-.5-.38a4.3,4.3,0,0,0-.6-.34,3.11,3.11,0,0,0-1.46-.32,3.4,3.4,0,0,0-2.37,1.32l-.32.42c-.1.12-.17.24-.24.33S44,44.48,43.94,44.46Z"/><path class="cls-6" d="M39.33,47.94s-.12,0-.25-.15a4.33,4.33,0,0,0-.55-.43,2.82,2.82,0,0,0-.42-.22l-.24-.1L37.61,47a3,3,0,0,0-1.21,0,3.5,3.5,0,0,0-1.9,1.13c-.38.44-.54.8-.62.77s0-.43.32-1A3.16,3.16,0,0,1,35,47a3.51,3.51,0,0,1,1.3-.59,3.09,3.09,0,0,1,1.43,0l.31.1.27.14a2.55,2.55,0,0,1,.45.31,2.2,2.2,0,0,1,.49.6C39.33,47.82,39.36,47.92,39.33,47.94Z"/><path class="cls-9" d="M25.63,35.54c0,.08-.35.09-.86.21a6.47,6.47,0,0,0-1.88.79,5.75,5.75,0,0,0-1.52,1.34c-.32.41-.45.72-.53.7s-.05-.39.22-.9a4.34,4.34,0,0,1,1.56-1.59,4.67,4.67,0,0,1,2.11-.71C25.3,35.35,25.64,35.48,25.63,35.54Z"/><path class="cls-9" d="M43.53,31.57c0-.06.28-.26.86-.35a4.67,4.67,0,0,1,2.21.22,4.34,4.34,0,0,1,1.88,1.2c.38.44.47.81.41.83s-.27-.24-.68-.57a5.75,5.75,0,0,0-1.78-1,6.47,6.47,0,0,0-2-.35C43.89,31.58,43.56,31.65,43.53,31.57Z"/><path class="cls-10" d="M31.32,55.8c3.19-2.74,10-4,13.2-2.24C44.72,60.06,35.79,65.5,31.32,55.8Z"/><path class="cls-11" d="M33.71,59.31c3.18,3,7.13,1.8,9.26-1A6.37,6.37,0,0,0,33.71,59.31Z"/><path class="cls-3" d="M27.77,95.91a2.69,2.69,0,0,1-.1-.85c0-.28,0-.62,0-1l.06-1.33c0-1,.11-2.16.19-3.46l.13-2a18.59,18.59,0,0,0,0-2.16A14.4,14.4,0,0,0,27.19,81a6.61,6.61,0,0,0-1.81-2.77,3.34,3.34,0,0,0-2-.8,7.56,7.56,0,0,1-.85,0,1.69,1.69,0,0,1,.85-.21,3.35,3.35,0,0,1,2.27.71,6.69,6.69,0,0,1,2,2.89,14,14,0,0,1,.9,4.2,17.63,17.63,0,0,1,0,2.23l-.16,2c-.11,1.3-.21,2.46-.3,3.44l-.13,1.32c0,.39,0,.72-.06,1A2.81,2.81,0,0,1,27.77,95.91Z"/><path class="cls-3" d="M31.9,71.87a2.82,2.82,0,0,0-.72.76,1.93,1.93,0,0,0-.27,1.14,1.38,1.38,0,0,0,.25.66c.07.11.17.21.26.32l.31.31a9.38,9.38,0,0,0,3.82,1.87,12.9,12.9,0,0,0,5.23.27,9.54,9.54,0,0,0,4.72-2.12,8.86,8.86,0,0,0,1.54-1.69c.22-.28.38-.6.57-.88s.32-.58.43-.85a1.47,1.47,0,0,0-.14-1.45,2.88,2.88,0,0,0-.92-.79c-.6-.34-1-.44-1-.48a2.29,2.29,0,0,1,1.06.3,2.9,2.9,0,0,1,1.06.79,1.78,1.78,0,0,1,.25,1.75c-.11.31-.27.6-.42.92s-.34.63-.56.93a9,9,0,0,1-1.58,1.8,9.78,9.78,0,0,1-5,2.27,12.91,12.91,0,0,1-5.44-.32,9.37,9.37,0,0,1-4-2.07L31.16,75c-.09-.13-.19-.24-.27-.37a1.67,1.67,0,0,1-.26-.82A2.08,2.08,0,0,1,31,72.52C31.45,71.91,31.91,71.84,31.9,71.87Z"/><path class="cls-6" d="M15.35,55.46s-.11.09-.33.14a1.81,1.81,0,0,1-1-.06,1.41,1.41,0,0,1-.94-1.23,1.32,1.32,0,0,1,.3-.94,1.35,1.35,0,0,1,.2-.19l.24-.14L14,53,14,53h0s.07.06-.19-.18a3,3,0,0,0-.64-.38,2,2,0,0,0-1.2-.17.79.79,0,0,0-.52.54c0,.2-.08.32-.12.33s-.07-.12-.09-.36a1,1,0,0,1,.12-.44,1,1,0,0,1,.47-.42,2.16,2.16,0,0,1,1.51.07,3.17,3.17,0,0,1,.78.43,1.68,1.68,0,0,1,.4.44,2.27,2.27,0,0,1,.22.35l.1.18s-.12,0-.18,0c-.24,0-.63.09-.66.11l-.14.08a.9.9,0,0,0-.12.1.86.86,0,0,0-.2.58,1,1,0,0,0,.6.91,2.13,2.13,0,0,0,.84.2C15.22,55.41,15.35,55.43,15.35,55.46Z"/><path class="cls-9" d="M50.91,22.1a4.77,4.77,0,0,1-1.55-.43c-.93-.34-2.2-.85-3.6-1.4A29.71,29.71,0,0,0,42.14,19,7.42,7.42,0,0,0,41,18.85c-.26,0-.42,0-.43,0s.14-.1.42-.16a4.39,4.39,0,0,1,1.2,0,17.74,17.74,0,0,1,3.74,1.1c1.41.56,2.65,1.12,3.55,1.55A5.16,5.16,0,0,1,50.91,22.1Z"/><path class="cls-9" d="M18.37,42.78s-.12-.19-.24-.57c-.06-.19-.14-.42-.2-.7l-.19-.94c-.05-.35-.09-.74-.14-1.16s0-.87,0-1.34a17.08,17.08,0,0,1,.33-3,16.81,16.81,0,0,1,.91-2.93A14.18,14.18,0,0,1,20,29.89a5.24,5.24,0,0,1,1.55-1.7c.06.06-.54.69-1.23,1.9a17.61,17.61,0,0,0-1.05,2.19,19.37,19.37,0,0,0-.85,2.85,19.74,19.74,0,0,0-.36,3c0,.46,0,.89,0,1.3s0,.79.07,1.13l.11.93c0,.28.08.51.11.7C18.39,42.55,18.41,42.77,18.37,42.78Z"/><ellipse class="cls-12" cx="25.7" cy="54.36" rx="4.48" ry="4.2"/><ellipse class="cls-12" cx="48.91" cy="49.68" rx="4.48" ry="4.2"/><path class="cls-13" d="M177.35,136.52a72.84,72.84,0,0,1-1.45,17.33c-1.16,5.41-17.54,4.24-18.08,3.83s-7-26.52-7-26.52Z"/><path class="cls-14" d="M180.49,114.13c-.09,6.78-1.75,19.7-3.15,23.34-11.44,3.92-28.52-5.93-28.52-5.93s.46-14.5.74-14.9"/><path class="cls-15" d="M168.82,45.8c14.43-12.63,25.91,5.78,24.29,16.65s-1.38,19.24,3,18.14c1.35,1.46-3.75,3-3.75,3,4.29.36,5.27-2,5.61.15S186.18,99.46,174.37,89,155.14,54.6,168.82,45.8Z"/><path class="cls-14" d="M130.88,88.07c7.87-2.95,16.17-8.23,29.34-4.83,6.07,1.56,17.8,2.61,22.83,11.76s-2,29.31-8.64,32.61-42.61-27.33-43.91-31.28S130.88,88.07,130.88,88.07Z"/><path class="cls-16" d="M147.87,97.53a4.86,4.86,0,0,1-.42-1.92,18.52,18.52,0,0,1,.22-4.73A17.07,17.07,0,0,1,149,86.36a4.28,4.28,0,0,1,1.1-1.63c.07,0-.33.67-.76,1.78A22.82,22.82,0,0,0,148.18,91a25.55,25.55,0,0,0-.37,4.62A14.37,14.37,0,0,1,147.87,97.53Z"/><path class="cls-4" d="M157.5,84.42c.43,3.26,0,7.25,3.33,10s8.73,1.13,10.71-5.69a26.38,26.38,0,0,0-.82-4.82S161.16,89.48,157.5,84.42Z"/><g class="cls-5"><path class="cls-6" d="M157.5,84.42c.43,3.26,0,7.25,3.33,10s8.73,1.13,10.71-5.69a26.38,26.38,0,0,0-.82-4.82S161.16,89.48,157.5,84.42Z"/></g><path class="cls-14" d="M95.63,89.74c3.27-1.58,5.15-3.81,11.57-2s7.54,6.45,6.72,6.71-13.69-.25-13.69-.25"/><path class="cls-16" d="M172.15,88.47a1.47,1.47,0,0,1,.48,1.07,5.75,5.75,0,0,1-.72,3.12,10.45,10.45,0,0,1-3.07,3.63,8.88,8.88,0,0,1-5.52,1.81,7.25,7.25,0,0,1-3-.69,6.29,6.29,0,0,1-2.24-1.77,8.7,8.7,0,0,1-1.81-4.4c0-.34-.09-.66-.09-1l0-.86c0-.54.06-1,.09-1.37a4.94,4.94,0,0,1,.24-1.14,5,5,0,0,1,0,1.16c0,.37,0,.83,0,1.35l.06.84c0,.3.09.6.13.93a8.59,8.59,0,0,0,1.81,4.14A5.9,5.9,0,0,0,160.56,97a6.85,6.85,0,0,0,2.77.63,8.56,8.56,0,0,0,5.22-1.67,10.49,10.49,0,0,0,3-3.41,6,6,0,0,0,.85-2.93A3.21,3.21,0,0,0,172.15,88.47Z"/><path class="cls-4" d="M164,49.07c-13.29,2.23-17.46,7.78-14.8,22.46C146.52,74.11,143,87.72,160,89.81,179.3,92.19,181.06,78,181.23,76.74c8.85,1.47,6.61-13.38,1.49-10.17C182.65,57.84,174.14,47.22,164,49.07Z"/><path class="cls-10" d="M155.24,80.43c-.23-1.75,1.66-3,3-1.75,1.08,1.06,3,1.38,5,0s4.12.08,3.67,2.49c-.56,3-4.73,5.9-7.55,5.23S155.55,82.7,155.24,80.43Z"/><path class="cls-8" d="M175.22,72.55c0,.05,0,.2-.18.41a2.11,2.11,0,0,1-1,.66,1,1,0,0,1-.23,0,1,1,0,0,1-.27,0,1.44,1.44,0,0,1-.31-.1l-.14-.09s-.11-.05-.13-.11l-.22-.43c-.07-.09-.13-.2-.21-.29a1.91,1.91,0,0,0-1.29-.69,3.52,3.52,0,0,0-1.61.27,8.82,8.82,0,0,0-1.31.66l-.88.55c-.22.12-.37.17-.42.12s0-.2.14-.42a4.69,4.69,0,0,1,.71-.84,5.83,5.83,0,0,1,1.37-1,3.89,3.89,0,0,1,2.12-.43,2.71,2.71,0,0,1,2,1.15,4.15,4.15,0,0,1,.25.44,1.34,1.34,0,0,1,.11.31.09.09,0,0,0,.05.06.41.41,0,0,0,.19,0,3.09,3.09,0,0,0,.89-.26C175,72.53,175.17,72.49,175.22,72.55Z"/><path class="cls-6" d="M162.64,75.74c-.06.06-.27-.12-.62-.35a2.57,2.57,0,0,0-1.4-.52,1.56,1.56,0,0,0-1.23.65c-.24.31-.32.57-.4.55s-.11-.31.08-.75a1.66,1.66,0,0,1,.54-.65,1.74,1.74,0,0,1,1-.33,2,2,0,0,1,1,.26l.2.11.17.13a1.7,1.7,0,0,1,.28.25,1.87,1.87,0,0,1,.32.43C162.65,75.65,162.67,75.72,162.64,75.74Z"/><path class="cls-11" d="M166.38,82.48c-5.41-1.37-10.32-.56-8.65,3.19a4.24,4.24,0,0,0,1.58.74C161.71,87,165.09,84.95,166.38,82.48Z"/><path class="cls-8" d="M148.47,70.79c.06,0,.19,0,.4.15a3.09,3.09,0,0,0,.83.4.41.41,0,0,0,.2,0,.09.09,0,0,0,.06,0,1.32,1.32,0,0,1,.16-.29,4.24,4.24,0,0,1,.32-.39,2.71,2.71,0,0,1,2.12-.81,3.89,3.89,0,0,1,2,.78,5.84,5.84,0,0,1,1.19,1.18,4.72,4.72,0,0,1,.56,1c.1.24.13.39.07.43s-.2,0-.4-.19-.46-.4-.78-.69a8.86,8.86,0,0,0-1.18-.87,3.53,3.53,0,0,0-1.54-.54,1.91,1.91,0,0,0-1.39.46c-.09.07-.17.17-.25.25l-.29.39c0,.06-.1.06-.15.09l-.16.07a1.42,1.42,0,0,1-.32,0,1.22,1.22,0,0,1-.49-.12,2.11,2.11,0,0,1-.87-.82C148.45,71,148.42,70.83,148.47,70.79Z"/><path class="cls-6" d="M150.8,64.67c-.05,0,.06-.32.42-.64a3.6,3.6,0,0,1,1.64-.77,4.19,4.19,0,0,1,1-.07,2.89,2.89,0,0,1,.81.17c.45.17.65.41.61.46s-.3,0-.71-.1a4.76,4.76,0,0,0-1.62.06,5.34,5.34,0,0,0-1.53.55C151.07,64.54,150.86,64.72,150.8,64.67Z"/><path class="cls-17" d="M148.59,61.38c-3.44-3.19.11-13.25,13.22-16.13S188.88,50.1,184,66c-2.2.75-3.16,4.26-4.37,4.13s-17-.8-18.25-15.93c-1.16-1.06-4.59-.79-4.59-.79C151.56,54,148.85,59.45,148.59,61.38Z"/><path class="cls-18" d="M174,66.12c-.07,0-.24-.17-.57-.44a5.34,5.34,0,0,0-1.42-.8,4.75,4.75,0,0,0-1.59-.33c-.42,0-.68,0-.71,0s.21-.26.68-.35a2.9,2.9,0,0,1,.83,0,4.19,4.19,0,0,1,1,.24,3.6,3.6,0,0,1,1.49,1C174,65.8,174,66.1,174,66.12Z"/><path class="cls-12" d="M149.56,73.13a4.72,4.72,0,0,0-1.56.27,12.18,12.18,0,0,0-.79,7.49,4.67,4.67,0,0,0,2.35.63,4.21,4.21,0,1,0,0-8.4Z"/><ellipse class="cls-12" cx="172.26" cy="79.34" rx="4.48" ry="4.2"/><path class="cls-19" d="M106.49,91.56c-4.13-.19-17.22,4.11-15.6,14.41,1.71,10.83,6.22,14.57,7.19,18.11-.16,4.73,5.61,11.21,8.33,15.78s5.66,18,8.76,24.24c12.45,1.32,40.62-2,47.48-8.32-3.52-5.54-7-15.48-8.12-22s-.49-9.16-.68-10.38c8.38,7.36,7.88,19.15,5.33,27.38,3,5.94,3.52,5.26,3.52,5.26L173,153.2c3-10.06,2.88-23.07,2-30.67S162.08,99.71,147.7,95.91a99.66,99.66,0,0,1-10.25-3S116.31,102,106.49,91.56Z"/><path class="cls-20" d="M145.76,95.65a.56.56,0,0,1,0,.2,4.93,4.93,0,0,1-.1.57,12.11,12.11,0,0,1-.69,2.11,32.94,32.94,0,0,1-4.28,6.93,84.55,84.55,0,0,1-8.1,9c-1.63,1.58-3.4,3.19-5.3,4.78-1,.79-1.94,1.58-3,2.34a25.58,25.58,0,0,1-3.29,2.13,6.06,6.06,0,0,1-.94.4,1.86,1.86,0,0,1-.56.09c-.19,0-.34-.05-.5-.08-.33-.06-.66-.09-1-.18l-.95-.26a13.8,13.8,0,0,1-3.42-1.72,16.8,16.8,0,0,1-2.75-2.45,23.73,23.73,0,0,1-2.15-2.79A40,40,0,0,1,104,105.58a53.38,53.38,0,0,1-1.56-8c-.1-1-.16-1.7-.17-2.21a3.7,3.7,0,0,1,0-.77,5,5,0,0,1,.09.77c0,.5.13,1.24.26,2.19a60,60,0,0,0,1.71,7.92,40.6,40.6,0,0,0,4.79,10.94,23.56,23.56,0,0,0,2.11,2.72A16.43,16.43,0,0,0,114,121.5a13.34,13.34,0,0,0,3.29,1.65l.91.25c.3.09.62.11.92.17.15,0,.32.06.46.07a1.44,1.44,0,0,0,.39-.07,5.58,5.58,0,0,0,.86-.36,25.44,25.44,0,0,0,3.21-2.08c1-.75,2-1.53,2.95-2.32,1.89-1.57,3.66-3.17,5.29-4.73a89,89,0,0,0,8.15-8.84,35.12,35.12,0,0,0,4.38-6.79,14.49,14.49,0,0,0,.77-2.06A7.38,7.38,0,0,1,145.76,95.65Z"/><path class="cls-4" d="M104.54,91.65c3.87-.69,7.47-2.13,8.35-2.25,2.83,1.19,18.84-9.25,19-7.62s.89,9.5,1.37,9.64c3.31,1.13,9.79,3.11,10.12,3.45.28,4.34-19.51,25.29-23.32,26.26S103.22,109.32,104.54,91.65Z"/><g class="cls-5"><path class="cls-6" d="M134.65,91.9l-1.44-.48c-.47-.14-1.25-8-1.37-9.64a.17.17,0,0,0,0-.09l-.6,0c-3,.75-15.83,8.8-18.33,7.75-.42.06-1.57.44-2.89.85,2.54,7.61,6.17,15.57,13.36,14C129.66,102.83,133.49,96.1,134.65,91.9Z"/></g><path class="cls-4" d="M118.64,37.25c-11.4-.34-18.23,10.34-17.68,21.82.22,7.14,2.27,7,2.08,11.24s-2.09,9,5,15.3,14,11.78,28-6.83a22.58,22.58,0,0,0,2.66-8.51c3.47,2.66,6.9-4.88,7-7.75.11-3.63-4.12-6.36-5.72-1.16C138.11,54.52,136.2,34.61,118.64,37.25Z"/><path class="cls-8" d="M111.61,34.61c-4-4.64,1.07-8.46,2.84-7.36,1.08-4.76,8.74-5.56,14.84-3.88s16.89,9.72,7.57,15.71C126,39.51,112.74,40.23,111.61,34.61Z"/><path class="cls-21" d="M112.53,45.8c11.13-7.4,16.6,15.67,25.27,15.93-.09,1.91.08,5.59.91,5.15s1.59-4.63,1.73-5.46c1.06-2.79,2.53-3,3.54-2.44,3.2-10.73,2.51-16.34-4.64-20.58s-11-9-17.64-5.52c-5.31-3.51-30.38,8.59-20.55,21.65.72-6.17,4.45-8.84,7.45-9.21A8.44,8.44,0,0,1,112.53,45.8Z"/><path class="cls-6" d="M116.92,76.35s-.17.1-.5.15a5.17,5.17,0,0,1-1.43,0,3.23,3.23,0,0,1-1-.28,2,2,0,0,1-.92-.84,2.48,2.48,0,0,1-.09-1.35,11.92,11.92,0,0,1,.3-1.31,30.32,30.32,0,0,0,1.12-4.43,16.49,16.49,0,0,0,0-1.88,3,3,0,0,1,.34,1.91,20.42,20.42,0,0,1-1,4.54c-.12.43-.23.85-.29,1.25a2.13,2.13,0,0,0,0,1.07,1.62,1.62,0,0,0,.67.65,3.11,3.11,0,0,0,.85.3,7.77,7.77,0,0,0,1.35.15C116.73,76.31,116.92,76.32,116.92,76.35Z"/><path class="cls-22" d="M130.48,58.2c0,.06-.18,0-.37,0l-.34-.14-.43-.18a9.8,9.8,0,0,0-2.54-.69,8.64,8.64,0,0,0-2.61.06c-.67.1-1,.31-1.15.19s0-.18.14-.36a2.94,2.94,0,0,1,.31-.27,3.42,3.42,0,0,1,.46-.27,5.51,5.51,0,0,1,3-.4,6.54,6.54,0,0,1,1.61.42c.23.11.45.21.65.32s.37.23.53.35l.39.34a2.37,2.37,0,0,1,.25.3C130.48,58,130.53,58.14,130.48,58.2Z"/><path class="cls-22" d="M101.5,61.62c-.12,0-.15-.49.16-1.13a4.05,4.05,0,0,1,2-1.81,4.73,4.73,0,0,1,2.65-.37c.69.12,1.05.4,1,.52s-.44.14-1,.22a7.85,7.85,0,0,0-2.2.59,5.57,5.57,0,0,0-1.83,1.27C101.88,61.33,101.65,61.67,101.5,61.62Z"/><ellipse class="cls-23" cx="127.49" cy="67.31" rx="2.55" ry="2.23" transform="translate(58.5 193.91) rotate(-89.24)"/><path class="cls-23" d="M109.26,66.94a11.57,11.57,0,0,0-1.36-.49,2.48,2.48,0,0,0-.72,1.75,2.06,2.06,0,1,0,4.08.05,2.81,2.81,0,0,0,0-.41C110.57,67.53,109.9,67.25,109.26,66.94Z"/><path class="cls-24" d="M133.37,66.37c.05.07-.14.31-.58.55a4.22,4.22,0,0,1-.84.36,2.89,2.89,0,0,1-.59.11,1.54,1.54,0,0,1-.39,0,1,1,0,0,1-.24-.08,2.14,2.14,0,0,1-.23-.15l-.65-.55c-.25-.15-.48-.36-.75-.5a4,4,0,0,0-1.78-.59,3.37,3.37,0,0,0-2.14.6,6.34,6.34,0,0,0-1.42,1.37c-.71.92-1,1.61-1.2,1.55s0-.83.58-2a5.71,5.71,0,0,1,1.47-1.75,4.07,4.07,0,0,1,2.78-.86,4.62,4.62,0,0,1,2.24.78,8.22,8.22,0,0,1,.83.63l.64.66s0,0,.07,0l.19,0a2.73,2.73,0,0,0,.46,0,8.13,8.13,0,0,0,.8-.14C133.07,66.38,133.31,66.3,133.37,66.37Z"/><path class="cls-24" d="M130.28,64c.12.07.13.33-.09.61a1.91,1.91,0,0,1-1.06.62,2.22,2.22,0,0,1-1.17,0c-.3-.09-.47-.28-.43-.41s.64-.42,1.35-.6l.87-.2C130,63.94,130.15,63.89,130.28,64Z"/><path class="cls-24" d="M132.49,64.83c.09.1,0,.35-.27.61a2.74,2.74,0,0,1-1.28.6,2.94,2.94,0,0,1-1.39-.06c-.35-.12-.54-.3-.5-.43s.25-.24.55-.31.71-.16,1.15-.23l1.13-.22C132.17,64.74,132.39,64.72,132.49,64.83Z"/><path class="cls-24" d="M102.11,68.64c0-.07.21-.05.51,0a5.41,5.41,0,0,0,1.21.09.8.8,0,0,0,.55-.22s.06-.06.07-.1,0-.06.07-.17.15-.36.24-.54A3.54,3.54,0,0,1,106.83,66a3.74,3.74,0,0,1,2.67.2,4.64,4.64,0,0,1,1.68,1.27,3.82,3.82,0,0,1,.47.64l.16.28.11.25c.12.3.15.48.09.52s-.55-.48-1.35-1.15a4.9,4.9,0,0,0-1.52-.9,3.06,3.06,0,0,0-2-.09,2.8,2.8,0,0,0-1.53,1.21c-.08.14-.15.28-.23.42s-.1.19-.17.29a1.23,1.23,0,0,1-.25.27,1.54,1.54,0,0,1-1.14.31,3.22,3.22,0,0,1-1.35-.45C102.21,68.84,102.08,68.7,102.11,68.64Z"/><path class="cls-24" d="M105.57,67.34c.1.1,0,.39-.39.55a2.18,2.18,0,0,1-1.37.06,2.35,2.35,0,0,1-1.17-.66c-.25-.27-.29-.54-.18-.63s.32-.06.58,0l1,.26,1,.23C105.29,67.22,105.47,67.23,105.57,67.34Z"/><path class="cls-24" d="M107.11,66.73a.21.21,0,0,1-.1.21.68.68,0,0,1-.17.09l-.21,0a2.09,2.09,0,0,1-1.09-.2c-.76-.34-1.18-.89-1-1.14s.8-.12,1.46.17a5.29,5.29,0,0,1,.79.43l.13.1.09.08A.45.45,0,0,1,107.11,66.73Z"/><path class="cls-25" d="M111.58,80c2.44-1.43,9.93.7,14.12-2.75-1.24,6.8-7.39,8.55-8.92,8.15S113.25,79.6,111.58,80Z"/><path class="cls-6" d="M127.8,77.64c0,.14-.84,0-1.8-.24l-.67-.19L124.8,77c-.31-.11-.5-.21-.49-.28s.22-.1.55-.09c.17,0,.37,0,.59.05l.69.16C127.11,77.14,127.85,77.5,127.8,77.64Z"/><path class="cls-20" d="M98.22,125.4a2.25,2.25,0,0,1-.26-.74c-.06-.25-.1-.55-.15-.91s-.07-.76-.1-1.21a54.51,54.51,0,0,1,.31-7c.25-2.72.53-5.17.64-7,.06-.89.08-1.61.09-2.11a2.31,2.31,0,0,1,0-.78,2.25,2.25,0,0,1,.16.77,18.06,18.06,0,0,1,.08,2.13c0,1.8-.23,4.27-.49,7s-.46,5.17-.47,7c0,.44,0,.85,0,1.2s0,.66.06.9A2.31,2.31,0,0,1,98.22,125.4Z"/><path class="cls-20" d="M156.71,126.22a20.64,20.64,0,0,1-1.77-1.63,35,35,0,0,0-4.62-3.47c-1.9-1.22-3.71-2.19-5-2.9a12,12,0,0,1-2.09-1.22,10.26,10.26,0,0,1,2.25.89,43.17,43.17,0,0,1,5.14,2.79,26,26,0,0,1,4.59,3.64A7.57,7.57,0,0,1,156.71,126.22Z"/><path class="cls-20" d="M126.79,142.54a9.21,9.21,0,0,1-1.95-.52l-4.62-1.47-1.32-.42-1.23-.38c-.78-.25-1.49-.45-2.08-.62s-1.08-.28-1.41-.37-.52-.16-.52-.19.2,0,.55,0a9.08,9.08,0,0,1,1.47.21c.61.13,1.34.29,2.13.52l1.25.35,1.32.41C124,141.19,126.85,142.38,126.79,142.54Z"/><path class="cls-20" d="M123.26,142.88a9.94,9.94,0,0,1-2.7-.59l-1-.27-.84-.21c-.48-.1-.78-.2-.78-.27s.32-.11.83-.1c.26,0,.55.06.89.1s.69.14,1.07.23A6,6,0,0,1,123.26,142.88Z"/><path class="cls-6" d="M141.9,66.67c-.06,0-.25-.24-.38-.73a3.69,3.69,0,0,1,0-2,2.3,2.3,0,0,1,1.27-1.58.65.65,0,0,1,.67.14c.11.12.12.21.09.23s-.3-.21-.63,0a2.42,2.42,0,0,0-.9,1.39A10.67,10.67,0,0,0,141.9,66.67Z"/><path class="cls-26" d="M125.7,77.3c.07.05-.46.81-1.75,1.41a14.33,14.33,0,0,1-5.29,1.06c-2.09.1-4,0-5.3.1a12.9,12.9,0,0,0-1.56.17c-.37.06-.57.12-.6.07s.14-.2.5-.36a6.52,6.52,0,0,1,1.6-.43c1.37-.22,3.26-.24,5.32-.34a18.61,18.61,0,0,0,5.12-.78C125,77.76,125.62,77.2,125.7,77.3Z"/><path class="cls-26" d="M125.7,77.6c.05,0,0,.23-.05.59a9.09,9.09,0,0,1-.47,1.52,8.12,8.12,0,0,1-.44,1,9.16,9.16,0,0,1-.62,1.12c-.12.19-.24.39-.38.58l-.45.57a4.81,4.81,0,0,1-.51.56,5.72,5.72,0,0,1-.57.54,6.73,6.73,0,0,1-2.63,1.42,5.94,5.94,0,0,1-2.44.16c-1.39-.22-2.08-.79-2-.86s.81.24,2.09.3a6.24,6.24,0,0,0,2.17-.3,6.67,6.67,0,0,0,2.33-1.33,13.14,13.14,0,0,0,3-4c.32-.57.52-1.07.69-1.4S125.65,77.58,125.7,77.6Z"/><ellipse class="cls-27" cx="128.92" cy="73.41" rx="4.93" ry="3.19" transform="translate(-7.36 14.79) rotate(-6.38)"/><path class="cls-27" d="M106.81,78.54c2.72,0,4.91-1.47,4.9-3.23s-2.23-3.17-5-3.15a6,6,0,0,0-4,1.38,15.22,15.22,0,0,0,.06,3.73A6.08,6.08,0,0,0,106.81,78.54Z"/><path class="cls-4" d="M102.83,87.6c-2.51,0-7.68-.74-10.12,4.65-.94,4.53.48,7.33,2.24,7.28,1.15-.19.83-1.48.83-1.48,1.4,2.05,3,2.14,3.57,1.4,2,.77,1.92-1.8,1.92-1.8,2.23.77,3-1.38,2.49-3.49,0-.12-.33-2.53-.45-2.11l2.45-.51C105.45,89.56,105.11,88.08,102.83,87.6Z"/><path class="cls-4" d="M151.61,104.54c-1.28-.56-3.36-1.81-4.09-3s-2.37-5-3.94-4.39-.31,2.77-.31,2.77c-2.75-2.07-4.29-3.78-5.18-3.12a2.12,2.12,0,0,0-.7,1.89c-1.82-.43-1.45,2.08-.65,3-1.56.12-.77,2,0,2.64-1.56.39,1.26,7.27,11.94,9.24A34.82,34.82,0,0,0,151.61,104.54Z"/><path class="cls-14" d="M150.45,103.32c-2.44-.39-7,8.77-3.95,10.16,4.56,2.05,31.88,21.29,38.41,14.26s1.93-33.39-3.54-34.95-11,3.85-7.76,18.33C169.37,109.24,154.35,106.15,150.45,103.32Z"/><path class="cls-16" d="M164.3,108.29a5.69,5.69,0,0,1,1.25.21c.79.18,1.94.45,3.35.82.7.18,1.47.4,2.29.65.41.11.83.27,1.27.41a5.65,5.65,0,0,1,.66.25l.08,0h0v-.06l-.05-.18c-.08-.24-.14-.48-.21-.72-.14-.49-.25-1-.36-1.51a23.77,23.77,0,0,1-.45-3.24,16.42,16.42,0,0,1,.74-6.26,10.08,10.08,0,0,1,2.76-4.36,6.88,6.88,0,0,1,1.67-1.11,5.58,5.58,0,0,1,1.45-.43,4.1,4.1,0,0,1,.95,0c.22,0,.33,0,.33.07s-.46,0-1.24.17a6,6,0,0,0-1.35.5,6.92,6.92,0,0,0-1.55,1.12,10,10,0,0,0-2.55,4.24,16.49,16.49,0,0,0-.68,6.08,24.46,24.46,0,0,0,.43,3.17c.1.51.21,1,.34,1.48.06.24.12.48.19.71l.34,1.16,0,.08v0h0l0,0-.16-.07-.31-.14-.55-.25a5.35,5.35,0,0,0-.63-.25c-.42-.15-.83-.31-1.24-.43-.81-.27-1.57-.5-2.26-.71l-3.3-1A6,6,0,0,1,164.3,108.29Z"/><path class="cls-16" d="M178.16,116.27c-.08,0-.23-.33-.58-.83a14.44,14.44,0,0,0-1.54-1.84,24.63,24.63,0,0,1-2.43-2.47,7.71,7.71,0,0,1,2.81,2.1,8.12,8.12,0,0,1,1.48,2C178.19,115.84,178.22,116.25,178.16,116.27Z"/><path class="cls-6" d="M140.77,101.56a4.71,4.71,0,0,1-2-1.21,5.92,5.92,0,0,1-1.15-1.24c-.24-.38-.29-.67-.23-.69s.23.17.52.46.72.67,1.2,1.07C140,100.76,140.86,101.43,140.77,101.56Z"/><path class="cls-6" d="M139.21,103.78c-.08.12-.9-.29-1.73-1.05a5.73,5.73,0,0,1-.93-1.1c-.19-.33-.27-.54-.2-.58s.25.1.49.35l1,.95C138.63,103.07,139.3,103.66,139.21,103.78Z"/><path class="cls-6" d="M139.29,106c-.07.13-.78-.11-1.56-.6-.19-.12-.37-.26-.53-.38s-.29-.26-.39-.37-.29-.42-.24-.47.23,0,.47.18l.44.26.53.33C138.76,105.4,139.35,105.84,139.29,106Z"/><path class="cls-6" d="M103.76,94.15c-.07,0-.19-.16-.34-.48a4.81,4.81,0,0,1-.22-.58c-.06-.22-.11-.47-.16-.73-.18-1.05-.08-1.92.06-1.92s.29.83.46,1.83c0,.25.09.49.12.71s.08.41.11.58C103.83,93.9,103.83,94.12,103.76,94.15Z"/><path class="cls-6" d="M101.48,97.54c-.06,0-.29-.2-.57-.66a7.64,7.64,0,0,1-.77-1.93,7.36,7.36,0,0,1-.26-2.06,2.3,2.3,0,0,1,.08-.63c0-.15.08-.22.11-.22s.07.09.09.23,0,.35.08.6a18,18,0,0,0,.4,2c.18.76.43,1.42.59,1.9S101.55,97.5,101.48,97.54Z"/><path class="cls-6" d="M99.35,99.45s-.12,0-.27-.15L98.86,99c-.07-.11-.16-.23-.24-.38a11.15,11.15,0,0,1-.91-2.37,16,16,0,0,1-.49-2.47c-.07-.64,0-1.06,0-1.06s.16.38.32,1,.37,1.47.63,2.4.52,1.76.74,2.35l.16.39.13.29C99.34,99.32,99.38,99.42,99.35,99.45Z"/><path class="cls-6" d="M96.13,98.57c-.05,0-.27-.16-.54-.55a6.32,6.32,0,0,1-.71-1.68,7,7,0,0,1-.27-1.79c0-.12,0-.22,0-.32s0-.18,0-.24.06-.2.1-.2.07.07.11.2,0,.14,0,.22,0,.19.07.3c.09.44.23,1,.41,1.69s.38,1.23.53,1.65S96.19,98.52,96.13,98.57Z"/><path class="cls-6" d="M137,106.85s-.22-.17-.48-.6a3.52,3.52,0,0,1-.36-.84,2.29,2.29,0,0,1-.09-.58,1.29,1.29,0,0,1,0-.34.68.68,0,0,1,.07-.19.34.34,0,0,1,.06-.1l0,0h0s0,0,0,0l0,0-.15-.17a2.48,2.48,0,0,1-.46-.88,1.78,1.78,0,0,1,0-1.11.93.93,0,0,1,.45-.51.9.9,0,0,1,.18-.06h.07l-.05-.12a2.36,2.36,0,0,1-.11-.29,3.12,3.12,0,0,1-.16-1.28,1.52,1.52,0,0,1,.42-1,.83.83,0,0,1,.57-.23l.08,0s0,0,0,0a2.7,2.7,0,0,1-.1-.77,1.27,1.27,0,0,1,.28-.79,1.15,1.15,0,0,1,.73-.36,2.68,2.68,0,0,1,1.29.23,5.4,5.4,0,0,1,1,.52,4.38,4.38,0,0,1,1.48,1.44c-.06.06-.58-.52-1.66-1.15a5.64,5.64,0,0,0-.91-.43,2.37,2.37,0,0,0-1.08-.15.7.7,0,0,0-.43.22.8.8,0,0,0-.15.5,2.25,2.25,0,0,0,.11.65c.08.24.18.48.27.73l.26.66-.63-.49-.17-.13a.47.47,0,0,0-.1-.05l-.18-.08s0,0,0,0h0s0,0-.05,0a.26.26,0,0,0-.1.07,1,1,0,0,0-.25.65c0,.78.08,1.18.92,2.66l-.43-.23-.24-.12-.12-.06-.06,0h0l-.14,0-.06,0h0l-.06,0a.44.44,0,0,0-.21.25,1.34,1.34,0,0,0,0,.81,2.09,2.09,0,0,0,.35.73l.12.16.28.27.13.12s.1.09.07.08h0l0,.06,0,0v0l.05.05.25.26-.61-.2-.15,0-.11,0,0,0a.34.34,0,0,0,0,.1,1,1,0,0,0,0,.25,2.12,2.12,0,0,0,0,.51,4.08,4.08,0,0,0,.25.81C136.94,106.59,137.08,106.83,137,106.85Z"/><path class="cls-8" d="M78.4,95.56c-3-.76-10.51-5.32-20.48-6.2-6,2-13.89,1.54-22.74,3.44C27.29,94.5,11.81,104.9,0,118.27v31.4c3.67.75,8.56,1.32,9.18-.81,1-3.46,12.06-14.73,13.71-16.46-.7,1.81.11,20.5,1.1,23.29s36,9.31,55.67,8.64C77,152,94.26,123.64,94,115.23S81.43,96.32,78.4,95.56Z"/><path class="cls-4" d="M62.93,71.53A120.14,120.14,0,0,1,57.3,89c-.62,1-5.2,1.59-5.2,1.59,2.53,12.34,21.28,19.44,26.67,5.53-.95-.76-2-1.5-2-1.5a101.44,101.44,0,0,1,3.77-13.17S67.88,79.1,62.93,71.53Z"/><g class="cls-5"><path class="cls-6" d="M62.93,71.53a115.71,115.71,0,0,1-3.39,11.58c2.07,3.74,8.57,11.42,17.9,8.71a87.51,87.51,0,0,1,3.09-10.38S67.88,79.1,62.93,71.53Z"/></g><path class="cls-4" d="M98.46,33.48c4,11.43,1.17,18.94.19,20.63s-2.29,4.62-1,9.43-2,15.47-7.93,18.82S70.17,87.58,63,74.72c-3.61-7.92-1.85-14.48-1.71-16.66-7.69.88-5.78-14.37.74-10,4.15,1.24,1.59-13.75,4.39-16.77S90,17.71,98.46,33.48Z"/><g class="cls-28"><path class="cls-8" d="M90.54,72.37c.7-1.77,2.1-4.51-3.14-4.59-3,0-7.85-1.86-12.09-2.82S69.89,67.84,69,68.71s-1.87-.6-2.38-2.2-1.35-2.06-2.32-3,1.23-9.82,1.21-10.12-1,.06-1.72-.3c-.48-.24-1.89,4.08-2.9,7.93A25.42,25.42,0,0,0,63,74.72c7.18,12.86,20.78,11,26.68,7.65,3.06-1.74,5.41-5.44,6.8-9.28l.17-.49,0-.09c.09-.26.17-.51.24-.76C94,74.21,89.9,74,90.54,72.37Z"/></g><path class="cls-17" d="M61.69,48.13c1.56,2,1.66,5.73,1.66,5.73s1.84,2.05,2.75.37,2.65-13.1,1.66-20.88c9.9-5.77,25.52-3.92,31.52,2.53,5.2-1.54,3.2-10.89,3.2-10.89a4.13,4.13,0,0,0-1.77,2.66c-.08-1.22-.43-4.64-1.92-6.4-.66-.77-1,2.81-1,2.81s-1.49-4.29-2.61-4.32-.21,1.54-.21,1.54S77.86,10.52,63.49,31.88c-1.92,1.85-4.34,2.31-4.3,4.64s.59,10.73.59,10.73A2.05,2.05,0,0,1,61.69,48.13Z"/><path class="cls-17" d="M71.09,49.23c.34-2.77,1-4.65,2.43-5.14s7.34-1.47,7.7,1.05c.42,1.91.31,3.34-.2,3.37S75.08,46.27,71.09,49.23Z"/><path class="cls-8" d="M77.22,57.91c-.16,0-.16-.56-.44-1.22a2,2,0,0,0-.74-.88,3,3,0,0,0-1.41-.43,6.77,6.77,0,0,0-2.88.47c-.72.27-1.14.55-1.25.44s.17-.6.9-1.1a5.31,5.31,0,0,1,3.32-.86,3.45,3.45,0,0,1,1.9.71,2.44,2.44,0,0,1,.87,1.45C77.64,57.44,77.34,57.93,77.22,57.91Z"/><path class="cls-8" d="M96.72,60.41c-.07,0-.15-.12-.23-.32s-.08-.22-.12-.36-.12-.28-.19-.44a2.26,2.26,0,0,0-1.9-1.37,5.58,5.58,0,0,0-2.62.54c-.66.29-1.07.55-1.18.44s.14-.56.8-1.08a4.57,4.57,0,0,1,3.11-.95,2.9,2.9,0,0,1,1.77.81,2.75,2.75,0,0,1,.51.7,4.26,4.26,0,0,1,.23.68c0,.21,0,.4.06.57a2.58,2.58,0,0,1,0,.42C96.86,60.29,96.8,60.41,96.72,60.41Z"/><path class="cls-6" d="M82.9,65.71c0-.08.73-.2,1.82-.64a4.21,4.21,0,0,0,.82-.45,1.3,1.3,0,0,0,.56-.74,8.32,8.32,0,0,0,0-1.19c0-.43,0-.87,0-1.33a43.92,43.92,0,0,1,0-4.72c0-.3,0-.58.07-.82s.07-.45.11-.61c.07-.33.12-.51.15-.51s.05.2,0,.53c0,.17,0,.37,0,.61v.81c0,1.2.1,2.85.18,4.68,0,.46,0,.91,0,1.35a7.55,7.55,0,0,1-.08,1.3,1.71,1.71,0,0,1-.78,1,4.14,4.14,0,0,1-.93.44A4.08,4.08,0,0,1,82.9,65.71Z"/><path class="cls-17" d="M93.25,50.23c-.83-.62,1.47-4.12,2-4.06,2.46.32,5.09,3.18,4.67,4.63a30.3,30.3,0,0,1-1.26,3.3S96.6,50,93.25,50.23Z"/><path class="cls-25" d="M75,67.93c3.2.72,7.85,3.49,13.9,2.5C81.77,80.45,76,81.11,75,67.93Z"/><path class="cls-29" d="M81.2,98a1.59,1.59,0,0,1,0,.47l0,.57c0,.11,0,.24,0,.37l-.09.41c-.07.29-.12.62-.24,1s-.26.71-.42,1.1-.4.78-.66,1.18l-.43.6c-.08.1-.15.21-.23.31l-.27.29-.56.6-.65.56-.34.28-.37.25c-.25.17-.5.35-.77.51A15.64,15.64,0,0,1,72.41,108a19.55,19.55,0,0,1-9,.17,21.45,21.45,0,0,1-2.31-.62l-1.1-.41c-.37-.13-.71-.32-1.05-.47l-.52-.24-.49-.28c-.32-.19-.66-.36-1-.56a18.07,18.07,0,0,1-1.74-1.27A16.21,16.21,0,0,1,53.67,103a8.73,8.73,0,0,1-.65-.73c-.21-.25-.42-.48-.61-.73l-.53-.75a7,7,0,0,1-.48-.74L51,99.25a5.87,5.87,0,0,1-.37-.72c-.21-.49-.43-.94-.59-1.39l-.41-1.28a4.19,4.19,0,0,1-.15-.59l-.12-.55c-.07-.35-.15-.67-.2-1-.07-.59-.12-1-.14-1.35a1.59,1.59,0,0,1,0-.47,12,12,0,0,1,.36,1.78c.06.28.15.6.24.94l.14.54a4.15,4.15,0,0,0,.17.57L50.34,97c.17.43.4.87.61,1.35a5.72,5.72,0,0,0,.38.7l.42.72a6.89,6.89,0,0,0,.48.72l.52.73c.19.24.4.46.6.7a8.52,8.52,0,0,0,.65.7A16.09,16.09,0,0,0,55.49,104a17.9,17.9,0,0,0,1.7,1.22c.3.19.62.36.94.54l.48.27.5.23c.34.15.67.33,1,.46l1.07.4a21.27,21.27,0,0,0,2.26.6,19.44,19.44,0,0,0,8.81-.12,15.53,15.53,0,0,0,3.58-1.44c.27-.14.5-.32.75-.48l.36-.24.33-.27.64-.52.55-.57a9.28,9.28,0,0,0,2.32-4.23l.11-.4c0-.12,0-.25.06-.36l.09-.56A1.64,1.64,0,0,1,81.2,98Z"/><path class="cls-29" d="M22.32,132.84a9.61,9.61,0,0,1,1.11-1.2l1.35-1.35.85-.84,1-.91,4.85-4.45,2.88-2.62c.49-.45,1-.91,1.51-1.38s1-1,1.47-1.5A20.63,20.63,0,0,0,41.63,112a13.77,13.77,0,0,0,.76-6.37,22.37,22.37,0,0,0-1-4.27,9.76,9.76,0,0,1-.53-1.54,9.5,9.5,0,0,1,.72,1.47,19.5,19.5,0,0,1,1.2,4.3,13.8,13.8,0,0,1-.68,6.59A20.58,20.58,0,0,1,37.7,119c-.48.54-1,1-1.49,1.52s-1,.94-1.53,1.39l-2.89,2.59-4.92,4.36-1,.88-.88.81-1.41,1.28A9.67,9.67,0,0,1,22.32,132.84Z"/><path class="cls-29" d="M80.79,151.69a5.2,5.2,0,0,1,0-1.19c0-.77.12-1.87.23-3.24s.32-3,.56-4.79.53-3.77.92-5.83.78-4,1.15-5.79c.21-.88.42-1.72.61-2.5l.29-1.13.31-1,.54-1.77c.18-.52.36-1,.49-1.31a5.15,5.15,0,0,1,.49-1.09,5.24,5.24,0,0,1-.29,1.16l-.41,1.33-.46,1.79-.27,1-.26,1.13-.56,2.5c-.35,1.77-.76,3.72-1.11,5.78s-.66,4-1,5.8l-.67,4.76c-.16,1.36-.29,2.46-.4,3.22A5.21,5.21,0,0,1,80.79,151.69Z"/><path class="cls-6" d="M60.62,54.09s-.06-.08-.08-.21,0-.14,0-.22,0-.18,0-.29a4.25,4.25,0,0,0-.57-1.54,1.81,1.81,0,0,0-1.14-.95c-.35,0-.56.23-.62.17s0-.09.06-.22a.79.79,0,0,1,.54-.32,1.87,1.87,0,0,1,1.61,1,3.22,3.22,0,0,1,.5,1.8c0,.12,0,.23,0,.32a1.94,1.94,0,0,1-.06.24C60.7,54,60.66,54.09,60.62,54.09Z"/><path class="cls-4" d="M82.78,94a4.7,4.7,0,0,0-3.37,2A19.18,19.18,0,0,1,82,97.7c.36,1.47-1.27,6.55,2,6.48a1.37,1.37,0,0,0,2.5.86c.64,1.52,1.87,1.65,2.78,0S91.11,92.53,82.78,94Z"/><path class="cls-6" d="M84,104.18a26.33,26.33,0,0,1,.64-2.92,12,12,0,0,0,.23-2.06c0-.53-.08-.83,0-.87s.1,0,.19.19a2.07,2.07,0,0,1,.2.65,6.51,6.51,0,0,1-.09,2.18A5.39,5.39,0,0,1,84,104.18Z"/><path class="cls-6" d="M86.35,105.06c-.06-.05.07-.3.19-.76s.28-1.09.41-1.8.22-1.35.26-1.82,0-.75.1-.78.22.27.27.77a6.76,6.76,0,0,1-.11,1.92,7.15,7.15,0,0,1-.58,1.84C86.67,104.89,86.4,105.11,86.35,105.06Z"/><path class="cls-6" d="M82,98.61c-.15,0-.23-.55-.32-1.19,0-.32-.08-.61-.11-.8s-.07-.28-.05-.35.06,0,.15,0a.59.59,0,0,1,.24.22,2,2,0,0,1,.3.89C82.33,98.05,82.18,98.62,82,98.61Z"/><path class="cls-4" d="M32,93.15c.12-3,5.05-4.79,9.09-3.72,5.24,1.4,7.23,6.33,3,5.16,1.45,2.1-1.73,2.45-3,1.1,1.71,2.47-.87,3.16-3.24.3S31.6,94.09,32,93.15Z"/><path class="cls-6" d="M41.21,95.86c-.08,0-.23-.17-.49-.48s-.64-.71-1.07-1.15a12.89,12.89,0,0,0-1.18-1c-.15-.14-.29-.2-.38-.28S38,92.8,38,92.76s.08,0,.2,0a1.59,1.59,0,0,1,.49.15,4.93,4.93,0,0,1,1.36,1,5.51,5.51,0,0,1,1,1.32C41.23,95.56,41.27,95.83,41.21,95.86Z"/><path class="cls-6" d="M44.26,94.65c-.12.07-.8-.8-1.74-1.8-.46-.5-.9-.93-1.23-1.23s-.56-.42-.54-.49.35-.06.76.19a6.37,6.37,0,0,1,1.4,1.17C43.88,93.52,44.39,94.58,44.26,94.65Z"/><ellipse class="cls-30" cx="73.33" cy="61.34" rx="2.71" ry="4.18" transform="matrix(0.16, -0.99, 0.99, 0.16, 0.74, 123.56)"/><ellipse class="cls-30" cx="93.31" cy="64.47" rx="2.71" ry="4.18" transform="matrix(0.16, -0.99, 0.99, 0.16, 14.35, 145.88)"/><path class="cls-31" d="M100,155.41c-40.55,0-76.67-9.3-100-25.37v70H200V130C176.67,146.13,140.55,155.41,100,155.41Z"/><text class="cls-32" transform="translate(39.33 184.03)">P<tspan class="cls-33" x="10.22" y="0">E</tspan><tspan class="cls-34" x="18.94" y="0">S</tspan><tspan class="cls-35" x="27.93" y="0">S</tspan><tspan class="cls-36" x="37.21" y="0">O</tspan><tspan x="48.88" y="0">A FÍSI</tspan><tspan class="cls-37" x="96.41" y="0">C</tspan><tspan x="106.82" y="0">A</tspan></text></g></svg>