<svg xmlns="http://www.w3.org/2000/svg" viewBox="0 0 50 50"><defs><style>.cls-1{isolation:isolate;}.cls-2{fill:#cbcac8;}.cls-3{fill:#603813;}.cls-4{fill:#8c6239;}.cls-5{fill:#dc5c42;}.cls-6{fill:#fcab9c;}.cls-7{fill:#c85348;}.cls-8{fill:#f0d099;}.cls-9{fill:#b8965f;}.cls-10,.cls-14,.cls-29{fill:#f2f2f2;}.cls-10,.cls-25{opacity:0.7;}.cls-11{fill:#b8e6ff;}.cls-11,.cls-12,.cls-15,.cls-16,.cls-20,.cls-21,.cls-24,.cls-26,.cls-27,.cls-28{opacity:0.8;}.cls-12{fill:#9cdcff;}.cls-13{fill:#ccc;}.cls-15{fill:#8ecced;}.cls-16,.cls-25{fill:#fff;}.cls-17,.cls-33{fill:#e6e6e6;}.cls-18{fill:#7a0000;}.cls-19{fill:red;}.cls-20{fill:#e6ffff;}.cls-21{fill:#843635;}.cls-22{fill:#bd4242;}.cls-23{fill:#cc7070;}.cls-24{fill:#442421;}.cls-26{fill:#73adcd;}.cls-27{fill:#6994bd;}.cls-28{fill:#556f9a;}.cls-29{opacity:0.4;}.cls-30{fill:#7c6f59;}.cls-31{fill:#fbb03b;}.cls-32{fill:#f7931e;}.cls-33{mix-blend-mode:multiply;}.cls-34{fill:#e0bc21;}.cls-35{fill:#fcc221;}.cls-36{fill:#ffcb00;}.cls-37{fill:#b21608;}.cls-38{fill:#5c0b04;}.cls-39{fill:#f2a8ac;}.cls-40{fill:#00aae6;}.cls-41{fill:#039add;}.cls-42{fill:none;stroke:#29abe2;stroke-width:0.78px;}.cls-42,.cls-45{stroke-miterlimit:10;}.cls-43{fill:#29abe2;}.cls-44{fill:#8adcfa;}.cls-45,.cls-46{fill:#bc3e33;}.cls-45{stroke:#f2f2f2;stroke-width:1.94px;}.cls-47{fill:#f78461;}.cls-48{fill:#fffefc;}.cls-49{fill:#fdc700;}.cls-50{fill:#f30c23;}.cls-51{fill:#fcd599;}</style></defs><title>icones-adm</title><g class="cls-1"><g id="Camada_1" data-name="Camada 1"><circle class="cls-2" cx="25" cy="25" r="25"/><circle class="cls-2" cx="25" cy="25" r="25"/><rect class="cls-3" x="7.5" y="7.5" width="35" height="35"/><rect class="cls-4" x="7.5" y="7.83" width="4.11" height="34.41"/><rect class="cls-4" x="38.39" y="7.83" width="4.11" height="34.41"/><path class="cls-5" d="M24.35,21.33V18a6.3,6.3,0,0,1-3.13,0v3.32Z"/><path class="cls-6" d="M22.07,21.33V18.16a6.33,6.33,0,0,1-.85-.16v3.32Z"/><path class="cls-6" d="M24.35,21.33V18a6.31,6.31,0,0,1-.79.15v3.17Z"/><path class="cls-7" d="M21.71,21.33V18.11l-.49-.1v3.32Z"/><path class="cls-7" d="M24.35,21.33V18l-.47.1v3.23Z"/><path class="cls-8" d="M21.22,18s-.72.46-.36.7.86-.3,1.1-.2.54.39.88.42.45-.38.56-.29.85.51,1.14.29,0-.83-.19-.82c0,0,.48-.5,0-.78a5.61,5.61,0,0,0-3.14,0C20.81,17.61,21,17.89,21.22,18Z"/><path class="cls-9" d="M21.22,18h.14l.35,0,.24,0,.26,0c.18,0,.38,0,.57,0h.57c.18,0,.36,0,.5,0h.49l-.13,0-.35.08-.24,0-.27,0-.29,0h-.3l-.3,0-.29,0-.27,0-.24,0-.35-.1Z"/><path class="cls-5" d="M20.28,21.33V18a6.3,6.3,0,0,1-3.13,0v3.32Z"/><path class="cls-6" d="M18,21.33V18.16a6.33,6.33,0,0,1-.85-.16v3.32Z"/><path class="cls-6" d="M20.28,21.33V18a6.31,6.31,0,0,1-.79.15v3.17Z"/><path class="cls-7" d="M17.64,21.33V18.11l-.49-.1v3.32Z"/><path class="cls-7" d="M20.28,21.33V18l-.47.1v3.23Z"/><path class="cls-8" d="M17.15,18s-.72.46-.36.7.86-.3,1.1-.2.54.39.88.42.45-.38.56-.29.85.51,1.14.29,0-.83-.19-.82c0,0,.48-.5,0-.78a5.61,5.61,0,0,0-3.14,0C16.75,17.61,17,17.89,17.15,18Z"/><path class="cls-9" d="M17.15,18h.14l.36,0,.24,0,.26,0c.18,0,.38,0,.57,0h.57c.18,0,.35,0,.5,0h.49l-.13,0-.35.08-.24,0-.27,0-.29,0h-.3l-.3,0-.29,0-.27,0-.24,0-.35-.1Z"/><path class="cls-5" d="M16.22,21.33V18a6.3,6.3,0,0,1-3.13,0v3.32Z"/><path class="cls-6" d="M13.94,21.33V18.16a6.33,6.33,0,0,1-.85-.16v3.32Z"/><path class="cls-6" d="M16.22,21.33V18a6.31,6.31,0,0,1-.79.15v3.17Z"/><path class="cls-7" d="M13.58,21.33V18.11l-.49-.1v3.32Z"/><path class="cls-7" d="M16.22,21.33V18l-.47.1v3.23Z"/><path class="cls-8" d="M13.09,18s-.72.46-.36.7.86-.3,1.1-.2.54.39.88.42.45-.38.56-.29.85.51,1.14.29,0-.83-.19-.82c0,0,.48-.5,0-.78a5.61,5.61,0,0,0-3.14,0C12.69,17.61,12.92,17.89,13.09,18Z"/><path class="cls-9" d="M13.09,18h.14l.35,0,.24,0,.26,0c.18,0,.38,0,.57,0h.57c.18,0,.36,0,.5,0h.49l-.13,0-.35.08-.24,0-.27,0-.29,0h-.3l-.3,0-.29,0-.27,0-.24,0-.35-.1Z"/><path class="cls-5" d="M12.16,21.33V18A6.3,6.3,0,0,1,9,18v3.32Z"/><path class="cls-6" d="M9.88,21.33V18.16A6.33,6.33,0,0,1,9,18v3.32Z"/><path class="cls-6" d="M12.16,21.33V18a6.3,6.3,0,0,1-.79.15v3.17Z"/><path class="cls-7" d="M9.52,21.33V18.11L9,18v3.32Z"/><path class="cls-7" d="M12.16,21.33V18l-.47.1v3.23Z"/><path class="cls-8" d="M9,18s-.72.46-.36.7.86-.3,1.1-.2.54.39.88.42.45-.38.56-.29.85.51,1.14.29,0-.83-.19-.82c0,0,.48-.5,0-.78a5.61,5.61,0,0,0-3.14,0C8.62,17.61,8.86,17.89,9,18Z"/><path class="cls-9" d="M9,18h.14l.36,0,.24,0,.26,0c.18,0,.38,0,.57,0h.57c.18,0,.35,0,.5,0h.49l-.13,0-.35.08-.24,0-.27,0-.29,0h-.3l-.3,0-.29,0-.27,0-.24,0L9.15,18Z"/><path class="cls-10" d="M22.35,24.11a6.18,6.18,0,0,1,.89-1.68h.29a6.17,6.17,0,0,1,.89,1.68v4.06a.26.26,0,0,1-.26.26H22.61a.26.26,0,0,1-.26-.26Z"/><path class="cls-11" d="M22.4,24.21a2.72,2.72,0,0,1,.2-.49h1.56a2.73,2.73,0,0,1,.2.49V28a.25.25,0,0,1-.25.25H22.65A.25.25,0,0,1,22.4,28Z"/><path class="cls-12" d="M22.4,24.21S22.6,26,23.35,26s1-1.8,1-1.75V28a.25.25,0,0,1-.25.25H22.65A.25.25,0,0,1,22.4,28Z"/><path class="cls-13" d="M23,22.25v.23s.16.07.35.07.35,0,.35-.07v-.23Z"/><ellipse class="cls-14" cx="23.38" cy="22.25" rx="0.35" ry="0.07"/><ellipse class="cls-15" cx="23.38" cy="23.72" rx="0.78" ry="0.08"/><path class="cls-16" d="M23.18,22.85l-.1.21L23,23.3l-.15.31c-.06.11-.11.24-.17.37l0,.1a.47.47,0,0,0,0,.09h0v.2c0,.32,0,.65,0,1v2.7h0v-2.7c0-.34,0-.68,0-1v-.2h0v0a.55.55,0,0,1,0-.12l0-.1c.06-.13.13-.26.19-.37l.18-.3L23,23l.13-.19Z"/><path class="cls-14" d="M23.23,22.27H23.1v.25l.13,0Z"/><path class="cls-17" d="M24.42,27.2a4.44,4.44,0,0,1-2.07,0V26a4.44,4.44,0,0,0,2.07,0Z"/><path class="cls-18" d="M24.19,27.11a4.44,4.44,0,0,1-1.61,0v-.92a4.44,4.44,0,0,0,1.61,0Z"/><path class="cls-19" d="M24.11,27a4.43,4.43,0,0,1-1.45,0V26.3a4.44,4.44,0,0,0,1.45,0Z"/><path class="cls-14" d="M24,26.94a4.45,4.45,0,0,1-1.31,0v-.52a4.44,4.44,0,0,0,1.31,0Z"/><path class="cls-10" d="M19.62,24.11a6.18,6.18,0,0,1,.89-1.68h.29a6.17,6.17,0,0,1,.89,1.68v4.06a.26.26,0,0,1-.26.26H19.88a.26.26,0,0,1-.26-.26Z"/><path class="cls-11" d="M19.68,24.21a2.72,2.72,0,0,1,.2-.49h1.56a2.73,2.73,0,0,1,.2.49V28a.25.25,0,0,1-.25.25H19.93a.25.25,0,0,1-.25-.25Z"/><path class="cls-12" d="M19.68,24.21s.19,1.75.95,1.75,1-1.8,1-1.75V28a.25.25,0,0,1-.25.25H19.93a.25.25,0,0,1-.25-.25Z"/><path class="cls-13" d="M20.31,22.25v.23s.16.07.35.07.35,0,.35-.07v-.23Z"/><ellipse class="cls-14" cx="20.66" cy="22.25" rx="0.35" ry="0.07"/><ellipse class="cls-15" cx="20.66" cy="23.72" rx="0.78" ry="0.08"/><path class="cls-16" d="M20.45,22.85l-.1.21-.12.24-.15.31c-.06.11-.11.24-.17.37l0,.1a.47.47,0,0,0,0,.09h0v.2c0,.32,0,.65,0,1v2.7h0v-2.7c0-.34,0-.68,0-1v-.2h0v0a.54.54,0,0,1,0-.12l0-.1c.06-.13.13-.26.19-.37l.18-.3.14-.23.13-.19Z"/><path class="cls-14" d="M20.5,22.27h-.13v.25l.13,0Z"/><path class="cls-17" d="M21.69,27.2a4.44,4.44,0,0,1-2.07,0V26a4.44,4.44,0,0,0,2.07,0Z"/><path class="cls-18" d="M21.46,27.11a4.44,4.44,0,0,1-1.61,0v-.92a4.44,4.44,0,0,0,1.61,0Z"/><path class="cls-19" d="M21.38,27a4.43,4.43,0,0,1-1.45,0V26.3a4.44,4.44,0,0,0,1.45,0Z"/><path class="cls-14" d="M21.31,26.94a4.45,4.45,0,0,1-1.31,0v-.52a4.44,4.44,0,0,0,1.31,0Z"/><path class="cls-10" d="M16.9,24.11a6.18,6.18,0,0,1,.89-1.68h.29A6.17,6.17,0,0,1,19,24.11v4.06a.26.26,0,0,1-.26.26H17.16a.26.26,0,0,1-.26-.26Z"/><path class="cls-11" d="M17,24.21a2.72,2.72,0,0,1,.2-.49h1.56a2.73,2.73,0,0,1,.2.49V28a.25.25,0,0,1-.25.25H17.2A.25.25,0,0,1,17,28Z"/><path class="cls-12" d="M17,24.21S17.15,26,17.9,26s1-1.8,1-1.75V28a.25.25,0,0,1-.25.25H17.2A.25.25,0,0,1,17,28Z"/><path class="cls-13" d="M17.58,22.25v.23s.16.07.35.07.35,0,.35-.07v-.23Z"/><ellipse class="cls-14" cx="17.93" cy="22.25" rx="0.35" ry="0.07"/><ellipse class="cls-15" cx="17.93" cy="23.72" rx="0.78" ry="0.08"/><path class="cls-16" d="M17.73,22.85l-.1.21-.12.24-.15.31c-.06.11-.11.24-.17.37l0,.1a.47.47,0,0,0,0,.09h0v.2c0,.32,0,.65,0,1v2.7h0v-2.7c0-.34,0-.68,0-1v-.2h0v0A.54.54,0,0,1,17,24l0-.1c.06-.13.13-.26.19-.37l.18-.3.14-.23.13-.19Z"/><path class="cls-14" d="M17.77,22.27h-.13v.25l.13,0Z"/><path class="cls-17" d="M19,27.2a4.44,4.44,0,0,1-2.07,0V26A4.44,4.44,0,0,0,19,26Z"/><path class="cls-18" d="M18.74,27.11a4.44,4.44,0,0,1-1.61,0v-.92a4.44,4.44,0,0,0,1.61,0Z"/><path class="cls-19" d="M18.66,27a4.43,4.43,0,0,1-1.45,0V26.3a4.44,4.44,0,0,0,1.45,0Z"/><path class="cls-14" d="M18.59,26.94a4.45,4.45,0,0,1-1.31,0v-.52a4.44,4.44,0,0,0,1.31,0Z"/><path class="cls-10" d="M14.17,24.11a6.18,6.18,0,0,1,.89-1.68h.29a6.17,6.17,0,0,1,.89,1.68v4.06a.26.26,0,0,1-.26.26H14.43a.26.26,0,0,1-.26-.26Z"/><path class="cls-11" d="M14.23,24.21a2.71,2.71,0,0,1,.2-.49H16a2.73,2.73,0,0,1,.2.49V28a.25.25,0,0,1-.25.25H14.48a.25.25,0,0,1-.25-.25Z"/><path class="cls-12" d="M14.23,24.21s.19,1.75.95,1.75,1-1.8,1-1.75V28a.25.25,0,0,1-.25.25H14.48a.25.25,0,0,1-.25-.25Z"/><path class="cls-13" d="M14.86,22.25v.23s.16.07.35.07.35,0,.35-.07v-.23Z"/><ellipse class="cls-14" cx="15.21" cy="22.25" rx="0.35" ry="0.07"/><ellipse class="cls-15" cx="15.21" cy="23.72" rx="0.78" ry="0.08"/><path class="cls-16" d="M15,22.85l-.1.21-.12.24-.15.31c-.06.11-.11.24-.17.37l0,.1a.47.47,0,0,0,0,.09h0v.2c0,.32,0,.65,0,1v2.7h0v-2.7c0-.34,0-.68,0-1v-.2h0v0a.54.54,0,0,1,0-.12l0-.1c.06-.13.13-.26.19-.37l.18-.3.14-.23.13-.19Z"/><path class="cls-14" d="M15,22.27h-.13v.25l.13,0Z"/><path class="cls-17" d="M16.24,27.2a4.44,4.44,0,0,1-2.07,0V26a4.44,4.44,0,0,0,2.07,0Z"/><path class="cls-18" d="M16,27.11a4.44,4.44,0,0,1-1.61,0v-.92a4.44,4.44,0,0,0,1.61,0Z"/><path class="cls-19" d="M15.93,27a4.44,4.44,0,0,1-1.45,0V26.3a4.44,4.44,0,0,0,1.45,0Z"/><path class="cls-14" d="M15.86,26.94a4.45,4.45,0,0,1-1.31,0v-.52a4.44,4.44,0,0,0,1.31,0Z"/><path class="cls-10" d="M11.44,24.11a6.18,6.18,0,0,1,.89-1.68h.29a6.17,6.17,0,0,1,.89,1.68v4.06a.26.26,0,0,1-.26.26H11.71a.26.26,0,0,1-.26-.26Z"/><path class="cls-11" d="M11.5,24.21a2.72,2.72,0,0,1,.2-.49h1.56a2.73,2.73,0,0,1,.2.49V28a.25.25,0,0,1-.25.25H11.75A.25.25,0,0,1,11.5,28Z"/><path class="cls-12" d="M11.5,24.21S11.7,26,12.45,26s1-1.8,1-1.75V28a.25.25,0,0,1-.25.25H11.75A.25.25,0,0,1,11.5,28Z"/><path class="cls-13" d="M12.13,22.25v.23s.16.07.35.07.35,0,.35-.07v-.23Z"/><ellipse class="cls-14" cx="12.48" cy="22.25" rx="0.35" ry="0.07"/><ellipse class="cls-15" cx="12.48" cy="23.72" rx="0.78" ry="0.08"/><path class="cls-16" d="M12.28,22.85l-.1.21-.12.24-.15.31c-.06.11-.11.24-.17.37l0,.1a.47.47,0,0,0,0,.09h0v.2c0,.32,0,.65,0,1v2.7h0v-2.7c0-.34,0-.68,0-1v-.2h0v0a.55.55,0,0,1,0-.12l0-.1c.06-.13.13-.26.19-.37l.18-.3.14-.23.13-.19Z"/><path class="cls-14" d="M12.32,22.27h-.13v.25l.13,0Z"/><path class="cls-17" d="M13.52,27.2a4.44,4.44,0,0,1-2.07,0V26a4.44,4.44,0,0,0,2.07,0Z"/><path class="cls-18" d="M13.28,27.11a4.44,4.44,0,0,1-1.61,0v-.92a4.44,4.44,0,0,0,1.61,0Z"/><path class="cls-19" d="M13.2,27a4.44,4.44,0,0,1-1.45,0V26.3a4.44,4.44,0,0,0,1.45,0Z"/><path class="cls-14" d="M13.13,26.94a4.45,4.45,0,0,1-1.31,0v-.52a4.44,4.44,0,0,0,1.31,0Z"/><path class="cls-10" d="M8.72,24.11a6.18,6.18,0,0,1,.89-1.68H9.9a6.17,6.17,0,0,1,.89,1.68v4.06a.26.26,0,0,1-.26.26H9a.26.26,0,0,1-.26-.26Z"/><path class="cls-11" d="M8.78,24.21a2.71,2.71,0,0,1,.2-.49h1.56a2.73,2.73,0,0,1,.2.49V28a.25.25,0,0,1-.25.25H9A.25.25,0,0,1,8.78,28Z"/><path class="cls-12" d="M8.78,24.21S9,26,9.72,26s1-1.8,1-1.75V28a.25.25,0,0,1-.25.25H9A.25.25,0,0,1,8.78,28Z"/><path class="cls-13" d="M9.4,22.25v.23s.16.07.35.07.35,0,.35-.07v-.23Z"/><ellipse class="cls-14" cx="9.75" cy="22.25" rx="0.35" ry="0.07"/><ellipse class="cls-15" cx="9.75" cy="23.72" rx="0.78" ry="0.08"/><path class="cls-16" d="M9.55,22.85l-.1.21-.12.24-.15.31c-.06.11-.11.24-.17.37l0,.1a.47.47,0,0,0,0,.09h0v.2c0,.32,0,.65,0,1v2.7h0v-2.7c0-.34,0-.68,0-1v-.2h0v0a.55.55,0,0,1,0-.12l0-.1c.06-.13.13-.26.19-.37l.18-.3L9.41,23l.13-.19Z"/><path class="cls-14" d="M9.6,22.27H9.47v.25l.13,0Z"/><path class="cls-17" d="M10.79,27.2a4.44,4.44,0,0,1-2.07,0V26a4.44,4.44,0,0,0,2.07,0Z"/><path class="cls-18" d="M10.56,27.11a4.44,4.44,0,0,1-1.61,0v-.92a4.44,4.44,0,0,0,1.61,0Z"/><path class="cls-19" d="M10.48,27A4.44,4.44,0,0,1,9,27V26.3a4.44,4.44,0,0,0,1.45,0Z"/><path class="cls-14" d="M10.41,26.94a4.45,4.45,0,0,1-1.31,0v-.52a4.44,4.44,0,0,0,1.31,0Z"/><path class="cls-20" d="M22.77,37.48a5.08,5.08,0,0,1,.73-1.38h.24a5.05,5.05,0,0,1,.73,1.38v3.33a.22.22,0,0,1-.22.22H23a.22.22,0,0,1-.22-.22Z"/><path class="cls-21" d="M22.77,37.48a2.39,2.39,0,0,1,.17-.43h1.36a2.35,2.35,0,0,1,.17.43v3.33a.22.22,0,0,1-.22.22H23a.22.22,0,0,1-.22-.22Z"/><path class="cls-22" d="M24.47,39.84a3.21,3.21,0,0,1-1.7,0V38.65a3.22,3.22,0,0,0,1.7,0Z"/><path class="cls-23" d="M24.47,39.62a5.45,5.45,0,0,1-1.7,0v-.7a5.41,5.41,0,0,0,1.7,0Z"/><path class="cls-23" d="M23.33,36v.19s.13.06.29.06.29,0,.29-.06V36Z"/><ellipse class="cls-22" cx="23.62" cy="35.96" rx="0.29" ry="0.06"/><ellipse class="cls-24" cx="23.62" cy="37.06" rx="0.68" ry="0.07"/><path class="cls-25" d="M23.81,36.64a1.22,1.22,0,0,1,.17.22,2.29,2.29,0,0,1,.13.25,2,2,0,0,1,.11.31,2.25,2.25,0,0,1,.07.6c0,.17,0,.28,0,.28s0-.11-.05-.27a2.62,2.62,0,0,0-.05-.27,2.71,2.71,0,0,0-.07-.3c0-.11-.06-.21-.09-.3s-.06-.18-.09-.26-.05-.14-.07-.18Z"/><path class="cls-20" d="M20.8,37.48a5.08,5.08,0,0,1,.73-1.38h.24a5.05,5.05,0,0,1,.73,1.38v3.33a.22.22,0,0,1-.22.22H21a.22.22,0,0,1-.22-.22Z"/><path class="cls-21" d="M20.8,37.48a2.39,2.39,0,0,1,.17-.43h1.36a2.35,2.35,0,0,1,.17.43v3.33a.22.22,0,0,1-.22.22H21a.22.22,0,0,1-.22-.22Z"/><path class="cls-22" d="M22.5,39.84a3.21,3.21,0,0,1-1.7,0V38.65a3.22,3.22,0,0,0,1.7,0Z"/><path class="cls-23" d="M22.5,39.62a5.45,5.45,0,0,1-1.7,0v-.7a5.41,5.41,0,0,0,1.7,0Z"/><path class="cls-23" d="M21.37,36v.19s.13.06.29.06.29,0,.29-.06V36Z"/><ellipse class="cls-22" cx="21.65" cy="35.96" rx="0.29" ry="0.06"/><ellipse class="cls-24" cx="21.65" cy="37.06" rx="0.68" ry="0.07"/><path class="cls-25" d="M21.84,36.64a1.22,1.22,0,0,1,.17.22,2.3,2.3,0,0,1,.13.25,2,2,0,0,1,.11.31,2.25,2.25,0,0,1,.07.6c0,.17,0,.28,0,.28s0-.11-.05-.27a2.63,2.63,0,0,0-.05-.27,2.72,2.72,0,0,0-.07-.3c0-.11-.06-.21-.09-.3S22,37,21.95,36.9s-.05-.14-.07-.18Z"/><path class="cls-20" d="M18.84,37.48a5.08,5.08,0,0,1,.73-1.38h.24a5,5,0,0,1,.73,1.38v3.33a.22.22,0,0,1-.22.22H19.06a.22.22,0,0,1-.22-.22Z"/><path class="cls-21" d="M18.84,37.48a2.39,2.39,0,0,1,.17-.43h1.36a2.35,2.35,0,0,1,.17.43v3.33a.22.22,0,0,1-.22.22H19.06a.22.22,0,0,1-.22-.22Z"/><path class="cls-22" d="M20.54,39.84a3.21,3.21,0,0,1-1.7,0V38.65a3.22,3.22,0,0,0,1.7,0Z"/><path class="cls-23" d="M20.54,39.62a5.45,5.45,0,0,1-1.7,0v-.7a5.41,5.41,0,0,0,1.7,0Z"/><path class="cls-23" d="M19.4,36v.19s.13.06.29.06.29,0,.29-.06V36Z"/><ellipse class="cls-22" cx="19.69" cy="35.96" rx="0.29" ry="0.06"/><ellipse class="cls-24" cx="19.69" cy="37.06" rx="0.68" ry="0.07"/><path class="cls-25" d="M19.88,36.64a1.21,1.21,0,0,1,.17.22,2.3,2.3,0,0,1,.13.25,2,2,0,0,1,.11.31,2.25,2.25,0,0,1,.07.6c0,.17,0,.28,0,.28s0-.11-.05-.27a2.62,2.62,0,0,0-.05-.27,2.72,2.72,0,0,0-.07-.3c0-.11-.06-.21-.09-.3S20,37,20,36.9s-.05-.14-.07-.18Z"/><path class="cls-20" d="M16.88,37.48a5.08,5.08,0,0,1,.73-1.38h.24a5.05,5.05,0,0,1,.73,1.38v3.33a.22.22,0,0,1-.22.22H17.09a.22.22,0,0,1-.22-.22Z"/><path class="cls-21" d="M16.88,37.48a2.39,2.39,0,0,1,.17-.43h1.36a2.35,2.35,0,0,1,.17.43v3.33a.22.22,0,0,1-.22.22H17.09a.22.22,0,0,1-.22-.22Z"/><path class="cls-22" d="M18.58,39.84a3.21,3.21,0,0,1-1.7,0V38.65a3.22,3.22,0,0,0,1.7,0Z"/><path class="cls-23" d="M18.58,39.62a5.45,5.45,0,0,1-1.7,0v-.7a5.41,5.41,0,0,0,1.7,0Z"/><path class="cls-23" d="M17.44,36v.19s.13.06.29.06.29,0,.29-.06V36Z"/><ellipse class="cls-22" cx="17.73" cy="35.96" rx="0.29" ry="0.06"/><ellipse class="cls-24" cx="17.73" cy="37.06" rx="0.68" ry="0.07"/><path class="cls-25" d="M17.92,36.64a1.22,1.22,0,0,1,.17.22,2.3,2.3,0,0,1,.13.25,2,2,0,0,1,.11.31,2.25,2.25,0,0,1,.07.6c0,.17,0,.28,0,.28s0-.11-.05-.27a2.62,2.62,0,0,0-.05-.27,2.72,2.72,0,0,0-.07-.3c0-.11-.06-.21-.09-.3S18,37,18,36.9s-.05-.14-.07-.18Z"/><path class="cls-20" d="M14.91,37.48a5.08,5.08,0,0,1,.73-1.38h.24a5.05,5.05,0,0,1,.73,1.38v3.33a.22.22,0,0,1-.22.22H15.13a.22.22,0,0,1-.22-.22Z"/><path class="cls-21" d="M14.91,37.48a2.39,2.39,0,0,1,.17-.43h1.36a2.35,2.35,0,0,1,.17.43v3.33a.22.22,0,0,1-.22.22H15.13a.22.22,0,0,1-.22-.22Z"/><path class="cls-22" d="M16.61,39.84a3.21,3.21,0,0,1-1.7,0V38.65a3.22,3.22,0,0,0,1.7,0Z"/><path class="cls-23" d="M16.61,39.62a5.45,5.45,0,0,1-1.7,0v-.7a5.41,5.41,0,0,0,1.7,0Z"/><path class="cls-23" d="M15.48,36v.19s.13.06.29.06.29,0,.29-.06V36Z"/><ellipse class="cls-22" cx="15.76" cy="35.96" rx="0.29" ry="0.06"/><ellipse class="cls-24" cx="15.76" cy="37.06" rx="0.68" ry="0.07"/><path class="cls-25" d="M16,36.64a1.22,1.22,0,0,1,.17.22,2.3,2.3,0,0,1,.13.25,2,2,0,0,1,.11.31,2.25,2.25,0,0,1,.07.6c0,.17,0,.28,0,.28s0-.11-.05-.27a2.63,2.63,0,0,0-.05-.27,2.72,2.72,0,0,0-.07-.3c0-.11-.06-.21-.09-.3s-.06-.18-.09-.26-.05-.14-.07-.18Z"/><path class="cls-20" d="M13,37.48a5.08,5.08,0,0,1,.73-1.38h.24a5.05,5.05,0,0,1,.73,1.38v3.33a.22.22,0,0,1-.22.22H13.17a.22.22,0,0,1-.22-.22Z"/><path class="cls-21" d="M13,37.48a2.39,2.39,0,0,1,.17-.43h1.36a2.35,2.35,0,0,1,.17.43v3.33a.22.22,0,0,1-.22.22H13.17a.22.22,0,0,1-.22-.22Z"/><path class="cls-22" d="M14.65,39.84a3.21,3.21,0,0,1-1.7,0V38.65a3.22,3.22,0,0,0,1.7,0Z"/><path class="cls-23" d="M14.65,39.62a5.45,5.45,0,0,1-1.7,0v-.7a5.41,5.41,0,0,0,1.7,0Z"/><path class="cls-23" d="M13.51,36v.19s.13.06.29.06.29,0,.29-.06V36Z"/><ellipse class="cls-22" cx="13.8" cy="35.96" rx="0.29" ry="0.06"/><ellipse class="cls-24" cx="13.8" cy="37.06" rx="0.68" ry="0.07"/><path class="cls-25" d="M14,36.64a1.22,1.22,0,0,1,.17.22,2.3,2.3,0,0,1,.13.25,2,2,0,0,1,.11.31,2.25,2.25,0,0,1,.07.6c0,.17,0,.28,0,.28s0-.11-.05-.27a2.6,2.6,0,0,0-.05-.27,2.71,2.71,0,0,0-.07-.3c0-.11-.06-.21-.09-.3s-.06-.18-.09-.26-.05-.14-.07-.18Z"/><path class="cls-20" d="M11,37.48a5.08,5.08,0,0,1,.73-1.38H12a5.05,5.05,0,0,1,.73,1.38v3.33a.22.22,0,0,1-.22.22H11.2a.22.22,0,0,1-.22-.22Z"/><path class="cls-21" d="M11,37.48a2.39,2.39,0,0,1,.17-.43h1.36a2.35,2.35,0,0,1,.17.43v3.33a.22.22,0,0,1-.22.22H11.2a.22.22,0,0,1-.22-.22Z"/><path class="cls-22" d="M12.69,39.84a3.21,3.21,0,0,1-1.7,0V38.65a3.22,3.22,0,0,0,1.7,0Z"/><path class="cls-23" d="M12.69,39.62a5.45,5.45,0,0,1-1.7,0v-.7a5.41,5.41,0,0,0,1.7,0Z"/><path class="cls-23" d="M11.55,36v.19s.13.06.29.06.29,0,.29-.06V36Z"/><ellipse class="cls-22" cx="11.84" cy="35.96" rx="0.29" ry="0.06"/><ellipse class="cls-24" cx="11.84" cy="37.06" rx="0.68" ry="0.07"/><path class="cls-25" d="M12,36.64a1.21,1.21,0,0,1,.17.22,2.3,2.3,0,0,1,.13.25,2,2,0,0,1,.11.31,2.25,2.25,0,0,1,.07.6c0,.17,0,.28,0,.28s0-.11-.05-.27a2.62,2.62,0,0,0-.05-.27,2.71,2.71,0,0,0-.07-.3c0-.11-.06-.21-.09-.3s-.06-.18-.09-.26-.05-.14-.07-.18Z"/><path class="cls-20" d="M9,37.48a5.08,5.08,0,0,1,.73-1.38H10a5.05,5.05,0,0,1,.73,1.38v3.33a.22.22,0,0,1-.22.22H9.24A.22.22,0,0,1,9,40.81Z"/><path class="cls-21" d="M9,37.48a2.39,2.39,0,0,1,.17-.43h1.36a2.35,2.35,0,0,1,.17.43v3.33a.22.22,0,0,1-.22.22H9.24A.22.22,0,0,1,9,40.81Z"/><path class="cls-22" d="M10.72,39.84a3.21,3.21,0,0,1-1.7,0V38.65a3.22,3.22,0,0,0,1.7,0Z"/><path class="cls-23" d="M10.72,39.62a5.45,5.45,0,0,1-1.7,0v-.7a5.41,5.41,0,0,0,1.7,0Z"/><path class="cls-23" d="M9.59,36v.19s.13.06.29.06.29,0,.29-.06V36Z"/><ellipse class="cls-22" cx="9.87" cy="35.96" rx="0.29" ry="0.06"/><ellipse class="cls-24" cx="9.87" cy="37.06" rx="0.68" ry="0.07"/><path class="cls-25" d="M10.07,36.64a1.21,1.21,0,0,1,.17.22,2.3,2.3,0,0,1,.13.25,2,2,0,0,1,.11.31,2.25,2.25,0,0,1,.07.6c0,.17,0,.28,0,.28s0-.11-.05-.27a2.61,2.61,0,0,0-.05-.27,2.71,2.71,0,0,0-.07-.3c0-.11-.06-.21-.09-.3s-.06-.18-.09-.26-.05-.14-.07-.18Z"/><rect class="cls-20" x="20.89" y="10.36" width="3.29" height="3.87" rx="0.42" ry="0.42"/><path class="cls-26" d="M21,13.71a.4.4,0,0,0,.39.41h2.3a.4.4,0,0,0,.39-.41V10.77a.4.4,0,0,0-.39-.41h-2.3a.4.4,0,0,0-.39.41Z"/><path class="cls-27" d="M21.08,13.52a.38.38,0,0,0,.37.38h2.17a.38.38,0,0,0,.37-.38V10.75a.38.38,0,0,0-.37-.38H21.45a.38.38,0,0,0-.37.38Z"/><path class="cls-28" d="M21.25,13.15a.33.33,0,0,0,.33.34h1.92a.33.33,0,0,0,.33-.34V10.7a.33.33,0,0,0-.33-.34H21.58a.33.33,0,0,0-.33.34Z"/><path class="cls-29" d="M21.44,10.36l.12,3.12h0a.67.67,0,0,0,.13.2l.1.07.06,0h0l-.05,0-.09-.08a.64.64,0,0,1-.11-.2h0l.12-3.12Z"/><path class="cls-29" d="M23.86,10.36l-.28,3.12h0a1,1,0,0,1-.3.2l-.22.07-.13,0h0l.12,0,.2-.08a.78.78,0,0,0,.25-.2h0l-.28-3.12Z"/><path class="cls-17" d="M24.06,10.33s.71.45.36.69-.84-.29-1.08-.2-.53.38-.86.41-.45-.37-.56-.29-.83.5-1.12.29,0-.82.18-.8c0,0-.47-.5,0-.77a5.52,5.52,0,0,1,3.1,0C24.46,10,24.22,10.25,24.06,10.33Z"/><path class="cls-30" d="M24.06,10.33h-.13l-.35,0-.23,0-.26,0c-.18,0-.37,0-.56,0H22c-.18,0-.35,0-.49,0H21l.13,0,.35.08.23,0,.26,0,.28,0h.29l.29,0,.28,0,.26,0,.23,0,.34-.1Z"/><rect class="cls-20" x="16.79" y="10.36" width="3.29" height="3.87" rx="0.42" ry="0.42"/><path class="cls-26" d="M16.89,13.71a.4.4,0,0,0,.39.41h2.3a.4.4,0,0,0,.39-.41V10.77a.4.4,0,0,0-.39-.41h-2.3a.4.4,0,0,0-.39.41Z"/><path class="cls-27" d="M17,13.52a.38.38,0,0,0,.37.38h2.17a.38.38,0,0,0,.37-.38V10.75a.38.38,0,0,0-.37-.38H17.35a.38.38,0,0,0-.37.38Z"/><path class="cls-28" d="M17.15,13.15a.33.33,0,0,0,.33.34H19.4a.33.33,0,0,0,.33-.34V10.7a.33.33,0,0,0-.33-.34H17.48a.33.33,0,0,0-.33.34Z"/><path class="cls-29" d="M17.34,10.36l.12,3.12h0a.67.67,0,0,0,.13.2l.1.07.06,0h0l-.05,0-.09-.08a.64.64,0,0,1-.11-.2h0l.12-3.12Z"/><path class="cls-29" d="M19.76,10.36l-.28,3.12h0a1,1,0,0,1-.3.2l-.22.07-.13,0h0l.12,0,.2-.08a.78.78,0,0,0,.25-.2h0l-.28-3.12Z"/><path class="cls-17" d="M20,10.33s.71.45.36.69-.84-.29-1.08-.2-.53.38-.86.41-.45-.37-.56-.29-.83.5-1.12.29,0-.82.18-.8c0,0-.47-.5,0-.77a5.52,5.52,0,0,1,3.1,0C20.36,10,20.13,10.25,20,10.33Z"/><path class="cls-30" d="M20,10.33h-.13l-.35,0-.23,0-.26,0c-.18,0-.37,0-.56,0h-.56c-.18,0-.35,0-.49,0h-.49l.13,0,.35.08.23,0,.26,0,.28,0h.29l.29,0,.28,0,.26,0,.23,0,.34-.1Z"/><rect class="cls-20" x="12.7" y="10.36" width="3.29" height="3.87" rx="0.42" ry="0.42"/><path class="cls-26" d="M12.8,13.71a.4.4,0,0,0,.39.41h2.3a.4.4,0,0,0,.39-.41V10.77a.4.4,0,0,0-.39-.41h-2.3a.4.4,0,0,0-.39.41Z"/><path class="cls-27" d="M12.88,13.52a.38.38,0,0,0,.37.38h2.17a.38.38,0,0,0,.37-.38V10.75a.38.38,0,0,0-.37-.38H13.25a.38.38,0,0,0-.37.38Z"/><path class="cls-28" d="M13.05,13.15a.33.33,0,0,0,.33.34H15.3a.33.33,0,0,0,.33-.34V10.7a.33.33,0,0,0-.33-.34H13.38a.33.33,0,0,0-.33.34Z"/><path class="cls-29" d="M13.24,10.36l.12,3.12h0a.67.67,0,0,0,.13.2l.1.07.06,0h0l-.05,0-.09-.08a.64.64,0,0,1-.11-.2h0l.12-3.12Z"/><path class="cls-29" d="M15.67,10.36l-.28,3.12h0a1,1,0,0,1-.3.2l-.22.07-.13,0h0l.12,0,.2-.08a.78.78,0,0,0,.25-.2h0L15,10.36Z"/><path class="cls-17" d="M15.87,10.33s.71.45.36.69-.84-.29-1.08-.2-.53.38-.86.41-.45-.37-.56-.29-.83.5-1.12.29,0-.82.18-.8c0,0-.47-.5,0-.77a5.52,5.52,0,0,1,3.1,0C16.26,10,16,10.25,15.87,10.33Z"/><path class="cls-30" d="M15.87,10.33h-.13l-.35,0-.23,0-.26,0c-.18,0-.37,0-.56,0h-.56c-.18,0-.35,0-.49,0h-.49l.13,0,.35.08.23,0,.26,0,.28,0h.29l.29,0,.28,0,.26,0,.23,0,.34-.1Z"/><rect class="cls-20" x="8.6" y="10.36" width="3.29" height="3.87" rx="0.42" ry="0.42"/><path class="cls-26" d="M8.7,13.71a.4.4,0,0,0,.39.41h2.3a.4.4,0,0,0,.39-.41V10.77a.4.4,0,0,0-.39-.41H9.09a.4.4,0,0,0-.39.41Z"/><path class="cls-27" d="M8.78,13.52a.38.38,0,0,0,.37.38h2.17a.38.38,0,0,0,.37-.38V10.75a.38.38,0,0,0-.37-.38H9.16a.38.38,0,0,0-.37.38Z"/><path class="cls-28" d="M9,13.15a.33.33,0,0,0,.33.34H11.2a.33.33,0,0,0,.33-.34V10.7a.33.33,0,0,0-.33-.34H9.29A.33.33,0,0,0,9,10.7Z"/><path class="cls-29" d="M9.15,10.36l.12,3.12h0a.67.67,0,0,0,.13.2l.1.07.06,0h0l-.05,0-.09-.08a.64.64,0,0,1-.11-.2h0l.12-3.12Z"/><path class="cls-29" d="M11.57,10.36l-.28,3.12h0a1,1,0,0,1-.3.2l-.22.07-.13,0h0l.12,0,.2-.08a.78.78,0,0,0,.25-.2h0l-.28-3.12Z"/><path class="cls-17" d="M11.77,10.33s.71.45.36.69-.84-.29-1.08-.2-.53.38-.86.41-.45-.37-.56-.29-.83.5-1.12.29,0-.82.18-.8c0,0-.47-.5,0-.77a5.52,5.52,0,0,1,3.1,0C12.17,10,11.93,10.25,11.77,10.33Z"/><path class="cls-30" d="M11.77,10.33h-.13l-.35,0-.23,0-.26,0c-.18,0-.37,0-.56,0H9.66c-.18,0-.35,0-.49,0H8.68l.13,0,.35.08.23,0,.26,0,.28,0h.29l.29,0,.28,0,.26,0,.23,0,.34-.1Z"/><rect class="cls-31" x="25.71" y="30.81" width="2.7" height="4.71"/><polygon class="cls-32" points="28.17 30.04 25.95 30.04 25.71 30.81 28.42 30.81 28.17 30.04"/><rect class="cls-31" x="25.95" y="29.56" width="2.22" height="0.48"/><rect class="cls-14" x="25.95" y="29.56" width="2.22" height="0.13"/><rect class="cls-17" x="25.71" y="34.15" width="2.7" height="0.81"/><path class="cls-32" d="M27.6,34.72c0-.07-.11-.12-.15-.19v0h0s0,0,0,0h0s0,.16,0,.09l-.07-.14a0,0,0,0,0,0,0l0,0a0,0,0,0,0,0,0l-.05,0v0a.22.22,0,0,0,0-.19h0s-.07.08-.07.12a.23.23,0,0,0,0,.06l0,0-.05.07s0-.06,0-.07a0,0,0,0,0,0,0s-.1.21-.1,0a0,0,0,0,0,0,0,.62.62,0,0,1,0,.16s0,0,0,0a.87.87,0,0,1,0-.11.3.3,0,0,0,0-.08.23.23,0,0,0,0-.07.11.11,0,0,0,.06-.07,0,0,0,0,0,0,0,.05.05,0,0,0-.07,0,.13.13,0,0,0-.05-.08c-.09,0-.18.11-.1.17a.14.14,0,0,0,.12,0h0a.14.14,0,0,1-.18.14.22.22,0,0,1-.13-.1s-.06,0,0,0,.2.19.31.1l.05-.05a.88.88,0,0,0,0,.14s0,0,.06,0a.21.21,0,0,0,.05-.1,0,0,0,0,0,0,0c.05,0,.07,0,.09-.08a.13.13,0,0,0,0,.08h0l.1-.13v0a.12.12,0,0,0,0,.17,0,0,0,0,0,0,0,.25.25,0,0,0,0-.15l0,0a.51.51,0,0,0,0,.06s0,0,0,0a.45.45,0,0,0,0-.1c0,.07.09.21.13.16a.23.23,0,0,0,.06-.11c.05.07.12.15.09.17s0,.06,0,0S27.62,34.76,27.6,34.72Zm-.95-.33v0Q26.55,34.47,26.65,34.39Z"/><path class="cls-32" d="M27.66,34.45a.08.08,0,0,0,0,.16A.08.08,0,0,0,27.66,34.45Z"/><path class="cls-32" d="M27.78,34.33a0,0,0,0,0,0,.08A0,0,0,0,0,27.78,34.33Z"/><path class="cls-33" d="M28.42,30.81c-.65,3.71-2.7,4.71-2.7,4.71h2.7Z"/><circle class="cls-34" cx="27.32" cy="32.1" r="0.79"/><circle class="cls-35" cx="27.32" cy="32.1" r="0.74"/><path class="cls-36" d="M27.43,31.5c0,.06-.11.57-.11.57s-.11-.51-.11-.57a.11.11,0,1,1,.21,0Z"/><path class="cls-36" d="M27.11,31.52c0,.05.19.55.19.55s-.35-.39-.38-.44a.11.11,0,0,1,.18-.11Z"/><path class="cls-36" d="M26.85,31.71c.05,0,.44.38.44.38s-.5-.17-.55-.19a.11.11,0,1,1,.11-.18Z"/><path class="cls-36" d="M26.71,32c.06,0,.57.11.57.11s-.51.11-.57.11a.11.11,0,1,1,0-.21Z"/><path class="cls-36" d="M26.74,32.32c.05,0,.55-.19.55-.19s-.39.35-.44.38a.11.11,0,1,1-.11-.18Z"/><path class="cls-36" d="M26.92,32.58c0-.05.38-.44.38-.44s-.17.5-.19.55a.11.11,0,0,1-.18-.11Z"/><path class="cls-36" d="M27.21,32.71c0-.06.11-.57.11-.57s.11.51.11.57a.11.11,0,0,1-.21,0Z"/><path class="cls-36" d="M27.53,32.69c0-.05-.19-.55-.19-.55s.35.39.38.44a.11.11,0,0,1-.18.11Z"/><path class="cls-36" d="M27.79,32.5c-.05,0-.44-.38-.44-.38s.5.17.55.19a.11.11,0,0,1-.11.18Z"/><path class="cls-36" d="M27.93,32.21c-.06,0-.57-.11-.57-.11s.51-.11.57-.11a.11.11,0,1,1,0,.21Z"/><path class="cls-36" d="M27.9,31.89c-.05,0-.55.19-.55.19s.39-.35.44-.38a.11.11,0,1,1,.11.18Z"/><path class="cls-36" d="M27.72,31.63c0,.05-.38.44-.38.44s.17-.5.19-.55a.11.11,0,0,1,.18.11Z"/><circle class="cls-34" cx="26.43" cy="33.27" r="0.4"/><circle class="cls-35" cx="26.43" cy="33.27" r="0.38"/><path class="cls-36" d="M26.48,33s-.05.29-.05.29-.05-.26-.05-.29a.05.05,0,1,1,.11,0Z"/><path class="cls-36" d="M26.32,33s.1.28.1.28L26.22,33a.05.05,0,0,1,.09-.05Z"/><path class="cls-36" d="M26.18,33.06l.23.19-.28-.1a.05.05,0,1,1,.05-.09Z"/><path class="cls-36" d="M26.11,33.21l.29.05-.29.05a.05.05,0,1,1,0-.11Z"/><path class="cls-36" d="M26.13,33.38l.28-.1-.23.19a.05.05,0,0,1-.05-.09Z"/><path class="cls-36" d="M26.22,33.51l.19-.23s-.09.26-.1.28a.05.05,0,1,1-.09-.05Z"/><path class="cls-36" d="M26.37,33.58s.05-.29.05-.29.05.26.05.29a.05.05,0,0,1-.11,0Z"/><path class="cls-36" d="M26.54,33.57s-.1-.28-.1-.28l.19.23a.05.05,0,0,1-.09.05Z"/><path class="cls-36" d="M26.67,33.47l-.23-.19.28.1a.05.05,0,1,1-.05.09Z"/><path class="cls-36" d="M26.74,33.32l-.29-.05.29-.05a.05.05,0,0,1,0,.11Z"/><path class="cls-36" d="M26.73,33.16l-.28.1.23-.19a.05.05,0,1,1,.05.09Z"/><path class="cls-36" d="M26.63,33l-.19.23s.09-.26.1-.28a.05.05,0,1,1,.09.05Z"/><circle class="cls-34" cx="27.49" cy="33.73" r="0.25"/><circle class="cls-35" cx="27.49" cy="33.73" r="0.23"/><path class="cls-36" d="M27.52,33.53s0,.18,0,.18,0-.16,0-.18a0,0,0,1,1,.07,0Z"/><path class="cls-36" d="M27.42,33.54s.06.17.06.17l-.12-.14a0,0,0,0,1,0,0A0,0,0,0,1,27.42,33.54Z"/><path class="cls-36" d="M27.34,33.6l.14.12-.17-.06a0,0,0,1,1,0-.06Z"/><path class="cls-36" d="M27.3,33.69l.18,0-.18,0a0,0,0,0,1,0-.07Z"/><path class="cls-36" d="M27.3,33.79l.17-.06-.14.12a0,0,0,0,1,0-.06Z"/><path class="cls-36" d="M27.36,33.88l.12-.14s-.05.16-.06.17a0,0,0,1,1-.06,0Z"/><path class="cls-36" d="M27.45,33.92s0-.18,0-.18,0,.16,0,.18a0,0,0,0,1-.07,0Z"/><path class="cls-36" d="M27.55,33.91l-.06-.17.12.14a0,0,0,0,1-.06,0Z"/><path class="cls-36" d="M27.64,33.85l-.14-.12.17.06a0,0,0,1,1,0,.06Z"/><path class="cls-36" d="M27.68,33.76l-.18,0,.18,0a0,0,0,1,1,0,.07Z"/><path class="cls-36" d="M27.67,33.66l-.17.06.14-.12a0,0,0,0,1,0,.06Z"/><path class="cls-36" d="M27.61,33.58l-.12.14.06-.17a0,0,0,1,1,.06,0Z"/><path class="cls-13" d="M26.71,30.13v.26h0c0,.12.16.21.35.21s.35-.1.35-.21v-.26Z"/><ellipse class="cls-14" cx="27.06" cy="30.14" rx="0.35" ry="0.21"/><rect class="cls-31" x="28.85" y="30.81" width="2.7" height="4.71"/><polygon class="cls-32" points="31.31 30.04 29.09 30.04 28.85 30.81 31.55 30.81 31.31 30.04"/><rect class="cls-31" x="29.09" y="29.56" width="2.22" height="0.48"/><rect class="cls-14" x="29.09" y="29.56" width="2.22" height="0.13"/><rect class="cls-17" x="28.85" y="34.15" width="2.7" height="0.81"/><path class="cls-32" d="M30.74,34.72c0-.07-.11-.12-.15-.19v0h0s0,0,0,0h0s0,.16,0,.09l-.07-.14a0,0,0,0,0,0,0l0,0a0,0,0,0,0,0,0l-.05,0v0a.22.22,0,0,0,0-.19h0s-.07.08-.07.12a.22.22,0,0,0,0,.06l0,0-.05.07s0-.06,0-.07a0,0,0,0,0,0,0s-.1.21-.1,0a0,0,0,0,0,0,0,.62.62,0,0,1,0,.16s0,0,0,0a.88.88,0,0,1,0-.11.3.3,0,0,0,0-.08.23.23,0,0,0,0-.07.11.11,0,0,0,.06-.07,0,0,0,0,0,0,0,.05.05,0,0,0-.07,0,.13.13,0,0,0-.05-.08c-.09,0-.18.11-.1.17a.14.14,0,0,0,.12,0h0a.14.14,0,0,1-.18.14.22.22,0,0,1-.13-.1s-.06,0,0,0,.2.19.31.1l.05-.05a.86.86,0,0,0,0,.14s0,0,.06,0a.21.21,0,0,0,.05-.1,0,0,0,0,0,0,0c.05,0,.07,0,.09-.08a.13.13,0,0,0,0,.08h0l.1-.13v0a.12.12,0,0,0,0,.17,0,0,0,0,0,0,0,.25.25,0,0,0,0-.15l0,0a.51.51,0,0,0,0,.06s0,0,0,0a.45.45,0,0,0,0-.1c0,.07.09.21.13.16a.23.23,0,0,0,.06-.11c.05.07.12.15.09.17s0,.06,0,0S30.76,34.76,30.74,34.72Zm-.95-.33v0Q29.69,34.47,29.79,34.39Z"/><path class="cls-32" d="M30.8,34.45a.08.08,0,0,0,0,.16A.08.08,0,0,0,30.8,34.45Z"/><path class="cls-32" d="M30.91,34.33a0,0,0,0,0,0,.08A0,0,0,0,0,30.91,34.33Z"/><path class="cls-33" d="M31.55,30.81c-.65,3.71-2.7,4.71-2.7,4.71h2.7Z"/><circle class="cls-34" cx="30.45" cy="32.1" r="0.79"/><circle class="cls-35" cx="30.45" cy="32.1" r="0.74"/><path class="cls-36" d="M30.56,31.5c0,.06-.11.57-.11.57s-.11-.51-.11-.57a.11.11,0,1,1,.21,0Z"/><path class="cls-36" d="M30.24,31.52c0,.05.19.55.19.55s-.35-.39-.38-.44a.11.11,0,0,1,.18-.11Z"/><path class="cls-36" d="M30,31.71c.05,0,.44.38.44.38s-.5-.17-.55-.19a.11.11,0,1,1,.11-.18Z"/><path class="cls-36" d="M29.85,32c.06,0,.57.11.57.11s-.51.11-.57.11a.11.11,0,0,1,0-.21Z"/><path class="cls-36" d="M29.87,32.32c.05,0,.55-.19.55-.19s-.39.35-.44.38a.11.11,0,0,1-.11-.18Z"/><path class="cls-36" d="M30.06,32.58c0-.05.38-.44.38-.44s-.17.5-.19.55a.11.11,0,0,1-.18-.11Z"/><path class="cls-36" d="M30.35,32.71c0-.06.11-.57.11-.57s.11.51.11.57a.11.11,0,0,1-.21,0Z"/><path class="cls-36" d="M30.67,32.69c0-.05-.19-.55-.19-.55s.35.39.38.44a.11.11,0,0,1-.18.11Z"/><path class="cls-36" d="M30.93,32.5c-.05,0-.44-.38-.44-.38s.5.17.55.19a.11.11,0,0,1-.11.18Z"/><path class="cls-36" d="M31.06,32.21c-.06,0-.57-.11-.57-.11S31,32,31.06,32a.11.11,0,1,1,0,.21Z"/><path class="cls-36" d="M31,31.89c-.05,0-.55.19-.55.19s.39-.35.44-.38a.11.11,0,1,1,.11.18Z"/><path class="cls-36" d="M30.85,31.63c0,.05-.38.44-.38.44s.17-.5.19-.55a.11.11,0,0,1,.18.11Z"/><circle class="cls-34" cx="29.56" cy="33.27" r="0.4"/><circle class="cls-35" cx="29.56" cy="33.27" r="0.38"/><path class="cls-36" d="M29.62,33s-.05.29-.05.29-.05-.26-.05-.29a.05.05,0,1,1,.11,0Z"/><path class="cls-36" d="M29.45,33s.1.28.1.28L29.36,33a.05.05,0,1,1,.09-.05Z"/><path class="cls-36" d="M29.32,33.06l.23.19-.28-.1a.05.05,0,1,1,.05-.09Z"/><path class="cls-36" d="M29.25,33.21l.29.05-.29.05a.05.05,0,1,1,0-.11Z"/><path class="cls-36" d="M29.26,33.38l.28-.1-.23.19a.05.05,0,0,1-.05-.09Z"/><path class="cls-36" d="M29.36,33.51l.19-.23s-.08.26-.1.28a.05.05,0,1,1-.09-.05Z"/><path class="cls-36" d="M29.51,33.58s.05-.29.05-.29.05.26.05.29a.05.05,0,1,1-.11,0Z"/><path class="cls-36" d="M29.67,33.57s-.1-.28-.1-.28l.19.23a.05.05,0,0,1-.09.05Z"/><path class="cls-36" d="M29.81,33.47l-.23-.19.28.1a.05.05,0,1,1-.05.09Z"/><path class="cls-36" d="M29.88,33.32l-.29-.05.29-.05a.05.05,0,0,1,0,.11Z"/><path class="cls-36" d="M29.86,33.16l-.28.1.23-.19a.05.05,0,1,1,.05.09Z"/><path class="cls-36" d="M29.77,33l-.19.23s.09-.26.1-.28a.05.05,0,1,1,.09.05Z"/><circle class="cls-34" cx="30.62" cy="33.73" r="0.25"/><circle class="cls-35" cx="30.62" cy="33.73" r="0.23"/><path class="cls-36" d="M30.66,33.53s0,.18,0,.18,0-.16,0-.18a0,0,0,1,1,.07,0Z"/><path class="cls-36" d="M30.56,33.54s.06.17.06.17l-.12-.14a0,0,0,0,1,.06,0Z"/><path class="cls-36" d="M30.47,33.6l.14.12-.17-.06a0,0,0,0,1,0,0A0,0,0,0,1,30.47,33.6Z"/><path class="cls-36" d="M30.43,33.69l.18,0-.18,0a0,0,0,1,1,0-.07Z"/><path class="cls-36" d="M30.44,33.79l.17-.06-.14.12a0,0,0,0,1,0-.06Z"/><path class="cls-36" d="M30.5,33.88l.12-.14s-.05.16-.06.17a0,0,0,1,1-.06,0Z"/><path class="cls-36" d="M30.59,33.92s0-.18,0-.18,0,.16,0,.18a0,0,0,0,1-.07,0Z"/><path class="cls-36" d="M30.69,33.91l-.06-.17.12.14a0,0,0,0,1-.06,0Z"/><path class="cls-36" d="M30.77,33.85l-.14-.12.17.06a0,0,0,0,1,0,0A0,0,0,0,1,30.77,33.85Z"/><path class="cls-36" d="M30.82,33.76l-.18,0,.18,0a0,0,0,0,1,0,.07Z"/><path class="cls-36" d="M30.81,33.66l-.17.06.14-.12a0,0,0,0,1,0,.06Z"/><path class="cls-36" d="M30.75,33.58l-.12.14s.05-.16.06-.17a0,0,0,1,1,.06,0Z"/><path class="cls-13" d="M29.85,30.13v.26h0c0,.12.16.21.35.21s.35-.1.35-.21v-.26Z"/><ellipse class="cls-14" cx="30.2" cy="30.14" rx="0.35" ry="0.21"/><rect class="cls-31" x="31.98" y="30.81" width="2.7" height="4.71"/><polygon class="cls-32" points="34.44 30.04 32.22 30.04 31.98 30.81 34.69 30.81 34.44 30.04"/><rect class="cls-31" x="32.22" y="29.56" width="2.22" height="0.48"/><rect class="cls-14" x="32.22" y="29.56" width="2.22" height="0.13"/><rect class="cls-17" x="31.98" y="34.15" width="2.7" height="0.81"/><path class="cls-32" d="M33.87,34.72c0-.07-.11-.12-.15-.19v0h0s0,0,0,0h0s0,.16,0,.09l-.07-.14a0,0,0,0,0,0,0l0,0a0,0,0,0,0,0,0l-.05,0v0a.22.22,0,0,0,0-.19h0s-.07.08-.07.12a.23.23,0,0,0,0,.06l0,0-.05.07s0-.06,0-.07a0,0,0,0,0,0,0s-.1.21-.1,0a0,0,0,0,0,0,0,.62.62,0,0,1,0,.16s0,0,0,0a.87.87,0,0,1,0-.11.3.3,0,0,0,0-.08.23.23,0,0,0,0-.07.11.11,0,0,0,.06-.07,0,0,0,0,0,0,0,.05.05,0,0,0-.07,0,.13.13,0,0,0-.05-.08c-.09,0-.18.11-.1.17a.14.14,0,0,0,.12,0h0a.14.14,0,0,1-.18.14.22.22,0,0,1-.13-.1s-.06,0,0,0,.2.19.31.1l.05-.05a.88.88,0,0,0,0,.14s0,0,.06,0a.21.21,0,0,0,.05-.1,0,0,0,0,0,0,0c.05,0,.07,0,.09-.08a.13.13,0,0,0,0,.08h0l.1-.13v0a.12.12,0,0,0,0,.17,0,0,0,0,0,0,0,.25.25,0,0,0,0-.15l0,0a.5.5,0,0,0,0,.06s0,0,0,0a.45.45,0,0,0,0-.1c0,.07.09.21.13.16a.23.23,0,0,0,.06-.11c.05.07.12.15.09.17s0,.06,0,0S33.89,34.76,33.87,34.72Zm-.95-.33v0Q32.82,34.47,32.92,34.39Z"/><path class="cls-32" d="M33.93,34.45a.08.08,0,0,0,0,.16A.08.08,0,0,0,33.93,34.45Z"/><path class="cls-32" d="M34,34.33a0,0,0,0,0,0,.08A0,0,0,0,0,34,34.33Z"/><path class="cls-33" d="M34.69,30.81C34,34.53,32,35.53,32,35.53h2.7Z"/><circle class="cls-34" cx="33.59" cy="32.1" r="0.79"/><circle class="cls-35" cx="33.59" cy="32.1" r="0.74"/><path class="cls-36" d="M33.7,31.5c0,.06-.11.57-.11.57s-.11-.51-.11-.57a.11.11,0,1,1,.21,0Z"/><path class="cls-36" d="M33.38,31.52c0,.05.19.55.19.55s-.35-.39-.38-.44a.11.11,0,0,1,.18-.11Z"/><path class="cls-36" d="M33.12,31.71c.05,0,.44.38.44.38s-.5-.17-.55-.19a.11.11,0,1,1,.11-.18Z"/><path class="cls-36" d="M33,32c.06,0,.57.11.57.11s-.51.11-.57.11A.11.11,0,0,1,33,32Z"/><path class="cls-36" d="M33,32.32c.05,0,.55-.19.55-.19s-.39.35-.44.38a.11.11,0,1,1-.11-.18Z"/><path class="cls-36" d="M33.19,32.58c0-.05.38-.44.38-.44s-.17.5-.19.55a.11.11,0,0,1-.18-.11Z"/><path class="cls-36" d="M33.48,32.71c0-.06.11-.57.11-.57s.11.51.11.57a.11.11,0,0,1-.21,0Z"/><path class="cls-36" d="M33.8,32.69c0-.05-.19-.55-.19-.55s.35.39.38.44a.11.11,0,0,1-.18.11Z"/><path class="cls-36" d="M34.06,32.5c-.05,0-.44-.38-.44-.38s.5.17.55.19a.11.11,0,0,1-.11.18Z"/><path class="cls-36" d="M34.2,32.21c-.06,0-.57-.11-.57-.11s.51-.11.57-.11a.11.11,0,1,1,0,.21Z"/><path class="cls-36" d="M34.17,31.89c-.05,0-.55.19-.55.19s.39-.35.44-.38a.11.11,0,1,1,.11.18Z"/><path class="cls-36" d="M34,31.63c0,.05-.38.44-.38.44s.17-.5.19-.55a.11.11,0,0,1,.18.11Z"/><circle class="cls-34" cx="32.7" cy="33.27" r="0.4"/><circle class="cls-35" cx="32.7" cy="33.27" r="0.38"/><path class="cls-36" d="M32.75,33s-.05.29-.05.29-.05-.26-.05-.29a.05.05,0,1,1,.11,0Z"/><path class="cls-36" d="M32.59,33s.1.28.1.28L32.49,33a.05.05,0,0,1,.09-.05Z"/><path class="cls-36" d="M32.45,33.06l.23.19-.28-.1a.05.05,0,1,1,.05-.09Z"/><path class="cls-36" d="M32.38,33.21l.29.05-.29.05a.05.05,0,1,1,0-.11Z"/><path class="cls-36" d="M32.4,33.38l.28-.1-.23.19a.05.05,0,0,1-.05-.09Z"/><path class="cls-36" d="M32.49,33.51l.19-.23s-.09.26-.1.28a.05.05,0,1,1-.09-.05Z"/><path class="cls-36" d="M32.64,33.58s.05-.29.05-.29.05.26.05.29a.05.05,0,1,1-.11,0Z"/><path class="cls-36" d="M32.81,33.57s-.1-.28-.1-.28l.19.23a.05.05,0,0,1-.09.05Z"/><path class="cls-36" d="M32.94,33.47l-.23-.19.28.1a.05.05,0,1,1-.05.09Z"/><path class="cls-36" d="M33,33.32l-.29-.05.29-.05a.05.05,0,0,1,0,.11Z"/><path class="cls-36" d="M33,33.16l-.28.1.23-.19a.05.05,0,1,1,.05.09Z"/><path class="cls-36" d="M32.9,33l-.19.23s.09-.26.1-.28a.05.05,0,1,1,.09.05Z"/><circle class="cls-34" cx="33.76" cy="33.73" r="0.25"/><circle class="cls-35" cx="33.76" cy="33.73" r="0.23"/><path class="cls-36" d="M33.79,33.53s0,.18,0,.18,0-.16,0-.18a0,0,0,1,1,.07,0Z"/><path class="cls-36" d="M33.69,33.54s.06.17.06.17l-.12-.14a0,0,0,0,1,0,0A0,0,0,0,1,33.69,33.54Z"/><path class="cls-36" d="M33.61,33.6l.14.12-.17-.06a0,0,0,0,1,0,0A0,0,0,0,1,33.61,33.6Z"/><path class="cls-36" d="M33.57,33.69l.18,0-.18,0a0,0,0,0,1,0-.07Z"/><path class="cls-36" d="M33.57,33.79l.17-.06-.14.12a0,0,0,0,1,0-.06Z"/><path class="cls-36" d="M33.63,33.88l.12-.14s-.05.16-.06.17a0,0,0,1,1-.06,0Z"/><path class="cls-36" d="M33.72,33.92s0-.18,0-.18,0,.16,0,.18a0,0,0,0,1-.07,0Z"/><path class="cls-36" d="M33.82,33.91l-.06-.17.12.14a0,0,0,0,1-.06,0Z"/><path class="cls-36" d="M33.91,33.85l-.14-.12.17.06a0,0,0,1,1,0,.06Z"/><path class="cls-36" d="M34,33.76l-.18,0,.18,0a0,0,0,1,1,0,.07Z"/><path class="cls-36" d="M33.94,33.66l-.17.06.14-.12a0,0,0,0,1,0,.06Z"/><path class="cls-36" d="M33.88,33.58l-.12.14.06-.17a0,0,0,1,1,.06,0Z"/><path class="cls-13" d="M33,30.13v.26h0c0,.12.16.21.35.21s.35-.1.35-.21v-.26Z"/><ellipse class="cls-14" cx="33.33" cy="30.14" rx="0.35" ry="0.21"/><rect class="cls-31" x="35.12" y="30.81" width="2.7" height="4.71"/><polygon class="cls-32" points="37.58 30.04 35.36 30.04 35.12 30.81 37.82 30.81 37.58 30.04"/><rect class="cls-31" x="35.36" y="29.56" width="2.22" height="0.48"/><rect class="cls-14" x="35.36" y="29.56" width="2.22" height="0.13"/><rect class="cls-17" x="35.12" y="34.15" width="2.7" height="0.81"/><path class="cls-32" d="M37,34.72c0-.07-.11-.12-.15-.19v0h0s0,0,0,0h0s0,.16,0,.09l-.07-.14a0,0,0,0,0,0,0l0,0a0,0,0,0,0,0,0l-.05,0v0a.22.22,0,0,0,0-.19h0s-.07.08-.07.12a.22.22,0,0,0,0,.06l0,0-.05.07s0-.06,0-.07a0,0,0,0,0,0,0s-.1.21-.1,0a0,0,0,0,0,0,0,.62.62,0,0,1,0,.16s0,0,0,0a.89.89,0,0,1,0-.11.3.3,0,0,0,0-.08.23.23,0,0,0,0-.07.11.11,0,0,0,.06-.07,0,0,0,0,0,0,0,.05.05,0,0,0-.07,0,.13.13,0,0,0-.05-.08c-.09,0-.18.11-.1.17a.14.14,0,0,0,.12,0h0a.14.14,0,0,1-.18.14.22.22,0,0,1-.13-.1s-.06,0,0,0,.2.19.31.1l.05-.05a.86.86,0,0,0,0,.14s0,0,.06,0a.21.21,0,0,0,.05-.1,0,0,0,0,0,0,0c.05,0,.07,0,.09-.08a.13.13,0,0,0,0,.08h0l.1-.13v0a.12.12,0,0,0,0,.17,0,0,0,0,0,0,0,.25.25,0,0,0,0-.15l0,0a.51.51,0,0,0,0,.06s0,0,0,0a.45.45,0,0,0,0-.1c0,.07.09.21.13.16a.23.23,0,0,0,.06-.11c.05.07.12.15.09.17s0,.06,0,0S37,34.76,37,34.72Zm-.95-.33v0C36,34.45,36,34.44,36.06,34.39Z"/><path class="cls-32" d="M37.07,34.45a.08.08,0,0,0,0,.16A.08.08,0,0,0,37.07,34.45Z"/><path class="cls-32" d="M37.18,34.33a0,0,0,0,0,0,.08A0,0,0,0,0,37.18,34.33Z"/><path class="cls-33" d="M37.82,30.81c-.65,3.71-2.7,4.71-2.7,4.71h2.7Z"/><circle class="cls-34" cx="36.72" cy="32.1" r="0.79"/><circle class="cls-35" cx="36.72" cy="32.1" r="0.74"/><path class="cls-36" d="M36.83,31.5c0,.06-.11.57-.11.57s-.11-.51-.11-.57a.11.11,0,1,1,.21,0Z"/><path class="cls-36" d="M36.51,31.52c0,.05.19.55.19.55s-.35-.39-.38-.44a.11.11,0,0,1,.18-.11Z"/><path class="cls-36" d="M36.25,31.71c.05,0,.44.38.44.38s-.5-.17-.55-.19a.11.11,0,1,1,.11-.18Z"/><path class="cls-36" d="M36.12,32c.06,0,.57.11.57.11s-.51.11-.57.11a.11.11,0,0,1,0-.21Z"/><path class="cls-36" d="M36.14,32.32c.05,0,.55-.19.55-.19s-.39.35-.44.38a.11.11,0,0,1-.11-.18Z"/><path class="cls-36" d="M36.33,32.58c0-.05.38-.44.38-.44s-.17.5-.19.55a.11.11,0,0,1-.18-.11Z"/><path class="cls-36" d="M36.62,32.71c0-.06.11-.57.11-.57s.11.51.11.57a.11.11,0,0,1-.21,0Z"/><path class="cls-36" d="M36.94,32.69c0-.05-.19-.55-.19-.55s.35.39.38.44a.11.11,0,0,1-.18.11Z"/><path class="cls-36" d="M37.2,32.5c-.05,0-.44-.38-.44-.38s.5.17.55.19a.11.11,0,0,1-.11.18Z"/><path class="cls-36" d="M37.33,32.21c-.06,0-.57-.11-.57-.11s.51-.11.57-.11a.11.11,0,1,1,0,.21Z"/><path class="cls-36" d="M37.31,31.89c-.05,0-.55.19-.55.19s.39-.35.44-.38a.11.11,0,0,1,.11.18Z"/><path class="cls-36" d="M37.12,31.63c0,.05-.38.44-.38.44s.17-.5.19-.55a.11.11,0,0,1,.18.11Z"/><circle class="cls-34" cx="35.83" cy="33.27" r="0.4"/><circle class="cls-35" cx="35.83" cy="33.27" r="0.38"/><path class="cls-36" d="M35.89,33s-.05.29-.05.29-.05-.26-.05-.29a.05.05,0,1,1,.11,0Z"/><path class="cls-36" d="M35.72,33s.1.28.1.28L35.63,33a.05.05,0,1,1,.09-.05Z"/><path class="cls-36" d="M35.59,33.06l.23.19-.28-.1a.05.05,0,1,1,.05-.09Z"/><path class="cls-36" d="M35.52,33.21l.29.05-.29.05a.05.05,0,1,1,0-.11Z"/><path class="cls-36" d="M35.53,33.38l.28-.1-.23.19a.05.05,0,0,1-.05-.09Z"/><path class="cls-36" d="M35.63,33.51l.19-.23s-.08.26-.1.28a.05.05,0,1,1-.09-.05Z"/><path class="cls-36" d="M35.78,33.58s.05-.29.05-.29.05.26.05.29a.05.05,0,1,1-.11,0Z"/><path class="cls-36" d="M35.94,33.57s-.1-.28-.1-.28l.19.23a.05.05,0,0,1-.09.05Z"/><path class="cls-36" d="M36.08,33.47l-.23-.19.28.1a.05.05,0,1,1-.05.09Z"/><path class="cls-36" d="M36.15,33.32l-.29-.05.29-.05a.05.05,0,1,1,0,.11Z"/><path class="cls-36" d="M36.13,33.16l-.28.1.23-.19a.05.05,0,1,1,.05.09Z"/><path class="cls-36" d="M36,33l-.19.23s.09-.26.1-.28A.05.05,0,1,1,36,33Z"/><circle class="cls-34" cx="36.89" cy="33.73" r="0.25"/><circle class="cls-35" cx="36.89" cy="33.73" r="0.23"/><path class="cls-36" d="M36.93,33.53s0,.18,0,.18,0-.16,0-.18a0,0,0,1,1,.07,0Z"/><path class="cls-36" d="M36.83,33.54s.06.17.06.17l-.12-.14a0,0,0,0,1,.06,0Z"/><path class="cls-36" d="M36.74,33.6l.14.12-.17-.06a0,0,0,0,1,0,0A0,0,0,0,1,36.74,33.6Z"/><path class="cls-36" d="M36.7,33.69l.18,0-.18,0a0,0,0,1,1,0-.07Z"/><path class="cls-36" d="M36.71,33.79l.17-.06-.14.12a0,0,0,0,1,0-.06Z"/><path class="cls-36" d="M36.77,33.88l.12-.14s-.05.16-.06.17a0,0,0,1,1-.06,0Z"/><path class="cls-36" d="M36.86,33.92s0-.18,0-.18,0,.16,0,.18a0,0,0,0,1-.07,0Z"/><path class="cls-36" d="M37,33.91l-.06-.17.12.14a0,0,0,0,1-.06,0Z"/><path class="cls-36" d="M37,33.85l-.14-.12.17.06a0,0,0,0,1,0,0A0,0,0,0,1,37,33.85Z"/><path class="cls-36" d="M37.09,33.76l-.18,0,.18,0a0,0,0,0,1,0,.07Z"/><path class="cls-36" d="M37.08,33.66l-.17.06L37,33.6a0,0,0,0,1,0,.06Z"/><path class="cls-36" d="M37,33.58l-.12.14s.05-.16.06-.17a0,0,0,1,1,.06,0Z"/><path class="cls-13" d="M36.12,30.13v.26h0c0,.12.16.21.35.21s.35-.1.35-.21v-.26Z"/><ellipse class="cls-14" cx="36.47" cy="30.14" rx="0.35" ry="0.21"/><rect class="cls-31" x="38.25" y="30.81" width="2.7" height="4.71"/><polygon class="cls-32" points="40.71 30.04 38.49 30.04 38.25 30.81 40.96 30.81 40.71 30.04"/><rect class="cls-31" x="38.49" y="29.56" width="2.22" height="0.48"/><rect class="cls-14" x="38.49" y="29.56" width="2.22" height="0.13"/><rect class="cls-17" x="38.25" y="34.15" width="2.7" height="0.81"/><path class="cls-32" d="M40.14,34.72c0-.07-.11-.12-.15-.19v0h0s0,0,0,0h0s0,.16,0,.09l-.07-.14a0,0,0,0,0,0,0l0,0a0,0,0,0,0,0,0l-.05,0v0a.22.22,0,0,0,0-.19h0s-.07.08-.07.12a.23.23,0,0,0,0,.06l0,0-.05.07s0-.06,0-.07a0,0,0,0,0,0,0s-.1.21-.1,0a0,0,0,0,0,0,0,.62.62,0,0,1,0,.16s0,0,0,0a.87.87,0,0,1,0-.11.29.29,0,0,0,0-.08.22.22,0,0,0,0-.07.11.11,0,0,0,.06-.07,0,0,0,0,0,0,0,.05.05,0,0,0-.07,0,.13.13,0,0,0-.05-.08c-.09,0-.18.11-.1.17a.14.14,0,0,0,.12,0h0a.14.14,0,0,1-.18.14.22.22,0,0,1-.13-.1s-.06,0,0,0,.2.19.31.1l.05-.05a.88.88,0,0,0,0,.14s0,0,.06,0a.21.21,0,0,0,.05-.1,0,0,0,0,0,0,0c.05,0,.07,0,.09-.08a.13.13,0,0,0,0,.08h0l.1-.13v0a.12.12,0,0,0,0,.17,0,0,0,0,0,0,0,.25.25,0,0,0,0-.15l0,0a.51.51,0,0,0,0,.06s0,0,0,0a.45.45,0,0,0,0-.1c0,.07.09.21.13.16A.23.23,0,0,0,40,34.6c.05.07.12.15.09.17s0,.06,0,0S40.16,34.76,40.14,34.72Zm-.95-.33v0Q39.09,34.47,39.19,34.39Z"/><path class="cls-32" d="M40.2,34.45a.08.08,0,0,0,0,.16A.08.08,0,0,0,40.2,34.45Z"/><path class="cls-32" d="M40.32,34.33a0,0,0,0,0,0,.08A0,0,0,0,0,40.32,34.33Z"/><path class="cls-33" d="M41,30.81c-.65,3.71-2.7,4.71-2.7,4.71H41Z"/><circle class="cls-34" cx="39.86" cy="32.1" r="0.79"/><circle class="cls-35" cx="39.86" cy="32.1" r="0.74"/><path class="cls-36" d="M40,31.5c0,.06-.11.57-.11.57s-.11-.51-.11-.57a.11.11,0,1,1,.21,0Z"/><path class="cls-36" d="M39.65,31.52c0,.05.19.55.19.55s-.35-.39-.38-.44a.11.11,0,0,1,.18-.11Z"/><path class="cls-36" d="M39.39,31.71c.05,0,.44.38.44.38s-.5-.17-.55-.19a.11.11,0,1,1,.11-.18Z"/><path class="cls-36" d="M39.25,32c.06,0,.57.11.57.11s-.51.11-.57.11a.11.11,0,0,1,0-.21Z"/><path class="cls-36" d="M39.28,32.32c.05,0,.55-.19.55-.19s-.39.35-.44.38a.11.11,0,1,1-.11-.18Z"/><path class="cls-36" d="M39.46,32.58c0-.05.38-.44.38-.44s-.17.5-.19.55a.11.11,0,0,1-.18-.11Z"/><path class="cls-36" d="M39.75,32.71c0-.06.11-.57.11-.57s.11.51.11.57a.11.11,0,0,1-.21,0Z"/><path class="cls-36" d="M40.07,32.69c0-.05-.19-.55-.19-.55s.35.39.38.44a.11.11,0,0,1-.18.11Z"/><path class="cls-36" d="M40.33,32.5c-.05,0-.44-.38-.44-.38s.5.17.55.19a.11.11,0,0,1-.11.18Z"/><path class="cls-36" d="M40.47,32.21c-.06,0-.57-.11-.57-.11s.51-.11.57-.11a.11.11,0,1,1,0,.21Z"/><path class="cls-36" d="M40.44,31.89c-.05,0-.55.19-.55.19s.39-.35.44-.38a.11.11,0,1,1,.11.18Z"/><path class="cls-36" d="M40.26,31.63c0,.05-.38.44-.38.44s.17-.5.19-.55a.11.11,0,0,1,.18.11Z"/><circle class="cls-34" cx="38.97" cy="33.27" r="0.4"/><circle class="cls-35" cx="38.97" cy="33.27" r="0.38"/><path class="cls-36" d="M39,33s-.05.29-.05.29-.05-.26-.05-.29A.05.05,0,1,1,39,33Z"/><path class="cls-36" d="M38.86,33s.1.28.1.28L38.76,33a.05.05,0,0,1,.09-.05Z"/><path class="cls-36" d="M38.72,33.06l.23.19-.28-.1a.05.05,0,1,1,.05-.09Z"/><path class="cls-36" d="M38.65,33.21l.29.05-.29.05a.05.05,0,1,1,0-.11Z"/><path class="cls-36" d="M38.67,33.38l.28-.1-.23.19a.05.05,0,0,1-.05-.09Z"/><path class="cls-36" d="M38.76,33.51l.19-.23s-.09.26-.1.28a.05.05,0,1,1-.09-.05Z"/><path class="cls-36" d="M38.91,33.58s.05-.29.05-.29.05.26.05.29a.05.05,0,1,1-.11,0Z"/><path class="cls-36" d="M39.08,33.57s-.1-.28-.1-.28l.19.23a.05.05,0,0,1-.09.05Z"/><path class="cls-36" d="M39.21,33.47,39,33.28l.28.1a.05.05,0,1,1-.05.09Z"/><path class="cls-36" d="M39.28,33.32,39,33.27l.29-.05a.05.05,0,0,1,0,.11Z"/><path class="cls-36" d="M39.27,33.16l-.28.1.23-.19a.05.05,0,1,1,.05.09Z"/><path class="cls-36" d="M39.17,33l-.19.23s.09-.26.1-.28a.05.05,0,1,1,.09.05Z"/><circle class="cls-34" cx="40.03" cy="33.73" r="0.25"/><circle class="cls-35" cx="40.03" cy="33.73" r="0.23"/><path class="cls-36" d="M40.06,33.53s0,.18,0,.18,0-.16,0-.18a0,0,0,1,1,.07,0Z"/><path class="cls-36" d="M40,33.54s.06.17.06.17l-.12-.14a0,0,0,0,1,.06,0Z"/><path class="cls-36" d="M39.88,33.6l.14.12-.17-.06a0,0,0,0,1,0,0A0,0,0,0,1,39.88,33.6Z"/><path class="cls-36" d="M39.84,33.69l.18,0-.18,0a0,0,0,0,1,0-.07Z"/><path class="cls-36" d="M39.84,33.79l.17-.06-.14.12a0,0,0,0,1,0-.06Z"/><path class="cls-36" d="M39.9,33.88l.12-.14s-.05.16-.06.17a0,0,0,1,1-.06,0Z"/><path class="cls-36" d="M40,33.92s0-.18,0-.18,0,.16,0,.18a0,0,0,0,1-.07,0Z"/><path class="cls-36" d="M40.09,33.91,40,33.74l.12.14a0,0,0,0,1-.06,0Z"/><path class="cls-36" d="M40.18,33.85,40,33.73l.17.06a0,0,0,1,1,0,.06Z"/><path class="cls-36" d="M40.22,33.76l-.18,0,.18,0a0,0,0,1,1,0,.07Z"/><path class="cls-36" d="M40.21,33.66l-.17.06.14-.12a0,0,0,0,1,0,.06Z"/><path class="cls-36" d="M40.15,33.58l-.12.14.06-.17a0,0,0,1,1,.06,0Z"/><path class="cls-13" d="M39.25,30.13v.26h0c0,.12.16.21.35.21s.35-.1.35-.21v-.26Z"/><ellipse class="cls-14" cx="39.6" cy="30.14" rx="0.35" ry="0.21"/><path class="cls-14" d="M24.6,32.21a1.4,1.4,0,0,0-.2-.75,3.79,3.79,0,0,1-.18-1.23h-.9a3.79,3.79,0,0,1-.18,1.23,1.4,1.4,0,0,0-.2.75c0,.17.2,1,.2,1.35s-.09.59-.15,1.12a7.9,7.9,0,0,0,0,.84H24.6a7.84,7.84,0,0,0,0-.84c-.06-.54-.15-.87-.15-1.12S24.6,32.38,24.6,32.21Z"/><path class="cls-37" d="M24.6,32.21a2.86,2.86,0,0,1-1.65,0c0,.17.2,1,.2,1.35s-.09.59-.15,1.12c0,.24,1.59.24,1.56,0-.06-.54-.15-.87-.15-1.12S24.6,32.38,24.6,32.21Z"/><rect class="cls-37" x="23.26" y="29.92" width="1.03" height="0.42" rx="0.07" ry="0.07"/><path class="cls-38" d="M23.36,30.05l0,0,0,0v.28h0Z"/><path class="cls-38" d="M23.44,30.05l0,0,0,0v.28h0Z"/><path class="cls-38" d="M23.52,30.05l0,0,0,0v.28h0Z"/><path class="cls-38" d="M23.6,30.05l0,0,0,0v.28h0Z"/><path class="cls-38" d="M23.68,30.05l0,0,0,0v.28h0Z"/><path class="cls-38" d="M23.76,30.05l0,0,0,0v.28h0Z"/><path class="cls-38" d="M23.84,30.05l0,0,0,0v.28h0Z"/><path class="cls-38" d="M23.92,30.05l0,0,0,0v.28h0Z"/><path class="cls-38" d="M24,30.05l0,0,0,0v.28h0Z"/><path class="cls-38" d="M24.08,30.05l0,0,0,0v.28h0Z"/><path class="cls-38" d="M24.15,30.05l0,0a0,0,0,0,0,0,0v.28h0Z"/><path class="cls-38" d="M24.23,30.05l0,0,0,0v.28h0Z"/><ellipse class="cls-39" cx="23.78" cy="33.53" rx="0.44" ry="0.77"/><path class="cls-14" d="M22.55,32.21a1.4,1.4,0,0,0-.2-.75,3.79,3.79,0,0,1-.18-1.23h-.9a3.79,3.79,0,0,1-.18,1.23,1.4,1.4,0,0,0-.2.75c0,.17.2,1,.2,1.35s-.09.59-.15,1.12a7.89,7.89,0,0,0,0,.84h1.65a7.83,7.83,0,0,0,0-.84c-.06-.54-.15-.87-.15-1.12S22.55,32.38,22.55,32.21Z"/><path class="cls-37" d="M22.55,32.21a2.86,2.86,0,0,1-1.65,0c0,.17.2,1,.2,1.35s-.09.59-.15,1.12c0,.24,1.59.24,1.56,0-.06-.54-.15-.87-.15-1.12S22.55,32.38,22.55,32.21Z"/><rect class="cls-37" x="21.21" y="29.92" width="1.03" height="0.42" rx="0.07" ry="0.07"/><path class="cls-38" d="M21.31,30.05l0,0,0,0v.28h0Z"/><path class="cls-38" d="M21.39,30.05l0,0,0,0v.28h0Z"/><path class="cls-38" d="M21.47,30.05l0,0,0,0v.28h0Z"/><path class="cls-38" d="M21.55,30.05l0,0,0,0v.28h0Z"/><path class="cls-38" d="M21.63,30.05l0,0,0,0v.28h0Z"/><path class="cls-38" d="M21.71,30.05l0,0,0,0v.28h0Z"/><path class="cls-38" d="M21.79,30.05l0,0,0,0v.28h0Z"/><path class="cls-38" d="M21.87,30.05l0,0,0,0v.28h0Z"/><path class="cls-38" d="M21.95,30.05l0,0,0,0v.28h0Z"/><path class="cls-38" d="M22,30.05l0,0,0,0v.28h0Z"/><path class="cls-38" d="M22.11,30.05l0,0,0,0v.28h0Z"/><path class="cls-38" d="M22.19,30.05l0,0,0,0v.28h0Z"/><ellipse class="cls-39" cx="21.73" cy="33.53" rx="0.44" ry="0.77"/><path class="cls-14" d="M20.5,32.21a1.4,1.4,0,0,0-.2-.75,3.79,3.79,0,0,1-.18-1.23h-.9A3.79,3.79,0,0,1,19,31.46a1.4,1.4,0,0,0-.2.75c0,.17.2,1,.2,1.35s-.09.59-.15,1.12a7.89,7.89,0,0,0,0,.84H20.5a7.84,7.84,0,0,0,0-.84c-.06-.54-.15-.87-.15-1.12S20.5,32.38,20.5,32.21Z"/><path class="cls-37" d="M20.5,32.21a2.86,2.86,0,0,1-1.65,0c0,.17.2,1,.2,1.35s-.09.59-.15,1.12c0,.24,1.59.24,1.56,0-.06-.54-.15-.87-.15-1.12S20.5,32.38,20.5,32.21Z"/><rect class="cls-37" x="19.16" y="29.92" width="1.03" height="0.42" rx="0.07" ry="0.07"/><path class="cls-38" d="M19.27,30.05l0,0,0,0v.28h0Z"/><path class="cls-38" d="M19.35,30.05l0,0,0,0v.28h0Z"/><path class="cls-38" d="M19.42,30.05l0,0,0,0v.28h0Z"/><path class="cls-38" d="M19.5,30.05l0,0,0,0v.28h0Z"/><path class="cls-38" d="M19.58,30.05l0,0,0,0v.28h0Z"/><path class="cls-38" d="M19.66,30.05l0,0,0,0v.28h0Z"/><path class="cls-38" d="M19.74,30.05l0,0,0,0v.28h0Z"/><path class="cls-38" d="M19.82,30.05l0,0,0,0v.28h0Z"/><path class="cls-38" d="M19.9,30.05l0,0,0,0v.28h0Z"/><path class="cls-38" d="M20,30.05l0,0,0,0v.28h0Z"/><path class="cls-38" d="M20.06,30.05l0,0a0,0,0,0,0,0,0v.28h0Z"/><path class="cls-38" d="M20.14,30.05l0,0,0,0v.28h0Z"/><ellipse class="cls-39" cx="19.68" cy="33.53" rx="0.44" ry="0.77"/><path class="cls-14" d="M18.46,32.21a1.4,1.4,0,0,0-.2-.75,3.79,3.79,0,0,1-.18-1.23h-.9A3.79,3.79,0,0,1,17,31.46a1.4,1.4,0,0,0-.2.75c0,.17.2,1,.2,1.35s-.09.59-.15,1.12a7.89,7.89,0,0,0,0,.84h1.65a7.83,7.83,0,0,0,0-.84c-.06-.54-.15-.87-.15-1.12S18.46,32.38,18.46,32.21Z"/><path class="cls-37" d="M18.46,32.21a2.86,2.86,0,0,1-1.65,0c0,.17.2,1,.2,1.35s-.09.59-.15,1.12c0,.24,1.59.24,1.56,0-.06-.54-.15-.87-.15-1.12S18.46,32.38,18.46,32.21Z"/><rect class="cls-37" x="17.11" y="29.92" width="1.03" height="0.42" rx="0.07" ry="0.07"/><path class="cls-38" d="M17.22,30.05l0,0,0,0v.28h0Z"/><path class="cls-38" d="M17.3,30.05l0,0,0,0v.28h0Z"/><path class="cls-38" d="M17.38,30.05l0,0,0,0v.28h0Z"/><path class="cls-38" d="M17.46,30.05l0,0,0,0v.28h0Z"/><path class="cls-38" d="M17.53,30.05l0,0,0,0v.28h0Z"/><path class="cls-38" d="M17.61,30.05l0,0,0,0v.28h0Z"/><path class="cls-38" d="M17.69,30.05l0,0,0,0v.28h0Z"/><path class="cls-38" d="M17.77,30.05l0,0,0,0v.28h0Z"/><path class="cls-38" d="M17.85,30.05l0,0,0,0v.28h0Z"/><path class="cls-38" d="M17.93,30.05l0,0,0,0v.28h0Z"/><path class="cls-38" d="M18,30.05l0,0,0,0v.28h0Z"/><path class="cls-38" d="M18.09,30.05l0,0,0,0v.28h0Z"/><ellipse class="cls-39" cx="17.63" cy="33.53" rx="0.44" ry="0.77"/><path class="cls-14" d="M16.41,32.21a1.4,1.4,0,0,0-.2-.75A3.79,3.79,0,0,1,16,30.23h-.9A3.79,3.79,0,0,1,15,31.46a1.4,1.4,0,0,0-.2.75c0,.17.2,1,.2,1.35s-.09.59-.15,1.12a7.89,7.89,0,0,0,0,.84h1.65a7.84,7.84,0,0,0,0-.84c-.06-.54-.15-.87-.15-1.12S16.41,32.38,16.41,32.21Z"/><path class="cls-37" d="M16.41,32.21a2.86,2.86,0,0,1-1.65,0c0,.17.2,1,.2,1.35s-.09.59-.15,1.12c0,.24,1.59.24,1.56,0-.06-.54-.15-.87-.15-1.12S16.41,32.38,16.41,32.21Z"/><rect class="cls-37" x="15.07" y="29.92" width="1.03" height="0.42" rx="0.07" ry="0.07"/><path class="cls-38" d="M15.17,30.05l0,0,0,0v.28h0Z"/><path class="cls-38" d="M15.25,30.05l0,0,0,0v.28h0Z"/><path class="cls-38" d="M15.33,30.05l0,0,0,0v.28h0Z"/><path class="cls-38" d="M15.41,30.05l0,0,0,0v.28h0Z"/><path class="cls-38" d="M15.49,30.05l0,0,0,0v.28h0Z"/><path class="cls-38" d="M15.57,30.05l0,0,0,0v.28h0Z"/><path class="cls-38" d="M15.64,30.05l0,0,0,0v.28h0Z"/><path class="cls-38" d="M15.72,30.05l0,0,0,0v.28h0Z"/><path class="cls-38" d="M15.8,30.05l0,0,0,0v.28h0Z"/><path class="cls-38" d="M15.88,30.05l0,0,0,0v.28h0Z"/><path class="cls-38" d="M16,30.05l0,0a0,0,0,0,0,0,0v.28h0Z"/><path class="cls-38" d="M16,30.05l0,0,0,0v.28h0Z"/><ellipse class="cls-39" cx="15.58" cy="33.53" rx="0.44" ry="0.77"/><path class="cls-14" d="M14.36,32.21a1.4,1.4,0,0,0-.2-.75A3.79,3.79,0,0,1,14,30.23h-.9a3.79,3.79,0,0,1-.18,1.23,1.4,1.4,0,0,0-.2.75c0,.17.2,1,.2,1.35s-.09.59-.15,1.12a7.89,7.89,0,0,0,0,.84h1.65a7.84,7.84,0,0,0,0-.84c-.06-.54-.15-.87-.15-1.12S14.36,32.38,14.36,32.21Z"/><path class="cls-37" d="M14.36,32.21a2.86,2.86,0,0,1-1.65,0c0,.17.2,1,.2,1.35s-.09.59-.15,1.12c0,.24,1.59.24,1.56,0-.06-.54-.15-.87-.15-1.12S14.36,32.38,14.36,32.21Z"/><rect class="cls-37" x="13.02" y="29.92" width="1.03" height="0.42" rx="0.07" ry="0.07"/><path class="cls-38" d="M13.12,30.05l0,0,0,0v.28h0Z"/><path class="cls-38" d="M13.2,30.05l0,0,0,0v.28h0Z"/><path class="cls-38" d="M13.28,30.05l0,0,0,0v.28h0Z"/><path class="cls-38" d="M13.36,30.05l0,0,0,0v.28h0Z"/><path class="cls-38" d="M13.44,30.05l0,0,0,0v.28h0Z"/><path class="cls-38" d="M13.52,30.05l0,0,0,0v.28h0Z"/><path class="cls-38" d="M13.6,30.05l0,0,0,0v.28h0Z"/><path class="cls-38" d="M13.67,30.05l0,0,0,0v.28h0Z"/><path class="cls-38" d="M13.75,30.05l0,0,0,0v.28h0Z"/><path class="cls-38" d="M13.83,30.05l0,0,0,0v.28h0Z"/><path class="cls-38" d="M13.91,30.05l0,0,0,0v.28h0Z"/><path class="cls-38" d="M14,30.05l0,0,0,0v.28h0Z"/><ellipse class="cls-39" cx="13.53" cy="33.53" rx="0.44" ry="0.77"/><path class="cls-14" d="M12.31,32.21a1.4,1.4,0,0,0-.2-.75,3.79,3.79,0,0,1-.18-1.23H11a3.79,3.79,0,0,1-.18,1.23,1.4,1.4,0,0,0-.2.75c0,.17.2,1,.2,1.35s-.09.59-.15,1.12a7.89,7.89,0,0,0,0,.84h1.65a7.84,7.84,0,0,0,0-.84c-.06-.54-.15-.87-.15-1.12S12.31,32.38,12.31,32.21Z"/><path class="cls-37" d="M12.31,32.21a2.86,2.86,0,0,1-1.65,0c0,.17.2,1,.2,1.35s-.09.59-.15,1.12c0,.24,1.59.24,1.56,0-.06-.54-.15-.87-.15-1.12S12.31,32.38,12.31,32.21Z"/><rect class="cls-37" x="10.97" y="29.92" width="1.03" height="0.42" rx="0.07" ry="0.07"/><path class="cls-38" d="M11.07,30.05l0,0,0,0v.28h0Z"/><path class="cls-38" d="M11.15,30.05l0,0,0,0v.28h0Z"/><path class="cls-38" d="M11.23,30.05l0,0,0,0v.28h0Z"/><path class="cls-38" d="M11.31,30.05l0,0,0,0v.28h0Z"/><path class="cls-38" d="M11.39,30.05l0,0,0,0v.28h0Z"/><path class="cls-38" d="M11.47,30.05l0,0,0,0v.28h0Z"/><path class="cls-38" d="M11.55,30.05l0,0,0,0v.28h0Z"/><path class="cls-38" d="M11.63,30.05l0,0,0,0v.28h0Z"/><path class="cls-38" d="M11.71,30.05l0,0,0,0v.28h0Z"/><path class="cls-38" d="M11.78,30.05l0,0,0,0v.28h0Z"/><path class="cls-38" d="M11.86,30.05l0,0a0,0,0,0,0,0,0v.28h0Z"/><path class="cls-38" d="M11.94,30.05l0,0,0,0v.28h0Z"/><ellipse class="cls-39" cx="11.49" cy="33.53" rx="0.44" ry="0.77"/><path class="cls-14" d="M10.26,32.21a1.4,1.4,0,0,0-.2-.75,3.79,3.79,0,0,1-.18-1.23H9a3.79,3.79,0,0,1-.18,1.23,1.4,1.4,0,0,0-.2.75c0,.17.2,1,.2,1.35s-.09.59-.15,1.12a7.89,7.89,0,0,0,0,.84h1.65a7.84,7.84,0,0,0,0-.84c-.06-.54-.15-.87-.15-1.12S10.26,32.38,10.26,32.21Z"/><path class="cls-37" d="M10.26,32.21a2.86,2.86,0,0,1-1.65,0c0,.17.2,1,.2,1.35s-.09.59-.15,1.12c0,.24,1.59.24,1.56,0-.06-.54-.15-.87-.15-1.12S10.26,32.38,10.26,32.21Z"/><rect class="cls-37" x="8.92" y="29.92" width="1.03" height="0.42" rx="0.07" ry="0.07"/><path class="cls-38" d="M9,30.05l0,0,0,0v.28H9Z"/><path class="cls-38" d="M9.1,30.05l0,0,0,0v.28h0Z"/><path class="cls-38" d="M9.18,30.05l0,0,0,0v.28h0Z"/><path class="cls-38" d="M9.26,30.05l0,0,0,0v.28h0Z"/><path class="cls-38" d="M9.34,30.05l0,0,0,0v.28h0Z"/><path class="cls-38" d="M9.42,30.05l0,0,0,0v.28h0Z"/><path class="cls-38" d="M9.5,30.05l0,0,0,0v.28h0Z"/><path class="cls-38" d="M9.58,30.05l0,0,0,0v.28h0Z"/><path class="cls-38" d="M9.66,30.05l0,0,0,0v.28h0Z"/><path class="cls-38" d="M9.74,30.05l0,0,0,0v.28h0Z"/><path class="cls-38" d="M9.82,30.05l0,0a0,0,0,0,0,0,0v.28h0Z"/><path class="cls-38" d="M9.89,30.05l0,0,0,0v.28h0Z"/><ellipse class="cls-39" cx="9.44" cy="33.53" rx="0.44" ry="0.77"/><rect class="cls-40" x="25.6" y="37.01" width="2.27" height="3.96"/><polygon class="cls-41" points="27.67 36.37 25.8 36.37 25.6 37.01 27.87 37.01 27.67 36.37"/><rect class="cls-40" x="25.8" y="35.96" width="1.87" height="0.41"/><rect class="cls-14" x="25.8" y="35.96" width="1.87" height="0.11"/><path class="cls-14" d="M25.6,39.93a.53.53,0,0,0,.5-.17c.17-.24.34-.7.73-.68,0,0-.41.44,0,.62s1-.19,1-.19V41H25.6Z"/><circle class="cls-17" cx="27.14" cy="39.17" r="0.12"/><circle class="cls-17" cx="27.34" cy="38.83" r="0.08"/><path class="cls-33" d="M27.87,37c-.55,3.12-2.27,4-2.27,4h2.27Z"/><polygon class="cls-17" points="26.9 38.32 25.6 38.32 25.6 37.64 27.42 37.64 26.9 38.32"/><polyline class="cls-42" points="25.6 37.7 27.27 37.7 26.84 38.26 25.6 38.26"/><path class="cls-43" d="M26.8,38.12c0-.06-.09-.1-.13-.16v0h0s0,0,0,0h0s0,.13,0,.08l-.06-.12a0,0,0,0,0,0,0l0,0h0l0,0v0a.19.19,0,0,0,0-.16h0s-.06.07-.06.1a.19.19,0,0,0,0,0l0,0,0,.06s0-.05,0-.06a0,0,0,0,0,0,0s-.08.17-.09,0a0,0,0,0,0,0,0,.52.52,0,0,1,0,.13s0,0,0,0a.72.72,0,0,1,0-.1.26.26,0,0,0,0-.06.19.19,0,0,0,0-.06.09.09,0,0,0,.05-.06v0a0,0,0,0,0-.06,0,.11.11,0,0,0,0-.07c-.07,0-.15.09-.09.14a.11.11,0,0,0,.1,0h0a.12.12,0,0,1-.15.12.18.18,0,0,1-.11-.09s0,0,0,0,.17.16.26.09l0,0a.75.75,0,0,0,0,.12s0,0,0,0a.17.17,0,0,0,0-.08l0,0s.06,0,.08-.07a.11.11,0,0,0,0,.07h0l.09-.11v0a.1.1,0,0,0,0,.15,0,0,0,0,0,0,0,.21.21,0,0,0,0-.13l0,0a.44.44,0,0,0,0,.05s0,0,0,0a.36.36,0,0,0,0-.09c0,.06.07.17.11.14a.19.19,0,0,0,0-.09c0,.06.1.13.08.14s0,0,0,0S26.82,38.16,26.8,38.12Zm-.8-.28v0C26,37.9,26,37.89,26,37.84Z"/><path class="cls-43" d="M26.86,37.89a.07.07,0,0,0,0,.14A.07.07,0,0,0,26.86,37.89Z"/><path class="cls-43" d="M27,37.79a0,0,0,0,0,0,.07A0,0,0,0,0,27,37.79Z"/><rect class="cls-40" x="28.18" y="37.01" width="2.27" height="3.96"/><polygon class="cls-41" points="30.25 36.37 28.39 36.37 28.18 37.01 30.45 37.01 30.25 36.37"/><rect class="cls-40" x="28.39" y="35.96" width="1.87" height="0.41"/><rect class="cls-14" x="28.39" y="35.96" width="1.87" height="0.11"/><path class="cls-14" d="M28.18,39.93a.53.53,0,0,0,.5-.17c.17-.24.34-.7.73-.68,0,0-.41.44,0,.62s1-.19,1-.19V41H28.18Z"/><circle class="cls-17" cx="29.72" cy="39.17" r="0.12"/><circle class="cls-17" cx="29.92" cy="38.83" r="0.08"/><path class="cls-33" d="M30.46,37c-.55,3.12-2.27,4-2.27,4h2.27Z"/><polygon class="cls-17" points="29.48 38.32 28.18 38.32 28.18 37.64 30 37.64 29.48 38.32"/><polyline class="cls-42" points="28.18 37.7 29.85 37.7 29.43 38.26 28.18 38.26"/><path class="cls-43" d="M29.39,38.12c0-.06-.09-.1-.13-.16v0h0s0,0,0,0h0s0,.13,0,.08l-.06-.12a0,0,0,0,0,0,0l0,0h0l0,0v0a.19.19,0,0,0,0-.16h0s-.06.07-.06.1a.19.19,0,0,0,0,0l0,0,0,.06s0-.05,0-.06a0,0,0,0,0,0,0s-.08.17-.09,0a0,0,0,0,0,0,0,.52.52,0,0,1,0,.13s0,0,0,0a.73.73,0,0,1,0-.1.25.25,0,0,0,0-.06.19.19,0,0,0,0-.06.09.09,0,0,0,.05-.06v0a0,0,0,0,0-.06,0,.11.11,0,0,0,0-.07c-.07,0-.15.09-.09.14a.12.12,0,0,0,.1,0h0a.12.12,0,0,1-.15.12.18.18,0,0,1-.11-.09s0,0,0,0,.17.16.26.09l0,0a.73.73,0,0,0,0,.12s0,0,0,0a.17.17,0,0,0,0-.08l0,0s.06,0,.08-.07a.11.11,0,0,0,0,.07h0L29,38v0a.1.1,0,0,0,0,.15,0,0,0,0,0,0,0A.21.21,0,0,0,29,38l0,0A.44.44,0,0,0,29,38s0,0,0,0a.37.37,0,0,0,0-.09c0,.06.07.17.11.14a.19.19,0,0,0,0-.09c0,.06.1.13.08.14s0,0,0,0S29.4,38.16,29.39,38.12Zm-.8-.28v0Q28.51,37.91,28.59,37.84Z"/><path class="cls-43" d="M29.44,37.89a.07.07,0,0,0,0,.14A.07.07,0,0,0,29.44,37.89Z"/><path class="cls-43" d="M29.54,37.79a0,0,0,0,0,0,.07A0,0,0,0,0,29.54,37.79Z"/><rect class="cls-40" x="30.76" y="37.01" width="2.27" height="3.96"/><polygon class="cls-41" points="32.83 36.37 30.97 36.37 30.77 37.01 33.04 37.01 32.83 36.37"/><rect class="cls-40" x="30.97" y="35.96" width="1.87" height="0.41"/><rect class="cls-14" x="30.97" y="35.96" width="1.87" height="0.11"/><path class="cls-14" d="M30.76,39.93a.53.53,0,0,0,.5-.17c.17-.24.34-.7.73-.68,0,0-.41.44,0,.62s1-.19,1-.19V41H30.76Z"/><circle class="cls-17" cx="32.31" cy="39.17" r="0.12"/><circle class="cls-17" cx="32.5" cy="38.83" r="0.08"/><path class="cls-33" d="M33,37c-.55,3.12-2.27,4-2.27,4H33Z"/><polygon class="cls-17" points="32.06 38.32 30.77 38.32 30.77 37.64 32.58 37.64 32.06 38.32"/><polyline class="cls-42" points="30.77 37.7 32.44 37.7 32.01 38.26 30.77 38.26"/><path class="cls-43" d="M32,38.12c0-.06-.09-.1-.13-.16v0h0s0,0,0,0h0s0,.13,0,.08l-.06-.12a0,0,0,0,0,0,0l0,0h0l0,0v0a.19.19,0,0,0,0-.16h0s-.06.07-.06.1a.19.19,0,0,0,0,0l0,0,0,.06s0-.05,0-.06a0,0,0,0,0,0,0s-.08.17-.09,0a0,0,0,0,0,0,0,.52.52,0,0,1,0,.13s0,0,0,0a.73.73,0,0,1,0-.1.25.25,0,0,0,0-.06.19.19,0,0,0,0-.06.09.09,0,0,0,.05-.06v0a0,0,0,0,0-.06,0,.11.11,0,0,0,0-.07c-.07,0-.15.09-.09.14a.12.12,0,0,0,.1,0h0A.12.12,0,0,1,31,38a.18.18,0,0,1-.11-.09s0,0,0,0,.17.16.26.09l0,0a.74.74,0,0,0,0,.12s0,0,0,0a.17.17,0,0,0,0-.08l0,0s.06,0,.08-.07a.11.11,0,0,0,0,.07h0l.09-.11v0a.1.1,0,0,0,0,.15,0,0,0,0,0,0,0,.21.21,0,0,0,0-.13l0,0a.43.43,0,0,0,0,.05s0,0,0,0a.36.36,0,0,0,0-.09c0,.06.07.17.11.14a.19.19,0,0,0,0-.09c0,.06.1.13.08.14s0,0,0,0S32,38.16,32,38.12Zm-.8-.28v0Q31.09,37.91,31.17,37.84Z"/><path class="cls-43" d="M32,37.89A.07.07,0,0,0,32,38,.07.07,0,0,0,32,37.89Z"/><path class="cls-43" d="M32.12,37.79a0,0,0,0,0,0,.07A0,0,0,0,0,32.12,37.79Z"/><rect class="cls-40" x="33.35" y="37.01" width="2.27" height="3.96"/><polygon class="cls-41" points="35.42 36.37 33.55 36.37 33.35 37.01 35.62 37.01 35.42 36.37"/><rect class="cls-40" x="33.55" y="35.96" width="1.87" height="0.41"/><rect class="cls-14" x="33.55" y="35.96" width="1.87" height="0.11"/><path class="cls-14" d="M33.35,39.93a.53.53,0,0,0,.5-.17c.17-.24.34-.7.73-.68,0,0-.41.44,0,.62s1-.19,1-.19V41H33.35Z"/><circle class="cls-17" cx="34.89" cy="39.17" r="0.12"/><circle class="cls-17" cx="35.09" cy="38.83" r="0.08"/><path class="cls-33" d="M35.62,37c-.55,3.12-2.27,4-2.27,4h2.27Z"/><polygon class="cls-17" points="34.65 38.32 33.35 38.32 33.35 37.64 35.17 37.64 34.65 38.32"/><polyline class="cls-42" points="33.35 37.7 35.02 37.7 34.59 38.26 33.35 38.26"/><path class="cls-43" d="M34.55,38.12c0-.06-.09-.1-.13-.16v0h0s0,0,0,0h0s0,.13,0,.08l-.06-.12a0,0,0,0,0,0,0l0,0h0l0,0v0a.19.19,0,0,0,0-.16h0s-.06.07-.06.1a.19.19,0,0,0,0,0l0,0,0,.06s0-.05,0-.06a0,0,0,0,0,0,0s-.08.17-.09,0a0,0,0,0,0,0,0,.52.52,0,0,1,0,.13s0,0,0,0a.72.72,0,0,1,0-.1.26.26,0,0,0,0-.06.19.19,0,0,0,0-.06.09.09,0,0,0,.05-.06v0a0,0,0,0,0-.06,0,.11.11,0,0,0,0-.07c-.07,0-.15.09-.09.14a.11.11,0,0,0,.1,0h0a.12.12,0,0,1-.15.12.18.18,0,0,1-.11-.09s0,0,0,0,.17.16.26.09l0,0a.75.75,0,0,0,0,.12s0,0,0,0a.17.17,0,0,0,0-.08l0,0S34,38,34,38a.11.11,0,0,0,0,.07h0l.09-.11v0a.1.1,0,0,0,0,.15,0,0,0,0,0,0,0,.21.21,0,0,0,0-.13l0,0a.43.43,0,0,0,0,.05s0,0,0,0a.37.37,0,0,0,0-.09c0,.06.07.17.11.14a.19.19,0,0,0,0-.09c0,.06.1.13.08.14s0,0,0,0S34.57,38.16,34.55,38.12Zm-.8-.28v0C33.7,37.9,33.7,37.89,33.76,37.84Z"/><path class="cls-43" d="M34.61,37.89a.07.07,0,0,0,0,.14A.07.07,0,0,0,34.61,37.89Z"/><path class="cls-43" d="M34.7,37.79a0,0,0,0,0,0,.07A0,0,0,0,0,34.7,37.79Z"/><rect class="cls-40" x="35.93" y="37.01" width="2.27" height="3.96"/><polygon class="cls-41" points="38 36.37 36.13 36.37 35.93 37.01 38.2 37.01 38 36.37"/><rect class="cls-40" x="36.13" y="35.96" width="1.87" height="0.41"/><rect class="cls-14" x="36.13" y="35.96" width="1.87" height="0.11"/><path class="cls-14" d="M35.93,39.93a.53.53,0,0,0,.5-.17c.17-.24.34-.7.73-.68,0,0-.41.44,0,.62s1-.19,1-.19V41H35.93Z"/><circle class="cls-17" cx="37.47" cy="39.17" r="0.12"/><circle class="cls-17" cx="37.67" cy="38.83" r="0.08"/><path class="cls-33" d="M38.2,37c-.55,3.12-2.27,4-2.27,4H38.2Z"/><polygon class="cls-17" points="37.23 38.32 35.93 38.32 35.93 37.64 37.75 37.64 37.23 38.32"/><polyline class="cls-42" points="35.93 37.7 37.6 37.7 37.17 38.26 35.93 38.26"/><path class="cls-43" d="M37.14,38.12c0-.06-.09-.1-.13-.16v0h0s0,0,0,0h0s0,.13,0,.08l-.06-.12a0,0,0,0,0,0,0l0,0h0l0,0v0a.19.19,0,0,0,0-.16h0s-.06.07-.06.1a.18.18,0,0,0,0,0l0,0,0,.06s0-.05,0-.06a0,0,0,0,0,0,0s-.08.17-.09,0a0,0,0,0,0,0,0,.52.52,0,0,1,0,.13s0,0,0,0a.73.73,0,0,1,0-.1.26.26,0,0,0,0-.06.19.19,0,0,0,0-.06.09.09,0,0,0,.05-.06v0a0,0,0,0,0-.06,0,.11.11,0,0,0,0-.07c-.07,0-.15.09-.09.14a.11.11,0,0,0,.1,0h0a.12.12,0,0,1-.15.12.18.18,0,0,1-.11-.09s0,0,0,0,.17.16.26.09l0,0a.75.75,0,0,0,0,.12s0,0,0,0a.17.17,0,0,0,0-.08l0,0s.06,0,.08-.07a.11.11,0,0,0,0,.07h0l.09-.11v0a.1.1,0,0,0,0,.15,0,0,0,0,0,0,0,.21.21,0,0,0,0-.13l0,0a.43.43,0,0,0,0,.05s0,0,0,0a.36.36,0,0,0,0-.09c0,.06.07.17.11.14A.19.19,0,0,0,37,38c0,.06.1.13.08.14s0,0,0,0S37.15,38.16,37.14,38.12Zm-.8-.28v0C36.29,37.9,36.28,37.89,36.34,37.84Z"/><path class="cls-43" d="M37.19,37.89a.07.07,0,0,0,0,.14A.07.07,0,0,0,37.19,37.89Z"/><path class="cls-43" d="M37.29,37.79a0,0,0,0,0,0,.07A0,0,0,0,0,37.29,37.79Z"/><rect class="cls-40" x="38.51" y="37.01" width="2.27" height="3.96"/><polygon class="cls-41" points="40.58 36.37 38.72 36.37 38.51 37.01 40.79 37.01 40.58 36.37"/><rect class="cls-40" x="38.72" y="35.96" width="1.87" height="0.41"/><rect class="cls-14" x="38.72" y="35.96" width="1.87" height="0.11"/><path class="cls-14" d="M38.51,39.93a.53.53,0,0,0,.5-.17c.17-.24.34-.7.73-.68,0,0-.41.44,0,.62s1-.19,1-.19V41H38.51Z"/><circle class="cls-17" cx="40.05" cy="39.17" r="0.12"/><circle class="cls-17" cx="40.25" cy="38.83" r="0.08"/><path class="cls-33" d="M40.79,37c-.55,3.12-2.27,4-2.27,4h2.27Z"/><polygon class="cls-17" points="39.81 38.32 38.51 38.32 38.51 37.64 40.33 37.64 39.81 38.32"/><polyline class="cls-42" points="38.51 37.7 40.19 37.7 39.76 38.26 38.51 38.26"/><path class="cls-43" d="M39.72,38.12c0-.06-.09-.1-.13-.16v0h0s0,0,0,0h0s0,.13,0,.08l-.06-.12a0,0,0,0,0,0,0l0,0h0l0,0v0a.19.19,0,0,0,0-.16h0s-.06.07-.06.1a.19.19,0,0,0,0,0l0,0,0,.06s0-.05,0-.06a0,0,0,0,0,0,0s-.08.17-.09,0a0,0,0,0,0,0,0,.53.53,0,0,1,0,.13s0,0,0,0a.74.74,0,0,1,0-.1A.25.25,0,0,0,39,38a.19.19,0,0,0,0-.06.09.09,0,0,0,.05-.06v0a0,0,0,0,0-.06,0,.11.11,0,0,0,0-.07c-.07,0-.15.09-.09.14a.11.11,0,0,0,.1,0h0a.12.12,0,0,1-.15.12.18.18,0,0,1-.11-.09s0,0,0,0,.17.16.26.09l0,0a.74.74,0,0,0,0,.12s0,0,0,0a.17.17,0,0,0,0-.08l0,0s.06,0,.08-.07a.11.11,0,0,0,0,.07h0L39.3,38v0a.1.1,0,0,0,0,.15,0,0,0,0,0,0,0,.21.21,0,0,0,0-.13l0,0a.43.43,0,0,0,0,.05s0,0,0,0a.36.36,0,0,0,0-.09c0,.06.07.17.11.14a.19.19,0,0,0,0-.09c0,.06.1.13.08.14s0,0,0,0S39.74,38.16,39.72,38.12Zm-.8-.28v0Q38.84,37.91,38.92,37.84Z"/><path class="cls-43" d="M39.77,37.89a.07.07,0,0,0,0,.14A.07.07,0,0,0,39.77,37.89Z"/><path class="cls-43" d="M39.87,37.79a0,0,0,0,0,0,.07A0,0,0,0,0,39.87,37.79Z"/><path class="cls-14" d="M26.85,23.24l-.5-.06-.5.06a7.67,7.67,0,0,1-.23,1.37,8.12,8.12,0,0,0-.18,1.66v.12a15.83,15.83,0,0,0,.1,2h1.6a15.81,15.81,0,0,0,.1-2v-.12a8.12,8.12,0,0,0-.18-1.66A7.65,7.65,0,0,1,26.85,23.24Z"/><path class="cls-44" d="M25.62,24.61a8.12,8.12,0,0,0-.18,1.66v.12a1.47,1.47,0,0,0,1.81,0v-.12a8.12,8.12,0,0,0-.18-1.66A1.42,1.42,0,0,1,25.62,24.61Z"/><rect class="cls-44" x="25.76" y="22.82" width="1.19" height="0.43"/><circle class="cls-45" cx="26.35" cy="25.44" r="0.45"/><rect class="cls-46" x="25.9" y="26.09" width="0.89" height="0.06"/><rect class="cls-46" x="25.9" y="26.19" width="0.89" height="0.06"/><rect class="cls-46" x="25.9" y="26.3" width="0.89" height="0.06"/><path class="cls-14" d="M29.22,23.24l-.5-.06-.5.06A7.68,7.68,0,0,1,28,24.61a8.12,8.12,0,0,0-.18,1.66v.12a15.83,15.83,0,0,0,.1,2h1.6a15.81,15.81,0,0,0,.1-2v-.12a8.12,8.12,0,0,0-.18-1.66A7.66,7.66,0,0,1,29.22,23.24Z"/><path class="cls-44" d="M28,24.61a8.12,8.12,0,0,0-.18,1.66v.12a1.47,1.47,0,0,0,1.81,0v-.12a8.12,8.12,0,0,0-.18-1.66A1.42,1.42,0,0,1,28,24.61Z"/><rect class="cls-44" x="28.13" y="22.82" width="1.19" height="0.43"/><circle class="cls-45" cx="28.73" cy="25.44" r="0.45"/><rect class="cls-46" x="28.28" y="26.09" width="0.89" height="0.06"/><rect class="cls-46" x="28.28" y="26.19" width="0.89" height="0.06"/><rect class="cls-46" x="28.28" y="26.3" width="0.89" height="0.06"/><path class="cls-14" d="M31.6,23.24l-.5-.06-.5.06a7.67,7.67,0,0,1-.23,1.37,8.12,8.12,0,0,0-.18,1.66v.12a15.84,15.84,0,0,0,.1,2h1.6a15.82,15.82,0,0,0,.1-2v-.12a8.11,8.11,0,0,0-.18-1.66A7.66,7.66,0,0,1,31.6,23.24Z"/><path class="cls-44" d="M30.38,24.61a8.12,8.12,0,0,0-.18,1.66v.12a1.47,1.47,0,0,0,1.81,0v-.12a8.11,8.11,0,0,0-.18-1.66A1.42,1.42,0,0,1,30.38,24.61Z"/><rect class="cls-44" x="30.51" y="22.82" width="1.19" height="0.43"/><circle class="cls-45" cx="31.1" cy="25.44" r="0.45"/><rect class="cls-46" x="30.66" y="26.09" width="0.89" height="0.06"/><rect class="cls-46" x="30.66" y="26.19" width="0.89" height="0.06"/><rect class="cls-46" x="30.66" y="26.3" width="0.89" height="0.06"/><path class="cls-14" d="M34,23.24l-.5-.06-.5.06a7.68,7.68,0,0,1-.23,1.37,8.12,8.12,0,0,0-.18,1.66v.12a15.83,15.83,0,0,0,.1,2h1.6a15.8,15.8,0,0,0,.1-2v-.12a8.12,8.12,0,0,0-.18-1.66A7.66,7.66,0,0,1,34,23.24Z"/><path class="cls-44" d="M32.75,24.61a8.12,8.12,0,0,0-.18,1.66v.12a1.47,1.47,0,0,0,1.81,0v-.12a8.12,8.12,0,0,0-.18-1.66A1.42,1.42,0,0,1,32.75,24.61Z"/><rect class="cls-44" x="32.89" y="22.82" width="1.19" height="0.43"/><circle class="cls-45" cx="33.48" cy="25.44" r="0.45"/><rect class="cls-46" x="33.04" y="26.09" width="0.89" height="0.06"/><rect class="cls-46" x="33.04" y="26.19" width="0.89" height="0.06"/><rect class="cls-46" x="33.04" y="26.3" width="0.89" height="0.06"/><path class="cls-14" d="M36.36,23.24l-.5-.06-.5.06a7.67,7.67,0,0,1-.23,1.37A8.12,8.12,0,0,0,35,26.27v.12a15.84,15.84,0,0,0,.1,2h1.6a15.81,15.81,0,0,0,.1-2v-.12a8.11,8.11,0,0,0-.18-1.66A7.66,7.66,0,0,1,36.36,23.24Z"/><path class="cls-44" d="M35.13,24.61A8.12,8.12,0,0,0,35,26.27v.12a1.47,1.47,0,0,0,1.81,0v-.12a8.11,8.11,0,0,0-.18-1.66A1.42,1.42,0,0,1,35.13,24.61Z"/><rect class="cls-44" x="35.27" y="22.82" width="1.19" height="0.43"/><circle class="cls-45" cx="35.86" cy="25.44" r="0.45"/><rect class="cls-46" x="35.42" y="26.09" width="0.89" height="0.06"/><rect class="cls-46" x="35.42" y="26.19" width="0.89" height="0.06"/><rect class="cls-46" x="35.42" y="26.3" width="0.89" height="0.06"/><path class="cls-14" d="M38.74,23.24l-.5-.06-.5.06a7.67,7.67,0,0,1-.23,1.37,8.12,8.12,0,0,0-.18,1.66v.12a15.83,15.83,0,0,0,.1,2H39a15.81,15.81,0,0,0,.1-2v-.12A8.12,8.12,0,0,0,39,24.61,7.65,7.65,0,0,1,38.74,23.24Z"/><path class="cls-44" d="M37.51,24.61a8.12,8.12,0,0,0-.18,1.66v.12a1.47,1.47,0,0,0,1.81,0v-.12A8.12,8.12,0,0,0,39,24.61,1.42,1.42,0,0,1,37.51,24.61Z"/><rect class="cls-44" x="37.65" y="22.82" width="1.19" height="0.43"/><circle class="cls-45" cx="38.24" cy="25.44" r="0.45"/><rect class="cls-46" x="37.79" y="26.09" width="0.89" height="0.06"/><rect class="cls-46" x="37.79" y="26.19" width="0.89" height="0.06"/><rect class="cls-46" x="37.79" y="26.3" width="0.89" height="0.06"/><path class="cls-14" d="M41.11,23.24l-.5-.06-.5.06a7.68,7.68,0,0,1-.23,1.37,8.12,8.12,0,0,0-.18,1.66v.12a15.84,15.84,0,0,0,.1,2h1.6a15.8,15.8,0,0,0,.1-2v-.12a8.12,8.12,0,0,0-.18-1.66A7.66,7.66,0,0,1,41.11,23.24Z"/><path class="cls-44" d="M39.89,24.61a8.12,8.12,0,0,0-.18,1.66v.12a1.47,1.47,0,0,0,1.81,0v-.12a8.12,8.12,0,0,0-.18-1.66A1.42,1.42,0,0,1,39.89,24.61Z"/><rect class="cls-44" x="40.02" y="22.82" width="1.19" height="0.43"/><circle class="cls-45" cx="40.62" cy="25.44" r="0.45"/><rect class="cls-46" x="40.17" y="26.09" width="0.89" height="0.06"/><rect class="cls-46" x="40.17" y="26.19" width="0.89" height="0.06"/><rect class="cls-46" x="40.17" y="26.3" width="0.89" height="0.06"/><rect class="cls-47" x="25.22" y="9.22" width="3.5" height="5.01"/><rect class="cls-48" x="25.53" y="10.28" width="2.89" height="2.89"/><rect class="cls-47" x="29.34" y="9.22" width="3.5" height="5.01"/><rect class="cls-48" x="29.65" y="10.28" width="2.89" height="2.89"/><rect class="cls-47" x="33.47" y="9.22" width="3.5" height="5.01"/><rect class="cls-48" x="33.77" y="10.28" width="2.89" height="2.89"/><rect class="cls-47" x="37.59" y="9.22" width="3.5" height="5.01"/><rect class="cls-48" x="37.89" y="10.28" width="2.89" height="2.89"/><rect class="cls-49" x="25.22" y="15.67" width="2.74" height="5.61" rx="0.07" ry="0.07"/><path class="cls-48" d="M28,17V15.75a.07.07,0,0,0-.07-.07H25.29a.07.07,0,0,0-.07.07V17Z"/><path class="cls-50" d="M28,16.55v-.81a.07.07,0,0,0-.07-.07H25.29a.07.07,0,0,0-.07.07v.81Z"/><rect class="cls-50" x="25.34" y="17" width="0.16" height="4.28"/><rect class="cls-50" x="25.68" y="17" width="0.16" height="4.28"/><rect class="cls-50" x="26.02" y="17" width="0.16" height="4.28"/><rect class="cls-50" x="26.36" y="17" width="0.16" height="4.28"/><rect class="cls-50" x="26.69" y="17" width="0.16" height="4.28"/><rect class="cls-50" x="27.03" y="17" width="0.16" height="4.28"/><rect class="cls-50" x="27.37" y="17" width="0.16" height="4.28"/><rect class="cls-50" x="27.7" y="17" width="0.16" height="4.28"/><rect class="cls-49" x="28.5" y="15.67" width="2.74" height="5.61" rx="0.07" ry="0.07"/><path class="cls-48" d="M31.24,17V15.75a.07.07,0,0,0-.07-.07H28.57a.07.07,0,0,0-.07.07V17Z"/><path class="cls-50" d="M31.24,16.55v-.81a.07.07,0,0,0-.07-.07H28.57a.07.07,0,0,0-.07.07v.81Z"/><rect class="cls-50" x="28.63" y="17" width="0.16" height="4.28"/><rect class="cls-50" x="28.96" y="17" width="0.16" height="4.28"/><rect class="cls-50" x="29.3" y="17" width="0.16" height="4.28"/><rect class="cls-50" x="29.64" y="17" width="0.16" height="4.28"/><rect class="cls-50" x="29.98" y="17" width="0.16" height="4.28"/><rect class="cls-50" x="30.31" y="17" width="0.16" height="4.28"/><rect class="cls-50" x="30.65" y="17" width="0.16" height="4.28"/><rect class="cls-50" x="30.99" y="17" width="0.16" height="4.28"/><rect class="cls-49" x="31.79" y="15.67" width="2.74" height="5.61" rx="0.07" ry="0.07"/><path class="cls-48" d="M34.52,17V15.75a.07.07,0,0,0-.07-.07H31.86a.07.07,0,0,0-.07.07V17Z"/><path class="cls-50" d="M34.52,16.55v-.81a.07.07,0,0,0-.07-.07H31.86a.07.07,0,0,0-.07.07v.81Z"/><rect class="cls-50" x="31.91" y="17" width="0.16" height="4.28"/><rect class="cls-50" x="32.25" y="17" width="0.16" height="4.28"/><rect class="cls-50" x="32.58" y="17" width="0.16" height="4.28"/><rect class="cls-50" x="32.92" y="17" width="0.16" height="4.28"/><rect class="cls-50" x="33.26" y="17" width="0.16" height="4.28"/><rect class="cls-50" x="33.6" y="17" width="0.16" height="4.28"/><rect class="cls-50" x="33.93" y="17" width="0.16" height="4.28"/><rect class="cls-50" x="34.27" y="17" width="0.16" height="4.28"/><rect class="cls-49" x="35.07" y="15.67" width="2.74" height="5.61" rx="0.07" ry="0.07"/><path class="cls-48" d="M37.81,17V15.75a.07.07,0,0,0-.07-.07H35.14a.07.07,0,0,0-.07.07V17Z"/><path class="cls-50" d="M37.81,16.55v-.81a.07.07,0,0,0-.07-.07H35.14a.07.07,0,0,0-.07.07v.81Z"/><rect class="cls-50" x="35.19" y="17" width="0.16" height="4.28"/><rect class="cls-50" x="35.53" y="17" width="0.16" height="4.28"/><rect class="cls-50" x="35.87" y="17" width="0.16" height="4.28"/><rect class="cls-50" x="36.2" y="17" width="0.16" height="4.28"/><rect class="cls-50" x="36.54" y="17" width="0.16" height="4.28"/><rect class="cls-50" x="36.88" y="17" width="0.16" height="4.28"/><rect class="cls-50" x="37.22" y="17" width="0.16" height="4.28"/><rect class="cls-50" x="37.55" y="17" width="0.16" height="4.28"/><rect class="cls-49" x="38.35" y="15.67" width="2.74" height="5.61" rx="0.07" ry="0.07"/><path class="cls-48" d="M41.09,17V15.75a.07.07,0,0,0-.07-.07H38.42a.07.07,0,0,0-.07.07V17Z"/><path class="cls-50" d="M41.09,16.55v-.81a.07.07,0,0,0-.07-.07H38.42a.07.07,0,0,0-.07.07v.81Z"/><rect class="cls-50" x="38.47" y="17" width="0.16" height="4.28"/><rect class="cls-50" x="38.81" y="17" width="0.16" height="4.28"/><rect class="cls-50" x="39.15" y="17" width="0.16" height="4.28"/><rect class="cls-50" x="39.49" y="17" width="0.16" height="4.28"/><rect class="cls-50" x="39.82" y="17" width="0.16" height="4.28"/><rect class="cls-50" x="40.16" y="17" width="0.16" height="4.28"/><rect class="cls-50" x="40.5" y="17" width="0.16" height="4.28"/><rect class="cls-50" x="40.83" y="17" width="0.16" height="4.28"/><path class="cls-51" d="M42.5,42.5V7.5H7.5v35ZM8.24,40.89V35.77H41.76v5.12ZM41.76,21.57v6.35H8.24V21.57ZM8.24,20.82V14.47H41.76v6.35Zm33.53,7.85V35H8.24V28.67Zm0-20.43v5.49H8.24V8.24Z"/></g></g></svg>