<svg xmlns="http://www.w3.org/2000/svg" viewBox="0 0 50 50"><defs><style>.cls-1{isolation:isolate;}.cls-2{fill:#cbcac8;}.cls-3{fill:#c9cccc;}.cls-12,.cls-13,.cls-4{fill:#0b0b0b;}.cls-5{fill:#091211;}.cls-6{fill:#383537;}.cls-7{fill:#181818;}.cls-8{fill:#fffbfc;}.cls-9{fill:#ff5115;}.cls-10{fill:#ed3f07;}.cls-11{fill:#cecece;}.cls-12{opacity:0.4;}.cls-12,.cls-13,.cls-17,.cls-18,.cls-29{mix-blend-mode:multiply;}.cls-14{fill:#ffddad;}.cls-15{fill:#f4d2a8;}.cls-16{fill:#e5c29c;}.cls-17{fill:#121212;opacity:0.2;}.cls-19{fill:#d3cdcf;}.cls-20{fill:#f2d1aa;}.cls-21{fill:#340901;}.cls-22{fill:#3f2c38;}.cls-23{fill:#dedee6;}.cls-24{fill:#6e4f39;}.cls-25{fill:#c83c2a;}.cls-26{fill:#f7fbfa;}.cls-27{fill:#fbede3;}.cls-28{fill:#531401;}.cls-29,.cls-32{fill:#eac69f;}.cls-29{opacity:0.5;}.cls-30{fill:#1e6166;}.cls-31{fill:#230501;}</style></defs><title>icones-adm</title><g class="cls-1"><g id="Camada_1" data-name="Camada 1"><circle class="cls-2" cx="25" cy="25" r="25"/><ellipse class="cls-3" cx="25" cy="44.58" rx="9.37" ry="0.42"/><rect class="cls-4" x="21.31" y="41.43" width="2.94" height="0.7"/><rect class="cls-4" x="25.47" y="41.43" width="2.94" height="0.7"/><path class="cls-5" d="M22.37,44v.4h1.49v-.56a13.12,13.12,0,0,1-1.38.14Z"/><path class="cls-5" d="M21.2,43.35a.07.07,0,0,0,0-.1L21,43.08l-.11.08.18.18A.07.07,0,0,0,21.2,43.35Z"/><path class="cls-5" d="M21.41,43.14a.07.07,0,0,0,0-.1l-.14-.14-.11.09.15.15A.07.07,0,0,0,21.41,43.14Z"/><path class="cls-5" d="M21.61,42.94a.07.07,0,0,0,0-.1l-.12-.12-.11.09.13.13A.07.07,0,0,0,21.61,42.94Z"/><path class="cls-6" d="M23.79,42.39v-.26H21.88v.29l-.38.31.12.12a.07.07,0,1,1-.1.1l-.13-.13-.12.09.14.14a.07.07,0,1,1-.1.1L21.16,43l-.12.09.17.17a.07.07,0,0,1-.1.1l-.18-.18-.26.19c-.47.32-1.83.15-2.41.37s-.48.88-.28.9a23.89,23.89,0,0,0,3.13-.12A7.83,7.83,0,0,1,22.37,44l.11,0a13.12,13.12,0,0,0,1.38-.14h0A9.58,9.58,0,0,0,23.79,42.39Z"/><path class="cls-5" d="M27.3,44v.4H25.81v-.56a13.11,13.11,0,0,0,1.38.14Z"/><path class="cls-5" d="M28.47,43.35a.07.07,0,0,1,0-.1l.17-.17.11.08-.18.18A.07.07,0,0,1,28.47,43.35Z"/><path class="cls-5" d="M28.27,43.14a.07.07,0,0,1,0-.1l.14-.14.11.09-.15.15A.07.07,0,0,1,28.27,43.14Z"/><path class="cls-5" d="M28.06,42.94a.07.07,0,0,1,0-.1l.12-.12.11.09-.13.13A.07.07,0,0,1,28.06,42.94Z"/><path class="cls-6" d="M25.89,42.39v-.26H27.8v.29l.38.31-.12.12a.07.07,0,1,0,.1.1l.13-.13.12.09-.14.14a.07.07,0,1,0,.1.1l.15-.15.12.09-.17.17a.07.07,0,0,0,.1.1l.18-.18.26.19c.47.32,1.83.15,2.41.37s.48.88.28.9a23.89,23.89,0,0,1-3.13-.12A7.84,7.84,0,0,0,27.3,44l-.11,0a13.11,13.11,0,0,1-1.38-.14h0A9.58,9.58,0,0,1,25.89,42.39Z"/><path class="cls-7" d="M30.43,31.4h0c0-2.25-2.49-4.07-5.55-4.07s-5.55,1.82-5.55,4.07a3.06,3.06,0,0,0,.17,1c.31,1.64.82,3.83,1.08,4.85.31,1.25,1,4.18,1,4.18h2.48L23.88,34a7.49,7.49,0,0,0,2,0l-.17,7.48h2.48s.68-2.92,1-4.18c.26-1,.77-3.21,1.08-4.85A3.06,3.06,0,0,0,30.43,31.4Z"/><path class="cls-6" d="M29.46,34.87a1.7,1.7,0,0,1-1.7-1.7.06.06,0,0,1,.12,0,1.58,1.58,0,0,0,1.58,1.58.06.06,0,0,1,0,.12Z"/><path class="cls-6" d="M20.39,34.87a.06.06,0,1,1,0-.12A1.58,1.58,0,0,0,22,33.16a.06.06,0,0,1,.12,0A1.7,1.7,0,0,1,20.39,34.87Z"/><path class="cls-8" d="M24.94,21v4.63L22.4,20.31A7.25,7.25,0,0,0,24.94,21Z"/><path class="cls-8" d="M24.94,21v4.63l2.18-5.22A5.51,5.51,0,0,1,24.94,21Z"/><polygon class="cls-9" points="26.8 20.53 25.84 21.69 23.92 21.69 22.95 20.53 26.8 20.53"/><polygon class="cls-10" points="25.85 21.69 25.36 27.6 24.39 27.6 23.91 21.69 25.85 21.69"/><path class="cls-11" d="M20.72,19.09l.34,2,2.62,1.55.49-1.74a8.26,8.26,0,0,1-1.59-.53A4.75,4.75,0,0,1,20.72,19.09Z"/><path class="cls-4" d="M12.85,27.5l-.16-.17Z"/><path class="cls-4" d="M14.2,28.7,14,28.52Z"/><path class="cls-4" d="M14.43,28.88l-.19-.14Z"/><path class="cls-4" d="M14.68,29.06l-.17-.13Z"/><path class="cls-4" d="M13.47,28.1l-.2-.18Z"/><path class="cls-4" d="M16,30l-.23-.15Z"/><path class="cls-4" d="M13.68,28.28l-.16-.14Z"/><path class="cls-4" d="M13.23,27.89l-.16-.15Z"/><path class="cls-4" d="M13.92,28.48l-.17-.14Z"/><path class="cls-4" d="M13,27.68l-.12-.13Z"/><path class="cls-4" d="M15.46,29.61l-.18-.12Z"/><path class="cls-4" d="M15.22,29.45l-.47-.34Z"/><path class="cls-4" d="M15.74,29.79l-.21-.14Z"/><path class="cls-4" d="M16.42,30.24l-.17-.11Z"/><path class="cls-4" d="M16.2,30.1,16,30Z"/><path class="cls-12" d="M15.75,29.81h0Z"/><path class="cls-12" d="M15.53,29.66l-.06,0Z"/><path class="cls-12" d="M13.75,28.34l-.07-.06Z"/><path class="cls-12" d="M13.52,28.15l-.06,0Z"/><path class="cls-12" d="M14.24,28.74l0,0Z"/><path class="cls-12" d="M14.51,28.93l-.07-.05Z"/><path class="cls-12" d="M15.29,29.49l-.07,0Z"/><path class="cls-12" d="M14,28.52l-.06,0Z"/><path class="cls-12" d="M14.75,29.11l-.07,0Z"/><path class="cls-12" d="M16.44,30.25h0Z"/><path class="cls-12" d="M13.27,27.92l0,0Z"/><path class="cls-12" d="M16,30l0,0Z"/><path class="cls-12" d="M16.25,30.13l-.05,0Z"/><path class="cls-12" d="M13.08,27.74,13,27.68Z"/><path class="cls-12" d="M12.9,27.55l-.05-.05Z"/><path class="cls-4" d="M13.45,27.82c-1.32-1.56-1.31-2.48.33-4.32s3.74-3.95,6.71-4.73a3.29,3.29,0,0,1-.3-.6c-3.2.66-5.57,3-7.16,4.84s-1.64,2.76-.33,4.32l.16.17.05.05.12.13.06.06.16.15,0,0,.2.18.06,0,.16.14.07.06.17.14.06,0,.23.18,0,0,.19.14.07.05.17.13.07,0,.47.34.07,0,.18.12.06,0,.21.14h0L16,30l0,0,.17.11.05,0,.17.11h0A15.77,15.77,0,0,1,13.45,27.82Z"/><path class="cls-12" d="M13.45,27.82c-1.32-1.56-1.31-2.48.33-4.32s3.74-3.95,6.71-4.73a3.29,3.29,0,0,1-.3-.6c-3.2.66-5.57,3-7.16,4.84s-1.64,2.76-.33,4.32l.16.17.05.05.12.13.06.06.16.15,0,0,.2.18.06,0,.16.14.07.06.17.14.06,0,.23.18,0,0,.19.14.07.05.17.13.07,0,.47.34.07,0,.18.12.06,0,.21.14h0L16,30l0,0,.17.11.05,0,.17.11h0A15.77,15.77,0,0,1,13.45,27.82Z"/><polygon class="cls-4" points="20.13 21.5 20.07 21.84 21.56 22.68 21.58 22.32 20.13 21.5"/><polygon class="cls-13" points="20.13 21.5 20.07 21.84 21.56 22.68 21.58 22.32 20.13 21.5"/><path class="cls-4" d="M24.71,25.53l-3.24-1.32h0l.11-1.53-1.49-.84.06-.34,0,0,.49-2.58-.08-.12c-3,.78-5.19,3-6.71,4.73s-1.64,2.76-.33,4.32a15.77,15.77,0,0,0,3,2.44c.61.38,1,.63,1,.63l.19-3.55a16.26,16.26,0,0,1-2.62-1c-1.2-.8-1.23-1.14.4-2.4A11.62,11.62,0,0,1,19,22.24l.05,10a15.24,15.24,0,0,0,5.86.56V25.62Z"/><polygon class="cls-13" points="21.44 24.57 24.95 26.01 24.95 25.62 24.71 25.52 21.46 24.21 21.44 24.57"/><path class="cls-4" d="M22.4,20.31l-.25-.12a4.29,4.29,0,0,1-1.54-1.24l0-.06-.49,2.58,0,0,1.45.82,0,.36-.11,1.53h0l3.24,1.32.24.1Z"/><path class="cls-14" d="M17.64,27.71a2.94,2.94,0,0,0,.83.07c.15,0,.22-.1.64-.8s.47-.93.81-1.18a3.62,3.62,0,0,0,.71-.74,1.32,1.32,0,0,0,.34-.78c0-.3.25-.61.44-.31a1.45,1.45,0,0,1,.09,1.3,3.52,3.52,0,0,0-.7,1.33c0,.38.41.47.55.5s1.06-.11,1.36.11.48.41.47.61a.45.45,0,0,1-.2.36c-.06,0,.06.06.2.16a.53.53,0,0,1,.21.39.65.65,0,0,1-.36.49c-.25.11,0,0,.06.15a.43.43,0,0,1,0,.55,1.43,1.43,0,0,1-.64.26c-.09,0,0,.07.06.19a.43.43,0,0,1-.25.47,3.77,3.77,0,0,1-1.52.24,8.5,8.5,0,0,1-1.55-.28c-.39-.08-1.71-.45-1.71-.45Z"/><path class="cls-15" d="M20.8,26.58a3.52,3.52,0,0,1,.7-1.33,1.45,1.45,0,0,0-.09-1.3l0,0a.5.5,0,0,0-.05.23,2.17,2.17,0,0,1-.12,1.12c-.21.3-.63.62-.89.93s0,.48.21.57l.55.22A.45.45,0,0,1,20.8,26.58Z"/><path class="cls-15" d="M23,29.2a.65.65,0,0,0,.36-.49.26.26,0,0,0,0-.06.14.14,0,0,1-.12.14c-.2,0-1.25-.15-1.59-.09a.43.43,0,0,0-.16.08c0,.09-.11.19-.18.31s0,.27.1.37a1.8,1.8,0,0,0,.41-.11,3.56,3.56,0,0,1,1.07-.09Z"/><path class="cls-15" d="M23.1,29.9a.32.32,0,0,0,.09-.19.43.43,0,0,1-.28.1c-.29,0-1-.14-1.29.05a.76.76,0,0,0-.07.33.91.91,0,0,0,0,.13l.16-.06a1.75,1.75,0,0,1,.72-.11h0A1.43,1.43,0,0,0,23.1,29.9Z"/><path class="cls-15" d="M22.52,30.52a3.55,3.55,0,0,1-.76.14l-.13,0v0a1,1,0,0,1-.33.3,3.19,3.19,0,0,0,1-.23A.43.43,0,0,0,22.52,30.52Z"/><path class="cls-15" d="M23,28.18v0a.45.45,0,0,0,.2-.36.38.38,0,0,0,0-.17.39.39,0,0,1-.22.23,7.63,7.63,0,0,1-1,.1c-.26,0-.52.19-.42.23a3,3,0,0,0,.73,0C22.4,28.16,22.74,28.17,23,28.18Z"/><path class="cls-16" d="M18.18,27.79c-.2,0-.42-.07-.54-.08l-.14,2.62.19.05Z"/><path class="cls-12" d="M24.71,25.53l-.52-.21v7a15.64,15.64,0,0,1-5.1-.35v.28a15.24,15.24,0,0,0,5.86.56V25.62Z"/><path class="cls-17" d="M24.94,25.62,22.4,20.31l-.25-.12-.45-.26,2.49,5.2v.18l.52.21Z"/><g class="cls-18"><ellipse class="cls-4" cx="24.41" cy="27.83" rx="0.29" ry="0.28"/><ellipse class="cls-4" cx="24.41" cy="29.43" rx="0.29" ry="0.28"/><ellipse class="cls-4" cx="24.41" cy="31.03" rx="0.29" ry="0.28"/></g><ellipse class="cls-6" cx="24.29" cy="27.7" rx="0.29" ry="0.28"/><ellipse class="cls-6" cx="24.29" cy="29.3" rx="0.29" ry="0.28"/><ellipse class="cls-6" cx="24.29" cy="30.91" rx="0.29" ry="0.28"/><polygon class="cls-13" points="24.89 25.62 24.89 25.62 24.89 25.62 24.89 25.62"/><rect class="cls-19" x="24.93" y="25.62" width="0.03" height="7.21"/><path class="cls-11" d="M25.73,20.9l-.07,0,.36,1.7.23-.11.88-2.11A7,7,0,0,1,25.73,20.9Z"/><path class="cls-4" d="M37,22.92c-1.59-1.79-4.32-4.22-7.5-4.9a3.73,3.73,0,0,1-.39.85l.65,2.59-1.5.84.13,1.89-3.43,1.42v7.21a15.11,15.11,0,0,0,6-.64l.05-10a11.62,11.62,0,0,1,3.59,1.65c1.63,1.25,1.61,1.59.4,2.4a16.25,16.25,0,0,1-2.62,1l.19,3.55s.42-.24,1-.63h0l.17-.11.05,0L34,29.9l0,0,.23-.15h0l.21-.14.06,0,.18-.12.07,0,.47-.34.07,0,.17-.13.07-.05.19-.14,0,0,.23-.18.06,0,.17-.14.07-.06.16-.14.06,0,.2-.18,0,0,.16-.15L37,27.6l.12-.13.05-.05.15-.17C38.63,25.68,38.62,24.76,37,22.92Z"/><g class="cls-18"><path class="cls-4" d="M37,22.92a17.72,17.72,0,0,0-5.44-4.21,18.22,18.22,0,0,1,5.16,4.07c1.64,1.84,1.64,2.76.33,4.32l-.16.17-.05.05-.12.13-.06.06-.16.15,0,0-.2.18-.06,0-.16.13-.07.06-.17.14-.06,0-.23.18,0,0-.19.14-.07.05-.17.13-.07,0-.47.34-.07,0-.18.12-.06,0-.21.14h0l-.23.15,0,0-.17.11-.05,0-.17.11h0l-.76.47,0,.3s.42-.24,1-.63h0l.17-.11.05,0L34,29.9l0,0,.23-.15h0l.21-.14.06,0,.18-.12.07,0,.47-.34.07,0,.17-.13.07-.05.19-.14,0,0,.23-.18.06,0,.17-.14.07-.06.16-.14.06,0,.2-.18,0,0,.16-.15L37,27.6l.12-.13.05-.05.15-.17C38.63,25.68,38.62,24.76,37,22.92Z"/><path class="cls-4" d="M30.68,22l-.22,10.11a14.72,14.72,0,0,1-5.51.59v.11a15.11,15.11,0,0,0,6-.64l.05-10a13.26,13.26,0,0,1,2.08.76A13.19,13.19,0,0,0,30.68,22Z"/></g><path class="cls-4" d="M29.75,21.47l-.65-2.59a3.41,3.41,0,0,1-.22.31,3.27,3.27,0,0,1-1.06.88l-.7.34-2.18,5.22,3.43-1.42-.13-1.89Z"/><path class="cls-13" d="M29.21,18.69l-.11.19.65,2.59-1.5.84.13,1.89-3.43,1.42v.56l3.57-1.53-.14-2.07,1.56-.88Z"/><path class="cls-14" d="M32.37,27.73a2.92,2.92,0,0,1-.82.07c-.15,0-.22-.1-.64-.8s-.46-.93-.8-1.18a3.6,3.6,0,0,1-.71-.74A1.31,1.31,0,0,1,29,24.3c0-.3-.25-.6-.44-.31a1.45,1.45,0,0,0-.09,1.29,3.51,3.51,0,0,1,.7,1.33c0,.37-.41.47-.55.5s-1.05-.11-1.36.1-.48.41-.47.61a.45.45,0,0,0,.2.36c.06,0-.06.06-.2.16a.53.53,0,0,0-.21.39.65.65,0,0,0,.36.49c.25.11,0,0-.06.15a.43.43,0,0,0,0,.54,1.42,1.42,0,0,0,.63.26c.08,0,0,.07-.06.19a.43.43,0,0,0,.25.47,3.75,3.75,0,0,0,1.51.24,8.47,8.47,0,0,0,1.54-.28c.39-.08,1.71-.45,1.71-.45Z"/><path class="cls-15" d="M28.86,24.28a1.42,1.42,0,0,0,.31.89,4,4,0,0,0,.74.89c.36.31.39.56.8,1.38s.48.88.65.95a6.72,6.72,0,0,0,1,.13l0-.8a2.94,2.94,0,0,1-.82.07c-.15,0-.22-.1-.64-.8s-.46-.93-.8-1.18a3.6,3.6,0,0,1-.71-.74,1.31,1.31,0,0,1-.34-.78c0-.23-.15-.46-.3-.42A.57.57,0,0,1,28.86,24.28Z"/><path class="cls-15" d="M27,29.22a.65.65,0,0,1-.36-.49.27.27,0,0,1,0-.06.14.14,0,0,0,.12.14c.2,0,1.25-.15,1.59-.08a.43.43,0,0,1,.16.08c0,.09.11.19.18.31s0,.27-.1.36a1.8,1.8,0,0,1-.4-.11,3.55,3.55,0,0,0-1.07-.09Z"/><path class="cls-15" d="M26.92,29.92a.32.32,0,0,1-.09-.19.43.43,0,0,0,.28.1c.29,0,1-.14,1.28.05a.76.76,0,0,1,.07.33.88.88,0,0,1,0,.13l-.16-.06a1.74,1.74,0,0,0-.72-.11h0A1.42,1.42,0,0,1,26.92,29.92Z"/><path class="cls-15" d="M27.5,30.54a3.54,3.54,0,0,0,.76.14l.13,0v0a1,1,0,0,0,.33.3,3.18,3.18,0,0,1-1-.23A.43.43,0,0,1,27.5,30.54Z"/><path class="cls-15" d="M27,28.2v0a.45.45,0,0,1-.2-.36.38.38,0,0,1,0-.17.39.39,0,0,0,.22.23,7.59,7.59,0,0,0,1,.1c.26,0,.52.19.42.22a3,3,0,0,1-.72,0C27.62,28.18,27.28,28.2,27,28.2Z"/><ellipse class="cls-20" cx="20.05" cy="15.6" rx="1.03" ry="1.21"/><ellipse class="cls-20" cx="29.46" cy="15.6" rx="1.03" ry="1.21"/><path class="cls-21" d="M19.93,12.94c0-1-.38-3.16,1.92-3.16,1.36,0,4.42.34,5.61-.52C29.17,8,29,8.69,29.22,11.93c0,.41.26,2.54.37,3.44A25.12,25.12,0,0,0,30,10.63q0-.58,0-1.14t-.05-.92C29.53,7,27.45,5.74,25,5.74h-.78c-2.5,0-4.58,1.22-5,2.83q0,.45-.05.92t0,1.14a17.94,17.94,0,0,0,.83,5C19.93,15.05,19.92,13.39,19.93,12.94Z"/><path class="cls-14" d="M29.62,15.65l0-.28c-.11-.9-.34-3-.37-3.44C29,8.69,29.17,8,27.47,9.25c-1.19.86-4.25.52-5.61.52-2.31,0-1.9,2.19-1.92,3.16,0,.46,0,3.15,0,3.74q0,.19,0,.38a3.48,3.48,0,0,0,.87,2.13,4.87,4.87,0,0,0,1.78,1.2c.36.15.68.28,1,.37a3.86,3.86,0,0,0,2.3.11,8.79,8.79,0,0,0,1.75-.71l.19-.1C29.18,19.35,29.93,17.78,29.62,15.65Z"/><path class="cls-22" d="M22.92,14.24c0,.45-.37.58-.82.58s-.82-.13-.82-.58a.82.82,0,1,1,1.64,0Z"/><ellipse class="cls-23" cx="22.37" cy="13.9" rx="0.24" ry="0.42" transform="translate(-3.28 19.89) rotate(-45)"/><path class="cls-22" d="M27.81,14.24c0,.45-.37.58-.82.58s-.82-.13-.82-.58a.82.82,0,1,1,1.64,0Z"/><ellipse class="cls-23" cx="27.27" cy="13.9" rx="0.24" ry="0.42" transform="translate(-1.85 23.35) rotate(-44.99)"/><polygon class="cls-24" points="23.54 12.61 20.44 12.42 20.44 12.23 23.54 12.23 23.54 12.61"/><polygon class="cls-24" points="28.4 11.29 25.39 12.01 25.48 12.39 28.46 11.52 28.4 11.29"/><path class="cls-25" d="M22.45,18a3,3,0,0,0,2.09,1.35,2.65,2.65,0,0,0,2.17-1.18,1.68,1.68,0,0,0,.38-1.12c0-.22-.4.23-1.12.5a4.68,4.68,0,0,1-3,.26C22.38,17.66,22.27,17.75,22.45,18Z"/><path class="cls-26" d="M26,17.56a4.68,4.68,0,0,1-3,.26,1.56,1.56,0,0,0-.47-.08,3.17,3.17,0,0,0,2,.82A3.64,3.64,0,0,0,27,17.51a1.37,1.37,0,0,0,0-.45C27.08,16.84,26.7,17.29,26,17.56Z"/><path class="cls-27" d="M22.47,17.74a.39.39,0,0,0,.1.1h.11l.11,0h0l.13,0a4.13,4.13,0,0,0,1.69.11A6.34,6.34,0,0,0,26,17.66a4.18,4.18,0,0,0,.81-.42L27,17.1a.23.23,0,0,0,0-.09h0a.94.94,0,0,0-.29.15,4,4,0,0,1-.79.41,6.24,6.24,0,0,1-1.33.36A4,4,0,0,1,23,17.82l-.14,0h0l-.12,0h-.23Z"/><path class="cls-27" d="M27,17.3a1.58,1.58,0,0,1,0,.2,1.93,1.93,0,0,1-.31.64,2.56,2.56,0,0,1-1.72,1.13h0l-.36,0a2.85,2.85,0,0,1-1.94-1.25,1.8,1.8,0,0,1-.23-.17.53.53,0,0,0,.08.14,3.06,3.06,0,0,0,2.09,1.38l.38,0h0a2.66,2.66,0,0,0,1.79-1.17,2,2,0,0,0,.33-.68h0a1.47,1.47,0,0,0,0-.4A1.54,1.54,0,0,1,27,17.3Z"/><path class="cls-28" d="M30.78,5.24c-6.12-1-11.59,1.43-11.54,3.12,0,.07,0,.14-.06.21q0,.45-.05.92t0,1.14a17.94,17.94,0,0,0,.83,5c0-.6,0-2.26,0-2.72,0-1-.38-3.16,1.92-3.16l.72,0,.69,0c.18,0,.86,0,1.71,0a4.88,4.88,0,0,0,2.49-.58c.92-.67,1.29-.77,1.47-.21a2,2,0,0,0,.25-.18c.21-.18.43-.38.66-.6C31.07,7.08,32.29,5.5,30.78,5.24Z"/><path class="cls-29" d="M29.1,10.12c-.12-1.64-.31-1.83-1.63-.88s-4.25.52-5.61.52c-2.31,0-1.9,2.19-1.92,3.16V13c.06-1.06.12-2.8,2.36-2.6l.79.09.76.09c.19,0,.93.12,1.87.18a5.8,5.8,0,0,0,2.78-.33C28.72,10.3,28.92,10.2,29.1,10.12Z"/><path class="cls-30" d="M28.41,12.72a14.61,14.61,0,0,0-2.13.21,11.4,11.4,0,0,0-1.19.31,1.32,1.32,0,0,1-.86,0A11.42,11.42,0,0,0,23,12.93a14.61,14.61,0,0,0-2.13-.21,16.06,16.06,0,0,0-1.89.13v.67h.2c.2,0,.43,1.1.65,1.66a1.09,1.09,0,0,0,1.08.58c.21,0,1.26,0,1.86,0s1.31-1.43,1.48-1.76A.43.43,0,0,1,25,14c.17.34.88,1.74,1.48,1.76s1.65,0,1.86,0a1.09,1.09,0,0,0,1.08-.58c.22-.56.46-1.66.65-1.66h.2v-.67A16.07,16.07,0,0,0,28.41,12.72Zm-5,2.12a1.25,1.25,0,0,1-1.25.77c-.83,0-1.31.06-1.76-.23s-.54-1.38-.54-1.62.11-.81,1.63-.81c.31,0,1.78,0,2.15.48S23.66,14.5,23.44,14.84Zm6-1.08c0,.23-.09,1.32-.54,1.62s-.93.23-1.76.23a1.25,1.25,0,0,1-1.25-.77c-.22-.34-.6-.93-.23-1.4S27.48,13,27.79,13C29.32,12.95,29.43,13.52,29.42,13.76Z"/><path class="cls-30" d="M27.2,15.84h-.7c-.41,0-.92-.61-1.52-1.77v0a.32.32,0,0,0-.29-.17h0a.32.32,0,0,0-.29.17v0c-.59,1.16-1.1,1.76-1.52,1.77H21a1.1,1.1,0,0,1-1.13-.62c-.08-.19-.16-.45-.23-.7a2.94,2.94,0,0,0-.37-.92H19v-.06H19V12.8H19l.17,0a14.06,14.06,0,0,1,1.72-.12,14.69,14.69,0,0,1,2.14.22,11.53,11.53,0,0,1,1.2.32,1.26,1.26,0,0,0,.82,0,11.53,11.53,0,0,1,1.2-.32,14.68,14.68,0,0,1,2.14-.22,13.94,13.94,0,0,1,1.72.12l.17,0h.06v.73h-.06l0,.06h-.18a3,3,0,0,0-.37.92c-.08.25-.15.51-.23.7a1.1,1.1,0,0,1-1.14.62H27.2Zm-2.53-2.1a.45.45,0,0,1,.4.24v0c.71,1.4,1.16,1.7,1.41,1.71h1.85a1,1,0,0,0,1-.54c.08-.19.15-.44.23-.69.2-.64.31-1,.48-1h.14v-.55h-.12a13.84,13.84,0,0,0-1.7-.11,14.55,14.55,0,0,0-2.12.21,11.23,11.23,0,0,0-1.18.31,1.39,1.39,0,0,1-.9,0A11.22,11.22,0,0,0,23,13a14.55,14.55,0,0,0-2.12-.21,13.71,13.71,0,0,0-1.7.11h-.12v.55h.14c.17,0,.28.37.48,1,.08.25.15.5.23.69a1,1,0,0,0,1,.54h1.85c.25,0,.7-.31,1.41-1.71v0a.45.45,0,0,1,.4-.24h0Zm3.08,1.93h-.65a1.24,1.24,0,0,1-1.23-.7l-.06-.09c-.22-.34-.63-1-.22-1.48s1.52-.5,2.2-.51h0a2.11,2.11,0,0,1,1.49.4.64.64,0,0,1,.19.47s0,1.32-.57,1.67A2,2,0,0,1,27.75,15.67Zm-.53-.13h.53a1.86,1.86,0,0,0,1.09-.23c.4-.26.51-1.22.51-1.57a.51.51,0,0,0-.15-.38,2,2,0,0,0-1.4-.36c-1.12,0-1.88.17-2.11.46-.35.44,0,1,.23,1.33l.06.09a1.12,1.12,0,0,0,1.12.65Zm-5.66.13a2,2,0,0,1-1.16-.25c-.53-.34-.57-1.65-.57-1.67a.64.64,0,0,1,.19-.47,2.1,2.1,0,0,1,1.49-.4h0c.67,0,1.85.07,2.2.51s0,1.14-.22,1.48l-.06.09a1.24,1.24,0,0,1-1.23.7h-.65ZM21.51,13a2,2,0,0,0-1.4.36.51.51,0,0,0-.15.38c0,.35.12,1.31.51,1.57a1.86,1.86,0,0,0,1.09.23h.65a1.12,1.12,0,0,0,1.12-.65l.06-.09c.22-.33.58-.89.23-1.33-.23-.29-1-.46-2.1-.46Z"/><path class="cls-31" d="M29.84,8.26s-.55.46-.9.78h0a5.24,5.24,0,0,1,.16,1.08h0a4,4,0,0,0,.9-.66c0-.3,0-.6-.05-.89A2.53,2.53,0,0,0,29.84,8.26Z"/><path class="cls-32" d="M24.38,15.34a.08.08,0,1,1,.11.12c-.32.29-.29.58-.16.75a.7.7,0,0,0,.94.08.08.08,0,1,1,.09.14.86.86,0,0,1-1.16-.12A.7.7,0,0,1,24.38,15.34Z"/></g></g></svg>