<svg id="Camada_1" data-name="Camada 1" xmlns="http://www.w3.org/2000/svg" viewBox="0 0 127 107"><defs><style>.cls-1{fill:#383838;}.cls-2{fill:#626262;}.cls-3{fill:#efefef;}.cls-4{fill:#464646;}.cls-5{fill:#333;}.cls-6{fill:#a0a0a0;}</style></defs><title>icone-estab-cinza</title><g id="_Grupo_" data-name="&lt;Grupo&gt;"><g id="_Grupo_2" data-name="&lt;Grupo&gt;"><rect id="_Caminho_" data-name="&lt;Caminho&gt;" class="cls-1" x="41.34" y="20.76" width="9.18" height="7.92"/><rect id="_Caminho_2" data-name="&lt;Caminho&gt;" class="cls-1" x="76.47" y="20.76" width="9.18" height="7.92"/></g><g id="_Grupo_3" data-name="&lt;Grupo&gt;"><path id="_Caminho_3" data-name="&lt;Caminho&gt;" class="cls-2" d="M98.34,8H28.66a24.9,24.9,0,0,0-24.9,24.9v4.31a6.54,6.54,0,0,0,6.54,6.54H24a6.54,6.54,0,0,0,6.54-6.54h0a13.8,13.8,0,0,1,13.8-13.8H82.63a13.8,13.8,0,0,1,13.8,13.8h0A6.54,6.54,0,0,0,103,43.77h13.72a6.54,6.54,0,0,0,6.54-6.54V32.92A24.9,24.9,0,0,0,98.34,8Z"/><path id="_Ret창ngulo_" data-name="&lt;Ret창ngulo&gt;" class="cls-3" d="M3.76,37.23H30.58a0,0,0,0,1,0,0v0A6.54,6.54,0,0,1,24,43.77H10.31a6.54,6.54,0,0,1-6.54-6.54v0a0,0,0,0,1,0,0Z"/><path id="_Ret창ngulo_2" data-name="&lt;Ret창ngulo&gt;" class="cls-3" d="M96.42,37.23h26.81a0,0,0,0,1,0,0v0a6.54,6.54,0,0,1-6.54,6.54H103a6.54,6.54,0,0,1-6.54-6.54v0A0,0,0,0,1,96.42,37.23Z"/></g><g id="_Grupo_4" data-name="&lt;Grupo&gt;"><path id="_Caminho_4" data-name="&lt;Caminho&gt;" class="cls-4" d="M31.14,33.31H3.76v3.92H30.58A13.79,13.79,0,0,1,31.14,33.31Z"/><path id="_Caminho_5" data-name="&lt;Caminho&gt;" class="cls-4" d="M95.86,33.31a13.79,13.79,0,0,1,.57,3.92h26.81V33.31Z"/></g><g id="_Grupo_5" data-name="&lt;Grupo&gt;"><path id="_Caminho_6" data-name="&lt;Caminho&gt;" class="cls-2" d="M111.15,81.44,95.63,32.74a7.63,7.63,0,0,0-6.74-4.06h-18a7.44,7.44,0,1,1-14.88,0h-18a7.63,7.63,0,0,0-6.74,4.06L15.78,81.44A13.83,13.83,0,0,0,29.11,99H97.83A13.83,13.83,0,0,0,111.15,81.44Z"/><path id="_Caminho_7" data-name="&lt;Caminho&gt;" class="cls-5" d="M16,89.55A13.82,13.82,0,0,0,29.11,99H97.83a13.82,13.82,0,0,0,13.11-9.43Z"/><path id="_Caminho_8" data-name="&lt;Caminho&gt;" class="cls-4" d="M16,89.55h94.94a13.66,13.66,0,0,0,.72-4.56H15.28A13.66,13.66,0,0,0,16,89.55Z"/><circle id="_Caminho_9" data-name="&lt;Caminho&gt;" class="cls-4" cx="63.5" cy="64.56" r="21.38"/><g id="_Grupo_6" data-name="&lt;Grupo&gt;"><circle id="_Caminho_10" data-name="&lt;Caminho&gt;" class="cls-3" cx="63.5" cy="61.3" r="21.38"/><circle id="_Caminho_11" data-name="&lt;Caminho&gt;" class="cls-2" cx="63.5" cy="61.3" r="11.33"/><g id="_Grupo_7" data-name="&lt;Grupo&gt;"><circle id="_Caminho_12" data-name="&lt;Caminho&gt;" class="cls-6" cx="63.5" cy="44.86" r="3.27"/><circle id="_Caminho_13" data-name="&lt;Caminho&gt;" class="cls-6" cx="55.28" cy="47.06" r="3.27" transform="translate(-16.12 33.94) rotate(-30)"/><circle id="_Caminho_14" data-name="&lt;Caminho&gt;" class="cls-6" cx="49.26" cy="53.08" r="3.27" transform="translate(-21.34 69.2) rotate(-60)"/><circle id="_Caminho_15" data-name="&lt;Caminho&gt;" class="cls-6" cx="47.06" cy="61.3" r="3.27"/><circle id="_Caminho_16" data-name="&lt;Caminho&gt;" class="cls-6" cx="49.26" cy="69.52" r="3.27" transform="translate(-28.16 33.94) rotate(-30)"/><circle id="_Caminho_17" data-name="&lt;Caminho&gt;" class="cls-6" cx="55.28" cy="75.54" r="3.27" transform="translate(-37.78 85.64) rotate(-60)"/><circle id="_Caminho_18" data-name="&lt;Caminho&gt;" class="cls-6" cx="63.5" cy="77.75" r="3.27"/><circle id="_Caminho_19" data-name="&lt;Caminho&gt;" class="cls-6" cx="71.72" cy="75.54" r="3.27" transform="translate(-28.16 45.98) rotate(-30)"/><circle id="_Caminho_20" data-name="&lt;Caminho&gt;" class="cls-6" cx="77.74" cy="69.52" r="3.27" transform="translate(-21.34 102.09) rotate(-60)"/><circle id="_Caminho_21" data-name="&lt;Caminho&gt;" class="cls-6" cx="79.94" cy="61.3" r="3.27"/><circle id="_Caminho_22" data-name="&lt;Caminho&gt;" class="cls-6" cx="77.74" cy="53.08" r="3.27" transform="translate(-16.12 45.98) rotate(-30)"/><circle id="_Caminho_23" data-name="&lt;Caminho&gt;" class="cls-6" cx="71.72" cy="47.06" r="3.27" transform="translate(-4.89 85.64) rotate(-60)"/></g></g><path id="_Caminho_24" data-name="&lt;Caminho&gt;" class="cls-4" d="M52.24,62.58a11.33,11.33,0,0,0,22.52,0Z"/><path id="_Caminho_25" data-name="&lt;Caminho&gt;" class="cls-4" d="M63.5,51.85A11.33,11.33,0,0,1,74.79,62.24c0-.31,0-.62,0-.93a11.33,11.33,0,1,0-22.66,0c0,.31,0,.63,0,.93A11.33,11.33,0,0,1,63.5,51.85Z"/></g></g></svg>