<svg id="Camada_1" data-name="Camada 1" xmlns="http://www.w3.org/2000/svg" viewBox="0 0 127 107"><defs><style>.cls-1{fill:#444;}.cls-2{fill:#292929;}.cls-2,.cls-3,.cls-6{fill-rule:evenodd;}.cls-3,.cls-7{fill:#ccc;}.cls-4{fill:#fff;}.cls-5{fill:#e2e2e2;}.cls-6{fill:#8a8a8a;}.cls-8{fill:#6b6b6b;}</style></defs><title>icone-estab-cinza</title><rect class="cls-1" x="31.94" y="15.52" width="63.12" height="87.98"/><polygon class="cls-2" points="34.09 18.12 92.91 18.12 94.13 102.37 34.09 101.31 34.09 18.12"/><polygon class="cls-3" points="51.99 18.12 75.44 18.12 75.23 20.65 51.77 20.65 51.99 18.12"/><rect class="cls-4" x="34.09" y="18.12" width="58.82" height="83.19"/><rect class="cls-5" x="39.64" y="26.73" width="12.3" height="16.53"/><path class="cls-6" d="M63.5,3.5h0a3.45,3.45,0,0,1,3.44,3.44V14h6.32a2,2,0,0,1,2,2v3.77H63.5V8.52a1.58,1.58,0,0,0,0-3.16ZM53.74,14h6.32V6.94A3.45,3.45,0,0,1,63.5,3.5V5.36a1.58,1.58,0,0,0,0,3.16V19.78H51.77V16A2,2,0,0,1,53.74,14Z"/><rect class="cls-7" x="39.64" y="75.39" width="47.71" height="2.2"/><rect class="cls-7" x="39.64" y="79.07" width="47.71" height="2.2"/><rect class="cls-7" x="39.64" y="82.75" width="47.71" height="2.2"/><rect class="cls-7" x="39.64" y="86.43" width="47.71" height="2.2"/><rect class="cls-7" x="39.64" y="90.1" width="47.71" height="2.2"/><rect class="cls-8" x="39.64" y="47.01" width="47.71" height="2.32"/><rect class="cls-7" x="39.64" y="50.95" width="47.71" height="2.2"/><rect class="cls-7" x="39.64" y="54.62" width="47.71" height="2.2"/><rect class="cls-7" x="39.64" y="58.3" width="47.71" height="2.2"/><rect class="cls-7" x="39.64" y="61.98" width="47.71" height="2.2"/><rect class="cls-7" x="39.64" y="65.66" width="47.71" height="2.2"/><rect class="cls-8" x="54.87" y="26.73" width="32.48" height="4.63"/><rect class="cls-7" x="54.87" y="33.71" width="32.48" height="2.2"/><rect class="cls-7" x="54.87" y="37.38" width="32.48" height="2.2"/><rect class="cls-7" x="54.87" y="41.06" width="32.48" height="2.2"/><rect class="cls-8" x="39.64" y="71.45" width="47.71" height="2.32"/></svg>