<svg id="Camada_1" data-name="Camada 1" xmlns="http://www.w3.org/2000/svg" xmlns:xlink="http://www.w3.org/1999/xlink" viewBox="0 0 50 50"><defs><style>.cls-1{fill:#bcb23f;}.cls-2{fill:#bf2201;}.cls-3{fill:#dba579;}.cls-4{fill:#cbcac8;}.cls-5{fill:#ddd;}.cls-6{fill:#9e9e9e;}.cls-7{fill:#77542f;}.cls-8{fill:#efa154;}.cls-9{fill:#f7ce80;}.cls-10{fill:#fcad65;}.cls-11{fill:#ffbb71;}.cls-12{fill:#ff9750;}.cls-13{fill:#d85555;}.cls-14{fill:#721919;}.cls-15{fill:#ffd0a9;}.cls-16{fill:#ffe5d2;}.cls-17{fill:#e26666;}.cls-18{fill:#230303;}.cls-19{fill:#ffc299;}.cls-20{fill:#d3d3d3;}.cls-21{fill:#eaeaea;}.cls-22{fill:#fff;}.cls-23{fill:#a0a0a0;}.cls-24{fill:#fcb77e;}.cls-25{fill:#ffcea9;}.cls-26{fill:#9b511b;}.cls-27{fill:#24630d;}.cls-28{fill:#327214;}.cls-29{fill:#21540b;}.cls-30{fill:#85d348;}.cls-31{fill:#194705;}.cls-32{fill:#ace298;}.cls-33{fill:#518e1b;}.cls-34{fill:#448c1e;}.cls-35{clip-path:url(#clip-path);}.cls-36{fill:#a89d35;}.cls-37{fill:#e5d96a;}.cls-38{fill:#f4e782;}.cls-39{fill:#fff7ae;}.cls-40{fill:#141e08;}.cls-41{fill:#8e852d;}.cls-42{clip-path:url(#clip-path-2);}.cls-43{fill:#ad1800;}.cls-44{fill:#dd2a12;}.cls-45{fill:#f22f20;}.cls-46{fill:#ff8b7b;}.cls-47{fill:#2c4711;}.cls-48{fill:#557a25;}.cls-49{fill:#931602;}.cls-50{fill:#b7b7b7;}.cls-51{fill:#335d8c;}.cls-52{fill:#19415e;}.cls-53{fill:#898989;}.cls-54{fill:#e5e5e5;}.cls-55{fill:#71a5d3;}.cls-56{fill:none;stroke:#383838;stroke-miterlimit:10;}.cls-57{fill:#d0d5d8;}.cls-58{fill:#edeeef;}.cls-59{fill:#a87c4c;}.cls-60{fill:#9e7246;}.cls-61{fill:#ffcd9f;}.cls-62{clip-path:url(#clip-path-3);}.cls-63{fill:#eaaf83;}.cls-64{fill:#bf9766;}.cls-65{fill:#ad8a5c;}</style><clipPath id="clip-path"><path class="cls-1" d="M26.23,16.61c-.11,0-.29-.19-.4-.16a1.77,1.77,0,0,0-1,1.24,30.92,30.92,0,0,1-1,3A2.21,2.21,0,0,0,24.71,23a2.1,2.1,0,0,0,1.63.67c.3,0,.35-.39.78-.33s1,.35,1.47-.12a2.85,2.85,0,0,0,1-2.22c-.14-1-1.63-1.71-1.83-2.17s-.14-1.81-1.21-2.3C26.48,16.5,26.39,16.64,26.23,16.61Z"/></clipPath><clipPath id="clip-path-2"><path class="cls-2" d="M22.31,19.74c-.35,0-1.1-1-2.11-1a2.69,2.69,0,0,0-2.48,2.88,4.34,4.34,0,0,0,2.18,3.61,1.76,1.76,0,0,0,1.26,0c.17,0,.36.39,1,.49s2.5-1.15,3.05-2.62a2.48,2.48,0,0,0-1.09-3.15A5.62,5.62,0,0,0,22.31,19.74Z"/></clipPath><clipPath id="clip-path-3"><path class="cls-3" d="M12.32,21.82l1.83,1.4L15.58,21a13.07,13.07,0,0,0,2.8,1.86s1.13-1.39,1.46-1.68a20.57,20.57,0,0,0,1.66,1.68A22.13,22.13,0,0,1,24,20.74a21.16,21.16,0,0,0,2.06,1.44s1.27-1.48,1.38-1.63c0,0,1.23,1.43,1.49,1.65,0,0,2.34-1.93,2.51-2,0,0,0,6.28-.15,7.67s-.55,5.65-.54,6,.89,7.93,1.86,9.61c0,0-19.27-1.18-22.09-1.56,0,0,.87-4.42,1.69-7.42C12.78,32.42,12.32,21.82,12.32,21.82Z"/></clipPath></defs><title>icones-adm</title><circle class="cls-4" cx="25" cy="25" r="25"/><path class="cls-5" d="M13.26,39.21s-4.4,2.28-5.63,3S29.91,44.85,33.7,45c1.26.05,8.13-5.79,8.7-6.36S20.08,38.17,13.26,39.21Z"/><path class="cls-6" d="M11.32,40.75A15.17,15.17,0,0,0,9.8,42.18c-.08.21,21.57,1.77,22.95,1.73,1.19-.46,7.47-4.93,7.47-4.93Z"/><polygon class="cls-7" points="12.32 21.82 13.99 22.75 15.11 21 16.18 22.87 14.25 24.05 12.32 21.82"/><path class="cls-7" d="M38.52,19.76,36,21.32l-1.33-1.8-2,4S35.61,24.61,38.52,19.76Z"/><path class="cls-8" d="M19.56,29.36c-2,.52-3.88-4-4.85-6.75S11,10.69,12.18,9.09s4.17,1.39,4.68,4.09a6.54,6.54,0,0,1,1.52,3.88,4.13,4.13,0,0,1,1.18,3.5,5.57,5.57,0,0,1,.76,3.54S22,28.73,19.56,29.36Z"/><path class="cls-9" d="M16.76,13.28a2.61,2.61,0,0,0-1.86-.38c-1,.21-1.64,1.6-1.64,1.6A5.18,5.18,0,0,1,16.76,13.28Z"/><path class="cls-9" d="M18.28,17.16a2.61,2.61,0,0,0-2-.38c-1.26.21-1.68,1.9-1.68,1.9A4.65,4.65,0,0,1,18.28,17.16Z"/><path class="cls-9" d="M19.46,20.66a2.48,2.48,0,0,0-3.63,1.26A6,6,0,0,1,19.46,20.66Z"/><path class="cls-9" d="M20.32,24.09s-2.15-.71-2.57,1.08A4.31,4.31,0,0,1,20.32,24.09Z"/><path class="cls-10" d="M13.26,13.32c-.5.65-1.09-3.14-.66-3.81s1.75-.17,2.41.74,1.47,2.14,1,2.26S14.31,11.93,13.26,13.32Z"/><path class="cls-10" d="M14.29,17.57c-.47.09-.7-2.67.32-3.33s1.89-.72,2.49,0,.83,1.88.54,1.92a11.3,11.3,0,0,0-1.8.24C15.25,16.59,14.85,17.46,14.29,17.57Z"/><path class="cls-10" d="M15.7,21.11c-.57.07-1.09-1-.69-2.08s2.65-2,3.41-1.39A1.9,1.9,0,0,1,19,19.78c-.28.39-1.51-.18-2,0S16.37,21,15.7,21.11Z"/><path class="cls-10" d="M17,24.44c-.42,0-1.19-2.64.62-3.21s2.14.34,2.19,1.14-.17,1.33-.67,1.17S17.86,24.4,17,24.44Z"/><path class="cls-10" d="M20.17,28.63c-.69.49-2.85-1.79-2.73-2.51A2.52,2.52,0,0,1,20,24.69C20.84,25,20.73,28.23,20.17,28.63Z"/><path class="cls-11" d="M14.61,12.13c-.84.08-.91-1-.32-1.08S15.76,12,14.61,12.13Z"/><path class="cls-11" d="M13.53,10.54c-.5.22.42,1.18.73.85A.58.58,0,0,0,13.53,10.54Z"/><path class="cls-11" d="M14.61,10.86c-.42,0-.34-.4,0-.32S15.06,10.85,14.61,10.86Z"/><path class="cls-11" d="M13.52,11.51a.12.12,0,0,0-.11,0,.14.14,0,0,0-.08.12.13.13,0,1,0,.27,0A.14.14,0,0,0,13.52,11.51Z"/><path class="cls-11" d="M16.23,14.57c-.08-.3-.52-.66-.81-.39a.43.43,0,0,0-.11.29.27.27,0,0,0,0,.17l-.06,0a.26.26,0,0,0,0,.31.17.17,0,0,0,.15.08h.08a.17.17,0,0,0,.12-.2h0a.49.49,0,0,0,.44,0A.25.25,0,0,0,16.23,14.57Z"/><path class="cls-11" d="M15.26,16.2Z"/><path class="cls-11" d="M15.76,15.71h0a.37.37,0,0,0,0-.13c-.05-.21-.29-.33-.47-.4a.4.4,0,0,0-.44.07.46.46,0,0,0-.16.21c-.09.22.1.49.27.62a.7.7,0,0,0,.24.14h.19a.42.42,0,0,0,.15,0A.38.38,0,0,0,15.76,15.71Z"/><path class="cls-11" d="M16.21,15.35h0a.16.16,0,0,0-.31,0,.21.21,0,0,0,.09.18.16.16,0,0,0,.18,0A.14.14,0,0,0,16.21,15.35Z"/><path class="cls-11" d="M18.27,18.34a.61.61,0,0,0-.27-.21c-.27-.33-.91-.44-1,.09a.74.74,0,0,0,0,.11l0-.05a.19.19,0,0,0-.23,0l0,0,0,0h0l0,0h0v0h0a.2.2,0,0,0,0,.07.15.15,0,0,0,0,.09l0,0a.19.19,0,0,0,.15.08.18.18,0,0,0,.16-.11.74.74,0,0,0,.38.44c.26.12.68.16.85-.13A.51.51,0,0,0,18.27,18.34Z"/><path class="cls-11" d="M16.77,19.31a.46.46,0,0,0-.22-.27.43.43,0,0,0-.24-.07l-.06,0a.33.33,0,0,0-.33.1.34.34,0,0,0-.09.34.51.51,0,0,0,.36.29.55.55,0,0,0,.43,0A.32.32,0,0,0,16.77,19.31Z"/><path class="cls-11" d="M18.24,21.8a.55.55,0,0,0-.47.28.36.36,0,0,0-.27-.24.39.39,0,0,0-.38.16l-.06.08a.68.68,0,0,0-.09.19l0,.09a.52.52,0,0,0,.07.55.63.63,0,0,0,.08.14.33.33,0,0,0,.5,0,.82.82,0,0,0,.15-.24c.17.38.66.18.85-.09A.55.55,0,0,0,18.24,21.8Z"/><path class="cls-11" d="M18.81,22.24a.12.12,0,0,0-.06.22.11.11,0,0,0,.12,0A.12.12,0,0,0,18.81,22.24Z"/><path class="cls-11" d="M19.84,25.68a.54.54,0,0,0,0-.11.77.77,0,0,0-.06-.18.72.72,0,0,0-.22-.27.6.6,0,0,0-.28-.21.53.53,0,0,0-.59.22.39.39,0,0,0,0,.41h0a.14.14,0,0,0,0,.27.15.15,0,0,0,.11,0h0a.12.12,0,0,0,0-.07,1.2,1.2,0,0,0,.33.23.83.83,0,0,0,.3.14A.31.31,0,0,0,19.84,25.68Z"/><path class="cls-12" d="M23,6.38,23.24,5a4,4,0,0,1,2.43.54l-.57,1.3Z"/><path class="cls-13" d="M23,6.06c-.54,0-.57.6,0,.85,0,0-.47,3.16-1,3.7s-1.93,1-2.72,2.38S16.57,24.4,16.39,25.22s5.89,3.45,6.62,1.36a85.05,85.05,0,0,0,2.31-12.21c-.09-1-1.17-2.78-1.26-3.38a18.69,18.69,0,0,1,.73-3.7c.6.13,1-.44.54-.76A5.92,5.92,0,0,0,23,6.06Z"/><path class="cls-14" d="M23.22,6.24c-.52,0-.55.36,0,.61,0,0-.3,3.46-.82,4s-2.05,1.05-2.82,2.36S17,24,16.83,24.82,22,28,22.71,25.94A78.51,78.51,0,0,0,25,14.5c-.09-1-1.2-2.88-1.3-3.46a20.35,20.35,0,0,1,.88-3.85c.58.12.87-.18.44-.49A3.59,3.59,0,0,0,23.22,6.24Z"/><path class="cls-15" d="M19.68,14a26.91,26.91,0,0,0,4.79.92s-1.05,6.22-1.24,7c-.17.38-4.57-.51-5-1.08C18.21,20.79,19.39,14.76,19.68,14Z"/><path class="cls-16" d="M19.79,14.25a25.06,25.06,0,0,0,4.46.85s-1,5.79-1.16,6.5c-.16.35-4.26-.47-4.67-1C18.42,20.6,19.52,15,19.79,14.25Z"/><path class="cls-17" d="M22.9,17.13h0a.52.52,0,0,0,.12-.21c.06-.18-.17-.45-.44-.49a.31.31,0,0,0-.16,0,.23.23,0,0,0-.21-.27c-.18,0-.35.15-.3.29h-.1a1.06,1.06,0,0,1,.38-.5c.24-.12.94.09.94.09l0-.16a2.35,2.35,0,0,0-.93,0c-.33.1-.46.66-.46.66h0a.84.84,0,0,0-.32-.22c-.18-.09-.5.1-.56.3a.47.47,0,0,0-.35-.27.31.31,0,0,0-.31.43.47.47,0,0,0,.36.23.48.48,0,0,0-.14.37.46.46,0,0,0,.21.29l0,0a.17.17,0,0,0-.13.21.24.24,0,0,0-.29.05.33.33,0,0,0,.07.42c-.14,0-.28.18-.26.3a.49.49,0,0,0,.3.32.32.32,0,0,0-.12.39.46.46,0,0,0,.23.2c-.07.11-.05.26.18.32a.23.23,0,0,0,.28-.32l.12,0c.12,0,.25-.18.24-.35a.21.21,0,0,0-.11-.16h0a.23.23,0,0,0,.31-.21.19.19,0,0,0,.15,0,.35.35,0,0,0,.23-.26.29.29,0,0,0,.37-.43.35.35,0,0,0-.13-.13H22a.39.39,0,0,0,.22-.19l0,.06c.1.19.53.41.67,0a.19.19,0,0,0,0-.13.3.3,0,0,0,.34-.25C23.31,17.38,23.12,17.16,22.9,17.13Zm-2,1.92h0Z"/><path class="cls-18" d="M23.22,6.85s1.2.33,1.43.36A4.23,4.23,0,0,0,23.22,6.85Z"/><path class="cls-13" d="M22.3,11.65A3.19,3.19,0,0,0,20,13.32c-.15.69,2.05,1,2.52.81S23.17,11.82,22.3,11.65Z"/><path class="cls-19" d="M23.22,5.92a5.81,5.81,0,0,1,.14-.76,4.17,4.17,0,0,1,1.55.16c.33.16-.13.82-.13.82A7.7,7.7,0,0,0,23.22,5.92Z"/><path class="cls-20" d="M26.48,24.69s5.29-8.58,6.16-9.21a6.06,6.06,0,0,1,2.76-.61,12,12,0,0,0,1.91-2.3s-.37-.46-.1-.73.65-.42,2,.4,1.84,1.39,1.54,1.85-1.08.11-1.08.11-1.48,2.16-1.55,2.37.67,1.69.52,2.53-5.58,9.25-5.9,9.68S26.9,28.5,26.48,24.69Z"/><path class="cls-21" d="M26.95,24.63s4.91-8.3,5.77-8.93,2.49-.47,2.74-.52a14.63,14.63,0,0,0,2.07-2.55.49.49,0,0,1-.13-.6c.14-.26.28-.5,1.61.31s1.86,1.13,1.56,1.58-1.15.06-1.15.06-1.64,2.27-1.72,2.48.68,1.76.53,2.6-5.39,9.06-5.72,9.49S27.38,28.45,26.95,24.63Z"/><path class="cls-22" d="M32.39,16.22s-5.12,7.69-5.45,8.42,1.24,2.31,2,2.82a7.54,7.54,0,0,0,3.44.84c.43-.13,5.35-8.31,5.57-8.86A1.24,1.24,0,0,0,37.65,18a9.31,9.31,0,0,0-1.42-.37c-.27-.1-.08-.83-.55-1s-.87.34-1.17.23-.18-.41-.73-.73A1.28,1.28,0,0,0,32.39,16.22Z"/><path class="cls-23" d="M37.52,12.8a4.84,4.84,0,0,0,1.9,1.39S37.85,13.76,37.52,12.8Z"/><path class="cls-24" d="M37.91,11.86s.47-1.06.56-1.17a12,12,0,0,1,2.93,1.78,9,9,0,0,1-.87,1.11S38.4,12.93,37.91,11.86Z"/><path class="cls-22" d="M39.19,13.62c-.07-.15-.19-.21-.32-.29a3.82,3.82,0,0,1-.5-.39c-.26-.24-.44-.58-.71-.8-.07-.06-.15,0-.14.1a1.89,1.89,0,0,0,.69,1c.23.21.59.58.93.54A.09.09,0,0,0,39.19,13.62Z"/><path class="cls-22" d="M33.79,15.47c.82-.08,1.57.19,2.16-.44.36-.38,1.08-1.6,1.31-1.59s.47.32.4.48-1.3,1.8-1.39,1.95a2.88,2.88,0,0,1-1.7.33C34.31,16,34,15.67,33.79,15.47Z"/><path class="cls-25" d="M38.07,11.86,38.5,11s1.26.6,1.85,1-.18,1.13-.18,1.13A4.46,4.46,0,0,1,38.07,11.86Z"/><path class="cls-26" d="M37.91,11.86s.27.9,2.62,1.72a6.26,6.26,0,0,1-1.76-.71A2,2,0,0,1,37.91,11.86Z"/><path class="cls-27" d="M29.82,11.17a1.15,1.15,0,0,0-1.15.24c-.3.24-1.11,2.35-1.67,3.39a19.65,19.65,0,0,0-1.92,6c-.07,1.69.25,3.23.62,3.58a3.21,3.21,0,0,0,1.48.73c.44.06,1.84-.07,2-.74s0-5,.29-6.09,2.06-5.45,1.92-5.85A2.13,2.13,0,0,0,29.82,11.17Z"/><path class="cls-28" d="M30,12c-.58-.24-1,.1-1.76,1.48a30.62,30.62,0,0,0-2.06,5.9,37,37,0,0,0,0,4.21,1.73,1.73,0,0,0,1.73.5c.31-.26.42-5.1.42-5.71A14.28,14.28,0,0,1,29.57,15C30,13.92,30.72,12.3,30,12Z"/><path class="cls-29" d="M27.6,24.59s.93-.24,1-.54.2-4.91.39-5.91A40.46,40.46,0,0,1,30.49,14c.14-.42.55-1.18.47-1.5l-.5-.78s.9.34,1,.64-1.92,5.49-2,6.21,0,5.66-.32,5.92a3.23,3.23,0,0,1-1.89.56C26.78,25,27.6,24.59,27.6,24.59Z"/><path class="cls-30" d="M30.12,10.43s-.58-.24-.7-.14a6.28,6.28,0,0,0-.5.95,7,7,0,0,0,.82.27,1,1,0,0,0,.3-.11,1.93,1.93,0,0,0,.29.3A5.34,5.34,0,0,0,31,12c.06,0,.14-.07.14-.07a.53.53,0,0,0,0,.25.47.47,0,0,0,.18.1,1.65,1.65,0,0,0,.16-.24,2.31,2.31,0,0,0,.13-.64,1,1,0,0,0-.24-.16.68.68,0,0,0,0-.25.46.46,0,0,0-.16-.08,1.3,1.3,0,0,0,0-.36,3.22,3.22,0,0,0-.76-.38C30.39,10.18,30.12,10.43,30.12,10.43Z"/><path class="cls-31" d="M30.49,12a1.81,1.81,0,0,1,.25.78,6.61,6.61,0,0,1-.44,1.13,4.86,4.86,0,0,0,.32-1.17A5.16,5.16,0,0,0,30.49,12Z"/><path class="cls-31" d="M29.75,11.64a1.89,1.89,0,0,0-.76.23,5.83,5.83,0,0,0-.61,1.1,7.05,7.05,0,0,1,.7-1A5.59,5.59,0,0,1,29.75,11.64Z"/><path class="cls-31" d="M29.75,15.25s-.66,1.67-.81,2.33S28.6,20,28.6,20a18.48,18.48,0,0,1,.19-2.48C28.94,17,29.75,15.25,29.75,15.25Z"/><path class="cls-31" d="M25.74,20.75a15.73,15.73,0,0,0,.33,3c.15.28,1,.61,1,.61a5.6,5.6,0,0,1-1-.49A10,10,0,0,1,25.74,20.75Z"/><path class="cls-31" d="M27.62,24.46a1.31,1.31,0,0,0,.68-.76,9.65,9.65,0,0,0,.16-2.09,7.41,7.41,0,0,1-.07,2.11C28.18,24.48,27.62,24.46,27.62,24.46Z"/><path class="cls-32" d="M27.32,24.77c-.53-.06-.9-.09-.85.07,0,0,.09.31.36.26,0,0,.22.26.66,0,0,0,.43.2.51-.1S27.64,24.81,27.32,24.77Z"/><path class="cls-33" d="M30.22,10.53s.19.15.19.29a1.51,1.51,0,0,1-.22.47l-.11-.17S30.2,10.63,30.22,10.53Z"/><path class="cls-33" d="M31.42,11.32a.58.58,0,0,1-.21.53c-.28.26-.06.08-.06.08Z"/><path class="cls-31" d="M31,12.21a.64.64,0,0,1,.16.44,5.36,5.36,0,0,1-.21.72A2.11,2.11,0,0,0,31,12.21Z"/><path class="cls-34" d="M29.81,12.21c-.57-.22-1.53,1.28-2.57,4.3-1.15,3.36-.91,4.16-.36,4.2s1-2.61,1.13-3.18C28.51,15.57,30.53,12.48,29.81,12.21Z"/><path class="cls-1" d="M26.23,16.61c-.11,0-.29-.19-.4-.16a1.77,1.77,0,0,0-1,1.24,30.92,30.92,0,0,1-1,3A2.21,2.21,0,0,0,24.71,23a2.1,2.1,0,0,0,1.63.67c.3,0,.35-.39.78-.33s1,.35,1.47-.12a2.85,2.85,0,0,0,1-2.22c-.14-1-1.63-1.71-1.83-2.17s-.14-1.81-1.21-2.3C26.48,16.5,26.39,16.64,26.23,16.61Z"/><g class="cls-35"><path class="cls-36" d="M25.75,16.48A2.26,2.26,0,0,0,25,17.82a8.43,8.43,0,0,0-.31,3.67c.29.69,1,1.32,1.44,1.31a2.87,2.87,0,0,1,1.34.15,1.35,1.35,0,0,0,1.73-.37,2.36,2.36,0,0,1-.78,1.07c-.54.36-1.2-.05-1.53.17s-1.19.41-2.38-.59-1.44-1.5-1.09-2.5a24.35,24.35,0,0,0,1.13-2.65C24.56,17.48,25.27,16.35,25.75,16.48Z"/></g><path class="cls-37" d="M27.27,17.27c-.19-.29-.4-.48-.55-.4s-.31.53-.89.11c-.33-.24-.72.75-.82,1.5s-.13,2.53.61,3.16,1.29.28,1.75.58a1.25,1.25,0,0,0,2-.64,1.91,1.91,0,0,0-.92-1.93c-.72-.43-.88-.79-.89-1.28A2.18,2.18,0,0,0,27.27,17.27Z"/><path class="cls-38" d="M26.9,17.16c-.25-.11-.77.13-1,.65a3.45,3.45,0,0,0,.53,2.52c.49,1,2.07,2,2.53,1.56A1.27,1.27,0,0,0,28.66,20c-.63-.41-.92-.52-1.15-.85S27.62,17.48,26.9,17.16Z"/><path class="cls-39" d="M27.2,17.76c-.21-.41-.5-.48-.78-.25a1.64,1.64,0,0,0,.32,1.82C27.23,19.58,27.45,18.25,27.2,17.76Z"/><path class="cls-39" d="M29,21a1,1,0,0,0-.69-1c-.42-.18-1,.29-1,.86S29,22.36,29,21Z"/><path class="cls-37" d="M26.7,16.71c0-.08-.07-.09-.15-.1s-.22.08-.37,0-.32-.15-.42-.07,0,.08,0,.07.31.13.43.17a.39.39,0,0,0,.2,0l.11,0h.13A0,0,0,0,0,26.7,16.71Z"/><path class="cls-38" d="M26.63,16.71c0-.11-.22-.1-.28-.06s0,.07,0,.08h.13s.08,0,.12,0A0,0,0,0,0,26.63,16.71Z"/><path class="cls-39" d="M26.62,16.66a.09.09,0,0,0-.08,0s-.08,0-.09,0,0,0,.06,0h.08A0,0,0,0,0,26.62,16.66Z"/><path class="cls-38" d="M26.6,16.67a.14.14,0,0,0-.12,0,.2.2,0,0,0-.14,0,0,0,0,0,0,0,0,.25.25,0,0,0,.11,0h.12A0,0,0,0,0,26.6,16.67Z"/><path class="cls-40" d="M26.15,16.9a1.58,1.58,0,0,0,.11-1.07,2.07,2.07,0,0,0-.61-1.07s-.31,0-.33.09a3.06,3.06,0,0,1,.74,1.06,2,2,0,0,1,0,1C26,17,26.1,17,26.15,16.9Z"/><path class="cls-41" d="M25.7,16.8a.49.49,0,0,1,.33.08.3.3,0,0,0,.41-.06s-.07.28-.28.24S26,16.87,25.7,16.8Z"/><path class="cls-2" d="M22.31,19.74c-.35,0-1.1-1-2.11-1a2.69,2.69,0,0,0-2.48,2.88,4.34,4.34,0,0,0,2.18,3.61,1.76,1.76,0,0,0,1.26,0c.17,0,.36.39,1,.49s2.5-1.15,3.05-2.62a2.48,2.48,0,0,0-1.09-3.15A5.62,5.62,0,0,0,22.31,19.74Z"/><g class="cls-42"><path class="cls-43" d="M24.11,19.89a2.67,2.67,0,0,1,.82,1.31,2.82,2.82,0,0,1-1.47,2.89c-2,1.25-3.81,1.32-5.46-.6a3.46,3.46,0,0,0,2.93,2.81c2.69.56,3.84-1.4,4.48-2.74S25.23,20,24.11,19.89Z"/></g><path class="cls-44" d="M20,24.63c-.48,0-1.33-.38-1.84-2a2.91,2.91,0,0,1,.54-3,1.46,1.46,0,0,1,1.64-.42c.73.31.79,1.08,1.57,1.5a2.22,2.22,0,0,0,1.9,0c.31-.12.89.45.48,1.71C23.77,24.07,21.42,24.73,20,24.63Z"/><path class="cls-45" d="M23.42,22.05a3.14,3.14,0,0,1-2.85,1.62,2.72,2.72,0,0,1-2.35-2.26c0-1,.52-2.13,1.41-2.05a2.31,2.31,0,0,1,1.62.94C22.28,21.71,23.89,20.65,23.42,22.05Z"/><path class="cls-46" d="M22,22c.47-.34.31-.68-.24-.93s-.83-.36-1-1a.87.87,0,0,0-1.21-.6c-.44.2-.83,1.1.27,2S21.78,22.15,22,22Z"/><path class="cls-46" d="M18.89,20c0-.06,0-.13.06-.19a.07.07,0,0,0-.07-.09.2.2,0,0,0-.13.09.28.28,0,0,0,0,.18A.1.1,0,0,0,18.89,20Z"/><path class="cls-44" d="M23.87,20c-.29-.29-.81-.2-1.18-.18-.57,0-.91-.37-1.33-.7a2.05,2.05,0,0,0-.84-.36c-.18,0-.56-.17-.68,0a0,0,0,0,0,0,0,2.33,2.33,0,0,1,1.71.77,1.49,1.49,0,0,0,1,.48,5.35,5.35,0,0,0,.55,0,5.21,5.21,0,0,1,.7.08C23.86,20.18,23.93,20.1,23.87,20Z"/><path class="cls-46" d="M21.65,19.47c-.05-.17-.26-.29-.41-.37a1.14,1.14,0,0,0-.56-.19,0,0,0,0,0,0,0,4.09,4.09,0,0,1,.5.26c.13.1.26.27.42.31A0,0,0,0,0,21.65,19.47Z"/><path class="cls-43" d="M22.21,20.54a1,1,0,0,1-.5-.36c-.18-.2-.22-.32-.2-.38s.26.07.39.2a.79.79,0,0,0,.63.27c.33,0,.77-.13.77,0S22.47,20.59,22.21,20.54Z"/><path class="cls-47" d="M22.16,20.45A3.09,3.09,0,0,0,21.65,18l.34-.32s.88,1.95.28,2.79C22.27,20.51,22.11,20.61,22.16,20.45Z"/><path class="cls-48" d="M22.27,18.87a1.67,1.67,0,0,0-.42-.86s-.05,0,0,0a3.54,3.54,0,0,1,.34.86,4,4,0,0,1,.09.45,4.11,4.11,0,0,0,0,.53,0,0,0,0,0,.06,0A1.52,1.52,0,0,0,22.27,18.87Z"/><path class="cls-49" d="M21.18,19.46a1.33,1.33,0,0,1,.52.53.77.77,0,0,0,.93.46c.39-.15.75-.31.91-.25l-.87.42c-.35.17-.8-.1-1.06-.52S21.34,19.52,21.18,19.46Z"/><path class="cls-50" d="M28.91,18.74s-.51,0-.6.24.23,1.35,2,2.5A6.4,6.4,0,0,0,34,22.75c.53,0,.51-.47.23-.69S28.91,18.74,28.91,18.74Z"/><path class="cls-51" d="M29.82,17.33s-.76,1.14-1.11,1.65,2.42,3.41,5.44,3.41a14.53,14.53,0,0,0,1.11-1.83S31.21,19.59,29.82,17.33Z"/><path class="cls-52" d="M29,19.81l1.19-1.93a31.57,31.57,0,0,0,4.52,2.61l-1,1.87A6.25,6.25,0,0,1,29,19.81Z"/><path class="cls-50" d="M35.67,20.46c-.29.45-1.83.05-3.49-.92S29.37,17.4,29.67,17c.49-.72,1.83-.05,3.49.92S36,19.91,35.67,20.46Z"/><path class="cls-53" d="M33.09,18c-1.42-.83-2.72-1.25-2.9-.93a.17.17,0,0,0,0,.08,5.82,5.82,0,0,1,2.78,1.09c1.31.77,2.29,1.58,2.31,1.89l.06-.06C35.51,19.75,34.51,18.82,33.09,18Z"/><path class="cls-54" d="M32.95,18.24a5.82,5.82,0,0,0-2.78-1.09c0,.37.94,1.23,2.25,2s2.53,1.18,2.85,1C35.24,19.82,34.26,19,32.95,18.24Z"/><path class="cls-50" d="M31.05,17.77c.26-.36,3.38,1.29,3.1,1.82C34,19.95,30.79,18.12,31.05,17.77Z"/><path class="cls-55" d="M31,21.21c-1.41-.94-1.9-2.12-1.67-2.47s1.57.21,2.54.89,2.14,1.45,1.82,2.07S31.71,21.66,31,21.21Z"/><path class="cls-54" d="M29.72,19.05a3.68,3.68,0,0,1,3,2l.81.06-.66.65-.22-.4S30,20.88,29.72,19.05Z"/><line class="cls-56" x1="30.49" y1="19.3" x2="30.44" y2="19.63"/><line class="cls-56" x1="30.23" y1="19.47" x2="30.62" y2="19.47"/><path class="cls-57" d="M34.36,20.11c-.43-.18-.87-.31-1.28-.51a10.67,10.67,0,0,1-1.26-.75c-.35-.24-.69-.49-1-.75a3.52,3.52,0,0,1-.81-1,.07.07,0,0,0-.13.05c.16.76,1.06,1.32,1.65,1.75a9.39,9.39,0,0,0,1.35.82,3.45,3.45,0,0,0,1.48.46S34.41,20.13,34.36,20.11Z"/><path class="cls-57" d="M30.31,16.76a.22.22,0,0,0-.23,0l-.11,0s-.05.06-.08.09A.06.06,0,0,0,30,17h.14c.07,0,.15,0,.2-.05A.09.09,0,0,0,30.31,16.76Z"/><path class="cls-57" d="M30.46,21.32a1.58,1.58,0,0,0-.44-.41,7.17,7.17,0,0,1-.6-.52,4,4,0,0,1-.9-1.24s-.09,0-.08,0a3.32,3.32,0,0,0,.76,1.29,5.75,5.75,0,0,0,.59.53,1.58,1.58,0,0,0,.62.38A0,0,0,0,0,30.46,21.32Z"/><path class="cls-58" d="M30.89,18.34c-.11-.16-.25-.29-.37-.44a1.72,1.72,0,0,0-.39-.39s0,0,0,0a1,1,0,0,0,.32.44,3.81,3.81,0,0,0,.45.38S30.9,18.35,30.89,18.34Z"/><path class="cls-58" d="M31.26,18.55l-.15-.08s-.09,0-.06.08l.11.11s.1.09.16.07a.06.06,0,0,0,0-.06C31.37,18.61,31.31,18.58,31.26,18.55Z"/><path class="cls-58" d="M29.42,20.53s0-.06-.07-.09l-.16-.15a1.55,1.55,0,0,1-.29-.35,0,0,0,0,0,0,0,1.12,1.12,0,0,0,.22.39c.07.08.2.25.32.23A0,0,0,0,0,29.42,20.53Z"/><path class="cls-58" d="M30.15,16.77l-.11,0a.06.06,0,0,0,0,.12c.06,0,.11,0,.15,0A.06.06,0,0,0,30.15,16.77Z"/><path class="cls-59" d="M31.45,20.17l1.8,1.93,1.81-1.47L36,22.36l2.53-2.61s-.17,6.49-.29,7.33-.51,4.13-.55,4.72a42.63,42.63,0,0,0,2,7.29s-5.94,3.54-7,4.34c0,0-1.46-2.36-2.67-9.36S31.45,20.17,31.45,20.17Z"/><path class="cls-60" d="M31.32,28.6a10.5,10.5,0,0,0,1.31,3.21,3.8,3.8,0,0,0,1.14.86s1.1.24-.25.66,1.84,1.12,2.5.92,1.23-2.18,1.2-2.43-2-.11-2.18-.37,1.17-1.15,1.85-2.45,1.62-8,1.62-8-.1,4.86-.26,6.08-.55,4.72-.55,4.72,1,4.34,2,7.29c0,0-6.45,3.92-7,4.34,0,0-1.73-3.42-1.86-9.61C30.65,28.81,31.32,28.6,31.32,28.6Z"/><polygon class="cls-61" points="38.52 19.76 37.63 23.95 36.74 28.18 33.99 23.45 33.01 21.74 36.54 22.45 33.54 22.45 32.96 22.45 32.93 22.41 31.45 20.17 33.59 21.8 32.98 21.76 33.59 18.82 34.53 14.34 37.13 19.53 38 21.28 34.36 20.78 38.52 19.76"/><path class="cls-60" d="M36.34,29a7.36,7.36,0,0,1-3.43,2A3.61,3.61,0,0,0,36.34,29Z"/><path class="cls-3" d="M12.32,21.82l1.83,1.4L15.58,21a13.07,13.07,0,0,0,2.8,1.86s1.13-1.39,1.46-1.68a20.57,20.57,0,0,0,1.66,1.68A22.13,22.13,0,0,1,24,20.74a21.16,21.16,0,0,0,2.06,1.44s1.27-1.48,1.38-1.63c0,0,1.23,1.43,1.49,1.65,0,0,2.34-1.93,2.51-2,0,0,0,6.28-.15,7.67s-.55,5.65-.54,6,.89,7.93,1.86,9.61c0,0-19.27-1.18-22.09-1.56,0,0,.87-4.42,1.69-7.42C12.78,32.42,12.32,21.82,12.32,21.82Z"/><g class="cls-62"><path class="cls-63" d="M12.32,21.82s1.4,8.09,3,10a8.52,8.52,0,0,0,3.89,2.53s-3.14.25-3.28.59,3.89,2.91,5.44,2.74S28.5,33.58,29,32.95s-7.46-.63-8.35-1.14,6.66-2.17,7.86-3.36,3-8.27,3-8.27S14.41,14.69,12.32,21.82Z"/></g><path class="cls-61" d="M12.32,21.82l2.14,1-.72.13V11.73l3.19,7.55c.22.53.5,1.08.77,1.61a14.44,14.44,0,0,0,.87,1.51h0l-.59.16c.14-.37.29-.73.45-1.1.08-.18.17-.37.26-.56a3.18,3.18,0,0,1,.39-.62h0l1-1.11.6,1.24c.34.7.72,1.45,1.1,2.06h0l-.67,0c.18-.62.38-1.22.61-1.84.12-.31.25-.62.41-.94a3,3,0,0,1,.84-1.1h0l2.35.1,0,.12c.25.92.56,1.88.93,2.88h0l-.63.11.62-2.19h0l2-.71.22.63.79,2.28h0l-.69-.05,2.82-1.64-2.19,2.41-.18.2-.51-.25h0l-2.18-1,2.21-.08h0L26.46,22.5l-.59.29,0-.19h0c-1,0-2.07.05-3.19,0l2.38.23h0c0-.2-.28-.18-.52-.18a7.39,7.39,0,0,0-.85.12c-.59.11-1.19.26-1.78.42l-.64.17,0-.13h0c-.42-.2-.78-.41-1.15-.62S19.33,22.21,19,22l1.61.13h0a1.09,1.09,0,0,0-.4.16l-.47.28c-.31.2-.63.41-.94.63l-.23.16h-.36a14.42,14.42,0,0,1-2-.22c-.65-.11-1.28-.22-1.94-.38l3.19-.54-2.84,1.31-.6.28-.13-.15Z"/><path class="cls-64" d="M19.84,34s3.27-.89,4.61-1.05a18.3,18.3,0,0,1,3.2,0s-2.72.59-3.85.76S19.84,34,19.84,34Z"/><path class="cls-65" d="M13,34a18.64,18.64,0,0,0,3.78,3,28.94,28.94,0,0,0,3.19,1.35,29.22,29.22,0,0,1-3.49-.89A28,28,0,0,1,13,34Z"/></svg>