<svg id="Camada_1" data-name="Camada 1" xmlns="http://www.w3.org/2000/svg" xmlns:xlink="http://www.w3.org/1999/xlink" viewBox="0 0 500 502"><defs><style>.cls-1{fill:#ffd01f;}.cls-2{fill:#67b2dc;}.cls-3{fill:#0f253b;}.cls-4{fill:#fff;}.cls-5{fill:#ff9800;}.cls-6,.cls-8{fill:#fdb600;}.cls-7{font-size:16.61px;letter-spacing:0.25em;}.cls-12,.cls-16,.cls-7{fill:#454c53;}.cls-16,.cls-7{font-family:Roboto-Regular, Roboto Regular;}.cls-8{font-size:49.55px;font-family:Roboto-Light, Roboto Light;letter-spacing:0.09em;}.cls-9{letter-spacing:0.09em;}.cls-10{clip-path:url(#clip-path);}.cls-11{fill:none;stroke:#6dbdc2;stroke-miterlimit:10;stroke-width:6px;}.cls-13{fill:#e79f03;}.cls-14{fill:#347a91;}.cls-15{fill:#6dbdc2;}.cls-16{font-size:15.8px;letter-spacing:0.25em;}</style><clipPath id="clip-path"><path id="_Caminho_de_recorte_" data-name="&lt;Caminho de recorte&gt;" class="cls-1" d="M364.91,184.64v-12A28.91,28.91,0,0,0,336,143.7H130.86a28.91,28.91,0,0,0-28.91,28.91v12Z"/></clipPath></defs><title>icone-</title><rect class="cls-2" y="1" width="500" height="500"/><path class="cls-3" d="M250,389.53c-101.39,0-191.67-23.26-250-63.43V501H500V326.1C441.67,366.32,351.39,389.53,250,389.53Z"/><path class="cls-4" d="M151.17,457.6c-10.08-18,6.78-42.78,28.2-29.28.3.18-.54.78-4.5,11.1-18.78-13.5-17.58,27.18,0,10.14.06,0,.24.06,6.6,8.22C172.95,470.56,156.81,467.68,151.17,457.6Z"/><path class="cls-4" d="M181.53,466c2-10,1.74-9.9,8.34-40.8l.12-.12H190c.84,0,10.5-.24,16.86.24,1.5,2.58,10.68,38,11.52,39.72,0,.12.06.3-14.28.12l-2.28-10.5h-6.36L193.77,466Zm19.62-19.86c-.06-2.28-1.44-8.4-1.56-10.08h-2.16l-1.56,10.2Z"/><path class="cls-4" d="M218.85,465.94c-.6-7.2-1.32-37.26-1-40.38,16.14,0,31.92-3.48,32.76,11.28V437c.72,5.28-3.9,12.6-10,14.16l7.5,14.64c.06.06,3.24-.6-13.44.06a80.77,80.77,0,0,0-4.32-9.3l.48,9.42ZM230,443.8c9.6,2.52,10.92-12.42-.48-10,.06,2.34-.12,7,.36,9.9A.21.21,0,0,0,230,443.8Z"/><path class="cls-4" d="M261.93,466.48c-.36-10.44-.66-20.94-1.2-31.44L252,435l-.72-11c7.26.12,22.56.36,31.2.48.36,3.72-.12,7.14-.3,10.8l-8.7.24c.06.12.84,28.26.9,31.68Z"/><path class="cls-4" d="M279,466c2-10,1.74-9.9,8.34-40.8l.12-.12h.06c.84,0,10.5-.24,16.86.24,1.5,2.58,10.68,38,11.52,39.72,0,.12.06.3-14.28.12l-2.28-10.5H293L291.21,466Zm24.42-46.56c-1.68,2.46-3.42,3.72-5.22,3.72a7.72,7.72,0,0,1-3.72-1.32,9.55,9.55,0,0,0-2.82-1.38c-.54,0-1.5.66-2.82,2a2,2,0,0,1-1.44.6,2.55,2.55,0,0,1-2.16-2.58,2.49,2.49,0,0,1,.78-1.86c2.16-2.1,4.08-3.18,5.82-3.18a6.18,6.18,0,0,1,3.3,1.32,7,7,0,0,0,2.58,1.26c.72,0,1.5-.54,2.34-1.68a1.84,1.84,0,0,1,1.62-1,2.42,2.42,0,0,1,2.28,2.52A2.73,2.73,0,0,1,303.39,419.45Zm-4.8,26.7c-.06-2.28-1.44-8.4-1.56-10.08h-2.16l-1.56,10.2Z"/><path class="cls-4" d="M335.43,425.87c21.6.36,22.38,40.14-.78,41C305.55,465.4,308.49,425.39,335.43,425.87ZM333,452.62c7.5,0,9.66-11.94,1.26-13.2-3.78,0-6.72,4.08-6.72,7.68A5.34,5.34,0,0,0,333,452.62Z"/><rect class="cls-5" x="135.09" y="90.59" width="262.97" height="166.89" rx="14.64" ry="14.64"/><rect class="cls-1" x="305.02" y="109.83" width="73.6" height="14.77"/><rect class="cls-6" x="160.69" y="109.83" width="144.33" height="14.77"/><path class="cls-6" d="M378.95,209.64a17.32,17.32,0,0,0-27.89,4.72,17.36,17.36,0,1,0,0,15.1,17.35,17.35,0,1,0,27.89-19.82Z"/><text class="cls-7" transform="translate(147.03 194.6)">0002 0003 0004 0005</text><text class="cls-8" transform="translate(241.99 171.72)">C<tspan class="cls-9" x="33.45" y="0">ARD</tspan></text><rect class="cls-1" x="101.94" y="143.7" width="262.97" height="166.89" rx="14.64" ry="14.64"/><path id="_Caminho_de_recorte_2" data-name="&lt;Caminho de recorte&gt;" class="cls-1" d="M364.91,184.64v-12A28.91,28.91,0,0,0,336,143.7H130.86a28.91,28.91,0,0,0-28.91,28.91v12Z"/><g class="cls-10"><line class="cls-11" x1="117.6" y1="194.19" x2="162.35" y2="134.15"/><line class="cls-11" x1="165.49" y1="194.19" x2="210.25" y2="134.15"/><line class="cls-11" x1="213.39" y1="194.19" x2="258.15" y2="134.15"/><line class="cls-11" x1="261.29" y1="194.19" x2="306.04" y2="134.15"/><line class="cls-11" x1="309.19" y1="194.19" x2="353.94" y2="134.15"/></g><rect class="cls-12" x="101.94" y="170.75" width="262.97" height="25.78"/><rect class="cls-4" x="114.68" y="212.28" width="165.63" height="29.55"/><rect class="cls-4" x="293.51" y="263.18" width="55.61" height="29.55" transform="translate(642.62 555.91) rotate(180)"/><rect class="cls-13" x="187.88" y="279.41" width="92.43" height="13.31" transform="translate(468.18 572.14) rotate(180)"/><rect class="cls-14" x="114.68" y="272.81" width="59.37" height="19.4"/><path class="cls-15" d="M344.66,216.3a15.18,15.18,0,0,0-24.45,4.14,15.22,15.22,0,1,0,0,13.24,15.21,15.21,0,1,0,24.45-17.38Z"/><text class="cls-16" transform="translate(114.68 261.84)">0002 0003 0004</text></svg>