<svg id="Camada_1" data-name="Camada 1" xmlns="http://www.w3.org/2000/svg" viewBox="0 0 127 107"><defs><style>.cls-1{fill:#172a5c;}.cls-2{fill:#e3280c;}.cls-3{fill:#3fa888;}.cls-4{fill:#1f2032;}</style></defs><title>icone-estab-</title><polygon class="cls-1" points="20.09 10.1 35.47 10.1 35.47 3.5 13.5 3.5 13.5 25.47 20.09 25.47 20.09 10.1"/><polygon class="cls-1" points="106.91 10.1 106.91 25.47 113.5 25.47 113.5 3.5 91.53 3.5 91.53 10.1 106.91 10.1"/><polygon class="cls-1" points="20.09 96.91 20.09 81.53 13.5 81.53 13.5 103.5 35.47 103.5 35.47 96.91 20.09 96.91"/><polygon class="cls-1" points="106.91 96.91 91.53 96.91 91.53 103.5 113.5 103.5 113.5 81.53 106.91 81.53 106.91 96.91"/><circle class="cls-2" cx="45.39" cy="35.03" r="13.73"/><polygon class="cls-3" points="51.63 55.26 55.19 60.85 57.93 56.61 51.1 42.05 42.91 56.49 46.55 61.87 51.63 55.26"/><polygon class="cls-3" points="84.66 44.09 88.72 55.77 92.28 41.54 97.93 44.84 86.56 15.13 75.5 39.9 79.58 49.67 84.66 44.09"/><polygon class="cls-4" points="97.93 44.84 92.28 41.54 88.72 55.77 84.66 44.09 79.58 49.67 75.5 39.9 63.12 67.67 57.93 56.61 55.19 60.85 51.63 55.26 46.55 61.87 42.91 56.49 26.51 85.39 113.44 85.39 97.93 44.84"/></svg>