<svg xmlns="http://www.w3.org/2000/svg" viewBox="0 0 50 50"><defs><style>.cls-1{isolation:isolate;}.cls-2{fill:#cbcac8;}.cls-3{fill:#2d2c26;}.cls-4{fill:#989c94;}.cls-5,.cls-6{fill:#63685e;}.cls-19,.cls-58,.cls-6{opacity:0.7;}.cls-7{fill:#21201a;}.cls-8{fill:#100f0b;}.cls-9{fill:#b34c29;}.cls-10,.cls-12{fill:#d4672c;}.cls-11{fill:#47443e;}.cls-12,.cls-43,.cls-51{opacity:0.4;}.cls-12{mix-blend-mode:screen;}.cls-13,.cls-43{fill:#2b4173;}.cls-14{fill:#4e80b7;}.cls-15{fill:#683e55;}.cls-16{fill:#8e602f;}.cls-17{fill:#be9157;}.cls-18{fill:#754c29;}.cls-18,.cls-24,.cls-68{opacity:0.5;}.cls-19,.cls-34,.cls-71{fill:#e6e7e8;}.cls-20{fill:#d5c827;}.cls-21{fill:#9b9138;}.cls-22{fill:#b26689;}.cls-23,.cls-24{fill:#914d6f;}.cls-25{fill:#fff;}.cls-26{fill:#bab9af;}.cls-27{fill:#f25a5a;}.cls-28{fill:#b24040;}.cls-29{fill:#36353d;}.cls-30{fill:#2d3235;}.cls-31{fill:#a7a9ac;}.cls-32{fill:#895029;}.cls-33{fill:#b0b5aa;}.cls-35{fill:#e36b15;}.cls-36{fill:#999b97;}.cls-37{fill:#47512d;}.cls-38{fill:#90b228;}.cls-39{fill:#5c7535;}.cls-40{fill:#516c84;}.cls-41{fill:#3b4c56;}.cls-42,.cls-44{fill:#a7aeb7;}.cls-43,.cls-44,.cls-53{mix-blend-mode:multiply;}.cls-45{fill:#3d3c44;}.cls-46,.cls-54{fill:#efc49b;}.cls-47,.cls-48,.cls-64{fill:#bc8a68;}.cls-48,.cls-74,.cls-75{opacity:0.3;}.cls-49{fill:#c6c5dd;stroke:#4e4c68;}.cls-49,.cls-52,.cls-55{stroke-linejoin:round;stroke-width:1.93px;}.cls-50,.cls-51{fill:#4e4c68;}.cls-52,.cls-53,.cls-57{fill:#632525;}.cls-52{stroke:#632525;}.cls-52,.cls-53,.cls-54,.cls-55,.cls-57,.cls-59,.cls-60,.cls-62,.cls-63,.cls-64,.cls-65,.cls-67,.cls-70,.cls-71,.cls-72,.cls-74{fill-rule:evenodd;}.cls-53{opacity:0.6;}.cls-55{fill:#39afe2;stroke:#13658e;}.cls-56{fill:#231212;}.cls-58,.cls-63,.cls-66{mix-blend-mode:darken;}.cls-59{fill:#c9976f;}.cls-60{fill:#279dd8;}.cls-61,.cls-63,.cls-66,.cls-70{fill:#13658e;}.cls-62{fill:#ad752a;}.cls-65,.cls-69{fill:#47595f;}.cls-65{stroke:#334144;stroke-miterlimit:10;stroke-width:1.93px;}.cls-67{fill:#060504;}.cls-68{fill:#474649;}.cls-72{fill:#bcbec0;}.cls-73,.cls-74,.cls-75{fill:#334144;}</style></defs><title>icones-adm</title><g class="cls-1"><g id="Camada_1" data-name="Camada 1"><circle class="cls-2" cx="25" cy="25" r="25"/><rect class="cls-3" x="30.75" y="8.32" width="3.76" height="7.2"/><rect class="cls-4" x="33.5" y="9.54" width="4.21" height="7.4"/><rect class="cls-3" x="20.14" y="18.03" width="20.69" height="7.26"/><rect class="cls-3" x="20.14" y="9.04" width="3.76" height="7.2"/><rect class="cls-5" x="37.43" y="9.54" width="0.61" height="7.4"/><polygon class="cls-6" points="37.23 13.85 37.23 12.25 37.01 12.25 37.01 12.14 37.06 12.14 37.06 10.54 36.07 10.54 33.72 10.54 32.79 10.54 28.95 10.54 28.95 12.14 29.11 12.14 29.11 12.25 29.11 13.57 29.11 13.85 29.11 13.97 28.56 13.97 28.56 15.56 28.89 15.56 28.89 15.68 28.89 16.92 28.89 17.28 32.74 17.28 37.01 17.28 37.01 15.68 36.67 15.68 36.67 15.56 36.67 15.31 36.67 13.97 36.66 13.97 36.66 13.85 37.23 13.85"/><rect class="cls-5" x="23.02" y="18.44" width="8.07" height="6.42"/><rect class="cls-3" x="27.81" y="26.22" width="8.59" height="6.75"/><rect class="cls-3" x="20.6" y="27.04" width="6.78" height="5.94"/><path class="cls-7" d="M28.47,35.13H24.91c-1.2,0-2.22.37-2.22,2.3h-2V34.38h7.74Z"/><circle class="cls-8" cx="31.83" cy="41.13" r="1.34"/><ellipse class="cls-8" cx="37.3" cy="41.13" rx="1.34" ry="1.34"/><circle class="cls-8" cx="22.78" cy="41.13" r="1.34"/><circle class="cls-8" cx="28.25" cy="41.13" r="1.34"/><rect class="cls-7" x="23.12" y="34.38" width="13.28" height="2.56"/><path class="cls-9" d="M19.95,41.58V36.26a1.13,1.13,0,0,1,1.13-1.13H38.79a1.13,1.13,0,0,1,1.13,1.13v5.32Z"/><path class="cls-10" d="M30.66,35.13H21.08a1.13,1.13,0,0,0-1.13,1.13v5.32h9.59V36.26A1.13,1.13,0,0,1,30.66,35.13Z"/><path class="cls-8" d="M21.15,39.39a.35.35,0,1,1-.69,0V39a.35.35,0,1,1,.69,0Z"/><path class="cls-8" d="M22.26,39.39a.35.35,0,1,1-.69,0V39a.35.35,0,1,1,.69,0Z"/><path class="cls-8" d="M23.38,39.39a.35.35,0,1,1-.69,0V39a.35.35,0,1,1,.69,0Z"/><path class="cls-8" d="M24.5,39.39a.35.35,0,1,1-.69,0V39a.35.35,0,1,1,.69,0Z"/><path class="cls-8" d="M25.61,39.39a.35.35,0,1,1-.69,0V39a.35.35,0,1,1,.69,0Z"/><path class="cls-8" d="M26.73,39.39a.35.35,0,1,1-.69,0V39a.35.35,0,1,1,.69,0Z"/><path class="cls-8" d="M27.84,39.39a.35.35,0,1,1-.69,0V39a.35.35,0,1,1,.69,0Z"/><path class="cls-8" d="M29,39.39a.35.35,0,1,1-.69,0V39A.35.35,0,1,1,29,39Z"/><rect class="cls-11" x="19.73" y="41.39" width="20.35" height="0.56"/><rect class="cls-8" x="29.24" y="41.39" width="10.84" height="0.56"/><path class="cls-12" d="M30.24,35.13H21.08a1.13,1.13,0,0,0-1.13,1.13v1.17h9.59V36.26a1.13,1.13,0,0,1,.71-1Z"/><path class="cls-7" d="M25,35.12h3.56c1.2,0,2.22.37,2.22,2.3h2V34.38H25Z"/><path class="cls-7" d="M31.54,35.13H35.1c1.2,0,2.22.37,2.22,2.3h2V34.38H31.54Z"/><rect class="cls-13" x="18.02" y="8.61" width="1" height="33.89"/><rect class="cls-14" x="40.82" y="8.61" width="0.94" height="33.89"/><rect class="cls-13" x="41.73" y="8.61" width="1" height="33.89"/><rect class="cls-14" x="17.06" y="8.61" width="1" height="33.89"/><rect class="cls-14" x="17.06" y="24.86" width="25.67" height="1.49"/><rect class="cls-13" x="31.95" y="24.86" width="10.78" height="1.49"/><rect class="cls-14" x="17.06" y="16.95" width="25.67" height="1.49"/><rect class="cls-13" x="31.95" y="16.95" width="10.78" height="1.49"/><polygon class="cls-15" points="37.84 27.36 37.8 27.36 34.35 27.36 34.35 32.87 37.8 32.87 37.84 32.87 42.02 32.87 42.02 27.36 37.84 27.36"/><rect class="cls-16" x="23.99" y="27.57" width="6.77" height="5.29"/><rect class="cls-17" x="18.46" y="27.57" width="5.77" height="5.29"/><rect class="cls-18" x="20.55" y="27.57" width="1.15" height="1.14"/><rect class="cls-19" x="28.88" y="31.52" width="1.47" height="0.93"/><rect class="cls-20" x="25.93" y="28.72" width="3.89" height="4.15"/><rect class="cls-21" x="29.83" y="28.72" width="3.89" height="4.15"/><rect class="cls-22" x="34.35" y="31.1" width="3.5" height="1.77"/><rect class="cls-23" x="37.8" y="31.1" width="4.22" height="1.77"/><rect class="cls-22" x="34.35" y="29.06" width="3.5" height="1.77"/><rect class="cls-23" x="37.8" y="29.06" width="4.22" height="1.77"/><rect class="cls-22" x="34.35" y="27.04" width="3.5" height="1.77"/><rect class="cls-23" x="37.8" y="27.04" width="4.22" height="1.77"/><rect class="cls-24" x="34.35" y="29.06" width="2.05" height="3.81"/><rect class="cls-25" x="26.62" y="29.63" width="2.35" height="0.97"/><rect class="cls-26" x="36.67" y="28.26" width="0.92" height="0.38"/><rect class="cls-26" x="36.67" y="30.22" width="0.92" height="0.38"/><rect class="cls-26" x="36.67" y="32.32" width="0.92" height="0.38"/><rect class="cls-27" x="23.45" y="19.73" width="1.34" height="5.13"/><rect class="cls-28" x="24.78" y="19.73" width="3.47" height="5.13"/><rect class="cls-25" x="23.89" y="21.04" width="0.4" height="2.29"/><rect class="cls-29" x="23.45" y="23.92" width="1.34" height="0.7"/><rect class="cls-30" x="24.78" y="23.92" width="3.11" height="0.7"/><rect class="cls-27" x="25.1" y="19.73" width="1.34" height="5.13"/><rect class="cls-28" x="26.43" y="19.73" width="3.47" height="5.13"/><polygon class="cls-27" points="19.34 17.19 18.3 17.26 17.66 11.06 18.71 10.98 19.34 17.19"/><rect class="cls-28" x="19.01" y="10.78" width="3.79" height="6.24" transform="translate(-1.31 2.2) rotate(-5.85)"/><rect class="cls-25" x="25.53" y="21.04" width="0.4" height="2.29"/><rect class="cls-29" x="25.1" y="23.92" width="1.34" height="0.7"/><rect class="cls-30" x="26.43" y="23.92" width="3.11" height="0.7"/><rect class="cls-31" x="19.57" y="11.4" width="2.91" height="1.49" transform="translate(-1.13 2.21) rotate(-5.85)"/><rect class="cls-4" x="22.31" y="18.44" width="0.71" height="6.42"/><rect class="cls-5" x="28.6" y="18.44" width="8.07" height="6.42"/><rect class="cls-4" x="27.89" y="18.44" width="0.71" height="6.42"/><rect class="cls-5" x="23.02" y="9.54" width="8.07" height="7.4"/><rect class="cls-32" x="23.79" y="11.17" width="4.11" height="2.27"/><rect class="cls-33" x="22.31" y="9.54" width="0.71" height="7.41"/><rect class="cls-16" x="32.78" y="19.54" width="4.35" height="5.29"/><rect class="cls-17" x="29.23" y="19.54" width="3.71" height="5.29"/><rect class="cls-34" x="30.07" y="22.98" width="1.36" height="0.86" transform="translate(3.8 51.1) rotate(-83.04)"/><rect class="cls-16" x="36.94" y="19.54" width="4.35" height="5.29"/><rect class="cls-17" x="33.39" y="19.54" width="3.71" height="5.29"/><rect class="cls-32" x="27.34" y="12.32" width="4.35" height="4.63"/><rect class="cls-35" x="23.79" y="12.32" width="3.71" height="4.63" transform="translate(-0.03 0.05) rotate(-0.11)"/><rect class="cls-32" x="27.34" y="7.5" width="4.35" height="4.69"/><rect class="cls-35" x="23.79" y="7.5" width="3.71" height="4.69"/><rect class="cls-36" x="27.5" y="8.46" width="4.22" height="2.17"/><rect class="cls-34" x="23.79" y="8.46" width="3.71" height="2.17"/><rect class="cls-30" x="24.62" y="9.04" width="2.13" height="0.19"/><rect class="cls-30" x="24.62" y="9.38" width="2.13" height="0.19"/><path class="cls-29" d="M26.14,8a.26.26,0,0,1-.28.24h-.54a.25.25,0,1,1,0-.49h.54A.26.26,0,0,1,26.14,8Z"/><rect class="cls-34" x="26.39" y="11.35" width="0.76" height="0.48" transform="translate(-2.08 7.26) rotate(-14.87)"/><rect class="cls-5" x="28.6" y="9.54" width="4.91" height="7.41"/><rect class="cls-36" x="27.5" y="13.28" width="0.49" height="2.17"/><rect class="cls-18" x="30.6" y="19.54" width="0.76" height="1.16"/><polygon class="cls-37" points="36.56 13.24 36.56 11.26 28.67 11.26 28.67 13.24 28.67 14.97 28.45 14.97 28.45 16.59 36.23 16.59 36.23 14.97 36.22 14.97 36.22 13.24 36.56 13.24"/><rect class="cls-38" x="28.45" y="15.35" width="7.43" height="1.6"/><rect class="cls-39" x="32.29" y="15.35" width="4.27" height="1.6"/><rect class="cls-34" x="31.69" y="16.41" width="0.51" height="0.36"/><path class="cls-31" d="M34.4,15.9a1.45,1.45,0,0,0,1.17-.55H33.22A1.45,1.45,0,0,0,34.4,15.9Z"/><rect class="cls-30" x="29.45" y="15.99" width="1.58" height="0.19"/><rect class="cls-38" x="28.12" y="13.64" width="7.2" height="1.6"/><rect class="cls-39" x="31.96" y="13.64" width="4.27" height="1.6"/><rect class="cls-34" x="31.36" y="14.7" width="0.51" height="0.36"/><path class="cls-31" d="M34.07,14.18a1.45,1.45,0,0,0,1.17-.55H32.89A1.45,1.45,0,0,0,34.07,14.18Z"/><rect class="cls-30" x="29.12" y="14.27" width="1.58" height="0.19"/><rect class="cls-38" x="28.84" y="11.92" width="7.45" height="1.6"/><rect class="cls-39" x="32.68" y="11.92" width="4.27" height="1.6"/><rect class="cls-34" x="31.92" y="12.98" width="0.51" height="0.36"/><path class="cls-31" d="M34.62,12.47a1.45,1.45,0,0,0,1.17-.55H33.45A1.45,1.45,0,0,0,34.62,12.47Z"/><rect class="cls-30" x="29.67" y="12.56" width="1.58" height="0.19"/><rect class="cls-38" x="28.51" y="10.21" width="7.89" height="1.6"/><rect class="cls-39" x="32.35" y="10.21" width="4.27" height="1.6"/><rect class="cls-34" x="31.75" y="11.27" width="0.51" height="0.36"/><path class="cls-31" d="M34.45,10.75a1.45,1.45,0,0,0,1.17-.55H33.28A1.45,1.45,0,0,0,34.45,10.75Z"/><rect class="cls-30" x="29.51" y="10.84" width="1.58" height="0.19"/><polygon class="cls-39" points="33.23 12.24 29.06 12.24 28.84 11.91 32.67 11.91 33.23 12.24"/><polygon class="cls-39" points="32.85 15.63 28.51 15.57 28.46 15.35 32.29 15.35 32.85 15.63"/><rect class="cls-33" x="27.89" y="9.54" width="0.71" height="7.41"/><rect class="cls-14" x="30.98" y="8.61" width="1" height="33.89"/><rect class="cls-13" x="31.95" y="8.61" width="1" height="33.89"/><rect class="cls-40" x="17.06" y="32.87" width="25.67" height="1.49"/><rect class="cls-41" x="31.95" y="32.87" width="10.78" height="1.49"/><rect class="cls-5" x="22.31" y="18.44" width="7.08" height="0.44"/><rect class="cls-42" x="17.06" y="17.35" width="25.67" height="0.68"/><rect class="cls-42" x="17.06" y="25.26" width="25.67" height="0.68"/><polygon class="cls-43" points="21.59 16.95 21.02 18.44 19.02 18.44 19.56 17.16 21.59 16.95"/><rect class="cls-42" x="17.06" y="33.17" width="25.67" height="0.68"/><rect class="cls-44" x="31.95" y="17.35" width="10.78" height="0.68"/><rect class="cls-44" x="31.95" y="25.26" width="10.78" height="0.68"/><rect class="cls-44" x="31.95" y="33.17" width="10.78" height="0.68"/><rect class="cls-30" x="17.33" y="17.54" width="0.3" height="0.3"/><rect class="cls-30" x="18.16" y="17.54" width="0.3" height="0.3"/><rect class="cls-30" x="18.99" y="17.54" width="0.3" height="0.3"/><rect class="cls-30" x="19.82" y="17.54" width="0.3" height="0.3"/><rect class="cls-30" x="20.65" y="17.54" width="0.3" height="0.3"/><rect class="cls-30" x="21.47" y="17.54" width="0.3" height="0.3"/><rect class="cls-30" x="22.3" y="17.54" width="0.3" height="0.3"/><rect class="cls-30" x="23.13" y="17.54" width="0.3" height="0.3"/><rect class="cls-30" x="23.96" y="17.54" width="0.3" height="0.3"/><rect class="cls-30" x="24.79" y="17.54" width="0.3" height="0.3"/><rect class="cls-30" x="25.62" y="17.54" width="0.3" height="0.3"/><rect class="cls-30" x="26.45" y="17.54" width="0.3" height="0.3"/><rect class="cls-30" x="27.28" y="17.54" width="0.3" height="0.3"/><rect class="cls-30" x="28.1" y="17.54" width="0.3" height="0.3"/><rect class="cls-30" x="28.93" y="17.54" width="0.3" height="0.3"/><rect class="cls-30" x="29.76" y="17.54" width="0.3" height="0.3"/><rect class="cls-30" x="30.59" y="17.54" width="0.3" height="0.3"/><rect class="cls-30" x="31.42" y="17.54" width="0.3" height="0.3"/><rect class="cls-30" x="32.25" y="17.54" width="0.3" height="0.3"/><rect class="cls-30" x="33.08" y="17.54" width="0.3" height="0.3"/><rect class="cls-30" x="33.91" y="17.54" width="0.3" height="0.3"/><rect class="cls-30" x="34.73" y="17.54" width="0.3" height="0.3"/><rect class="cls-30" x="35.56" y="17.54" width="0.3" height="0.3"/><rect class="cls-30" x="36.39" y="17.54" width="0.3" height="0.3"/><rect class="cls-30" x="37.22" y="17.54" width="0.3" height="0.3"/><rect class="cls-30" x="38.05" y="17.54" width="0.3" height="0.3"/><rect class="cls-30" x="38.88" y="17.54" width="0.3" height="0.3"/><rect class="cls-30" x="39.71" y="17.54" width="0.3" height="0.3"/><rect class="cls-30" x="40.54" y="17.54" width="0.3" height="0.3"/><rect class="cls-30" x="41.36" y="17.54" width="0.3" height="0.3"/><rect class="cls-30" x="42.19" y="17.54" width="0.3" height="0.3"/><rect class="cls-30" x="17.33" y="25.45" width="0.3" height="0.3"/><rect class="cls-30" x="18.16" y="25.45" width="0.3" height="0.3"/><rect class="cls-30" x="18.99" y="25.45" width="0.3" height="0.3"/><rect class="cls-30" x="19.82" y="25.45" width="0.3" height="0.3"/><rect class="cls-30" x="20.65" y="25.45" width="0.3" height="0.3"/><rect class="cls-30" x="21.47" y="25.45" width="0.3" height="0.3"/><rect class="cls-30" x="22.3" y="25.45" width="0.3" height="0.3"/><rect class="cls-30" x="23.13" y="25.45" width="0.3" height="0.3"/><rect class="cls-30" x="23.96" y="25.45" width="0.3" height="0.3"/><rect class="cls-30" x="24.79" y="25.45" width="0.3" height="0.3"/><rect class="cls-30" x="25.62" y="25.45" width="0.3" height="0.3"/><rect class="cls-30" x="26.45" y="25.45" width="0.3" height="0.3"/><rect class="cls-30" x="27.28" y="25.45" width="0.3" height="0.3"/><rect class="cls-30" x="28.1" y="25.45" width="0.3" height="0.3"/><rect class="cls-30" x="28.93" y="25.45" width="0.3" height="0.3"/><rect class="cls-30" x="29.76" y="25.45" width="0.3" height="0.3"/><rect class="cls-30" x="30.59" y="25.45" width="0.3" height="0.3"/><rect class="cls-30" x="31.42" y="25.45" width="0.3" height="0.3"/><rect class="cls-30" x="32.25" y="25.45" width="0.3" height="0.3"/><rect class="cls-30" x="33.08" y="25.45" width="0.3" height="0.3"/><rect class="cls-30" x="33.91" y="25.45" width="0.3" height="0.3"/><rect class="cls-30" x="34.73" y="25.45" width="0.3" height="0.3"/><rect class="cls-30" x="35.56" y="25.45" width="0.3" height="0.3"/><rect class="cls-30" x="36.39" y="25.45" width="0.3" height="0.3"/><rect class="cls-30" x="37.22" y="25.45" width="0.3" height="0.3"/><rect class="cls-30" x="38.05" y="25.45" width="0.3" height="0.3"/><rect class="cls-30" x="38.88" y="25.45" width="0.3" height="0.3"/><rect class="cls-30" x="39.71" y="25.45" width="0.3" height="0.3"/><rect class="cls-30" x="40.54" y="25.45" width="0.3" height="0.3"/><rect class="cls-30" x="41.36" y="25.45" width="0.3" height="0.3"/><rect class="cls-30" x="42.19" y="25.45" width="0.3" height="0.3"/><rect class="cls-30" x="17.33" y="33.36" width="0.3" height="0.3"/><rect class="cls-30" x="18.16" y="33.36" width="0.3" height="0.3"/><rect class="cls-30" x="18.99" y="33.36" width="0.3" height="0.3"/><rect class="cls-30" x="19.82" y="33.36" width="0.3" height="0.3"/><rect class="cls-30" x="20.65" y="33.36" width="0.3" height="0.3"/><rect class="cls-30" x="21.47" y="33.36" width="0.3" height="0.3"/><rect class="cls-30" x="22.3" y="33.36" width="0.3" height="0.3"/><rect class="cls-30" x="23.13" y="33.36" width="0.3" height="0.3"/><rect class="cls-30" x="23.96" y="33.36" width="0.3" height="0.3"/><rect class="cls-30" x="24.79" y="33.36" width="0.3" height="0.3"/><rect class="cls-30" x="25.62" y="33.36" width="0.3" height="0.3"/><rect class="cls-30" x="26.45" y="33.36" width="0.3" height="0.3"/><rect class="cls-30" x="27.28" y="33.36" width="0.3" height="0.3"/><rect class="cls-30" x="28.1" y="33.36" width="0.3" height="0.3"/><rect class="cls-30" x="28.93" y="33.36" width="0.3" height="0.3"/><rect class="cls-30" x="29.76" y="33.36" width="0.3" height="0.3"/><rect class="cls-30" x="30.59" y="33.36" width="0.3" height="0.3"/><rect class="cls-30" x="31.42" y="33.36" width="0.3" height="0.3"/><rect class="cls-30" x="32.25" y="33.36" width="0.3" height="0.3"/><rect class="cls-30" x="33.08" y="33.36" width="0.3" height="0.3"/><rect class="cls-30" x="33.91" y="33.36" width="0.3" height="0.3"/><rect class="cls-30" x="34.73" y="33.36" width="0.3" height="0.3"/><rect class="cls-30" x="35.56" y="33.36" width="0.3" height="0.3"/><rect class="cls-30" x="36.39" y="33.36" width="0.3" height="0.3"/><rect class="cls-30" x="37.22" y="33.36" width="0.3" height="0.3"/><rect class="cls-30" x="38.05" y="33.36" width="0.3" height="0.3"/><rect class="cls-30" x="38.88" y="33.36" width="0.3" height="0.3"/><rect class="cls-30" x="39.71" y="33.36" width="0.3" height="0.3"/><rect class="cls-30" x="40.54" y="33.36" width="0.3" height="0.3"/><rect class="cls-30" x="41.36" y="33.36" width="0.3" height="0.3"/><rect class="cls-30" x="42.19" y="33.36" width="0.3" height="0.3"/><rect class="cls-34" x="35.53" y="22.47" width="0.86" height="1.36" transform="translate(-4.75 10.04) rotate(-14.92)"/><rect class="cls-30" x="38" y="22.71" width="2.13" height="0.19"/><rect class="cls-30" x="38" y="23.04" width="2.13" height="0.19"/><rect class="cls-30" x="38" y="23.72" width="2.13" height="0.19"/><rect class="cls-30" x="38" y="24.06" width="2.13" height="0.19"/><rect class="cls-30" x="38" y="24.4" width="1.2" height="0.19"/><rect class="cls-18" x="34.69" y="19.54" width="0.76" height="1.16"/><rect class="cls-45" x="18.52" y="21.43" width="3.79" height="3.43"/><rect class="cls-30" x="21.69" y="21.43" width="0.63" height="3.43"/><rect class="cls-34" x="19.73" y="23.16" width="0.81" height="0.48"/><rect class="cls-34" x="23.79" y="13.28" width="3.71" height="2.17"/><rect class="cls-30" x="24.62" y="13.86" width="2.13" height="0.19"/><rect class="cls-30" x="24.62" y="14.19" width="2.13" height="0.19"/><path class="cls-29" d="M26.14,12.82a.26.26,0,0,1-.28.24h-.54a.25.25,0,1,1,0-.49h.54A.26.26,0,0,1,26.14,12.82Z"/><rect class="cls-34" x="26.39" y="16.17" width="0.76" height="0.48" transform="translate(-3.32 7.42) rotate(-14.88)"/><rect class="cls-38" x="28.12" y="13.64" width="1" height="1.6"/><polygon class="cls-16" points="38.04 8 33.5 8 33.5 9.54 38.04 9.54 38.04 16.94 38.88 16.94 38.88 8 38.04 8"/><rect class="cls-17" x="33.5" y="8" width="5.38" height="1.54"/><rect class="cls-17" x="38.6" y="9.47" width="0.28" height="7.49"/><path class="cls-28" d="M19.73,13.67a7.35,7.35,0,0,1-.26,2.12c-.22.45-1.23.86-1.23.86l-.1-1.07Z"/><rect class="cls-17" x="38.04" y="9.5" width="0.84" height="0.22"/><rect class="cls-16" x="38.88" y="8" width="2.41" height="8.94"/><path class="cls-46" d="M18.11,16.05a.24.24,0,0,1-.2-.1.2.2,0,0,1-.2-.12.21.21,0,0,1-.07-.1.5.5,0,0,1,.1-.39l0-.06-.11-.15,0,0c-.25-.23-.12-.55,0-.79a.77.77,0,0,1,0-.08,3.68,3.68,0,0,1,.06-.42v-.05h0a1.68,1.68,0,0,0,0-.21.28.28,0,0,1,0-.09.27.27,0,0,1,.24-.26h.06a.29.29,0,0,1,.2.08.59.59,0,0,1,.2.43c0,.11,0,.21.08.32l.11,0a2.6,2.6,0,0,0,.39-.26l.09-.06.18-.14.13-.1a.28.28,0,0,1,.19-.08.25.25,0,0,1,.22.15.51.51,0,0,1,0,.48.4.4,0,0,1,0,.26.8.8,0,0,1,0,.14.29.29,0,0,1,0,.15l0,.06a.69.69,0,0,1-.11.24l0,.06a2.47,2.47,0,0,1-.46.47,3.5,3.5,0,0,1-.3.22,3.59,3.59,0,0,1-.35.24l-.15.09a.43.43,0,0,1-.23.08Z"/><path class="cls-47" d="M17.93,13.31a.16.16,0,0,1,.11,0,.47.47,0,0,1,.15.35c0,.13.06.27.1.4l.23.09a3,3,0,0,0,.56-.37c.09-.09.23-.17.32-.25a.16.16,0,0,1,.1,0,.12.12,0,0,1,.1.08.39.39,0,0,1,0,.42.27.27,0,0,1,0,.26.67.67,0,0,1,0,.16.16.16,0,0,1,0,.1l0,.05a.59.59,0,0,1-.09.21l0,0a2.35,2.35,0,0,1-.45.46,3.45,3.45,0,0,1-.29.22c-.13.11-.36.24-.5.33a.3.3,0,0,1-.16.05.1.1,0,0,1-.11-.09s-.24,0-.14-.08h0c-.15,0-.06-.32.07-.4-.07-.11-.17-.22-.23-.33l0,0c-.19-.17-.07-.44,0-.67a.44.44,0,0,1,0-.09,3.61,3.61,0,0,1,.06-.41.11.11,0,0,1,0,0v0a1.91,1.91,0,0,0,0-.25.14.14,0,0,1,0-.06.14.14,0,0,1,.13-.14Zm0-.27h-.09a.4.4,0,0,0-.35.37.4.4,0,0,0,0,.12,1.68,1.68,0,0,1,0,.18.37.37,0,0,0,0,.07,3.74,3.74,0,0,0-.07.43s0,0,0,.07a.77.77,0,0,0,.06.91h0l.1.14a.59.59,0,0,0-.07.42.35.35,0,0,0,.08.14.31.31,0,0,0,.24.17.38.38,0,0,0,.27.11.57.57,0,0,0,.3-.1l.14-.09a4,4,0,0,0,.37-.25l.3-.22a2.63,2.63,0,0,0,.48-.49l.06-.07a.85.85,0,0,0,.13-.28l0-.06a.44.44,0,0,0,0-.21.92.92,0,0,0,0-.12.53.53,0,0,0,0-.26.64.64,0,0,0,0-.55.38.38,0,0,0-.34-.22.41.41,0,0,0-.28.11l-.12.09-.19.15-.08.06a3.09,3.09,0,0,1-.32.22l-.05-.23a.73.73,0,0,0-.24-.51.43.43,0,0,0-.29-.12Z"/><path class="cls-27" d="M17.86,13l.09.86s.05.12.34.24c.12.05.68-.54.68-.54L18.61,13Z"/><path class="cls-48" d="M17.89,15.64l1.19-1.22,0-.63a4.13,4.13,0,0,1,.39-.35.38.38,0,0,1,.22.12.43.43,0,0,1,.09.2.51.51,0,0,1,0,.26,2.66,2.66,0,0,0,0,.53,4.1,4.1,0,0,1-.3.68,6.92,6.92,0,0,1-.72.57,3.05,3.05,0,0,0-.38.19c-.08,0-.12.1-.19.09s-.17-.12-.17-.12Z"/><path class="cls-49" d="M11.61,40.87c-.3.06-.13,1.46-.13,1.46h4.62a.61.61,0,0,0,0-.73,5.26,5.26,0,0,0-1.83-.75c-.4,0-1.07.22-1.6.22S11.91,40.82,11.61,40.87Z"/><path class="cls-50" d="M16.18,42.13c-1.73,0-4.71-.15-4.74-.15v-.2s3.21.17,4.9.15v.2Z"/><path class="cls-51" d="M13.16,41s1.57.48,2,.66.1.67,0,.67H16s.44-.63-.11-.92a6.48,6.48,0,0,0-1.36-.49H13.16Z"/><path class="cls-49" d="M7.45,40.87c-.3.06-.13,1.46-.13,1.46h4.62a.61.61,0,0,0,0-.73,5.26,5.26,0,0,0-1.83-.75c-.4,0-1.07.22-1.6.22S7.75,40.82,7.45,40.87Z"/><path class="cls-50" d="M12,42.13c-1.73,0-4.71-.15-4.74-.15v-.2s3.2.16,4.9.15v.2Z"/><path class="cls-51" d="M9,41s1.57.48,2,.66.1.67,0,.67h.86s.44-.63-.11-.92a6.48,6.48,0,0,0-1.36-.49H9Z"/><path class="cls-52" d="M11.27,9.44a4,4,0,0,0,.53-.81S9.08,7.49,8.06,9.88A1.94,1.94,0,0,0,7.87,12,1.72,1.72,0,0,0,9.1,13.08Z"/><path class="cls-53" d="M9,12.92s-.69-1,0-1.64.56.41.56.41Z"/><path class="cls-53" d="M11.93,8.55a3.16,3.16,0,0,0-2.07,1.77s.5-.15,1.12-.38l.53-.52S12.07,8.67,11.93,8.55Z"/><path class="cls-54" d="M11,14.86l-2-.22a.13.13,0,0,1-.12-.14,5.24,5.24,0,0,1,.08-.69c0-.31.12-.73.21-1.48a.72.72,0,1,1,1-1l.24-.14L10,10.36a.13.13,0,0,1,0-.13,2.38,2.38,0,0,1,1.21-.81h0a.13.13,0,0,1,.09,0A2.68,2.68,0,0,1,12,10.49l.07.19a.7.7,0,0,0,.21.14c.19.1.45.24.43.5s-.24.37-.38.45a2.57,2.57,0,0,1-.2,1.87,1.12,1.12,0,0,1-1,.42H11l.09.65a.13.13,0,0,1-.13.15Z"/><path class="cls-47" d="M11.27,9.54a3.37,3.37,0,0,1,.65,1.2c.09.19.65.28.62.57s-.41.39-.41.39A2.49,2.49,0,0,1,12,13.56a1,1,0,0,1-.85.36,1.57,1.57,0,0,1-.25,0l.12.82-2-.22c0-.43.11-.69.29-2.17v-.06a.59.59,0,1,1,.81-.79l.45-.26-.41-.93a2.26,2.26,0,0,1,1.13-.76Zm0-.27H11.2a2.52,2.52,0,0,0-1.28.86.27.27,0,0,0,0,.27l.32.71,0,0A.86.86,0,1,0,9,12.4c-.09.7-.15,1.1-.2,1.4a5.37,5.37,0,0,0-.09.71.27.27,0,0,0,.24.27L11,15h0a.27.27,0,0,0,.26-.3l-.07-.5a1.21,1.21,0,0,0,1-.48,2.64,2.64,0,0,0,.24-1.88.7.7,0,0,0,.37-.5c0-.35-.29-.52-.5-.63l-.16-.1-.06-.16a2.78,2.78,0,0,0-.64-1.11.27.27,0,0,0-.18-.07Z"/><path class="cls-47" d="M9.44,12.6a.53.53,0,0,1-.24-.07l-.12-.06.11-.24.12.06c.11.05.11.05.18,0h.18l0,.27H9.44Z"/><path class="cls-55" d="M11.84,16.2a2.68,2.68,0,0,0-.63-1.41l-1.33-.39c-2-.59-2,1.55-2,1.55l3.83.13Z"/><circle class="cls-56" cx="11.28" cy="10.99" r="0.19"/><path class="cls-57" d="M11.24,10.38l-.32.22a.1.1,0,0,0,0,.14.1.1,0,0,0,.14,0l.32-.22C11.44,10.48,11.34,10.31,11.24,10.38Z"/><g class="cls-58"><path class="cls-59" d="M11.92,10.74a3.37,3.37,0,0,0-.65-1.2,2.35,2.35,0,0,0-.63.29,4.06,4.06,0,0,1,.87,2.78c0,1.32-1.45,1-1.45,1l-.13.29L9,13.69l-.13.39,1.11.31,1,.2-.1-.68s.77.14,1.1-.34a2.49,2.49,0,0,0,.16-1.86s.39-.17.41-.39S12,10.93,11.92,10.74Z"/></g><path class="cls-60" d="M17.55,14.87a11.78,11.78,0,0,1-4.88,1.34,5.39,5.39,0,0,1-2.88-1.1L8.1,15.06a2.83,2.83,0,0,0-.19.88c0,.13,0,3.48.1,6v.13s0,0,0,0c0,.91.08,2.34.13,3.07A95,95,0,0,1,8.08,37.9c-.23,2.42,0,1.69,0,1.69l.58.72.73-1s1,0,1.39-2.47l1.59,2.8.62-.11A119.79,119.79,0,0,1,12.25,27c0-.75.17-2.35.13-4.7,0-.42,0-.83,0-1.22a21.59,21.59,0,0,0-.23-2.63,5.08,5.08,0,0,0,1.81.06,6.92,6.92,0,0,0,4.09-2.58A1.92,1.92,0,0,0,17.55,14.87Z"/><path class="cls-61" d="M8.66,40.47a.17.17,0,0,1-.13-.06l-.45-.56H8c-.17,0-.25-.05-.07-2A95.56,95.56,0,0,0,8,25.19c0-.69-.1-2.06-.13-3a.19.19,0,0,1,0-.1v-.1c0-.05-.16-5.41-.1-6h0A3,3,0,0,1,8,15L8,14.84l.3.15-.07.15a2.68,2.68,0,0,0-.18.82v0c0,.23,0,3.11.11,5.95v.16h0c0,1,.08,2.37.13,3.06a96,96,0,0,1-.06,12.75c-.08.89-.1,1.32-.1,1.52l.07,0,.45.55.6-.8a.17.17,0,0,1,.12-.07s.89-.1,1.23-2.32a.17.17,0,0,1,.31-.06l1.53,2.7.35-.06A116.27,116.27,0,0,1,12.09,27l0-.35c.06-.86.15-2.31.11-4.34q0-.7,0-1.22A21.35,21.35,0,0,0,12,18.45a.17.17,0,0,1,.2-.19,4.93,4.93,0,0,0,1.75.06,6.74,6.74,0,0,0,3.94-2.47,1.7,1.7,0,0,0-.4-.78,11.81,11.81,0,0,1-4.86,1.29,4.84,4.84,0,0,1-2.59-.9l-.36-.22-.14-.08.16-.29.14.08.37.23a4.55,4.55,0,0,0,2.43.85,11.62,11.62,0,0,0,4.78-1.31.17.17,0,0,1,.21,0,2.08,2.08,0,0,1,.59,1.14.17.17,0,0,1,0,.11A7,7,0,0,1,14,18.65a5.32,5.32,0,0,1-1.64,0,21.74,21.74,0,0,1,.2,2.42c0,.36,0,.77,0,1.23,0,2-.06,3.49-.11,4.36l0,.34a119.42,119.42,0,0,0,.74,12.55.17.17,0,0,1-.14.18l-.62.11a.16.16,0,0,1-.17-.08l-1.37-2.4c-.37,1.75-1.12,2.08-1.38,2.14l-.69.92a.17.17,0,0,1-.13.07Z"/><polygon class="cls-62" points="10.2 17.49 10.2 17.49 10.21 17.49 10.2 17.49"/><path class="cls-63" d="M18.09,15.9a1.39,1.39,0,0,0-.18-.56s-.33.67-2.67,1.84a7.39,7.39,0,0,1-4.94.33l.87.57a5,5,0,0,0,2.83.4A6.92,6.92,0,0,0,18.09,15.9Z"/><path class="cls-63" d="M10.45,24.71a55.52,55.52,0,0,0-.21-7.22l2,.7s.08-.52.13,2.16a22.57,22.57,0,0,1,0,4.24C12.16,25.16,11.55,24.83,10.45,24.71Z"/><path class="cls-64" d="M12.35,12.64a1,1,0,0,1-.63,0c-.12,0-.17.15-.05.19a1.18,1.18,0,0,0,.74,0A.1.1,0,0,0,12.35,12.64Z"/><path class="cls-65" d="M12.38,24.6H8.1c0,.2,0,.39,0,.58A83.59,83.59,0,0,1,7.52,38a10,10,0,0,0-.11,2.68l2.72.19c.07-.32.31-1.89.64-4l.67,3.82,2.45-.18c-.53-5.62-1.59-11.75-1.48-13.64C12.47,26,12.36,25.69,12.38,24.6Z"/><rect class="cls-66" x="8.08" y="24.2" width="4.29" height="0.79"/><path class="cls-65" d="M10.61,37.9c.06-.34.85-6.76,1-9.75A2,2,0,0,0,12,26.92Z"/><polygon class="cls-67" points="12.6 25.57 7.91 25.57 7.86 24.41 12.65 24.41 12.6 25.57"/><rect class="cls-68" x="7.86" y="24.41" width="2.59" height="1.15"/><rect class="cls-69" x="8.66" y="24.34" width="0.43" height="1.37"/><rect class="cls-69" x="11.26" y="24.34" width="0.43" height="1.37"/><path class="cls-70" d="M12,16.2a2.77,2.77,0,0,1-.92-.33l-.68-.35a1.29,1.29,0,0,0-.29-.6,2,2,0,0,0-.85-.33,1,1,0,0,0-.73.09c-.23,0,0-.19.24-.27a6.13,6.13,0,0,1,2.45.46Z"/><path class="cls-71" d="M8.6,13.75l3,.73.15.9a6.38,6.38,0,0,0-2.73-1c-.38,0-.38,0-.73,0Z"/><path class="cls-72" d="M9.84,14.47a6,6,0,0,1,1.94.91l-.15-.9L10,14.08Z"/><path class="cls-65" d="M11.33,40l2.57-.24Z"/><path class="cls-65" d="M7.38,40l2.88.14Z"/><path class="cls-73" d="M11.74,28.73l-.33,0a8.56,8.56,0,0,0-.1-1.76l.33-.06A8.74,8.74,0,0,1,11.74,28.73Z"/><path class="cls-73" d="M9.45,27.4a2.17,2.17,0,0,1-.4,0L9.12,27A1.07,1.07,0,0,0,10,26.9a.83.83,0,0,0,.28-.56h.33a1.16,1.16,0,0,1-.4.81A1.17,1.17,0,0,1,9.45,27.4Z"/><path class="cls-74" d="M10.14,40.9H8.87s1-7.07,1.39-12.36c0-.13-1.15-1.31-1-1.31,1.4,0,1.18-.91,1.2-1.67h2v2.25l1,8.46.47,4.23-2.37.17-.76-3.84Z"/><rect class="cls-75" x="11.26" y="24.34" width="0.43" height="1.37"/></g></g></svg>