<svg id="Camada_1" data-name="Camada 1" xmlns="http://www.w3.org/2000/svg" viewBox="0 0 50 50"><defs><style>.cls-1{fill:#cbcac8;}.cls-2{fill:#8b5e3c;}.cls-3{fill:#754c29;}.cls-4{fill:#f8ab3d;}.cls-5{fill:#e1652f;}.cls-6{fill:#216838;}.cls-7{fill:#8dc63f;}.cls-8{fill:#b2e561;}.cls-9{fill:#6f8337;}.cls-10{fill:#c5d230;}.cls-11{fill:#6f8423;}.cls-12{fill:#90ac3d;}.cls-13{fill:#b3d82b;}.cls-14{fill:#00a79d;}.cls-15{fill:#d1d3d4;}.cls-16{fill:#078276;}.cls-17{fill:#939598;}.cls-18{fill:#054f46;}.cls-19{fill:#fbb06b;}.cls-20{fill:#e6e7e8;}.cls-21{fill:#27aae1;}.cls-22{fill:#1c75bc;}.cls-23{fill:#fff;}.cls-24{fill:#bcbec0;}.cls-25{fill:#ef4323;}.cls-26{fill:#3c2415;}.cls-27{fill:#f15722;}.cls-28{fill:#f9851b;}.cls-29{fill:#d17e11;}.cls-30{fill:#f9a01b;}.cls-31{fill:#6b163c;}.cls-32{fill:#acc941;}.cls-33{fill:#fed600;}.cls-34{fill:#475324;}.cls-35{fill:#b36c8e;}.cls-36{fill:#93486f;}.cls-37{fill:#657c12;}.cls-38{fill:#829b1b;}.cls-39{fill:#f88729;}.cls-40{fill:#c64817;}.cls-41{fill:#0f47be;}.cls-42{fill:#1960dd;}.cls-43{fill:#082b70;}.cls-44{fill:#2c6fd8;}.cls-45{fill:#3ea1ff;}.cls-46{fill:#343635;}.cls-47{fill:#231f20;}.cls-48{fill:#141112;}.cls-49{fill:#58595b;}</style></defs><title>icones-adm</title><circle class="cls-1" cx="25" cy="25" r="25"/><path class="cls-2" d="M35.29,35.67c-2-.5-1.23-4-.32-4.53.34-.21.81-.08,1.17-.35s.42-.65.64-.87a2,2,0,0,1,2.4-.37c4,2-1.39,8.16-3.45,6.44A1.62,1.62,0,0,0,35.29,35.67Z"/><path class="cls-3" d="M36.53,35.44c-.11,0-.46-.15-.49-.28s.47-.6.71-.54c.39.09.93.81.24.85A3.46,3.46,0,0,1,36.53,35.44Z"/><path class="cls-3" d="M35.1,32.64c0-.37.39-.42.68-.44a1.21,1.21,0,0,1,1,.33.83.83,0,0,1,.22.68,1,1,0,0,1-.59.71c-.17.09-.57.27-.77.2C35.16,33.94,35.12,32.89,35.1,32.64Z"/><path class="cls-3" d="M38.62,31.87a.35.35,0,0,1,0-.52c.37-.31,1,.26.63.5C39.25,31.84,38.83,32,38.62,31.87Z"/><path class="cls-4" d="M13.07,29.05c0-1.39,1.33-2.66,3.5-3.61v1.81a.76.76,0,1,0,1.52,0V24.87c.48-.15,1-.3,1.52-.42v2.8a.76.76,0,1,0,1.52,0V24.14c.49-.09,1-.16,1.52-.22v3.33a.76.76,0,0,0,1.52,0V23.78c.5,0,1-.06,1.52-.07v3.55a.76.76,0,1,0,1.52,0V23.71c.52,0,1,0,1.52.07v3.48a.76.76,0,1,0,1.52,0V23.92q.78.09,1.52.22v3.11a.76.76,0,0,0,1.52,0v-2.8c.53.13,1,.27,1.52.42v2.38a.76.76,0,0,0,1.52,0V25.44c2.18,1,3.5,2.22,3.5,3.61,0,0,0,.07,0,.11s0,.07,0,.1a1.44,1.44,0,0,1-1.44,1.4H14.51a1.44,1.44,0,0,1-1.44-1.4s0-.07,0-.1S13.07,29.09,13.07,29.05Z"/><path class="cls-5" d="M26.45,28a.76.76,0,0,1-.76-.76V23.71h1.52v3.55A.76.76,0,0,1,26.45,28Z"/><path class="cls-5" d="M29.49,28a.76.76,0,0,1-.76-.76V23.78q.78.05,1.52.14v3.33A.76.76,0,0,1,29.49,28Z"/><path class="cls-5" d="M20.37,28a.76.76,0,0,1-.76-.76v-2.8q.73-.17,1.52-.31v3.11A.76.76,0,0,1,20.37,28Z"/><path class="cls-5" d="M23.41,28a.76.76,0,0,1-.76-.76V23.92q.74-.09,1.52-.14v3.48A.76.76,0,0,1,23.41,28Z"/><path class="cls-5" d="M17.33,28a.76.76,0,0,1-.76-.76V25.44a15.92,15.92,0,0,1,1.52-.57v2.38A.76.76,0,0,1,17.33,28Z"/><path class="cls-5" d="M32.53,28a.76.76,0,0,1-.76-.76V24.14q.79.14,1.52.31v2.8A.76.76,0,0,1,32.53,28Z"/><path class="cls-5" d="M35.57,28a.76.76,0,0,1-.76-.76V24.87a15.92,15.92,0,0,1,1.52.57v1.81A.76.76,0,0,1,35.57,28Z"/><path class="cls-6" d="M28.48,11.74a3.57,3.57,0,0,1,1.56,1c.41.51.63,1.34.44,1.4A2.28,2.28,0,0,1,29,13.18,3.8,3.8,0,0,1,28.48,11.74Z"/><path class="cls-3" d="M30.38,14.22h0A.15.15,0,0,1,30.3,14a1.21,1.21,0,0,1,1.63-.53.15.15,0,0,1-.09.28c-1-.31-1.25.33-1.26.36A.15.15,0,0,1,30.38,14.22Z"/><path class="cls-7" d="M31.21,17.55a2.84,2.84,0,0,0,.26-.5,2.28,2.28,0,0,0-1-3,2.28,2.28,0,0,0-2.83,1.51,2.92,2.92,0,0,0-.16.54,3.32,3.32,0,1,0,3.72,1.49Z"/><path class="cls-8" d="M26.45,18.59a3.29,3.29,0,0,1,2.23-2,2.83,2.83,0,0,1,.15-.54,2.55,2.55,0,0,1,1.71-1.56,2.09,2.09,0,0,0-2.36,1.39,2.52,2.52,0,0,0-.14.48A2.92,2.92,0,0,0,26.44,21,3.27,3.27,0,0,1,26.45,18.59Z"/><path class="cls-9" d="M10.79,29.31A3.25,3.25,0,0,1,11.36,27c1-1.08,3.64-2.14,4.92-2.91a3.33,3.33,0,0,0,1-1.07,3.19,3.19,0,0,1-.88,2.65,32.16,32.16,0,0,1-4.26,2.52A4.82,4.82,0,0,0,10.79,29.31Z"/><circle class="cls-10" cx="16.13" cy="24.97" r="0.37" transform="translate(-13.2 29.81) rotate(-66.5)"/><circle class="cls-10" cx="15.08" cy="25.59" r="0.37" transform="translate(-14.4 29.21) rotate(-66.5)"/><circle class="cls-10" cx="14.03" cy="26.14" r="0.37" transform="translate(-15.53 28.59) rotate(-66.52)"/><circle class="cls-10" cx="12.97" cy="26.81" r="0.37" transform="translate(-16.79 28.02) rotate(-66.51)"/><circle class="cls-10" cx="11.87" cy="27.48" r="0.37" transform="translate(-18.07 27.41) rotate(-66.49)"/><path class="cls-11" d="M16.49,37l-.75-1.87-2.64-2.9a13.59,13.59,0,0,1,1.4-.34c.1,0,1.2,2.22,1.8,1.87s-.64-2-.55-2.06L17,30.85s.42,2.15,1,2,0-2.22,0-2.22l1.46-.74-.23,3.19.69,2.48Z"/><path class="cls-12" d="M20.38,26.7a.94.94,0,0,0-1.22-.53l-.17.09a.94.94,0,0,0-1.59,0,2.08,2.08,0,0,0-3.14,1.11A1.51,1.51,0,0,0,11.87,29a1.57,1.57,0,0,0-.28,3.11.93.93,0,0,0,.06.28.94.94,0,0,0,1.22.53.93.93,0,0,0,.39-.3,1.5,1.5,0,0,0,2-.66,1.5,1.5,0,0,0,1.87-.83,1.51,1.51,0,0,0,2-.76,1.51,1.51,0,0,0,1.11-2.63A.94.94,0,0,0,20.38,26.7Z"/><path class="cls-13" d="M11.76,29.35a1.19,1.19,0,0,0-.25,2.24A1.93,1.93,0,0,1,11.76,29.35Z"/><path class="cls-13" d="M13.23,27.46A1.19,1.19,0,0,0,13,29.71,1.93,1.93,0,0,1,13.23,27.46Z"/><path class="cls-13" d="M18.78,27.82a1,1,0,0,0-.38.17,1,1,0,0,0-.19,1.38,1,1,0,0,0,.36.29A1.59,1.59,0,0,1,18.78,27.82Z"/><path class="cls-13" d="M15.94,26.39a1.8,1.8,0,0,0-.38,3.39A2.92,2.92,0,0,1,15.94,26.39Z"/><path class="cls-14" d="M35.87,39.3v-.4a1.43,1.43,0,0,1,0-2.86v-.36H32.54V39.3h3.34Z"/><path class="cls-15" d="M32.56,35.33a.17.17,0,0,0,0,.35h3.34v-.35Z"/><path class="cls-15" d="M32.56,39.3h0a.17.17,0,0,0,0,.35h3.31V39.3Z"/><path class="cls-16" d="M34.44,37.47a1.43,1.43,0,0,0,1.43,1.43V36A1.43,1.43,0,0,0,34.44,37.47Z"/><path class="cls-16" d="M35.87,35.68V36a1.43,1.43,0,0,1,0,2.86v.4h3.34V35.68H35.87Z"/><path class="cls-17" d="M39.18,35.33H35.87v.35h3.34a.17.17,0,0,0,0-.35Z"/><path class="cls-15" d="M39.21,39.3H35.87v.35h3.31a.17.17,0,0,0,0-.35Z"/><path class="cls-18" d="M37.3,37.47A1.43,1.43,0,0,0,35.87,36V38.9A1.43,1.43,0,0,0,37.3,37.47Z"/><path class="cls-19" d="M19,33.27a1.71,1.71,0,1,1-1.92-2.8c1.06-.72,2.58-.85,3.11-.07S20.06,32.54,19,33.27Z"/><path class="cls-19" d="M27.31,29.84A1.71,1.71,0,1,0,29.23,27c-1.06-.72-2.58-.85-3.11-.07S26.26,29.11,27.31,29.84Z"/><path class="cls-20" d="M34.67,12.47v-.82h-3v.82s-2.08,4-2.08,5V29.88a.52.52,0,0,0,.52.52h6.1a.52.52,0,0,0,.52-.52V17.45C36.75,16.5,34.67,12.47,34.67,12.47Z"/><path class="cls-21" d="M34.39,9.85V11.2H34V9.81h-.35V11.2h-.35V9.81H33V11.2h-.35V9.81h-.35V11.2H32V9.85a.75.75,0,0,0-.49.7v.65h3.42v-.65A.75.75,0,0,0,34.39,9.85Z"/><path class="cls-22" d="M32.31,11.2V9.81h-.08a.74.74,0,0,0-.26,0V11.2Z"/><rect class="cls-22" x="32.65" y="9.81" width="0.35" height="1.39"/><rect class="cls-22" x="33.35" y="9.81" width="0.35" height="1.39"/><path class="cls-22" d="M34.39,11.2V9.85a.74.74,0,0,0-.24,0H34V11.2Z"/><rect class="cls-22" x="31.47" y="11.09" width="3.42" height="0.57"/><path class="cls-23" d="M30.91,17.6v-.2c0-.86,1.78-4.34,1.94-4.66v-.68h-.6v.4s-2.06,4-2.06,4.94V29.2h.73a.49.49,0,0,1,0-.1V17.6Z"/><rect class="cls-15" x="29.61" y="18.96" width="7.13" height="7.46"/><path class="cls-24" d="M34.95,12.06a.17.17,0,0,1-.17.17H31.58a.17.17,0,0,1-.17-.17h0a.17.17,0,0,1,.17-.17h3.19a.17.17,0,0,1,.17.17Z"/><path class="cls-25" d="M35.06,36.49a3.29,3.29,0,0,1-3.29,3.29H24.29A3.29,3.29,0,0,1,21,36.49h0a3.29,3.29,0,0,1,3.29-3.29h7.48a3.29,3.29,0,0,1,3.29,3.29Z"/><rect class="cls-26" x="25" y="33.21" width="6.07" height="6.57"/><polygon class="cls-25" points="21.37 36.15 20.27 35.53 20.56 36.15 20.27 36.49 20.5 36.8 20.54 37.22 21.37 36.93 21.37 36.15"/><polygon class="cls-25" points="34.64 36.11 35.76 35.57 35.51 36.11 35.85 36.54 35.51 36.66 35.66 37.18 34.64 36.99 34.64 36.11"/><rect class="cls-2" x="25.42" y="33.21" width="0.44" height="6.57"/><rect class="cls-2" x="30.17" y="33.21" width="0.44" height="6.57"/><polygon class="cls-10" points="21.34 10.99 19.98 9.36 20.77 8.81 21.71 10.84 21.34 10.99"/><polygon class="cls-12" points="21.69 11.28 20.34 8.44 21.71 8.05 22.21 10.96 21.69 11.28"/><polygon class="cls-10" points="22.17 11.45 21.61 9.19 22.64 9.19 22.57 11.14 22.17 11.45"/><path class="cls-27" d="M24.83,18.63c0-.17,0-.35-.05-.53l-.87.53Z"/><path class="cls-27" d="M24.61,16.62q0-.32-.1-.64l-1.06.64Z"/><path class="cls-27" d="M24.28,14.62l-.12-.6-1,.6Z"/><path class="cls-27" d="M23.85,12.72c-.06-.22-.12-.43-.18-.63l-1,.63Z"/><path class="cls-27" d="M21.07,13.92c.05.18.1.37.16.56l.89-.66Z"/><path class="cls-28" d="M21.75,10.37a1.33,1.33,0,0,0-1,1,3.42,3.42,0,0,0,0,.58l1,0-.93.51a11.78,11.78,0,0,0,.3,1.4l1.05-.1-.89.66c.14.45.3.92.47,1.39l1.07-.1-.86.64c.19.47.38.94.58,1.39l.76-.07-.59.44c.24.53.49,1,.72,1.46l.57-.05-.43.32c.53,1,1,1.6,1.16,1.56s.28-1.25.14-2.83h-.92l.87-.53c0-.47-.11-1-.18-1.48H23.45L24.51,16c-.07-.45-.15-.91-.23-1.36H23.16l1-.6c-.1-.45-.2-.89-.3-1.3H22.64l1-.63a8,8,0,0,0-.47-1.24C22.8,10.06,21.75,10.37,21.75,10.37Z"/><path class="cls-27" d="M20.72,12q0,.26.05.55L21.7,12Z"/><path class="cls-27" d="M21.71,15.87l.21.54.86-.64Z"/><path class="cls-27" d="M22.5,17.8l.17.37.59-.44Z"/><path class="cls-27" d="M23.38,19.63l.14.27.43-.32Z"/><path class="cls-29" d="M19.42,32.49c3.52.75,3.88,2.63,3.88,2.63H11.66Z"/><path class="cls-30" d="M23.29,35.12H11.66v2.82a.75.75,0,0,1,0,1.46v.71h8.43a1,1,0,0,1,2.06,0h1.14Zm-9.67,2.74a1.09,1.09,0,1,1,1.09-1.09A1.09,1.09,0,0,1,13.62,37.86Zm3,1.38a.66.66,0,1,1,.66-.66A.66.66,0,0,1,16.59,39.25ZM18.67,38a.86.86,0,1,1,.86-.86A.86.86,0,0,1,18.67,38Zm3.09,0a.4.4,0,1,1,.4-.4A.4.4,0,0,1,21.76,38Z"/><path class="cls-29" d="M21.12,39.13a1,1,0,0,0-1,1h2.06A1,1,0,0,0,21.12,39.13Z"/><path class="cls-29" d="M12.24,38.66a.75.75,0,0,0-.58-.73v1.46A.75.75,0,0,0,12.24,38.66Z"/><circle class="cls-29" cx="13.62" cy="36.77" r="1.09"/><circle class="cls-29" cx="16.59" cy="38.58" r="0.66"/><circle class="cls-29" cx="21.76" cy="37.63" r="0.4"/><circle class="cls-29" cx="18.67" cy="37.17" r="0.86"/><path class="cls-31" d="M15.83,9.57c.79-.85,2.24-.57,3.35.63,1.4,1.53,3.14,4.27,3.06,7-.06,2.24-.84,3.92-2.47,4.07-2.74.26-2.83-2.25-2.76-4a13.24,13.24,0,0,0-.54-4.94C15.93,11.27,15.08,10.37,15.83,9.57Z"/><path class="cls-12" d="M15.63,8.67,14.28,7.5,14,7.87l1.52,1.37a1.35,1.35,0,0,0-1.29.27c-.18.21,1.06.28,1.06.28a1.49,1.49,0,0,0,0,1.71c.21.39.54-1.48.54-1.48s1.54,1.23,1.52.86a7.2,7.2,0,0,0-.88-1.68s2,.18,2,.12c-.3-1.24-2.09-.6-2.09-.6s1.1-.7,1-.74A1.32,1.32,0,0,0,15.63,8.67Z"/><path class="cls-23" d="M17.93,18.45a2.81,2.81,0,0,0,1.22,2.23,1.79,1.79,0,0,1-1.52-1.81A2.16,2.16,0,0,1,18,17.44,3.24,3.24,0,0,0,17.93,18.45Z"/><path class="cls-32" d="M16.34,8.95l.25-.08a2.09,2.09,0,0,1,1.84.2s-.3-.85-2-.48a1.25,1.25,0,0,0-.5.2L14.28,7.5l-.09.12,1.52,1.28a1.07,1.07,0,0,0-.35.48c-.72,1.62,0,2.13,0,2.16a2.41,2.41,0,0,1,.21-1.91l.17-.31a1.65,1.65,0,0,0,.13.27,5.62,5.62,0,0,0,1.48,1.28,5.49,5.49,0,0,0-.81-1.76A.57.57,0,0,0,16.34,8.95Z"/><path class="cls-33" d="M4.69,17.38v-.12a11.2,11.2,0,0,1,9.69,2.14c4.42,3.28,4.32,8.84,4.32,8.84l-.27.1a13.14,13.14,0,0,0-4.86-7.86A15.27,15.27,0,0,0,4.69,17.38Z"/><path class="cls-30" d="M12.75,21.61a24.91,24.91,0,0,0-8.09-4l0-.26a15.27,15.27,0,0,1,8.9,3.1,13.14,13.14,0,0,1,4.86,7.86l-.26.1A17.49,17.49,0,0,0,12.75,21.61Z"/><path class="cls-33" d="M12.36,22.37A50.47,50.47,0,0,0,4.6,18.15l.06-.51a24.91,24.91,0,0,1,8.09,4,17.49,17.49,0,0,1,5.43,6.83l-.19.07A31.37,31.37,0,0,0,12.36,22.37Z"/><path class="cls-34" d="M4.7,17.25l-.07.92a.74.74,0,0,1-.25-.1.47.47,0,0,1-.11-.65A.45.45,0,0,1,4.7,17.25Z"/><polygon class="cls-33" points="18.13 28.31 18.32 28.83 18.71 28.62 18.48 28.14 18.13 28.31"/><path class="cls-33" d="M8.6,13.86l0-.11a11.2,11.2,0,0,1,8.66,4.84C20.59,23,18.9,28.3,18.9,28.3l-.29,0a13.14,13.14,0,0,0-2.39-8.92A15.27,15.27,0,0,0,8.6,13.86Z"/><path class="cls-30" d="M15.1,20.24a24.91,24.91,0,0,0-6.6-6.13l.1-.24a15.27,15.27,0,0,1,7.62,5.54,13.14,13.14,0,0,1,2.39,8.92l-.28,0A17.49,17.49,0,0,0,15.1,20.24Z"/><path class="cls-33" d="M14.51,20.85a50.46,50.46,0,0,0-6.22-6.27l.21-.47a24.91,24.91,0,0,1,6.6,6.13,17.49,17.49,0,0,1,3.23,8.11h-.2A31.36,31.36,0,0,0,14.51,20.85Z"/><path class="cls-34" d="M8.65,13.75l-.33.86a.74.74,0,0,1-.22-.17.47.47,0,0,1,.08-.65A.45.45,0,0,1,8.65,13.75Z"/><polygon class="cls-33" points="18.28 28.27 18.31 28.83 18.75 28.75 18.67 28.22 18.28 28.27"/><path class="cls-33" d="M13.54,11.66l.08-.09a11.2,11.2,0,0,1,6.93,7.1c1.89,5.17-1.23,9.76-1.23,9.76L19,28.37a13.15,13.15,0,0,0,.24-9.24A15.27,15.27,0,0,0,13.54,11.66Z"/><path class="cls-30" d="M18,19.62a24.9,24.9,0,0,0-4.59-7.75l.17-.2a15.27,15.27,0,0,1,5.74,7.47A13.15,13.15,0,0,1,19,28.37l-.28-.06A17.49,17.49,0,0,0,18,19.62Z"/><path class="cls-33" d="M17.22,20A50.46,50.46,0,0,0,13,12.26l.33-.39A24.9,24.9,0,0,1,18,19.62a17.49,17.49,0,0,1,.8,8.69l-.2,0A31.36,31.36,0,0,0,17.22,20Z"/><path class="cls-34" d="M13.62,11.56l-.56.73a.74.74,0,0,1-.16-.22.47.47,0,0,1,.26-.6A.45.45,0,0,1,13.62,11.56Z"/><polygon class="cls-33" points="18.73 28.23 18.6 28.77 19.05 28.81 19.12 28.28 18.73 28.23"/><path class="cls-35" d="M13.49,29.8a2.52,2.52,0,0,1,0,1.31c-.28.59-1.44,1.1-1.6,2a2,2,0,0,0,1,2.23c.17.06.29.28.66.31a1.09,1.09,0,0,0,.71-.19,1,1,0,0,0,.84.13.87.87,0,0,0,.53-.41,1.55,1.55,0,0,0,.82-.21,1.67,1.67,0,0,0,.31-.39c.2-.29.56-.34.63-1.23a2.19,2.19,0,0,0-.61-1.54c-.71-.66-1.68-.63-2.11-1a3.72,3.72,0,0,1-.43-1.09Z"/><path class="cls-36" d="M14,33.54a7.93,7.93,0,0,1,0-1.74,2,2,0,0,0-.55,1.81,2,2,0,0,0,.91,1.61A8.26,8.26,0,0,1,14,33.54Z"/><path class="cls-36" d="M16.47,32.85a5,5,0,0,0-.57-1.08,1.49,1.49,0,0,1,1,.93,1.42,1.42,0,0,1-.06,1.39A5.68,5.68,0,0,0,16.47,32.85Z"/><path class="cls-36" d="M12.79,33.67a5.64,5.64,0,0,1,.12-1.29,1.7,1.7,0,0,0-.55,1.29A1.42,1.42,0,0,0,12.93,35,5.69,5.69,0,0,1,12.79,33.67Z"/><path class="cls-36" d="M15.36,33.11a8.27,8.27,0,0,0-.61-1.61A2,2,0,0,1,15.85,33a2,2,0,0,1-.21,1.84A8.3,8.3,0,0,0,15.36,33.11Z"/><rect class="cls-37" x="20.16" y="14.94" width="0.38" height="2.26" transform="translate(-2.87 4.53) rotate(-11.86)"/><path class="cls-37" d="M20.09,15.76l-1-.31c0-.48-.48-.84-.79-1a3.35,3.35,0,0,0-2,.27s.57,1.14,1.2,1.38a1.11,1.11,0,0,0,1.49-.4l1.11.37Z"/><path class="cls-25" d="M20.51,16.58h0Z"/><path class="cls-25" d="M20.41,16.6h0Z"/><path class="cls-25" d="M21.53,16.2a7.76,7.76,0,0,1-1.11.43,5.4,5.4,0,0,1-1.08,0c-1,0-2.33,1.16-1.94,3,.3,1.45,2.17,3.58,3.32,3.34.27-.06.74-.64,1-.69s.89.3,1.15.24c1.15-.24,2-2.94,1.69-4.39C24.12,16.32,22.47,15.75,21.53,16.2Z"/><path class="cls-23" d="M19.19,17.84a1.45,1.45,0,0,0-.94,1.8,3.37,3.37,0,0,0,1.11,1.66,4.53,4.53,0,0,1-.43-1.14A3.46,3.46,0,0,1,19.19,17.84Z"/><path class="cls-38" d="M16.76,14.89h0Z"/><path class="cls-38" d="M18.82,15.56c.71.23,1.31.38,1.31.38l-.05-.26-1.25-.3-.24-.47.07.43-.48-.11L18,14.65l0,.56h0l-.63-.15-.09-.41,0,.39-.61-.15.61.2h0l-.36.24.43-.22.56.18-.53.34.67-.29.54.18-.49.48Z"/><path class="cls-39" d="M32.8,34.58C31.55,34,31,32.2,31.15,29.83l1.62.82a.76.76,0,1,0,.69-1.36l-2.12-1.07c.08-.5.18-1,.31-1.55l2.5,1.26a.76.76,0,1,0,.69-1.36L32,25.17q.22-.72.49-1.46l3,1.5a.76.76,0,1,0,.68-1.36L33.1,22.3c.19-.46.4-.92.62-1.39l3.16,1.6a.76.76,0,0,0,.69-1.36l-3.16-1.6q.36-.68.75-1.32l3.1,1.57a.76.76,0,1,0,.69-1.36l-3-1.5q.43-.66.88-1.26l2.78,1.4a.76.76,0,1,0,.69-1.36l-2.5-1.26q.53-.63,1.06-1.17L41,14.37A.76.76,0,1,0,41.68,13l-1.62-.82c1.83-1.51,3.56-2.13,4.8-1.5l.09.06.09,0a1.44,1.44,0,0,1,.6,1.91l-1.25,2.48L36.14,31.55,34.89,34a1.44,1.44,0,0,1-1.9.65l-.09-.05Z"/><path class="cls-40" d="M37.91,22.17a.76.76,0,0,1-1,.34l-3.16-1.6.33-.68.35-.67,3.16,1.6A.76.76,0,0,1,37.91,22.17Z"/><path class="cls-40" d="M39.28,19.46a.76.76,0,0,1-1,.34l-3.1-1.57q.4-.67.81-1.29l3,1.5A.76.76,0,0,1,39.28,19.46Z"/><path class="cls-40" d="M35.16,27.6a.76.76,0,0,1-1,.34l-2.5-1.26q.18-.73.41-1.5l2.78,1.4A.76.76,0,0,1,35.16,27.6Z"/><path class="cls-40" d="M36.53,24.88a.76.76,0,0,1-1,.33l-3-1.5c.17-.47.36-.94.56-1.42l3.1,1.57A.76.76,0,0,1,36.53,24.88Z"/><path class="cls-40" d="M33.79,30.31a.76.76,0,0,1-1,.34l-1.62-.82a15.92,15.92,0,0,1,.18-1.61l2.12,1.07A.76.76,0,0,1,33.79,30.31Z"/><path class="cls-40" d="M40.65,16.75a.76.76,0,0,1-1,.34l-2.78-1.4q.48-.64,1-1.22l2.5,1.26A.76.76,0,0,1,40.65,16.75Z"/><path class="cls-40" d="M42,14a.76.76,0,0,1-1,.34l-2.12-1.07a15.81,15.81,0,0,1,1.19-1.1l1.62.82A.76.76,0,0,1,42,14Z"/><rect class="cls-41" x="11.71" y="35.05" width="27.9" height="0.7"/><rect class="cls-42" x="11.75" y="35.05" width="27.87" height="0.25"/><rect class="cls-41" x="11.71" y="32.55" width="27.9" height="0.7"/><rect class="cls-42" x="11.75" y="32.55" width="27.87" height="0.25"/><rect class="cls-41" x="18.14" y="28.95" width="15.04" height="6.8"/><rect class="cls-42" x="18.14" y="28.94" width="15.04" height="0.34"/><rect class="cls-41" x="13.92" y="23.99" width="0.65" height="16.34"/><rect class="cls-41" x="15.87" y="23.99" width="0.65" height="16.34"/><rect class="cls-41" x="18.14" y="23.99" width="0.65" height="16.34"/><rect class="cls-41" x="32.53" y="23.99" width="0.65" height="16.34"/><rect class="cls-41" x="34.71" y="23.99" width="0.65" height="16.34"/><rect class="cls-41" x="36.66" y="23.99" width="0.65" height="16.34"/><rect class="cls-41" x="20.09" y="23.99" width="0.65" height="16.34"/><rect class="cls-41" x="22.04" y="23.99" width="0.65" height="16.34"/><rect class="cls-41" x="23.98" y="23.99" width="0.65" height="16.34"/><rect class="cls-41" x="26.26" y="23.99" width="0.65" height="16.34"/><rect class="cls-41" x="28.21" y="23.99" width="0.65" height="16.34"/><rect class="cls-41" x="30.49" y="23.99" width="0.65" height="16.34"/><path class="cls-41" d="M9.7,23.53l.88,16.12a1.76,1.76,0,0,0,1.76,1.76H39a1.76,1.76,0,0,0,1.76-1.76l.88-16.12ZM38.79,38.8a.5.5,0,0,1-.5.5H13a.5.5,0,0,1-.5-.5V25.28a.5.5,0,0,1,.5-.5H38.28a.5.5,0,0,1,.5.5Z"/><polygon class="cls-43" points="36.26 41.41 36.26 41.41 17.22 41.41 17.22 41.41 12.44 41.41 12.62 42.5 20.79 42.5 21.04 41.91 30.28 41.91 30.53 42.5 38.71 42.5 38.88 41.41 36.26 41.41"/><path class="cls-44" d="M8.57,21.44v3.4a.5.5,0,0,0,.5.5H42.26a.5.5,0,0,0,.5-.5v-3.4Z"/><rect class="cls-45" x="8.57" y="20.84" width="34.19" height="0.6"/><path class="cls-46" d="M25.37,7.74H24.6a.5.5,0,0,0-.5.5V23.53a.5.5,0,0,0,.5.5h1.07V7.74Z"/><path class="cls-47" d="M26.94,7.79a.5.5,0,0,0-.2,0H25.67V24h1.07a.5.5,0,0,0,.5-.5V8.25A.5.5,0,0,0,26.94,7.79Z"/><path class="cls-47" d="M24.73,7.67a.16.16,0,0,0-.16-.16h0a.16.16,0,0,0-.16.16V9a.16.16,0,0,0,.16.16h0A.16.16,0,0,0,24.73,9Z"/><path class="cls-47" d="M25.35,7.67a.16.16,0,0,0-.16-.16h0a.16.16,0,0,0-.16.16V9a.16.16,0,0,0,.16.16h0A.16.16,0,0,0,25.35,9Z"/><path class="cls-48" d="M26.3,7.66a.16.16,0,0,0-.16-.16h0a.16.16,0,0,0-.16.16V9a.16.16,0,0,0,.16.16h0A.16.16,0,0,0,26.3,9Z"/><path class="cls-48" d="M26.93,7.66a.16.16,0,0,0-.16-.16h0a.16.16,0,0,0-.16.16V9a.16.16,0,0,0,.16.16h0A.16.16,0,0,0,26.93,9Z"/><path class="cls-24" d="M25,22.61a.63.63,0,0,0,.63.63V22A.63.63,0,0,0,25,22.61Z"/><path class="cls-49" d="M26.31,22.61a.63.63,0,0,0-.63-.63v1.26A.63.63,0,0,0,26.31,22.61Z"/><path class="cls-15" d="M25.24,22.61a.56.56,0,0,1,.33-.51.52.52,0,0,0,0,1A.56.56,0,0,1,25.24,22.61Z"/></svg>