<svg id="Camada_1" data-name="Camada 1" xmlns="http://www.w3.org/2000/svg" viewBox="0 0 155 145"><defs><style>.cls-1{fill:#c29130;}.cls-2{fill:#fdf98c;}.cls-3{fill:#171f30;}.cls-4{fill:#3c4665;}.cls-5{fill:#1d424c;}.cls-6{fill:#46737f;}.cls-7{fill:#5e9bb1;}.cls-8{fill:#f2f8ef;}.cls-9{fill:#f39225;}</style></defs><title>indicativo-</title><path class="cls-1" d="M-459,16.33a10,10,0,0,0-3.6-.16c-.47,0-.94.11-1.39.18l-.65.11-3.36-1a4.73,4.73,0,0,1,2.21-.17c.41.12.42.26.39.34a4.08,4.08,0,0,0,1.44-.19c.58-.19.55-.38-.09-.56a10.47,10.47,0,0,0-4.73.35l-.6-.18-1,.32.62.18c-1.68.65-1.79,1.26-.43,1.67a11,11,0,0,0,4.32.07l1.29-.2,3.39,1a4.73,4.73,0,0,1-2.21.17c-.41-.12-.42-.26-.39-.34a4.08,4.08,0,0,0-1.44.19c-.58.19-.55.38.09.56a10.47,10.47,0,0,0,4.73-.35l.6.18,1-.32-.62-.18C-457.73,17.35-457.62,16.73-459,16.33Zm-10,.33c-.78-.23-.7-.54,0-.86l3,.88A7.92,7.92,0,0,1-469,16.66Zm8.81,1.11-3-.88a13.39,13.39,0,0,1,2-.13,4,4,0,0,1,1,.15C-459.37,17.13-459.45,17.44-460.2,17.76Z"/><path class="cls-2" d="M-459,16.12a10,10,0,0,0-3.6-.16c-.47,0-.94.11-1.39.18l-.65.11-3.36-1a4.73,4.73,0,0,1,2.21-.17c.41.12.42.26.39.34a4.09,4.09,0,0,0,1.44-.19c.58-.19.55-.38-.09-.56a10.47,10.47,0,0,0-4.73.35l-.6-.18-1,.32.62.18c-1.68.65-1.79,1.26-.43,1.67a11,11,0,0,0,4.32.07l1.29-.2,3.39,1a4.73,4.73,0,0,1-2.21.17c-.41-.12-.42-.26-.39-.34a4.08,4.08,0,0,0-1.44.19c-.58.19-.55.38.09.56a10.47,10.47,0,0,0,4.73-.35l.6.18,1-.32-.62-.18C-457.73,17.14-457.62,16.53-459,16.12Zm-10,.32c-.78-.23-.7-.54,0-.86l3,.88A7.92,7.92,0,0,1-469,16.45Zm8.81,1.11-3-.88a13.4,13.4,0,0,1,2-.13,4,4,0,0,1,1,.15C-459.37,16.92-459.45,17.23-460.2,17.56Z"/><path class="cls-1" d="M-473.15,25.16a10,10,0,0,0-3.6-.16c-.47,0-.94.11-1.39.18l-.65.11-3.36-1a4.73,4.73,0,0,1,2.21-.17c.41.12.42.26.39.34a4.08,4.08,0,0,0,1.44-.19c.58-.19.55-.38-.09-.56a10.47,10.47,0,0,0-4.73.35l-.6-.18-1,.32.62.18c-1.68.65-1.79,1.26-.43,1.67a11,11,0,0,0,4.32.07l1.29-.2,3.39,1a4.73,4.73,0,0,1-2.21.17c-.41-.12-.42-.26-.39-.34a4.08,4.08,0,0,0-1.44.19c-.58.19-.55.38.09.56a10.47,10.47,0,0,0,4.73-.35l.6.18,1-.32-.62-.18C-471.9,26.18-471.79,25.56-473.15,25.16Zm-10,.32c-.78-.23-.7-.54,0-.86l3,.88A7.92,7.92,0,0,1-483.17,25.48Zm8.81,1.11-3-.88a13.4,13.4,0,0,1,2-.13,4,4,0,0,1,1,.15C-473.55,26-473.62,26.26-474.37,26.59Z"/><path class="cls-2" d="M-473.15,25a10,10,0,0,0-3.6-.16c-.47,0-.94.11-1.39.18l-.65.11-3.36-1a4.73,4.73,0,0,1,2.21-.17c.41.12.42.26.39.34a4.09,4.09,0,0,0,1.44-.19c.58-.19.55-.38-.09-.56a10.47,10.47,0,0,0-4.73.35l-.6-.18-1,.32.62.18c-1.68.65-1.79,1.26-.43,1.67a11,11,0,0,0,4.32.07l1.29-.2,3.39,1a4.73,4.73,0,0,1-2.21.17c-.41-.12-.42-.26-.39-.34a4.09,4.09,0,0,0-1.44.19c-.58.19-.55.38.09.56a10.47,10.47,0,0,0,4.73-.35l.6.18,1-.32-.62-.18C-471.9,26-471.79,25.35-473.15,25Zm-10,.32c-.78-.23-.7-.54,0-.86l3,.88A7.92,7.92,0,0,1-483.17,25.28Zm8.81,1.11-3-.88a13.39,13.39,0,0,1,2-.13,4,4,0,0,1,1,.15C-473.55,25.75-473.62,26.06-474.37,26.38Z"/><path class="cls-1" d="M-407.92,26.66a10,10,0,0,0-3.6-.16c-.47,0-.94.11-1.39.18l-.65.11-3.36-1a4.73,4.73,0,0,1,2.21-.17c.41.12.42.26.39.34a4.08,4.08,0,0,0,1.44-.19c.58-.19.55-.38-.09-.56a10.47,10.47,0,0,0-4.73.35l-.6-.18-1,.32.62.18c-1.68.65-1.79,1.26-.43,1.67a11,11,0,0,0,4.32.07l1.29-.2,3.39,1a4.73,4.73,0,0,1-2.21.17c-.41-.12-.42-.26-.39-.34a4.08,4.08,0,0,0-1.44.19c-.58.19-.55.38.09.56a10.47,10.47,0,0,0,4.73-.35l.6.18,1-.32-.62-.18C-406.67,27.68-406.56,27.06-407.92,26.66Zm-10,.32c-.78-.23-.7-.54,0-.86l3,.88A7.92,7.92,0,0,1-417.95,27Zm8.81,1.11-3-.88a13.39,13.39,0,0,1,2-.13,4,4,0,0,1,1,.15C-408.32,27.46-408.4,27.77-409.14,28.09Z"/><path class="cls-2" d="M-407.92,26.46a10,10,0,0,0-3.6-.16c-.47,0-.94.11-1.39.18l-.65.11-3.36-1a4.73,4.73,0,0,1,2.21-.17c.41.12.42.26.39.34a4.09,4.09,0,0,0,1.44-.19c.58-.19.55-.38-.09-.56a10.47,10.47,0,0,0-4.73.35l-.6-.18-1,.32.62.18c-1.68.65-1.79,1.26-.43,1.67a11,11,0,0,0,4.32.07l1.29-.2,3.39,1a4.73,4.73,0,0,1-2.21.17c-.41-.12-.42-.26-.39-.34a4.09,4.09,0,0,0-1.44.19c-.58.19-.55.38.09.56a10.47,10.47,0,0,0,4.73-.35l.6.18,1-.32-.62-.18C-406.67,27.48-406.56,26.86-407.92,26.46Zm-10,.32c-.78-.23-.7-.54,0-.86l3,.88A7.92,7.92,0,0,1-417.95,26.78Zm8.81,1.11-3-.88a13.39,13.39,0,0,1,2-.13,4,4,0,0,1,1,.15C-408.32,27.25-408.4,27.56-409.14,27.89Z"/><path class="cls-1" d="M-446.78,32.43a10,10,0,0,0-3.6-.16c-.47,0-.94.11-1.39.18l-.65.11-3.36-1a4.73,4.73,0,0,1,2.21-.17c.41.12.42.26.39.34a4.08,4.08,0,0,0,1.44-.19c.58-.19.55-.38-.09-.56a10.47,10.47,0,0,0-4.73.35l-.6-.18-1,.32.62.18c-1.68.65-1.79,1.26-.43,1.67a11,11,0,0,0,4.32.07l1.29-.2,3.39,1a4.73,4.73,0,0,1-2.21.17c-.41-.12-.42-.26-.39-.34a4.08,4.08,0,0,0-1.44.19c-.58.19-.55.38.09.56a10.47,10.47,0,0,0,4.73-.35l.6.18,1-.32-.62-.18C-445.53,33.45-445.42,32.83-446.78,32.43Zm-10,.32c-.78-.23-.7-.54,0-.86l3,.88A7.92,7.92,0,0,1-456.8,32.76Zm8.81,1.11-3-.88a13.39,13.39,0,0,1,2-.13,4,4,0,0,1,1,.15C-447.17,33.23-447.25,33.54-448,33.86Z"/><path class="cls-2" d="M-446.78,32.23a10,10,0,0,0-3.6-.16c-.47,0-.94.11-1.39.18l-.65.11-3.36-1a4.73,4.73,0,0,1,2.21-.17c.41.12.42.26.39.34a4.09,4.09,0,0,0,1.44-.19c.58-.19.55-.38-.09-.56a10.47,10.47,0,0,0-4.73.35l-.6-.18-1,.32.62.18c-1.68.65-1.79,1.26-.43,1.67a11,11,0,0,0,4.32.07l1.29-.2,3.39,1a4.73,4.73,0,0,1-2.21.17c-.41-.12-.42-.26-.39-.34A4.09,4.09,0,0,0-453,34c-.58.19-.55.38.09.56a10.47,10.47,0,0,0,4.73-.35l.6.18,1-.32-.62-.18C-445.53,33.25-445.42,32.63-446.78,32.23Zm-10,.32c-.78-.23-.7-.54,0-.86l3,.88A7.92,7.92,0,0,1-456.8,32.55Zm8.81,1.11-3-.88a13.39,13.39,0,0,1,2-.13,4,4,0,0,1,1,.15C-447.17,33-447.25,33.33-448,33.66Z"/><path class="cls-1" d="M-451,24.06a10,10,0,0,0-3.6-.16c-.47,0-.94.11-1.39.18l-.65.11-3.36-1a4.73,4.73,0,0,1,2.21-.17c.41.12.42.26.39.34a4.08,4.08,0,0,0,1.44-.19c.58-.19.55-.38-.09-.56a10.47,10.47,0,0,0-4.73.35l-.6-.18-1,.32.62.18c-1.68.65-1.79,1.26-.43,1.67a11,11,0,0,0,4.32.07l1.29-.2,3.39,1a4.73,4.73,0,0,1-2.21.17c-.41-.12-.42-.26-.39-.34a4.08,4.08,0,0,0-1.44.19c-.58.19-.55.38.09.56a10.47,10.47,0,0,0,4.73-.35l.6.18,1-.32-.62-.18C-449.74,25.08-449.63,24.46-451,24.06Zm-10,.33c-.78-.23-.7-.54,0-.86l3,.88A7.92,7.92,0,0,1-461,24.38Zm8.81,1.11-3-.88a13.39,13.39,0,0,1,2-.13,4,4,0,0,1,1,.15C-451.39,24.86-451.47,25.17-452.21,25.49Z"/><path class="cls-2" d="M-451,23.85a10,10,0,0,0-3.6-.16c-.47,0-.94.11-1.39.18l-.65.11L-460,23a4.73,4.73,0,0,1,2.21-.17c.41.12.42.26.39.34A4.09,4.09,0,0,0-456,23c.58-.19.55-.38-.09-.56a10.47,10.47,0,0,0-4.73.35l-.6-.18-1,.32.62.18c-1.68.65-1.79,1.26-.43,1.67a11,11,0,0,0,4.32.07l1.29-.2,3.39,1a4.73,4.73,0,0,1-2.21.17c-.41-.12-.42-.26-.39-.34a4.09,4.09,0,0,0-1.44.19c-.58.19-.55.38.09.56a10.47,10.47,0,0,0,4.73-.35l.6.18,1-.32-.62-.18C-449.74,24.87-449.63,24.26-451,23.85Zm-10,.32c-.78-.23-.7-.54,0-.86l3,.88A7.92,7.92,0,0,1-461,24.18Zm8.81,1.11-3-.88a13.39,13.39,0,0,1,2-.13,4,4,0,0,1,1,.15C-451.39,24.65-451.47,25-452.21,25.29Z"/><path class="cls-1" d="M-433.87,28a10,10,0,0,0-3.6-.16c-.47,0-.94.11-1.39.18l-.65.11-3.36-1a4.73,4.73,0,0,1,2.21-.17c.41.12.42.26.39.34a4.08,4.08,0,0,0,1.44-.19c.58-.19.55-.38-.09-.56a10.47,10.47,0,0,0-4.73.35l-.6-.18-1,.32.62.18c-1.68.65-1.79,1.26-.43,1.67a11,11,0,0,0,4.32.07l1.29-.2,3.39,1a4.73,4.73,0,0,1-2.21.17c-.41-.12-.42-.26-.39-.34a4.08,4.08,0,0,0-1.44.19c-.58.19-.55.38.09.56a10.47,10.47,0,0,0,4.73-.35l.6.18,1-.32-.62-.18C-432.62,29-432.51,28.42-433.87,28Zm-10,.33c-.78-.23-.7-.54,0-.86l3,.88A7.92,7.92,0,0,1-443.89,28.34Zm8.81,1.11-3-.88a13.39,13.39,0,0,1,2-.13,4,4,0,0,1,1,.15C-434.27,28.81-434.34,29.12-435.09,29.45Z"/><path class="cls-2" d="M-433.87,27.81a10,10,0,0,0-3.6-.16c-.47,0-.94.11-1.39.18l-.65.11-3.36-1a4.73,4.73,0,0,1,2.21-.17c.41.12.42.26.39.34a4.09,4.09,0,0,0,1.44-.19c.58-.19.55-.38-.09-.56a10.47,10.47,0,0,0-4.73.35l-.6-.18-1,.32.62.18c-1.68.65-1.79,1.26-.43,1.67a11,11,0,0,0,4.32.07l1.29-.2,3.39,1a4.73,4.73,0,0,1-2.21.17c-.41-.12-.42-.26-.39-.34a4.08,4.08,0,0,0-1.44.19c-.58.19-.55.38.09.56a10.47,10.47,0,0,0,4.73-.35l.6.18,1-.32-.62-.18C-432.62,28.83-432.51,28.21-433.87,27.81Zm-10,.32c-.78-.23-.7-.54,0-.86l3,.88A7.92,7.92,0,0,1-443.89,28.13Zm8.81,1.11-3-.88a13.4,13.4,0,0,1,2-.13,4,4,0,0,1,1,.15C-434.27,28.61-434.34,28.92-435.09,29.24Z"/><path class="cls-1" d="M-438.51,24.19A9.79,9.79,0,0,0-441,21.65c-.37-.28-.76-.55-1.14-.8l-.55-.36-1.76-3a4.63,4.63,0,0,1,1.74,1.36c.21.36.13.47,0,.51a4,4,0,0,0,1.18.83c.55.25.66.09.33-.47a10.26,10.26,0,0,0-3.7-2.92l-.31-.53-1-.44.32.55c-1.68-.66-2.19-.28-1.47.93a10.68,10.68,0,0,0,3.11,3l1.08.72,1.77,3a4.63,4.63,0,0,1-1.74-1.36c-.21-.36-.13-.47,0-.51a4,4,0,0,0-1.18-.83c-.55-.25-.66-.09-.33.47a10.26,10.26,0,0,0,3.7,2.92l.31.53,1,.44-.32-.55C-438.31,25.78-437.8,25.4-438.51,24.19Zm-7.54-6.5c-.41-.69-.14-.87.63-.6l1.55,2.63A7.73,7.73,0,0,1-446.05,17.69Zm5.65,6.73L-442,21.78A13.13,13.13,0,0,1-440.4,23a3.88,3.88,0,0,1,.63.79C-439.36,24.51-439.63,24.68-440.4,24.42Z"/><path class="cls-2" d="M-438.37,24a9.79,9.79,0,0,0-2.51-2.54c-.37-.28-.76-.55-1.14-.8l-.55-.36-1.76-3a4.63,4.63,0,0,1,1.74,1.36c.21.36.13.47,0,.51a4,4,0,0,0,1.18.83c.55.25.66.09.33-.47a10.26,10.26,0,0,0-3.7-2.92l-.31-.53-1-.44.32.55c-1.68-.66-2.19-.28-1.47.93a10.68,10.68,0,0,0,3.11,3l1.08.72,1.77,3a4.63,4.63,0,0,1-1.74-1.36c-.21-.36-.13-.47,0-.51a4,4,0,0,0-1.18-.83c-.55-.25-.66-.09-.33.47a10.26,10.26,0,0,0,3.7,2.92l.31.53,1,.44-.32-.55C-438.17,25.63-437.66,25.25-438.37,24Zm-7.54-6.5c-.41-.69-.14-.87.63-.6l1.55,2.63A7.73,7.73,0,0,1-445.91,17.54Zm5.65,6.73-1.56-2.64a13.12,13.12,0,0,1,1.56,1.25,3.87,3.87,0,0,1,.63.79C-439.21,24.36-439.49,24.53-440.26,24.27Z"/><path class="cls-1" d="M-423.22,20.22a10,10,0,0,0-3.6-.16c-.47,0-.94.11-1.39.18l-.65.11-3.36-1a4.73,4.73,0,0,1,2.21-.17c.41.12.42.26.39.34a4.08,4.08,0,0,0,1.44-.19c.58-.19.55-.38-.09-.56a10.47,10.47,0,0,0-4.73.35l-.6-.18-1,.32.62.18c-1.68.65-1.79,1.26-.43,1.67a11,11,0,0,0,4.32.07l1.29-.2,3.39,1a4.73,4.73,0,0,1-2.21.17c-.41-.12-.42-.26-.39-.34a4.08,4.08,0,0,0-1.44.19c-.58.19-.55.38.09.56a10.47,10.47,0,0,0,4.73-.35l.6.18,1-.32-.62-.18C-422,21.24-421.86,20.62-423.22,20.22Zm-10,.32c-.78-.23-.7-.54,0-.86l3,.88A7.92,7.92,0,0,1-433.24,20.54Zm8.81,1.11-3-.88a13.4,13.4,0,0,1,2-.13,4,4,0,0,1,1,.15C-423.61,21-423.69,21.33-424.44,21.65Z"/><path class="cls-2" d="M-423.22,20a10.05,10.05,0,0,0-3.6-.16c-.47,0-.94.11-1.39.18l-.65.11-3.36-1A4.73,4.73,0,0,1-430,19c.41.12.42.26.39.34a4.08,4.08,0,0,0,1.44-.19c.58-.19.55-.38-.09-.56a10.47,10.47,0,0,0-4.73.35l-.6-.18-1,.32.62.18c-1.68.65-1.79,1.26-.43,1.67a11,11,0,0,0,4.32.07l1.29-.2,3.39,1a4.73,4.73,0,0,1-2.21.17c-.41-.12-.42-.26-.39-.34a4.08,4.08,0,0,0-1.44.19c-.58.19-.55.38.09.56a10.47,10.47,0,0,0,4.73-.35l.6.18,1-.32-.62-.18C-422,21-421.86,20.42-423.22,20Zm-10,.33c-.78-.23-.7-.54,0-.86l3,.88A7.92,7.92,0,0,1-433.24,20.34Zm8.81,1.11-3-.88a13.39,13.39,0,0,1,2-.13,4,4,0,0,1,1,.15C-423.61,20.81-423.69,21.12-424.44,21.45Z"/><path class="cls-1" d="M-428.68,15.92a9.35,9.35,0,0,0-3.35-.15c-.43,0-.87.1-1.3.17l-.61.1-3.12-.92a4.4,4.4,0,0,1,2.06-.16c.38.11.39.24.36.32a3.8,3.8,0,0,0,1.34-.18c.54-.17.51-.35-.08-.52a9.74,9.74,0,0,0-4.4.33l-.56-.17-.94.3.57.17c-1.56.6-1.67,1.18-.4,1.55a10.19,10.19,0,0,0,4,.06l1.2-.18,3.15.93a4.4,4.4,0,0,1-2.06.16c-.38-.11-.39-.24-.36-.32a3.8,3.8,0,0,0-1.34.18c-.54.17-.51.35.08.52a9.74,9.74,0,0,0,4.4-.33l.56.17.94-.3-.57-.17C-427.51,16.87-427.41,16.29-428.68,15.92Zm-9.33.3c-.72-.21-.65-.5,0-.8l2.75.81A7.37,7.37,0,0,1-438,16.22Zm8.19,1-2.76-.82a12.47,12.47,0,0,1,1.87-.12,3.72,3.72,0,0,1,.94.14C-429,16.66-429.12,17-429.81,17.25Z"/><path class="cls-2" d="M-428.68,15.73a9.35,9.35,0,0,0-3.35-.15c-.43,0-.87.1-1.3.17l-.61.1-3.12-.92a4.4,4.4,0,0,1,2.06-.16c.38.11.39.24.36.32a3.8,3.8,0,0,0,1.34-.18c.54-.17.51-.35-.08-.52a9.74,9.74,0,0,0-4.4.33l-.56-.17-.94.3.57.17c-1.56.6-1.67,1.18-.4,1.55a10.19,10.19,0,0,0,4,.06l1.2-.18,3.15.93a4.4,4.4,0,0,1-2.06.16c-.38-.11-.39-.24-.36-.32a3.8,3.8,0,0,0-1.34.18c-.54.17-.51.35.08.52a9.74,9.74,0,0,0,4.4-.33l.56.17.94-.3-.57-.17C-427.51,16.68-427.41,16.1-428.68,15.73ZM-438,16c-.72-.21-.65-.5,0-.8l2.75.81A7.37,7.37,0,0,1-438,16Zm8.19,1-2.76-.82a12.47,12.47,0,0,1,1.87-.12,3.72,3.72,0,0,1,.94.14C-429,16.47-429.12,16.76-429.81,17.06Z"/><path class="cls-1" d="M-467.45,35.7a10,10,0,0,0-3.6-.16c-.47,0-.94.11-1.39.18l-.65.11-3.36-1a4.73,4.73,0,0,1,2.21-.17c.41.12.42.26.39.34a4.08,4.08,0,0,0,1.44-.19c.58-.19.55-.38-.09-.56a10.47,10.47,0,0,0-4.73.35l-.6-.18-1,.32.62.18c-1.68.65-1.79,1.26-.43,1.67a11,11,0,0,0,4.32.07l1.29-.2,3.39,1a4.73,4.73,0,0,1-2.21.17c-.41-.12-.42-.26-.39-.34a4.08,4.08,0,0,0-1.44.19c-.58.19-.55.38.09.56a10.47,10.47,0,0,0,4.73-.35l.6.18,1-.32-.62-.18C-466.2,36.72-466.09,36.11-467.45,35.7Zm-10,.32c-.78-.23-.7-.54,0-.86l3,.88A7.92,7.92,0,0,1-477.47,36Zm8.81,1.11-3-.88a13.4,13.4,0,0,1,2-.13,4,4,0,0,1,1,.15C-467.84,36.5-467.92,36.81-468.67,37.14Z"/><path class="cls-2" d="M-467.45,35.5a10,10,0,0,0-3.6-.16c-.47,0-.94.11-1.39.18l-.65.11-3.36-1a4.73,4.73,0,0,1,2.21-.17c.41.12.42.26.39.34a4.08,4.08,0,0,0,1.44-.19c.58-.19.55-.38-.09-.56a10.47,10.47,0,0,0-4.73.35l-.6-.18-1,.32.62.18c-1.68.65-1.79,1.26-.43,1.67a11,11,0,0,0,4.32.07l1.29-.2,3.39,1a4.73,4.73,0,0,1-2.21.17c-.41-.12-.42-.26-.39-.34a4.08,4.08,0,0,0-1.44.19c-.58.19-.55.38.09.56a10.47,10.47,0,0,0,4.73-.35l.6.18,1-.32-.62-.18C-466.2,36.52-466.09,35.9-467.45,35.5Zm-10,.33c-.78-.23-.7-.54,0-.86l3,.88A7.92,7.92,0,0,1-477.47,35.82Zm8.81,1.11-3-.88a13.39,13.39,0,0,1,2-.13,4,4,0,0,1,1,.15C-467.84,36.3-467.92,36.61-468.67,36.93Z"/><path class="cls-1" d="M-452.12,37.9a10,10,0,0,0-3.6-.16c-.47,0-.94.11-1.39.18l-.65.11-3.36-1a4.73,4.73,0,0,1,2.21-.17c.41.12.42.26.39.34a4.08,4.08,0,0,0,1.44-.19c.58-.19.55-.38-.09-.56a10.47,10.47,0,0,0-4.73.35l-.6-.18-1,.32.62.18c-1.68.65-1.79,1.26-.43,1.67a11,11,0,0,0,4.32.07l1.29-.2,3.39,1a4.73,4.73,0,0,1-2.21.17c-.41-.12-.42-.26-.39-.34a4.08,4.08,0,0,0-1.44.19c-.58.19-.55.38.09.56a10.47,10.47,0,0,0,4.73-.35l.6.18,1-.32-.62-.18C-450.87,38.92-450.76,38.3-452.12,37.9Zm-10,.32c-.78-.23-.7-.54,0-.86l3,.88A7.92,7.92,0,0,1-462.15,38.22Zm8.81,1.11-3-.88a13.4,13.4,0,0,1,2-.13,4,4,0,0,1,1,.15C-452.52,38.7-452.6,39-453.34,39.33Z"/><path class="cls-2" d="M-452.12,37.69a10,10,0,0,0-3.6-.16c-.47,0-.94.11-1.39.18l-.65.11-3.36-1a4.73,4.73,0,0,1,2.21-.17c.41.12.42.26.39.34a4.08,4.08,0,0,0,1.44-.19c.58-.19.55-.38-.09-.56a10.47,10.47,0,0,0-4.73.35l-.6-.18-1,.32.62.18c-1.68.65-1.79,1.26-.43,1.67a11,11,0,0,0,4.32.07l1.29-.2,3.39,1a4.73,4.73,0,0,1-2.21.17c-.41-.12-.42-.26-.39-.34a4.08,4.08,0,0,0-1.44.19c-.58.19-.55.38.09.56a10.47,10.47,0,0,0,4.73-.35l.6.18,1-.32-.62-.18C-450.87,38.71-450.76,38.1-452.12,37.69Zm-10,.32c-.78-.23-.7-.54,0-.86l3,.88A7.92,7.92,0,0,1-462.15,38Zm8.81,1.11-3-.88a13.39,13.39,0,0,1,2-.13,4,4,0,0,1,1,.15C-452.52,38.49-452.6,38.8-453.34,39.13Z"/><path class="cls-1" d="M-414.73,35.34a10,10,0,0,0-3.6-.16c-.47,0-.94.11-1.39.18l-.65.11-3.36-1a4.73,4.73,0,0,1,2.21-.17c.41.12.42.26.39.34a4.08,4.08,0,0,0,1.44-.19c.58-.19.55-.38-.09-.56a10.47,10.47,0,0,0-4.73.35l-.6-.18-1,.32.62.18c-1.68.65-1.79,1.26-.43,1.67a11,11,0,0,0,4.32.07l1.29-.2,3.39,1a4.73,4.73,0,0,1-2.21.17c-.41-.12-.42-.26-.39-.34a4.08,4.08,0,0,0-1.44.19c-.58.19-.55.38.09.56a10.47,10.47,0,0,0,4.73-.35l.6.18,1-.32-.62-.18C-413.48,36.36-413.37,35.74-414.73,35.34Zm-10,.33c-.78-.23-.7-.54,0-.86l3,.88A7.92,7.92,0,0,1-424.76,35.66Zm8.81,1.11-3-.88a13.4,13.4,0,0,1,2-.13,4,4,0,0,1,1,.15C-415.13,36.14-415.21,36.45-416,36.77Z"/><path class="cls-2" d="M-414.73,35.13a10.05,10.05,0,0,0-3.6-.16c-.47,0-.94.11-1.39.18l-.65.11-3.36-1a4.73,4.73,0,0,1,2.21-.17c.41.12.42.26.39.34a4.08,4.08,0,0,0,1.44-.19c.58-.19.55-.38-.09-.56a10.47,10.47,0,0,0-4.73.35l-.6-.18-1,.32.62.18c-1.68.65-1.79,1.26-.43,1.67a11,11,0,0,0,4.32.07l1.29-.2,3.39,1a4.73,4.73,0,0,1-2.21.17c-.41-.12-.42-.26-.39-.34a4.08,4.08,0,0,0-1.44.19c-.58.19-.55.38.09.56a10.47,10.47,0,0,0,4.73-.35l.6.18,1-.32-.62-.18C-413.48,36.15-413.37,35.54-414.73,35.13Zm-10,.33c-.78-.23-.7-.54,0-.86l3,.88A7.92,7.92,0,0,1-424.76,35.46Zm8.81,1.11-3-.88a13.39,13.39,0,0,1,2-.13,4,4,0,0,1,1,.15C-415.13,35.93-415.21,36.24-416,36.57Z"/><path class="cls-1" d="M-437.89,44.49a9.94,9.94,0,0,0-3.19-1.64c-.44-.15-.9-.29-1.34-.41l-.64-.17L-445.68,40a4.7,4.7,0,0,1,2.08.76c.32.28.28.41.21.47a4.07,4.07,0,0,0,1.39.42c.61.07.66-.11.16-.55a10.4,10.4,0,0,0-4.44-1.64l-.47-.41-1.05-.12.48.42c-1.8-.11-2.17.4-1.1,1.33a10.84,10.84,0,0,0,3.89,1.85l1.26.35,2.64,2.31a4.7,4.7,0,0,1-2.08-.76c-.32-.28-.28-.41-.21-.47a4.07,4.07,0,0,0-1.39-.42c-.61-.07-.66.11-.16.55A10.4,10.4,0,0,0-440,45.71l.47.41,1.05.12-.48-.42C-437.19,45.94-436.83,45.42-437.89,44.49Zm-9.23-3.86c-.61-.53-.4-.78.41-.77l2.31,2A7.84,7.84,0,0,1-447.12,40.64Zm7.51,4.65-2.32-2A13.31,13.31,0,0,1-440,44a3.94,3.94,0,0,1,.85.55C-438.59,45.05-438.79,45.3-439.61,45.29Z"/><path class="cls-2" d="M-437.8,44.3A9.94,9.94,0,0,0-441,42.67c-.44-.15-.9-.29-1.34-.41l-.64-.17-2.62-2.29a4.69,4.69,0,0,1,2.08.76c.32.28.28.41.21.47a4.07,4.07,0,0,0,1.39.42c.61.07.66-.11.16-.55a10.4,10.4,0,0,0-4.44-1.64l-.47-.41-1.05-.12.48.42c-1.8-.11-2.17.4-1.1,1.33a10.84,10.84,0,0,0,3.89,1.85l1.26.35,2.64,2.31a4.7,4.7,0,0,1-2.08-.76c-.32-.28-.28-.41-.21-.47a4.07,4.07,0,0,0-1.39-.42c-.61-.07-.66.11-.16.55a10.4,10.4,0,0,0,4.44,1.64l.47.41,1.05.12-.48-.42C-437.11,45.75-436.74,45.23-437.8,44.3ZM-447,40.45c-.61-.53-.4-.78.41-.77l2.31,2A7.84,7.84,0,0,1-447,40.45Zm7.51,4.65-2.32-2a13.31,13.31,0,0,1,1.88.71,3.94,3.94,0,0,1,.85.55C-438.5,44.86-438.71,45.11-439.52,45.1Z"/><path class="cls-1" d="M-418.23,31.21a10,10,0,0,0-3.6-.16c-.47,0-.94.11-1.39.18l-.65.11-3.36-1a4.73,4.73,0,0,1,2.21-.17c.41.12.42.26.39.34a4.08,4.08,0,0,0,1.44-.19c.58-.19.55-.38-.09-.56a10.47,10.47,0,0,0-4.73.35l-.6-.18-1,.32.62.18c-1.68.65-1.79,1.26-.43,1.67a11,11,0,0,0,4.32.07l1.29-.2,3.39,1a4.73,4.73,0,0,1-2.21.17c-.41-.12-.42-.26-.39-.34a4.08,4.08,0,0,0-1.44.19c-.58.19-.55.38.09.56a10.47,10.47,0,0,0,4.73-.35l.6.18,1-.32-.62-.18C-417,32.23-416.87,31.61-418.23,31.21Zm-10,.32c-.78-.23-.7-.54,0-.86l3,.88A7.92,7.92,0,0,1-428.25,31.53Zm8.81,1.11-3-.88a13.4,13.4,0,0,1,2-.13,4,4,0,0,1,1,.15C-418.63,32-418.7,32.32-419.45,32.64Z"/><path class="cls-2" d="M-418.23,31a10.05,10.05,0,0,0-3.6-.16c-.47,0-.94.11-1.39.18l-.65.11-3.36-1A4.73,4.73,0,0,1-425,30c.41.12.42.26.39.34a4.08,4.08,0,0,0,1.44-.19c.58-.19.55-.38-.09-.56a10.47,10.47,0,0,0-4.73.35l-.6-.18-1,.32.62.18c-1.68.65-1.79,1.26-.43,1.67a11,11,0,0,0,4.32.07l1.29-.2,3.39,1a4.73,4.73,0,0,1-2.21.17c-.41-.12-.42-.26-.39-.34a4.08,4.08,0,0,0-1.44.19c-.58.19-.55.38.09.56a10.47,10.47,0,0,0,4.73-.35l.6.18,1-.32-.62-.18C-417,32-416.87,31.4-418.23,31Zm-10,.33c-.78-.23-.7-.54,0-.86l3,.88A7.92,7.92,0,0,1-428.25,31.33Zm8.81,1.11-3-.88a13.39,13.39,0,0,1,2-.13,4,4,0,0,1,1,.15C-418.63,31.8-418.7,32.11-419.45,32.43Z"/><path class="cls-1" d="M-428.48,39.5a9.94,9.94,0,0,0-3.19-1.64c-.44-.15-.9-.29-1.34-.41l-.64-.17L-436.27,35a4.7,4.7,0,0,1,2.08.76c.32.28.28.41.21.47a4.07,4.07,0,0,0,1.39.42c.61.07.66-.11.16-.55a10.4,10.4,0,0,0-4.44-1.64l-.47-.41-1.05-.12.48.42c-1.8-.11-2.17.4-1.1,1.33a10.84,10.84,0,0,0,3.89,1.85l1.26.35,2.64,2.31a4.7,4.7,0,0,1-2.08-.76c-.32-.28-.28-.41-.21-.47a4.07,4.07,0,0,0-1.39-.42c-.61-.07-.66.11-.16.55a10.4,10.4,0,0,0,4.44,1.64l.47.41,1.05.12-.48-.42C-427.78,40.95-427.42,40.43-428.48,39.5Zm-9.23-3.86c-.61-.53-.4-.78.41-.77l2.31,2A7.84,7.84,0,0,1-437.71,35.65Zm7.51,4.65-2.32-2a13.31,13.31,0,0,1,1.88.71,3.94,3.94,0,0,1,.85.55C-429.18,40.06-429.38,40.31-430.2,40.3Z"/><path class="cls-2" d="M-428.39,39.32a9.94,9.94,0,0,0-3.19-1.64c-.44-.15-.9-.29-1.34-.41l-.64-.17-2.62-2.29a4.7,4.7,0,0,1,2.08.76c.32.28.28.41.21.47a4.07,4.07,0,0,0,1.39.42c.61.07.66-.11.16-.55a10.4,10.4,0,0,0-4.44-1.64l-.47-.41-1.05-.12.48.42c-1.8-.11-2.17.4-1.1,1.33A10.84,10.84,0,0,0-435,37.34l1.26.35,2.64,2.31a4.7,4.7,0,0,1-2.08-.76c-.32-.28-.28-.41-.21-.47a4.07,4.07,0,0,0-1.39-.42c-.61-.07-.66.11-.16.55a10.4,10.4,0,0,0,4.44,1.64l.47.41,1.05.12-.48-.42C-427.69,40.76-427.33,40.24-428.39,39.32Zm-9.23-3.86c-.61-.53-.4-.78.41-.77l2.31,2A7.84,7.84,0,0,1-437.62,35.46Zm7.51,4.65-2.32-2a13.31,13.31,0,0,1,1.88.71,3.94,3.94,0,0,1,.85.55C-429.09,39.88-429.3,40.13-430.11,40.11Z"/><path class="cls-1" d="M-465.47,29.27a10,10,0,0,0-3.6-.16c-.47,0-.94.11-1.39.18l-.65.11-3.36-1a4.73,4.73,0,0,1,2.21-.17c.41.12.42.26.39.34a4.08,4.08,0,0,0,1.44-.19c.58-.19.55-.38-.09-.56a10.47,10.47,0,0,0-4.73.35l-.6-.18-1,.32.62.18c-1.68.65-1.79,1.26-.43,1.67a11,11,0,0,0,4.32.07l1.29-.2,3.39,1a4.73,4.73,0,0,1-2.21.17c-.41-.12-.42-.26-.39-.34a4.08,4.08,0,0,0-1.44.19c-.58.19-.55.38.09.56a10.47,10.47,0,0,0,4.73-.35l.6.18,1-.32-.62-.18C-464.22,30.3-464.11,29.68-465.47,29.27Zm-10,.32c-.78-.23-.7-.54,0-.86l3,.88A7.92,7.92,0,0,1-475.5,29.6Zm8.81,1.11-3-.88a13.4,13.4,0,0,1,2-.13,4,4,0,0,1,1,.15C-465.87,30.07-465.95,30.38-466.69,30.71Z"/><path class="cls-2" d="M-465.47,29.07a10.05,10.05,0,0,0-3.6-.16c-.47,0-.94.11-1.39.18l-.65.11-3.36-1a4.73,4.73,0,0,1,2.21-.17c.41.12.42.26.39.34a4.08,4.08,0,0,0,1.44-.19c.58-.19.55-.38-.09-.56a10.47,10.47,0,0,0-4.73.35l-.6-.18-1,.32.62.18c-1.68.65-1.79,1.26-.43,1.67a11,11,0,0,0,4.32.07l1.29-.2,3.39,1a4.73,4.73,0,0,1-2.21.17c-.41-.12-.42-.26-.39-.34a4.08,4.08,0,0,0-1.44.19c-.58.19-.55.38.09.56a10.47,10.47,0,0,0,4.73-.35l.6.18,1-.32-.62-.18C-464.22,30.09-464.11,29.47-465.47,29.07Zm-10,.33c-.78-.23-.7-.54,0-.86l3,.88A7.92,7.92,0,0,1-475.5,29.39Zm8.81,1.11-3-.88a13.39,13.39,0,0,1,2-.13,4,4,0,0,1,1,.15C-465.87,29.87-465.95,30.18-466.69,30.5Z"/><path class="cls-1" d="M-432.62,32.09a1.85,1.85,0,0,0-.43-1.93,6,6,0,0,0-.59-.65l-.31-.3,1-2.13c.64.4.87.82.74,1.08a.6.6,0,0,1-.51.34,1.05,1.05,0,0,0,.62.67c.44.23.75.14,1-.26.31-.64-.4-1.63-1.55-2.32l.19-.38-.76-.4-.19.39c-1.44-.62-2.53-.44-3,.43s0,1.52.75,2.27c.18.19.38.39.6.59l-1.05,2.15c-.64-.4-.87-.82-.74-1.08a.6.6,0,0,1,.51-.34,1.05,1.05,0,0,0-.62-.67c-.44-.23-.75-.14-1,.26-.31.64.4,1.63,1.55,2.32l-.19.38.76.4.19-.39C-434.13,33.14-433,33-432.62,32.09ZM-435.17,27c.24-.49.79-.57,1.5-.31l-.92,1.88C-435.07,28.06-435.42,27.51-435.17,27Zm-.16,5,.92-1.89a2.75,2.75,0,0,1,.63,1,.8.8,0,0,1-.05.58C-434.07,32.2-434.62,32.28-435.33,32Z"/><path class="cls-2" d="M-432.79,31.89a1.85,1.85,0,0,0-.43-1.93,6,6,0,0,0-.59-.65l-.31-.3,1-2.13c.64.4.87.82.74,1.08a.6.6,0,0,1-.51.34,1.05,1.05,0,0,0,.62.67c.44.23.75.14,1-.26.31-.64-.4-1.63-1.55-2.32l.19-.38-.76-.4-.19.39c-1.44-.62-2.53-.44-3,.43s0,1.52.75,2.27c.18.19.38.39.6.59l-1.05,2.15c-.64-.4-.87-.82-.74-1.08a.6.6,0,0,1,.51-.34,1.05,1.05,0,0,0-.62-.67c-.44-.23-.75-.14-1,.26-.31.64.4,1.63,1.55,2.32l-.19.38.76.4.19-.39C-434.3,32.93-433.21,32.75-432.79,31.89Zm-2.55-5.08c.24-.49.79-.57,1.5-.31l-.92,1.88C-435.23,27.86-435.58,27.3-435.34,26.81Zm-.16,5,.92-1.89a2.75,2.75,0,0,1,.63,1,.8.8,0,0,1-.05.58C-434.24,32-434.79,32.07-435.5,31.81Z"/><path class="cls-3" d="M25.16,3V127.19h94.51c5,10.91,9.48,14.81,9.48,14.81-1.52-12.15,10.71-14.81,10.71-14.81V3Z"/><rect class="cls-4" x="14.46" y="17.81" width="114.69" height="124.19"/><circle class="cls-5" cx="40.92" cy="36.8" r="3.19"/><circle class="cls-5" cx="99.54" cy="36.8" r="3.19"/><path class="cls-6" d="M14.46,17.81H32.21V10.65C31.49,13.2,27.07,15.88,14.46,17.81Z"/><path class="cls-7" d="M119.1,3H25.47s7.88,3.67,6.74,7.65v7.16H119.1V11.28h0c-.09-2.6,4.7-5.6,21.4-8.28Z"/><path class="cls-6" d="M119.15,11.28h0v6.53h10S119.28,14.95,119.15,11.28Z"/><path class="cls-5" d="M97.43,38.75V57c0,10.82-12.21,19.61-27.21,19.61S43,67.79,43,57V38.75H38.94V57c0,13.06,14,23.68,31.28,23.68S101.5,70,101.5,57V38.75Z"/><path class="cls-8" d="M97.43,36.71V54.94c0,10.82-12.21,19.61-27.21,19.61S43,65.76,43,54.94V36.71H38.94V54.94c0,13.06,14,23.68,31.28,23.68S101.5,68,101.5,54.94V36.71Z"/><path class="cls-9" d="M69.5,102.43a9.87,9.87,0,1,0-9.87-9.87,9.88,9.88,0,0,0,9.87,9.87Zm0,0"/><path class="cls-9" d="M82.74,107.21h0c-1.28-.31-5.22-.86-5.22-.86a.87.87,0,0,0-1.08.54l-5.92,16.25a1.07,1.07,0,0,1-2,0l-5.92-16.25a.87.87,0,0,0-.82-.58c-.08,0-4.13.57-5.48.9-3.68.91-6,4.53-6,8.3V129a3.67,3.67,0,0,0,3.67,3.67H85.05A3.67,3.67,0,0,0,88.72,129V115.47a8.68,8.68,0,0,0-6-8.25Zm0,0"/><path class="cls-9" d="M71.73,106a1.26,1.26,0,0,0-.93-.39H68.2a1.26,1.26,0,0,0-.93.39,1.21,1.21,0,0,0-.16,1.42l1.39,2.1-.65,5.5,1.28,3.42a.39.39,0,0,0,.74,0l1.28-3.42-.65-5.5,1.39-2.1a1.21,1.21,0,0,0-.16-1.42Zm0,0"/></svg>