<svg xmlns="http://www.w3.org/2000/svg" xmlns:xlink="http://www.w3.org/1999/xlink" viewBox="0 0 500 502"><defs><style>.cls-1{isolation:isolate;}.cls-2{fill:#67b2dc;}.cls-24,.cls-25,.cls-3{fill:#fff;}.cls-4{fill:#0f253b;}.cls-5{fill:#d3dbdd;}.cls-6{fill:#608c74;}.cls-7{fill:#8f9b75;}.cls-8{fill:#e8eef0;}.cls-9{fill:#759375;}.cls-10{fill:#a6dcc8;}.cls-11{opacity:0.47;}.cls-12{fill:#209bbb;}.cls-13{fill:#666;}.cls-14{fill:#f2fafc;}.cls-15{fill:#f0b713;}.cls-16,.cls-22{fill:#999;}.cls-16{opacity:0.4;}.cls-16,.cls-17,.cls-22{mix-blend-mode:multiply;}.cls-17{fill:#7d7d7d;}.cls-17,.cls-22{opacity:0.58;}.cls-18{fill:url(#linear-gradient);}.cls-19{opacity:0.48;}.cls-20{fill:#ffffab;}.cls-21{fill:#c07139;}.cls-23{fill:#feca62;}.cls-24{opacity:0.46;}.cls-25{font-size:60px;font-family:DKStickyToffee-Regular, DK Sticky Toffee;}.cls-26{letter-spacing:-0.09em;}.cls-27{letter-spacing:-0.07em;}.cls-28{letter-spacing:-0.03em;}.cls-29{letter-spacing:-0.02em;}.cls-30{letter-spacing:-0.04em;}.cls-31{letter-spacing:-0.06em;}.cls-32{letter-spacing:-0.07em;}</style><linearGradient id="linear-gradient" x1="157.1" y1="341.88" x2="356.57" y2="142.41" gradientUnits="userSpaceOnUse"><stop offset="0" stop-color="#bb7241"/><stop offset="0.77" stop-color="#9f5f39"/><stop offset="1" stop-color="#965936"/></linearGradient></defs><g class="cls-1"><g id="Camada_1" data-name="Camada 1"><rect class="cls-2" x="-0.71" y="-0.21" width="500" height="500"/><path class="cls-3" d="M139.75,428.15c1.2-.06,12.72.36,14.28.3l7.2,14.64-.54-14.52,12.42.18c-.18,2.52-.42,32.34-.48,36.66L161,466.49l-9.3-16.44-.06-.06c-.12,0-.12.24.9,17l-11.7.72Z"/><path class="cls-3" d="M174.25,467.93s0-.24,9.72-41.58l15.66.18,12.3,40.5c-4.56.06-12.42,1-14.16.84l-1.44-9.66-6.42-.18-2.34,10h-.24Zm15.9-20.1h5.46l-3-12.54Z"/><path class="cls-3" d="M232,426h14.4c.36-1.68-.6,6.9-1.5,25.92,2,.3,5.52.12,12.24.54-.18,4.8-.18,9.42-.12,13.26l-25,.72C231.79,463,231.67,431,232,426Z"/><path class="cls-3" d="M257.23,447.17c-.9-29,39.06-29.58,39.42-1.8-.78,12.54-7.86,23.52-21.54,22.74C263.83,467.63,257.59,458.39,257.23,447.17Zm19.68,6.42c4.56,0,6.84-3.36,6.84-7.68,0-3.3-1-8-6.3-8-4.44,0-7.26,3.48-7,8.1C270.49,450.29,272.11,453.59,276.91,453.59Z"/><path class="cls-3" d="M295.33,462.71l2.88-13.62c16,12.42,12.3-15,10.62-23l13.8-1C328.63,449,319.21,476.09,295.33,462.71Z"/><path class="cls-3" d="M322.51,467.93s0-.24,9.72-41.58l15.66.18,12.3,40.5c-4.56.06-12.42,1-14.16.84l-1.44-9.66-6.42-.18-2.34,10h-.24Zm15.9-20.1h5.46l-3-12.54Z"/><path class="cls-4" d="M250.71,390.73C149.33,390.73,59,367.47.71,327.3V502.21h500V327.31C442.38,367.53,352.1,390.73,250.71,390.73Z"/><path class="cls-5" d="M299.55,102.2l-.57,1.92-1.77,6L295.47,116l-2.21,7.43-10,33.6-2.61,8.81-.1.35-.5,1.67-.53,1.79-.14.46-7.15,24.07L271.11,198l-.9,3-.58,2h0L265,218.61l-1.9,6.4-.27.91-.6,2-.62,2.1-1.16,3.88-2,6.67-1.24,4.17-4.43,14.95L232.75,327.3H143.92a3.37,3.37,0,0,1-3.38-3.38V203l.63-2.12,2.57-8.67,6.58-22.17.53-1.78.13-.47L154.19,157l9.28-31.3L180.92,67l38,11.28,9,2.68L258.42,90l4.41,1.32,11.05,3.27,20.51,6.1Z"/><path class="cls-6" d="M171.29,316.85A16.16,16.16,0,1,1,191.67,306,16.29,16.29,0,0,1,171.29,316.85Z"/><path class="cls-6" d="M213.88,173.42a16.16,16.16,0,1,1,20.38-10.8A16.3,16.3,0,0,1,213.88,173.42Z"/><path class="cls-7" d="M286.55,110l-21.71-6.45-31-9.19-13.13-3.89-9-2.68-24.08-7.15a15,15,0,0,0-1.87.89l-19.85,66.86L163.36,157l-4.55,15.32-10.4,35-7.87,26.52v45.07l1.41-4.74,7.22-24.35,21.28-71.66L176.75,157l4.11-13.84,7.12-24,2.8-9.44a18.78,18.78,0,0,0,3.79.71c7.72.65,14.89-3.65,17-10.68l1.72.51,13.13,3.9,29.06,8.62h0l.57.17a15.2,15.2,0,0,0,4,14.91,18.08,18.08,0,0,0,7.34,4.59l.63.2L260.8,157l-1.53,5.15L258.13,166l-.54,1.79-.66,2.25-4.85,16.33-1.1,3.73-7.43,25-1.33,4.48-1.16,3.9-5.82,19.62-2,6.92-7.12,24L210.25,327.3h13.34l3.22-10.82.66-2.25L245.66,253l1-3.31h0L248,245l2.32-7.83.07-.21.87-2.89v0l1.27-4.3,1.16-3.89,1.42-4.81,7.91-26.65,1.14-3.82,1.32-4.45,4.84-16.32.57-1.91.16-.53,1.11-3.78,1.95-6.54,13.46-45.34A11.69,11.69,0,0,0,286.55,110Z"/><path class="cls-6" d="M231.9,226.17a31.86,31.86,0,0,0-.71-4.86c0-.23-.1-.45-.16-.68a29.44,29.44,0,0,0-.86-3h0a35.17,35.17,0,0,0-2.62-5.92h0a34.56,34.56,0,0,0-10.39-11.4,30.86,30.86,0,0,0-2.72-1.71,34.06,34.06,0,0,0-7.16-3,35,35,0,0,0-4.21-1l-.64-.1a32.94,32.94,0,0,0-4.31-.35.79.79,0,0,0-.23,0,33.44,33.44,0,0,0-9.49,1.22,26.84,26.84,0,0,0-2.79.89,32.36,32.36,0,0,0-4.42,2,34.53,34.53,0,1,0,49.33,40.42.62.62,0,0,0,0-.13,33.88,33.88,0,0,0,1.38-8.08A32.12,32.12,0,0,0,231.9,226.17Zm-24.51,17.42a12.32,12.32,0,0,1-5.84.09l1.09-4.63.65-2.77a7.57,7.57,0,0,0,5.49-.95,4.84,4.84,0,0,0,2-2.86,5.36,5.36,0,0,0-.64-4.55,3.83,3.83,0,0,0-2.27-1.48c-1.59-.47-3.39,0-5.51,1.47-1.5,1.21-3.75,3-6.8,5.4a26,26,0,0,1-6.1,3.79l-.37.14a9.36,9.36,0,0,1-5.8.14,8.82,8.82,0,0,1-6.43-6.95,9.82,9.82,0,0,1-.21-1.42,12.43,12.43,0,0,1,.12-3.33l-3.89-1.16L174.5,219l3.86,1.12a14.92,14.92,0,0,1,2.41-3.88,9.68,9.68,0,0,1,4-2.79,9,9,0,0,1,4.85-.41l-1.19,7.62a6,6,0,0,0-4.13.72,4.66,4.66,0,0,0-1.79,2.78,4,4,0,0,0,.41,3.58,4.53,4.53,0,0,0,2.51,1.72c1.74.52,3.77,0,6.13-1.43a26,26,0,0,0,3.4-2.7c1.65-1.47,2.78-2.43,3.35-2.86a24.24,24.24,0,0,1,2.55-1.71,16.38,16.38,0,0,1,2.92-1.43,18.28,18.28,0,0,1,2.12-.67,9.49,9.49,0,0,1,3.22-.19,4.5,4.5,0,0,1,.71.16,9.69,9.69,0,0,1,2.76,1.2,9.31,9.31,0,0,1,3.19,3.52,8.83,8.83,0,0,1,.81,2.16h0a13.18,13.18,0,0,1,.3,3.87c-.06.62-.16,1.31-.27,2l3.85,1.1-.19.63-1.45,4.94-4-1.19a12.48,12.48,0,0,1-2.67,3.8A10.75,10.75,0,0,1,207.39,243.59Z"/><path class="cls-8" d="M341,121.95l-20.92,27.67L314.51,157l-14.42,19.08-2.42,3.21-15.42,20.39-2.41,3.2L263.1,225l-.68.9L260,229.17,258,231.72l-.48.64-3.13,4.14,0,0-.09.11L253,238.37,248,245l-4.52,6L226.06,274l-31,41L194,316.48h0l-8.18,10.82H143.92a3.37,3.37,0,0,1-3.38-3.38v-142l2-2.63,0,0,6.92-9.15,1.35-1.78.35-.47,6.84-9,1.34-1.78,6.54-8.65L188,119.16l6.59-8.73,10.77-14.25,6.38-8.44,7.18-9.5L242.3,47.3l45,34,23.31,17.61,13.93,10.54,13.39,10.13Z"/><path class="cls-6" d="M235.78,158.55a16.15,16.15,0,1,1,22.87-3A16.3,16.3,0,0,1,235.78,158.55Z"/><path class="cls-9" d="M326.11,124.64l-1.22-.91-6-4.58-17.48-13.21-2.4-1.81-4.58-3.46L279.27,89.23,243.8,62.41a17.11,17.11,0,0,0-2.06.19L227.9,80.92l-7.18,9.5-7.44,9.84-32.42,42.9L170.39,157l-8.18,10.83-1.06,1.4-2.34,3.09-15.07,19.93-3.2,4.23v21.27l7.87-10.41,22-29.16,16-21.18,39.94-52.84,7.44-9.85,2.66-3.51c7,5.32,16.51,4.85,21.91-.82a12.26,12.26,0,0,0,1-1.23l3.37,2.54L271,97.45l22.59,17.06,1.9,1.45,1,.78a14.22,14.22,0,0,0-2.84,7.48,17.43,17.43,0,0,0,7.14,15.17L287.5,157l-6.7,8.86-.23.3-1.27,1.67-1,1.36-.67.89-12.1,16-2.89,3.83-2.48,3.27-16.6,22-2.79,3.69L238.32,222l-6.37,8.42L227.74,236l-19.19,25.38L187.17,289.7l-18.54,24.52-.86,1.13-.86,1.13L162,323c-6.88-5.19-16-4.91-21.48.39v.57a3.37,3.37,0,0,0,3.38,3.38h30.85l8.7-11.5.3-.4.87-1.14,7.4-9.79h0L233.19,250l3.91-5.17,12.63-16.72,2.43-3.21,3-4,15.07-19.93,1.91-2.53.8-1.06h0l1.62-2.15,15.78-20.86,1.23-1.62,1.19-1.59.88-1.16,1.71-2.25L303.52,157l10.29-13.61h0l12.68-16.77A13.52,13.52,0,0,0,326.11,124.64Z"/><path class="cls-6" d="M207.28,195.58a35,35,0,0,0-4.21-1l-.64-.1c-.61.87-1.2,1.76-1.78,2.66l0,0s0,0,0,.06c-.17.26-.35.55-.52.83s-.36.57-.52.86-.34.56-.5.86-.33.58-.48.87-.16.28-.22.43l.15-.06.46-.17.9-.35c2-.79,3.41-1.28,4.11-1.47h0a19.41,19.41,0,0,1,8.44-.91,10.77,10.77,0,0,1,2,.48A34.06,34.06,0,0,0,207.28,195.58Zm-19.62,2.62c0,.12,0,.24.08.36a4.42,4.42,0,0,0,1.74,2.5,5.22,5.22,0,0,0,2.19.93Zm19.62-2.62a35,35,0,0,0-4.21-1l-.64-.1c-.61.87-1.2,1.76-1.78,2.66l0,0s0,0,0,.06c-.17.26-.35.55-.52.83s-.36.57-.52.86-.34.56-.5.86-.33.58-.48.87-.16.28-.22.43l.15-.06.46-.17.9-.35c2-.79,3.41-1.28,4.11-1.47h0a19.41,19.41,0,0,1,8.44-.91,10.77,10.77,0,0,1,2,.48A34.06,34.06,0,0,0,207.28,195.58Zm-19.62,2.62c0,.12,0,.24.08.36a4.42,4.42,0,0,0,1.74,2.5,5.22,5.22,0,0,0,2.19.93Zm19.62-2.62a35,35,0,0,0-4.21-1l-.64-.1c-.61.87-1.2,1.76-1.78,2.66l0,0s0,0,0,.06c-.17.26-.35.55-.52.83s-.36.57-.52.86-.34.56-.5.86-.33.58-.48.87-.16.28-.22.43l.15-.06.46-.17.9-.35c2-.79,3.41-1.28,4.11-1.47h0a19.41,19.41,0,0,1,8.44-.91,10.77,10.77,0,0,1,2,.48A34.06,34.06,0,0,0,207.28,195.58Zm-19.62,2.62c0,.12,0,.24.08.36a4.42,4.42,0,0,0,1.74,2.5,5.22,5.22,0,0,0,2.19.93Zm43-11.39A32.88,32.88,0,0,0,228,183a34.61,34.61,0,0,0-5.83-5.72c-.1-.09-.21-.17-.32-.25s-.29-.23-.45-.33a.12.12,0,0,0-.06,0,32.24,32.24,0,0,0-3.57-2.27,5.22,5.22,0,0,0-.55-.3,0,0,0,0,0,0,0,35.58,35.58,0,0,0-4.3-1.92,35.12,35.12,0,0,0-4.07-1.2h0a34.07,34.07,0,0,0-5.81-.83,32,32,0,0,0-3.91,0c-.56,0-1.1.08-1.67.13h0a34.54,34.54,0,0,0-17.24,61.91,34,34,0,0,0,9.27,5,34.65,34.65,0,0,0,30.87-3.93c.84-.57,1.68-1.18,2.48-1.84a34.58,34.58,0,0,0,5.76-6,35.56,35.56,0,0,0,2.66-4.07c.45-.8.86-1.61,1.23-2.43q.27-.57.51-1.15c.35-.86.66-1.72.95-2.59A34.61,34.61,0,0,0,230.63,186.82Zm-12.92,34.08-3.32-2.51a11.66,11.66,0,0,1-1.78,1.46,9.72,9.72,0,0,1-1.23.75c-.27.16-.55.28-.82.4a10.75,10.75,0,0,1-5.5,1,11.54,11.54,0,0,1-4.16-1.21,14.38,14.38,0,0,1-1.33-.75l4.23-6.31.6.3a7.11,7.11,0,0,0,4.87.74,4.85,4.85,0,0,0,2.85-2,5.35,5.35,0,0,0,1-4.23h0a1.82,1.82,0,0,0,0-.24,4,4,0,0,0-1.61-2.18,5.65,5.65,0,0,0-4.37-.81,12.48,12.48,0,0,0-1.32.25c-1.73.57-4.31,1.42-7.74,2.51l-.53.17a25,25,0,0,1-7.44,1.42,9.39,9.39,0,0,1-5.47-1.91,8.8,8.8,0,0,1-3.58-8.76c0-.24.08-.47.12-.71a12.45,12.45,0,0,1,1.46-3.77L179.41,192l1.22-1.62,2.26-3,3.22,2.41a15,15,0,0,1,3.62-2.79,9.59,9.59,0,0,1,4.76-1.19,8.9,8.9,0,0,1,3.32.65,8,8,0,0,1,1.36.66l-1.11,2-2.67,4.74a5.91,5.91,0,0,0-4.12-.77,4.57,4.57,0,0,0-2.67,2,2.51,2.51,0,0,0-.2.3,3.88,3.88,0,0,0-.74,2.81h0c0,.12,0,.24.08.36a4.42,4.42,0,0,0,1.74,2.5,5.22,5.22,0,0,0,2.19.93,6.64,6.64,0,0,0,1.68.13,2.68,2.68,0,0,0,.52,0,12.67,12.67,0,0,0,1.86-.24,20.63,20.63,0,0,0,2.62-.77l.15-.06.46-.17.9-.35c2-.79,3.41-1.28,4.11-1.47h0a19.41,19.41,0,0,1,8.44-.91,10.77,10.77,0,0,1,2,.48,5.73,5.73,0,0,1,1.7.86,7.49,7.49,0,0,1,1,.86A9.08,9.08,0,0,1,220,206a7.94,7.94,0,0,1,.06,1.72,12,12,0,0,1-1,4c0,.11-.09.23-.13.34-.27.56-.61,1.17-1,1.82l3.23,2.39Zm-30-22.69c0,.12,0,.24.08.36a4.42,4.42,0,0,0,1.74,2.5,5.22,5.22,0,0,0,2.19.93Zm19.62-2.62a35,35,0,0,0-4.21-1l-.64-.1c-.61.87-1.2,1.76-1.78,2.66l0,0s0,0,0,.06c-.17.26-.35.55-.52.83s-.36.57-.52.86-.34.56-.5.86-.33.58-.48.87-.16.28-.22.43l.15-.06.46-.17.9-.35c2-.79,3.41-1.28,4.11-1.47h0a19.41,19.41,0,0,1,8.44-.91,10.77,10.77,0,0,1,2,.48A34.06,34.06,0,0,0,207.28,195.58Zm-19.62,2.62c0,.12,0,.24.08.36a4.42,4.42,0,0,0,1.74,2.5,5.22,5.22,0,0,0,2.19.93Zm19.62-2.62a35,35,0,0,0-4.21-1l-.64-.1c-.61.87-1.2,1.76-1.78,2.66l0,0s0,0,0,.06c-.17.26-.35.55-.52.83s-.36.57-.52.86-.34.56-.5.86-.33.58-.48.87-.16.28-.22.43l.15-.06.46-.17.9-.35c2-.79,3.41-1.28,4.11-1.47h0a19.41,19.41,0,0,1,8.44-.91,10.77,10.77,0,0,1,2,.48A34.06,34.06,0,0,0,207.28,195.58Zm-19.62,2.62c0,.12,0,.24.08.36a4.42,4.42,0,0,0,1.74,2.5,5.22,5.22,0,0,0,2.19.93Zm19.62-2.62a35,35,0,0,0-4.21-1l-.64-.1c-.61.87-1.2,1.76-1.78,2.66l0,0s0,0,0,.06c-.17.26-.35.55-.52.83s-.36.57-.52.86-.34.56-.5.86-.33.58-.48.87-.16.28-.22.43l.15-.06.46-.17.9-.35c2-.79,3.41-1.28,4.11-1.47h0a19.41,19.41,0,0,1,8.44-.91,10.77,10.77,0,0,1,2,.48A34.06,34.06,0,0,0,207.28,195.58Zm-19.62,2.62c0,.12,0,.24.08.36a4.42,4.42,0,0,0,1.74,2.5,5.22,5.22,0,0,0,2.19.93Zm19.62-2.62a35,35,0,0,0-4.21-1l-.64-.1c-.61.87-1.2,1.76-1.78,2.66l0,0s0,0,0,.06c-.17.26-.35.55-.52.83s-.36.57-.52.86-.34.56-.5.86-.33.58-.48.87-.16.28-.22.43l.15-.06.46-.17.9-.35c2-.79,3.41-1.28,4.11-1.47h0a19.41,19.41,0,0,1,8.44-.91,10.77,10.77,0,0,1,2,.48A34.06,34.06,0,0,0,207.28,195.58Z"/><path class="cls-10" d="M306.35,70.06l71.8,67.81a5.26,5.26,0,0,1,0,7.62L261.8,260.58a5.7,5.7,0,0,1-7.89.18L182.11,193a5.26,5.26,0,0,1,0-7.62L298.47,70.24A5.71,5.71,0,0,1,306.35,70.06Z"/><g class="cls-11"><path class="cls-12" d="M308.79,184l-.09-.09c-.78-.84-1.58-1.68-2.41-2.48a66.77,66.77,0,0,0-13.54-10.17q-.76-.44-1.52-.84l-.61-.31c-.81-.43-1.62-.84-2.45-1.23a67.24,67.24,0,0,0-7.37-3l-.12,0a70.29,70.29,0,0,0-21.4-3.66,71.51,71.51,0,0,0-16.66,1.68l-1.82.42a72.44,72.44,0,0,0-8.52,2.62l-.26.1c-1.74.66-3.47,1.41-5.15,2.21l-.08,0c-.59.27-1.17.56-1.74.86-1.68.86-3.32,1.78-4.92,2.76-.35.2-.69.42-1,.64l-1,.63-.38.25-1.2.82c-1.26.88-2.5,1.8-3.7,2.76h0a66.2,66.2,0,0,0-5.27,4.61,69.82,69.82,0,0,0-6.41,7.1c-.46.6-.92,1.2-1.36,1.81-.66.88-1.28,1.79-1.89,2.7s-1.25,1.94-1.83,2.93c-.15.26-.3.52-.44.78-.82,1.4-1.58,2.81-2.26,4.27-.16.34-.32.66-.46,1l.57.54h0l2.47,2.33c.42-.94.86-1.89,1.33-2.79.33-.72.7-1.42,1.09-2.12.07-.15.15-.28.22-.43s.3-.59.48-.87.34-.57.5-.86.34-.56.52-.86.35-.57.52-.83c0,0,0,0,0-.06l0,0c.57-.9,1.17-1.79,1.78-2.66l.71-1c.38-.51.77-1,1.16-1.52l.29-.37.79-1c.26-.33.53-.64.81-1,.5-.58,1-1.16,1.54-1.72s1.11-1.19,1.69-1.77c.32-.33.64-.66,1-1,.52-.52,1-1,1.59-1.51s1.33-1.19,2-1.76a2.45,2.45,0,0,1,.26-.23c.56-.46,1.12-.92,1.7-1.36q1.59-1.23,3.24-2.36c.69-.48,1.4-.94,2.1-1.38,1.17-.74,2.36-1.45,3.58-2.12a63.5,63.5,0,0,1,6.62-3.17.17.17,0,0,0,.12,0c.64-.28,1.29-.52,2-.78l1.24-.46.83-.29c1.36-.46,2.77-.89,4.15-1.27,0,0,0,0,0,0,.63-.18,1.24-.34,1.86-.48.29-.08.6-.15.9-.2s.79-.19,1.19-.27A67.47,67.47,0,0,1,258.13,166a66.45,66.45,0,0,1,13,1.28c.78.16,1.54.32,2.31.51,1.65.38,3.29.84,4.89,1.36.42.13.84.27,1.26.43s.73.24,1.09.38a63.8,63.8,0,0,1,6.82,2.92c.6.28,1.18.59,1.77.91l1.11.62.6.34a61.5,61.5,0,0,1,6.74,4.5,62.38,62.38,0,0,1,5.76,5c.4.4.82.81,1.2,1.23a60.38,60.38,0,0,1,12.92,20l3.12-3.08A64.47,64.47,0,0,0,308.79,184Z"/><path class="cls-12" d="M244.41,169.95c-.17-.71-.35-1.42-.55-2.13l-.07-.27c-.19-.66-.41-1.35-.62-2l-.55-1.69v0l-1.82.44a72.44,72.44,0,0,0-8.52,2.62l-.26.1c-1.74.66-3.47,1.41-5.15,2.21l-.08,0c-.59.27-1.17.56-1.74.86-1.68.86-3.32,1.78-4.92,2.76-.35.2-.69.42-1,.64l-1,.63-.38.25-1.2.82c-1.26.88-2.5,1.8-3.7,2.76h0a66.2,66.2,0,0,0-5.27,4.61,69.82,69.82,0,0,0-6.41,7.1c-.46.6-.92,1.2-1.36,1.81-.66.88-1.28,1.79-1.89,2.7s-1.25,1.94-1.83,2.93c-.15.26-.3.52-.44.78-.82,1.4-1.58,2.81-2.26,4.27-.16.34-.32.66-.46,1l.57.54h0l2.47,2.33c.42-.94.86-1.89,1.33-2.79.33-.72.7-1.42,1.09-2.12.07-.15.15-.28.22-.43s.3-.59.48-.87.34-.57.5-.86.34-.56.52-.86.35-.57.52-.83v0l0,0,0,0c.57-.9,1.17-1.79,1.78-2.66l.71-1c.38-.51.77-1,1.16-1.52l.29-.37.79-1,.82-.95c.5-.59,1-1.17,1.54-1.73s1.15-1.23,1.74-1.81c.3-.31.62-.62.93-.91.53-.53,1.06-1,1.6-1.51s1.35-1.2,2-1.77,1.31-1.08,2-1.59c1-.81,2.1-1.59,3.18-2.33.7-.48,1.42-.95,2.14-1.4,1.11-.72,2.25-1.4,3.41-2l.06,0a1.69,1.69,0,0,1,.28-.15s.06-.06.08-.06l.51-.28c.74-.39,1.49-.77,2.23-1.12,0,0,0,0,.06,0,1.15-.57,2.34-1.13,3.52-1.63a.17.17,0,0,0,.12,0c.64-.28,1.29-.52,2-.78l1.24-.46.83-.29c1.36-.46,2.77-.89,4.15-1.27,0,0,0,0,0,0,.15.52.29,1,.42,1.56a60.07,60.07,0,0,1,1.88,14.12c0,1.29,0,2.6-.08,3.89a62.63,62.63,0,0,1-7.77,27.28c-.3.58-.63,1.15-1,1.72l-.39.64c-.21.36-.44.71-.66,1.06-.39.62-.8,1.24-1.23,1.84a63.35,63.35,0,0,1-8.73,10.28l.47.45,2.43,2.3a67.69,67.69,0,0,0,6.7-7.48,66.22,66.22,0,0,0,3.86-5.5c.36-.57.71-1.14,1-1.71s.68-1.14,1-1.71a67,67,0,0,0,8.26-28.36c.09-1.31.12-2.62.1-3.94A62,62,0,0,0,244.41,169.95Z"/><path class="cls-12" d="M300.26,213.47c-1.2.66-2.39,1.38-3.55,2.12a70.94,70.94,0,0,0-21.64,21.69c-.35.56-.7,1.13-1,1.69s-.68,1.15-1,1.73a66.32,66.32,0,0,0-6,14.72l0,0,6.31-6.26a64.51,64.51,0,0,1,3.14-6.54c.32-.6.65-1.17,1-1.73s.69-1.14,1-1.69A66.49,66.49,0,0,1,296,220.81c1.18-.86,2.4-1.66,3.63-2.44s2.32-1.4,3.5-2.06l.57-.3c2-1.06,4-2,6.1-2.87l6.39-6.32A71.54,71.54,0,0,0,300.26,213.47Z"/><polygon class="cls-12" points="291.97 173.04 290.93 174.77 277.76 197.04 275.74 200.47 259.05 228.67 257.04 232.08 245.02 252.37 242.07 249.57 253.53 230.2 255.57 226.78 272.26 198.58 274.29 195.16 287.45 172.91 288.49 171.16 291.97 173.04"/><polygon class="cls-12" points="278.57 239.15 281.75 240.85 278.79 243.78 276.54 242.57 273.05 240.69 257.04 232.08 253.53 230.2 235.77 220.66 232.26 218.79 198.65 200.72 198.59 200.68 196.78 199.72 198.83 196.31 200.58 197.25 200.6 197.27 200.68 197.29 234.29 215.36 237.8 217.25 255.57 226.78 259.05 228.67 275.08 237.27 278.57 239.15"/><path class="cls-12" d="M303.1,216.31a1.27,1.27,0,0,0-.12-.12c-.87-.92-1.8-1.83-2.71-2.72a106,106,0,0,0-18-13.8c-1.46-.9-3-1.78-4.49-2.62-.55-.35-1.15-.65-1.73-1s-1-.53-1.47-.77l-.27-.13-2-1c-2.67-1.32-5.37-2.53-8.07-3.62-.52-.21-1-.42-1.58-.62a107.12,107.12,0,0,0-10.54-3.5q-3-.83-5.91-1.45c-1.35-.28-2.69-.56-4-.75A81.65,81.65,0,0,0,228,183a55.53,55.53,0,0,0-14.34,1.83c-.95.26-1.88.55-2.77.87-.46.16-.91.33-1.36.51,0,0,0,0-.07,0a30.21,30.21,0,0,0-7.46,4.22c-.19.15-.38.29-.56.45-.39.33-.76.66-1.14,1a24.06,24.06,0,0,0-2.14,2.28,22.84,22.84,0,0,0-2.06,2.93c-.15.26-.3.52-.44.78a22,22,0,0,0-1.74,4.24c-.16.52-.29,1-.41,1.56h0l2.47,2.33,1,1a18.8,18.8,0,0,1,1.52-5.94c0-.11.09-.22.15-.34.14-.3.27-.6.42-.9s.34-.57.5-.86.34-.56.52-.86l.6-.82a19,19,0,0,1,2.4-2.67c.3-.27.61-.54.92-.8a1.27,1.27,0,0,1,.19-.15,24,24,0,0,1,3.82-2.53c5.93-3.23,13.78-4.64,22.63-4.32a78.56,78.56,0,0,1,11.42,1.27c1.32.24,2.66.5,4,.8,1.62.37,3.25.79,4.91,1.24,3,.87,6.1,1.88,9.17,3,1,.37,1.95.75,2.92,1.16q4,1.65,8.06,3.67l1,.52.14.07c.57.28,1.17.59,1.74.91s1.19.63,1.73,1c1.41.78,2.77,1.58,4.11,2.4a104,104,0,0,1,16.87,12.72c.86.75,1.66,1.53,2.43,2.33.16.15.3.31.45.46.81.82,1.61,1.65,2.36,2.49l2.79-2.76Q304,217.21,303.1,216.31Z"/></g><path class="cls-13" d="M261.64,239.73a.72.72,0,0,0-.21-.35l-.37.37-.1-.09a1.09,1.09,0,0,0-.51-.26.29.29,0,0,0-.27.06l-1.42,1.4-.28-.26-4.15-3.94h0l-1.61-1.52a.5.5,0,0,0-.37-.15.75.75,0,0,0-.47.26l-.35.34-.63.65a3.44,3.44,0,0,0-.42.57.46.46,0,0,0,0,.1l-.07.21a.64.64,0,0,0,0,.2.85.85,0,0,0,.28.48.65.65,0,0,0,.34.18.84.84,0,0,0,.37,0,1.47,1.47,0,0,0,.38-.17,3.52,3.52,0,0,0,.38-.28l.9.86.19.18,4,3.83-1.38,1.36a1,1,0,0,0-.2.27.59.59,0,0,0-.1.33.74.74,0,0,0,0,.35.83.83,0,0,0,.21.33.91.91,0,0,0,.35.21.79.79,0,0,0,.36,0,.73.73,0,0,0,.34-.12,1.27,1.27,0,0,0,.27-.2l.13-.14,4.16-4.12a1.07,1.07,0,0,0,.16-.25.81.81,0,0,0,.1-.32A.56.56,0,0,0,261.64,239.73Z"/><path class="cls-13" d="M269.64,231.82a.76.76,0,0,0-.23-.34,1,1,0,0,0-.37-.18.85.85,0,0,0-.38,0,1.07,1.07,0,0,0-.35.14,1.16,1.16,0,0,0-.32.25l-1.16,1.14-2.59,2.57-.7-.67a2.69,2.69,0,0,1-.62-.76.8.8,0,0,1,0-.66,2.24,2.24,0,0,1,.5-.75c.25-.28.57-.62,1-1l0,0a8.19,8.19,0,0,0,1-1.25,2.36,2.36,0,0,0,.37-1.15,1.92,1.92,0,0,0-.28-1.09,4.71,4.71,0,0,0-1-1.16l0,0a4.31,4.31,0,0,0-1.19-.8,2.39,2.39,0,0,0-.48-.12,1.22,1.22,0,0,0-.41,0,1,1,0,0,0-.31,0,3.26,3.26,0,0,0-1.33.57,6.94,6.94,0,0,0-.82.63h0a8,8,0,0,0-.72.67c-.21.21-.42.42-.61.63l-.39.45a6.26,6.26,0,0,0-.72,1,2.53,2.53,0,0,0-.32.88.74.74,0,0,0,.2.65l0,0a1,1,0,0,0,.62.27h0a.93.93,0,0,0,.63-.26l.06-.05a1.45,1.45,0,0,0,.33-.46,2,2,0,0,1,.24-.51,2.71,2.71,0,0,1,.42-.64,6.43,6.43,0,0,1,.46-.52l.23-.24a7.29,7.29,0,0,1,.88-.75,2,2,0,0,1,.67-.34,1.08,1.08,0,0,1,.27,0,.65.65,0,0,1,.29.07,2.62,2.62,0,0,1,.58.4l0,0a1.81,1.81,0,0,1,.4.48.79.79,0,0,1,.12.46,1.11,1.11,0,0,1-.17.47,3.32,3.32,0,0,1-.45.54l-.26.26-.82.84a6.36,6.36,0,0,0-.89,1.13,2.69,2.69,0,0,0-.39,1.09,1.52,1.52,0,0,0,0,.31,1.93,1.93,0,0,0,.23.8,3.87,3.87,0,0,0,.89,1.15l1.55,1.46a.92.92,0,0,0,.66.29,1.41,1.41,0,0,0,.83-.49l.63-.63,2.95-2.91.82-.81a1.46,1.46,0,0,0,.26-.34,1.06,1.06,0,0,0,.15-.36A.69.69,0,0,0,269.64,231.82Z"/><path class="cls-13" d="M276.92,223.09a4.92,4.92,0,0,0-1-1.2,7.73,7.73,0,0,0-.72-.62,5.93,5.93,0,0,0-.57-.35,1.55,1.55,0,0,0-.45-.13,1,1,0,0,0-.36,0,2.61,2.61,0,0,0-.06-.43,2.26,2.26,0,0,0-.19-.46c-.1-.16-.23-.33-.37-.52a7,7,0,0,0-.57-.61,4.64,4.64,0,0,0-1.25-.87,1.91,1.91,0,0,0-1.17-.1,3.32,3.32,0,0,0-1.27.62,12.82,12.82,0,0,0-1.52,1.31,11.92,11.92,0,0,0-1.09,1.24,4.32,4.32,0,0,0-.58,1,1.7,1.7,0,0,0-.11.79,1.21,1.21,0,0,0,.29.62h0a.8.8,0,0,0,.6.2,1.07,1.07,0,0,0,.65-.3l0-.06a.91.91,0,0,0,.19-.24.83.83,0,0,0,.12-.23,2,2,0,0,0,.07-.24,1.48,1.48,0,0,1,.09-.27,1.82,1.82,0,0,1,.38-.65,7.22,7.22,0,0,1,.61-.69l.07-.07a7.11,7.11,0,0,1,.82-.71,1.37,1.37,0,0,1,.61-.25.8.8,0,0,1,.54.13,5,5,0,0,1,.54.44,2.82,2.82,0,0,1,.4.47.74.74,0,0,1,.14.38.57.57,0,0,1-.09.35,1.72,1.72,0,0,1-.27.35l-1.53,1.51a1.28,1.28,0,0,0-.36.63.68.68,0,0,0,.26.69.85.85,0,0,0,.36.23.9.9,0,0,0,.35,0,1,1,0,0,0,.33-.13,2.81,2.81,0,0,0,.29-.25l1.63-1.59a.8.8,0,0,1,.71-.3,2,2,0,0,1,.89.57,2.05,2.05,0,0,1,.45.55.89.89,0,0,1,.12.56,1.58,1.58,0,0,1-.26.64,5.32,5.32,0,0,1-.68.81l-.1.1a6.89,6.89,0,0,1-.67.61,3.07,3.07,0,0,1-.44.34,1,1,0,0,1-.33.17,1.23,1.23,0,0,1-.27.08l-.17,0-.17,0-.23.1-.27.24,0,0a1,1,0,0,0-.28.61.76.76,0,0,0,.26.65l0,0a1.17,1.17,0,0,0,.6.28,1.63,1.63,0,0,0,.64-.07,3.82,3.82,0,0,0,.68-.32,7,7,0,0,0,.65-.47c.23-.17.42-.34.62-.52s.36-.36.5-.51l.1-.1a10.78,10.78,0,0,0,1.41-1.63,3,3,0,0,0,.59-1.33A1.82,1.82,0,0,0,276.92,223.09Z"/><path class="cls-13" d="M285.38,216.23a.83.83,0,0,0-.16-.25l-2.59-2.43.25-.26a1.28,1.28,0,0,0,.35-.65.86.86,0,0,0-1-.9,1.39,1.39,0,0,0-.65.39l0,0-.17.2-2.72-2.57a.88.88,0,0,0-.65-.23,1.18,1.18,0,0,0-.75.39,1,1,0,0,0-.37.71.81.81,0,0,0,.27.62l2.71,2.57-1.9,1.88-2.68-2.53a.91.91,0,0,0-.69-.27,1.22,1.22,0,0,0-.76.4,1.16,1.16,0,0,0-.28.4,1.13,1.13,0,0,0-.06.38,1.09,1.09,0,0,0,.09.34,1.14,1.14,0,0,0,.2.26l3.51,3.31a.68.68,0,0,0,.39.21c.11,0,.26-.09.45-.28l2.95-2.91,2.59,2.44a.81.81,0,0,0,.26.16.82.82,0,0,0,.34,0,1.06,1.06,0,0,0,.39-.08,1.42,1.42,0,0,0,.41-.27,1.4,1.4,0,0,0,.28-.42,1,1,0,0,0,.08-.38A1.38,1.38,0,0,0,285.38,216.23Z"/><path class="cls-13" d="M299,201.23a4.55,4.55,0,0,0-1-1.19,5.91,5.91,0,0,0-1.19-.92,2,2,0,0,0-1-.27,2.07,2.07,0,0,0-1,.35,6.19,6.19,0,0,0-1.18,1l-2,2-1.95-1.83,3-3,.33-.34a1,1,0,0,0,.2-.34.56.56,0,0,0,0-.36,1.41,1.41,0,0,0-.27-.4h0a.58.58,0,0,0-.42-.2.75.75,0,0,0-.42,0,1.31,1.31,0,0,0-.37.19,2.35,2.35,0,0,0-.29.25l-.33.31-.61.61c-.24.23-.5.48-.77.77l-.8.8-.69.69-.46.45a1.33,1.33,0,0,0-.5.81.86.86,0,0,0,.32.63l2.87,2.71a4,4,0,0,0,.5.41.78.78,0,0,0,.43.12,1.07,1.07,0,0,0,.43-.19,4,4,0,0,0,.56-.5l2.58-2.54a.77.77,0,0,1,.72-.29,2.11,2.11,0,0,1,.87.57,2.33,2.33,0,0,1,.45.53.89.89,0,0,1,.12.56,1.2,1.2,0,0,1-.26.63,3.78,3.78,0,0,1-.66.81c-.3.3-.56.54-.77.71a4.22,4.22,0,0,1-.53.37.88.88,0,0,1-.36.16l-.29.08a1.4,1.4,0,0,0-.29.11,2.06,2.06,0,0,0-.39.28l0,0a1,1,0,0,0-.27.62.7.7,0,0,0,.24.62h0a1.06,1.06,0,0,0,.86.28,2.21,2.21,0,0,0,.92-.29,4.76,4.76,0,0,0,.9-.64l.79-.72.33-.33a11.55,11.55,0,0,0,1.41-1.62,3.27,3.27,0,0,0,.58-1.31A1.77,1.77,0,0,0,299,201.23Z"/><path class="cls-13" d="M307.24,192.85a4.2,4.2,0,0,0-.87-1.1,4.72,4.72,0,0,0-1.17-.86,2.59,2.59,0,0,0-1.2-.29,2.76,2.76,0,0,0-1.26.36,6.19,6.19,0,0,0-1.4,1.09c-.19.18-.42.4-.67.7a12.82,12.82,0,0,0-.89,1l-2.48-2.36a.9.9,0,0,0-.64-.25,1.19,1.19,0,0,0-.75.38,1.32,1.32,0,0,0-.29.41,1,1,0,0,0-.09.38.78.78,0,0,0,.07.33,1.2,1.2,0,0,0,.19.26l5,4.74a3.08,3.08,0,0,0,1.23.75,2.6,2.6,0,0,0,1.25,0,3.36,3.36,0,0,0,1.27-.54,7.86,7.86,0,0,0,1.27-1,8.24,8.24,0,0,0,1.23-1.52,3.15,3.15,0,0,0,.45-1.32A2.24,2.24,0,0,0,307.24,192.85Zm-2,2.14a6,6,0,0,1-.6.66,3.45,3.45,0,0,1-.73.59,1.36,1.36,0,0,1-.63.21,1.2,1.2,0,0,1-.61-.14,2.74,2.74,0,0,1-.61-.45l-1-.93.23-.29a1.49,1.49,0,0,1,.21-.27l.33-.34c.15-.14.32-.32.53-.53a6.23,6.23,0,0,1,.73-.63,1.43,1.43,0,0,1,.61-.27.93.93,0,0,1,.56.1,2.79,2.79,0,0,1,.64.46,2.21,2.21,0,0,1,.51.65,1,1,0,0,1,.11.6A1.8,1.8,0,0,1,305.19,195Z"/><path class="cls-13" d="M314.79,186.69l-6-5.68a3.24,3.24,0,0,0-.58-.44.85.85,0,0,0-.51-.12,1.25,1.25,0,0,0-.57.23,6,6,0,0,0-.71.62l-.11.11-2.86,2.84-.9.89a1.12,1.12,0,0,0-.35.65.72.72,0,0,0,.24.65.75.75,0,0,0,.71.24,1.4,1.4,0,0,0,.66-.37l.84-.83,2.8-2.78,1.26,1.19.09.09,4.49,4.22a.92.92,0,0,0,.66.27,1.18,1.18,0,0,0,.75-.39,1.11,1.11,0,0,0,.36-.72A.82.82,0,0,0,314.79,186.69Z"/><path class="cls-13" d="M322.58,177.91a4.61,4.61,0,0,0-1-1.19,6.89,6.89,0,0,0-1.19-.92,2,2,0,0,0-1-.27,2.15,2.15,0,0,0-1,.35,6.68,6.68,0,0,0-1.17,1l-2,2L313.18,177l3-3,.31-.33a1.08,1.08,0,0,0,.2-.34.55.55,0,0,0,0-.36,1.27,1.27,0,0,0-.27-.41h0a.66.66,0,0,0-.41-.21.8.8,0,0,0-.43,0,1.91,1.91,0,0,0-.37.18l-.29.25s-.15.16-.31.32l-.62.61-.76.78-.8.8-.69.68-.46.46a1.37,1.37,0,0,0-.49.81.88.88,0,0,0,.31.63l2.87,2.71a3,3,0,0,0,.49.39.63.63,0,0,0,.43.12.89.89,0,0,0,.43-.18,4.73,4.73,0,0,0,.56-.5l2.58-2.54a.81.81,0,0,1,.72-.3,2.32,2.32,0,0,1,.88.57,2.57,2.57,0,0,1,.44.54,1,1,0,0,1,.14.55,1.35,1.35,0,0,1-.27.64,4.15,4.15,0,0,1-.66.81,9,9,0,0,1-.77.7,3.38,3.38,0,0,1-.53.38,1,1,0,0,1-.36.16,1.68,1.68,0,0,0-.28.07,3,3,0,0,0-.3.12,1.38,1.38,0,0,0-.39.28l0,0a.91.91,0,0,0-.28.61.73.73,0,0,0,.24.63h0a1.14,1.14,0,0,0,.87.28,2.09,2.09,0,0,0,.91-.3,4.25,4.25,0,0,0,.9-.63c.28-.26.55-.49.79-.73l.33-.33a11.45,11.45,0,0,0,1.41-1.61,3.25,3.25,0,0,0,.59-1.31A1.8,1.8,0,0,0,322.58,177.91Z"/><path class="cls-13" d="M336.34,164.27a4.89,4.89,0,0,0-.79-.93c-.3-.28-.55-.51-.73-.65a1.28,1.28,0,0,0-.57-.29,1.22,1.22,0,0,0-.63,0,7.55,7.55,0,0,0-.93.33,7.25,7.25,0,0,0,.35-.86,1,1,0,0,0,0-.6,1.38,1.38,0,0,0-.35-.57c-.18-.19-.43-.44-.75-.74a3.85,3.85,0,0,0-1.16-.79,2,2,0,0,0-1.16-.11,3.39,3.39,0,0,0-1.27.57,10.09,10.09,0,0,0-1.48,1.25,10,10,0,0,0-1.25,1.44,3.15,3.15,0,0,0-.54,1.22,1.89,1.89,0,0,0,.16,1.11,4.36,4.36,0,0,0,.88,1.13c.33.3.59.54.8.71a1.36,1.36,0,0,0,.57.3,1.06,1.06,0,0,0,.64,0,6.18,6.18,0,0,0,.91-.38,8.68,8.68,0,0,0-.3,1,1.59,1.59,0,0,0,0,.45,1.22,1.22,0,0,0,0,.19,1.55,1.55,0,0,0,.29.53c.16.17.37.37.63.62a5,5,0,0,0,1,.71,1.78,1.78,0,0,0,.6.2,2.32,2.32,0,0,0,.48,0h.08a3.3,3.3,0,0,0,1.24-.44,8.14,8.14,0,0,0,1.64-1.32l.4-.42a9.09,9.09,0,0,0,1-1.26,3.27,3.27,0,0,0,.5-1.31A1.81,1.81,0,0,0,336.34,164.27Zm-7.74.55a.65.65,0,0,1-.44-.11c-.12-.09-.29-.24-.5-.42a2,2,0,0,1-.42-.55,1,1,0,0,1,0-.51,1.53,1.53,0,0,1,.32-.54c.16-.18.36-.4.61-.64s.43-.42.61-.57a2.21,2.21,0,0,1,.55-.35.81.81,0,0,1,.51-.07,1,1,0,0,1,.51.28,6.22,6.22,0,0,1,.55.57.66.66,0,0,1,.17.46,1.52,1.52,0,0,1-.2.61,10.64,10.64,0,0,1-.6,1l-1,.62A2.24,2.24,0,0,1,328.6,164.83Zm3.53,3.16a.74.74,0,0,1-.5,0,.93.93,0,0,1-.24-.15,1.41,1.41,0,0,1-.21-.17h0a1.48,1.48,0,0,1-.12-.19,1.27,1.27,0,0,1-.11-.45,2.72,2.72,0,0,1,.06-.77,5,5,0,0,1,.39-1.15,4.88,4.88,0,0,1,1.15-.44,3.13,3.13,0,0,1,.79-.09,1.43,1.43,0,0,1,.46.08l.12.06.16.15a1.27,1.27,0,0,1,.3.42.72.72,0,0,1,0,.46,1.4,1.4,0,0,1-.28.56,5.87,5.87,0,0,1-.61.7c-.3.29-.57.53-.79.7l-.21.15A1.31,1.31,0,0,1,332.13,168Z"/><path class="cls-13" d="M345.31,157h0a.82.82,0,0,0-.18-.25l-5-4.74a3.09,3.09,0,0,0-1.23-.75,2.6,2.6,0,0,0-1.25-.06,3.82,3.82,0,0,0-1.26.54,7.84,7.84,0,0,0-1.26,1,7.24,7.24,0,0,0-1.24,1.53,2.88,2.88,0,0,0-.46,1.32,2.23,2.23,0,0,0,.26,1.19,1.8,1.8,0,0,0,.12.2,4.08,4.08,0,0,0,.74.9,5.91,5.91,0,0,0,1.17.87,2.77,2.77,0,0,0,1.18.29,2.67,2.67,0,0,0,1.24-.34,5.83,5.83,0,0,0,1.37-1l.2-.2a6,6,0,0,0,.46-.47l.32-.33.67-.78,1.17,1.1,1.31,1.24a.85.85,0,0,0,.62.25,1.09,1.09,0,0,0,.75-.37,1.35,1.35,0,0,0,.29-.41,1,1,0,0,0,.09-.38A.63.63,0,0,0,345.31,157Zm-8.06,0a.88.88,0,0,1-.38,0l-.19-.08a2.65,2.65,0,0,1-.62-.46,2.32,2.32,0,0,1-.53-.65,1,1,0,0,1-.1-.6,1.63,1.63,0,0,1,.28-.59,5,5,0,0,1,.6-.65,3.39,3.39,0,0,1,.72-.59,1.5,1.5,0,0,1,.64-.21,1.36,1.36,0,0,1,.61.14,3.12,3.12,0,0,1,.62.45l1,.93c-.12.15-.26.3-.37.46s-.26.28-.37.42-.23.23-.32.31l-.19.19,0,0a7.81,7.81,0,0,1-.72.64,1.45,1.45,0,0,1-.51.24Z"/><path class="cls-13" d="M352.92,148.12a3,3,0,0,0-.8-1.17h0l-3.65-3.44a2.59,2.59,0,0,0-1.1-.64,2.65,2.65,0,0,0-1.23,0,4.18,4.18,0,0,0-1.29.54,7.57,7.57,0,0,0-1.31,1,5.56,5.56,0,0,0-1.67,2.62,2.24,2.24,0,0,0,.75,2.18l3.74,3.53a2.75,2.75,0,0,0,1.12.69,2.38,2.38,0,0,0,1.23,0,4.06,4.06,0,0,0,1.26-.55,7.88,7.88,0,0,0,1.33-1.08,9.88,9.88,0,0,0,1.09-1.28,3.85,3.85,0,0,0,.58-1.26A2.25,2.25,0,0,0,352.92,148.12Zm-2,1.34a3.19,3.19,0,0,1-.84,1.2,3.23,3.23,0,0,1-1.21.84,1,1,0,0,1-1-.28l-3.67-3.47a.87.87,0,0,1-.26-.89,2.65,2.65,0,0,1,.81-1.24,2.83,2.83,0,0,1,1.28-.83,1,1,0,0,1,1,.27l3.6,3.41A.89.89,0,0,1,350.88,149.46Z"/><path class="cls-13" d="M361.41,141a.77.77,0,0,0-.21-.35l-.37.36-.1-.09-.23-.16a1.42,1.42,0,0,0-.28-.1.3.3,0,0,0-.27.07l-1.42,1.38-6.05-5.73a.54.54,0,0,0-.37-.15.85.85,0,0,0-.48.27l-.34.34c-.24.24-.45.45-.63.65a2.76,2.76,0,0,0-.42.56.91.91,0,0,0-.12.52.84.84,0,0,0,.29.48.57.57,0,0,0,.34.19.83.83,0,0,0,.37,0,1.48,1.48,0,0,0,.38-.18,3,3,0,0,0,.38-.27l5.12,4.85L355.62,145a.84.84,0,0,0-.2.28.68.68,0,0,0-.11.33.86.86,0,0,0,0,.34.78.78,0,0,0,.22.34.75.75,0,0,0,.35.2.65.65,0,0,0,.36,0,.64.64,0,0,0,.33-.12,1.07,1.07,0,0,0,.28-.21l4.29-4.24a.82.82,0,0,0,.17-.25.83.83,0,0,0,.1-.32A.8.8,0,0,0,361.41,141Z"/><path class="cls-13" d="M208.23,188.89a5.5,5.5,0,0,0-.23-.59v0a.64.64,0,0,0-.2-.31l-.07-.06h0a.75.75,0,0,0-.24-.11.88.88,0,0,0-.38,0,1.33,1.33,0,0,0-.39.09,1.57,1.57,0,0,0-.35.26,1.12,1.12,0,0,0-.35.62,1,1,0,0,0,.07.62v0l.09.29s0,0,0,0a1.59,1.59,0,0,1,0,.41,1.19,1.19,0,0,1-.1.47,1.21,1.21,0,0,1-.3.47,2.42,2.42,0,0,1-.64.45,2,2,0,0,1-.89.13,3.59,3.59,0,0,1-1.2-.42,6.43,6.43,0,0,1-1.14-.81l-.45-.41-.11-.11c-.09-.08-.17-.17-.25-.25a4.63,4.63,0,0,1-1.32-2.06,1.64,1.64,0,0,1,.42-1.68,1.33,1.33,0,0,1,.56-.35,1.39,1.39,0,0,1,.54-.07.71.71,0,0,0,.18.34l.44.41a.58.58,0,0,0,.53.16,1.07,1.07,0,0,0,.52-.28l.9-.88a.68.68,0,0,0,.08-1h0l-.11-.11a.34.34,0,0,0-.09-.09l-.06-.06a1.78,1.78,0,0,0-.2-.18,1.29,1.29,0,0,0-.28-.12.81.81,0,0,0-.33,0,2.85,2.85,0,0,0-.9-.21,3.13,3.13,0,0,0-1,.08,4.07,4.07,0,0,0-1.07.38,4.76,4.76,0,0,0-1,.74,4.67,4.67,0,0,0-1,1.45c0,.11-.09.22-.12.34a3.65,3.65,0,0,0-.11,1.32,4.06,4.06,0,0,0,.36,1.33c.07.16.15.3.23.46a7.26,7.26,0,0,0,1.5,1.87h0l.46.4a7.18,7.18,0,0,0,2.88,1.65,3.9,3.9,0,0,0,.59.11,3.28,3.28,0,0,0,.46,0,4.11,4.11,0,0,0,2.92-1.35,4.7,4.7,0,0,0,.9-1.18l.07-.15a3.92,3.92,0,0,0,.27-1.17A2.61,2.61,0,0,0,208.23,188.89Z"/><path class="cls-13" d="M217.52,180.87l-.12-.12-.27-.22a1.09,1.09,0,0,0-.29-.17.55.55,0,0,0-.3,0,.87.87,0,0,0-.34.12l-.16,0-.08,0-3.36-.93.07-.2a5.08,5.08,0,0,0,.16-.6,1.81,1.81,0,0,0,0-.7h0a2.75,2.75,0,0,0-.27-.81,3.36,3.36,0,0,0-.66-.84,2.74,2.74,0,0,0-1.31-.73,2.84,2.84,0,0,0-1.34,0,4.69,4.69,0,0,0-1.32.63,8.54,8.54,0,0,0-1.22,1l-2,2c-.25.24-.33.45-.26.65a1.3,1.3,0,0,0,.39.56,2.08,2.08,0,0,0,.39.3.56.56,0,0,0,.45,0l1.88,1.78,2.83,2.67,0,0,.43.41.12.11a.55.55,0,0,0,0,.45,2.19,2.19,0,0,0,.3.35,1.64,1.64,0,0,0,.45.33.6.6,0,0,0,.37,0,1.57,1.57,0,0,0,.44-.26c.16-.14.35-.33.59-.56a4.58,4.58,0,0,0,.33-.34,2.78,2.78,0,0,0,.21-.35.92.92,0,0,0,.06-.34.52.52,0,0,0-.15-.29.09.09,0,0,0,0,0l-.23-.2a1.54,1.54,0,0,0-.38-.28.61.61,0,0,0-.47-.06l-.5-.46,0,0-1.65-1.55,1-1,2.68.8.07,0,.65.19a.31.31,0,0,0,0,.23.91.91,0,0,0,.11.2l0,0a3.46,3.46,0,0,0,.5.42.59.59,0,0,0,.42.12,1.17,1.17,0,0,0,.51-.24c.18-.15.42-.36.72-.65a3.19,3.19,0,0,0,.31-.36,1.39,1.39,0,0,0,.23-.36.63.63,0,0,0,.07-.35A.55.55,0,0,0,217.52,180.87Zm-10.32-1.65,1.11-1.08a1.81,1.81,0,0,1,1.13-.62,1.12,1.12,0,0,1,.9.31,1.2,1.2,0,0,1,.44.92,1.82,1.82,0,0,1-.64,1.11L209,181Z"/><path class="cls-13" d="M225.32,173.15l-.16-.16-.17-.15h0l-.16-.15a.93.93,0,0,0-.34-.16.53.53,0,0,0-.35,0,1.25,1.25,0,0,0-.39.21l-.28.27-.26.28a.84.84,0,0,0-.16.21.6.6,0,0,0-.08.43l-2.24,2.22-2.17-2-.06-.06.6-.59.52-.52a.69.69,0,0,0,.34,0l.17-.08.15-.11.17-.17c.17-.17.3-.3.42-.44a.82.82,0,0,0,.19-.38.54.54,0,0,0-.08-.4,1.81,1.81,0,0,0-.43-.52,4.31,4.31,0,0,0-.37-.31.83.83,0,0,0-.35-.17.5.5,0,0,0-.34,0,.89.89,0,0,0-.37.22l-.27.26a3.57,3.57,0,0,0-.38.45.61.61,0,0,0-.11.5l-1.11,1.09-1.87-1.76,1.07-1.06,1.17-1.17a.63.63,0,0,0,.53-.11,2.87,2.87,0,0,0,.46-.38l.33-.35a1.87,1.87,0,0,0,.12-.2.57.57,0,0,0,.06-.12.58.58,0,0,0,0-.3.65.65,0,0,0-.19-.3l-.53-.51c-.31-.29-.66-.27-1,.1l-1.45,1.43-.07.07-2.93,2.9a.94.94,0,0,0-.24.34.62.62,0,0,0,0,.32.78.78,0,0,0,.14.29l.07.08a1.29,1.29,0,0,0,.18.18,2.09,2.09,0,0,0,.37.29.64.64,0,0,0,.44.08l1.08,1h0l1.58,1.47,2.66,2.51a.54.54,0,0,0,0,.33s0,0,0,.06a1.71,1.71,0,0,0,.12.17c.11.11.25.22.36.33a1.14,1.14,0,0,0,.36.21.56.56,0,0,0,.36,0,1,1,0,0,0,.39-.25l1.31-1.29,2.62-2.59,0,0,.11-.12.25-.25a3.38,3.38,0,0,0,.28-.39.57.57,0,0,0,.1-.35A.5.5,0,0,0,225.32,173.15Z"/><path class="cls-13" d="M232.14,164.65a5.76,5.76,0,0,0-.48-1.24,6.3,6.3,0,0,0-.75-1.15,8.71,8.71,0,0,0-.91-1,7,7,0,0,0-1.45-1,4.78,4.78,0,0,0-1.74-.54,4.54,4.54,0,0,0-1.91.23,5.42,5.42,0,0,0-2,1.31L221,163.12a.89.89,0,0,0-.27.52.66.66,0,0,0,.17.47l.12.13.11.09a3.22,3.22,0,0,0,.38.3.61.61,0,0,0,.47,0l3.34,3.16,1.46,1.4.06,0,.42.39a.55.55,0,0,0,0,.43,4,4,0,0,0,.28.33,1.47,1.47,0,0,0,.65.38.66.66,0,0,0,.52-.13l.08-.06.06-.06,2.09-2.07a4.51,4.51,0,0,0,.92-1.24A2.74,2.74,0,0,0,232,167a3.77,3.77,0,0,0,.12-2.32Zm-8.65-1.55.53-.53a2.85,2.85,0,0,1,2.07-1,3.78,3.78,0,0,1,2.36,1.26,7.11,7.11,0,0,1,1.24,1.44,3.07,3.07,0,0,1,.52,1.24,2.07,2.07,0,0,1-.08,1.06,2.61,2.61,0,0,1-.62.89l-.66.66Z"/><path class="cls-13" d="M238.17,160.44l-.23-.2a2.26,2.26,0,0,0-.38-.29.67.67,0,0,0-.47,0L235,158h0l-.12-.11h0L234,157l-.24-.23,0,0-.18-.18-1.73-1.62a.62.62,0,0,0-.17-.63l-.61-.57,0,0a.71.71,0,0,0-.8.22l-.93.92a.85.85,0,0,0-.28.53.67.67,0,0,0,.19.47l.23.23a2.09,2.09,0,0,0,.39.29.57.57,0,0,0,.45,0l.56.53,3.88,3.67.83.79a.62.62,0,0,0,.24.68.53.53,0,0,0,.08.08l.08.09a1.38,1.38,0,0,0,.43.3.55.55,0,0,0,.38,0,1.25,1.25,0,0,0,.43-.27c.16-.13.34-.32.56-.54l.33-.34a2.67,2.67,0,0,0,.23-.36,1.34,1.34,0,0,0,.06-.34A.64.64,0,0,0,238.17,160.44Z"/><path class="cls-13" d="M244.33,154.35l-.19-.18a2.13,2.13,0,0,0-.39-.3.59.59,0,0,0-.48,0l-5.34-5,.6-.6a.66.66,0,0,0,.51-.1,3.45,3.45,0,0,0,.47-.4,2.25,2.25,0,0,0,.5-.66.52.52,0,0,0-.15-.6l-.09-.08s-.08-.08-.09-.1l-.08-.09-.08-.06-.11-.1-.08-.08a.66.66,0,0,0-.51-.18.83.83,0,0,0-.54.27l-4.81,4.76a1.34,1.34,0,0,0-.21.26.51.51,0,0,0,0,.36,1.3,1.3,0,0,0,.36.55l.15.14.2.19a.53.53,0,0,0,.63.14,2.32,2.32,0,0,0,.65-.47,5,5,0,0,0,.39-.45.7.7,0,0,0,.13-.51l.64-.64,5.32,5a.66.66,0,0,0,.06.45,1.64,1.64,0,0,0,.28.36,1.41,1.41,0,0,0,.46.33.53.53,0,0,0,.39,0,1.08,1.08,0,0,0,.43-.27c.16-.13.35-.32.56-.53s.23-.23.33-.35a2.11,2.11,0,0,0,.22-.36.72.72,0,0,0,.06-.34A.65.65,0,0,0,244.33,154.35Z"/><path class="cls-13" d="M258.33,139.34c-.09-.26-.17-.45-.23-.59v0a.89.89,0,0,0-.19-.32.71.71,0,0,0-.33-.18.8.8,0,0,0-.37,0,1,1,0,0,0-.41.09,1.51,1.51,0,0,0-.35.26,1.11,1.11,0,0,0-.35.62.82.82,0,0,0,.08.6,2.08,2.08,0,0,1,.1.32,1.25,1.25,0,0,1,0,.42,1,1,0,0,1-.09.46,1.39,1.39,0,0,1-.31.47,2.46,2.46,0,0,1-.64.45,1.6,1.6,0,0,1-.89.13,3.56,3.56,0,0,1-1.2-.42,8.56,8.56,0,0,1-1.59-1.22l-.11-.11a5,5,0,0,1-1.56-2.31,1.67,1.67,0,0,1,.43-1.68,1.32,1.32,0,0,1,.56-.35,1.35,1.35,0,0,1,.53-.07.65.65,0,0,0,.19.34l.44.4a.52.52,0,0,0,.52.15,1,1,0,0,0,.52-.27l.9-.88c.34-.36.36-.7.08-1h0l-.12-.11a.33.33,0,0,0-.09-.09l-.06-.06a1.79,1.79,0,0,0-.2-.18.79.79,0,0,0-.28-.11h0a.9.9,0,0,0-.35,0,2.79,2.79,0,0,0-.9-.21,3.49,3.49,0,0,0-1,.08,3.76,3.76,0,0,0-1.07.39,4.34,4.34,0,0,0-1,.73,4.41,4.41,0,0,0-1,1.45,3.31,3.31,0,0,0-.25,1.65,4.82,4.82,0,0,0,.59,1.8,7.8,7.8,0,0,0,1.51,1.87,7.09,7.09,0,0,0,3.94,2.17,4,4,0,0,0,3.36-1.33,4.2,4.2,0,0,0,1-1.32,3.42,3.42,0,0,0,.28-1.18A2.93,2.93,0,0,0,258.33,139.34Z"/><path class="cls-13" d="M268,131.4a.59.59,0,0,0-.12-.18,1.17,1.17,0,0,0-.16-.17l-.09-.11a3,3,0,0,0-.42-.32.61.61,0,0,0-.53,0l-6.65-2.73-.83-.34a.67.67,0,0,0-.16-.29,1.63,1.63,0,0,0-.23-.24,1.44,1.44,0,0,0-.38-.28.61.61,0,0,0-.37,0,1.25,1.25,0,0,0-.42.2,6,6,0,0,0-.53.48c-.07.06-.12.12-.19.19l-.25.26,0,0a.8.8,0,0,0-.26.48.62.62,0,0,0,.18.47l.24.21a1.43,1.43,0,0,0,.24.21,1.06,1.06,0,0,0,.28.14l3.42,7.13a.69.69,0,0,0,0,.47,1.25,1.25,0,0,0,.32.4,1.83,1.83,0,0,0,.38.29.59.59,0,0,0,.36.06.91.91,0,0,0,.38-.18,3.46,3.46,0,0,0,.47-.42l.21-.21.24-.24.12-.12c.24-.24.33-.45.26-.64a1.52,1.52,0,0,0-.38-.56l-.25-.2a.66.66,0,0,0-.37-.16l-.63-1.14,2.07-2,1.23.52a.59.59,0,0,0,.16.41l.14.12a2.74,2.74,0,0,0,.36.3.61.61,0,0,0,.35.14.85.85,0,0,0,.43-.14,3.86,3.86,0,0,0,.56-.47l.21-.21h0l.23-.23.11-.11a.85.85,0,0,0,.27-.56h0S268.05,131.47,268,131.4Zm-7,.86-1.25-2.37,2.51,1.12Z"/><path class="cls-13" d="M276.16,122.86l-.12-.12a1.8,1.8,0,0,0-.27-.23.82.82,0,0,0-.28-.17.6.6,0,0,0-.32,0,.78.78,0,0,0-.34.12l-3.6-1,.08-.21a5.7,5.7,0,0,0,.16-.58,2.14,2.14,0,0,0,0-.71,2.46,2.46,0,0,0-.28-.81,2.88,2.88,0,0,0-.66-.84,2.71,2.71,0,0,0-1.29-.73,2.88,2.88,0,0,0-1.35,0,4.63,4.63,0,0,0-1.31.63,8.53,8.53,0,0,0-1.22,1l-2,2c-.24.24-.33.46-.26.65a1.77,1.77,0,0,0,.39.57,2.52,2.52,0,0,0,.39.29.58.58,0,0,0,.46,0l5.29,5a.57.57,0,0,0,0,.46,2.72,2.72,0,0,0,.29.35,2.05,2.05,0,0,0,.45.33.62.62,0,0,0,.38,0,1.39,1.39,0,0,0,.43-.26c.16-.13.35-.33.6-.56a4.42,4.42,0,0,0,.32-.34,1.94,1.94,0,0,0,.21-.35.94.94,0,0,0,.07-.34.58.58,0,0,0-.18-.34l-.21-.2a1.57,1.57,0,0,0-.39-.28.64.64,0,0,0-.46-.06L269,124.13l1-1,3.4,1a.51.51,0,0,0,0,.23,1,1,0,0,0,.12.2l0,0a5.82,5.82,0,0,0,.48.42.68.68,0,0,0,.42.14,1.19,1.19,0,0,0,.51-.24c.18-.16.43-.37.72-.66a3.14,3.14,0,0,0,.33-.36,1.36,1.36,0,0,0,.23-.36.6.6,0,0,0-.09-.7Zm-7.37-1-1.09,1.07-1.85-1.73,1.11-1.07a1.79,1.79,0,0,1,1.13-.62,1.16,1.16,0,0,1,.9.3,1.24,1.24,0,0,1,.44.93A1.93,1.93,0,0,1,268.79,121.86Z"/><path class="cls-13" d="M282.74,114.6a5.77,5.77,0,0,0-.48-1.24,7.43,7.43,0,0,0-.75-1.15,9.75,9.75,0,0,0-.92-1,6.54,6.54,0,0,0-1.44-1,4.59,4.59,0,0,0-1.75-.55,4.37,4.37,0,0,0-1.91.24,5.36,5.36,0,0,0-2,1.29l-1.94,1.91a.89.89,0,0,0-.27.52.66.66,0,0,0,.18.47l.12.14.1.09a1.47,1.47,0,0,0,.4.29.51.51,0,0,0,.45,0l5.28,5a.48.48,0,0,0,.07.42,1.37,1.37,0,0,0,.27.34,1.38,1.38,0,0,0,.65.38.72.72,0,0,0,.65-.25l2.09-2.07a4.81,4.81,0,0,0,.92-1.25,3.91,3.91,0,0,0,.35-1.29A4.1,4.1,0,0,0,282.74,114.6Zm-2,2a2.54,2.54,0,0,1-.61.89l-.66.66L274.07,113l.54-.53a2.88,2.88,0,0,1,2.07-1,3.81,3.81,0,0,1,2.36,1.26,7.51,7.51,0,0,1,1.24,1.44,3.43,3.43,0,0,1,.52,1.24A1.94,1.94,0,0,1,280.71,116.56Z"/><path class="cls-14" d="M321.24,101.5a10.52,10.52,0,0,1,0,15.26l-9.78,9.7a11.43,11.43,0,0,1-15.78.4h0a10.54,10.54,0,0,1,0-15.26l9.78-9.71a11.43,11.43,0,0,1,15.78-.39Z"/><path class="cls-15" d="M342,122a10.52,10.52,0,0,1,0,15.25L332.23,147a11.42,11.42,0,0,1-15.78.39h0a10.53,10.53,0,0,1,0-15.25l9.78-9.7A11.44,11.44,0,0,1,342,122Z"/><polygon class="cls-16" points="218.9 78.24 211.72 87.74 205.34 96.18 194.57 110.42 187.98 119.16 165.92 148.34 159.38 156.99 154.19 156.99 171.54 129.43 199.96 84.25 206.13 74.44 218.9 78.24"/><path class="cls-17" d="M287.27,81.32l-8,7.91-5.39,5.33L271,97.45l-6.13,6.05-9.36,9.27h0L235.05,133h0a15.37,15.37,0,0,0-2.15,2.13l-8,8L210.77,157h-5.33l13.11-15.25,27.36-31.8,8.26-9.61,8-9.25.71.21-.54-.41,7.55-8.79,7.28-8.46Z"/><path class="cls-18" d="M373.13,160.37V323.92a3.38,3.38,0,0,1-3.38,3.38H143.92a3.37,3.37,0,0,1-3.38-3.38V160.37a3.37,3.37,0,0,1,3.38-3.38H369.75A3.38,3.38,0,0,1,373.13,160.37Z"/><g class="cls-19"><path class="cls-20" d="M153.16,167.82h-9.07a1.13,1.13,0,0,0,0,2.25h9.07a1.13,1.13,0,1,0,0-2.25Zm18.15,0h-9.1a1.12,1.12,0,0,0-1.09,1.13,1.1,1.1,0,0,0,0,.27,1.11,1.11,0,0,0,1.09.86h9.07a1.13,1.13,0,1,0,0-2.25Zm18.15,0h-9.08a1.13,1.13,0,0,0,0,2.25h9.08a1.13,1.13,0,1,0,0-2.25Zm18.15,0h-9.08a1.13,1.13,0,0,0-1.13,1.13,1.14,1.14,0,0,0,1.13,1.13h9.18a1.12,1.12,0,0,0,1-1.11A1.13,1.13,0,0,0,207.62,167.82Zm18.14,0h-9.07a1.15,1.15,0,0,0-.77.29l-.07.07a1.16,1.16,0,0,0-.29.77,1.12,1.12,0,0,0,.87,1.09,1,1,0,0,0,.26,0h9.07a1.13,1.13,0,0,0,1.08-.81s0-.06,0-.09a1.44,1.44,0,0,0,0-.22A1.13,1.13,0,0,0,225.76,167.82Zm18.15,0h-9.07a1.13,1.13,0,0,0,0,2.25h9.09a1,1,0,0,0,.5-.12,1.12,1.12,0,0,0,.63-1A1.13,1.13,0,0,0,243.91,167.82Zm18.15,0H253a1.13,1.13,0,0,0,0,2.25h9.08a1.13,1.13,0,0,0,0-2.25Zm18.15,0h-9.08l-.21,0a1.13,1.13,0,0,0-.91,1.1,1.18,1.18,0,0,0,.34.81,1.16,1.16,0,0,0,.79.32h9.08a1.29,1.29,0,0,0,.42-.08,1.13,1.13,0,0,0-.42-2.17Zm18.14,0h-9.07a1.12,1.12,0,0,0-1.11,1,.31.31,0,0,0,0,.1,1.13,1.13,0,0,0,1.13,1.13h9.07a1.13,1.13,0,1,0,0-2.25Zm18.15,0h-9.07a1.13,1.13,0,1,0,0,2.25h9.07a1.13,1.13,0,1,0,0-2.25Zm18.56.08a1,1,0,0,0-.4-.08h-9.08a1.13,1.13,0,0,0,0,2.25h9.08a1.12,1.12,0,0,0,.4-2.17Zm17.75-.08h-9.08a1.13,1.13,0,0,0,0,2.25h9.08a1.13,1.13,0,0,0,0-2.25Zm7.55,2.88a1.15,1.15,0,0,0-1.12,1.15v9.07a1.13,1.13,0,1,0,2.25,0v-9.1A1.11,1.11,0,0,0,360.37,170.7Zm0,18.18a1.12,1.12,0,0,0-1.12,1.13v9.07a1.13,1.13,0,0,0,2.25,0V190A1.11,1.11,0,0,0,360.37,188.88Zm0,18.14a1.13,1.13,0,0,0-1.12,1.13v9.08a1.13,1.13,0,1,0,2.25,0v-9.08A1.12,1.12,0,0,0,360.37,207Zm0,18.15a1.13,1.13,0,0,0-1.12,1.13v9.08a1.13,1.13,0,1,0,2.25,0V226.3A1.12,1.12,0,0,0,360.37,225.17Zm0,18.15a1.13,1.13,0,0,0-1.12,1.13v9.07a1.13,1.13,0,1,0,2.25,0v-9.07A1.12,1.12,0,0,0,360.37,243.32Zm0,18.15a1.12,1.12,0,0,0-1.12,1.13v9.07a1.13,1.13,0,1,0,2.25,0V262.6A1.12,1.12,0,0,0,360.37,261.47Zm0,18.14a1.13,1.13,0,0,0-1.12,1.13v9.08a1.13,1.13,0,1,0,2.25,0v-9.08A1.12,1.12,0,0,0,360.37,279.62Zm0,18.15a1.13,1.13,0,0,0-1.12,1.13V308a1.13,1.13,0,0,0,2.25,0v-9.07A1.12,1.12,0,0,0,360.37,297.77ZM140.54,314.89v.92a1.1,1.1,0,0,0,0-.92Zm17.13-.66H148.6a1.13,1.13,0,1,0,0,2.25h9.07a1.13,1.13,0,0,0,0-2.25Zm18.15,0h-9.07a1,1,0,0,0-.53.13,1.1,1.1,0,0,0-.6,1,1.12,1.12,0,0,0,1.13,1.13h9.07a1.13,1.13,0,0,0,0-2.25Zm19.23.82a1.12,1.12,0,0,0-1.08-.82H184.9a1,1,0,0,0-.26,0,1.12,1.12,0,0,0-.87,1.09v0a.71.71,0,0,0,0,.23h0a1.14,1.14,0,0,0,1.09.84H194a1.13,1.13,0,0,0,1.13-1.13A.91.91,0,0,0,195.06,315Zm17.06-.82H203a1.13,1.13,0,1,0,0,2.25h9.07a1.13,1.13,0,1,0,0-2.25Zm18.15,0H221.2a1.13,1.13,0,0,0,0,2.25h9.07a1.13,1.13,0,0,0,0-2.25Zm18.15,0h-9.07a1.13,1.13,0,1,0,0,2.25h9.07a1.13,1.13,0,0,0,0-2.25Zm18.15,0H257.5a1.13,1.13,0,1,0,0,2.25h9.08a1.13,1.13,0,0,0,0-2.25Zm18.14,0h-9.07a1.13,1.13,0,1,0,0,2.25h9.07a1.13,1.13,0,0,0,0-2.25Zm18.15,0H293.8a1.13,1.13,0,1,0,0,2.25h9.07a1.13,1.13,0,0,0,0-2.25Zm18.15,0h-9.08a1.13,1.13,0,0,0,0,2.25H321a1.13,1.13,0,0,0,0-2.25Zm18.15,0h-9.08a1.13,1.13,0,0,0,0,2.25h9.08a1.13,1.13,0,0,0,0-2.25Zm18,0h-9a1.13,1.13,0,1,0,0,2.25h8.68l.51,0a1.12,1.12,0,1,0-.21-2.24Z"/></g><path class="cls-21" d="M384.19,229.21v25.88a13.52,13.52,0,0,1-7.1,11.9,13.69,13.69,0,0,1-4,1.38,13.37,13.37,0,0,1-2.44.23H306.54a13.5,13.5,0,0,1-13.11-10.27c0-.18-.09-.36-.12-.53l0-.16a13.59,13.59,0,0,1-.24-2.54V229.21a13.5,13.5,0,0,1,13.51-13.51h64.15a13.53,13.53,0,0,1,13.5,13.51Z"/><path class="cls-22" d="M377.24,266.74c0,.08-.09.17-.15.25a13.69,13.69,0,0,1-4,1.38v2.88a13.38,13.38,0,0,1-7.68,2.4H301.31a13.5,13.5,0,0,1-13.5-13.5V234.26a13.49,13.49,0,0,1,6.92-11.79,13.33,13.33,0,0,0-1.72,6.59v25.88a13.26,13.26,0,0,0,.27,2.69l0,.16c0,.17.08.35.12.53a13.52,13.52,0,0,0,13.08,10.13h64.15a13.81,13.81,0,0,0,6.59-1.71Z"/><circle class="cls-23" cx="320.04" cy="242.15" r="18.57"/><path class="cls-22" d="M331.63,256.62a18.57,18.57,0,1,1-26.08-26.15,18.57,18.57,0,0,0,26.08,26.15Z"/><path class="cls-24" d="M338.61,241.25l-19.47,19.47a18.55,18.55,0,0,1-15.79-10.47l24.79-24.79A18.55,18.55,0,0,1,338.61,241.25Z"/><text class="cls-25" transform="translate(45.01 467.69)"><tspan class="cls-26">P</tspan><tspan class="cls-27" x="26.94" y="0">ag</tspan><tspan class="cls-28" x="95.16" y="0">a</tspan><tspan x="133.38" y="0">r </tspan><tspan class="cls-29" x="184.14" y="0">n</tspan><tspan x="218.64" y="0">a </tspan><tspan class="cls-30" x="276.12" y="0">l</tspan><tspan class="cls-31" x="301.56" y="0">o</tspan><tspan class="cls-32" x="339.72" y="0">j</tspan><tspan x="366.9" y="0">a</tspan></text></g></g></svg>