<svg id="Camada_1" data-name="Camada 1" xmlns="http://www.w3.org/2000/svg" viewBox="0 0 500 502"><defs><style>.cls-1{fill:#67b2dc;}.cls-2{fill:#0f253b;}.cls-3{fill:#c1c2c6;}.cls-4{fill:#e9eaea;}.cls-5{fill:#f3785c;}.cls-6{fill:#a2a2a3;}.cls-7{fill:#fff;}</style></defs><rect class="cls-1" x="-0.34" y="1" width="500" height="500"/><path class="cls-2" d="M250.34,391.46C149,391.46,58.67,368.2.34,328V502.93h500V328C442,368.25,351.73,391.46,250.34,391.46Z"/><path class="cls-3" d="M357.09,99.52c0-23.79-3.54-43.33,26-43.08,28.55.25,24.63,19.38,26,43.08Z"/><path class="cls-4" d="M130.91,84.11s-2.27-26.42,25.16-27.55,221.66.12,221.66.12S359,59.8,357.05,84.11,130.91,84.11,130.91,84.11Z"/><rect class="cls-4" x="130.91" y="84.11" width="226.18" height="271.98"/><path class="cls-5" d="M280.24,162.3q0,12.34-8.92,19.83t-25,9V207H235.7V191.4q-18.94-.39-33.22-6.67V164.24a89.49,89.49,0,0,0,16.26,5.9,86.92,86.92,0,0,0,17,3V149.11l-5.2-2q-15.37-6.05-21.77-13.15t-6.41-17.58a22.93,22.93,0,0,1,8.81-18.51Q219.94,90.6,235.7,89V77.17h10.63V88.74a88.19,88.19,0,0,1,32.13,7.14L271.16,114A83.88,83.88,0,0,0,246.32,108v22.89q15.13,5.82,21.54,10.09a29.45,29.45,0,0,1,9.38,9.39A23.27,23.27,0,0,1,280.24,162.3Zm-54.55-45.94a7.35,7.35,0,0,0,2.37,5.63,28,28,0,0,0,7.65,4.54V108.29Q225.68,109.77,225.68,116.36Zm31.2,47.1a7,7,0,0,0-2.64-5.51,34.63,34.63,0,0,0-7.92-4.66v19.32Q256.88,170.84,256.88,163.46Z"/><rect class="cls-6" x="147.03" y="225.89" width="192.98" height="7.6"/><rect class="cls-6" x="147.03" y="248.32" width="192.98" height="7.6"/><rect class="cls-6" x="147.03" y="271.89" width="192.98" height="7.6"/><rect class="cls-6" x="147.03" y="296.81" width="192.98" height="7.6"/><path class="cls-7" d="M153.83,424.63c6.54-.84,16-1.2,22.32,2.28,8,4.5,9.54,13.74,1.26,17.82-.06,0-.12.06-.18.06v.06c11.46,4,9.12,21.06-9.36,21.6-4.2.12-8.7.24-14.22,0Zm11,14.46.12.18c10.74,1,7.38-8.16-.42-6.3Zm.06,17.88c10.86,2.64,9.9-9.6,0-7.2h-.12s-.12.06-.12.12Z"/><path class="cls-7" d="M206.69,425.65c21.6.36,22.38,40.14-.78,41C176.81,465.19,179.75,425.17,206.69,425.65Zm-2.46,26.76c7.5,0,9.66-11.94,1.26-13.2-3.78,0-6.72,4.08-6.72,7.68A5.34,5.34,0,0,0,204.23,452.41Z"/><path class="cls-7" d="M225.53,423.91l13.26.84a217.22,217.22,0,0,0-.84,28.5c4-.12,7.32.48,11.22.36.6,1.2.12,11-.06,11.88-1.62,0-.36.06-21.66.72h-.06Z"/><path class="cls-7" d="M252.05,425.65c1.86-.12,19.56-.36,25.8-.66l.24,11.46-14.94.54.24,4.5,7.5-.36-.24,8.28-6.9.3.24,3.9,14.34-.36c.06.42.18,9.12.12,12.12-8.76.12-17.88.66-26.22.66C252.41,464.29,251.57,431,252.05,425.65Z"/><path class="cls-7" d="M291.59,466.27c-.36-10.44-.66-20.94-1.2-31.44l-8.76-.06-.72-11c7.26.12,22.56.36,31.2.48.36,3.72-.12,7.14-.3,10.8l-8.7.24c.06.12.84,28.26.9,31.68Z"/><path class="cls-7" d="M330.59,425.65c21.6.36,22.38,40.14-.78,41C300.71,465.19,303.65,425.17,330.59,425.65Zm-2.46,26.76c7.5,0,9.66-11.94,1.26-13.2-3.78,0-6.72,4.08-6.72,7.68A5.34,5.34,0,0,0,328.13,452.41Z"/></svg>