<svg id="Camada_1" data-name="Camada 1" xmlns="http://www.w3.org/2000/svg" viewBox="0 0 127 107"><defs><style>.cls-1{fill:#edeeee;}.cls-2{fill:#445a64;}.cls-3{fill:#f86220;}.cls-4{font-size:8.09px;font-family:Roboto-Bold, Roboto Bold;font-weight:700;letter-spacing:0.1em;}.cls-10,.cls-4{fill:#fff;}.cls-5{letter-spacing:0.1em;}.cls-6{letter-spacing:0.1em;}.cls-7{fill:#f7ee58;}.cls-8,.cls-9{fill:none;stroke-miterlimit:10;}.cls-8{stroke:#f86220;}.cls-9{stroke:#fff;stroke-width:2px;}</style></defs><title>icone-estab-</title><rect class="cls-1" x="24.08" y="38.09" width="99.15" height="61.52" rx="6.65" ry="6.65"/><rect class="cls-2" x="24.08" y="75.61" width="99.15" height="15.12"/><rect class="cls-3" x="3.76" y="7.39" width="99.15" height="61.52" rx="6.65" ry="6.65"/><text class="cls-4" transform="translate(16.34 22.02)">CREDIT <tspan class="cls-5" x="31.74" y="0">C</tspan><tspan class="cls-6" x="37.28" y="0">ARD</tspan></text><rect class="cls-7" x="13.85" y="27.75" width="14.16" height="14.16" rx="2.27" ry="2.27"/><line class="cls-8" x1="13.85" y1="31.41" x2="28.01" y2="31.41"/><line class="cls-8" x1="13.85" y1="34.83" x2="28.01" y2="34.83"/><line class="cls-8" x1="13.85" y1="38.25" x2="28.01" y2="38.25"/><rect class="cls-8" x="17.77" y="31.41" width="6.31" height="6.84"/><line class="cls-9" x1="13.85" y1="48.94" x2="90.63" y2="48.94"/><line class="cls-9" x1="32.4" y1="41.57" x2="90.63" y2="41.57"/><rect class="cls-10" x="13.85" y="54.31" width="5.03" height="5.03"/><rect class="cls-10" x="24.08" y="54.31" width="5.03" height="5.03"/><rect class="cls-10" x="34.32" y="54.31" width="5.03" height="5.03"/><rect class="cls-10" x="44.55" y="54.31" width="5.03" height="5.03"/><rect class="cls-10" x="54.78" y="54.31" width="5.03" height="5.03"/><rect class="cls-10" x="65.02" y="54.31" width="5.03" height="5.03"/><rect class="cls-10" x="75.25" y="54.31" width="5.03" height="5.03"/><rect class="cls-10" x="85.48" y="54.31" width="5.03" height="5.03"/></svg>