<svg xmlns="http://www.w3.org/2000/svg" viewBox="0 0 50 50"><defs><style>.cls-1{isolation:isolate;}.cls-2{fill:#cbcac8;}.cls-3{fill:#100f0b;}.cls-4,.cls-6{fill:#b34c29;}.cls-5{fill:#d4672c;}.cls-23,.cls-6{opacity:0.6;}.cls-7{fill:#47443e;}.cls-8{fill:#33281d;}.cls-9{fill:#be9157;}.cls-10{fill:#8e602f;}.cls-11,.cls-30{mix-blend-mode:darken;}.cls-12{fill:#5b422c;}.cls-13{fill:#754c29;opacity:0.5;}.cls-14{fill:#e6e7e8;}.cls-14,.cls-30{opacity:0.7;}.cls-15{fill:#5e5b51;}.cls-16{fill:#ce975b;}.cls-17{fill:#170d03;}.cls-18{fill:#96724b;}.cls-19,.cls-24{fill:#efc49b;}.cls-19{stroke:#c9976f;stroke-width:1.52px;}.cls-19,.cls-21,.cls-22,.cls-26,.cls-27,.cls-32,.cls-40{stroke-linejoin:round;}.cls-20,.cls-21,.cls-33{fill:#253263;}.cls-20,.cls-21,.cls-22,.cls-23,.cls-24,.cls-26,.cls-27,.cls-29,.cls-31,.cls-32,.cls-34,.cls-35,.cls-36{fill-rule:evenodd;}.cls-21,.cls-26{stroke:#253263;}.cls-21,.cls-22,.cls-26,.cls-27,.cls-32,.cls-40{stroke-width:1.9px;}.cls-22,.cls-23,.cls-29{fill:#632525;}.cls-22{stroke:#632525;}.cls-23{mix-blend-mode:multiply;}.cls-25,.cls-31{fill:#c9976f;}.cls-26{fill:#2c41a8;}.cls-27,.cls-35{fill:#ba752a;}.cls-27,.cls-32{stroke:#ba752a;}.cls-28{fill:#231212;}.cls-32{fill:#e89e46;}.cls-34{fill:#ad752a;}.cls-36{fill:#bc8a68;}.cls-37{fill:#4b4b51;}.cls-38{fill:#696872;}.cls-39{fill:#bcbae2;}.cls-40{fill:#c6c5dd;stroke:#4e4c68;}.cls-41,.cls-42{fill:#4e4c68;}.cls-42{opacity:0.4;}</style></defs><title>icones-adm</title><g class="cls-1"><g id="Camada_1" data-name="Camada 1"><circle class="cls-2" cx="25" cy="25" r="25"/><circle class="cls-3" cx="18.86" cy="41.24" r="1.18"/><circle class="cls-3" cx="11.6" cy="41.24" r="1.18"/><circle class="cls-3" cx="29.28" cy="41.24" r="1.18"/><circle class="cls-3" cx="22.02" cy="41.24" r="1.18"/><rect class="cls-3" x="12.39" y="36.32" width="16.59" height="2.25"/><path class="cls-4" d="M31.77,41.64V38a1,1,0,0,0-1-1H10.29a1,1,0,0,0-1,1v3.67Z"/><path class="cls-5" d="M19.89,37H30.78a1,1,0,0,1,1,1v3.67H20.88V38A1,1,0,0,0,19.89,37Z"/><rect class="cls-6" x="26.21" y="37.97" width="5.56" height="3.75"/><path class="cls-3" d="M30.71,39.71a.31.31,0,1,0,.6,0V39.4a.31.31,0,1,0-.6,0Z"/><path class="cls-3" d="M29.55,39.71a.31.31,0,1,0,.6,0V39.4a.31.31,0,1,0-.6,0Z"/><path class="cls-3" d="M28.38,39.71a.31.31,0,1,0,.6,0V39.4a.31.31,0,1,0-.6,0Z"/><path class="cls-3" d="M27.22,39.71a.31.31,0,1,0,.6,0V39.4a.31.31,0,1,0-.6,0Z"/><path class="cls-3" d="M26.05,39.71a.31.31,0,1,0,.6,0V39.4a.31.31,0,1,0-.6,0Z"/><path class="cls-3" d="M24.89,39.71a.31.31,0,1,0,.6,0V39.4a.31.31,0,1,0-.6,0Z"/><path class="cls-3" d="M23.72,39.71a.31.31,0,1,0,.6,0V39.4a.31.31,0,1,0-.6,0Z"/><path class="cls-3" d="M22.56,39.71a.31.31,0,1,0,.6,0V39.4a.31.31,0,1,0-.6,0Z"/><path class="cls-3" d="M21.39,39.71a.31.31,0,1,0,.6,0V39.4a.31.31,0,1,0-.6,0Z"/><rect class="cls-7" x="9.15" y="41.48" width="22.82" height="0.5"/><rect class="cls-3" x="9.15" y="41.48" width="11.99" height="0.5"/><polygon class="cls-8" points="33.93 11.64 33.93 33.23 7.61 33.23 7.61 7.5 25.86 7.5 25.86 11.64 33.93 11.64"/><rect class="cls-9" x="26.21" y="11.64" width="7.72" height="21.59"/><rect class="cls-9" x="18.14" y="7.5" width="7.72" height="25.73"/><rect class="cls-10" x="13.05" y="7.5" width="5.09" height="25.73"/><rect class="cls-10" x="7.61" y="7.5" width="5.09" height="25.73"/><g class="cls-11"><rect class="cls-10" x="18.14" y="28.52" width="15.79" height="0.18"/></g><g class="cls-11"><rect class="cls-12" x="7.59" y="28.52" width="10.53" height="0.18"/></g><g class="cls-11"><rect class="cls-10" x="18.14" y="24.28" width="15.79" height="0.18"/></g><g class="cls-11"><rect class="cls-12" x="7.59" y="24.28" width="10.53" height="0.18"/></g><g class="cls-11"><rect class="cls-10" x="18.14" y="20.03" width="15.79" height="0.18"/></g><g class="cls-11"><rect class="cls-12" x="7.59" y="20.03" width="10.53" height="0.18"/></g><g class="cls-11"><rect class="cls-10" x="18.14" y="15.79" width="15.79" height="0.18"/></g><g class="cls-11"><rect class="cls-12" x="7.59" y="15.79" width="10.53" height="0.18"/></g><g class="cls-11"><rect class="cls-10" x="18.14" y="11.55" width="15.79" height="0.18"/></g><g class="cls-11"><rect class="cls-12" x="7.59" y="11.55" width="10.53" height="0.18"/></g><rect class="cls-13" x="14.89" y="7.5" width="1.01" height="1.01"/><rect class="cls-14" x="24.17" y="10.46" width="1.3" height="0.82"/><rect class="cls-14" x="24.17" y="14.62" width="1.3" height="0.82"/><rect class="cls-14" x="24.17" y="18.83" width="1.3" height="0.82"/><rect class="cls-14" x="24.17" y="23.15" width="1.3" height="0.82"/><rect class="cls-14" x="26.58" y="25" width="1.3" height="0.82"/><rect class="cls-14" x="27.23" y="14.62" width="1.3" height="0.82"/><rect class="cls-14" x="27.04" y="18.59" width="0.82" height="1.3" transform="translate(4.89 44.03) rotate(-82.73)"/><rect class="cls-14" x="32.12" y="23.15" width="1.3" height="0.82"/><rect class="cls-14" x="18.74" y="27.35" width="1.3" height="0.82"/><rect class="cls-14" x="19.45" y="31.49" width="0.82" height="1.3" transform="translate(-17.53 37.59) rotate(-66.57)"/><rect class="cls-14" x="26.58" y="32.14" width="1.3" height="0.82"/><rect class="cls-13" x="14.89" y="11.71" width="1.01" height="1.01"/><rect class="cls-13" x="14.89" y="15.95" width="1.01" height="1.01"/><rect class="cls-13" x="14.89" y="20.21" width="1.01" height="1.01"/><rect class="cls-13" x="14.89" y="24.4" width="1.01" height="1.01"/><rect class="cls-13" x="14.89" y="28.71" width="1.01" height="1.01"/><rect class="cls-13" x="9.64" y="7.5" width="1.01" height="1.01"/><rect class="cls-13" x="9.64" y="11.71" width="1.01" height="1.01"/><rect class="cls-13" x="9.64" y="15.95" width="1.01" height="1.01"/><rect class="cls-13" x="9.64" y="20.21" width="1.01" height="1.01"/><rect class="cls-13" x="9.64" y="24.4" width="1.01" height="1.01"/><rect class="cls-13" x="9.64" y="28.71" width="1.01" height="1.01"/><rect class="cls-15" x="7.62" y="36.3" width="1.07" height="6.2"/><rect class="cls-7" x="6.57" y="36.3" width="1.07" height="6.2"/><rect class="cls-15" x="6.57" y="34.98" width="28.43" height="1.31"/><rect class="cls-15" x="33.93" y="36.3" width="1.07" height="6.2"/><rect class="cls-7" x="32.88" y="36.3" width="1.07" height="6.2"/><rect class="cls-15" x="18.73" y="36.3" width="1.07" height="6.2"/><rect class="cls-7" x="17.68" y="36.3" width="1.07" height="6.2"/><rect class="cls-7" x="6.57" y="34.98" width="12.18" height="1.31"/><path class="cls-10" d="M30.28,17l.06,0,.79,0,2.6,1.51.2.54v0l-1.28-.73,1.28.73h0l-.55.81-.22-.13s0,0,0,.1c.15.08.42.21.77.35v1.81a6.85,6.85,0,0,1-1.32-1.27c-.49.06-1.41-.27-1.41-1.09,0-.53.16-.75.3-.85l-1.75-1Z"/><rect class="cls-16" x="6.91" y="33.23" width="27.85" height="1.76"/><rect class="cls-17" x="7.12" y="33.43" width="11.47" height="1.35"/><path class="cls-18" d="M18.38,33.64v.94H7.32v-.94Zm.41-.41H6.91V35H18.79V33.23Z"/><rect class="cls-18" x="11.65" y="33.23" width="1.58" height="1.76"/><path class="cls-19" d="M34.33,18,32.9,17s-.53,0-.53.91,1.24,1.25,1.62,1,.34-.94.34-.94Z"/><path class="cls-20" d="M42,22.86a10.55,10.55,0,0,1,.64,2.53,11.08,11.08,0,0,1-.47,3.08c-.37.49-1.62,1.42-2,1.26s0,.68-.2.54a1.24,1.24,0,0,1-.63-.78,6.3,6.3,0,0,1-.16-.91c0-.28-.06-1.07-.07-1.37a31.72,31.72,0,0,1-.27-3.66,18.25,18.25,0,0,1,.33-3.06c.1-.51,1.56-1.06,1.56-1.06Z"/><path class="cls-21" d="M39,21.22q-.06.53-.11,1.14a43,43,0,0,0,0,6.41c.1,1.67-.8,6.9-1.27,11.85l1.87.45.71-3.64Z"/><path class="cls-22" d="M39.76,13.31a3.55,3.55,0,0,1-.47-.72s2.39-1,3.29,1.1a1.71,1.71,0,0,1,.17,1.84,1.52,1.52,0,0,1-1.08,1Z"/><path class="cls-23" d="M41.81,16.38s.61-.84,0-1.45-.49.37-.49.37Z"/><path class="cls-23" d="M39.18,12.52A2.79,2.79,0,0,1,41,14.08s-.44-.13-1-.34l-.47-.46S39.06,12.63,39.18,12.52Z"/><path class="cls-24" d="M40,18.09a.12.12,0,0,1-.12-.13l.08-.58h-.08A1,1,0,0,1,39,17a2.27,2.27,0,0,1-.18-1.65c-.13-.07-.32-.2-.34-.39s.21-.35.37-.44a.61.61,0,0,0,.19-.12l.06-.16a2.36,2.36,0,0,1,.53-.93.12.12,0,0,1,.08,0h0a2.1,2.1,0,0,1,1.06.72.12.12,0,0,1,0,.12l-.32.72.21.12a.64.64,0,1,1,.88.91l0,.13a12.15,12.15,0,0,1,.13,1.3v.1a.12.12,0,0,1-.08.11L40,18.08Z"/><path class="cls-25" d="M39.76,13.4a2,2,0,0,1,1,.67l-.37.82.39.23a.52.52,0,1,1,.72.7v.05a12.21,12.21,0,0,1,.15,1.54L40,18l.1-.72-.22,0a.89.89,0,0,1-.75-.32A2.2,2.2,0,0,1,39,15.3s-.35-.15-.36-.34.47-.34.55-.51a3,3,0,0,1,.57-1.06Zm0-.23a.23.23,0,0,0-.15.06,2.46,2.46,0,0,0-.57,1l-.05.14-.14.08c-.18.1-.46.24-.44.55a.62.62,0,0,0,.32.44,2.33,2.33,0,0,0,.22,1.65,1.07,1.07,0,0,0,.89.42l-.06.44a.23.23,0,0,0,.23.27h.08l1.67-.57a.23.23,0,0,0,.16-.23v-.1A12.28,12.28,0,0,0,41.77,16v-.06a.76.76,0,1,0-1-1.11l0,0,.28-.63a.23.23,0,0,0,0-.23,2.23,2.23,0,0,0-1.13-.76Z"/><path class="cls-25" d="M41.32,16.09h-.16l0-.23h.12a.4.4,0,0,0,.2,0l.11,0,.1.21-.11.05A.64.64,0,0,1,41.32,16.09Z"/><path class="cls-26" d="M42.63,24.41c0,.83,0,1.62-.05,2.28a80.76,80.76,0,0,0,.54,11.82c.2,2.13.19,2.41.19,2.41l-1.17.18-1.24,0a58.37,58.37,0,0,1-1.3-11.23l-.2-2.21.2-2.12Z"/><path class="cls-27" d="M39.26,19.27c.15-.61.5-1.25.75-1.29,0,0,.36-.07.86-.2s-.23,1.08-.23,1.08l-1.29.3Z"/><path class="cls-26" d="M42.64,18.74a1.13,1.13,0,0,0-.87-1.19,3.09,3.09,0,0,0-1,.26,1.92,1.92,0,0,0-.85,1.13Z"/><circle class="cls-28" cx="39.75" cy="14.67" r="0.16"/><path class="cls-29" d="M39.79,14.14l.28.2a.09.09,0,0,1,0,.12.09.09,0,0,1-.12,0l-.28-.2C39.61,14.23,39.7,14.08,39.79,14.14Z"/><g class="cls-30"><path class="cls-31" d="M39.19,14.45a3,3,0,0,1,.57-1.06,2.07,2.07,0,0,1,.55.26,3.58,3.58,0,0,0-.76,2.45c0,1.17,1.28.91,1.28.91l0,.66h0l-.86.17.09-.6s-.68.12-1-.3A2.2,2.2,0,0,1,39,15.3s-.35-.15-.36-.34S39.11,14.62,39.19,14.45Z"/></g><path class="cls-20" d="M41.36,18.08l-.25-.4A1.68,1.68,0,0,0,40,18.76c-.24.87.31.58.31.58Z"/><path class="cls-20" d="M39.55,29.74l-.75-5.86,2,1.18c0,.43-.12,3.63-.11,4.2A67.69,67.69,0,0,0,42.27,41H40.86A58.52,58.52,0,0,1,39.55,29.74Z"/><path class="cls-32" d="M39.86,20.93c-.41,3.4.49,4.07,1.33,4.24s1.41-.73,1.41-.73l0-.12c.07-2.22.13-5.17.09-5.28a1,1,0,0,0-1.34-.88c-.68.24-1.23,1-2.85,1.12a10.39,10.39,0,0,1-4.3-1.18,1.69,1.69,0,0,0-.47.91,6.1,6.1,0,0,0,3.61,2.28,4.21,4.21,0,0,0,3.47-1Z"/><path class="cls-33" d="M41.6,28.59a1.17,1.17,0,0,1-1.23-.94l.23-.05a1,1,0,0,0,1.21.75l0,.23A1.46,1.46,0,0,1,41.6,28.59Z"/><path class="cls-34" d="M39.85,21v-.09h0a4.19,4.19,0,0,0,.48-.27Z"/><polygon class="cls-34" points="40.7 20.4 40.7 20.4 40.7 20.4 40.7 20.4"/><path class="cls-35" d="M33.75,19a1.23,1.23,0,0,1,.16-.49s.29.59,2.35,1.62a6.52,6.52,0,0,0,4.36.29l-.77.51a4.38,4.38,0,0,1-2.5.35A6.1,6.1,0,0,1,33.75,19Z"/><path class="cls-35" d="M40.83,25a9.52,9.52,0,0,1-.13-4.56l-.84.44a4.68,4.68,0,0,0-.09,2.08C40,24.08,40.23,24.95,40.83,25Z"/><path class="cls-36" d="M38.81,16.13a.88.88,0,0,0,.56,0c.11,0,.15.13,0,.17a1,1,0,0,1-.65,0A.09.09,0,0,1,38.81,16.13Z"/><rect class="cls-10" x="29.28" y="37.81" width="5.97" height="4.67"/><rect class="cls-9" x="35.03" y="37.81" width="5.09" height="4.67"/><rect class="cls-13" x="37.26" y="37.81" width="1.01" height="1.01"/><rect class="cls-14" x="29.63" y="41.3" width="1.3" height="0.82"/><polygon class="cls-37" points="34.55 18.17 35.11 17.35 31.45 15.26 30.92 16.11 34.55 18.17"/><polygon class="cls-38" points="35.12 17.35 34.9 16.76 32.3 15.24 31.49 15.29 35.12 17.35"/><polygon class="cls-39" points="33.2 16.18 33.35 15.95 32.44 15.41 31.9 15.45 33.2 16.18"/><path class="cls-40" d="M43.27,41.21c.26,0,.12,1.29.12,1.29H39.31a.54.54,0,0,1,0-.64,4.63,4.63,0,0,1,1.62-.66c.35,0,.94.2,1.41.2S43,41.16,43.27,41.21Z"/><path class="cls-41" d="M39.25,42.32H39.1v-.18c1.49,0,4.29-.13,4.32-.14v.18S40.77,42.32,39.25,42.32Z"/><path class="cls-42" d="M41.91,41.33s-1.39.42-1.72.58-.09.59,0,.59h-.76s-.39-.55.1-.81a5.73,5.73,0,0,1,1.2-.43h1.18Z"/></g></g></svg>