<svg xmlns="http://www.w3.org/2000/svg" xmlns:xlink="http://www.w3.org/1999/xlink" viewBox="0 0 50 50"><defs><style>.cls-1{isolation:isolate;}.cls-2{fill:#cbcac8;}.cls-3{fill:#c9cccc;}.cls-4{fill:#091211;}.cls-5{fill:#383537;}.cls-19,.cls-6{fill:#181818;}.cls-10,.cls-7{fill:#0b0b0b;}.cls-8{fill:#0c0c0c;}.cls-9{fill:#060606;}.cls-32,.cls-9{opacity:0.5;}.cls-10,.cls-19,.cls-20,.cls-22,.cls-23,.cls-32{mix-blend-mode:multiply;}.cls-11{fill:url(#radial-gradient);}.cls-12{fill:#f2d0af;}.cls-13{fill:#f9d7af;}.cls-14{fill:#ffddad;}.cls-15{fill:none;}.cls-16{fill:#9b9693;}.cls-17{fill:#fff;}.cls-18{fill:#ff5f00;}.cls-21,.cls-22{fill:#cecece;}.cls-23{fill:#ffe2c5;}.cls-24{fill:#cfcccc;}.cls-25{fill:#e8e8e8;}.cls-26{fill:#780000;}.cls-27{fill:#ffe0c2;}.cls-28{fill:#f2d1aa;}.cls-29{fill:#3f2c38;}.cls-30{fill:#dedee6;}.cls-31{fill:#6e4f39;}.cls-32,.cls-36{fill:#eac69f;}.cls-33{fill:#642d13;}.cls-34{fill:#c83c2a;}.cls-35{fill:#fbede3;}.cls-37{fill:#7b3c16;}.cls-38{fill:#914c1a;}.cls-39{fill:#531401;}</style><radialGradient id="radial-gradient" cx="-4.19" cy="28.11" r="7.16" gradientTransform="matrix(-1, 0, 0, 1, 15.57, 0)" gradientUnits="userSpaceOnUse"><stop offset="0" stop-color="#fff"/><stop offset="0.73" stop-color="#ddd"/><stop offset="1" stop-color="#cfcfcf"/></radialGradient></defs><title>icones-adm</title><g class="cls-1"><g id="Camada_1" data-name="Camada 1"><circle class="cls-2" cx="25" cy="25" r="25"/><ellipse class="cls-3" cx="24.76" cy="43.87" rx="6.41" ry="1.13"/><path class="cls-4" d="M23.05,43.8v.32h1.2v-.45a10.58,10.58,0,0,1-1.11.11Z"/><path class="cls-4" d="M22.11,43.25a.06.06,0,0,0,0-.08L22,43l-.09.07.14.15A.06.06,0,0,0,22.11,43.25Z"/><path class="cls-4" d="M22.27,43.08a.06.06,0,0,0,0-.08l-.11-.11-.09.07.12.12A.06.06,0,0,0,22.27,43.08Z"/><path class="cls-4" d="M22.44,42.92a.06.06,0,0,0,0-.08l-.09-.09-.09.07.1.1A.06.06,0,0,0,22.44,42.92Z"/><path class="cls-5" d="M24.19,42.48V42l-1.54.24v.23l-.31.25.09.09a.06.06,0,1,1-.08.08l-.1-.1-.1.07.11.11a.06.06,0,0,1,0,.08.06.06,0,0,1-.08,0L22.07,43,22,43l.13.13a.06.06,0,0,1-.08.08l-.14-.15-.21.15c-.38.26-1.48.12-1.95.3s-.39.71-.22.72a19.2,19.2,0,0,0,2.52-.1,6.31,6.31,0,0,1,1-.37l.09,0a10.58,10.58,0,0,0,1.11-.11h0A7.73,7.73,0,0,0,24.19,42.48Z"/><path class="cls-4" d="M28.73,43.34l0,.38,1.4-.14-.05-.53a12.38,12.38,0,0,1-1.28.26Z"/><path class="cls-4" d="M27.57,42.8a.06.06,0,0,0,0-.09l-.17-.14-.1.09.19.15A.07.07,0,0,0,27.57,42.8Z"/><path class="cls-4" d="M27.74,42.59a.07.07,0,0,0,0-.09l-.14-.12-.1.09.16.13A.06.06,0,0,0,27.74,42.59Z"/><path class="cls-4" d="M27.91,42.38a.07.07,0,0,0,0-.09l-.12-.1-.09.09.13.11A.07.07,0,0,0,27.91,42.38Z"/><path class="cls-5" d="M29.9,41.66l0-.24-1.79.18,0,.27-.33.33.12.1a.06.06,0,1,1-.08.1l-.13-.11-.1.1.14.12a.07.07,0,0,1,0,.09.06.06,0,0,1-.09,0l-.16-.13-.1.1.17.14a.06.06,0,0,1-.08.1l-.19-.15-.23.2c-.41.34-1.7.31-2.23.57s-.37.87-.18.87a22.46,22.46,0,0,0,2.92-.41,7.34,7.34,0,0,1,1.14-.55l.1,0a12.38,12.38,0,0,0,1.28-.26h0A9,9,0,0,0,29.9,41.66Z"/><path class="cls-6" d="M20,31.88A6.94,6.94,0,0,0,24.84,33a5.38,5.38,0,0,0,4.23-2.54,3,3,0,0,1-.27.93,2,2,0,0,0-.37.62A15,15,0,0,0,28,36a11.64,11.64,0,0,0,2,5.5h0l0,0c0,.18-.77.55-1.24.62a1.65,1.65,0,0,1-1.21-.36h0A12.14,12.14,0,0,1,24,36.21a8.82,8.82,0,0,1-.36-2.33.31.31,0,0,0-.24-.26,6.88,6.88,0,0,0-.5,1.44A8.86,8.86,0,0,0,24.36,42c0,.1-.93.33-1.4.33s-.8-.1-.84-.2h0a16.85,16.85,0,0,1-2.42-8.28A9.9,9.9,0,0,1,20,31.88Z"/><path class="cls-7" d="M28.34,41.38a4,4,0,0,0,1.32-.67l.44.84a3.2,3.2,0,0,1-1.57.7,1.82,1.82,0,0,1-1.33-.35l-.28-.68A2.49,2.49,0,0,0,28.34,41.38Z"/><path class="cls-5" d="M26.55,34.67a.05.05,0,1,0,0-.11,1.41,1.41,0,0,1-1.41-1.41.05.05,0,0,0-.11,0A1.52,1.52,0,0,0,26.55,34.67Z"/><path class="cls-5" d="M20.74,32.61a0,0,0,1,0-.08,0A1.09,1.09,0,0,1,20,34a0,0,0,0,0,0,.09A1.18,1.18,0,0,0,20.74,32.61Z"/><path class="cls-6" d="M22.19,34.34a.71.71,0,0,1,.36-.59,7.82,7.82,0,0,0-.27.91A.63.63,0,0,1,22.19,34.34Z"/><path class="cls-8" d="M22.28,34.66a7.82,7.82,0,0,1,.27-.91,1,1,0,0,1,.55-.15l.23,0h0a6.87,6.87,0,0,0-.48,1.43h0A8.88,8.88,0,0,0,24.36,42c0,.1-.38.2-.85.2h-.14C22.57,41.41,22,39.5,22,37.27A11.55,11.55,0,0,1,22.28,34.66Z"/><path class="cls-9" d="M29,30.49a3,3,0,0,1-.26.93,2,2,0,0,0-.37.62A15.06,15.06,0,0,0,28,36a11.64,11.64,0,0,0,2,5.5h0l0,0c0,.1-.21.25-.48.38a12.53,12.53,0,0,1-2-5.58,17,17,0,0,1-.18-4.08A6.51,6.51,0,0,0,29,30.49Z"/><path class="cls-7" d="M23,41.81a2.54,2.54,0,0,0,1-.57l.39.73a2.06,2.06,0,0,1-1.23.72,1.41,1.41,0,0,1-1.14-.35l-.24-.68A1.84,1.84,0,0,0,23,41.81Z"/><path class="cls-9" d="M20,31.88A6.94,6.94,0,0,0,24.84,33a5.38,5.38,0,0,0,4.23-2.54,3,3,0,0,1-.27.93c-.06.1-.14.19-.2.28a8.15,8.15,0,0,1-5.36,1.64,10.5,10.5,0,0,1-3.44-.55C19.85,32.48,19.91,32.18,20,31.88Z"/><path class="cls-10" d="M9.5,13.68l.32-.63L17.08,21s0,.2,0,.45A32.26,32.26,0,0,1,9.5,13.68Z"/><path class="cls-7" d="M24.77,22.4l0,0,0,0Z"/><path class="cls-7" d="M17.09,21h0a3.93,3.93,0,0,0,.51.53h0A3.93,3.93,0,0,1,17.09,21Z"/><path class="cls-11" d="M21.62,21.37a6.33,6.33,0,0,0,.73-.36c-.18.31-.28.53-.28.53,0,1.7,2.1,8.81,3.91,11.32a6.34,6.34,0,0,1-1.5.19A6.5,6.5,0,0,1,20,31.88a20.43,20.43,0,0,1-1-2.09c-1.29-3-2.18-6.34-1.54-8.39C18.84,22.64,20.22,22,21.62,21.37Z"/><path class="cls-12" d="M6.45,8.41c.67-.3.86.45,1,.9a3.92,3.92,0,0,1,.67,1.89c0,.14,0,.29,0,.43s-.13.22-.19.35c-.67,1.38-.68.45-.58,0s-.23-.88-.17-1.61-.16-.92-.53-.76c-.14.06-.19.36-.23.64C6.32,9.67,5.95,8.64,6.45,8.41Z"/><path class="cls-13" d="M6.29,8.59c.67-.3.86.45,1,.9A3.92,3.92,0,0,1,8,11.38c0,.14,0,.29,0,.43s-.13.22-.19.35c-.67,1.38-.68.45-.58,0S7,11.33,7.1,10.6s-.16-.92-.53-.76c-.14.06-.19.36-.23.64C6.16,9.85,5.79,8.82,6.29,8.59Z"/><path class="cls-14" d="M8.26,12.75a17.47,17.47,0,0,1-.74-2c.14.32.6,1.56.45.35,0-.12.25.21.11-.35.54,1.3.33,1.45.68,2.32a2,2,0,0,0,.77.82C9,13.86,8.58,13.57,8.26,12.75Z"/><path class="cls-15" d="M6.46,11c0,.06,0,.13.05.2-.05-.14-.1-.28-.13-.41Z"/><path class="cls-14" d="M6.5,13.19c0-.12,0-.24.06-.35.22.12.47.23.71.37.51.28.89.31.08-.57a4.3,4.3,0,0,1-.84-1.47c0-.07,0-.14-.05-.2l-.08-.21c-.12-.39-.18-.6-.26-.81S6,9.3,6.1,9.2c.27-.27.81,0,1,.57.3.75.24.65.38,1a17.47,17.47,0,0,0,.74,2c.32.82.72,1.11,1.26,1.12a2.28,2.28,0,0,0,.46.25L8.84,15.83a6.8,6.8,0,0,0-.94-.23c-.39-.05-1.37-.39-1.45-.84A3,3,0,0,1,6.5,13.19Z"/><path class="cls-13" d="M6.51,11.16a4.3,4.3,0,0,0,.84,1.47c.81.88.43.86-.08.57-.25-.14-.5-.25-.71-.37A4.34,4.34,0,0,0,6.51,11.16Z"/><path class="cls-13" d="M6.22,10.22c.42.78.61,2,1.16,2.63,1,1.1.35,1.1-.38.24-.18-.21-.29-.47-.5-.59A7.93,7.93,0,0,0,6.22,10.22Z"/><path class="cls-14" d="M6,11.81c.07-.63.3-.88.59-.76s.27.48.39,1.26a2,2,0,0,0,.79,1.3l.28.19a.88.88,0,0,1,.27.72,1,1,0,0,1-1.08.81,1,1,0,0,1-.51-.19L6.56,15a2,2,0,0,1-.46-.77,1.45,1.45,0,0,1,0-1C6.2,12.9,6,12.3,6,11.81Z"/><path class="cls-7" d="M16.57,24.6c.13-.54.31-1.52.32-1.55L8.2,16.28l1.62-3.22L17.09,21a3.94,3.94,0,0,0,.51.53c0,.29.11.81.16,1.45l-.05,3.3h0c-.13,1-.11,6.21-.11,6.21-1.06.76-1.82-1.45-1.79-2C15.81,30.49,16.55,24.68,16.57,24.6Z"/><path class="cls-16" d="M22.94,33h.14c-2.11,0-3.9-5-3.9-10.95h-.11C19.07,28.13,20.77,33,22.94,33Z"/><ellipse class="cls-17" cx="20.79" cy="31.77" rx="0.11" ry="0.21" transform="translate(-14.35 17.38) rotate(-34.53)"/><ellipse class="cls-17" cx="20.22" cy="30.63" rx="0.11" ry="0.21" transform="translate(-10.94 11.23) rotate(-24.66)"/><ellipse class="cls-17" cx="19.83" cy="29.59" rx="0.11" ry="0.22" transform="translate(-7.06 6.23) rotate(-15.19)"/><ellipse class="cls-17" cx="19.45" cy="28.38" rx="0.11" ry="0.21" transform="translate(-6.75 6.08) rotate(-15.17)"/><ellipse class="cls-17" cx="19.21" cy="26.94" rx="0.11" ry="0.21" transform="translate(-5.65 5.11) rotate(-13.22)"/><ellipse class="cls-17" cx="18.98" cy="25.67" rx="0.11" ry="0.21" transform="translate(-0.53 0.4) rotate(-1.18)"/><ellipse class="cls-17" cx="18.84" cy="24.42" rx="0.11" ry="0.21" transform="translate(-0.51 0.4) rotate(-1.2)"/><ellipse class="cls-17" cx="18.83" cy="23.22" rx="0.11" ry="0.21" transform="translate(-0.48 0.4) rotate(-1.2)"/><polygon class="cls-18" points="17.67 21.95 18.36 23.24 19.78 23.24 20.47 21.95 17.67 21.95"/><polygon class="cls-18" points="18.36 23.24 18.07 29.38 19.07 31.33 20.27 29.38 19.78 23.24 18.36 23.24"/><path class="cls-7" d="M36.09,19.28A17,17,0,0,1,25.7,20.46c-.83-.23-1.14-.37-1.93-.61h0a5.31,5.31,0,0,1-2.11,1.53l-.87.36c-.09,1.92,1.67,11.33,4.11,11.29a5.35,5.35,0,0,0,4.83-3.65A25,25,0,0,0,26.6,25a15.35,15.35,0,0,1-1.84-2.63h0l0,0A16,16,0,0,0,31,23.9h.22A23.15,23.15,0,0,0,37.15,23,18.73,18.73,0,0,0,36.09,19.28Z"/><path class="cls-6" d="M21.62,21.37a6.07,6.07,0,0,0,1.1-.6L23.56,22l-.87,1.19L24,24.9h0l-2.08,3.26-1.74-6.23A13.94,13.94,0,0,0,21.62,21.37Z"/><polygon class="cls-19" points="21.87 28.17 23.79 25.18 23.93 25.37 23.93 25.38 21.96 28.47 21.87 28.17"/><polygon class="cls-10" points="23.41 22.23 23.56 22.45 22.84 23.43 22.68 23.22 23.41 22.23"/><g class="cls-20"><path class="cls-21" d="M21.47,23l-1.85-.31-.25-.54a6.48,6.48,0,0,0,1.94-.59Z"/><path class="cls-21" d="M18.73,22.15l-.2.44-1.4-.11.13-1.23A2.64,2.64,0,0,0,18.73,22.15Z"/></g><path class="cls-10" d="M24.78,22.44A16.47,16.47,0,0,0,26.6,25a25,25,0,0,1,3.09,4.34,4.86,4.86,0,0,1-.28.65,24.58,24.58,0,0,1-2.49-3.38A22.48,22.48,0,0,1,24.78,22.44Z"/><polygon class="cls-7" points="16.88 23.13 16.88 23.13 16.88 23.13 16.88 23.13"/><path class="cls-6" d="M16.88,23.13h0l-.59-1.27.75-1,0,.06a3.94,3.94,0,0,0,.51.53c0,.29.11.81.16,1.45l-.05,3.3h0L16.57,24.6l-.15-.21.45-1.25Z"/><path class="cls-10" d="M16.53,24.93s0-.25,0-.32h0l0,0,1.12,1.62h0c0,.11,0,.21,0,.32L16.59,25Z"/><g class="cls-20"><polygon class="cls-7" points="16.88 23.13 16.88 23.13 16.88 23.13 16.88 23.13"/><polygon class="cls-7" points="16.32 21.95 16.81 23 16.52 22.77 16.21 22.1 16.32 21.95"/></g><path class="cls-22" d="M20.16,22l1.62,5.79.08.3v0h0c.73,2.57,1.78,4.87,3,4.86h0l-.4,0-.52,0c-1-.58-1.79-2.54-2.4-4.68h0v0l-.08-.3-1.65-5.9Z"/><path class="cls-21" d="M21.47,22.94l-1.85-.31-.25-.54a6.49,6.49,0,0,0,1.94-.59Z"/><path class="cls-21" d="M18.73,22.06l-.2.44-1.4-.11.13-1.23A2.64,2.64,0,0,0,18.73,22.06Z"/><polygon class="cls-23" points="9.44 13.81 8.47 15.73 8.25 15.67 9.04 13.47 9.44 13.81"/><path class="cls-24" d="M43.14,18.87H31.62a.85.85,0,0,0-.85.85v8.11a.85.85,0,0,0,.85.85H43.14a.85.85,0,0,0,.85-.85V19.72A.85.85,0,0,0,43.14,18.87Zm.32,8.64a.79.79,0,0,1-.79.79H32.08a.79.79,0,0,1-.79-.79V20a.79.79,0,0,1,.79-.79h10.6a.79.79,0,0,1,.79.79Z"/><rect class="cls-25" x="31.3" y="19.26" width="12.17" height="9.03" rx="0.79" ry="0.79"/><rect class="cls-17" x="33.3" y="19.72" width="0.03" height="8.12"/><rect class="cls-17" x="33.66" y="19.72" width="0.03" height="8.12"/><rect class="cls-17" x="34.01" y="19.72" width="0.03" height="8.12"/><rect class="cls-17" x="34.36" y="19.72" width="0.03" height="8.12"/><rect class="cls-17" x="34.72" y="19.72" width="0.03" height="8.12"/><rect class="cls-17" x="35.07" y="19.72" width="0.03" height="8.12"/><rect class="cls-17" x="35.42" y="19.72" width="0.03" height="8.12"/><rect class="cls-17" x="35.78" y="19.72" width="0.03" height="8.12"/><rect class="cls-17" x="36.13" y="19.72" width="0.03" height="8.12"/><rect class="cls-17" x="36.48" y="19.72" width="0.03" height="8.12"/><rect class="cls-17" x="36.84" y="19.72" width="0.03" height="8.12"/><rect class="cls-17" x="37.19" y="19.72" width="0.03" height="8.12"/><rect class="cls-17" x="37.54" y="19.72" width="0.03" height="8.12"/><rect class="cls-17" x="37.9" y="19.72" width="0.03" height="8.12"/><rect class="cls-17" x="38.25" y="19.72" width="0.03" height="8.12"/><rect class="cls-17" x="38.6" y="19.72" width="0.03" height="8.12"/><rect class="cls-17" x="38.96" y="19.72" width="0.03" height="8.12"/><rect class="cls-17" x="39.31" y="19.72" width="0.03" height="8.12"/><rect class="cls-17" x="39.66" y="19.72" width="0.03" height="8.12"/><rect class="cls-17" x="40.02" y="19.72" width="0.03" height="8.12"/><rect class="cls-17" x="40.37" y="19.72" width="0.03" height="8.12"/><rect class="cls-17" x="40.72" y="19.72" width="0.03" height="8.12"/><rect class="cls-17" x="41.08" y="19.72" width="0.03" height="8.12"/><rect class="cls-17" x="41.43" y="19.72" width="0.03" height="8.12"/><rect class="cls-17" x="33.32" y="19.7" width="8.12" height="0.03"/><rect class="cls-17" x="33.32" y="20.05" width="8.12" height="0.03"/><rect class="cls-17" x="33.32" y="20.4" width="8.12" height="0.03"/><rect class="cls-17" x="33.32" y="20.76" width="8.12" height="0.03"/><rect class="cls-17" x="33.32" y="21.11" width="8.12" height="0.03"/><rect class="cls-17" x="33.32" y="21.46" width="8.12" height="0.03"/><rect class="cls-17" x="33.32" y="21.82" width="8.12" height="0.03"/><rect class="cls-17" x="33.32" y="22.17" width="8.12" height="0.03"/><rect class="cls-17" x="33.32" y="22.52" width="8.12" height="0.03"/><rect class="cls-17" x="33.32" y="22.88" width="8.12" height="0.03"/><rect class="cls-17" x="33.32" y="23.23" width="8.12" height="0.03"/><rect class="cls-17" x="33.32" y="23.58" width="8.12" height="0.03"/><rect class="cls-17" x="33.32" y="23.94" width="8.12" height="0.03"/><rect class="cls-17" x="33.32" y="24.29" width="8.12" height="0.03"/><rect class="cls-17" x="33.32" y="24.64" width="8.12" height="0.03"/><rect class="cls-17" x="33.32" y="25" width="8.12" height="0.03"/><rect class="cls-17" x="33.32" y="25.35" width="8.12" height="0.03"/><rect class="cls-17" x="33.32" y="25.7" width="8.12" height="0.03"/><rect class="cls-17" x="33.32" y="26.06" width="8.12" height="0.03"/><rect class="cls-17" x="33.32" y="26.41" width="8.12" height="0.03"/><rect class="cls-17" x="33.32" y="26.76" width="8.12" height="0.03"/><rect class="cls-17" x="33.32" y="27.12" width="8.12" height="0.03"/><rect class="cls-17" x="33.32" y="27.47" width="8.12" height="0.03"/><rect class="cls-17" x="33.32" y="27.82" width="8.12" height="0.03"/><path class="cls-26" d="M33.56,26.72a.19.19,0,0,1-.16-.3l1.81-2.61,1.53,1.06,1.79-2.57,1,.72L41,20.91a.19.19,0,1,1,.31.22l-1.69,2.43-1-.72L36.84,25.4l-1.53-1.06-1.6,2.3A.19.19,0,0,1,33.56,26.72Z"/><path class="cls-14" d="M40.55,19c-.06.43-.25,1.67-.32,2.07s-.2.53-.34.56-.57.08-.54-.51.16-2.14.1-1.78-.13,2-.18,2.2-.16.45-.44.43-.51-.16-.47-1,.12-2.12,0-1.57-.15,2.33-.22,2.58-.2.39-.41.34-.41-.5-.4-1.67,0-1.71-.08-1.24c-.06.77,0,2.29-.08,2.51-.13.48-.49.42-.63.29s-.23-1-.23-1.67c0-1.4,0-1.68-.22-1.68H35.8A2.58,2.58,0,0,1,38,17.74C40,17.72,40.64,18.28,40.55,19Z"/><path class="cls-13" d="M35.45,18.87c-.34-.25-1.46-1.17-1.73-1.33a.55.55,0,0,0-.69,0,.64.64,0,0,0,.16.76c.24.21.61.57.61.57Z"/><path class="cls-27" d="M33.24,17.77a.55.55,0,0,1,.69,0c.22.13,1,.72,1.43,1.09h.09c-.34-.25-1.46-1.17-1.73-1.33a.55.55,0,0,0-.69,0,.64.64,0,0,0,.16.76l.09.08A.6.6,0,0,1,33.24,17.77Z"/><path class="cls-13" d="M36.35,20a2.89,2.89,0,0,1,2.71-2,2.79,2.79,0,0,1,1.21.27A3.49,3.49,0,0,0,38,17.74a2.58,2.58,0,0,0-2.18,1.13h.34C36.33,18.87,36.35,19.07,36.35,20Z"/><ellipse class="cls-28" cx="16.02" cy="16.28" rx="1.08" ry="0.86" transform="translate(-0.53 32.02) rotate(-89.03)"/><ellipse class="cls-28" cx="24.49" cy="17.07" rx="1.08" ry="1.11" transform="translate(2.62 37.37) rotate(-77.74)"/><path class="cls-14" d="M16.18,13.63c.21-2.89,0-3.49,1.56-2.4,1.07.77,3.8.47,5,.47,2.06,0,1.7,2,1.72,2.83,0,.41,0,2.81,0,3.35,0,1.39-1.07,2.75-2.86,3.5s-3.42,1.59-5-1.15A5.39,5.39,0,0,1,15.81,17C15.86,16.42,16.15,14,16.18,13.63Z"/><path class="cls-29" d="M20.74,15.67c0,.43.35.55.79.55s.79-.12.79-.55a.79.79,0,0,0-1.57,0Z"/><ellipse class="cls-30" cx="21.27" cy="15.36" rx="0.4" ry="0.23" transform="translate(-4.61 19.63) rotate(-45.19)"/><path class="cls-29" d="M16.62,15.19c0,.4.33.52.73.52s.73-.11.73-.52a.73.73,0,1,0-1.46,0Z"/><ellipse class="cls-30" cx="17.11" cy="14.89" rx="0.38" ry="0.22" transform="translate(-5.52 16.46) rotate(-44.99)"/><polygon class="cls-31" points="20.56 13.85 23.29 13.36 23.27 13.19 20.52 13.51 20.56 13.85"/><polygon class="cls-31" points="16.45 12.97 18.49 13.49 18.41 13.79 16.41 13.16 16.45 12.97"/><path class="cls-32" d="M16.29,12c.11-1.46.28-1.63,1.46-.78s3.8.47,5,.47c2.06,0,1.7,2,1.72,2.83v.06c-.06-1,0-2.75-2-2.57-.2,0-2.47.27-3.31.33A7.23,7.23,0,0,1,16.29,12Z"/><path class="cls-33" d="M15.89,10.51a7.06,7.06,0,0,0,.53.54h0a4.66,4.66,0,0,0-.14,1h0a1.49,1.49,0,0,1-.55-.37c0-.27,0-.53,0-.79A3.21,3.21,0,0,1,15.89,10.51Z"/><path class="cls-34" d="M17.3,18.28A2,2,0,0,0,18,20.13a2.47,2.47,0,0,0,2.67-.78c.63-.93.08-.65-.19-.62C17.54,19.06,17.31,17.72,17.3,18.28Z"/><path class="cls-17" d="M17.53,18.29s0,0,0,0a4.1,4.1,0,0,0,3,.46c.27,0,.83-.31.2.62a1.81,1.81,0,0,1-.21.25C18.84,19.55,17.53,19,17.53,18.29Z"/><path class="cls-35" d="M18,20.13a2.47,2.47,0,0,0,2.66-.79c.08-.12.14-.21.18-.29a1.91,1.91,0,0,1-.24.5,2.36,2.36,0,0,1-2.6.78,1.65,1.65,0,0,1-.69-1.25A1.55,1.55,0,0,0,18,20.13Z"/><path class="cls-35" d="M17.51,18.06h0a4.37,4.37,0,0,0,3.07.47c.19,0,.49-.15.5,0a.65.65,0,0,1-.11.3.32.32,0,0,0,0-.1c0-.18-.3-.06-.48,0a4.1,4.1,0,0,1-3-.46h0c-.2-.14-.23-.19-.23,0a4.22,4.22,0,0,0,0,.6,3.55,3.55,0,0,1-.06-.8C17.27,17.87,17.31,17.92,17.51,18.06Z"/><path class="cls-36" d="M18.49,16.49a.08.08,0,1,1,.11.11c-.29.27-.27.54-.14.7a.65.65,0,0,0,.87.08.08.08,0,0,1,.08.13.8.8,0,0,1-1.08-.12A.65.65,0,0,1,18.49,16.49Z"/><path class="cls-37" d="M24.48,14.53c0-.87.34-2.83-1.72-2.83-1.22,0-4,.3-5-.47-1.52-1.1-1.36-.49-1.56,2.4,0,.36-.1,1-.2,1.79a9.37,9.37,0,0,1-.27-2.74q0-.52,0-1t0-.82A4.16,4.16,0,0,1,20,8.1h.7c2.24,0,4.09,1.09,4.46,2.53q0,.4,0,.82t0,1A16,16,0,0,1,24.48,17C24.48,16.42,24.49,14.93,24.48,14.53Z"/><path class="cls-38" d="M25.22,8.54c-1-1.37-2.67-1.28-4.3-1.16a2.05,2.05,0,0,1-1-2c.1-1.07-1.46.17-2.34,1.62a5,5,0,0,0-.1,2.3,6.25,6.25,0,0,1-.73-3.42c-.56-.81-1.69,2.45-1.16,4.11a2.32,2.32,0,0,0,.57.88l.22.16c.16-.5.49-.41,1.32.18a4.36,4.36,0,0,0,2.22.52c.76,0,1.37,0,1.53,0l.62,0,.65,0c2.06,0,1.7,2,1.72,2.83,0,.41,0,1.89,0,2.43a6.48,6.48,0,0,0,1.68-3.59C26.31,12.3,26.94,11.5,25.22,8.54Z"/><path class="cls-37" d="M17.53,9.32a5,5,0,0,1,.1-2.3,2,2,0,0,1-.75-1,.76.76,0,0,0-.08-.16A6.25,6.25,0,0,0,17.53,9.32Z"/><path class="cls-39" d="M22.89,14.3a12.74,12.74,0,0,0-1.94,0,10.05,10.05,0,0,0-1.1.18,1.15,1.15,0,0,1-.77-.08,10.06,10.06,0,0,0-1-.4,12.73,12.73,0,0,0-1.9-.4,14,14,0,0,0-1.71,0l-.06.63.18,0c.18,0,.28,1.07.43,1.62a1,1,0,0,0,.91.64c.19,0,1.13.13,1.67.17s1.31-1.22,1.5-1.51a.38.38,0,0,1,.66.07c.12.33.62,1.72,1.16,1.79s1.49.15,1.67.17a1,1,0,0,0,1-.44c.26-.51.57-1.51.75-1.5l.18,0,.07-.63A14,14,0,0,0,22.89,14.3Zm-4.67,1.53a1.13,1.13,0,0,1-1.2.6c-.75-.08-1.18-.07-1.56-.38s-.35-1.35-.33-1.56.17-.75,1.54-.6c.28,0,1.6.17,1.89.65S18.45,15.53,18.21,15.83Zm5.49-.46c0,.22-.21,1.23-.64,1.46s-.86.13-1.61.05a1.13,1.13,0,0,1-1-.83c-.17-.34-.45-.93-.07-1.34s1.7-.28,2-.25C23.68,14.6,23.73,15.15,23.7,15.37Z"/><path class="cls-39" d="M21.5,17.11,20.87,17c-.37,0-.77-.66-1.19-1.8v0a.29.29,0,0,0-.25-.19h0a.29.29,0,0,0-.28.13v0c-.65,1-1.16,1.55-1.54,1.52l-.63-.06-.81-.09-.23,0a1,1,0,0,1-1-.69c-.05-.19-.1-.44-.14-.68a2.84,2.84,0,0,0-.24-.9l-.16,0v-.06h-.06l.06-.68h.21a12.2,12.2,0,0,1,1.56.05,12.78,12.78,0,0,1,1.9.4,10.05,10.05,0,0,1,1,.41,1.1,1.1,0,0,0,.74.08,10.17,10.17,0,0,1,1.11-.18,12.79,12.79,0,0,1,1.95,0,12.14,12.14,0,0,1,1.54.27l.16,0h0l-.08.68H24.5l0,.05h-.16c-.08,0-.29.53-.42.83s-.19.46-.28.63a1,1,0,0,1-1.08.48l-.23,0Zm-2.07-2.2a.4.4,0,0,1,.34.26v0c.51,1.38.88,1.7,1.11,1.73l.63.07.81.08.23,0a.88.88,0,0,0,1-.41c.09-.17.18-.4.27-.63.24-.58.38-.91.53-.9h.13l.06-.52-.11,0a12,12,0,0,0-1.52-.27,12.65,12.65,0,0,0-1.93,0,9.9,9.9,0,0,0-1.09.18,1.21,1.21,0,0,1-.81-.08,9.83,9.83,0,0,0-1-.4,12.65,12.65,0,0,0-1.89-.4,11.89,11.89,0,0,0-1.54-.05h-.11l0,.52.12,0c.15,0,.22.37.33,1,0,.24.09.48.14.67a.88.88,0,0,0,.87.6l.23,0,.81.09.63.06c.23,0,.66-.23,1.44-1.47v0a.4.4,0,0,1,.39-.19h0ZM22,17l-.21,0-.26,0h-.11a1.12,1.12,0,0,1-1-.77l0-.09c-.16-.34-.47-1-.06-1.4s1.42-.33,2-.27h0a1.85,1.85,0,0,1,1.3.51.61.61,0,0,1,.12.46s-.16,1.24-.67,1.51A1.75,1.75,0,0,1,22,17Zm-.46-.17.26,0,.21,0a1.63,1.63,0,0,0,1-.11c.38-.2.57-1.09.61-1.42a.49.49,0,0,0-.1-.37,1.79,1.79,0,0,0-1.23-.47c-1-.1-1.71,0-1.94.23s-.08.94.08,1.27l0,.09a1,1,0,0,0,.95.71Zm-5.11-.41a1.75,1.75,0,0,1-1-.34c-.44-.37-.35-1.6-.35-1.61a.61.61,0,0,1,.21-.42,1.85,1.85,0,0,1,1.38-.23h0c.61.06,1.66.24,1.93.68s-.12,1.07-.35,1.36l-.06.08a1.12,1.12,0,0,1-1.17.55h-.11l-.26,0Zm.21-2.49a1.78,1.78,0,0,0-1.3.21.49.49,0,0,0-.17.34c0,.33,0,1.24.31,1.52a1.63,1.63,0,0,0,1,.31l.21,0,.26,0H17a1,1,0,0,0,1.07-.5l.06-.08c.23-.29.61-.78.34-1.23-.18-.29-.85-.52-1.84-.63Z"/></g></g></svg>