<svg xmlns="http://www.w3.org/2000/svg" viewBox="0 0 50 50"><defs><style>.cls-1{isolation:isolate;}.cls-2{fill:#cbcac8;}.cls-3{fill:#170d03;}.cls-4{fill:#b34c29;}.cls-5{fill:#d4672c;}.cls-6{fill:#100f0b;}.cls-7{fill:#47443e;}.cls-8{fill:#5e5b51;}.cls-9{fill:#68472a;}.cls-10{fill:#be9157;}.cls-11{fill:#dfb578;}.cls-12{fill:#8e602f;}.cls-13,.cls-18{fill:#754c29;}.cls-13{opacity:0.2;}.cls-14,.cls-16,.cls-18,.cls-19,.cls-21{opacity:0.5;}.cls-15{fill:#603913;}.cls-16{mix-blend-mode:screen;}.cls-17{fill:#77502d;}.cls-19{fill:#bcbec0;}.cls-20{fill:#e6e7e8;opacity:0.7;}.cls-21{fill:#53415b;mix-blend-mode:multiply;}.cls-22{fill:#96724b;}.cls-23{fill:#aaaead;}</style></defs><title>icones-adm</title><g class="cls-1"><g id="Camada_1" data-name="Camada 1"><circle class="cls-2" cx="25" cy="25" r="25"/><ellipse class="cls-3" cx="35.15" cy="37.94" rx="1.67" ry="3.44"/><ellipse class="cls-3" cx="30.99" cy="40.02" rx="1.67" ry="3.44"/><path class="cls-3" d="M27.31,38.41l-11.13-.68a1.72,1.72,0,0,0-1.84,1.73v1.89l.06,1.2a.67.67,0,0,0,.6.66l7.58.74h0l3.46.32a8.08,8.08,0,0,0,3.51-.62l7-3.33c.83-.38.64-1,.64-2.18l.06-3.49Z"/><path class="cls-4" d="M37.29,34.14v5.38l-7.75,3.63a8.08,8.08,0,0,1-3.51.62l-9.86-.9a2.07,2.07,0,0,1-1.84-2V39a1.72,1.72,0,0,1,1.84-1.73l11.13.68Z"/><path class="cls-5" d="M31.89,36.72l-4.58,1.2-11.13-.68A1.72,1.72,0,0,0,14.33,39v.29l11.9.91a14,14,0,0,0,5.63-1.07Z"/><path class="cls-4" d="M29.24,41.18s.45-2.87-2.34-3.1-11.18-.82-11.18-.82l2.56-.83,13.34.3,1.7,2.52Z"/><path class="cls-4" d="M14.33,39.62V42.1a.67.67,0,0,0,.6.66l7.64.69Z"/><path class="cls-6" d="M15.54,40.74c0,.24-.12.44-.27.44S15,41,15,40.74v-.37c0-.24.12-.44.27-.44s.27.2.27.44Z"/><path class="cls-6" d="M16.93,40.86c0,.24-.12.44-.27.44s-.27-.2-.27-.44v-.37c0-.24.12-.44.27-.44s.27.2.27.44Z"/><path class="cls-6" d="M18.31,41c0,.24-.12.44-.27.44s-.27-.2-.27-.44v-.37c0-.24.12-.44.27-.44s.27.2.27.44Z"/><path class="cls-6" d="M19.69,41.1c0,.24-.12.44-.27.44s-.27-.2-.27-.44v-.37c0-.24.12-.44.27-.44s.27.2.27.44Z"/><path class="cls-6" d="M21.08,41.22c0,.24-.12.44-.27.44s-.27-.2-.27-.44v-.37c0-.24.12-.44.27-.44s.27.2.27.44Z"/><path class="cls-6" d="M22.46,41.34c0,.24-.12.44-.27.44s-.27-.2-.27-.44V41c0-.24.12-.44.27-.44s.27.2.27.44Z"/><path class="cls-6" d="M23.84,41.47c0,.24-.12.44-.27.44s-.27-.2-.27-.44V41.1c0-.24.12-.44.27-.44s.27.2.27.44Z"/><path class="cls-6" d="M25.23,41.59c0,.24-.12.44-.27.44s-.27-.2-.27-.44v-.37c0-.24.12-.44.27-.44s.27.2.27.44Z"/><path class="cls-6" d="M26.61,41.71c0,.24-.12.44-.27.44s-.27-.2-.27-.44v-.37c0-.24.12-.44.27-.44s.27.2.27.44Z"/><polygon class="cls-7" points="12.04 43.58 11.22 43.92 11.22 34.88 12.04 34.54 12.04 43.58"/><polygon class="cls-8" points="39.38 41.31 38.16 41.23 38.16 32.19 39.38 32.28 39.38 41.31"/><polygon class="cls-7" points="40.2 40.97 39.38 41.31 39.38 32.28 40.2 31.94 40.2 40.97"/><polygon class="cls-8" points="10 36.5 30.27 37.72 30.27 35.88 10 34.81 10 36.5"/><polygon class="cls-9" points="9.8 33.17 30.27 34.4 40.2 30.09 19.93 29.27 9.8 33.17"/><polygon class="cls-10" points="16.61 30.86 25.54 31.36 25.54 11.49 16.61 10.99 16.61 30.86"/><polygon class="cls-11" points="16.61 10.99 25.54 11.49 30.62 9.77 21.77 9.29 16.61 10.99"/><polygon class="cls-12" points="30.45 29.55 25.54 31.36 25.54 11.49 30.62 9.77 30.45 29.55"/><polygon class="cls-13" points="18.93 10.22 27.84 10.7 28.88 10.36 19.93 9.87 18.93 10.22"/><g class="cls-14"><polygon class="cls-15" points="25.55 16.46 25.54 16.46 16.61 15.96 16.61 15.86 25.53 16.36 30.44 14.55 30.47 14.64 25.55 16.46"/></g><g class="cls-14"><polygon class="cls-15" points="25.55 21.48 25.54 21.48 16.61 20.97 16.61 20.87 25.53 21.38 30.44 19.57 30.47 19.66 25.55 21.48"/></g><g class="cls-14"><polygon class="cls-15" points="25.55 26.49 25.54 26.49 16.61 25.99 16.61 25.89 25.53 26.39 30.44 24.58 30.47 24.68 25.55 26.49"/></g><g class="cls-16"><polygon class="cls-15" points="25.55 16.56 25.54 16.56 16.61 16.06 16.61 15.96 25.53 16.46 30.44 14.65 30.47 14.74 25.55 16.56"/></g><g class="cls-16"><polygon class="cls-15" points="25.55 21.58 25.54 21.58 16.61 21.07 16.61 20.97 25.53 21.48 30.44 19.67 30.47 19.76 25.55 21.58"/></g><g class="cls-16"><polygon class="cls-15" points="25.55 26.59 25.54 26.59 16.61 26.09 16.61 25.99 25.53 26.49 30.44 24.68 30.47 24.78 25.55 26.59"/></g><polygon class="cls-17" points="26.04 31.45 34.97 31.95 34.97 12.08 26.04 11.58 26.04 31.45"/><polygon class="cls-11" points="26.04 11.58 34.97 12.08 39.38 10.27 31.1 9.87 26.04 11.58"/><polygon class="cls-12" points="39.38 30.14 34.97 31.95 34.97 12.08 39.38 10.27 39.38 30.14"/><polygon class="cls-13" points="28.36 10.8 36.87 11.29 37.84 10.9 29.36 10.46 28.36 10.8"/><polygon class="cls-18" points="37.84 12.71 37.84 10.9 36.87 11.29 36.87 13.11 37.84 12.71"/><g class="cls-14"><polygon class="cls-15" points="34.99 17.1 34.97 17.1 26.03 16.6 26.05 16.4 34.95 16.9 39.35 15.09 39.42 15.28 34.99 17.1"/></g><g class="cls-14"><polygon class="cls-15" points="34.99 22.12 34.97 22.11 26.03 21.61 26.05 21.41 34.95 21.91 39.35 20.11 39.42 20.3 34.99 22.12"/></g><g class="cls-14"><polygon class="cls-15" points="34.99 27.13 34.97 27.13 26.03 26.63 26.05 26.43 34.95 26.93 39.35 25.13 39.42 25.31 34.99 27.13"/></g><g class="cls-16"><polygon class="cls-15" points="34.98 17.15 34.97 17.15 26.04 16.65 26.04 16.55 34.96 17.05 39.37 15.24 39.4 15.33 34.98 17.15"/></g><g class="cls-16"><polygon class="cls-15" points="34.98 22.17 34.97 22.16 26.04 21.66 26.04 21.56 34.96 22.06 39.37 20.26 39.4 20.35 34.98 22.17"/></g><g class="cls-16"><polygon class="cls-15" points="34.98 27.18 34.97 27.18 26.04 26.68 26.04 26.58 34.96 27.08 39.37 25.27 39.4 25.37 34.98 27.18"/></g><polygon class="cls-10" points="10.33 33.04 19.8 33.55 19.8 13.43 10.33 12.92 10.33 33.04"/><polygon class="cls-11" points="10.33 12.92 19.8 13.43 25.18 11.69 15.8 11.2 10.33 12.92"/><polygon class="cls-12" points="25 31.71 19.8 33.55 19.8 13.43 25.18 11.69 25 31.71"/><polygon class="cls-13" points="12.8 12.14 22.23 12.63 23.34 12.29 13.85 11.79 12.8 12.14"/><g class="cls-14"><polygon class="cls-15" points="19.81 18.51 19.79 18.51 10.33 18 10.34 17.8 19.78 18.31 24.97 16.48 25.04 16.67 19.81 18.51"/></g><g class="cls-14"><polygon class="cls-15" points="19.81 23.59 19.79 23.59 10.33 23.08 10.34 22.88 19.78 23.39 24.97 21.56 25.04 21.75 19.81 23.59"/></g><g class="cls-14"><polygon class="cls-15" points="19.81 28.67 19.79 28.67 10.33 28.16 10.34 27.96 19.78 28.47 24.97 26.64 25.04 26.83 19.81 28.67"/></g><g class="cls-16"><polygon class="cls-15" points="19.8 18.56 19.79 18.56 10.33 18.05 10.34 17.95 19.79 18.46 24.99 16.63 25.02 16.72 19.8 18.56"/></g><g class="cls-16"><polygon class="cls-15" points="19.8 23.64 19.79 23.64 10.33 23.13 10.34 23.03 19.79 23.54 24.99 21.71 25.02 21.8 19.8 23.64"/></g><g class="cls-16"><polygon class="cls-15" points="19.8 28.72 19.79 28.72 10.33 28.21 10.34 28.11 19.79 28.62 24.99 26.79 25.02 26.88 19.8 28.72"/></g><polygon class="cls-10" points="20.3 33.63 29.9 34.14 29.9 14.03 20.3 13.52 20.3 33.63"/><polygon class="cls-11" points="20.3 13.52 29.9 14.03 34.64 12.19 25.74 11.79 20.3 13.52"/><polygon class="cls-12" points="34.64 32.11 29.9 34.14 29.9 14.03 34.64 12.19 34.64 32.11"/><polygon class="cls-13" points="22.8 12.73 31.94 13.22 32.99 12.83 23.87 12.39 22.8 12.73"/><polygon class="cls-18" points="32.99 14.66 32.99 12.83 31.94 13.22 31.94 15.06 32.99 14.66"/><g class="cls-14"><polygon class="cls-15" points="29.92 19.11 29.89 19.1 20.3 18.6 20.31 18.39 29.88 18.9 34.61 17.07 34.68 17.26 29.92 19.11"/></g><g class="cls-14"><polygon class="cls-15" points="29.92 24.19 29.89 24.18 20.3 23.68 20.31 23.48 29.88 23.98 34.61 22.15 34.68 22.34 29.92 24.19"/></g><g class="cls-14"><polygon class="cls-15" points="29.92 29.27 29.89 29.27 20.3 28.76 20.31 28.55 29.88 29.06 34.61 27.23 34.68 27.42 29.92 29.27"/></g><g class="cls-16"><polygon class="cls-15" points="29.91 19.16 29.9 19.16 20.3 18.65 20.3 18.55 29.89 19.05 34.63 17.22 34.66 17.32 29.91 19.16"/></g><g class="cls-16"><polygon class="cls-15" points="29.91 24.24 29.9 24.24 20.3 23.73 20.3 23.63 29.89 24.13 34.63 22.3 34.66 22.4 29.91 24.24"/></g><g class="cls-16"><polygon class="cls-15" points="29.91 29.32 29.9 29.32 20.3 28.81 20.3 28.7 29.89 29.21 34.63 27.38 34.66 27.48 29.91 29.32"/></g><polygon class="cls-18" points="32.99 19.72 32.99 17.89 31.94 18.28 31.94 20.12 32.99 19.72"/><polygon class="cls-18" points="37.88 17.7 37.88 15.87 36.83 16.26 36.83 18.1 37.88 17.7"/><polygon class="cls-18" points="37.88 22.73 37.88 20.9 36.83 21.29 36.83 23.13 37.88 22.73"/><polygon class="cls-18" points="37.88 27.65 37.88 25.82 36.83 26.21 36.83 28.05 37.88 27.65"/><polygon class="cls-18" points="32.99 24.8 32.99 22.97 31.94 23.36 31.94 25.2 32.99 24.8"/><polygon class="cls-18" points="32.99 29.88 32.99 28.05 31.94 28.44 31.94 30.28 32.99 29.88"/><polygon class="cls-19" points="31.3 17.71 31.3 16.88 30.25 17.28 30.25 18.11 31.3 17.71"/><polygon class="cls-19" points="36.3 16.01 36.3 15.19 35.25 15.58 35.25 16.42 36.3 16.01"/><polygon class="cls-19" points="36.3 19.12 36.3 17.29 35.25 17.69 35.25 19.53 36.3 19.12"/><polygon class="cls-19" points="31.3 22.98 31.3 22.15 30.25 22.54 30.25 23.38 31.3 22.98"/><polygon class="cls-19" points="34.36 26.84 34.36 26.02 33.31 26.41 33.31 27.25 34.36 26.84"/><polygon class="cls-19" points="36.3 31.01 36.3 30.18 35.25 30.58 35.25 31.41 36.3 31.01"/><polygon class="cls-20" points="27.34 33.46 29.28 33.53 29.28 32.61 27.34 32.54 27.34 33.46"/><polygon class="cls-19" points="36.24 25.3 37.92 24.33 37.77 23.35 36.09 24.32 36.24 25.3"/><polygon class="cls-21" points="29.48 13.03 33.38 12.58 34.97 12.08 38.44 10.66 31.68 10.36 29.48 13.03"/><polygon class="cls-10" points="20.55 12.53 29.48 13.03 29.48 7.21 20.55 6.71 20.55 12.53"/><polygon class="cls-11" points="20.55 6.71 29.48 7.21 33.89 5.39 25.71 5 20.55 6.71"/><polygon class="cls-12" points="33.89 11.21 29.48 13.03 29.48 7.21 33.89 5.39 33.89 11.21"/><polygon class="cls-13" points="22.87 5.93 31.38 6.42 32.35 6.03 23.86 5.59 22.87 5.93"/><polygon class="cls-18" points="32.35 7.83 32.35 6.03 31.38 6.42 31.38 8.23 32.35 7.83"/><polygon class="cls-8" points="11.22 43.92 10 43.83 10 34.8 11.22 34.88 11.22 43.92"/><polygon class="cls-8" points="30.27 45 29.04 44.91 29.04 35.88 30.27 35.96 30.27 45"/><polygon class="cls-7" points="31.09 44.66 30.27 45 30.27 35.96 31.09 35.62 31.09 44.66"/><polygon class="cls-7" points="40.2 33.69 30.27 37.78 30.27 36.04 40.2 31.85 40.2 33.69"/><polygon class="cls-10" points="9.8 34.86 30.27 36.08 30.27 34.34 9.8 33.17 9.8 34.86"/><polygon class="cls-3" points="30.47 34.48 40 30.45 40 31.85 30.47 35.78 30.47 34.48"/><path class="cls-22" d="M39.8,30.76v1l-9.14,3.76v-.87l9.14-3.86Zm.4-.6-9.94,4.19v1.74L40.2,32V30.15Z"/><polygon class="cls-22" points="36.09 33.6 35.08 33.97 35.08 32.41 36.09 32.11 36.09 33.6"/><ellipse class="cls-23" cx="33.67" cy="39.14" rx="0.69" ry="1.42"/></g></g></svg>