<svg id="Camada_1" data-name="Camada 1" xmlns="http://www.w3.org/2000/svg" viewBox="0 0 127 107"><defs><style>.cls-1{fill:#fff;}.cls-2{fill:#d8d8d1;}.cls-3{fill:#70b4c3;}.cls-4{fill:#54919c;}.cls-5{fill:#282224;}.cls-6{fill:none;}.cls-7{fill:#c5e2ce;}.cls-8{fill:#213755;}.cls-9{fill:#e32221;}.cls-10{fill:#f32f36;}.cls-11{fill:#bb080b;}.cls-12{fill:#e7d9df;}</style></defs><title>icone-estab-</title><path class="cls-1" d="M106,33.17s0,.06,0,.09v.14s0,0,0-.07c-.17,2.57-2.91,4.61-6.28,4.61h-1.5c-3.44,0-6.23-2.13-6.29-4.77-.06,2.64-2.85,4.77-6.29,4.77h-1.5c-3.44,0-6.23-2.13-6.29-4.77-.07,2.64-2.85,4.77-6.29,4.77H70c-3.44,0-6.22-2.13-6.29-4.77-.07,2.64-2.85,4.77-6.29,4.77H56c-3.44,0-6.23-2.13-6.29-4.77-.07,2.64-2.86,4.77-6.29,4.77h-1.5c-3.43,0-6.22-2.12-6.29-4.76-.07,2.64-2.86,4.76-6.29,4.76H27.8c-3.43,0-6.22-2.12-6.29-4.75a4,4,0,0,1,0,.49c-.38,2.4-3,4.26-6.25,4.26H13.66V96.59h99.68V37.94h-1C108.86,37.94,106.07,35.81,106,33.17Z"/><path class="cls-2" d="M13.66,15.13v22.8h1.55c3.22,0,5.86-1.86,6.25-4.26a4,4,0,0,0,0-.49c.08,2.63,2.86,4.75,6.29,4.75h1.5c3.43,0,6.22-2.12,6.29-4.76.07,2.64,2.86,4.76,6.29,4.76h1.5c3.44,0,6.23-2.13,6.29-4.77.07,2.64,2.86,4.77,6.29,4.77h1.5c3.44,0,6.22-2.13,6.29-4.77.07,2.64,2.86,4.77,6.29,4.77h1.5c3.44,0,6.23-2.13,6.29-4.77.07,2.64,2.86,4.77,6.29,4.77h1.5c3.44,0,6.23-2.13,6.29-4.77.06,2.64,2.85,4.77,6.29,4.77h1.5c3.37,0,6.11-2,6.28-4.61,0,0,0,0,0,.07v-.14s0-.06,0-.09c.06,2.64,2.85,4.77,6.29,4.77h1V15.13Z"/><polygon class="cls-3" points="25.59 33.9 25.59 86.51 26.08 86.51 101.21 33.9 25.59 33.9"/><polygon class="cls-4" points="26.08 86.51 101.41 86.51 101.41 33.9 101.21 33.9 26.08 86.51"/><path class="cls-5" d="M116.95,99.25a4.25,4.25,0,0,1-4.25,4.25H14.3a4.25,4.25,0,0,1-4.25-4.25h0A4.25,4.25,0,0,1,14.3,95h98.4a4.25,4.25,0,0,1,4.25,4.25Z"/><path class="cls-6" d="M81.55,54.38a3.94,3.94,0,0,1,2.15,3.47V74.09a4.07,4.07,0,0,1-4.16,4H47.45a4.3,4.3,0,0,1-1.94-.46,4.3,4.3,0,0,0,2,.49H79.6a4.07,4.07,0,0,0,4.16-4V57.88A3.94,3.94,0,0,0,81.55,54.38Z"/><path class="cls-6" d="M79.54,78a4.07,4.07,0,0,0,4.16-4V57.85a3.94,3.94,0,0,0-2.15-3.47,4.3,4.3,0,0,0-1.94-.46H47.51a4.07,4.07,0,0,0-4.16,4V74.12a3.94,3.94,0,0,0,2.15,3.47,4.3,4.3,0,0,0,1.94.46ZM44.33,73.84V57.6a3.06,3.06,0,0,1,3.16-3H79.58a3.07,3.07,0,0,1,3.16,3V73.84a3.07,3.07,0,0,1-3.16,3H47.49A3.07,3.07,0,0,1,44.33,73.84Z"/><path class="cls-7" d="M79.58,76.8a3.07,3.07,0,0,0,3.16-3V57.6a3.07,3.07,0,0,0-3.16-3H47.49a3.06,3.06,0,0,0-3.16,3V73.84a3.07,3.07,0,0,0,3.16,3Z"/><path class="cls-8" d="M81.12,52.5H45.88a4,4,0,0,0-4,4V75.38a4,4,0,0,0,4,4H81.12a4,4,0,0,0,4-4V56.52A4,4,0,0,0,81.12,52.5Zm2.65,21.62a4.07,4.07,0,0,1-4.16,4H47.51a4.3,4.3,0,0,1-2-.49,3.94,3.94,0,0,1-2.22-3.5V57.85a4.07,4.07,0,0,1,4.16-4H79.54a4.3,4.3,0,0,1,2,.49,3.94,3.94,0,0,1,2.22,3.5Z"/><path class="cls-9" d="M43.35,74.12V57.88a4.07,4.07,0,0,1,4.16-4H79.6a4.3,4.3,0,0,1,1.94.46,4.3,4.3,0,0,0-2-.49H47.45a4.07,4.07,0,0,0-4.16,4V74.09a3.94,3.94,0,0,0,2.22,3.5A3.94,3.94,0,0,1,43.35,74.12Z"/><polygon class="cls-9" points="67.31 67.18 70.86 67.18 70.86 64.97 67.31 64.97 67.31 62.48 71.07 62.48 71.07 60.26 65.12 60.26 65.12 72.26 71.27 72.26 71.27 70.03 67.31 70.03 67.31 67.18"/><path class="cls-9" d="M79.07,63.76c0,1.8,0,3.42.19,5h0a39.08,39.08,0,0,0-1.57-4.11l-2-4.4H73.09v12h2V68.64c0-2,0-3.65-.08-5.23l0,0c.47,1.41,1.1,3,1.67,4.24l2.06,4.63h2.29v-12h-2Z"/><path class="cls-9" d="M62.38,61.13a4,4,0,0,0-2.95-1,14.35,14.35,0,0,0-2.94.25V72.26h2.16V68a4.46,4.46,0,0,0,.74.05,3.94,3.94,0,0,0,3.13-1.26,4.38,4.38,0,0,0,.89-2.85A3.9,3.9,0,0,0,62.38,61.13Zm-3,4.81a2.71,2.71,0,0,1-.73-.07V62.32a3,3,0,0,1,.9-.11A1.58,1.58,0,0,1,61.25,64,1.77,1.77,0,0,1,59.37,65.94Z"/><path class="cls-9" d="M50.15,60.06c-2.85,0-4.69,2.69-4.69,6.28,0,3.42,1.67,6.11,4.53,6.11s4.73-2.39,4.73-6.32C54.72,62.82,53.11,60.06,50.15,60.06Zm0,10.24c-1.46,0-2.35-1.66-2.35-4s.86-4.08,2.33-4.08,2.33,1.85,2.33,4C52.42,68.55,51.58,70.3,50.1,70.3Z"/><path class="cls-1" d="M60.85,46.82a2.17,2.17,0,0,0,3-.08l9.65,5.76H76.8L64.5,45.16a2.17,2.17,0,0,0-4.35.07s0,0,0,0L49.51,52.5h3Z"/><circle class="cls-9" cx="62.3" cy="45.23" r="2.25"/><polygon class="cls-6" points="30.6 9.74 30.6 9.58 30.6 9.54 30.59 9.74 30.6 9.74"/><path class="cls-6" d="M17,24.46c0,.13,0,.27-.06.4s0,.16.05.24c0-.08,0-.16.06-.24S17,24.6,17,24.46Z"/><polygon class="cls-6" points="30.18 22.71 30.6 9.74 30.59 9.74 30.18 22.71"/><polygon class="cls-6" points="70.17 10.08 70.17 10.22 70.2 10.22 70.2 10.08 70.17 10.08"/><polygon class="cls-6" points="96.61 10.45 93.69 6.03 96.6 10.47 96.61 10.45"/><path class="cls-10" d="M17,24.46c0-.11,0-.22,0-.33s0-.31,0-.47l.43-14.1L4.19,9.37l-.43,14.1A6.41,6.41,0,0,0,10.08,30h.62A6.4,6.4,0,0,0,17,25.1c0-.08,0-.16-.05-.24S17,24.6,17,24.46Z"/><path class="cls-1" d="M30.59,9.74l-13.2-.18L17,23.66c0,.16,0,.31,0,.47s0,.22,0,.33,0,.27.05.4,0,.16-.06.24a6.41,6.41,0,0,0,6.17,5h.61a6.52,6.52,0,0,0,6.58-5.82,6.39,6.39,0,0,1-.19-1.62Z"/><path class="cls-1" d="M17,23.66c0,.16,0,.31,0,.47C17,24,17,23.82,17,23.66Z"/><path class="cls-10" d="M43.8,9.92,30.6,9.74l-.42,13a6.4,6.4,0,0,0,6.32,6.5h.62a6.41,6.41,0,0,0,6.37-5.12,6.43,6.43,0,0,1-.1-1.2Z"/><path class="cls-1" d="M57,10.1,43.8,9.92l-.41,13a6.41,6.41,0,0,0,6.32,6.5h.62a6.41,6.41,0,0,0,6.31-4.87,6.54,6.54,0,0,1,0-.87Z"/><path class="cls-10" d="M70.2,10.29,57,10.1l-.42,13.56a6.54,6.54,0,0,0,0,.87,6.41,6.41,0,0,0,6.27,5.63h.62a6.41,6.41,0,0,0,6.37-5.12,6.45,6.45,0,0,1-.1-1.2Z"/><path class="cls-1" d="M83.4,10.47l-13.2-.18-.42,13.56a6.42,6.42,0,0,0,6.32,6.5h.62a6.41,6.41,0,0,0,6.48-6A6.44,6.44,0,0,1,83,22.74Z"/><path class="cls-10" d="M96.6,10.65l-13.2-.18L83,22.74a6.4,6.4,0,0,0,6.32,6.5h.61a6.41,6.41,0,0,0,6.31-4.86,6.46,6.46,0,0,1,0-.87Z"/><path class="cls-1" d="M109.8,10.83l-13.2-.18-.41,12.86a6.41,6.41,0,0,0,6.32,6.5h.62a6.41,6.41,0,0,0,6.36-5.12,6.43,6.43,0,0,1-.1-1.2Z"/><path class="cls-10" d="M109.8,10.83l-.41,12.86a6.41,6.41,0,0,0,6.32,6.49h.62a6.41,6.41,0,0,0,6.5-6.32L123.23,11Z"/><polygon class="cls-6" points="57 9.9 57.09 3.5 57.09 3.5 57 9.9 57 9.9"/><polygon class="cls-6" points="92.03 3.5 92.03 3.5 93.69 6.03 92.03 3.5"/><polygon class="cls-6" points="109.81 10.63 102.41 3.5 102.35 3.5 109.81 10.69 109.81 10.63"/><polygon class="cls-6" points="96.61 10.45 93.69 6.03 96.6 10.47 96.61 10.45"/><polygon class="cls-6" points="70.2 10.22 70.2 10.08 70.17 10.08 70.17 10.22 70.2 10.22"/><polygon class="cls-6" points="34.53 3.5 30.6 9.54 34.54 3.5 34.53 3.5"/><polygon class="cls-11" points="23.35 3.5 13.77 3.5 4.19 9.17 4.19 9.37 17.39 9.56 17.39 9.36 23.35 3.5"/><polygon class="cls-12" points="23.35 3.5 17.39 9.36 17.39 9.56 30.59 9.74 30.6 9.54 34.53 3.5 23.35 3.5"/><polygon class="cls-11" points="46.12 3.5 34.54 3.5 30.6 9.54 30.6 9.58 30.6 9.74 43.8 9.92 43.8 9.72 46.12 3.5"/><polygon class="cls-12" points="57.09 3.5 46.12 3.5 43.8 9.72 43.8 9.92 57 10.1 57 9.9 57.09 3.5"/><polygon class="cls-11" points="70.17 10.22 70.17 10.08 70.26 3.5 57.09 3.5 57 9.9 57 9.9 57 10.1 70.2 10.29 70.2 10.22 70.17 10.22"/><polygon class="cls-12" points="80.87 3.5 70.26 3.5 70.17 10.08 70.2 10.08 70.2 10.22 70.2 10.29 83.4 10.47 83.4 10.27 80.87 3.5"/><polygon class="cls-11" points="93.69 6.03 92.03 3.5 80.87 3.5 83.4 10.27 83.4 10.47 96.6 10.65 96.6 10.47 93.69 6.03"/><polygon class="cls-12" points="102.35 3.5 92.03 3.5 93.69 6.03 96.61 10.45 96.6 10.47 96.6 10.65 109.8 10.83 109.81 10.69 102.35 3.5"/><polygon class="cls-11" points="112.72 3.5 102.41 3.5 109.81 10.63 109.81 10.69 109.8 10.83 123.23 11.02 123.24 10.82 112.72 3.5"/></svg>