<svg id="Camada_1" data-name="Camada 1" xmlns="http://www.w3.org/2000/svg" xmlns:xlink="http://www.w3.org/1999/xlink" viewBox="0 0 500 502"><defs><style>.cls-1{fill:none;}.cls-2{fill:#67b2dc;}.cls-3{clip-path:url(#clip-path);}.cls-4{fill:#1c0f0a;}.cls-5{fill:#b98a7a;}.cls-6{fill:#eff9ff;}.cls-7{fill:#8f5b4a;}.cls-8{fill:#2b0e09;}.cls-9{fill:#e6b7cb;}.cls-10{fill:#ffdd92;}.cls-11{fill:#cca237;}.cls-12{fill:#4e345d;}.cls-13{fill:#e5bd4a;}.cls-14{fill:#3e6860;}.cls-15{fill:#4f7b74;}.cls-16{fill:#2d1611;}.cls-17{fill:#405e58;}.cls-18{fill:#a64a4a;}.cls-19,.cls-44{fill:#fff;}.cls-20{clip-path:url(#clip-path-2);}.cls-21{fill:#f3d5c5;}.cls-22{fill:#c2954e;}.cls-23{fill:#edbba8;}.cls-24{fill:#5e211c;}.cls-25{fill:#a62f1e;}.cls-26{fill:#e0bbaa;}.cls-27{fill:#cdcdcd;}.cls-28{fill:#394042;}.cls-29{fill:#454f51;}.cls-30{fill:#202728;}.cls-31{fill:#bcd6e1;}.cls-32{fill:#c1834f;}.cls-33{fill:#ad5c34;}.cls-34{fill:#e8b27e;}.cls-35{clip-path:url(#clip-path-3);}.cls-36{fill:#e2c479;}.cls-37{clip-path:url(#clip-path-4);}.cls-38{fill:#f4dfab;}.cls-39{fill:#ca9d8f;}.cls-40{fill:#efcc58;}.cls-41{fill:#e39880;}.cls-42{clip-path:url(#clip-path-5);}.cls-43{fill:#0f253b;}.cls-44{font-size:60px;font-family:DKStickyToffee-Regular, DK Sticky Toffee;}.cls-45{letter-spacing:-0.01em;}.cls-46{letter-spacing:-0.05em;}.cls-47{letter-spacing:-0.04em;}.cls-48{letter-spacing:-0.03em;}.cls-49{letter-spacing:-0.04em;}.cls-50{letter-spacing:-0.06em;}.cls-51{letter-spacing:-0.07em;}</style><clipPath id="clip-path"><rect class="cls-1" x="1" y="-112" width="500" height="500"/></clipPath><clipPath id="clip-path-2"><rect class="cls-1" x="16" y="-102" width="500" height="500"/></clipPath><clipPath id="clip-path-3"><path class="cls-1" d="M233.54,114.16s-14,13.84-20,18.49c0,0,1.36,61.84,2.61,73.75h20.79l1-86.15Z"/></clipPath><clipPath id="clip-path-4"><path class="cls-1" d="M326.86,206.81s-1.75-65.7,0-91.9c0,0-57.35-2.2-93.33-.75,0,0,.11,80.74.44,92.65C234,206.81,316.7,206.23,326.86,206.81Z"/></clipPath><clipPath id="clip-path-5"><path class="cls-1" d="M148.82,201c-1.11-.62-3.56-2.27-5.53-3.66-3.59-2.52-5.7-3.13-8.9-4.75a59.22,59.22,0,0,0-7-3c-4.91-1.72-9.89-1.8-12.92,3.1-2.84,4.61-1.46,9.47,1.13,13.51a28.44,28.44,0,0,0,2.93,3.77c.95,1,11.24,10.41,13.67,11.59C138,224.41,149.59,211.06,148.82,201Z"/></clipPath></defs><title>icone-</title><rect class="cls-2" x="3" y="4" width="500" height="500"/><g class="cls-3"><path class="cls-4" d="M362.76,119.7a7.9,7.9,0,0,0-.42-3.29c-.62-1.42-1.68-2.34-2.16-4a16.91,16.91,0,0,1,.58-10.45c3.47-9.64,13.11-21.59,22-26.22,19.66-11.18,40.1-1.16,59.76,5.4,18.51,5.78,20,27.76,22,45.11,2.31,18.51.39,44.72-24.68,45.5,1.16-1.16,2.31-3.09,3.47-4.24-3.86,4.63-11.18,6.17-16.58,6.17,1.93-1.54,3.47-3.86,5.4-5.4-7.33,8.87-24.68,6.17-33.54,4.24l1.16.77a14.08,14.08,0,0,1-11.18,0c.77,0,1.93.39,2.31.39-1.13,0-2.6.92-3.83,1a12.83,12.83,0,0,1-4.23-.31c-2.06-.49-3.63-1.65-5.54-2.41-2.28-.91-4.77-.84-7.07-1.82a20.79,20.79,0,0,1-6.25-4.19c-1.73-1.68-4.33-4-4.66-6.55a3.51,3.51,0,0,1,0,2.45c-3.24-1-4-6.18-4.82-8.73,0,.34,0,.73,0,1.09-4.29-7,2.08-17.08,5.5-23.11,2-3.6,3.08-6,2.85-10C362.75,120.65,362.76,120.18,362.76,119.7Z"/><path class="cls-5" d="M445.2,390.53c-1.16-11-7.71-26-9.44-37-3.18-20.65-3.08-61.35-7.18-83.75a39.62,39.62,0,0,0-1.16-5.91c-.91-3.64-3-6.06-4.54-9.39-2.12-3.64-1.52-6.06-1.21-10a327.26,327.26,0,0,0,.61-34.55c-.2-7.85-.77-14.31-4.76-21.33-.57-1-5.64-4.68-5.64-4.72,0-2.52-.35-6.25-1-11.7,10-3.86,16.46-8.31,18.89-12.94,6.32-12,4.65-16.16,4.26-24.26-.39-6.94-4.65-12.16-6.58-12.16-4.51,0-27.37-2.67-37-19.55-2.14-3.74-8.1-17.43-8.1-17.43a50.11,50.11,0,0,0-15.81,16.58c-5.78,9.25-3.47,18.89-5.78,28.92-1.93,8.87-7.33,16.58-1.16,25.06,6.17,9.25,16.19,15.42,27.37,15.81,3.08,0,8.48-1.16,10.79,1.16,1.59,1.59,1.87,6.6,2.14,9.82a17.21,17.21,0,0,0-3.71.69c-3,1.21-5.45,3.64-8.49,4.85a45.88,45.88,0,0,1-11.21,2.12c-9.7.61-19.4,1.52-29.09,1.82-14.13.45-28.65-.24-42.51,1.14-9.37.94-11.88-9.94-20.42-10.75-.45,3.77,4.5,5.27,4.51,8.76-4.35.68-11.19-2.69-15.36-3.89-1.34-.39-7.52-3-6.48.4.51,1.64,5.34,2.89,6.73,4a52,52,0,0,1-6-1.13c.6,2.38,4,3,6,4.21a25.53,25.53,0,0,1-3.69-.74c1.85,3,11,7.39,14.6,8.07,2.89.55,5.27-.55,7.71-1.28,6.38-1.92,13.26-.73,19.76-.56,16.37.91,33-.3,49.4-.61,7.88-.3,16.67.61,24.55-1.21-.6,5.76-4.24,12.12-3.33,18.18.91,5.15,4.24,8.18,3.94,13.64-.3,6.67,0,15.45-2.73,21.52-3.3,7.2-6.3,12.92-6.36,21-2,22.09,3.39,92,12.92,137.55H404c2.31-22-2-41.86-3.18-64.41-.49-10.84,3.12-46.28,2.1-58.15.78-.11-.74.11,0,0,3,16.66,7.4,33.86,25.77,118.88.89,4.12,4.81.22,7.7,3.69,3.47,4,5.21,1.53,8.1-4.25C447.33,401.37,445.78,396.31,445.2,390.53Z"/><path class="cls-6" d="M370.9,297.09c0,2.7-2.86,10.07,2.59,7.7.77,3.47,3.47,5.4,5.4,1.16.39,3.47,3.08,5,5,1.54.77,4.24,3.47,3.86,5.4.39,1.16,3.86,4.63,2.7,5-1.16.77,4.63,4.24,4.63,5,0,.77,2.31,2.31,3.09,4.24,3.86.38-1.16,1.16-1.93,1.16-3.08,1.93,3.47,7.71,4.63,6.94-.77,1.93,3.09,5.4,3.47,6.94.39,2.31,2.31,6.55,3.08,7.32-.77,2.7,1.93,6.94,2.7,7.71-1.16,3.47,1.54,5-1.16,5-4.63h0c.77.77,2.31.77,3.08,1.16,0-1.16.77-2.7.39-4.24.77,1.16,1.93,1.16,2.7,1.93.77-3.47-1.93-8.1-4.63-10Z"/><path class="cls-7" d="M382.75,125.5l.36.82c.1.28.18.57.27.87s.12.6.18.9a7.57,7.57,0,0,1,.07.92c0,.31,0,.62,0,.93s-.12.61-.18.92-.2.6-.31.89a8.53,8.53,0,0,1-.44.84,6.94,6.94,0,0,1-.56.77,5.94,5.94,0,0,1-.67.68,7,7,0,0,1-1.58,1.05,6.13,6.13,0,0,1-.87.37,6.44,6.44,0,0,1-.9.27c-.31.06-.61.15-.92.18l-.93.1.44-.37-.18,1.06a2.76,2.76,0,0,0,0,.53v.54a9.31,9.31,0,0,0,.13,1.06,2.32,2.32,0,0,0,.14.52l.17.51a2.89,2.89,0,0,0,.23.49l.25.49c.09.16.21.29.32.45l.32.45.78.81c.3.23.59.47.88.71-.33-.18-.68-.35-1-.54l-.93-.7c-.27-.28-.56-.55-.81-.86l-.33-.5a3.32,3.32,0,0,1-.31-.51l-.24-.55a2.75,2.75,0,0,1-.2-.57l-.14-.59a2.54,2.54,0,0,1-.1-.6l0-.6a3.44,3.44,0,0,1,0-.6l.15-1.19a.42.42,0,0,1,.37-.37h.07l.84-.11c.28,0,.55-.12.83-.17a6.47,6.47,0,0,0,.8-.25,5.16,5.16,0,0,0,.77-.32,6.3,6.3,0,0,0,1.39-.89,5.13,5.13,0,0,0,.6-.56,6.11,6.11,0,0,0,.52-.64c.16-.22.28-.47.44-.71s.23-.51.34-.77a8.09,8.09,0,0,0,.37-1.66c0-.29.05-.57,0-.86s0-.58,0-.87A14.24,14.24,0,0,0,382.75,125.5Z"/><path class="cls-8" d="M370.79,109.31a8.35,8.35,0,0,0,3.86-4.24,3.84,3.84,0,0,0-4.24,5Z"/><path class="cls-8" d="M404,106.61c1.54,1.16,4.63,2.31,6.94,3.47-.39-3.09-3.86-4.24-6.55-4.24Z"/><path class="cls-9" d="M411.28,137.84c-1.54-.38-6.94.77-5,4.63,2.31,4.24,14.27,0,8.1-3.86Z"/><path class="cls-9" d="M367.34,136.34c-2.32-.4-5,.12-5.47,2.24-.63,2.61,3.11,3.19,4.81,3,1.27-.14,3.24-.6,4-1.75C371.83,138.18,369.77,136.75,367.34,136.34Z"/><path d="M372.64,124.67c-.92,1.47-.77,4.2,1,4.65,2.49.62,3.11-4.66,1.17-5.44A1.7,1.7,0,0,0,372.64,124.67Z"/><path d="M398.37,126.93a3.2,3.2,0,0,0-.59,4.35c1.76,2.51,4.24-1.33,4-3.18C401.54,125.73,399.66,125.8,398.37,126.93Z"/><path class="cls-10" d="M377.35,188.73c-.39,5.4,4.24,13.11,8.48,16.19a30.83,30.83,0,0,0,2.21-3.29c-3.3-3.52-5.58-9.81-6.83-14.36A24.27,24.27,0,0,0,377.35,188.73Z"/><path class="cls-11" d="M392.77,182.95c-2.88,2.31-7.48,3.1-11.56,4.32,1.25,4.56,3.53,10.84,6.83,14.36a50.19,50.19,0,0,0,5.89-16.37Z"/><path class="cls-12" d="M399.08,221.5l.34.46a9.18,9.18,0,0,0,.94,1.12,10.35,10.35,0,0,0,1.53,1.32,11,11,0,0,0,1,.61,10,10,0,0,0,1,.53,20.23,20.23,0,0,0,4.17,1.34c.59.13,1.1.23,1.45.29l.56.11-.57.09a9.67,9.67,0,0,1-1.51.08,11.47,11.47,0,0,1-4.52-1,11,11,0,0,1-1.12-.61,7.78,7.78,0,0,1-1-.74,7.42,7.42,0,0,1-.82-.82,6,6,0,0,1-.62-.83,4.38,4.38,0,0,1-.42-.77,3.58,3.58,0,0,1-.25-.62Z"/><path class="cls-10" d="M382.06,245.72c-.47,1.72-.75,3.13-.47,3.54,2.31,4.63,22,4.63,26.6,4.24,6.55-.38,21.37-2.56,19.28-8.48-.06-.18-.11-.37-.17-.55-6.34,3.49-15.12,5.17-24.12,5.18C390.43,249.66,387.93,248.26,382.06,245.72Z"/><path class="cls-13" d="M423.23,199.53c-.38-3.86,0-8.87-1.16-12.34-.77-3.09-3.85-5-3.85-8.48l-24.68,1.54c-1.16,6.17-5,12.94-7.33,18.72-3.85,10-6.16,16-2.69,25.62,1.93,4.63,1.93,7.33,1.16,12.72-.25,1.24-1.76,5.33-2.61,8.41,5.87,2.54,8.37,3.93,21.12,3.93,9,0,17.79-1.69,24.12-5.18-2.13-6.48-2.16-14.65-2.53-20.66C424,215.72,423.62,207.62,423.23,199.53Z"/><path class="cls-14" d="M427.93,261.11a58,58,0,0,0-3.55-4.91c-12,6.94-30.84,9.35-43.18,1.25,0,0-1.9,1.68-3.4,6.26,5.46,4.68,15.89,5.21,21.91,5.21C408.38,268.93,419.78,266.18,427.93,261.11Z"/><path class="cls-15" d="M440.2,285.12c-3.78-7.87-7.32-16.49-12.26-24-8.15,5.07-19.55,7.82-28.22,7.82-6,0-16.45-.53-21.91-5.21a144.18,144.18,0,0,0-7.47,34.17c-.21,2.24,1.7,3.09,3.63,3.87s4.18,3.27,5.72,3.66c8.87,1.93,16.56-2.56,25-1.4,8.48,1.54,17,2.7,25.45-1.54C439,298.23,445.21,295.53,440.2,285.12Z"/><path class="cls-7" d="M286.36,197.21a4.24,4.24,0,0,1,.49-.74,5.45,5.45,0,0,1,3.25-1.9,4,4,0,0,1,.89-.06,4.53,4.53,0,0,1-.66.59c-.2.16-.45.31-.7.49a8.92,8.92,0,0,1-.82.5c-.28.16-.55.33-.83.46l-.78.37A4.3,4.3,0,0,1,286.36,197.21Z"/><path class="cls-16" d="M399.45,79.62c-.77,13.88,17.74,34.7,31.62,32.39v-5.4c3.08,3.86,6.94,6.94,10.79,6.94,0-2.31.77-3.85,0-5.4,6.17,6.94,12.34,3.08,9.25-5.4l4.63,6.94c2.31-6.17-1.54-12.34-4.63-17h0c-17,0-23.18,3.11-44-7.38Z"/><path class="cls-17" d="M419.38,265.84s.19.34.51.94.78,1.46,1.29,2.5c1.06,2.07,2.27,4.94,3.45,7.81.53,1.46,1.07,2.92,1.53,4.3.23.69.48,1.35.65,2l.5,1.82c.31,1.12.52,2.07.69,2.73s.24,1,.24,1-.16-.36-.42-1-.64-1.52-1.05-2.61l-.66-1.75c-.22-.62-.52-1.26-.77-1.94-.54-1.34-1.09-2.79-1.64-4.23s-1.14-2.87-1.65-4.23l-1.39-3.72c-.41-1.09-.71-2-.94-2.65S419.38,265.84,419.38,265.84Z"/><path class="cls-17" d="M411.28,268.93l.26,1.45.28,1.67c.09.65.25,1.37.42,2.15l.53,2.52c.2.89.47,1.83.69,2.8.45,1.95,1,4,1.54,6.09l.78,3.1c.27,1,.48,2,.71,3s.45,1.93.6,2.84l.47,2.56a21,21,0,0,1,.32,2.18l.19,1.69.15,1.47-.34-1.44c-.22-.91-.47-2.23-.87-3.78l-.63-2.51c-.21-.89-.51-1.82-.75-2.79l-1.6-6.08-.76-3.11c-.26-1-.46-2-.67-3s-.4-1.94-.54-2.86l-.38-2.59-.16-1.15c0-.37,0-.71-.07-1l-.1-1.69Z"/><path class="cls-17" d="M388.14,268.54l.21,1.14.22,1.32a13.6,13.6,0,0,1,.22,1.72c.11,1.27.26,2.76.28,4.34,0,.79.05,1.62,0,2.45s0,1.68,0,2.53c-.07,1.69-.14,3.38-.25,5l-.32,4.31-.24,3.05-.11,1.16-.08-1.16c0-.74-.13-1.8-.12-3.07s0-2.75,0-4.33.08-3.27.13-5,.12-3.37.13-4.94c0-.79,0-1.55,0-2.27s0-1.4,0-2c0-1.26-.06-2.32-.08-3.06S388.14,268.54,388.14,268.54Z"/><path class="cls-17" d="M383.13,267a19.65,19.65,0,0,1,0,2,29.94,29.94,0,0,1-1.33,8.49,19.51,19.51,0,0,1-.63,1.87s0-.8.06-2a42.5,42.5,0,0,1,.55-4.24c.21-1.55.5-3.08.78-4.23S383.13,267,383.13,267Z"/><path class="cls-18" d="M374.06,152.52c2,4.63,5.82,8.39,11,8.06s12.92-6.11,13.87-12C392.34,154.25,380.69,155.76,374.06,152.52Z"/><path class="cls-19" d="M398.94,146.32c-8.48,4.63-17.74,6.17-27,3.08l1.16.38a19.48,19.48,0,0,0,1,2.73c6.63,3.24,18.28,1.73,24.87-3.9A6.89,6.89,0,0,0,398.94,146.32Z"/><path class="cls-6" d="M378.19,264.29a.25.25,0,0,1-.16-.05l-.39-.32a.25.25,0,0,1,.32-.38l.38.31a.25.25,0,0,1-.16.45Z"/><path class="cls-6" d="M399.65,269.18a.25.25,0,0,1,0-.5h1a.25.25,0,0,1,0,.5h-1Zm-1.95,0h0l-1,0a.25.25,0,0,1-.24-.26.26.26,0,0,1,.26-.24l1,0a.25.25,0,0,1,0,.5Zm4.86-.07a.25.25,0,0,1,0-.5l1-.07a.25.25,0,0,1,.27.23.25.25,0,0,1-.23.27l-1,.07Zm-7.78,0h0l-1-.07a.25.25,0,0,1-.23-.27.24.24,0,0,1,.27-.23l1,.06a.25.25,0,0,1,0,.5Zm10.69-.22a.25.25,0,0,1,0-.5l1-.12a.26.26,0,0,1,.28.21.25.25,0,0,1-.21.28l-1,.12Zm-13.6,0h0l-1-.11a.25.25,0,0,1-.22-.28.24.24,0,0,1,.28-.22l1,.11a.25.25,0,0,1,0,.5Zm16.48-.39a.25.25,0,0,1,0-.5l1-.17a.24.24,0,0,1,.29.2.25.25,0,0,1-.2.29l-1,.17Zm-19.38,0h0l-1-.17a.25.25,0,1,1,.09-.49l1,.17a.25.25,0,0,1,0,.5Zm22.24-.55a.25.25,0,0,1-.05-.49l.94-.21a.25.25,0,0,1,.11.49l-1,.21Zm-25.1,0h-.06l-.95-.25a.25.25,0,1,1,.13-.48l.93.24a.25.25,0,0,1-.06.49Zm27.93-.66a.25.25,0,0,1-.06-.49l.93-.26a.25.25,0,1,1,.14.48l-.94.26ZM383.33,267h-.08l-.92-.34a.25.25,0,0,1-.14-.33.25.25,0,0,1,.33-.14l.9.34a.25.25,0,0,1-.08.49Zm33.53-.65a.25.25,0,0,1-.08-.49l.92-.3a.25.25,0,0,1,.32.16.25.25,0,0,1-.16.32l-.93.31Zm-36.21-.49-.11,0q-.44-.23-.86-.48a.25.25,0,0,1,.25-.43q.41.24.84.46a.25.25,0,0,1-.11.47Zm39-.46a.25.25,0,0,1-.09-.48l.91-.35a.25.25,0,0,1,.18.46l-.91.35Zm2.71-1.1a.25.25,0,0,1-.1-.48l.88-.4a.25.25,0,0,1,.21.45l-.89.4ZM425,263a.25.25,0,0,1-.11-.47l.86-.45a.25.25,0,1,1,.24.44l-.87.46Z"/><path class="cls-6" d="M427.51,261.62a.25.25,0,0,1-.13-.46l.42-.26a.25.25,0,0,1,.34.08.25.25,0,0,1-.08.34l-.43.26A.25.25,0,0,1,427.51,261.62Z"/><g class="cls-20"><path class="cls-19" d="M150.74,159.28a75.18,75.18,0,0,0-5.77,7.89c-5.77.61-9.41-8.5-10.62-13.05,5.46-1.21,11.84,1.52,17,3.34Z"/><path class="cls-21" d="M148.61,113.15a24,24,0,0,1,4.25,10.32c.61,3.34-1.52,13.05.61,15.78,2.73,3.34,11.53-1.21,12.75,3.64,1.21,4.55-7.89,7.59-11.23,7.28-.91,3.34.91,6.68.61,10-5.46.91-10.62-2.43-15.78-3.34,1.21,5.46,10,7.59,8.5,12.75-1.21,4.86-10.62,10-15.18,10.62-2.43.3-4.86,0-7.28.3-4.25,1.21-4.25,3.95-7.59,5.77-3.34,2.13-12.93-.06-17.18-.06,1.45-11.67-.12-13.29-9.53-18.76-12.14-7.28-26.41-14.87-28.83-30.35-3.95-23.37,18.51-40.37,38.85-44,15.78-2.73,38.24,1.52,47.35,16.69Z"/><path class="cls-22" d="M137.38,94c7.59.91,17,10.32,16.09,18.21-2.12,0-3.64-1.82-5.16-3.34,0,2.12-.91,10-3,3.64.79,2.36-4.25,7.08-5.73,8.35a21.55,21.55,0,0,1-9.07,4.7c.11,3.54,3.64,11.07.33,14-4,3.52-7.29-13.85-12.85-4.59-3.34,5.57-3.86,22.27,6,21.6-.54,0-2.37,4.05-2.62,4.63-1.68,3.79-5.39,9.88-10.39,9.88-3.64-.3-2.73-3-2.73-6.37-.61,5.77-8.61,20.91-13.87,9.94-1.21,8.5-8.17,4.2-9.08-2.17-.3,5.77-4.39,5-5.3-.12-2.73,7-4.33-1.92-4.94-3.74-1.21-4.25-7-8.15-10.2-12.34-5.23-6.77-8.5-13.73-8.19-22.23.61-19.73,18.51-39.46,37.63-44a91,91,0,0,1,18.21-2.73c3,0,6.37-.3,9.1,0,3.34.61,6.37,2.73,9.71,2.73Z"/><path class="cls-23" d="M127.89,149.06c.89-4.79-6.08-13.88-8.73-6.23-1.25,3.6-.28,7.9,3.23,9.25C125.45,153.25,127.31,152.16,127.89,149.06Z"/><path d="M147.67,132.55a.67.67,0,0,0-.3,0c-.32.11-.55.66-.69.95a6.21,6.21,0,0,0-.58,2.61c0,1.11.49,3.49,1.83,3.73,2,.35,1.28-5.1,1-6.12A1.84,1.84,0,0,0,147.67,132.55Z"/><path class="cls-24" d="M152.63,108.61c10.7-2.31,20.53-7.52,30.36-11.86,7.52-3.47,16.77-9,24.87-9.54,12.72-.87-.58,9.25-4.63,12.15-6.94,4.63-16.19,8.1-24.29,11-9.83,3.47-20.53,5.78-30.65,8.39,0-3.18.87-6.07,1.16-9Z"/><path class="cls-25" d="M152.92,113.52l-.58-2.89c1.45-6.65-5.78-26.31-11.57-30.65-6.15-4.57-14.18-3.64-22.14-1.76,8.29,4.92,13.58,22.74,15.72,30.32a81.39,81.39,0,0,1,1.78,18.25C143.07,123.58,149.41,119.32,152.92,113.52Z"/><path class="cls-19" d="M118.63,78.22C112,79.79,105.39,82,100,82.29c-15.33.58-34.11,3.08-43.37,17.83-5.49,9.54-5.2,33.61,0,36.4,16.08,8.54,43.91,1,61-3.33a116.93,116.93,0,0,0,18.49-6.4,81.39,81.39,0,0,0-1.78-18.25C132.22,101,126.92,83.14,118.63,78.22Z"/><path class="cls-24" d="M104.05,78.64c-4.59.22-15.61,3.7-9,7.12,5.8,3,17.4-5.74,10.22-7.07A5.75,5.75,0,0,0,104.05,78.64Z"/><path class="cls-26" d="M125.65,199.41c5.79,2.54,13.76,1.45,20.64,2.17a114.79,114.79,0,0,0,25,.72c11.22-.72,22.09-2.17,33.31-4,5.07-.72,10.5-1.09,15.21-2.53,5.43-1.09,8-4,12.67-6.88s12.31-4,5.79,2.9c5.79.36,13.76-1.45,18.83,1.45-1.81,3.62-6.52.72-8.69,3.62,8.33.73,5.07,2.9,0,5.43,1.09,0,2.9.72,4,.72-4.71,6.16-18.1,8.69-25.35,6.52-5.43-1.45-5.79-3.62-11.59-2.53-4.35.72-8.69,1.81-13,2.53a313.78,313.78,0,0,1-58.29,4.34c-7.24,0-15.57-.72-22.45-3.62-7.6-2.9-7.24-12.31,1.81-11.95Z"/><path class="cls-27" d="M114.51,192.75c9.05.72,21.27,2,30,2.68,2.53,7.6,0,14.48,0,21.73-9.05.72-19.85-.45-28.18-5.52-8.33-4.71-10.93-15.84,1.75-18Z"/><path class="cls-28" d="M107.18,405.8c-.13-2.21-1-4.94.77-6.53-1.57-1.73-1.54-4,.72-4.7-3.27-2.21-1.1-5.37-.77-8.33.36-3.2-.1-6.67-.28-9.78-.74-12.62-.42-24.87.07-37.4.13-3.3,2.86-37.3.21-37.55l8.39.81c4.94.67,7.82,2.85,11.62,4.26,1.2.45,2.18.85,3,1.24.6-14.48.76-26.75-.2-31.29-.72-4.34-.72-4.34-5.07-5.43-3.62-.72-7.6-.36-11.22-.36-7.24.36-15.93-.36-22.81,1.08v3.87a42.48,42.48,0,0,1,4.72-.25c2-.09,4-.38,6.07-.38v3.28a6.32,6.32,0,0,1-.1,1.93c-.29,1.16.19.77-.87,1.25-1.25.48-3.37,0-4.72,0-1.71,0-3.6.5-5.25.25-.62,5.3-3,10.39-2,15.76.72,4,2.9,6.52,3.62,10.5.72,3.62.36,8,.36,11.59,0,13.95.19,27.89.44,41.84.12,6.45.66,13.06-.17,19.42-.51,3.93-1.69,10.8.53,13.17-1.54.88-1.5,3.5-.72,5.09-1.92,1.33-.59,2.89-.39,4.83s-2,28.89-1.51,29a78.93,78.93,0,0,0,15.22,1.16C106.43,425,107.3,407.89,107.18,405.8Z"/><path class="cls-29" d="M127.1,376.11c0-6.6,2.69-41.28,3.82-68.28-.82-.38-1.81-.79-3-1.24-3.79-1.41-6.68-3.59-11.62-4.26l-8.39-.81c2.64.25-.08,34.25-.21,37.55-.49,12.53-.81,24.78-.07,37.4.18,3.1.64,6.58.28,9.78-.33,3-2.5,6.11.77,8.33-2.26.74-2.29,3-.72,4.7-1.76,1.59-.9,4.32-.77,6.53s-.76,19.18-.35,28.32c6.42,0,12.87-.52,19.54-.52C127.1,415.5,127.1,394.21,127.1,376.11Z"/><path d="M96.72,281.53c1.35,0,3.47.48,4.72,0,1.06-.48.58-.1.87-1.25a6.32,6.32,0,0,0,.1-1.93v-3.28c-2,0-4,.29-6.07.38a42.48,42.48,0,0,0-4.72.25v3.73a20.24,20.24,0,0,1-.14,2.34C93.13,282,95,281.53,96.72,281.53Z"/><path class="cls-30" d="M94.15,303l1.11-.32c.71-.17,1.71-.51,3-.73l2-.4c.71-.14,1.47-.23,2.25-.33a22.46,22.46,0,0,1,2.43-.23c.83,0,1.67-.11,2.52-.1l2.52.09c.83,0,1.64.18,2.43.26a15.48,15.48,0,0,1,2.25.39l2,.46a11.69,11.69,0,0,1,1.65.51l1.25.44,1.08.4-1.14-.21-1.29-.27c-.5-.09-1.05-.24-1.67-.32l-2-.29c-.7-.13-1.45-.16-2.23-.23s-1.57-.16-2.38-.17l-2.47,0c-.83,0-1.65,0-2.47.07s-1.62.07-2.39.14-1.53.09-2.24.18l-2,.23c-1.24.13-2.29.28-3,.37Z"/><path class="cls-30" d="M109.35,395.66l.51,0c.32,0,.79,0,1.34,0l.87,0c.3,0,.63-.05,1-.07.67,0,1.39-.12,2.1-.19s1.43-.17,2.1-.27l1.85-.26c1.09-.15,1.84-.21,1.84-.21a12.43,12.43,0,0,1-1.7.76,14.55,14.55,0,0,1-1.82.56,18.3,18.3,0,0,1-2.16.4l-1.12.08a9.56,9.56,0,0,1-1.08,0,11.6,11.6,0,0,1-1.92-.21,8.86,8.86,0,0,1-1.3-.34Z"/><path class="cls-30" d="M110.44,389.5a4.53,4.53,0,0,1,.88.23l.4.16c.14.06.29.09.44.15.3.1.59.23.89.37a9.35,9.35,0,0,1,.91.39c.15.06.28.16.41.21l.38.18a4.79,4.79,0,0,1,.77.49,4.14,4.14,0,0,1-.92.07,3.39,3.39,0,0,1-.92-.11c-.33-.07-.67-.19-1-.3a10.11,10.11,0,0,1-.95-.53,2.89,2.89,0,0,1-.7-.58A4.51,4.51,0,0,1,110.44,389.5Z"/><path class="cls-30" d="M109.35,399.64a15,15,0,0,1,1.68.29l.79.19c.28.08.58.08.88.14.61.08,1.24.21,1.88.33s1.31.15,1.92.26c.31,0,.6.12.89.14l.8.11a15.15,15.15,0,0,1,1.66.34,14.39,14.39,0,0,1-1.69.24l-.82.06a6.78,6.78,0,0,1-.92,0c-.64,0-1.32-.09-2-.15s-1.36-.3-2-.48a5.53,5.53,0,0,1-.88-.28c-.26-.12-.51-.24-.74-.35A14.77,14.77,0,0,1,109.35,399.64Z"/><path class="cls-30" d="M94.36,394l.34.09a6,6,0,0,0,.87.25l.55.12.64.1c.43.09.92.12,1.39.19,1,.1,1.93.23,2.68.36a8.46,8.46,0,0,1,1.24.31,8.29,8.29,0,0,1-1.25.26,9.94,9.94,0,0,1-1.29.11,12.34,12.34,0,0,1-1.49-.05l-.76-.13a4.09,4.09,0,0,1-.72-.2,4.74,4.74,0,0,1-1.24-.57,2.85,2.85,0,0,1-.71-.59Z"/><path class="cls-30" d="M93.32,399.07l.34-.08c.21-.05.54-.07.88-.18l.55-.12c.2,0,.41-.12.62-.17.43-.1.89-.24,1.36-.34a19.8,19.8,0,0,1,2.63-.51,6.69,6.69,0,0,1,1.26,0,10.31,10.31,0,0,1-1.1.59,14.69,14.69,0,0,1-2.55.93,10.44,10.44,0,0,1-1.45.24,5.68,5.68,0,0,1-1.32,0,3.29,3.29,0,0,1-.89-.2Z"/><path class="cls-30" d="M96.51,391.89a2.79,2.79,0,0,1,.7,0l.32,0c.11,0,.22,0,.33,0a3.88,3.88,0,0,1,.66.05,5.29,5.29,0,0,1,.7.09l.63.15a3,3,0,0,1,.65.25,2.52,2.52,0,0,1-.62.32,3.53,3.53,0,0,1-1.46.18,5.92,5.92,0,0,1-.81-.21,1.55,1.55,0,0,1-.6-.33A2.76,2.76,0,0,1,96.51,391.89Z"/><path class="cls-30" d="M106.46,272.76l0,1.26,0,1.45v.89l-.08,1c-.12,1.38-.22,3-.47,4.7l-.7,5.33c-.24,1.83-.51,3.63-.67,5.32-.07.85-.15,1.66-.16,2.44a16,16,0,0,0,.07,2.18,11.17,11.17,0,0,0,.33,1.8,4.17,4.17,0,0,0,.25.72,2.35,2.35,0,0,0,.29.58c.11.16.19.33.28.44l.26.29.22.25-.26-.2a2.75,2.75,0,0,1-.67-.66,2.52,2.52,0,0,1-.38-.56,4.57,4.57,0,0,1-.36-.72,8.15,8.15,0,0,1-.53-1.84,21.37,21.37,0,0,1-.23-4.76c.07-1.74.34-3.57.55-5.38s.52-3.65.82-5.33l.43-2.43.34-2.18c.12-.67.21-1.3.25-1.86l.16-1.44Z"/><path d="M108,274.69c-.19,2.41-.19,4.43-.19,6.46,6.55.38,13.67.89,20.32.7a25,25,0,0,0-.56-6.58Z"/><path class="cls-6" d="M100.87,183.79c-10.41,5.78-9,24.87-9,35.57,0,14.46,4.63,31.23,0,44.82-.58,2-3.47,1.73-1.16,4.34-2.89.87-2.6,5.78-.29,7.52,2.31,1.45,8.7.93,11.28.58,5.63-.78,12.43,0,18.8-.29,8.09-.37,16,4.56,13.88-8.1-.58-2.89-3.18-5.78-3.76-8.68-.29-2.89.29-7.81.29-11-.87-19.08,10.41-61.59-16.77-65.35Z"/><path class="cls-31" d="M101.55,179.14c-7.23.58-10.22,5.23-12.25,12.46,13.88.87,27.47-.58,41.06,1.74-.58-3.47-1-9.34-4.83-10.12-4.64-.93-6.22-.88-10.26-1.46Z"/><path class="cls-27" d="M94.34,269.71l1.39,0c.88,0,2.14.07,3.65.18.75.07,1.57.1,2.43.11a24.09,24.09,0,0,0,2.69,0c.94-.07,1.86-.06,2.86-.22l3-.39c1-.1,2-.28,3-.44l2.86-.45,5.09-.83c1.49-.24,2.75-.38,3.62-.5l1.38-.16-1.34.36c-.86.2-2.08.54-3.55.87s-3.19.76-5,1.14-3.86.77-5.86,1l-3,.35-.74.08c-.27,0-.5,0-.75,0l-1.46,0a17.8,17.8,0,0,1-2.75-.13c-.87-.07-1.69-.16-2.44-.27-1.5-.2-2.74-.42-3.62-.55Z"/><path class="cls-27" d="M99.3,264.92l.62.16c.39.09.94.31,1.61.45.33.08.69.16,1.06.26s.79.15,1.2.25c.83.19,1.73.32,2.62.48l5,.73c1.37.21,2.28.42,2.28.42a22.83,22.83,0,0,1-2.32.15c-.7,0-1.51,0-2.37,0-.43,0-.89,0-1.34-.11l-1.38-.17-1.37-.27a12.07,12.07,0,0,1-1.31-.35,11.48,11.48,0,0,1-1.2-.4c-.38-.15-.73-.3-1.05-.44a11.16,11.16,0,0,1-1.48-.8Z"/></g></g><path class="cls-32" d="M233.54,114.16s-14,13.84-20,18.49c0,0,1.36,70,2.61,81.87l19.73-2.95,2.05-91.32Z"/><path class="cls-33" d="M326.86,213.07l-37.18,1.05s-67.73.11-73.54.4l19.73-2.95S322.22,210.75,326.86,213.07Z"/><path class="cls-34" d="M326.86,213.07V114.91s-57.35-2.2-93.33-.75c0,0,2,85.51,2.34,97.41C235.88,211.57,316.7,212.49,326.86,213.07Z"/><g class="cls-35"><path class="cls-36" d="M217.41,124.91c.44,16.65,1,26.34,1.16,44,2.14-1.1,6.36-4.58,7.91-5.55,0,0-.55-36.91-.55-46.21Z"/></g><g class="cls-37"><path class="cls-38" d="M267.62,107.41c2.9,6.19,1.93,55,1.93,55.57,9.89.21,14.17.39,23.29.39-.56-10.08-.63-52.09-1.8-54.6Z"/></g><path class="cls-39" d="M422.33,199.53c-13.88,8.1-31.84,13.5-48,13.88-10,.38-20.21,1.54-30.23,0-4.63-.77-15-2.46-17.72-4.64-6.06-5-5.41-3.84-10.42-5.77s-7.3-1.64-4.63,2.31c1.63,2.42,5.33,3,5.61,3.91.61,1.89-13.88,2.9-17.45,3-2.28,0-4.56,0-6.84-.12-1.11-.06-4.9-.92-4.46,1.21.14.69.55.88,1.11,1.29s.48.36.74,1.11c.46,1.34,1.71,2,2.87,2.75.55.34.9.8,1.45,1.13,1.27.77,6.27,1.68,7.41,1.89a35.38,35.38,0,0,0,9.17.43c4.63-.39,9.25-3.08,13.49-3.08,4.63,0,9.64,2.7,14.27,3.47,17.35,2.7,34.7,1.16,52-.77,13.49-1.54,23.9-5.78,35.09-14.27Z"/><path class="cls-10" d="M409.76,199.22c-1.3.84-2.52,1.61-3.63,2.24-.77,10,11,23.65,16.58,20.59a16.08,16.08,0,0,0,2-1.34C416.09,217.35,411,208.84,409.76,199.22Z"/><path class="cls-40" d="M433.53,206.72c1.2-4.47,2-13.32-3.79-14.85a9.78,9.78,0,0,0-1.56-.28c-6-.58-12.94,4.1-18.41,7.64,1.26,9.62,6.33,18.13,15,21.48C429.12,217.38,432.17,211.81,433.53,206.72Z"/><path class="cls-7" d="M289.45,214.26s.14.22.36.62a5,5,0,0,0,.52.55,7.27,7.27,0,0,0,.88.49l1.13.51c.4.18.83.39,1.27.54.87.35,1.82.67,2.79,1l1.46.4,1.43.34c.46.12.92.18,1.35.27s.84.17,1.22.22c.76.13,1.39.25,1.84.3l.71.12-.71.08a15.5,15.5,0,0,1-1.89.08,10.18,10.18,0,0,1-1.26-.05c-.45,0-.92-.05-1.41-.15s-1-.15-1.49-.26l-1.52-.38-1.48-.51c-.49-.17-1-.42-1.4-.62a10.06,10.06,0,0,1-1.23-.68c-.39-.22-.73-.44-1.07-.67a4.78,4.78,0,0,1-.85-.72,4.88,4.88,0,0,1-.44-.75C289.51,214.51,289.45,214.26,289.45,214.26Z"/><path class="cls-21" d="M132.63,199.11c13.88,8.1,31.84,13.5,48,13.88,10,.39,20.21,1.54,30.23,0,4.63-.77,15-2.46,17.72-4.64,6.06-5,5.41-3.84,10.42-5.77s7.3-1.64,4.63,2.31c-1.63,2.41-5.33,3-5.62,3.91-.61,1.89,13.88,2.9,17.45,3,2.28,0,4.56,0,6.84-.12,1.11-.06,4.9-.92,4.46,1.21-.14.69-.55.87-1.11,1.29s-.48.36-.74,1.11c-.46,1.34-1.71,2-2.87,2.75-.55.34-.9.79-1.45,1.13-1.27.77-6.27,1.68-7.41,1.89a35.38,35.38,0,0,1-9.17.43c-4.63-.39-9.25-3.08-13.49-3.08-4.63,0-9.64,2.7-14.27,3.47-17.35,2.7-34.7,1.16-52.05-.77-13.49-1.54-23.9-5.78-35.08-14.26Z"/><path class="cls-19" d="M148.82,201c-1.11-.62-3.56-2.27-5.53-3.66-3.59-2.52-5.7-3.13-8.9-4.75a59.22,59.22,0,0,0-7-3c-4.91-1.72-9.89-1.8-12.92,3.1-2.84,4.61-1.46,9.47,1.13,13.51a28.44,28.44,0,0,0,2.93,3.77c.95,1,11.24,10.41,13.67,11.59C138,224.41,149.59,211.06,148.82,201Z"/><path class="cls-41" d="M265.51,213.84s-.06.25-.18.69a4.89,4.89,0,0,1-.44.75,4.76,4.76,0,0,1-.85.72c-.34.23-.69.45-1.07.67a10.14,10.14,0,0,1-1.23.68c-.45.2-.92.45-1.4.62l-1.48.51-1.52.38c-.5.12-1,.17-1.49.26s-1,.1-1.41.15a10.18,10.18,0,0,1-1.26.05,15.49,15.49,0,0,1-1.89-.08l-.71-.08.71-.12c.45,0,1.08-.16,1.84-.3.38-.06.79-.13,1.22-.22s.88-.16,1.35-.28l1.43-.33,1.46-.4c1-.3,1.92-.62,2.79-1,.44-.15.87-.37,1.27-.54l1.13-.51a7.13,7.13,0,0,0,.88-.49,4.83,4.83,0,0,0,.52-.55C265.37,214.06,265.51,213.84,265.51,213.84Z"/><g class="cls-42"><path class="cls-31" d="M144.93,197.67c-.74,9.83-8.2,18.56-16,23.89-.53.36,0,1.23.5.86,8.16-5.56,15.75-14.53,16.52-24.76,0-.64-1-.64-1,0Z"/><path class="cls-31" d="M142.54,196.7c-2.53,10.63-10.41,18.6-19,24.86-.51.38,0,1.24.5.86,8.77-6.41,16.85-14.57,19.43-25.46.15-.63-.81-.89-1-.27Z"/></g><path class="cls-43" d="M254,392.53c-101.39,0-191.67-23.26-250-63.43V504H504V329.1C445.67,369.32,355.39,392.53,254,392.53Z"/><text class="cls-44" transform="translate(25.19 470.69)"><tspan class="cls-45">R</tspan><tspan class="cls-46" x="34.8" y="0">e</tspan><tspan x="61.32" y="0">ti</tspan><tspan class="cls-47" x="111" y="0">r</tspan><tspan class="cls-48" x="141.84" y="0">a</tspan><tspan x="180.06" y="0">r Na </tspan><tspan class="cls-49" x="325.32" y="0">L</tspan><tspan class="cls-50" x="349.2" y="0">o</tspan><tspan class="cls-51" x="387.36" y="0">j</tspan><tspan x="414.54" y="0">a</tspan></text></svg>