<svg xmlns="http://www.w3.org/2000/svg" xmlns:xlink="http://www.w3.org/1999/xlink" viewBox="0 0 50 50"><defs><style>.cls-1{isolation:isolate;}.cls-2{fill:#cbcac8;}.cls-3{fill:#c9cccc;}.cls-18,.cls-4{fill:#181818;}.cls-5,.cls-8{fill:#0b0b0b;}.cls-6{fill:#091211;}.cls-7{fill:#383537;}.cls-13,.cls-24,.cls-30,.cls-8,.cls-9{mix-blend-mode:multiply;}.cls-10{fill:none;}.cls-11{fill:#aeacaa;}.cls-12{fill:url(#radial-gradient);}.cls-13{fill:#dbdbdb;}.cls-14{fill:url(#radial-gradient-2);}.cls-15{fill:#ffddad;}.cls-16{fill:#f2d0af;}.cls-17{fill:#f9d7af;}.cls-18{opacity:0.4;}.cls-19{fill:#ffe0bb;}.cls-20{fill:#00b0d8;}.cls-21{fill:#f3f3f3;}.cls-22{fill:#2c2c2c;}.cls-23,.cls-24{fill:#0098b0;}.cls-25{fill:#f2d1aa;}.cls-26{fill:#dbb694;}.cls-27{fill:#3f2c38;}.cls-28{fill:#dedee6;}.cls-29{fill:#6e4f39;}.cls-30,.cls-33{fill:#eac69f;}.cls-30{opacity:0.5;}.cls-31{fill:#642d13;}.cls-32{fill:#c83c2a;}.cls-34{fill:#7b3c16;}.cls-35{fill:#914c1a;}</style><radialGradient id="radial-gradient" cx="24.53" cy="28.18" r="4.3" gradientUnits="userSpaceOnUse"><stop offset="0" stop-color="#fff"/><stop offset="0.73" stop-color="#ddd"/><stop offset="1" stop-color="#cfcfcf"/></radialGradient><radialGradient id="radial-gradient-2" cx="25.6" cy="28.65" r="4.22" xlink:href="#radial-gradient"/></defs><title>icones-adm</title><g class="cls-1"><g id="Camada_1" data-name="Camada 1"><circle class="cls-2" cx="25" cy="25" r="25"/><ellipse class="cls-3" cx="25" cy="44.55" rx="10" ry="0.45"/><path class="cls-4" d="M29.85,32.34a8.86,8.86,0,0,1-4.73,1.34H25a8.85,8.85,0,0,1-4.64-1.34v-.08a2.83,2.83,0,0,0-.06.58,2.86,2.86,0,0,0,.15.91c.27,1.48.71,3.44.93,4.36.27,1.13.86,3.76.86,3.76h2.14l-.15-6.73a6.22,6.22,0,0,0,1.73,0l-.15,6.73H28s.59-2.63.86-3.76c.22-.92.67-2.88.93-4.36a2.87,2.87,0,0,0,.15-.91h0A2.82,2.82,0,0,0,29.85,32.34Z"/><rect class="cls-5" x="22.02" y="41.86" width="2.53" height="0.63"/><rect class="cls-5" x="25.61" y="41.86" width="2.53" height="0.63"/><path class="cls-6" d="M22.94,44.21v.36h1.29v-.51a10.89,10.89,0,0,1-1.19.13Z"/><path class="cls-6" d="M21.93,43.59a.06.06,0,0,0,0-.09l-.14-.15-.1.08.16.16A.06.06,0,0,0,21.93,43.59Z"/><path class="cls-6" d="M22.11,43.4a.06.06,0,0,0,0-.09L22,43.19l-.09.08.13.14A.06.06,0,0,0,22.11,43.4Z"/><path class="cls-6" d="M22.28,43.22a.06.06,0,0,0,0-.09l-.1-.1-.09.08.11.11A.06.06,0,0,0,22.28,43.22Z"/><path class="cls-7" d="M24.16,42.72v-.23H22.51v.26l-.33.28.1.1a.06.06,0,0,1,0,.09.06.06,0,0,1-.08,0l-.11-.11-.1.08.12.13a.06.06,0,0,1,0,.09.06.06,0,0,1-.08,0l-.13-.14-.1.08.14.15a.06.06,0,0,1,0,.09.06.06,0,0,1-.08,0l-.16-.16-.23.17c-.4.29-1.58.14-2.08.33s-.42.79-.24.81a19.74,19.74,0,0,0,2.7-.11,6.61,6.61,0,0,1,1.09-.42l.1,0a10.89,10.89,0,0,0,1.19-.13h0A9,9,0,0,0,24.16,42.72Z"/><path class="cls-6" d="M27.19,44.21v.36H25.91v-.51a10.89,10.89,0,0,0,1.19.13Z"/><path class="cls-6" d="M28.2,43.59a.06.06,0,0,1,0-.09l.14-.15.1.08-.16.16A.06.06,0,0,1,28.2,43.59Z"/><path class="cls-6" d="M28,43.4a.06.06,0,0,1,0-.09l.12-.13.09.08-.13.14A.06.06,0,0,1,28,43.4Z"/><path class="cls-6" d="M27.85,43.22a.06.06,0,0,1,0-.09l.1-.1.09.08-.11.11A.06.06,0,0,1,27.85,43.22Z"/><path class="cls-7" d="M26,42.72v-.23h1.65v.26l.33.28-.1.1a.06.06,0,0,0,0,.09.06.06,0,0,0,.08,0l.11-.11.1.08-.12.13a.06.06,0,0,0,0,.09.06.06,0,0,0,.08,0l.13-.14.1.08-.14.15a.06.06,0,0,0,0,.09.06.06,0,0,0,.08,0l.16-.16.23.17c.4.29,1.58.14,2.08.33s.42.79.24.81a19.74,19.74,0,0,1-2.7-.11,6.6,6.6,0,0,0-1.09-.42l-.1,0a10.89,10.89,0,0,1-1.19-.13h0A9,9,0,0,1,26,42.72Z"/><path class="cls-7" d="M29.06,36a1.5,1.5,0,0,1-1.47-1.53.05.05,0,1,1,.11,0,1.39,1.39,0,0,0,1.36,1.42.06.06,0,0,1,0,.11Z"/><path class="cls-7" d="M21.23,36a.06.06,0,0,1,0-.11,1.39,1.39,0,0,0,1.36-1.42.05.05,0,1,1,.11,0A1.5,1.5,0,0,1,21.23,36Z"/><path class="cls-8" d="M29.86,32.41v-.07a8.86,8.86,0,0,1-4.73,1.34H25a8.85,8.85,0,0,1-4.64-1.34v-.08c0,.07,0,.14,0,.21.75,1,2.59,1.77,4.74,1.77S29.13,33.47,29.86,32.41Z"/><polygon class="cls-5" points="29.82 24.31 29.82 24.31 29.82 24.31 29.82 24.31"/><g class="cls-9"><polygon class="cls-5" points="29.82 24.31 29.82 24.31 29.82 24.31 29.82 24.31"/></g><path class="cls-10" d="M21.26,21.75v0Z"/><path class="cls-5" d="M21.26,21.75h0Z"/><path class="cls-11" d="M25,33.68h0Z"/><polygon class="cls-8" points="21.23 23.16 21.1 23.3 21.81 24.11 21.86 24.04 21.23 23.16"/><path class="cls-12" d="M25,29.09l0-4.63V24l-.56-.15a6.51,6.51,0,0,1-2.27-1.07,4.11,4.11,0,0,1-.35-.31l-.3,1,.14.12a12.88,12.88,0,0,0-1.49,6.29,15.3,15.3,0,0,0,.2,2.45A8.85,8.85,0,0,0,25,33.68Z"/><path class="cls-13" d="M23.5,23.55a5.41,5.41,0,0,1-1.3-.74,4.11,4.11,0,0,1-.35-.31l-.3,1,.14.12a12.88,12.88,0,0,0-1.49,6.29,15.32,15.32,0,0,0,.17,2.29,15.45,15.45,0,0,0,2.29-4.62A27.31,27.31,0,0,0,23.5,23.55Z"/><path class="cls-13" d="M25,29.09l0-3.68h-.48c0,1.54.21,2.57-.69,3s-1.55.2-3.57-.22a15.56,15.56,0,0,0-.09,1.68s0,0,0,.07c1,.12,3.64.38,4.57-.55l.22-.25Z"/><path class="cls-14" d="M25.34,24.11l-.2,0h0l0,5-.05,4.57h0a8.86,8.86,0,0,0,4.73-1.34,15.29,15.29,0,0,0,.2-2.45,12.82,12.82,0,0,0-1.52-6.35l.1-.09-.16-.54A3.6,3.6,0,0,1,25.34,24.11Z"/><path class="cls-13" d="M30,29.89a15.44,15.44,0,0,0-.13-2,8.8,8.8,0,0,0-.25-1.36,10.77,10.77,0,0,0-1.15-3l.1-.09-.16-.54a5.36,5.36,0,0,1-1.16.86c-.2,1.12-.46,2.87-.48,3.32a4.23,4.23,0,0,0,3.12,4.68A15.42,15.42,0,0,0,30,29.89Z"/><path class="cls-5" d="M40.41,18.92h0l.07-.32h0l0-.17h0v0h0v0h0v0h0v0H36.07c0,.41,0,.56,0,2.19,0,.13,0,.26,0,.39V21c0,.09,0,.17,0,.26v.13q0,.13,0,.25v.11c0,.1,0,.2,0,.3v0c0,.11,0,.22,0,.32v.07l0,.23v.08l0,.21v.07l-.05.25v0l-.07.26h0l-.06.22v0l-.06.18v0l-.08.2h0a3.45,3.45,0,0,1-.18.37h0l-.09.14v0l-.1.14h0c-1.3,1.64-3.67-.17-6-2.81a6.51,6.51,0,0,1-1.23,1.21c-.21,1.08-.52,3.14-.54,3.64-.37,6.29,7.83,5.1,8,4.78s.37-.54,0-1.95,1.09-2.46-1.06-1.52c-1.86.82-3.84.24-4.3-1.31a2.51,2.51,0,0,1-.1-.77h0c3,2.26,5.19,1.82,6.81.35h0C39,24.53,40.06,20.48,40.41,18.92Z"/><path class="cls-13" d="M25.3,24.3l.58,1.36,2.73-1.37-.21-1.22A3.65,3.65,0,0,1,25.3,24.3Z"/><path class="cls-13" d="M21.79,22.72l-.27,1.57,2.4,1.32.87-1.42A6.42,6.42,0,0,1,21.79,22.72Z"/><path class="cls-11" d="M25.13,24.06,25,24l0,5.06,0,4.58h.07l.05-4.57Z"/><path class="cls-15" d="M40.45,13.82h0s.15-.07.39-.36a3,3,0,0,0,.26-.37,2.71,2.71,0,0,0,.39-1.49,1.1,1.1,0,0,1,.53.26,1.79,1.79,0,0,1,.24,1.58,2.36,2.36,0,0,1-.75,1c-.32.09-.85.25-1.16.07s-.3-.22-.41-.28l0,0C40,14.17,40.2,14,40.45,13.82Z"/><path class="cls-15" d="M38.55,13.94l0,0a.52.52,0,0,0,.14-.11c.09-.1.21-.21.32-.34a.84.84,0,0,0,.28-.41,1.94,1.94,0,0,0,.09-.28,9.66,9.66,0,0,0,.15-1.35c0-.24,0-.46,0-.62l.15-.08A1.09,1.09,0,0,1,41,11a2,2,0,0,1,.36.59,2.7,2.7,0,0,1-.3,1.34,1.82,1.82,0,0,1-.18.27c-.28.34-.42.6-.39.63h0c-.25.21-.42.35-.53.44l0,0a3.31,3.31,0,0,1-1.38-.19S38.5,14,38.55,13.94Z"/><path class="cls-15" d="M36,13.56a1.35,1.35,0,0,0-.84.17l0,0a1,1,0,0,1,.63-.15c.31,0-.11-1.46,0-2s-.2,0-.39-.49l0-.07a1.27,1.27,0,0,1,1.11-.78c.74,0,1,.31,1,.31a2.88,2.88,0,0,1,.2,1.6c-.05.55-.08.77-.09.88a1.57,1.57,0,0,1-.31.58A5.74,5.74,0,0,1,36,13.56Z"/><path class="cls-15" d="M37.59,13c0,.06,0,.09,0,.12-.06.3.06.19.24-.67a5.2,5.2,0,0,0-.05-2.1,1.41,1.41,0,0,1,.86-.12,1,1,0,0,1,.8.69v0h0a11.86,11.86,0,0,1-.06,1.37A2.59,2.59,0,0,1,39,13.4c-.06.08,0,.11,0,.08l-.3.34a.6.6,0,0,1-.21.13,1,1,0,0,1-.33.08H38c0-.53-.24-.52-.74-.47A1.57,1.57,0,0,0,37.59,13Z"/><path class="cls-16" d="M39,16.09c-.55.87-.78.5-.61-.06A3.7,3.7,0,0,0,38.48,15c0-.57-.55.43-1,.44-1.53,0-1.59-.19-.3-.12a1.1,1.1,0,0,0,1.09-1.11c-.08-.35.1-.18.2-.23s.33.09.47.18a1.59,1.59,0,0,0,.82.12c.23,0,.34.16.65.33s.84,0,1.16-.07l-.12.1s0,0,0,.1a3.51,3.51,0,0,1-.88.46A2.57,2.57,0,0,0,39,16.09Z"/><path class="cls-17" d="M36.75,16.87a2.51,2.51,0,0,1-1.47-.46,2.87,2.87,0,0,1-.48-1.57c.37-.22.52,0,1.43.28,1.09.29,1.8-.05,1.8-1,0,0,0-.05,0-.08h.19a.66.66,0,0,0,0,.14,1.1,1.1,0,0,1-1.09,1.11c-1.29-.07-1.24.12.3.12.49,0,1.06-1,1-.44A3.7,3.7,0,0,1,38.36,16c-.17.56.06.92.61.06a2.57,2.57,0,0,1,1.57-.94,3.51,3.51,0,0,0,.88-.46,4.24,4.24,0,0,1,0,.6,2.48,2.48,0,0,1-.83,1.44,2.29,2.29,0,0,1-1.4.43,2.5,2.5,0,0,1-.61-.12c-.23-.08-.4.34,1.35.27l.39,0c0,.1,0,.21,0,.32a4,4,0,0,1,0,.65l-3.88,0a2.83,2.83,0,0,1-.13-.55c.34-.33.87-.53,1.23-.86S37.1,16.85,36.75,16.87Z"/><path class="cls-16" d="M40.84,13.45c-.56.67-.49.33,0-.27a2.52,2.52,0,0,0,.48-1.61v0l.17,0A2.68,2.68,0,0,1,40.84,13.45Z"/><path class="cls-16" d="M35.26,13.64A16.87,16.87,0,0,1,35.38,11l0-.06,0,.07c.2.51.5-.06.39.49s.3,2.06,0,2a1,1,0,0,0-.63.15Z"/><path class="cls-16" d="M36.75,16.87c.35,0,1.25-.44.77,0s-.89.54-1.23.86c0-.07,0-.13,0-.21a1.15,1.15,0,0,0-.55-.76,1.56,1.56,0,0,1-.41-.31l0,0h0A2.51,2.51,0,0,0,36.75,16.87Z"/><path class="cls-16" d="M38.56,17a2.5,2.5,0,0,0,.61.12,2.29,2.29,0,0,0,1.4-.43l-.11.1a.47.47,0,0,0-.15.46l-.39,0C38.16,17.38,38.33,17,38.56,17Z"/><path class="cls-16" d="M39,13.4a2.59,2.59,0,0,0,.31-1.08,10.93,10.93,0,0,0,.06-1.41v0a.94.94,0,0,1,.17-.12,13.45,13.45,0,0,1-.18,2C39.26,13.49,38.89,13.6,39,13.4Z"/><path class="cls-16" d="M37.8,12.43c-.18.85-.3,1-.24.67a8.69,8.69,0,0,0,.12-1,2.88,2.88,0,0,0-.2-1.6,1.31,1.31,0,0,1,.27-.17A5.2,5.2,0,0,1,37.8,12.43Z"/><polygon class="cls-4" points="39.42 10.94 39.42 10.94 39.42 10.94 39.42 10.94"/><polygon class="cls-18" points="39.42 10.94 39.42 10.94 39.42 10.94 39.42 10.94"/><path class="cls-19" d="M42,13.82a1.48,1.48,0,0,0-.31-1.58,1.45,1.45,0,0,0-.26-.15,3.3,3.3,0,0,0,0-.49,1.1,1.1,0,0,1,.53.26,1.79,1.79,0,0,1,.24,1.58,1.67,1.67,0,0,1-.37.66A1,1,0,0,0,42,13.82Z"/><path class="cls-19" d="M40.87,11.43a1.6,1.6,0,0,0-1.29-.31c0-.12,0-.22,0-.31l.15-.08A1.09,1.09,0,0,1,41,11a2,2,0,0,1,.36.59,2.59,2.59,0,0,1,0,.42A2,2,0,0,0,40.87,11.43Z"/><path class="cls-19" d="M39.41,11.29h0v0a1.17,1.17,0,0,0-1-.69,2.08,2.08,0,0,0-.63,0c0-.08,0-.16,0-.23a1.41,1.41,0,0,1,.86-.12,1,1,0,0,1,.8.69v0h0c0,.08,0,.21,0,.37Z"/><path class="cls-19" d="M36.35,10.47a1.63,1.63,0,0,0-.7.13,1.11,1.11,0,0,1,.87-.42c.74,0,1,.31,1,.31a1.36,1.36,0,0,1,.11.28A2,2,0,0,0,36.35,10.47Z"/><path class="cls-19" d="M35.18,13.73c.24-.26.51-.21.84-.17,1.47.17,2-.42,2,.54s-.71,1.3-1.8,1c-.91-.24-1.05-.51-1.43-.28v0A1.59,1.59,0,0,1,35.18,13.73Z"/><path class="cls-16" d="M36.37,15.08c1.12.12,1.77-.33,1.62-1.28v0a1.16,1.16,0,0,1,0,.34c0,1-.71,1.3-1.8,1L35.8,15A5.62,5.62,0,0,0,36.37,15.08Z"/><path class="cls-15" d="M9.55,13.56h0s-.15-.07-.39-.36a3,3,0,0,1-.26-.37,2.7,2.7,0,0,1-.39-1.49,1.1,1.1,0,0,0-.53.26,1.79,1.79,0,0,0-.24,1.58,2.36,2.36,0,0,0,.75,1c.32.09.85.25,1.16.07s.3-.22.41-.29l0,0C10,13.91,9.8,13.78,9.55,13.56Z"/><path class="cls-15" d="M11.45,13.68l0,0a.53.53,0,0,1-.14-.11c-.09-.1-.21-.21-.32-.34a.84.84,0,0,1-.28-.41,2,2,0,0,1-.09-.28,9.66,9.66,0,0,1-.15-1.35c0-.24,0-.46,0-.62l-.15-.08A1.09,1.09,0,0,0,9,10.72a2,2,0,0,0-.36.59A2.7,2.7,0,0,0,9,12.65a1.81,1.81,0,0,0,.18.27c.28.34.42.6.39.63h0c.25.21.42.35.53.44l0,0a3.32,3.32,0,0,0,1.38-.19S11.5,13.75,11.45,13.68Z"/><path class="cls-15" d="M14,13.3a1.35,1.35,0,0,1,.84.17l0,0a1,1,0,0,0-.63-.15c-.31,0,.11-1.46,0-2s.2,0,.39-.49l0-.07a1.27,1.27,0,0,0-1.11-.78c-.74,0-1,.31-1,.31a2.88,2.88,0,0,0-.2,1.6c.05.55.08.77.09.88a1.57,1.57,0,0,0,.31.58A5.73,5.73,0,0,0,14,13.3Z"/><path class="cls-15" d="M12.41,12.72c0,.06,0,.09,0,.12.06.3-.06.19-.24-.67a5.2,5.2,0,0,1,.05-2.1,1.42,1.42,0,0,0-.86-.12,1,1,0,0,0-.8.69v0h0a11.9,11.9,0,0,0,.06,1.37A2.59,2.59,0,0,0,11,13.14c.06.08,0,.11,0,.08l.3.34a.61.61,0,0,0,.21.13,1,1,0,0,0,.33.08H12c0-.53.24-.52.74-.47A1.57,1.57,0,0,1,12.41,12.72Z"/><path class="cls-16" d="M11,15.83c.55.87.78.5.61-.06a3.7,3.7,0,0,1-.12-1.08c0-.57.55.43,1,.44,1.53,0,1.59-.19.3-.12a1.1,1.1,0,0,1-1.09-1.11c.08-.35-.09-.18-.2-.23s-.33.09-.47.18a1.59,1.59,0,0,1-.82.12c-.23,0-.34.16-.65.33s-.84,0-1.16-.07l.12.1s0,0,0,.1a3.51,3.51,0,0,0,.88.47A2.57,2.57,0,0,1,11,15.83Z"/><path class="cls-17" d="M13.25,16.61a2.51,2.51,0,0,0,1.47-.46,2.87,2.87,0,0,0,.48-1.57c-.37-.22-.52,0-1.43.28-1.09.29-1.8-.05-1.8-1,0,0,0-.05,0-.08h-.19a.66.66,0,0,1,0,.14A1.1,1.1,0,0,0,12.86,15c1.29-.07,1.24.12-.3.12-.49,0-1.06-1-1-.44a3.7,3.7,0,0,0,.12,1.08c.17.56-.06.92-.61.06a2.57,2.57,0,0,0-1.57-.94,3.51,3.51,0,0,1-.88-.47,4.24,4.24,0,0,0,0,.6,2.48,2.48,0,0,0,.83,1.44,2.29,2.29,0,0,0,1.4.43,2.49,2.49,0,0,0,.61-.12c.23-.08.4.34-1.35.27L9.7,17c0,.1,0,.21,0,.32a4,4,0,0,0,0,.65l3.88,0a2.82,2.82,0,0,0,.13-.55c-.34-.33-.87-.53-1.23-.86S12.9,16.6,13.25,16.61Z"/><path class="cls-16" d="M9.16,13.2c.56.67.49.33,0-.27a2.53,2.53,0,0,1-.48-1.61v0l-.17,0A2.68,2.68,0,0,0,9.16,13.2Z"/><path class="cls-16" d="M14.74,13.39a16.87,16.87,0,0,0-.12-2.61l0-.06,0,.07c-.2.51-.5-.06-.39.49s-.3,2.06,0,2a1,1,0,0,1,.63.15Z"/><path class="cls-16" d="M13.25,16.61c-.35,0-1.25-.44-.77,0s.89.54,1.23.86c0-.07,0-.13,0-.21a1.15,1.15,0,0,1,.55-.76,1.55,1.55,0,0,0,.41-.31l0,0h0A2.51,2.51,0,0,1,13.25,16.61Z"/><path class="cls-16" d="M11.44,16.78a2.49,2.49,0,0,1-.61.12,2.29,2.29,0,0,1-1.4-.43l.11.1A.47.47,0,0,1,9.7,17l.39,0C11.84,17.12,11.67,16.7,11.44,16.78Z"/><path class="cls-16" d="M11,13.14a2.59,2.59,0,0,1-.31-1.08,10.92,10.92,0,0,1-.06-1.41v0a.94.94,0,0,0-.17-.12,13.48,13.48,0,0,0,.18,2C10.74,13.23,11.11,13.34,11,13.14Z"/><path class="cls-16" d="M12.2,12.17c.18.85.3,1,.24.67a8.72,8.72,0,0,1-.12-1,2.88,2.88,0,0,1,.2-1.6,1.31,1.31,0,0,0-.27-.17A5.2,5.2,0,0,0,12.2,12.17Z"/><polygon class="cls-4" points="10.58 10.69 10.58 10.68 10.58 10.69 10.58 10.69"/><polygon class="cls-18" points="10.58 10.69 10.58 10.68 10.58 10.69 10.58 10.69"/><path class="cls-19" d="M8,13.56A1.48,1.48,0,0,1,8.27,12a1.43,1.43,0,0,1,.26-.15,3.32,3.32,0,0,1,0-.49,1.1,1.1,0,0,0-.53.26,1.79,1.79,0,0,0-.24,1.58,1.67,1.67,0,0,0,.37.66A1,1,0,0,1,8,13.56Z"/><path class="cls-19" d="M9.13,11.17a1.6,1.6,0,0,1,1.29-.31c0-.12,0-.22,0-.31l-.15-.08A1.09,1.09,0,0,0,9,10.72a2,2,0,0,0-.36.59,2.6,2.6,0,0,0,0,.42A2,2,0,0,1,9.13,11.17Z"/><path class="cls-19" d="M10.59,11h0v0a1.17,1.17,0,0,1,1-.69,2.08,2.08,0,0,1,.63,0c0-.08,0-.16,0-.23a1.42,1.42,0,0,0-.86-.12,1,1,0,0,0-.8.69v0h0c0,.08,0,.21,0,.37Z"/><path class="cls-19" d="M13.65,10.21a1.63,1.63,0,0,1,.7.14,1.11,1.11,0,0,0-.87-.42c-.74,0-1,.31-1,.31a1.35,1.35,0,0,0-.11.28A2,2,0,0,1,13.65,10.21Z"/><path class="cls-19" d="M14.82,13.48c-.24-.26-.51-.21-.84-.17-1.47.17-2-.42-2,.54s.71,1.3,1.8,1c.91-.24,1.05-.51,1.43-.28v0A1.59,1.59,0,0,0,14.82,13.48Z"/><path class="cls-16" d="M13.63,14.82c-1.12.12-1.77-.33-1.62-1.28v0a1.15,1.15,0,0,0,0,.34c0,1,.71,1.3,1.8,1l.42-.13A5.64,5.64,0,0,1,13.63,14.82Z"/><path class="cls-16" d="M14.82,13.48c-.24-.26-.51-.21-.84-.17h.09c.33,0,.6,0,.8.3a1.64,1.64,0,0,1,.24.93l.08,0v0A1.59,1.59,0,0,0,14.82,13.48Z"/><polygon class="cls-4" points="29.82 28 29.82 28 29.82 28 29.82 28"/><path class="cls-5" d="M27.5,25.75v0Z"/><path class="cls-5" d="M29.91,26.24a1.58,1.58,0,0,0-.1-.65q.05.31.1.65Z"/><path class="cls-20" d="M24.25,23.83l.34,1h.94l.22-.67a2.35,2.35,0,0,1-.4-.05C25,24,24.59,23.93,24.25,23.83Z"/><path class="cls-21" d="M25.38,24.12,26,25.48l2.73-1.37-.21-1.22A3.65,3.65,0,0,1,25.38,24.12Z"/><path class="cls-21" d="M21.88,22.54l-.27,1.57L24,25.42,24.89,24A6.42,6.42,0,0,1,21.88,22.54Z"/><path class="cls-5" d="M21.26,21.75h0c-3.38,3.94-7.18,6.18-7.33-1.52,0-1.63,0-1.78,0-2.19H9.46s2.26,14.57,10.75,7.46A9.65,9.65,0,0,1,16,29.21c-1,.49,1.72.57,1.69,2.06-.08,4.3,3.14.4,4.46-3.88A26.19,26.19,0,0,0,23,23.31,4.27,4.27,0,0,1,21.26,21.75Z"/><path class="cls-22" d="M21.81,22.47l-.64.62.68.94-1.41,2L22,27.89l.16-.5A26.54,26.54,0,0,0,23,23.33,4.6,4.6,0,0,1,21.81,22.47Z"/><path class="cls-8" d="M16.11,25.59a2.57,2.57,0,0,0,1.76-.76c-2.13,1.24-3.84.52-3.94-4.6,0-1.63,0-1.78,0-2.19H12.64a9.81,9.81,0,0,0-.12,1.56C12.52,22.9,14.13,25.59,16.11,25.59Z"/><path class="cls-8" d="M33.93,25.91c1.21-.25,1.69-1.48,1.88-2.72-.89,4.23-3.85,2.24-6.7-1a6.92,6.92,0,0,1-.58.65C30.09,24.37,32.14,26.28,33.93,25.91Z"/><path class="cls-22" d="M28.37,24.45l.74-1-.36-.82a6.18,6.18,0,0,1-.88.79c-.21,1.09-.51,3.12-.54,3.61a5.93,5.93,0,0,0,.07,1.38l1.71-1.94Z"/><polygon class="cls-8" points="20.6 26.18 20.45 26.35 21.96 28 22 27.89 20.6 26.18"/><polygon class="cls-8" points="29.04 23.53 29.19 23.76 28.44 24.65 28.37 24.45 29.04 23.53"/><polygon class="cls-8" points="29.02 26.55 29.11 26.8 27.42 28.48 27.41 28.39 29.02 26.55"/><path class="cls-10" d="M29.91,26.24s0,.08,0,.12l0-.09,0,0Z"/><path class="cls-8" d="M34.31,28.32c-1.86.82-3.84.24-4.3-1.31a2.49,2.49,0,0,1-.1-.66,1.5,1.5,0,0,0-.1.53c0,1.24,1.55,2.24,3.47,2.24a4.79,4.79,0,0,0,2.11-.46C35.56,28,35.77,27.68,34.31,28.32Z"/><path class="cls-8" d="M20.21,25.49A9.65,9.65,0,0,1,16,29.21c-.64.31.18.45.89.88C19,28,20.84,24.71,20.21,25.49Z"/><path class="cls-23" d="M26.46,31.84a5.6,5.6,0,0,1-2.67-3.28A4.48,4.48,0,0,1,24.71,25l.67.45a3.74,3.74,0,0,0-.8,2.89c.23,1.08.6,1.73,2.34,2.79l.09.53Z"/><path class="cls-24" d="M24.57,28.39v-.06a2,2,0,0,1-.79.14l0,.09a3.75,3.75,0,0,0,.51,1.22A4.16,4.16,0,0,0,25,29.6,3.37,3.37,0,0,1,24.57,28.39Z"/><path class="cls-8" d="M20.08,28l-1.5.75,1.42,1c.1,0,.56.07,1.17.13.24-.48.46-1,.66-1.52C21.38,28.27,20.82,28.13,20.08,28Z"/><path class="cls-20" d="M19.83,29.33l-1.42-1,1.5-.75c2.38.46,2.9.86,4,.31.9-.45.69-1.48.69-3h.94c0,2,.33,3-.72,4S20.12,29.34,19.83,29.33Z"/><ellipse class="cls-25" cx="20.56" cy="17.88" rx="1.23" ry="0.98" transform="matrix(0.02, -1, 1, 0.02, 2.33, 38.14)"/><ellipse class="cls-25" cx="30.04" cy="18.03" rx="1.23" ry="1.27" transform="translate(6.05 43.56) rotate(-77.74)"/><path class="cls-15" d="M20.75,14.86c.23-3.31.05-4,1.79-2.74,1.22.88,4.34.54,5.73.54,2.35,0,1.94,2.24,2,3.23,0,.47,0,3.21,0,3.82,0,1.59-2.52,4.92-4.89,4.41C23.25,23.65,22,23,21.26,21.77c-.24-.39-.57-.43-.81-3C20.4,18.17,20.71,15.32,20.75,14.86Z"/><path class="cls-26" d="M28.75,16.38c-.08-.36-.51-.52-1-.48A1.68,1.68,0,0,0,26.36,17c-.16.36.78-1.26,2.1-.28C28.79,17,28.83,16.74,28.75,16.38Z"/><path class="cls-27" d="M21.26,16.64c0,.46.37.59.84.59s.84-.13.84-.59a.84.84,0,1,0-1.67,0Z"/><ellipse class="cls-28" cx="21.82" cy="16.3" rx="0.43" ry="0.25" transform="translate(-5.14 20.18) rotate(-44.96)"/><polygon class="cls-29" points="26.34 15.16 28.37 13.89 28.3 13.76 26.2 14.9 26.34 15.16"/><polygon class="cls-29" points="21.44 13.82 23.75 14.45 23.66 14.79 21.38 14.03 21.44 13.82"/><path class="cls-30" d="M20.87,13c.13-1.67.32-1.86,1.66-.9s4.34.54,5.73.54c2.35,0,1.94,2.24,2,3.23,0,0,0,0,0,.06-.07-1.09,0-3.14-2.34-2.93-.23,0-2.83.31-3.78.37A8.26,8.26,0,0,1,20.87,13Z"/><path class="cls-31" d="M20.42,11.29a8.2,8.2,0,0,0,.61.61h0a5.31,5.31,0,0,0-.16,1.1h0a1.7,1.7,0,0,1-.63-.43c0-.31,0-.61.05-.91A3.7,3.7,0,0,1,20.42,11.29Z"/><path class="cls-32" d="M27.1,20.38l-.05.06a5,5,0,0,1-2.92,1.21c-.34.06-.49,0-.47.1s.41.1.62.09a6.53,6.53,0,0,0,3.53-1.33c0-.05-.33-.06-.34-.31S27.27,20.19,27.1,20.38Z"/><path class="cls-33" d="M24.09,18a.09.09,0,1,1,.12.13c-.34.31-.31.61-.17.8A.74.74,0,0,0,25,19a.09.09,0,1,1,.09.15A.92.92,0,0,1,23.91,19,.74.74,0,0,1,24.09,18Z"/><path class="cls-34" d="M30.23,15.88c0-1,.39-3.23-2-3.23-1.39,0-4.51.34-5.73-.54-1.74-1.25-1.55-.56-1.79,2.74,0,.41-.11,1.13-.22,2a10.7,10.7,0,0,1-.31-3.13q0-.59,0-1.16t.05-.94A4.76,4.76,0,0,1,25.1,8.54h.8c2.55,0,4.67,1.25,5.1,2.89q0,.46.05.94t0,1.16a18.32,18.32,0,0,1-.85,5.13C30.23,18,30.24,16.35,30.23,15.88Z"/><path class="cls-35" d="M30.79,9.34a5.28,5.28,0,0,0-4.63-1.63,2.35,2.35,0,0,1-1.1-2.25c.11-1.22-1.67.19-2.67,1.85a5.67,5.67,0,0,0-.11,2.63A7.14,7.14,0,0,1,21.45,6c-.64-.92-1.93,2.8-1.32,4.69a2.65,2.65,0,0,0,.65,1,2,2,0,0,0,.25.18c.18-.58.56-.47,1.5.21a5,5,0,0,0,2.54.59c.87,0,1.57,0,1.75,0l.71,0,.74,0c2.35,0,1.94,2.24,2,3.23,0,.47,0,2.16,0,2.77a15.4,15.4,0,0,0,1.25-4.42C31.65,13,32,10.57,30.79,9.34Z"/><path class="cls-34" d="M22.29,9.94a5.67,5.67,0,0,1,.11-2.63,2.27,2.27,0,0,1-.85-1.1A.84.84,0,0,0,21.45,6,7.14,7.14,0,0,0,22.29,9.94Z"/><path class="cls-26" d="M28.46,15.66l.1-.17A1.52,1.52,0,0,0,28,15.4c-.95,0-1.43.86-1.68,1.57,0,.09,0,.1,0,.06.26-.68.74-1.44,1.63-1.44A1.57,1.57,0,0,1,28.46,15.66Z"/><path class="cls-33" d="M27.58,20.39a.79.79,0,0,1-.13-.13.76.76,0,0,1-.16-.57,0,0,0,1,1,.09,0,.68.68,0,0,0,.59.75,0,0,0,0,1,0,.09A.77.77,0,0,1,27.58,20.39Z"/></g></g></svg>