<svg id="Camada_1" data-name="Camada 1" xmlns="http://www.w3.org/2000/svg" viewBox="0 0 127 107"><defs><style>.cls-1{fill:#f9f9f9;}.cls-1,.cls-10,.cls-100,.cls-102,.cls-103,.cls-105,.cls-106,.cls-107,.cls-108,.cls-109,.cls-11,.cls-110,.cls-111,.cls-112,.cls-113,.cls-114,.cls-115,.cls-116,.cls-117,.cls-118,.cls-119,.cls-12,.cls-120,.cls-121,.cls-122,.cls-123,.cls-124,.cls-125,.cls-126,.cls-127,.cls-128,.cls-129,.cls-13,.cls-130,.cls-131,.cls-132,.cls-133,.cls-134,.cls-135,.cls-136,.cls-137,.cls-138,.cls-139,.cls-14,.cls-15,.cls-16,.cls-17,.cls-18,.cls-19,.cls-2,.cls-20,.cls-21,.cls-22,.cls-23,.cls-24,.cls-25,.cls-26,.cls-27,.cls-28,.cls-29,.cls-3,.cls-30,.cls-31,.cls-32,.cls-33,.cls-34,.cls-35,.cls-36,.cls-37,.cls-38,.cls-39,.cls-4,.cls-40,.cls-41,.cls-42,.cls-43,.cls-44,.cls-45,.cls-46,.cls-47,.cls-48,.cls-49,.cls-5,.cls-50,.cls-51,.cls-52,.cls-53,.cls-54,.cls-55,.cls-56,.cls-57,.cls-58,.cls-59,.cls-6,.cls-60,.cls-61,.cls-62,.cls-63,.cls-64,.cls-65,.cls-66,.cls-67,.cls-68,.cls-69,.cls-7,.cls-70,.cls-71,.cls-72,.cls-73,.cls-74,.cls-75,.cls-76,.cls-77,.cls-78,.cls-79,.cls-8,.cls-80,.cls-81,.cls-82,.cls-83,.cls-84,.cls-85,.cls-86,.cls-87,.cls-88,.cls-89,.cls-9,.cls-90,.cls-91,.cls-92,.cls-93,.cls-94,.cls-95,.cls-96,.cls-97,.cls-98,.cls-99{fill-rule:evenodd;}.cls-2{fill:#f8f8f8;}.cls-3{fill:#f7f7f7;}.cls-4{fill:#f5f5f5;}.cls-5{fill:#f4f4f4;}.cls-6{fill:#f3f3f3;}.cls-7{fill:#f2f2f2;}.cls-8{fill:#f1f1f1;}.cls-9{fill:#f0f0f0;}.cls-10{fill:#eee;}.cls-11{fill:#ededed;}.cls-12{fill:#ececec;}.cls-13{fill:#ebebeb;}.cls-14{fill:#eaeaea;}.cls-15{fill:#e8e8e8;}.cls-16{fill:#e7e7e7;}.cls-17{fill:#e6e6e6;}.cls-18{fill:#e5e5e5;}.cls-19{fill:#e4e4e4;}.cls-20{fill:#e2e2e2;}.cls-21{fill:#e1e1e1;}.cls-22{fill:#e0e0e0;}.cls-23{fill:#dfdfdf;}.cls-24{fill:#dedede;}.cls-25{fill:#ddd;}.cls-26{fill:#dbdbdb;}.cls-27{fill:#dadada;}.cls-28{fill:#d9d9d9;}.cls-29{fill:#d8d8d8;}.cls-30{fill:#d7d7d7;}.cls-31{fill:#d5d5d5;}.cls-32{fill:#d4d4d4;}.cls-33{fill:#d3d3d3;}.cls-34{fill:#d2d2d2;}.cls-35{fill:#d1d1d1;}.cls-36{fill:#d0d0d0;}.cls-37{fill:#cecece;}.cls-38{fill:#cdcdcd;}.cls-39{fill:#ccc;}.cls-40{fill:#cbcbcb;}.cls-41{fill:#cacaca;}.cls-104,.cls-42{fill:#c8c8c8;}.cls-43{fill:#c7c7c7;}.cls-44{fill:#c6c6c6;}.cls-45{fill:#c5c5c5;}.cls-46{fill:#c4c4c4;}.cls-47{fill:#c2c2c2;}.cls-48{fill:#c1c1c1;}.cls-49{fill:silver;}.cls-50{fill:#bfbfbf;}.cls-51{fill:#bebebe;}.cls-52{fill:#bdbdbd;}.cls-53{fill:#bbb;}.cls-54{fill:#bababa;}.cls-55{fill:#b9b9b9;}.cls-56{fill:#b8b8b8;}.cls-57{fill:#b7b7b7;}.cls-58{fill:#b5b5b5;}.cls-59{fill:#b4b4b4;}.cls-60{fill:#b3b3b3;}.cls-61{fill:#b2b2b2;}.cls-62{fill:#b1b1b1;}.cls-63{fill:#b0b0b0;}.cls-64{fill:#aeaeae;}.cls-65{fill:#adadad;}.cls-66{fill:#acacac;}.cls-67{fill:#ababab;}.cls-68{fill:#aaa;}.cls-69{fill:#a8a8a8;}.cls-70{fill:#a7a7a7;}.cls-71{fill:#a6a6a6;}.cls-72{fill:#a5a5a5;}.cls-73{fill:#a4a4a4;}.cls-74{fill:#a2a2a2;}.cls-75{fill:#a1a1a1;}.cls-76{fill:#a0a0a0;}.cls-77{fill:#9f9f9f;}.cls-78{fill:#9e9e9e;}.cls-79{fill:#9d9d9d;}.cls-80{fill:#9b9b9b;}.cls-81{fill:#9a9a9a;}.cls-82{fill:#999;}.cls-101,.cls-83{fill:#fff;}.cls-84{fill:#fefefe;}.cls-85{fill:#fcfcfc;}.cls-86{fill:#fbfbfb;}.cls-87{fill:#fafafa;}.cls-88{fill:#f6f6f6;}.cls-89{fill:#efefef;}.cls-90{fill:#e3e3e3;}.cls-91{fill:#dcdcdc;}.cls-92{fill:#cfcfcf;}.cls-93{fill:#c9c9c9;}.cls-94{fill:#c3c3c3;}.cls-95{fill:#bcbcbc;}.cls-96{fill:#b6b6b6;}.cls-97{fill:#a9a9a9;}.cls-98{fill:#a3a3a3;}.cls-99{fill:#9c9c9c;}.cls-100{fill:#8e8e8e;}.cls-102{fill:#afafaf;}.cls-103{fill:#848484;}.cls-105{fill:#fdfdfd;}.cls-106{fill:#e9e9e9;}.cls-107{fill:#d6d6d6;}.cls-108{fill:#989898;}.cls-109{fill:#979797;}.cls-110{fill:#969696;}.cls-111{fill:#686868;}.cls-112{fill:#4c4c4c;}.cls-113{fill:#4d4d4d;}.cls-114{fill:#4e4e4e;}.cls-115{fill:#4f4f4f;}.cls-116{fill:#505050;}.cls-117{fill:#515151;}.cls-118{fill:#525252;}.cls-119{fill:#535353;}.cls-120{fill:#545454;}.cls-121{fill:#555;}.cls-122{fill:#565656;}.cls-123{fill:#575757;}.cls-124{fill:#585858;}.cls-125{fill:#595959;}.cls-126{fill:#5a5a5a;}.cls-127{fill:#5b5b5b;}.cls-128{fill:#5c5c5c;}.cls-129{fill:#5d5d5d;}.cls-130{fill:#5e5e5e;}.cls-131{fill:#5f5f5f;}.cls-132{fill:#606060;}.cls-133{fill:#616161;}.cls-134{fill:#626262;}.cls-135{fill:#636363;}.cls-136{fill:#646464;}.cls-137{fill:#656565;}.cls-138{fill:#666;}.cls-139{fill:#676767;}</style></defs><title>icone-estab-cinza</title><polygon class="cls-1" points="15.21 95.22 64.37 82.68 47.27 41.84 6.24 54.42 15.21 95.22"/><path class="cls-2" d="M15.22,95.22,64,82.68,47,42,6.25,54.5Z"/><path class="cls-3" d="M15.22,95.22,63.67,82.69,46.82,42.14,6.27,54.58Z"/><path class="cls-4" d="M15.22,95.22,63.32,82.69,46.59,42.29,6.29,54.67Z"/><path class="cls-5" d="M15.22,95.22,63,82.69,46.37,42.44,6.31,54.75Z"/><path class="cls-6" d="M15.22,95.22,62.63,82.69,46.14,42.59,6.33,54.83Z"/><path class="cls-7" d="M15.22,95.22,62.28,82.7l-16.36-40L6.35,54.91Z"/><path class="cls-8" d="M15.22,95.22,61.93,82.7,45.69,42.88,6.37,55Z"/><path class="cls-9" d="M15.22,95.22,61.58,82.7,45.46,43l-39.07,12Z"/><path class="cls-10" d="M15.22,95.22l46-12.51-16-39.52L6.4,55.16Z"/><path class="cls-11" d="M15.22,95.22,60.89,82.71,45,43.33,6.42,55.24Z"/><path class="cls-12" d="M15.22,95.22,60.54,82.71,44.78,43.48,6.44,55.32Z"/><path class="cls-13" d="M15.22,95.22l45-12.5L44.55,43.62,6.46,55.4Z"/><path class="cls-14" d="M15.22,95.22l44.63-12.5L44.33,43.77,6.48,55.49Z"/><path class="cls-15" d="M15.22,95.22l44.28-12.5L44.1,43.92,6.5,55.57Z"/><path class="cls-16" d="M15.22,95.22l43.93-12.5L43.87,44.07,6.52,55.65Z"/><path class="cls-17" d="M15.22,95.22,58.8,82.72,43.65,44.22,6.54,55.73Z"/><path class="cls-18" d="M15.22,95.22,58.45,82.72l-15-38.36L6.55,55.81Z"/><path class="cls-19" d="M15.22,95.22,58.1,82.72,43.19,44.51,6.57,55.9Z"/><path class="cls-20" d="M15.22,95.22,57.75,82.73,43,44.66,6.59,56Z"/><path class="cls-21" d="M15.22,95.22,57.4,82.73,42.74,44.81,6.61,56.06Z"/><path class="cls-22" d="M15.22,95.22,57.05,82.73,42.51,45,6.63,56.14Z"/><path class="cls-23" d="M15.22,95.22,56.71,82.73,42.28,45.11,6.65,56.22Z"/><path class="cls-24" d="M15.22,95.22,56.36,82.74,42.06,45.25,6.67,56.31Z"/><path class="cls-25" d="M15.22,95.22,56,82.74,41.83,45.4l-35.14,11Z"/><path class="cls-26" d="M15.22,95.22,55.66,82.74,41.6,45.55,6.71,56.47Z"/><path class="cls-27" d="M15.22,95.22l40.1-12.47-13.94-37L6.72,56.55Z"/><path class="cls-28" d="M15.22,95.22,55,82.75,41.15,45.85,6.74,56.63Z"/><path class="cls-29" d="M15.22,95.22l39.4-12.47L40.92,46,6.76,56.72Z"/><path class="cls-30" d="M15.22,95.22,54.27,82.75,40.7,46.14,6.78,56.8Z"/><path class="cls-31" d="M15.22,95.22l38.7-12.46L40.47,46.29,6.8,56.88Z"/><path class="cls-32" d="M15.22,95.22,53.57,82.76,40.24,46.44,6.82,57Z"/><path class="cls-33" d="M15.22,95.22l38-12.46L40,46.59,6.84,57Z"/><path class="cls-34" d="M15.22,95.22,52.88,82.76l-13.09-36L6.86,57.12Z"/><path class="cls-35" d="M15.22,95.22,52.53,82.76l-13-35.88L6.87,57.21Z"/><path class="cls-36" d="M15.22,95.22l37-12.45L39.34,47,6.89,57.29Z"/><path class="cls-37" d="M15.22,95.22,51.83,82.77,39.11,47.18,6.91,57.37Z"/><path class="cls-38" d="M15.22,95.22,51.48,82.77,38.88,47.33l-32,10.12Z"/><path class="cls-39" d="M15.22,95.22,51.13,82.77,38.66,47.48,6.95,57.53Z"/><path class="cls-40" d="M15.22,95.22,50.79,82.77,38.43,47.63,7,57.62Z"/><path class="cls-41" d="M15.22,95.22,50.44,82.78l-12.24-35L7,57.7Z"/><path class="cls-42" d="M15.22,95.22,50.09,82.78,38,47.92,7,57.78Z"/><path class="cls-43" d="M15.22,95.22,49.74,82.78l-12-34.71L7,57.86Z"/><path class="cls-44" d="M15.22,95.22,49.39,82.78,37.52,48.22,7,57.94Z"/><path class="cls-45" d="M15.22,95.22,49,82.79,37.29,48.37,7.06,58Z"/><path class="cls-46" d="M15.22,95.22,48.7,82.79,37.07,48.52l-30,9.59Z"/><path class="cls-47" d="M15.22,95.22,48.35,82.79,36.84,48.67,7.1,58.19Z"/><path class="cls-48" d="M15.22,95.22,48,82.79l-11.39-34L7.12,58.27Z"/><path class="cls-49" d="M15.22,95.22,47.65,82.8,36.39,49,7.14,58.35Z"/><path class="cls-50" d="M15.22,95.22,47.3,82.8,36.16,49.11l-29,9.33Z"/><path class="cls-51" d="M15.22,95.22,47,82.8l-11-33.54L7.18,58.52Z"/><path class="cls-52" d="M15.22,95.22,46.61,82.8l-10.9-33.4L7.19,58.6Z"/><path class="cls-53" d="M15.22,95.22l31-12.41L35.48,49.56,7.21,58.68Z"/><path class="cls-54" d="M15.22,95.22,45.91,82.81,35.25,49.7l-28,9.06Z"/><path class="cls-55" d="M15.22,95.22,45.56,82.81,35,49.85l-27.78,9Z"/><path class="cls-56" d="M15.22,95.22l30-12.4L34.8,50,7.27,58.93Z"/><path class="cls-57" d="M15.22,95.22l29.65-12.4L34.57,50.15,7.29,59Z"/><path class="cls-58" d="M15.22,95.22l29.3-12.4L34.35,50.3l-27,8.8Z"/><path class="cls-59" d="M15.22,95.22l29-12.4-10-32.37L7.33,59.17Z"/><path class="cls-60" d="M15.22,95.22l28.6-12.39L33.89,50.59,7.34,59.26Z"/><path class="cls-61" d="M15.22,95.22,43.47,82.82,33.67,50.74l-26.3,8.6Z"/><path class="cls-62" d="M15.22,95.22,43.12,82.83,33.44,50.89,7.38,59.42Z"/><path class="cls-63" d="M15.22,95.22,42.77,82.83,33.21,51,7.4,59.5Z"/><path class="cls-64" d="M15.22,95.22,42.43,82.83,33,51.19,7.42,59.58Z"/><path class="cls-65" d="M15.22,95.22,42.08,82.83l-9.32-31.5L7.44,59.67Z"/><path class="cls-66" d="M15.22,95.22,41.73,82.84l-9.2-31.35L7.46,59.75Z"/><path class="cls-67" d="M15.22,95.22,41.38,82.84,32.3,51.63,7.48,59.83Z"/><path class="cls-68" d="M15.22,95.22,41,82.84l-9-31.06L7.5,59.91Z"/><path class="cls-69" d="M15.22,95.22,40.68,82.84,31.85,51.93,7.51,60Z"/><path class="cls-70" d="M15.22,95.22,40.34,82.85,31.62,52.08l-24.09,8Z"/><path class="cls-71" d="M15.22,95.22,40,82.85,31.4,52.22,7.55,60.16Z"/><path class="cls-72" d="M15.22,95.22,39.64,82.85,31.17,52.37,7.57,60.24Z"/><path class="cls-73" d="M15.22,95.22,39.29,82.85,30.94,52.52,7.59,60.32Z"/><path class="cls-74" d="M15.22,95.22,38.94,82.85,30.72,52.67,7.61,60.4Z"/><path class="cls-75" d="M15.22,95.22,38.6,82.86l-8.11-30L7.63,60.48Z"/><path class="cls-76" d="M15.22,95.22l23-12.36L30.26,53,7.65,60.57Z"/><path class="cls-77" d="M15.22,95.22,37.9,82.86,30,53.11,7.66,60.65Z"/><path class="cls-78" d="M15.22,95.22,37.55,82.86l-7.74-29.6L7.68,60.73Z"/><path class="cls-79" d="M15.22,95.22l22-12.35L29.58,53.41,7.7,60.81Z"/><path class="cls-80" d="M15.22,95.22,36.85,82.87l-7.5-29.31L7.72,60.89Z"/><path class="cls-81" d="M15.22,95.22,36.51,82.87,29.13,53.71,7.74,61Z"/><polygon class="cls-82" points="15.21 95.22 36.16 82.87 28.9 53.86 7.76 61.06 15.21 95.22"/><polygon class="cls-83" points="87.16 83.76 118.88 76.33 102.21 47.8 87.16 83.76"/><path class="cls-84" d="M87.16,83.76l31.47-7.44L102,47.83Z"/><path class="cls-85" d="M87.16,83.76l31.21-7.45L101.84,47.85Z"/><path class="cls-86" d="M87.16,83.76l31-7.47L101.66,47.87Z"/><path class="cls-87" d="M87.16,83.76l30.7-7.48L101.47,47.9Z"/><path class="cls-1" d="M87.16,83.76l30.45-7.49L101.29,47.92Z"/><path class="cls-3" d="M87.16,83.76l30.19-7.51L101.11,47.94Z"/><path class="cls-88" d="M87.16,83.76l29.94-7.52L100.93,48Z"/><path class="cls-4" d="M87.16,83.76l29.68-7.53L100.74,48Z"/><path class="cls-5" d="M87.16,83.76l29.42-7.55-16-28.2Z"/><path class="cls-7" d="M87.16,83.76l29.17-7.56L100.38,48Z"/><path class="cls-8" d="M87.16,83.76l28.91-7.57L100.2,48.06Z"/><path class="cls-9" d="M87.16,83.76l28.66-7.58L100,48.08Z"/><path class="cls-89" d="M87.16,83.76l28.4-7.6L99.83,48.11Z"/><path class="cls-11" d="M87.16,83.76l28.15-7.61-15.66-28Z"/><path class="cls-12" d="M87.16,83.76,115,76.14l-15.58-28Z"/><path class="cls-13" d="M87.16,83.76l27.63-7.64L99.28,48.18Z"/><path class="cls-14" d="M87.16,83.76l27.38-7.65L99.1,48.2Z"/><path class="cls-15" d="M87.16,83.76l27.12-7.66L98.92,48.23Z"/><path class="cls-16" d="M87.16,83.76,114,76.08,98.73,48.25Z"/><path class="cls-17" d="M87.16,83.76l26.61-7.69L98.55,48.27Z"/><path class="cls-18" d="M87.16,83.76l26.36-7.7L98.37,48.3Z"/><path class="cls-90" d="M87.16,83.76,113.26,76,98.18,48.32Z"/><path class="cls-20" d="M87.16,83.76,113,76,98,48.34Z"/><path class="cls-21" d="M87.16,83.76,112.75,76,97.82,48.37Z"/><path class="cls-22" d="M87.16,83.76,112.49,76,97.64,48.39Z"/><path class="cls-24" d="M87.16,83.76,112.23,76,97.45,48.41Z"/><path class="cls-25" d="M87.16,83.76,112,76,97.27,48.44Z"/><path class="cls-91" d="M87.16,83.76,111.72,76,97.09,48.46Z"/><path class="cls-27" d="M87.16,83.76,111.47,76,96.9,48.48Z"/><path class="cls-28" d="M87.16,83.76l24.05-7.82L96.72,48.51Z"/><path class="cls-29" d="M87.16,83.76,111,75.93,96.54,48.53Z"/><path class="cls-30" d="M87.16,83.76l23.54-7.85L96.36,48.55Z"/><path class="cls-31" d="M87.16,83.76l23.29-7.86L96.17,48.58Z"/><path class="cls-32" d="M87.16,83.76l23-7.87L96,48.6Z"/><path class="cls-33" d="M87.16,83.76l22.78-7.89L95.81,48.63Z"/><path class="cls-34" d="M87.16,83.76l22.52-7.9L95.62,48.65Z"/><path class="cls-36" d="M87.16,83.76l22.26-7.91-14-27.18Z"/><path class="cls-92" d="M87.16,83.76l22-7.92L95.26,48.7Z"/><path class="cls-37" d="M87.16,83.76l21.75-7.94L95.08,48.72Z"/><path class="cls-38" d="M87.16,83.76l21.5-8L94.89,48.74Z"/><path class="cls-40" d="M87.16,83.76l21.24-8-13.69-27Z"/><path class="cls-41" d="M87.16,83.76l21-8-13.62-27Z"/><path class="cls-93" d="M87.16,83.76l20.73-8-13.54-27Z"/><path class="cls-42" d="M87.16,83.76l20.47-8L94.16,48.84Z"/><path class="cls-44" d="M87.16,83.76l20.22-8L94,48.86Z"/><path class="cls-45" d="M87.16,83.76l20-8L93.8,48.88Z"/><path class="cls-46" d="M87.16,83.76l19.71-8L93.61,48.91Z"/><path class="cls-94" d="M87.16,83.76l19.45-8.06L93.43,48.93Z"/><path class="cls-48" d="M87.16,83.76l19.2-8.07L93.25,49Z"/><path class="cls-49" d="M87.16,83.76l18.94-8.08L93.06,49Z"/><path class="cls-50" d="M87.16,83.76l18.68-8.09L92.88,49Z"/><path class="cls-51" d="M87.16,83.76l18.43-8.11L92.7,49Z"/><path class="cls-95" d="M87.16,83.76l18.17-8.12L92.52,49Z"/><path class="cls-53" d="M87.16,83.76l17.92-8.13L92.33,49.07Z"/><path class="cls-54" d="M87.16,83.76l17.66-8.15L92.15,49.09Z"/><path class="cls-56" d="M87.16,83.76l17.41-8.16L92,49.12Z"/><path class="cls-57" d="M87.16,83.76l17.15-8.17L91.78,49.14Z"/><path class="cls-96" d="M87.16,83.76l16.89-8.19L91.6,49.17Z"/><path class="cls-58" d="M87.16,83.76l16.64-8.2L91.42,49.19Z"/><path class="cls-60" d="M87.16,83.76l16.38-8.21L91.24,49.21Z"/><path class="cls-61" d="M87.16,83.76l16.13-8.23L91.05,49.24Z"/><path class="cls-62" d="M87.16,83.76,103,75.52,90.87,49.26Z"/><path class="cls-63" d="M87.16,83.76l15.62-8.25L90.69,49.28Z"/><path class="cls-64" d="M87.16,83.76l15.36-8.26-12-26.19Z"/><path class="cls-65" d="M87.16,83.76l15.1-8.28L90.32,49.33Z"/><path class="cls-66" d="M87.16,83.76,102,75.47,90.14,49.35Z"/><path class="cls-67" d="M87.16,83.76l14.59-8.3L90,49.38Z"/><path class="cls-97" d="M87.16,83.76l14.34-8.32-11.72-26Z"/><path class="cls-69" d="M87.16,83.76l14.08-8.33-11.65-26Z"/><path class="cls-70" d="M87.16,83.76,101,75.42l-11.57-26Z"/><path class="cls-71" d="M87.16,83.76l13.57-8.36L89.22,49.47Z"/><path class="cls-73" d="M87.16,83.76l13.31-8.37L89,49.49Z"/><path class="cls-98" d="M87.16,83.76l13.06-8.38L88.86,49.52Z"/><path class="cls-74" d="M87.16,83.76l12.8-8.4L88.68,49.54Z"/><path class="cls-75" d="M87.16,83.76,99.7,75.35,88.49,49.56Z"/><path class="cls-77" d="M87.16,83.76l12.29-8.42L88.31,49.59Z"/><path class="cls-78" d="M87.16,83.76l12-8.43L88.13,49.61Z"/><path class="cls-79" d="M87.16,83.76l11.78-8.45-11-25.68Z"/><path class="cls-99" d="M87.16,83.76,98.68,75.3,87.76,49.66Z"/><path class="cls-81" d="M87.16,83.76l11.27-8.47L87.58,49.68Q87.37,66.72,87.16,83.76Z"/><polygon class="cls-82" points="87.16 83.76 98.17 75.27 87.4 49.7 87.16 83.76"/><polygon class="cls-60" points="58.14 40.66 83.19 27.32 123.24 65.32 87.19 84.17 53.77 72.5 15.21 95.22 3.76 45.31 32.36 29.37 58.14 40.66"/><polygon class="cls-100" points="32.36 29.37 58.14 40.66 87.19 84.17 53.77 72.5 32.36 29.37"/><path class="cls-83" d="M53.73,72.08,34.59,83.36,15.47,94.63Q12.64,82.36,9.83,70.08T4.19,45.5l14.09-7.85,14.1-7.87L43.05,50.94Z"/><path class="cls-24" d="M53.14,70.93,35.21,81.49,17.27,92,11.68,69Q8.88,57.49,6.09,46l13.43-7.5L33,31l10.09,20Z"/><path class="cls-83" d="M50.21,65.11Q47.6,68.53,44.91,72t-5.55,7l4.26-2.51c1.28-1.62,2.55-3.24,3.8-4.84s2.48-3.2,3.69-4.79Z"/><path class="cls-83" d="M41.67,48.2,26.29,57,10.91,65.84c.13.54.27,1.08.4,1.62l15.53-8.93L42.38,49.6Z"/><path class="cls-83" d="M42.4,49.64,37.34,51c-.25.65-.5,1.29-.75,1.93,2.17-.58,4.37-1.17,6.57-1.79Z"/><path class="cls-83" d="M15.15,83.29q7.21-6.65,14.16-13.14t13.4-12.63l-1.53-.79c-4.21,4-8.5,8.07-12.87,12.16s-9,8.37-13.59,12.64C14.87,82.12,15,82.71,15.15,83.29Z"/><path class="cls-83" d="M48.63,70.53c.3-.68.6-1.36.91-2-4.56.94-9.06,1.85-13.48,2.68s-8.64,1.55-12.87,2.26l-1,2.11c4.24-.72,8.54-1.47,12.91-2.3S44,71.48,48.63,70.53Z"/><path class="cls-83" d="M33.45,71.88c.5.29,1,.55,1.49.82l6.47-6.36q3.17-3.13,6.28-6.24l-.19-.37-1.21-.57q-3.12,3.12-6.32,6.3T33.45,71.88Z"/><path class="cls-83" d="M12.79,73.55l10.65-8q5.26-3.92,10.44-7.83c-.29-.43-.57-.88-.85-1.32Q28,60.25,22.81,64.11l-10.43,7.8C12.52,72.46,12.65,73,12.79,73.55Z"/><path class="cls-83" d="M32.82,65.95l.89-2q-2.73.21-5.41.38c-1.77.11-3.54.19-5.28.27l-.93,2c1.75-.08,3.52-.17,5.3-.29S31,66.08,32.82,65.95Z"/><path class="cls-83" d="M35.89,36.75q-7.48,3-14.83,5.93T6.66,48.32l.4,1.62q7.21-2.82,14.56-5.75t15-6Z"/><path class="cls-83" d="M27,56.42c.46.3.92.6,1.39.89,1.65-3,3.27-5.9,4.8-8.81s2.95-5.7,4.34-8.5l-1-1.89c-1.45,3-2.95,6-4.53,9S28.75,53.26,27,56.42Z"/><path class="cls-83" d="M33.52,47l1-2.17q-6.67,2.72-13.24,5.37C16.95,52,12.63,53.67,8.37,55.36c.14.56.27,1.12.41,1.67q6.07-2.41,12.23-4.9T33.52,47Z"/><path class="cls-83" d="M10.94,66c2.62-5.3,5.13-10.47,7.4-15.58s4.2-9.88,6.07-14.67l-2.13,1.19c-1.69,4.26-3.47,8.62-5.43,13S12.65,59,10.38,63.66C10.57,64.43,10.76,65.21,10.94,66Z"/><path class="cls-83" d="M29.88,53.46,31,51.23l-8.51,3.42Q18.24,56.32,14.07,58l-1.21,2.32q4.2-1.66,8.45-3.36Z"/><path class="cls-83" d="M38.48,41.88,33,45,31.4,47.93l3.93-2.24,3.94-2.24Z"/><path class="cls-83" d="M33.69,32.38l-5.24,2.2-5.18,2.15c-.3.7-.61,1.41-.93,2.12l6-2.51,6.05-2.55Z"/><path class="cls-101" d="M26,57c1.32-.29,3.18-.67,5.36-.94a38.1,38.1,0,0,1,7.4-.24,27.57,27.57,0,0,1,7.57,1.52l2,4a22.63,22.63,0,0,0-11-3.4,34.84,34.84,0,0,0-6.9.23c-2,.26-3.78.62-5,.89C25.58,58.41,25.78,57.72,26,57Z"/><path class="cls-83" d="M46.62,58.59l.39.18-.2-.4Z"/><path class="cls-73" d="M34.38,46.24q-2.3,4.39-4.77,8.88l6-3.46,6-3.46-2.42-4.79C37.63,44.37,36,45.3,34.38,46.24Z"/><path class="cls-73" d="M24.92,64.48q4.33-.23,8.79-.56l5.9-5.69c-1.93-.13-3.84-.29-5.74-.46l-4.46,3.35Z"/><path class="cls-39" d="M36.55,38.18c-.57,1.19-1.16,2.37-1.75,3.56l-7.32,2.94c.47-1.14.93-2.26,1.38-3.39Z"/><path class="cls-39" d="M23.84,75.25c1.85-.31,3.72-.63,5.59-1s3.79-.69,5.71-1.06q-2,2.55-4,5.12c-2,.22-4,.43-6,.62s-3.91.36-5.85.52Z"/><path class="cls-73" d="M18.88,45.28c-1,2.37-2.07,4.75-3.16,7.16-2.46,1-4.91,2-7.36,2.92q-.66-2.7-1.31-5.41l5.88-2.3Z"/><path class="cls-83" d="M24.94,49.13l-2.67,1.08c-.85,2.13-1.72,4.3-2.62,6.46s-1.88,4.4-2.86,6.63l2.91-1.4c.94-2.17,1.86-4.32,2.73-6.45S24.12,51.22,24.94,49.13Z"/><path class="cls-39" d="M16.8,53.82c-.57,1.25-1.15,2.5-1.75,3.75l5.06-2q.77-1.86,1.5-3.7Z"/><path class="cls-42" d="M87.16,83.76,70.44,77.92,53.73,72.08,43,51,32.27,29.86l12.94,5.61,12.95,5.61L72.67,62.42Z"/><path class="cls-102" d="M86.37,82.6,69.75,76.76,53.14,70.93,43,51,32.85,31l13,5.62L59,42.25,72.67,62.42Z"/><path class="cls-42" d="M71.39,60.54c-3.13.79-6.43,1.59-9.89,2.33s-7.38,1.5-11.31,2.25l.91,1.8c4-.74,7.81-1.46,11.47-2.23s6.86-1.54,10.05-2.33Z"/><path class="cls-42" d="M70.78,59.65l-14.6-5.71L41.6,48.24l.71,1.4L57,55.36l14.72,5.72Z"/><path class="cls-42" d="M73.95,64.31a20,20,0,0,1-6.78-5.54c-1.2-1.82-.54-2.71,1.42-2.34Z"/><path class="cls-103" d="M72.94,62.82a12.72,12.72,0,0,1-3.79-3.28c-.71-1.06-.48-1.64.45-1.63Z"/><path class="cls-42" d="M65.43,64.06l.48-.71q-6-3.42-12-6.85T42.33,49.68l.77,1.5q5.45,3.22,11,6.44C57.84,59.77,61.63,61.92,65.43,64.06Z"/><path class="cls-83" d="M47.65,60.13h.16l-.35-.38Z"/><path class="cls-42" d="M65.66,52.11Q58,48.27,50.54,44.44T35.79,36.8l.72,1.41Q43.88,42,51.38,45.86t15.24,7.67Z"/><path class="cls-42" d="M37.44,40.05l1.27-.85-1.4-1.6-.82.56Z"/><path class="cls-42" d="M44,41.51c.65.44,1.31.88,2,1.32.91-.66,1.79-1.32,2.63-2s1.61-1.34,2.36-2l-2.31-1c-.71.63-1.45,1.25-2.22,1.86S44.8,40.9,44,41.51Z"/><path class="cls-42" d="M48.64,51.34l2.17,1.4q-2.32-5-4.71-10.07L44,41.27Q46.36,46.31,48.64,51.34Z"/><path class="cls-42" d="M48.49,47.22,47.43,45.6l-4.52-1.84L38.4,41.93l.8,1.56,4.64,1.87Z"/><path class="cls-42" d="M66.69,53.63,56.5,49.39,46.32,45.12,47,46.61l10.4,4.32,10.42,4.31Z"/><path class="cls-42" d="M55.47,54.43l2.1.6L54,49.11,52,48.68Z"/><path class="cls-42" d="M62.68,57.12l2.09.6-3.88-5.95L59,51.35Q60.83,54.23,62.68,57.12Z"/><path class="cls-42" d="M47.57,40.64l.61-.67-7.34-3.76q-3.65-1.88-7.27-3.77l.72,1.41,6.6,3.4Z"/><path class="cls-42" d="M38.47,35.28l2.26,1.36c.2-.66.38-1.33.56-2l-2.33-1C38.8,34.2,38.64,34.74,38.47,35.28Z"/><path class="cls-42" d="M80,73.18l-10.5-4.53L59.09,64.12,60,65.55,70.4,70.07l10.52,4.52Z"/><path class="cls-42" d="M83.49,78.35q-7.8-3.24-15.52-6.5t-15.32-6.5l.83,1.43Q61.14,70,68.86,73.27t15.58,6.48Z"/><path class="cls-42" d="M59.46,69l3.16,1.55,3-.89c1-.29,1.93-.6,2.88-.91L65.4,67.17c-1,.3-1.92.61-2.9.91Z"/><path class="cls-104" d="M46.25,57.38a69.86,69.86,0,0,1,8,9.48L52,66.2a60.22,60.22,0,0,0-3.69-4.82Z"/><path class="cls-42" d="M47,58.79,48.1,60l4.69-.45,4.49-.47-1.56-1.61c-1.43.16-2.89.32-4.37.47l-4.58.44Z"/><path class="cls-42" d="M63.37,74.52q-.19-2-.43-4c-.87-.46-1.73-.94-2.6-1.42.15,1.51.3,3,.42,4.51Z"/><path class="cls-42" d="M75.64,66.8l-6-2.27-6-2.29c.21.48.42,1,.64,1.44L70.44,66l6.25,2.34Z"/><path class="cls-103" d="M60,65.55l4.44,1.92q-1.94.61-4,1.19l-5.71-2.42C56.52,66,58.27,65.79,60,65.55Z"/><path class="cls-103" d="M41.6,48.24l6.84,2.68L46.36,46.3l-3.59-1.42-3.59-1.42Z"/><path class="cls-76" d="M54.29,49.66l2.84,4.66,5,2L59.21,51.7Z"/><path class="cls-76" d="M46.55,42.39c.76-.58,1.5-1.15,2.23-1.73l4.17,2.17L57.15,45c-.16.86-.33,1.71-.53,2.56L51.57,45Z"/><path class="cls-76" d="M66.69,53.63l-9.61-4-9.58-4-1.09-2.3q5,2.56,10,5.1c3.38,1.71,6.76,3.4,10.18,5.11Z"/><path class="cls-83" d="M83.13,27.78l19.74,18.74L122.6,65.24,104.87,74.5,87.16,83.76,72.66,62.42,58.16,41.07l12.48-6.64Z"/><path class="cls-24" d="M82.79,29.57l18.38,17.84,18.37,17.83-16.6,8.68L86.36,82.6,72.66,62.42,59,42.25l11.92-6.34Z"/><path class="cls-83" d="M69.19,36.81c.82,3.83,1.59,7.7,2.17,11.63s1,8,1.31,12.06L75,60c-.39-4.17-.84-8.29-1.5-12.34s-1.5-8-2.4-11.89Z"/><path class="cls-83" d="M85.55,32.24c-1.88,4.48-3.88,9.08-6.21,13.72s-5.12,9.63-8,14.58l1.23,1.81c2.92-5,5.7-9.86,8.18-14.69,2.39-4.67,4.47-9.32,6.41-13.82Z"/><path class="cls-83" d="M98.65,45,84.71,52.31,70.78,59.65l1,1.42,14.1-7.42,14.11-7.43Z"/><path class="cls-83" d="M68.68,52.8l-.93-1.43-2.1.73,1,1.42Z"/><path class="cls-83" d="M70.14,54c-.29-.57-.58-1.14-.88-1.71l-2.58,1.3,1.1,1.6C68.57,54.85,69.35,54.45,70.14,54Z"/><path class="cls-83" d="M83.85,73.38,82.76,72,80,73.18l1,1.41Z"/><path class="cls-83" d="M87.75,78.35,86.65,77l-3.18,1.34,1,1.41Z"/><path class="cls-83" d="M97.45,73.27,96.26,72l-5,2.79-5,2.79,1.08,1.35,5.1-2.82Z"/><path class="cls-83" d="M87.25,65.92l-2,2.11-2.49,2.58-.55-.78v4.5L87.49,82,90,80.71l-5.8-8.14,2.61-2.68,2.35-2.44,3.66,3.75q2.61,2.66,5.25,5.3l2.72-1.42Q98,72.42,95.33,69.76l-2.9-2.89a55.85,55.85,0,0,0,7.89.41,95.23,95.23,0,0,0,18.82-2.45l-1.53-1.49a88.13,88.13,0,0,1-17,2,51.3,51.3,0,0,1-9.1-.7c.28-2.48.54-4.95.72-7.39s.28-5.09.34-7.6l-2.73.52c-.09,2.52-.2,5.07-.41,7.63-.17,2.08-.4,4.17-.65,6.28a35.22,35.22,0,0,1-6.6-2.41v2.5A37.77,37.77,0,0,0,87.25,65.92Zm-5,3.91-5-7.08a8.52,8.52,0,0,0,.78-.76,32.39,32.39,0,0,0,4.27,2.2v-2.5a30.79,30.79,0,0,1-2.92-1.62c.72-1.4,1-2.92.14-4-1.46-1.89-5.55-2-8-1.3L61.54,40.88l-1.77.94,9.59,13.9c-.72.42-.39.35-.78.7l5.35,7.89c.57-.15.33.08,1.14-.31l1.56,2.27-1,.53,1.06,1.56,1-.53,4.49,6.51Z"/><path class="cls-83" d="M71.13,41.42c.43.49.87,1,1.31,1.45L78.77,40l6.37-2.91.46-2-7.27,3.19Z"/><path class="cls-83" d="M75.87,39.89l2.78-.76c-.35-2.27-.73-4.52-1.15-6.75l-2.56,1.37Q75.45,36.8,75.87,39.89Z"/><path class="cls-83" d="M71.91,48.71l1.28,1.48,4-2.29,4-2.3c.21-.69.42-1.39.62-2.08l-4.94,2.6Z"/><path class="cls-39" d="M71.1,35.79c.41,1.71.8,3.42,1.16,5.14l3.54-1.54c-.26-1.89-.55-3.77-.87-5.63Z"/><path class="cls-83" d="M107.46,53.51c-2.91.44-5.79.86-8.64,1.26s-5.63.76-8.4,1.12c0,.58,0,1.14-.06,1.71,3-.4,6.08-.81,9.15-1.25s6.27-.91,9.45-1.39Z"/><path class="cls-83" d="M100.72,66.84l2.62-.32q.18-5.9.05-11.64l-2.55.27Q100.94,60.92,100.72,66.84Z"/><path class="cls-83" d="M112.21,58.13q-5,.56-9.84,1.06c-.08.64-.17,1.28-.26,1.92q2.91-.29,5.85-.62c2-.22,4-.45,6-.69Z"/><path class="cls-83" d="M108.18,66.32c.91-.15,1.8-.32,2.71-.48q.18-3.7.25-7.31l-2.65.45Q108.41,62.62,108.18,66.32Z"/><path class="cls-73" d="M103.48,61q0,2.15-.09,4.31s1.31-.06,2.41-.16l2.48-.25c.08-1.48.14-3,.19-4.44Z"/><path class="cls-39" d="M67.57,53.19l-.89.44-.07-.11Z"/><path class="cls-83" d="M88.93,63a7.46,7.46,0,0,1,2.65,1.22l0,.43.61.1a2.05,2.05,0,0,1,.53,1.32,1.84,1.84,0,0,1-.19.8h0l0,0a4.23,4.23,0,0,1-2.15,1.76l-1.19-1.22-1.95,2a14.58,14.58,0,0,1-3.34,0L85.24,68l2-2.11a37,37,0,0,1-6.1-2.2V63.3a11.85,11.85,0,0,1,3.17-.68A36.62,36.62,0,0,0,88.8,64.1L88.93,63Zm-7.79,5.85.47.16-.47-.66Zm0-5.13-.47-.22.47-.19v.42Zm0,4.64v.5c-1.7-.64-2.8-1.64-2.8-2.77A2,2,0,0,1,78.72,65Z"/><path class="cls-84" d="M88.93,63.05a7.27,7.27,0,0,1,2.64,1.25l0,.36.51.08a2.06,2.06,0,0,1,.55,1.34c0,1-.89,1.93-2.31,2.56l-1.16-1.2-1.93,2a14.45,14.45,0,0,1-3.34,0L85.24,68l2-2.11a37,37,0,0,1-6.09-2.19v-.39a11.82,11.82,0,0,1,3.23-.68A36.65,36.65,0,0,0,88.8,64.1l.12-1Zm-7.77,5.79.44.15-.44-.62Zm0-5.12-.44-.21.44-.18v.39Zm0,4.65v.47c-1.69-.64-2.78-1.63-2.78-2.76a1.94,1.94,0,0,1,.36-1.1Z"/><path class="cls-105" d="M88.92,63.1a7.07,7.07,0,0,1,2.64,1.27l0,.29.41.07a2.06,2.06,0,0,1,.58,1.37c0,1-.87,1.9-2.26,2.53l-1.14-1.17-1.91,2a14.38,14.38,0,0,1-3.35,0L85.24,68l2-2.11a37,37,0,0,1-6.08-2.19v-.37a11.8,11.8,0,0,1,3.29-.68A36.67,36.67,0,0,0,88.8,64.1l.12-1Zm-7.75,5.74.42.15-.42-.59Zm0-5.1-.42-.2.42-.17v.37Zm0,4.66v.44c-1.68-.63-2.76-1.62-2.76-2.74A1.92,1.92,0,0,1,78.76,65Z"/><path class="cls-105" d="M88.92,63.14a6.85,6.85,0,0,1,2.64,1.3l0,.22.3.05a2.07,2.07,0,0,1,.61,1.4c0,1-.85,1.87-2.2,2.49l-1.12-1.15-1.88,2a14.23,14.23,0,0,1-3.36,0L85.24,68l2-2.11a37,37,0,0,1-6.06-2.18v-.35a11.77,11.77,0,0,1,3.35-.68A36.74,36.74,0,0,0,88.8,64.1l.11-1Zm-7.73,5.69.39.14-.39-.55Zm0-5.09-.39-.19.39-.16v.35Zm0,4.67v.41c-1.67-.63-2.74-1.61-2.74-2.72a1.9,1.9,0,0,1,.34-1.06Z"/><path class="cls-85" d="M88.91,63.18a6.64,6.64,0,0,1,2.64,1.33l0,.14.2,0a2.08,2.08,0,0,1,.64,1.43c0,1-.83,1.84-2.15,2.46l-1.09-1.12L87.26,69.4a14.12,14.12,0,0,1-3.37,0L85.24,68l2-2.11a37.06,37.06,0,0,1-6-2.17v-.32a11.74,11.74,0,0,1,3.42-.68A36.8,36.8,0,0,0,88.8,64.1l.11-.91ZM81.2,68.82l.37.13-.37-.52Zm0-5.07-.37-.17.37-.15v.32Zm0,4.69v.39c-1.66-.62-2.72-1.6-2.72-2.7a1.88,1.88,0,0,1,.33-1Z"/><path class="cls-86" d="M88.91,63.23a6.44,6.44,0,0,1,2.63,1.37v.07l.09,0a2.09,2.09,0,0,1,.67,1.45c0,1-.81,1.81-2.1,2.42l-1.07-1.1-1.84,1.92a13.78,13.78,0,0,1-1.88.13,13.94,13.94,0,0,1-1.5-.08L85.24,68l2-2.11a37.07,37.07,0,0,1-6-2.17v-.3a11.72,11.72,0,0,1,3.48-.68A36.88,36.88,0,0,0,88.8,64.1l.1-.87Zm-7.69,5.58.34.12-.34-.48Zm0-5.06-.34-.16.34-.14v.3Zm0,4.7v.36c-1.64-.62-2.71-1.59-2.71-2.68a1.86,1.86,0,0,1,.32-1Z"/><path class="cls-87" d="M88.9,63.27c2,.58,3.32,1.65,3.32,2.87,0,.94-.79,1.78-2.05,2.39l-1-1.07-1.82,1.9a13.63,13.63,0,0,1-1.92.13,13.83,13.83,0,0,1-1.47-.08L85.24,68l2-2.11a37.08,37.08,0,0,1-6-2.16v-.27a11.7,11.7,0,0,1,3.55-.67,36.93,36.93,0,0,0,4,1.29l.1-.82ZM81.22,68.8l.32.11-.32-.44Zm0-5-.32-.15.32-.13v.27Zm0,4.71v.33c-1.63-.61-2.69-1.57-2.69-2.66a1.84,1.84,0,0,1,.31-1Z"/><path class="cls-1" d="M88.89,63.32c1.95.58,3.25,1.63,3.25,2.83,0,.92-.77,1.75-2,2.35l-1-1.05-1.8,1.87a13.5,13.5,0,0,1-2,.14,13.73,13.73,0,0,1-1.43-.07L85.24,68l2-2.11a37.08,37.08,0,0,1-6-2.16v-.25a11.68,11.68,0,0,1,3.62-.67A37,37,0,0,0,88.8,64.1l.09-.78Zm-7.66,5.47.29.1-.29-.41Zm0-5-.29-.14.29-.11v.25Zm0,4.72v.3c-1.62-.61-2.67-1.56-2.67-2.64a1.82,1.82,0,0,1,.3-1Z"/><path class="cls-2" d="M88.89,63.37c1.91.58,3.18,1.62,3.18,2.8,0,.9-.75,1.72-2,2.32l-1-1-1.78,1.85a13.35,13.35,0,0,1-2,.15,13.69,13.69,0,0,1-1.4-.07L85.24,68l2-2.11a37.07,37.07,0,0,1-6-2.15v-.23a11.65,11.65,0,0,1,3.69-.67A37.06,37.06,0,0,0,88.8,64.1l.09-.73Zm-7.64,5.42.26.09-.26-.37Zm0-5L81,63.65l.26-.1v.23Zm0,4.74v.28c-1.61-.6-2.65-1.55-2.65-2.62a1.8,1.8,0,0,1,.29-1Z"/><path class="cls-2" d="M88.88,63.41C90.75,64,92,65,92,66.17c0,.89-.73,1.69-1.9,2.28l-1-1-1.75,1.83a13.21,13.21,0,0,1-2.05.16,13.54,13.54,0,0,1-1.37-.07L85.24,68l2-2.11a37.09,37.09,0,0,1-6-2.14v-.2A11.63,11.63,0,0,1,85,62.91,37.13,37.13,0,0,0,88.8,64.1l.08-.69Zm-7.62,5.36.24.08-.24-.33Zm0-5L81,63.67l.24-.09v.2Zm0,4.75v.25c-1.6-.6-2.63-1.54-2.63-2.6a1.79,1.79,0,0,1,.28-.94Z"/><path class="cls-3" d="M88.88,63.46c1.83.58,3,1.58,3,2.73,0,.87-.71,1.66-1.85,2.25l-.95-1-1.73,1.8a13.1,13.1,0,0,1-2.1.17c-.46,0-.9,0-1.33-.07L85.24,68l2-2.11a37.09,37.09,0,0,1-6-2.14V63.6a11.6,11.6,0,0,1,3.85-.66A37.08,37.08,0,0,0,88.8,64.1l.08-.64Zm-7.6,5.31.21.07-.21-.29Zm0-5-.21-.1.21-.08v.18Zm0,4.76v.22c-1.59-.59-2.62-1.53-2.62-2.58a1.77,1.77,0,0,1,.27-.92Z"/><path class="cls-88" d="M88.87,63.5c1.79.57,3,1.56,3,2.69,0,.86-.69,1.64-1.8,2.21l-.92-1-1.71,1.78a13,13,0,0,1-2.14.17c-.45,0-.88,0-1.3-.06L85.24,68l2-2.11a37.13,37.13,0,0,1-6-2.13v-.16A11.58,11.58,0,0,1,85.22,63,37.15,37.15,0,0,0,88.8,64.1l.07-.59Zm-7.58,5.25.18.07-.18-.26Zm0-5-.18-.08.18-.07v.16Zm0,4.77v.19c-1.58-.59-2.6-1.52-2.6-2.56a1.75,1.75,0,0,1,.26-.9Z"/><path class="cls-4" d="M85.25,63h.07c1.07.39,2.23.76,3.48,1.08l.06-.55c1.75.57,2.91,1.55,2.91,2.65,0,.84-.67,1.61-1.75,2.18l-.9-.92-1.68,1.75a12.81,12.81,0,0,1-2.19.18c-.43,0-.86,0-1.27-.06L85.24,68l2-2.11a37.15,37.15,0,0,1-5.94-2.12v-.13A11.51,11.51,0,0,1,85.25,63Zm-3.94,5.73.16.06-.16-.22Zm0-4.95-.16-.07.16-.06v.13Zm0,4.79v.16c-1.57-.58-2.58-1.5-2.58-2.54a1.73,1.73,0,0,1,.25-.88Z"/><path class="cls-5" d="M85.23,63.05h.2c1,.38,2.16.73,3.38,1l.06-.5c1.71.57,2.84,1.53,2.84,2.62,0,.82-.65,1.58-1.7,2.14l-.87-.9-1.66,1.73a12.66,12.66,0,0,1-2.23.19c-.42,0-.83,0-1.23-.06L85.24,68l2-2.11a37.14,37.14,0,0,1-5.93-2.12v-.11a11.43,11.43,0,0,1,3.91-.64Zm-3.91,5.68.13,0-.13-.18Zm0-4.93-.13-.06.13,0v.11Zm0,4.8v.13c-1.56-.58-2.56-1.49-2.56-2.52a1.71,1.71,0,0,1,.24-.86Z"/><path class="cls-6" d="M85.21,63.09h.32c1,.36,2.1.7,3.27,1l.05-.45c1.67.57,2.77,1.51,2.77,2.58A2.62,2.62,0,0,1,90,68.33l-.85-.87-1.63,1.7a12.52,12.52,0,0,1-2.28.2c-.41,0-.81,0-1.2-.05L85.24,68l2-2.11a37.14,37.14,0,0,1-5.91-2.11v-.09a11.33,11.33,0,0,1,3.87-.64Zm-3.87,5.64.1,0-.1-.14Zm0-4.92-.1,0,.1,0v.09Zm0,4.81v.11c-1.55-.57-2.55-1.48-2.55-2.5a1.69,1.69,0,0,1,.23-.84Z"/><path class="cls-6" d="M85.19,63.12h.46c1,.35,2,.67,3.16,1l0-.41c1.63.56,2.7,1.49,2.7,2.54a2.58,2.58,0,0,1-1.61,2.07l-.82-.85-1.61,1.68a12.4,12.4,0,0,1-2.33.21c-.4,0-.79,0-1.17-.05L85.24,68l2-2.11a37.16,37.16,0,0,1-5.9-2.1v-.06a11.24,11.24,0,0,1,3.84-.63Zm-3.84,5.59.07,0-.07-.1Zm0-4.9-.07,0,.07,0v.06Zm0,4.83v.08c-1.54-.57-2.53-1.47-2.53-2.48a1.67,1.67,0,0,1,.23-.82Z"/><path class="cls-7" d="M85.16,63.16h.6c.94.33,2,.64,3,.92l0-.36c1.59.56,2.63,1.47,2.63,2.51a2.53,2.53,0,0,1-1.56,2l-.8-.82-1.58,1.65a12.24,12.24,0,0,1-2.37.23c-.39,0-.77,0-1.13,0L85.24,68l2-2.11a37.17,37.17,0,0,1-5.88-2.1v0a11.15,11.15,0,0,1,3.8-.62Zm-3.8,5.55,0,0,0-.07Zm0-4.89,0,0,0,0v0Zm0,4.84v0c-1.53-.56-2.51-1.46-2.51-2.46a1.65,1.65,0,0,1,.22-.8Z"/><path class="cls-8" d="M85.14,63.2l.75,0c.91.31,1.88.61,2.91.88l0-.31c1.55.56,2.56,1.46,2.56,2.47a2.49,2.49,0,0,1-1.51,2l-.77-.79-1.56,1.62a12.12,12.12,0,0,1-2.42.24c-.37,0-.74,0-1.1,0L85.24,68l2-2.11a37.17,37.17,0,0,1-5.87-2.09v0a11.06,11.06,0,0,1,3.77-.62Zm-3.77,5.5h0l0,0Zm0-4.87h0v0Zm0,4.85v0c-1.51-.56-2.49-1.45-2.49-2.44a1.63,1.63,0,0,1,.21-.78Z"/><path class="cls-9" d="M85.12,63.23q.46,0,.9,0c.87.3,1.79.58,2.78.83l0-.26c1.51.55,2.49,1.44,2.49,2.43a2.45,2.45,0,0,1-1.46,2l-.75-.77-1.53,1.6a12,12,0,0,1-2.47.25c-.36,0-.72,0-1.06,0L85.24,68l2-2.11a37.2,37.2,0,0,1-5.85-2.08,11,11,0,0,1,3.72-.61Zm-3.74,5.46c-1.5-.55-2.47-1.43-2.47-2.42a1.62,1.62,0,0,1,.2-.76Z"/><path class="cls-89" d="M85.1,63.27c.37,0,.72,0,1.07,0,.83.28,1.7.54,2.63.78l0-.21c1.47.55,2.42,1.42,2.42,2.39a2.4,2.4,0,0,1-1.41,1.92l-.72-.74L87.62,69a11.81,11.81,0,0,1-2.52.26c-.35,0-.7,0-1,0L85.24,68l2-2.11a37.22,37.22,0,0,1-5.8-2.06,10.92,10.92,0,0,1,3.66-.59Zm-3.73,5.4c-1.47-.55-2.42-1.42-2.42-2.39a1.6,1.6,0,0,1,.19-.74Z"/><path class="cls-10" d="M85.08,63.31a12.34,12.34,0,0,1,1.25.06q1.17.39,2.47.73l0-.16c1.43.55,2.36,1.4,2.36,2.35a2.36,2.36,0,0,1-1.37,1.88l-.69-.71L87.65,69a11.66,11.66,0,0,1-2.57.28c-.34,0-.67,0-1,0L85.24,68l2-2.11a37.24,37.24,0,0,1-5.76-2,10.86,10.86,0,0,1,3.59-.57Zm-3.72,5.35c-1.45-.55-2.38-1.4-2.38-2.36a1.58,1.58,0,0,1,.18-.72Z"/><path class="cls-10" d="M85.06,63.34a12.19,12.19,0,0,1,1.46.09q1.09.36,2.29.67V64c1.39.54,2.29,1.38,2.29,2.32a2.31,2.31,0,0,1-1.32,1.84l-.67-.69L87.67,69a11.52,11.52,0,0,1-2.62.29c-.33,0-.65,0-1,0L85.24,68l2-2.11a37.27,37.27,0,0,1-5.72-2,10.8,10.8,0,0,1,3.53-.56Zm-3.72,5.29C79.92,68.09,79,67.25,79,66.3a1.56,1.56,0,0,1,.17-.7Z"/><path class="cls-11" d="M85,63.38a11.9,11.9,0,0,1,1.69.12q1,.32,2.08.6V64c1.35.54,2.22,1.36,2.22,2.28a2.27,2.27,0,0,1-1.27,1.8l-.64-.66L87.7,68.93a11.37,11.37,0,0,1-2.67.31q-.47,0-.93,0L85.24,68l2-2.11a37.31,37.31,0,0,1-5.68-2A10.74,10.74,0,0,1,85,63.38Zm-3.71,5.23c-1.39-.54-2.29-1.37-2.29-2.3a1.54,1.54,0,0,1,.16-.68Z"/><path class="cls-12" d="M85,63.41a11.68,11.68,0,0,1,2,.16q.88.27,1.83.52v0c1.31.53,2.15,1.34,2.15,2.24a2.22,2.22,0,0,1-1.22,1.77l-.61-.63L87.73,68.9a11.22,11.22,0,0,1-2.72.32q-.46,0-.9,0L85.24,68l2-2.11a37.33,37.33,0,0,1-5.63-2,10.67,10.67,0,0,1,3.4-.52Zm-3.7,5.18c-1.37-.53-2.24-1.35-2.24-2.27a1.53,1.53,0,0,1,.15-.66Z"/><path class="cls-13" d="M85,63.45a11.34,11.34,0,0,1,2.35.24l1.17.33c1.44.52,2.37,1.36,2.37,2.31a2.18,2.18,0,0,1-1.18,1.73l-.58-.6-1.36,1.42a11.06,11.06,0,0,1-2.77.34q-.44,0-.86,0L85.24,68l2-2.11a37.37,37.37,0,0,1-5.59-2A10.6,10.6,0,0,1,85,63.45ZM81.3,68.57C80,68,79.1,67.24,79.1,66.33a1.51,1.51,0,0,1,.14-.63Z"/><path class="cls-14" d="M85,63.49c3.22,0,5.84,1.28,5.84,2.85A2.14,2.14,0,0,1,89.68,68l-.56-.57L87.8,68.84a10.9,10.9,0,0,1-2.82.36l-.83,0L85.24,68l2-2.11A37.4,37.4,0,0,1,81.7,64,10.54,10.54,0,0,1,85,63.49Zm-3.69,5.07C80,68,79.13,67.23,79.13,66.34a1.49,1.49,0,0,1,.14-.61Z"/><path class="cls-106" d="M84.95,63.52c3.19,0,5.78,1.27,5.78,2.83A2.09,2.09,0,0,1,89.65,68l-.53-.54L87.83,68.8a10.75,10.75,0,0,1-2.88.37l-.79,0L85.24,68l2-2.11A37.45,37.45,0,0,1,81.75,64a10.48,10.48,0,0,1,3.2-.47Zm-3.68,5c-1.29-.52-2.1-1.3-2.1-2.18a1.47,1.47,0,0,1,.13-.59Z"/><path class="cls-106" d="M84.93,63.56c3.16,0,5.73,1.25,5.73,2.8a2.05,2.05,0,0,1-1,1.61l-.5-.51-1.26,1.31a10.58,10.58,0,0,1-2.93.39l-.76,0L85.24,68l2-2.11A37.47,37.47,0,0,1,81.79,64a10.42,10.42,0,0,1,3.13-.46Zm-3.67,5C80,68,79.2,67.23,79.2,66.36a1.45,1.45,0,0,1,.12-.57Z"/><path class="cls-15" d="M84.91,63.6c3.14,0,5.68,1.24,5.68,2.78a2,2,0,0,1-1,1.57l-.47-.49L87.9,68.73a10.42,10.42,0,0,1-3,.42l-.72,0L85.24,68l2-2.11A37.54,37.54,0,0,1,81.84,64a10.35,10.35,0,0,1,3.07-.44Zm-3.67,4.9c-1.23-.51-2-1.27-2-2.12a1.44,1.44,0,0,1,.11-.55Z"/><path class="cls-16" d="M84.89,63.63c3.11,0,5.62,1.23,5.62,2.75a2,2,0,0,1-.95,1.53l-.44-.46-1.19,1.24a10.25,10.25,0,0,1-3,.44l-.69,0,1-1.08,2-2.11a37.56,37.56,0,0,1-5.36-1.86,10.29,10.29,0,0,1,3-.42Zm-3.66,4.84c-1.2-.5-2-1.25-2-2.09a1.42,1.42,0,0,1,.1-.52Z"/><path class="cls-17" d="M84.86,63.67c3.08,0,5.57,1.22,5.57,2.72a1.92,1.92,0,0,1-.9,1.49l-.41-.42L88,68.65a10.08,10.08,0,0,1-3.11.46l-.66,0,1-1.07,2-2.11a37.59,37.59,0,0,1-5.32-1.84,10.23,10.23,0,0,1,2.93-.41Zm-3.65,4.78c-1.18-.5-1.92-1.24-1.92-2.06a1.4,1.4,0,0,1,.09-.5Z"/><path class="cls-18" d="M84.84,63.71c3,0,5.52,1.21,5.52,2.7a1.88,1.88,0,0,1-.86,1.45l-.38-.39L88,68.61a9.9,9.9,0,0,1-3.17.49l-.62,0,1-1.06,2-2.11A37.64,37.64,0,0,1,82,64.1a10.16,10.16,0,0,1,2.86-.39ZM81.2,68.43c-1.15-.49-1.87-1.22-1.87-2a1.38,1.38,0,0,1,.09-.48Z"/><path class="cls-18" d="M84.82,63.74c3,0,5.47,1.2,5.47,2.67a1.84,1.84,0,0,1-.82,1.4l-.35-.36-1.07,1.11a9.71,9.71,0,0,1-3.23.52l-.59,0,1-1,2-2.11A37.66,37.66,0,0,1,82,64.12a10.09,10.09,0,0,1,2.8-.38Zm-3.64,4.67c-1.12-.49-1.83-1.2-1.83-2a1.37,1.37,0,0,1,.08-.46Z"/><path class="cls-19" d="M84.8,63.78c3,0,5.41,1.18,5.41,2.65a1.8,1.8,0,0,1-.77,1.36l-.32-.33-1,1.07a9.53,9.53,0,0,1-3.3.55h-.55l1-1,2-2.11a37.68,37.68,0,0,1-5.17-1.78,10,10,0,0,1,2.73-.36Zm-3.63,4.61c-1.09-.48-1.78-1.18-1.78-2a1.35,1.35,0,0,1,.07-.43Z"/><path class="cls-90" d="M84.78,63.81c3,0,5.36,1.17,5.36,2.62a1.76,1.76,0,0,1-.73,1.32l-.29-.3-1,1a9.34,9.34,0,0,1-3.37.58h-.52l1-1,2-2.11a37.72,37.72,0,0,1-5.13-1.76,10,10,0,0,1,2.66-.34Zm-3.63,4.55c-1.06-.48-1.73-1.17-1.73-1.93a1.33,1.33,0,0,1,.07-.41Z"/><path class="cls-20" d="M84.76,63.85c2.93,0,5.31,1.16,5.31,2.59a1.72,1.72,0,0,1-.69,1.28l-.26-.27-.93,1a9.14,9.14,0,0,1-3.44.62h-.48l1-1,2-2.11a37.73,37.73,0,0,1-5.08-1.74,9.91,9.91,0,0,1,2.59-.33Zm-3.62,4.49c-1-.47-1.69-1.15-1.69-1.9a1.32,1.32,0,0,1,.06-.38Z"/><path class="cls-20" d="M84.74,63.89c2.9,0,5.26,1.15,5.26,2.57a1.68,1.68,0,0,1-.64,1.23l-.23-.23-.87.91a8.92,8.92,0,0,1-3.51.66h-.45l.95-1,2-2.11a37.77,37.77,0,0,1-5-1.72,9.83,9.83,0,0,1,2.52-.31Zm-3.62,4.43c-1-.47-1.64-1.13-1.64-1.86a1.31,1.31,0,0,1,.05-.36Z"/><path class="cls-21" d="M84.71,63.92c2.87,0,5.2,1.14,5.2,2.54a1.64,1.64,0,0,1-.6,1.19l-.19-.2-.81.85a8.7,8.7,0,0,1-3.59.7H84.3l.94-1,2-2.11a37.84,37.84,0,0,1-5-1.7,9.77,9.77,0,0,1,2.45-.3ZM81.1,68.3c-1-.46-1.59-1.11-1.59-1.83a1.29,1.29,0,0,1,0-.34Z"/><path class="cls-22" d="M84.69,64c2.84,0,5.15,1.13,5.15,2.52a1.6,1.6,0,0,1-.56,1.14l-.16-.17-.75.78a8.46,8.46,0,0,1-3.68.76h-.38l.92-1,2-2.11a37.86,37.86,0,0,1-4.93-1.68A9.7,9.7,0,0,1,84.69,64Zm-3.61,4.31c-1-.46-1.54-1.09-1.54-1.8a1.26,1.26,0,0,1,0-.31Z"/><path class="cls-23" d="M84.67,64c2.81,0,5.1,1.12,5.1,2.49a1.56,1.56,0,0,1-.52,1.1l-.13-.13-.68.71a8.21,8.21,0,0,1-3.77.82h-.34l.91-.94,2-2.11a37.87,37.87,0,0,1-4.88-1.66,9.65,9.65,0,0,1,2.3-.27Zm-3.6,4.25c-.92-.45-1.49-1.07-1.49-1.76a1.24,1.24,0,0,1,0-.28Z"/><path class="cls-24" d="M84.65,64c2.79,0,5,1.1,5,2.47a1.52,1.52,0,0,1-.48,1.05l-.09-.09-.59.62a7.92,7.92,0,0,1-3.88.89h-.31l.89-.93,2-2.11a37.92,37.92,0,0,1-4.83-1.63A9.58,9.58,0,0,1,84.65,64Zm-3.6,4.19c-.89-.44-1.44-1.05-1.44-1.73a1.24,1.24,0,0,1,0-.26Z"/><path class="cls-24" d="M84.63,64.07c2.76,0,5,1.09,5,2.44a1.48,1.48,0,0,1-.44,1l-.06-.06-.49.51a7.58,7.58,0,0,1-4,1h-.27l.88-.92,2-2.11a38,38,0,0,1-4.77-1.61,9.51,9.51,0,0,1,2.16-.24ZM81,68.2c-.86-.44-1.4-1-1.4-1.69a1.21,1.21,0,0,1,0-.23Z"/><path class="cls-25" d="M84.61,64.1c2.73,0,4.94,1.08,4.94,2.41a1.44,1.44,0,0,1-.4,1l0,0-.33.35a7.13,7.13,0,0,1-4.18,1.13h-.24l.87-.9,2-2.11a38,38,0,0,1-4.72-1.59,9.46,9.46,0,0,1,2.08-.22ZM81,68.18c-.83-.43-1.35-1-1.35-1.66a1.2,1.2,0,0,1,0-.21Z"/><path class="cls-91" d="M84.59,64.14c2.7,0,4.89,1.07,4.89,2.39s-2.19,2.39-4.89,2.39h-.2l.85-.89,2-2.11a38,38,0,0,1-4.67-1.57,9.38,9.38,0,0,1,2-.21Zm-3.59,4c-.8-.43-1.3-1-1.3-1.62a1.2,1.2,0,0,1,0-.18Z"/><path class="cls-26" d="M84.57,64.18c2.67,0,4.83,1.06,4.83,2.36s-2.16,2.36-4.83,2.36H84.4l.84-.87,2-2.11a38.09,38.09,0,0,1-4.61-1.55,9.31,9.31,0,0,1,1.93-.2ZM81,68.12a2,2,0,0,1-1.25-1.58,1.18,1.18,0,0,1,0-.15Z"/><path class="cls-27" d="M84.54,64.21c2.64,0,4.78,1,4.78,2.34s-2.14,2.34-4.78,2.34h-.13l.82-.86,2-2.11a38.13,38.13,0,0,1-4.56-1.52,9.25,9.25,0,0,1,1.85-.18ZM81,68.1a1.93,1.93,0,0,1-1.2-1.55,1.17,1.17,0,0,1,0-.12Z"/><path class="cls-28" d="M84.52,64.25c2.61,0,4.73,1,4.73,2.31s-2.12,2.31-4.73,2.31h-.09l.81-.84,2-2.11a38.19,38.19,0,0,1-4.5-1.5,9.16,9.16,0,0,1,1.78-.17Zm-3.58,3.82a1.88,1.88,0,0,1-1.14-1.51s0-.06,0-.09Z"/><path class="cls-28" d="M84.5,64.29c2.58,0,4.67,1,4.67,2.29s-2.09,2.28-4.67,2.28h-.06l.79-.83,2-2.11a38.22,38.22,0,0,1-4.45-1.48,9.12,9.12,0,0,1,1.7-.16ZM80.92,68a1.84,1.84,0,0,1-1.09-1.47s0,0,0-.06Z"/><path class="cls-29" d="M84.48,64.32c2.55,0,4.62,1,4.62,2.26S87,68.84,84.48,68.84h0l.78-.81,2-2.11a38.34,38.34,0,0,1-4.39-1.45,9,9,0,0,1,1.62-.14ZM80.9,68a1.79,1.79,0,0,1-1-1.43v0Z"/><path class="cls-30" d="M84.46,64.36c2.52,0,4.57,1,4.57,2.23s-2,2.23-4.55,2.23l.77-.8,2-2.11a38.32,38.32,0,0,1-4.33-1.43,9,9,0,0,1,1.54-.13ZM80.87,68a1.74,1.74,0,0,1-1-1.38Z"/><path class="cls-107" d="M84.44,64.39c2.49,0,4.52,1,4.52,2.21s-2,2.19-4.47,2.21l.75-.78,2-2.11A38.36,38.36,0,0,1,83,64.51a8.9,8.9,0,0,1,1.46-.12Zm-3.59,3.55a1.72,1.72,0,0,1-.93-1.3Z"/><path class="cls-107" d="M84.42,64.43c2.46,0,4.46,1,4.46,2.18s-2,2.16-4.38,2.18l.74-.76,2-2.11A38.39,38.39,0,0,1,83,64.54a8.83,8.83,0,0,1,1.37-.11Zm-3.59,3.48A1.69,1.69,0,0,1,80,66.69Z"/><path class="cls-31" d="M84.39,64.47c2.44,0,4.41,1,4.41,2.16s-1.91,2.12-4.29,2.15l.72-.75,2-2.11a38.42,38.42,0,0,1-4.14-1.36,8.76,8.76,0,0,1,1.29-.09ZM80.8,67.87A1.67,1.67,0,0,1,80,66.74Z"/><path class="cls-32" d="M84.37,64.5c2.41,0,4.36,1,4.36,2.13s-1.87,2.09-4.2,2.13l.7-.73,2-2.11a38.47,38.47,0,0,1-4.08-1.33,8.68,8.68,0,0,1,1.21-.08Zm-3.6,3.33a1.64,1.64,0,0,1-.74-1Z"/><path class="cls-33" d="M84.35,64.54c2.38,0,4.3.94,4.3,2.1s-1.82,2.05-4.11,2.1l.69-.72,2-2.11a38.53,38.53,0,0,1-4-1.31,8.59,8.59,0,0,1,1.12-.07Zm-3.61,3.25a1.62,1.62,0,0,1-.67-.95Z"/><path class="cls-33" d="M84.33,64.58c2.35,0,4.25.93,4.25,2.08s-1.78,2-4,2.08l.67-.7,2-2.11a38.57,38.57,0,0,1-3.95-1.28,8.52,8.52,0,0,1,1-.06Zm-3.62,3.17a1.59,1.59,0,0,1-.6-.84Z"/><path class="cls-34" d="M84.31,64.61c2.32,0,4.2.92,4.2,2.05s-1.74,2-3.93,2l.66-.68,2-2.11a38.66,38.66,0,0,1-3.88-1.26,8.42,8.42,0,0,1,.94-.05Zm-3.64,3.08a1.57,1.57,0,0,1-.51-.72Z"/><path class="cls-35" d="M84.29,64.65c2.29,0,4.15.91,4.15,2s-1.69,1.94-3.84,2l.64-.67,2-2.11a38.73,38.73,0,0,1-3.81-1.23,8.37,8.37,0,0,1,.85,0Zm-3.66,3a1.55,1.55,0,0,1-.41-.58Z"/><path class="cls-36" d="M84.27,64.68c2.26,0,4.09.9,4.09,2s-1.65,1.91-3.75,2l.63-.65,2-2.11a38.76,38.76,0,0,1-3.74-1.2c.24,0,.5,0,.75,0Zm-3.71,2.85a1.52,1.52,0,0,1-.28-.39Z"/><path class="cls-92" d="M84.24,64.72c2.23,0,4,.88,4,2s-1.6,1.87-3.66,2l.61-.63,2-2.11c-1.33-.35-2.54-.75-3.66-1.17Z"/><path class="cls-37" d="M84.22,64.76c2.2,0,4,.87,4,1.95s-1.56,1.84-3.56,1.94l.59-.62,2-2.11c-1.29-.35-2.49-.73-3.58-1.14Z"/><path class="cls-37" d="M84.2,64.79c2.17,0,3.93.86,3.93,1.92s-1.52,1.8-3.47,1.91l.58-.6,2-2.11c-1.26-.34-2.43-.71-3.5-1.11Z"/><path class="cls-38" d="M84.18,64.83c2.14,0,3.88.85,3.88,1.9s-1.47,1.76-3.38,1.88l.56-.58,2-2.11c-1.23-.33-2.37-.69-3.42-1.08Z"/><path class="cls-39" d="M84.16,64.87c2.11,0,3.83.84,3.83,1.87s-1.43,1.73-3.29,1.85l.54-.56,2-2.11c-1.2-.32-2.3-.67-3.33-1Z"/><path class="cls-40" d="M84.14,64.9c2.09,0,3.78.83,3.78,1.85s-1.39,1.69-3.2,1.82l.52-.54,2-2.11c-1.16-.31-2.24-.65-3.24-1Z"/><path class="cls-41" d="M84.12,64.94c2.06,0,3.72.81,3.72,1.82s-1.34,1.65-3.11,1.8l.5-.53,2-2.11c-1.12-.3-2.17-.63-3.14-1Z"/><path class="cls-93" d="M84.21,65c2,0,3.55.82,3.55,1.79s-1.3,1.61-3,1.77l.49-.51,2-2.11C86.16,65.63,85.15,65.31,84.21,65Z"/><path class="cls-93" d="M84.32,65a4.86,4.86,0,0,1,2.91.9c-1-.28-2-.58-2.91-.9Zm2.92.91a1.16,1.16,0,0,1,.45.85c0,.86-1.26,1.58-2.92,1.74l.47-.49Z"/><path class="cls-42" d="M84.44,65.06a4.83,4.83,0,0,1,2.64.82c-.93-.25-1.81-.53-2.64-.82ZM87.2,66a1.12,1.12,0,0,1,.42.82c0,.84-1.21,1.54-2.83,1.71l.45-.47Z"/><path class="cls-43" d="M84.58,65.1a4.8,4.8,0,0,1,2.36.73q-1.24-.34-2.36-.73Zm2.58.91a1.09,1.09,0,0,1,.39.78c0,.82-1.17,1.5-2.73,1.67l.43-.45Z"/><path class="cls-44" d="M84.73,65.16a4.77,4.77,0,0,1,2,.63q-1.06-.3-2-.63Zm2.38.91a1.06,1.06,0,0,1,.36.75c0,.8-1.12,1.46-2.64,1.64l.41-.43Z"/><path class="cls-45" d="M84.91,65.22a4.74,4.74,0,0,1,1.64.51q-.85-.24-1.64-.51Zm2.15.89a1,1,0,0,1,.33.71c0,.77-1.08,1.42-2.54,1.61l.39-.4Z"/><path class="cls-46" d="M85.16,65.3a4.7,4.7,0,0,1,1.14.35l-1.14-.35Zm1.87.86a1,1,0,0,1,.3.68c0,.75-1,1.39-2.45,1.58l.37-.38Z"/><path class="cls-46" d="M87,66.21a1,1,0,0,1,.27.64c0,.73-1,1.35-2.35,1.55l.35-.36Z"/><path class="cls-94" d="M86.93,66.25a.93.93,0,0,1,.24.6c0,.71-.95,1.31-2.26,1.51l.32-.34Z"/><path class="cls-47" d="M86.88,66.3a.9.9,0,0,1,.21.56c0,.69-.9,1.27-2.16,1.48l.3-.31Z"/><path class="cls-48" d="M86.84,66.35a.87.87,0,0,1,.19.52c0,.66-.86,1.23-2.06,1.44l.28-.29Z"/><path class="cls-49" d="M86.79,66.4a.84.84,0,0,1,.16.48c0,.64-.81,1.19-2,1.41l.25-.26Z"/><path class="cls-50" d="M86.74,66.46a.81.81,0,0,1,.13.44c0,.62-.77,1.15-1.86,1.37l.23-.24Z"/><path class="cls-50" d="M86.69,66.51a.79.79,0,0,1,.11.4c0,.59-.72,1.1-1.76,1.33l.2-.21Z"/><path class="cls-51" d="M86.64,66.56a.76.76,0,0,1,.09.35c0,.57-.68,1.06-1.66,1.29l.17-.18Z"/><path class="cls-52" d="M86.58,66.62a.74.74,0,0,1,.07.31c0,.54-.63,1-1.56,1.25l.14-.15Z"/><path class="cls-24" d="M87.21,62.68a12.36,12.36,0,0,1,1.72.33L88.8,64.1q-.82-.21-1.59-.45v-1Zm0,6.8v0l1.91-2,1.19,1.22a11,11,0,0,1-3.09.8Zm0-3.52v0h0l0,0Zm4.37-1.73a3.66,3.66,0,0,1,.56.53l-.61-.1,0-.43Zm.89,2.66v0l0,0Zm-6.69-4.3a14.25,14.25,0,0,1,1.43.1v1q-.74-.23-1.43-.47v-.6Zm1.43,3.33v0l-1.43,1.5v-2l1.43.41Zm0,3.53v0h0Zm-1.7-6.86h.27v.6q-.76-.27-1.47-.55c.39,0,.79,0,1.19,0Zm.27,2.92v2l-.54.57-1.4,1.45A12,12,0,0,1,81.62,69L78.72,65a4.64,4.64,0,0,1,2-1.46A35.82,35.82,0,0,0,85.78,65.5Z"/><path class="cls-25" d="M87.22,62.72a12.21,12.21,0,0,1,1.7.33l-.12,1q-.82-.21-1.58-.45v-.93Zm0,6.74v0l1.9-2,1.16,1.2a10.8,10.8,0,0,1-3.06.81Zm0-3.51v0h0l0,0Zm4.35-1.65a3.62,3.62,0,0,1,.47.45l-.51-.08Zm-5.75-1.68c.48,0,1,0,1.4.1v.93q-.73-.22-1.4-.46v-.57Zm1.4,3.29v0l-1.4,1.48V65.51l1.4.4Zm0,3.52v0h0Zm-1.74-6.82h.33v.57q-.74-.26-1.43-.54.54,0,1.1,0Zm.33,2.89v1.92l-.58.6-1.39,1.44A11.9,11.9,0,0,1,81.6,69l-2.86-4a4.61,4.61,0,0,1,2-1.47A35.85,35.85,0,0,0,85.82,65.51Z"/><path class="cls-91" d="M87.23,62.76a12.09,12.09,0,0,1,1.69.33l-.12,1q-.81-.21-1.57-.44v-.89Zm0,6.68h0l1.89-2,1.14,1.17a10.63,10.63,0,0,1-3,.81Zm0-3.5v0h0l0,0Zm4.33-1.57a3.55,3.55,0,0,1,.37.36l-.41-.07Zm-5.71-1.71c.47,0,.93,0,1.38.1v.89q-.71-.22-1.38-.45v-.55Zm1.38,3.26v0l-1.38,1.45V65.52l1.38.4Zm0,3.51h0Zm-1.77-6.77h.39v.55q-.72-.25-1.39-.52.49,0,1,0Zm.39,2.87v1.86l-.62.64-1.37,1.43A11.79,11.79,0,0,1,81.59,69l-2.83-4a4.58,4.58,0,0,1,2-1.48A35.9,35.9,0,0,0,85.85,65.52Z"/><path class="cls-26" d="M87.24,62.8a11.93,11.93,0,0,1,1.67.34l-.11,1q-.81-.21-1.56-.44V62.8Zm0,6.61h0l1.88-2,1.12,1.15a10.48,10.48,0,0,1-3,.81Zm0-3.49h0Zm4.31-1.48.28.27-.3-.05ZM85.89,62.7c.46,0,.92.05,1.35.11v.86l-1.35-.44V62.7Zm1.35,3.22h0l-1.35,1.42V65.53l1.35.39Zm0,3.49h0Zm-1.8-6.72h.45v.52q-.7-.24-1.36-.5l.91,0Zm.45,2.84v1.81l-.65.68-1.36,1.42a11.68,11.68,0,0,1-2.3-.48l-2.79-3.91a4.55,4.55,0,0,1,2-1.5A35.91,35.91,0,0,0,85.89,65.53Z"/><path class="cls-27" d="M85.93,62.73a12.6,12.6,0,0,1,3,.45l-.11.91c-1-.26-2-.56-2.87-.87v-.5Zm0,4.57V65.54l1.32.38L85.93,67.3Zm5.61-2.79.18.18-.2,0,0-.14Zm-1.33,4.06a10.31,10.31,0,0,1-3,.82l1.86-1.94Zm-4.79-5.85h.51v.5q-.68-.24-1.32-.48l.81,0Zm.51,2.82V67.3l-.69.72-1.35,1.4a11.6,11.6,0,0,1-2.32-.49l-2.76-3.87a4.52,4.52,0,0,1,2-1.51A36,36,0,0,0,85.93,65.54Z"/><path class="cls-27" d="M86,62.77a12.45,12.45,0,0,1,2.93.46l-.1.87c-1-.26-1.95-.55-2.83-.85v-.47Zm0,4.49V65.56l1.28.36L86,67.26Zm5.57-2.67.08.08-.09,0V64.6Zm-1.35,4a10.14,10.14,0,0,1-2.91.82l1.84-1.92ZM85.4,62.76H86v.47l-1.28-.47.71,0ZM86,65.56v1.71l-.73.77L83.9,69.42a11.53,11.53,0,0,1-2.34-.49l-2.72-3.82a4.49,4.49,0,0,1,2-1.52A36,36,0,0,0,86,65.56Z"/><path class="cls-28" d="M86,62.81a12.27,12.27,0,0,1,2.89.46l-.1.82c-1-.26-1.92-.54-2.79-.84v-.45Zm0,4.41V65.57l1.24.35L86,67.22Zm4.15,1.31a10,10,0,0,1-2.86.82l1.82-1.9ZM85.38,62.8H86v.45l-1.24-.45ZM86,65.57v1.65l-.77.81-1.33,1.38a11.43,11.43,0,0,1-2.37-.5l-2.69-3.77a4.47,4.47,0,0,1,2.06-1.53A36.12,36.12,0,0,0,86,65.57Z"/><path class="cls-29" d="M86.05,62.85a12.1,12.1,0,0,1,2.84.47l-.09.78c-1-.25-1.89-.53-2.75-.82v-.42Zm0,4.32v-1.6l1.19.34-1.19,1.26Zm4.09,1.33a9.81,9.81,0,0,1-2.82.82l1.8-1.87Zm-4.78-5.67.7,0v.42l-1.19-.43Zm.7,2.75v1.6l-.82.85L83.92,69.4a11.32,11.32,0,0,1-2.39-.5l-2.66-3.72a4.44,4.44,0,0,1,2.08-1.54A36.18,36.18,0,0,0,86.05,65.58Z"/><path class="cls-30" d="M86.1,62.89a11.9,11.9,0,0,1,2.79.47l-.09.73c-1-.25-1.86-.52-2.71-.81v-.4Zm0,4.24V65.59l1.15.33L86.1,67.13Zm4,1.35a9.63,9.63,0,0,1-2.77.83l1.78-1.85Zm-4.78-5.61.76,0v.4l-1.15-.41Zm.76,2.72v1.54l-.86.9-1.3,1.36a11.23,11.23,0,0,1-2.42-.51L78.89,65.2A4.41,4.41,0,0,1,81,63.65,36.2,36.2,0,0,0,86.1,65.59Z"/><path class="cls-107" d="M86.14,62.93a11.73,11.73,0,0,1,2.74.48l-.08.69c-.94-.24-1.83-.51-2.66-.79v-.37Zm0,4.15V65.61l1.11.31-1.11,1.16Zm4,1.37a9.46,9.46,0,0,1-2.73.83l1.75-1.83Zm-4.78-5.55.83,0v.37L85,62.91Zm.83,2.7v1.48l-.9.95-1.29,1.34a11.15,11.15,0,0,1-2.44-.51l-2.59-3.63A4.38,4.38,0,0,1,81,63.67,36.29,36.29,0,0,0,86.14,65.61Z"/><path class="cls-31" d="M86.19,63a11.54,11.54,0,0,1,2.69.49l-.08.64c-.92-.24-1.8-.5-2.62-.78V63Zm0,4.06V65.62l1.06.3L86.19,67Zm3.88,1.4a9.28,9.28,0,0,1-2.68.83l1.73-1.8Zm-4.78-5.49.9,0v.35l-1.06-.38Zm.9,2.68V67l-1,1L84,69.36a11,11,0,0,1-2.47-.52l-2.55-3.58a4.35,4.35,0,0,1,2.13-1.57A36.34,36.34,0,0,0,86.19,65.62Z"/><path class="cls-32" d="M86.23,63a11.37,11.37,0,0,1,2.64.49l-.07.59c-.91-.23-1.76-.49-2.57-.76V63Zm0,4V65.63l1,.28-1,1.07ZM90,68.41a9.1,9.1,0,0,1-2.63.83l1.71-1.78ZM85.27,63q.49,0,1,0v.32l-1-.36Zm1,2.66V67l-1,1L84,69.35a11,11,0,0,1-2.49-.53L79,65.29a4.32,4.32,0,0,1,2.15-1.59A36.38,36.38,0,0,0,86.23,65.63Z"/><path class="cls-33" d="M86.28,63.06a11.19,11.19,0,0,1,2.58.5l-.06.55q-1.33-.34-2.52-.74v-.3Zm0,3.88V65.65l1,.27-1,1ZM90,68.38a8.92,8.92,0,0,1-2.58.83l1.68-1.75ZM85.32,63c.33,0,.65,0,1,0v.3l-1-.34Zm1,2.63v1.28l-1,1.1L84,69.33a10.86,10.86,0,0,1-2.52-.53L79,65.32a4.29,4.29,0,0,1,2.17-1.6A36.44,36.44,0,0,0,86.28,65.65Z"/><path class="cls-34" d="M86.34,63.1a11,11,0,0,1,2.53.5l-.06.5q-1.3-.34-2.47-.73V63.1Zm0,3.78V65.66l.91.26-.91,1ZM90,68.35a8.74,8.74,0,0,1-2.53.83l1.66-1.73Zm-4.57-5.3q.46,0,.91,0v.27l-.91-.32Zm.91,2.61v1.22L85.24,68,84,69.32a10.77,10.77,0,0,1-2.55-.54L79,65.35a4.26,4.26,0,0,1,2.19-1.61A36.46,36.46,0,0,0,86.34,65.66Z"/><path class="cls-34" d="M86.39,63.14a10.79,10.79,0,0,1,2.47.5l-.05.45q-1.27-.33-2.41-.71v-.25Zm0,3.68V65.68l.86.24-.86.9ZM90,68.33a8.56,8.56,0,0,1-2.48.83l1.63-1.7Zm-4.44-5.24.86,0v.25l-.86-.3Zm.86,2.59v1.14L85.24,68,84,69.31a10.67,10.67,0,0,1-2.57-.54L79,65.38a4.23,4.23,0,0,1,2.21-1.62A36.53,36.53,0,0,0,86.39,65.68Z"/><path class="cls-35" d="M86.45,63.19a10.6,10.6,0,0,1,2.41.51l0,.41q-1.24-.32-2.36-.69v-.22Zm0,3.58V65.7l.8.22-.8.84Zm3.5,1.54a8.38,8.38,0,0,1-2.43.83l1.61-1.68Zm-4.3-5.17.8.05v.22l-.8-.27Zm.8,2.56v1.07L85.24,68,84,69.3a10.58,10.58,0,0,1-2.6-.55L79,65.41a4.2,4.2,0,0,1,2.23-1.63A36.6,36.6,0,0,0,86.45,65.7Z"/><path class="cls-36" d="M86.51,63.23a10.42,10.42,0,0,1,2.34.51l0,.36q-1.21-.31-2.3-.67v-.2Zm0,3.47v-1l.74.21-.74.78Zm3.41,1.57a8.2,8.2,0,0,1-2.38.83l1.58-1.65Zm-4.15-5.1.74.06v.2l-.74-.25Zm.74,2.54v1L85.24,68,84,69.28a10.47,10.47,0,0,1-2.62-.56l-2.34-3.28a4.17,4.17,0,0,1,2.25-1.64A36.69,36.69,0,0,0,86.51,65.71Z"/><path class="cls-92" d="M86.57,63.28a10.2,10.2,0,0,1,2.27.51l0,.31q-1.17-.3-2.23-.65v-.17Zm0,3.36v-.9l.68.19-.68.72Zm3.32,1.61a8,8,0,0,1-2.33.83l1.56-1.62Zm-4-5,.68.06v.17l-.68-.23Zm.68,2.51v.9L85.24,68,84,69.27a10.4,10.4,0,0,1-2.65-.56l-2.31-3.23a4.15,4.15,0,0,1,2.27-1.66A36.74,36.74,0,0,0,86.57,65.73Z"/><path class="cls-37" d="M86.64,63.32a10,10,0,0,1,2.2.51l0,.26q-1.14-.29-2.17-.63v-.14Zm0,3.24v-.81l.61.17-.61.64Zm3.23,1.66a7.83,7.83,0,0,1-2.28.83l1.53-1.6Zm-3.84-5,.61.06v.14l-.61-.2Zm.61,2.49v.81L85.24,68l-1.18,1.23a10.3,10.3,0,0,1-2.67-.57l-2.27-3.18a4.12,4.12,0,0,1,2.29-1.67A36.82,36.82,0,0,0,86.64,65.75Z"/><path class="cls-38" d="M86.71,63.37a9.77,9.77,0,0,1,2.12.51l0,.21q-1.1-.28-2.09-.61v-.12Zm0,3.11v-.72l.54.15-.54.57Zm3.13,1.71a7.63,7.63,0,0,1-2.22.83l1.5-1.57Zm-3.67-4.88.54.06v.12l-.54-.18Zm.54,2.46v.72L85.24,68l-1.17,1.22a10.19,10.19,0,0,1-2.7-.57l-2.23-3.13a4.09,4.09,0,0,1,2.31-1.68A36.9,36.9,0,0,0,86.71,65.77Z"/><path class="cls-39" d="M86.79,63.43a9.54,9.54,0,0,1,2,.51l0,.16q-1.05-.27-2-.58v-.09Zm0,3v-.61l.46.13-.46.48Zm3,1.77a7.45,7.45,0,0,1-2.17.83l1.48-1.54Zm-3.48-4.8.46.06v.09l-.46-.15Zm.46,2.43v.61L85.24,68l-1.16,1.2a10.09,10.09,0,0,1-2.73-.58l-2.2-3.08a4.06,4.06,0,0,1,2.33-1.69A37,37,0,0,0,86.79,65.79Z"/><path class="cls-40" d="M86.88,63.48a9.29,9.29,0,0,1,1.94.5v.11q-1-.26-1.92-.55v-.07Zm0,2.83v-.49l.37.1-.37.39Zm2.91,1.83a7.26,7.26,0,0,1-2.11.82l1.45-1.51Zm-3.27-4.71.37.05v.07l-.37-.12Zm.37,2.39v.49L85.24,68l-1.14,1.19a10,10,0,0,1-2.75-.59l-2.16-3a4,4,0,0,1,2.35-1.7A37.07,37.07,0,0,0,86.88,65.82Z"/><path class="cls-41" d="M87,63.54a9,9,0,0,1,1.83.5v.07q-.95-.24-1.82-.52v0Zm0,2.66v-.35l.26.07L87,66.2Zm2.78,1.92a7.07,7.07,0,0,1-2.06.82l1.42-1.48Zm-3-4.62.26,0v0l-.26-.08ZM87,65.85v.35L85.24,68,84.11,69.2a9.9,9.9,0,0,1-2.78-.59l-2.13-3a4,4,0,0,1,2.37-1.72A37.15,37.15,0,0,0,87,65.85Z"/><path class="cls-41" d="M87.11,63.6a8.78,8.78,0,0,1,1.69.48v0q-.88-.23-1.69-.48v0Zm0,2.46v-.18l.13,0-.13.14Zm2.62,2a6.87,6.87,0,0,1-2,.82l1.39-1.45ZM87,63.58l.13,0v0l-.13,0Zm.13,2.31v.18l-1.88,2-1.12,1.16a9.82,9.82,0,0,1-2.81-.6l-2.09-2.93a4,4,0,0,1,2.39-1.73A37.23,37.23,0,0,0,87.11,65.88Z"/><path class="cls-93" d="M87.34,63.69a8.74,8.74,0,0,1,1.17.33l-1.17-.33Zm2.36,4.37a6.68,6.68,0,0,1-1.94.81l1.36-1.42.58.6Zm-5.57,1.12a9.72,9.72,0,0,1-2.83-.61L79.25,65.7A3.94,3.94,0,0,1,81.66,64a37.37,37.37,0,0,0,5.59,2l-2,2.11Z"/><path class="cls-42" d="M89.68,68a6.5,6.5,0,0,1-1.88.81l1.32-1.38.56.57Zm-5.53,1.14a9.61,9.61,0,0,1-2.86-.61l-2-2.82A3.91,3.91,0,0,1,81.7,64a37.4,37.4,0,0,0,5.54,1.94l-2,2.11Z"/><path class="cls-43" d="M89.65,68a6.29,6.29,0,0,1-1.82.8l1.29-1.35.53.54Zm-5.49,1.15a9.53,9.53,0,0,1-2.89-.62l-2-2.77A3.88,3.88,0,0,1,81.75,64a37.45,37.45,0,0,0,5.5,1.92l-2,2.11Z"/><path class="cls-44" d="M89.62,68a6.08,6.08,0,0,1-1.76.8l1.26-1.31.5.51Zm-5.45,1.17a9.42,9.42,0,0,1-2.91-.63l-1.94-2.72A3.85,3.85,0,0,1,81.79,64a37.47,37.47,0,0,0,5.45,1.9l-2,2.11Z"/><path class="cls-45" d="M89.59,67.94a5.89,5.89,0,0,1-1.69.79l1.22-1.28.47.49Zm-5.41,1.18a9.32,9.32,0,0,1-2.94-.63l-1.9-2.67A3.82,3.82,0,0,1,81.84,64a37.54,37.54,0,0,0,5.41,1.88l-2,2.11Z"/><path class="cls-46" d="M89.56,67.91a5.68,5.68,0,0,1-1.63.78l1.19-1.24.44.46Zm-5.37,1.2a9.22,9.22,0,0,1-3-.64l-1.86-2.61a3.78,3.78,0,0,1,2.52-1.8,37.56,37.56,0,0,0,5.36,1.86l-2,2.11Z"/><path class="cls-94" d="M89.53,67.88a5.48,5.48,0,0,1-1.56.77l1.15-1.2.41.42ZM84.21,69.1a9.13,9.13,0,0,1-3-.65l-1.83-2.56a3.75,3.75,0,0,1,2.55-1.82,37.59,37.59,0,0,0,5.32,1.84l-2,2.11Z"/><path class="cls-47" d="M89.5,67.85a5.27,5.27,0,0,1-1.49.76l1.11-1.16.38.39Zm-5.28,1.24a9,9,0,0,1-3-.66l-1.79-2.5A3.72,3.72,0,0,1,82,64.1a37.64,37.64,0,0,0,5.27,1.82l-2,2.11Z"/><path class="cls-47" d="M89.47,67.82a5,5,0,0,1-1.42.75l1.07-1.11.35.36Zm-5.24,1.25a8.92,8.92,0,0,1-3.05-.66L79.43,66A3.69,3.69,0,0,1,82,64.12a37.66,37.66,0,0,0,5.22,1.8l-2,2.11Z"/><path class="cls-48" d="M89.44,67.79a4.85,4.85,0,0,1-1.34.74l1-1.07.32.33Zm-5.19,1.27a8.82,8.82,0,0,1-3.08-.67L79.46,66a3.66,3.66,0,0,1,2.62-1.85,37.68,37.68,0,0,0,5.17,1.78l-2,2.11Z"/><path class="cls-49" d="M89.41,67.75a4.63,4.63,0,0,1-1.27.72l1-1,.29.3ZM84.26,69a8.73,8.73,0,0,1-3.11-.68L79.48,66a3.63,3.63,0,0,1,2.64-1.87,37.72,37.72,0,0,0,5.13,1.76l-2,2.11Z"/><path class="cls-50" d="M89.38,67.72a4.4,4.4,0,0,1-1.18.7l.93-1,.26.27ZM84.28,69a8.62,8.62,0,0,1-3.14-.69l-1.63-2.28c.25-.81,1.26-1.5,2.66-1.88a37.73,37.73,0,0,0,5.08,1.74l-2,2.11Z"/><path class="cls-51" d="M89.35,67.69a4.18,4.18,0,0,1-1.1.68l.87-.91.23.23ZM84.29,69a8.51,8.51,0,0,1-3.17-.7L79.53,66.1c.24-.82,1.26-1.51,2.69-1.9a37.77,37.77,0,0,0,5,1.72l-2,2.11Z"/><path class="cls-52" d="M89.31,67.66a3.94,3.94,0,0,1-1,.65l.81-.85.19.2ZM84.3,69a8.41,8.41,0,0,1-3.2-.71l-1.54-2.17c.22-.83,1.26-1.53,2.71-1.91a37.84,37.84,0,0,0,5,1.7l-2,2.11Z"/><path class="cls-95" d="M89.28,67.62a3.71,3.71,0,0,1-.91.62l.75-.78.16.17Zm-5,1.37a8.31,8.31,0,0,1-3.23-.71l-1.5-2.11c.21-.84,1.27-1.55,2.74-1.92a37.86,37.86,0,0,0,4.93,1.68l-2,2.11Z"/><path class="cls-53" d="M89.25,67.59a3.47,3.47,0,0,1-.8.58l.68-.71.13.13ZM84.33,69a8.2,8.2,0,0,1-3.26-.72l-1.46-2c.2-.85,1.27-1.57,2.76-1.94a37.87,37.87,0,0,0,4.88,1.66l-2,2.11Z"/><path class="cls-54" d="M89.21,67.55a3.21,3.21,0,0,1-.68.52l.59-.62.09.09ZM84.34,69a8.09,8.09,0,0,1-3.29-.73l-1.42-2c.18-.86,1.27-1.59,2.79-2a37.92,37.92,0,0,0,4.83,1.63l-2,2.11Z"/><path class="cls-54" d="M89.18,67.51a2.93,2.93,0,0,1-.54.45l.49-.51.06.06Zm-4.82,1.43A8,8,0,0,1,81,68.2l-1.37-1.92c.17-.87,1.27-1.61,2.81-2a38,38,0,0,0,4.77,1.61l-2,2.11Z"/><path class="cls-55" d="M89.14,67.48a2.61,2.61,0,0,1-.35.33l.33-.35,0,0Zm-4.77,1.45A7.88,7.88,0,0,1,81,68.18l-1.33-1.86c.15-.88,1.27-1.63,2.84-2a38,38,0,0,0,4.72,1.59l-2,2.11Z"/><path class="cls-56" d="M84.39,68.92A7.77,7.77,0,0,1,81,68.15l-1.28-1.8c.13-.89,1.27-1.65,2.87-2a38,38,0,0,0,4.67,1.57l-2,2.11Z"/><path class="cls-57" d="M84.4,68.9A7.66,7.66,0,0,1,81,68.12l-1.24-1.73c.12-.9,1.27-1.67,2.89-2a38.09,38.09,0,0,0,4.61,1.55l-2,2.11Z"/><path class="cls-96" d="M84.41,68.89A7.55,7.55,0,0,1,81,68.1l-1.19-1.67c.1-.92,1.27-1.69,2.92-2a38.13,38.13,0,0,0,4.56,1.52l-2,2.11Z"/><path class="cls-58" d="M84.43,68.87a7.44,7.44,0,0,1-3.49-.8l-1.14-1.6c.07-.93,1.27-1.72,2.95-2.05a38.19,38.19,0,0,0,4.5,1.5l-2,2.11Z"/><path class="cls-59" d="M84.44,68.86A7.32,7.32,0,0,1,80.92,68l-1.09-1.53c.05-.94,1.27-1.74,3-2.07a38.22,38.22,0,0,0,4.45,1.48l-2,2.11Z"/><path class="cls-60" d="M84.46,68.84A7.2,7.2,0,0,1,80.9,68l-1-1.45c0-1,1.26-1.77,3-2.09a38.34,38.34,0,0,0,4.39,1.45l-2,2.11Z"/><path class="cls-61" d="M84.47,68.83h0A7.07,7.07,0,0,1,80.87,68l-1-1.38h0c0-1,1.26-1.79,3-2.1a38.32,38.32,0,0,0,4.33,1.43l-2,2.11Z"/><path class="cls-61" d="M84.49,68.81h-.05a6.92,6.92,0,0,1-3.59-.87l-.93-1.3v0c0-1,1.28-1.79,3.06-2.09a38.36,38.36,0,0,0,4.27,1.41l-2,2.11Z"/><path class="cls-62" d="M84.5,68.79h-.09a6.77,6.77,0,0,1-3.59-.89L80,66.69s0-.05,0-.08c0-1,1.3-1.79,3.09-2.08a38.39,38.39,0,0,0,4.21,1.38l-2,2.11Z"/><path class="cls-63" d="M84.52,68.78h-.12a6.61,6.61,0,0,1-3.59-.91L80,66.74a1.09,1.09,0,0,1,0-.11c0-1,1.31-1.79,3.12-2.06a38.42,38.42,0,0,0,4.14,1.36l-2,2.11Z"/><path class="cls-102" d="M84.53,68.76h-.16a6.45,6.45,0,0,1-3.6-.93l-.74-1a1,1,0,0,1,0-.16c0-1,1.33-1.79,3.15-2a38.47,38.47,0,0,0,4.08,1.33l-2,2.11Z"/><path class="cls-64" d="M84.55,68.75h-.2a6.28,6.28,0,0,1-3.61-1l-.67-.95a1.05,1.05,0,0,1,0-.2c0-1,1.35-1.79,3.18-2a38.53,38.53,0,0,0,4,1.31l-2,2.11Z"/><path class="cls-65" d="M84.56,68.73h-.23a6.09,6.09,0,0,1-3.62-1l-.6-.84a1,1,0,0,1,0-.25c0-1,1.37-1.79,3.22-2a38.57,38.57,0,0,0,3.95,1.28l-2,2.11Z"/><path class="cls-66" d="M84.58,68.71h-.27a5.9,5.9,0,0,1-3.64-1L80.16,67a1,1,0,0,1,0-.3c0-1,1.39-1.79,3.26-2a38.66,38.66,0,0,0,3.88,1.26l-2,2.11Z"/><path class="cls-67" d="M84.6,68.7h-.31a5.68,5.68,0,0,1-3.66-1.08L80.21,67a1,1,0,0,1-.07-.37c0-1,1.41-1.79,3.3-2a38.73,38.73,0,0,0,3.81,1.23l-2,2.11Z"/><path class="cls-68" d="M84.61,68.68h-.35a5.41,5.41,0,0,1-3.71-1.15l-.28-.39a1.05,1.05,0,0,1-.11-.46c0-1,1.44-1.79,3.34-2a38.76,38.76,0,0,0,3.74,1.2l-2,2.11Z"/><path class="cls-68" d="M84.63,68.66h-.38c-2.23,0-4-.88-4-2s1.46-1.8,3.38-1.95c1.12.42,2.34.82,3.66,1.17l-2,2.11Z"/><path class="cls-97" d="M84.64,68.65h-.42c-2.2,0-4-.87-4-1.95s1.49-1.8,3.43-1.93c1.1.41,2.29.8,3.58,1.14l-2,2.11Z"/><path class="cls-69" d="M84.66,68.63H84.2c-2.17,0-3.93-.86-3.93-1.92s1.52-1.8,3.48-1.91c1.07.4,2.24.78,3.5,1.11l-2,2.11Z"/><path class="cls-70" d="M84.68,68.61l-.5,0c-2.14,0-3.88-.85-3.88-1.9s1.55-1.8,3.53-1.89c1.05.39,2.19.75,3.42,1.08l-2,2.11Z"/><path class="cls-71" d="M84.7,68.59l-.54,0c-2.11,0-3.83-.84-3.83-1.87s1.58-1.81,3.59-1.87c1,.38,2.14.73,3.33,1l-2,2.11Z"/><path class="cls-72" d="M84.71,68.57l-.58,0c-2.09,0-3.78-.83-3.78-1.85S82,64.94,84,64.9c1,.36,2.08.71,3.24,1l-2,2.11Z"/><path class="cls-73" d="M84.73,68.55l-.62,0c-2.06,0-3.72-.81-3.72-1.82s1.66-1.82,3.71-1.82c1,.35,2,.68,3.14,1l-2,2.11Z"/><path class="cls-98" d="M84.09,65h.12c.94.34,2,.65,3,.94l-2,2.11-.49.51-.66,0c-2,0-3.67-.8-3.67-1.79S82.07,65,84.09,65Z"/><path class="cls-74" d="M84.07,65h.25c.91.32,1.87.62,2.91.9h0l-2,2.1-.47.49c-.23,0-.46,0-.7,0-2,0-3.62-.79-3.62-1.77S82.08,65,84.07,65Z"/><path class="cls-74" d="M84.05,65h.39c.83.29,1.71.56,2.64.82l.11.1-2,2.06-.45.47a7.22,7.22,0,0,1-.74,0c-2,0-3.56-.78-3.56-1.74S82.08,65,84.05,65Z"/><path class="cls-75" d="M84,65.08l.55,0q1.12.38,2.36.73l.22.18-1.92,2-.43.45a7.11,7.11,0,0,1-.78,0c-1.94,0-3.51-.77-3.51-1.72S82.09,65.08,84,65.08Z"/><path class="cls-76" d="M84,65.12a7,7,0,0,1,.72,0q1,.33,2,.63a2.15,2.15,0,0,1,.35.28l-1.87,2-.41.43a6.92,6.92,0,0,1-.82,0c-1.91,0-3.46-.76-3.46-1.69S82.1,65.12,84,65.12Z"/><path class="cls-77" d="M84,65.16a6.83,6.83,0,0,1,.92.06q.79.26,1.64.51a2.23,2.23,0,0,1,.51.38L85.24,68l-.39.4a6.82,6.82,0,0,1-.86.05c-1.88,0-3.41-.75-3.41-1.67S82.11,65.16,84,65.16Z"/><path class="cls-78" d="M84,65.19a6.54,6.54,0,0,1,1.19.11l1.14.35a2.37,2.37,0,0,1,.73.51L85.24,68l-.37.38a6.66,6.66,0,0,1-.9.06c-1.85,0-3.35-.73-3.35-1.64S82.11,65.19,84,65.19Z"/><path class="cls-79" d="M83.94,65.23a4.25,4.25,0,0,1,3,1L85.24,68l-.35.36a6.55,6.55,0,0,1-.95.07c-1.82,0-3.3-.72-3.3-1.61S82.12,65.23,83.94,65.23Z"/><path class="cls-99" d="M83.92,65.27a4.12,4.12,0,0,1,3,1L85.24,68l-.32.34a6.42,6.42,0,0,1-1,.08c-1.79,0-3.25-.71-3.25-1.59S82.13,65.27,83.92,65.27Z"/><path class="cls-80" d="M83.9,65.3a4,4,0,0,1,3,1L85.24,68l-.3.31a6.29,6.29,0,0,1-1,.08c-1.76,0-3.19-.7-3.19-1.56S82.14,65.3,83.9,65.3Z"/><path class="cls-81" d="M83.88,65.34a3.86,3.86,0,0,1,3,1L85.24,68l-.28.29a6.15,6.15,0,0,1-1.08.09c-1.74,0-3.14-.69-3.14-1.54S82.15,65.34,83.88,65.34Z"/><path class="cls-81" d="M83.86,65.37a3.72,3.72,0,0,1,2.93,1L85.24,68l-.25.26a6,6,0,0,1-1.13.1c-1.71,0-3.09-.68-3.09-1.51S82.15,65.37,83.86,65.37Z"/><path class="cls-82" d="M83.84,65.41a3.58,3.58,0,0,1,2.9,1L85.24,68l-.23.24a5.88,5.88,0,0,1-1.17.11c-1.68,0-3-.66-3-1.48S82.16,65.41,83.84,65.41Z"/><path class="cls-108" d="M83.82,65.45a3.45,3.45,0,0,1,2.87,1.06L85.24,68l-.2.21a5.73,5.73,0,0,1-1.22.13c-1.65,0-3-.65-3-1.46S82.17,65.45,83.82,65.45Z"/><path class="cls-109" d="M83.79,65.48c1.37,0,2.52.46,2.84,1.08L85.24,68l-.17.18a5.58,5.58,0,0,1-1.27.14c-1.62,0-2.93-.64-2.93-1.43S82.18,65.48,83.79,65.48Z"/><path class="cls-110" d="M83.77,65.52c1.37,0,2.52.47,2.81,1.1L85.24,68l-.14.15a5.43,5.43,0,0,1-1.32.16c-1.59,0-2.88-.63-2.88-1.41S82.18,65.52,83.77,65.52Z"/><path class="cls-73" d="M71.3,56.52c1.47-.78,5-.91,6.1.6s-.65,4.16-2.2,5a4,4,0,0,1-2.28.73L69.58,57.9C70,57.38,69.83,57.3,71.3,56.52Z"/><path class="cls-111" d="M83.87,11.78a15.7,15.7,0,0,0-15.7,15.7,17.28,17.28,0,0,0,1.19,6L83.87,67.16,98.45,33.34a17.19,17.19,0,0,0,1.13-5.86A15.7,15.7,0,0,0,83.87,11.78Z"/><polygon class="cls-112" points="82.18 63.23 85.56 63.23 83.87 67.16 82.18 63.23"/><polygon class="cls-112" points="81.94 62.67 85.81 62.67 84.12 66.59 83.63 66.59 81.94 62.67"/><polygon class="cls-112" points="81.69 62.1 86.05 62.1 84.36 66.03 83.39 66.03 81.69 62.1"/><polygon class="cls-113" points="81.45 61.54 86.3 61.54 84.6 65.46 83.14 65.46 81.45 61.54"/><polygon class="cls-113" points="81.21 60.97 86.54 60.97 84.85 64.9 82.9 64.9 81.21 60.97"/><polygon class="cls-114" points="80.96 60.41 86.78 60.41 85.09 64.33 82.66 64.33 80.96 60.41"/><polygon class="cls-114" points="80.72 59.84 87.03 59.84 85.33 63.77 82.41 63.77 80.72 59.84"/><polygon class="cls-114" points="80.48 59.28 87.27 59.28 85.58 63.2 82.17 63.2 80.48 59.28"/><polygon class="cls-115" points="80.23 58.72 87.51 58.72 85.82 62.64 81.92 62.64 80.23 58.72"/><polygon class="cls-115" points="79.99 58.15 87.76 58.15 86.06 62.07 81.68 62.07 79.99 58.15"/><polygon class="cls-116" points="79.75 57.59 88 57.59 86.31 61.51 81.44 61.51 79.75 57.59"/><polygon class="cls-116" points="79.5 57.02 88.24 57.02 86.55 60.94 81.19 60.94 79.5 57.02"/><polygon class="cls-117" points="79.26 56.45 88.49 56.45 86.8 60.38 80.95 60.38 79.26 56.45"/><polygon class="cls-117" points="79.02 55.89 88.73 55.89 87.04 59.81 80.71 59.81 79.02 55.89"/><polygon class="cls-118" points="78.77 55.33 88.97 55.33 87.28 59.25 80.46 59.25 78.77 55.33"/><polygon class="cls-118" points="78.53 54.76 89.22 54.76 87.53 58.68 80.22 58.68 78.53 54.76"/><polygon class="cls-118" points="78.28 54.2 89.46 54.2 87.77 58.12 79.98 58.12 78.28 54.2"/><polygon class="cls-119" points="78.04 53.63 89.7 53.63 88.01 57.55 79.73 57.55 78.04 53.63"/><polygon class="cls-120" points="77.8 53.07 89.95 53.07 88.26 56.99 79.49 56.99 77.8 53.07"/><polygon class="cls-120" points="77.56 52.5 90.19 52.5 88.5 56.42 79.25 56.42 77.56 52.5"/><polygon class="cls-121" points="77.31 51.94 90.43 51.94 88.74 55.86 79 55.86 77.31 51.94"/><polygon class="cls-121" points="77.07 51.37 90.68 51.37 88.99 55.3 78.76 55.3 77.07 51.37"/><polygon class="cls-122" points="76.82 50.81 90.92 50.81 89.23 54.73 78.52 54.73 76.82 50.81"/><polygon class="cls-122" points="76.58 50.24 91.17 50.24 89.47 54.16 78.27 54.16 76.58 50.24"/><polygon class="cls-122" points="76.34 49.68 91.41 49.68 89.72 53.6 78.03 53.6 76.34 49.68"/><polygon class="cls-123" points="76.09 49.11 91.65 49.11 89.96 53.03 77.78 53.03 76.09 49.11"/><polygon class="cls-124" points="75.85 48.55 91.89 48.55 90.2 52.47 77.54 52.47 75.85 48.55"/><polygon class="cls-124" points="75.61 47.98 92.14 47.98 90.45 51.91 77.3 51.91 75.61 47.98"/><polygon class="cls-125" points="75.36 47.42 92.38 47.42 90.69 51.34 77.06 51.34 75.36 47.42"/><polygon class="cls-125" points="75.12 46.85 92.63 46.85 90.93 50.78 76.81 50.78 75.12 46.85"/><polygon class="cls-125" points="74.88 46.29 92.87 46.29 91.18 50.21 76.57 50.21 74.88 46.29"/><polygon class="cls-126" points="74.63 45.72 93.11 45.72 91.42 49.65 76.32 49.65 74.63 45.72"/><polygon class="cls-127" points="74.39 45.16 93.36 45.16 91.67 49.08 76.08 49.08 74.39 45.16"/><polygon class="cls-127" points="74.14 44.59 93.6 44.59 91.91 48.52 75.84 48.52 74.14 44.59"/><polygon class="cls-127" points="73.9 44.03 93.84 44.03 92.15 47.95 75.59 47.95 73.9 44.03"/><polygon class="cls-128" points="73.66 43.46 94.09 43.46 92.39 47.39 75.35 47.39 73.66 43.46"/><polygon class="cls-129" points="73.42 42.9 94.33 42.9 92.64 46.82 75.11 46.82 73.42 42.9"/><polygon class="cls-129" points="73.17 42.33 94.57 42.33 92.88 46.26 74.86 46.26 73.17 42.33"/><polygon class="cls-129" points="72.93 41.77 94.82 41.77 93.13 45.69 74.62 45.69 72.93 41.77"/><polygon class="cls-129" points="72.68 41.2 95.06 41.2 93.37 45.13 74.38 45.13 72.68 41.2"/><polygon class="cls-130" points="72.44 40.64 95.3 40.64 93.61 44.56 74.13 44.56 72.44 40.64"/><polygon class="cls-131" points="72.2 40.07 95.55 40.07 93.86 44 73.89 44 72.2 40.07"/><polygon class="cls-131" points="71.95 39.51 95.79 39.51 94.1 43.43 73.64 43.43 71.95 39.51"/><polygon class="cls-131" points="71.71 38.94 96.03 38.94 94.34 42.87 73.4 42.87 71.71 38.94"/><polygon class="cls-132" points="71.47 38.38 96.28 38.38 94.59 42.3 73.16 42.3 71.47 38.38"/><polygon class="cls-132" points="71.22 37.81 96.52 37.81 94.83 41.74 72.92 41.74 71.22 37.81"/><polygon class="cls-133" points="70.98 37.25 96.76 37.25 95.07 41.17 72.67 41.17 70.98 37.25"/><polygon class="cls-133" points="70.74 36.68 97.01 36.68 95.32 40.61 72.43 40.61 70.74 36.68"/><polygon class="cls-134" points="70.49 36.12 97.25 36.12 95.56 40.04 72.18 40.04 70.49 36.12"/><polygon class="cls-134" points="70.25 35.55 97.5 35.55 95.8 39.48 71.94 39.48 70.25 35.55"/><polygon class="cls-135" points="70 34.99 97.74 34.99 96.05 38.91 71.7 38.91 70 34.99"/><polygon class="cls-135" points="69.76 34.42 97.98 34.42 96.29 38.35 71.45 38.35 69.76 34.42"/><polygon class="cls-136" points="69.52 33.86 98.22 33.86 96.53 37.78 71.21 37.78 69.52 33.86"/><path class="cls-136" d="M69.28,33.29H98.47l0,0-1.67,3.87H71l-1.6-3.71Z"/><path class="cls-137" d="M69.07,32.73H98.68c-.08.22-.15.43-.24.61L97,36.65H70.72L69.37,33.5C69.26,33.26,69.16,33,69.07,32.73Z"/><path class="cls-137" d="M68.89,32.16h30a10.55,10.55,0,0,1-.42,1.18l-1.18,2.74H70.48L69.37,33.5A11.91,11.91,0,0,1,68.89,32.16Z"/><path class="cls-137" d="M68.74,31.6H99a12,12,0,0,1-.57,1.74l-.94,2.18H70.24l-.87-2A13.13,13.13,0,0,1,68.74,31.6Z"/><path class="cls-138" d="M68.6,31H99.15a13.23,13.23,0,0,1-.7,2.31L97.75,35H70l-.63-1.45A14.24,14.24,0,0,1,68.6,31Z"/><path class="cls-138" d="M68.48,30.47H99.27a14.41,14.41,0,0,1-.82,2.87l-.45,1H69.75l-.38-.89A15.19,15.19,0,0,1,68.48,30.47Z"/><path class="cls-139" d="M68.38,29.9h31a15.38,15.38,0,0,1-.92,3.44l-.21.48H69.51l-.14-.32A16,16,0,0,1,68.38,29.9Z"/><path class="cls-139" d="M68.3,29.34H99.45a16.44,16.44,0,0,1-1,3.92H69.27A17.19,17.19,0,0,1,68.3,29.34Z"/><path class="cls-111" d="M68.24,28.77H99.51a18.26,18.26,0,0,1-.82,3.92H69.06A18.42,18.42,0,0,1,68.24,28.77Z"/><path class="cls-131" d="M81.08,40.07h5.58a13,13,0,0,1-5.58,0Z"/><path class="cls-131" d="M79.21,39.51h9.32a12.93,12.93,0,0,1-9.32,0Z"/><path class="cls-131" d="M78,38.94H89.79a12.91,12.91,0,0,1-11.82,0Z"/><path class="cls-132" d="M77,38.38H90.77a12.9,12.9,0,0,1-13.79,0Z"/><path class="cls-132" d="M76.16,37.81H91.59a12.89,12.89,0,0,1-15.43,0Z"/><path class="cls-133" d="M75.46,37.25H92.29a12.89,12.89,0,0,1-16.83,0Z"/><path class="cls-133" d="M74.84,36.68H92.9a12.89,12.89,0,0,1-18.06,0Z"/><path class="cls-134" d="M74.3,36.12H93.45A12.88,12.88,0,0,1,86.8,40H80.95A12.88,12.88,0,0,1,74.3,36.12Z"/><path class="cls-134" d="M73.82,35.55H93.93a12.93,12.93,0,0,1-5.31,3.92H79.14A12.93,12.93,0,0,1,73.82,35.55Z"/><path class="cls-135" d="M73.39,35h21a13,13,0,0,1-4.51,3.92H77.9A13,13,0,0,1,73.39,35Z"/><path class="cls-135" d="M73,34.42H94.74a13,13,0,0,1-3.92,3.92H76.93A13,13,0,0,1,73,34.42Z"/><path class="cls-136" d="M72.67,33.86H95.08a13,13,0,0,1-3.45,3.92H76.12A13,13,0,0,1,72.67,33.86Z"/><path class="cls-136" d="M72.36,33.29h23a12.94,12.94,0,0,1-3.06,3.92H75.42A12.94,12.94,0,0,1,72.36,33.29Z"/><path class="cls-137" d="M72.1,32.73H95.65a12.92,12.92,0,0,1-2.72,3.92H74.81A12.92,12.92,0,0,1,72.1,32.73Z"/><path class="cls-137" d="M71.86,32.16h24a12.89,12.89,0,0,1-2.41,3.92H74.27A12.89,12.89,0,0,1,71.86,32.16Z"/><path class="cls-137" d="M71.65,31.6H96.09A12.86,12.86,0,0,1,94,35.52H73.8A12.86,12.86,0,0,1,71.65,31.6Z"/><path class="cls-138" d="M71.48,31H96.27A12.83,12.83,0,0,1,94.38,35h-21A12.83,12.83,0,0,1,71.48,31Z"/><path class="cls-138" d="M71.33,30.47H96.42a12.82,12.82,0,0,1-1.66,3.92H73A12.82,12.82,0,0,1,71.33,30.47Z"/><path class="cls-139" d="M71.21,29.9H96.54a12.8,12.8,0,0,1-1.44,3.92H72.65A12.8,12.8,0,0,1,71.21,29.9Z"/><path class="cls-139" d="M71.12,29.34H96.63a12.8,12.8,0,0,1-1.23,3.92h-23A12.8,12.8,0,0,1,71.12,29.34Z"/><path class="cls-111" d="M71,28.77H96.7a12.81,12.81,0,0,1-1,3.92H72.08A12.81,12.81,0,0,1,71,28.77Z"/><path class="cls-115" d="M85.8,40.38A12.89,12.89,0,1,0,72.91,27.49,12.91,12.91,0,0,0,85.8,40.38Z"/><path class="cls-83" d="M83.87,40.38A12.89,12.89,0,1,0,71,27.49,12.91,12.91,0,0,0,83.87,40.38Z"/></svg>