<svg id="Camada_1" data-name="Camada 1" xmlns="http://www.w3.org/2000/svg" viewBox="0 0 500 502"><defs><style>.cls-1{fill:#67b2dc;}.cls-2{fill:#0f253b;}.cls-3{fill:#c1c2c6;}.cls-4{fill:#e9eaea;}.cls-5{fill:gray;}.cls-6{fill:#a2a2a3;}.cls-7{fill:#9c1c1f;}.cls-8{fill:#fff;}</style></defs><title>icone-</title><rect class="cls-1" x="-0.71" y="-0.21" width="500" height="500"/><path class="cls-2" d="M250.71,390.73C149.33,390.73,59,367.47.71,327.3V502.21h500V327.31C442.38,367.53,352.1,390.73,250.71,390.73Z"/><path class="cls-3" d="M356.05,92.12c0-23.79-3.53-43.34,26-43.08,28.55.25,24.63,19.38,26,43.08Z"/><path class="cls-4" d="M129.87,76.71S127.61,50.29,155,49.16s221.66.12,221.66.12S358,52.39,356,76.71,129.87,76.71,129.87,76.71Z"/><rect class="cls-4" x="129.87" y="76.71" width="226.18" height="271.98"/><rect class="cls-5" x="147.12" y="125.27" width="115.92" height="7.35"/><rect class="cls-5" x="147.12" y="136.58" width="115.92" height="7.35"/><rect class="cls-6" x="147.12" y="154.68" width="189.99" height="10.18"/><rect class="cls-6" x="147.12" y="159.77" width="5.09" height="130.43"/><rect class="cls-6" x="167.48" y="159.77" width="4.52" height="130.43"/><rect class="cls-6" x="224.02" y="159.77" width="5.09" height="130.43"/><rect class="cls-6" x="281.13" y="162.61" width="4.52" height="127.59"/><rect class="cls-6" x="332.81" y="159.77" width="4.3" height="130.43"/><rect class="cls-6" x="147.12" y="277.95" width="187.16" height="2.83"/><rect class="cls-6" x="149.38" y="287.37" width="187.17" height="2.83"/><rect class="cls-7" x="296.4" y="305.65" width="40.15" height="15.83"/><path class="cls-8" d="M62.08,424.33V424l.18-.12c.9,0,19.86-.36,26.7-.24l.24,12-14.7.3v6.54c1.2.12,4.92-.24,6.3-.12l.24,9.24H74.5c-.18,2.34.12,11.34.24,15.54-2.94-.12-4.68-.12-12.3-.24Z"/><path class="cls-8" d="M86.2,465.79c2-10,1.74-9.9,8.34-40.8l.12-.12h.06c.84,0,10.5-.24,16.86.24,1.5,2.58,10.68,38,11.52,39.72,0,.12.06.3-14.28.12l-2.28-10.5h-6.36l-1.74,11.34Zm19.62-19.86c-.06-2.28-1.44-8.4-1.56-10.08H102.1L100.54,446Z"/><path class="cls-8" d="M128.14,466.27c-.36-10.44-.66-20.94-1.2-31.44l-8.76-.06-.72-11c7.26.12,22.56.36,31.2.48.36,3.72-.12,7.14-.3,10.8l-8.7.24c.06.12.84,28.26.9,31.68Z"/><path class="cls-8" d="M151.72,428.17c.18-1.56.36-3.06.48-4.38h.12L164.44,425c-.18,8.88-3.36,29.52,2.64,28.62,4.56.6,2.52-17.34,2.22-27.48l.06-.18c.48-.06,10.38-.12,13.86-.12.42,13.74,5.52,40.8-15.48,40.8h-.24C147.46,467.17,150,443.59,151.72,428.17Z"/><path class="cls-8" d="M187.66,465.73c-.6-7.2-1.32-37.26-1-40.38,16.14,0,31.92-3.48,32.76,11.28v.12c.72,5.28-3.9,12.6-10,14.16l7.5,14.64c.06.06,3.24-.6-13.44.06a80.77,80.77,0,0,0-4.32-9.3l.48,9.42Zm11.1-22.14c9.6,2.52,10.92-12.42-.48-10,.06,2.34-.12,7,.36,9.9A.21.21,0,0,0,198.76,443.59Z"/><path class="cls-8" d="M218.32,465.79c2-10,1.74-9.9,8.34-40.8l.12-.12h.06c.84,0,10.5-.24,16.86.24,1.5,2.58,10.68,38,11.52,39.72,0,.12.06.3-14.28.12l-2.28-10.5H232.3l-1.74,11.34Zm19.62-19.86c-.06-2.28-1.44-8.4-1.56-10.08h-2.16L232.66,446Z"/><path class="cls-8" d="M289.78,466.5l-1.68-17.7L284.26,458l-9.12,1-4.92-9.78c-.48,2.58-.54,5.16-1,15.84a.21.21,0,0,1-.06.12l-13.2.3-.12-.06,6.42-40.08,11.76.12c1.14,2,3.78,14.34,4.2,15.12.18-.18.36-.9,7.86-14.52l12.06.06c.12,1.62,2,13.92,5.22,39.66l-.3.18Z"/><path class="cls-8" d="M305.92,425.65c1.86-.12,19.56-.36,25.8-.66l.24,11.46L317,437l.24,4.5,7.5-.36-.24,8.28-6.9.3.24,3.9,14.34-.36c.06.42.18,9.12.12,12.12-8.76.12-17.88.66-26.22.66C306.28,464.29,305.44,431,305.92,425.65Z"/><path class="cls-8" d="M348,445.87s-.12.12-.66,19.62l-11.94,1-.66-41.4,17,.84c1.2,2.22,4,9.9,6.18,14.88.06-4.86-.3-9.6-.12-14.88l10.68.66.84.12.06.12c-.66,2.22.12,13.56-.18,40-1.62.12-11.52-.18-13-.24C355.66,465.61,348.16,445.33,348,445.87Z"/><path class="cls-8" d="M382.48,466.27c-.36-10.44-.66-20.94-1.2-31.44l-8.76-.06-.72-11c7.26.12,22.56.36,31.2.48.36,3.72-.12,7.14-.3,10.8l-8.7.24c.06.12.84,28.26.9,31.68Z"/><path class="cls-8" d="M421.48,425.65c21.6.36,22.38,40.14-.78,41C391.6,465.19,394.54,425.17,421.48,425.65ZM419,452.41c7.5,0,9.66-11.94,1.26-13.2-3.78,0-6.72,4.08-6.72,7.68A5.34,5.34,0,0,0,419,452.41Z"/></svg>