<svg id="Camada_1" data-name="Camada 1" xmlns="http://www.w3.org/2000/svg" xmlns:xlink="http://www.w3.org/1999/xlink" viewBox="0 0 155 145"><defs><style>.cls-1{fill:none;}.cls-2{fill:#171f30;}.cls-3{fill:#3c4665;}.cls-4{fill:#1d424c;}.cls-5{fill:#46737f;}.cls-6{fill:#5e9bb1;}.cls-7{fill:#f2f8ef;}.cls-8{clip-path:url(#clip-path);}.cls-9{fill:#f39225;}</style><clipPath id="clip-path"><rect class="cls-1" x="52.61" y="82.29" width="38.04" height="50"/></clipPath></defs><title>indicativo-</title><path class="cls-2" d="M25.16,3V127.19h94.51c5,10.91,9.48,14.81,9.48,14.81-1.52-12.15,10.71-14.81,10.71-14.81V3Z"/><rect class="cls-3" x="14.46" y="17.81" width="114.69" height="124.19"/><circle class="cls-4" cx="40.92" cy="36.8" r="3.19"/><circle class="cls-4" cx="99.54" cy="36.8" r="3.19"/><path class="cls-5" d="M14.46,17.81H32.21V10.65C31.49,13.2,27.07,15.88,14.46,17.81Z"/><path class="cls-6" d="M119.1,3H25.47s7.88,3.67,6.74,7.65v7.16H119.1V11.28h0c-.09-2.6,4.7-5.6,21.4-8.28Z"/><path class="cls-5" d="M119.15,11.28h0v6.53h10S119.28,14.95,119.15,11.28Z"/><path class="cls-4" d="M97.43,38.75V57c0,10.82-12.21,19.61-27.21,19.61S43,67.79,43,57V38.75H38.94V57c0,13.06,14,23.68,31.28,23.68S101.5,70,101.5,57V38.75Z"/><path class="cls-7" d="M97.43,36.71V54.94c0,10.82-12.21,19.61-27.21,19.61S43,65.76,43,54.94V36.71H38.94V54.94c0,13.06,14,23.68,31.28,23.68S101.5,68,101.5,54.94V36.71Z"/><g class="cls-8"><path class="cls-9" d="M71.63,106.74c5.56,0,10.07-5.47,10.07-12.23S80.22,82.29,71.63,82.29,61.56,87.76,61.56,94.51s4.51,12.23,10.07,12.23Zm0,0"/><path d="M52.62,125.41c0-.41,0-.12,0,0Zm0,0"/></g><path class="cls-9" d="M90.62,124.91c-.19-11.76-1.72-15.12-13.48-17.24,0,0-1.66,2.11-5.51,2.11s-5.51-2.11-5.51-2.11c-11.63,2.1-13.26,5.4-13.47,16.85,0,.94,0,1,0,.88,0,.2,0,.58,0,1.24,0,0,2.8,5.64,19,5.64s19-5.64,19-5.64c0-.42,0-.71,0-.91a8.09,8.09,0,0,1,0-.82Zm0,0"/></svg>