<svg xmlns="http://www.w3.org/2000/svg" xmlns:xlink="http://www.w3.org/1999/xlink" viewBox="0 0 155 145"><defs><style>.cls-1{fill:none;}.cls-2{isolation:isolate;}.cls-3,.cls-6{fill:#3c4665;}.cls-4{fill:#464e70;}.cls-5{fill:#303b58;}.cls-6,.cls-9{opacity:0.2;mix-blend-mode:multiply;}.cls-7{fill:#222c45;}.cls-8{fill:#171f30;}.cls-10{fill:#545b7d;}.cls-11{fill:#e2b839;}.cls-12{fill:#fdfacf;}.cls-13{fill:#fdf98c;}.cls-14{fill:#c29130;}.cls-15{fill:#f6e253;}.cls-16{fill:#fff;}.cls-17{clip-path:url(#clip-path);}.cls-18{fill:#f39225;}</style><clipPath id="clip-path"><rect class="cls-1" x="52.48" y="74" width="38.04" height="50"/></clipPath></defs><title>indicativo-</title><g class="cls-2"><g id="Camada_1" data-name="Camada 1"><path class="cls-3" d="M133.41,109.56a37.09,37.09,0,0,0,4.33-9.76,38.41,38.41,0,0,0,.29-4.9,66,66,0,0,0-2.5-16.22c-.75-2.6-1.63-5.16-2.62-7.68a19.28,19.28,0,0,0-7.42-4.28c-4.83-1.44-10-.68-15-.66a50.83,50.83,0,0,1-15.21-2.27,71,71,0,0,0-8-2.37,36.61,36.61,0,0,0-8-.37c-10.82.38-22.42,1.78-31.79-3.65-4.74-2.75-6.68-6.32-9.84-10.23a24.36,24.36,0,0,0-3.12,1.92c.5,1.36.75,2.89,1.27,4.21A21.16,21.16,0,0,0,41.5,61c4.81,4.3,11.19,6.81,17.5,7.85,10.34,1.7,20.94.26,31.38,1.19,11.42,1,27,6.71,28.4,20,.62,5.72-1.73,11.38-4.86,16.2-5.88,9-15.72,16.41-26.48,15.88-6-.3-12.09-2.94-17.71-.92-2.77,1-5,3-7.54,4.57C52.17,132,37.75,129.32,29,122a25.4,25.4,0,0,1-8.82-15.38,16.68,16.68,0,0,1,.63-8.7c1.44-3.58.24-5.55-1.3-9.06a19.1,19.1,0,0,1-1.06-3.18l-.33,2.15q-1.23,7.95-2.73,15.86a32.86,32.86,0,0,1-2.2,7.86c-2.81,6-9,10.16-11,16.51a26.75,26.75,0,0,0,15.93,2.39,19.56,19.56,0,0,1,5.26-.54c3.11.35,6,2.77,8.86,4a95.49,95.49,0,0,0,12,4.21,102.09,102.09,0,0,0,45.49,2.31c4.16-.73,8.28-1.67,12.37-2.74,1.56-1.49,3.19-2.9,4.83-4.21C116.28,126,127,119.67,133.41,109.56Zm-113.92,15a7,7,0,0,0-3-1.27c-1.75-.3-3.55.07-5.31-.17a2.09,2.09,0,0,1-.79-.23,1.58,1.58,0,0,1-.63-1.68,3.47,3.47,0,0,1,1-1.62c1.36-1.41,3.2-2.42,4.05-4.18A6.29,6.29,0,0,0,16.46,119a17.14,17.14,0,0,0,3.06,2.59c.7.5,1.48,1.13,1.47,2S20.11,125,19.48,124.6Z"/><path class="cls-4" d="M20.77,98a16.68,16.68,0,0,0-.63,8.7A25.4,25.4,0,0,0,29,122c8.78,7.29,23.21,9.92,33.22,3.77,2.51-1.54,4.77-3.57,7.54-4.57,5.62-2,11.75.62,17.71.92,10.77.54,20.61-6.84,26.48-15.88,3.14-4.82,5.48-10.48,4.86-16.2-1.44-13.28-17-19-28.4-20-10.43-.93-21,.51-31.38-1.19-6.31-1-12.69-3.55-17.5-7.85a21.16,21.16,0,0,1-5.68-7.75C35.3,52,35,50.45,34.55,49.09c-5.21,3.78-9,9.51-11.33,15.57-2.61,6.72-3.72,13.9-4.81,21a19.1,19.1,0,0,0,1.06,3.18C21,92.4,22.21,94.37,20.77,98Z"/><path class="cls-5" d="M47.51,57.4c9.36,5.43,21,4,31.79,3.65a36.61,36.61,0,0,1,8,.37,71,71,0,0,1,8,2.37,50.83,50.83,0,0,0,15.21,2.27c5,0,10.21-.78,15,.66A19.28,19.28,0,0,1,132.9,71,78.53,78.53,0,0,0,125,55.84c-3-4.5-6.48-8.92-7.85-14.17L38.21,46.89l-.53.28C40.83,51.08,42.77,54.65,47.51,57.4Z"/><path class="cls-5" d="M149,125c-1.17-3-2.11-5.2-4.53-7.57-2.22-2.17-4.7-4.22-6-7-1.54-3.37-1.12-7-.74-10.6a37.09,37.09,0,0,1-4.33,9.76C127,119.67,116.28,126,106.94,133.5c-1.65,1.32-3.27,2.73-4.83,4.21,2.46-.64,4.9-1.33,7.33-2.05,5.84-1.73,11.58-4.17,17.61-4.77,8.55-.85,17,3.39,25.75,2.36C152.37,133.3,149.32,125.84,149,125Zm-7.06-3.61a4.19,4.19,0,0,1-2.24.92,13,13,0,0,0-5.53,1.91c-.19.15-.38.31-.57.47a5.48,5.48,0,0,1-1.66,1.13,1.49,1.49,0,0,1-.83.08,1.58,1.58,0,0,1-1-1.52,4.48,4.48,0,0,1,1.37-3.15c.79-.87,1.75-1.58,2.53-2.47a11.47,11.47,0,0,0,2.39-5.26c-.11.53.87,1.24,1.19,1.56a8.22,8.22,0,0,0,2.25,1.45C141.4,117.31,143.71,119.65,141.94,121.4Z"/><path class="cls-4" d="M139.82,116.52a8.22,8.22,0,0,1-2.25-1.45c-.32-.31-1.3-1-1.19-1.56a11.47,11.47,0,0,1-2.39,5.26c-.77.89-1.73,1.6-2.53,2.47a4.48,4.48,0,0,0-1.37,3.15,1.58,1.58,0,0,0,1,1.52,1.49,1.49,0,0,0,.83-.08,5.48,5.48,0,0,0,1.66-1.13c.19-.16.37-.32.57-.47a13,13,0,0,1,5.53-1.91,4.19,4.19,0,0,0,2.24-.92C143.71,119.65,141.4,117.31,139.82,116.52Z"/><path class="cls-4" d="M19.52,121.62A17.14,17.14,0,0,1,16.46,119a6.29,6.29,0,0,1-1.64-3.59c-.85,1.76-2.7,2.77-4.05,4.18a3.47,3.47,0,0,0-1,1.62,1.58,1.58,0,0,0,.63,1.68,2.09,2.09,0,0,0,.79.23c1.76.24,3.56-.13,5.31.17a7,7,0,0,1,3,1.27c.62.38,1.49-.27,1.5-1S20.22,122.12,19.52,121.62Z"/><path class="cls-6" d="M132.09,104.72a14.39,14.39,0,0,0-2.24-5h0l0-.06a14.33,14.33,0,0,0-1.27-1.55h0l-.18-.17a1.36,1.36,0,0,0,.17-.28,2.08,2.08,0,0,0,.14-.85,2.73,2.73,0,0,0-.79-2c0-.07,0-.15-.08-.22s-.12-.27-.19-.41l0-.1h0q0-.26.07-.53c0-.06,0-.12,0-.18s0-.26,0-.39,0-.18,0-.27,0-.21,0-.32,0-.15,0-.22,0-.15,0-.22,0-.09,0-.13,0-.09,0-.13l0-.14c0-.1-.05-.21-.08-.31l-.07-.21c0-.11-.08-.21-.12-.32l-.1-.23c-.07-.14-.14-.27-.22-.4l0-.09h0c0-.17,0-.34,0-.52s0-.11,0-.16,0-.28,0-.41,0-.13,0-.19,0-.24,0-.37,0-.16,0-.24l0-.22c0-.09,0-.18-.05-.27l-.06-.18a4.77,4.77,0,0,0-.37-.9l-.09-.16-.11-.19h0c-.05-.08-.1-.16-.16-.24a6.77,6.77,0,0,0-.31-2.37,5,5,0,0,0-.93-1.6,6.77,6.77,0,0,0-.51-2.35,5,5,0,0,0-1.06-1.52,6.78,6.78,0,0,0-.71-2.3,4.84,4.84,0,0,0-1.19-1.41,5.53,5.53,0,0,0-2.2-3.5,5.54,5.54,0,0,0-2.38-3.32,5.55,5.55,0,0,0-2.47-3.18,5.61,5.61,0,0,0-2.49-3.11,5.65,5.65,0,0,0-2.44-3.09A5.72,5.72,0,0,0,107,55.1a5.73,5.73,0,0,0-2.1-3.22A5.88,5.88,0,0,0,103,48.51,5.84,5.84,0,0,0,101.56,45a5.75,5.75,0,0,0-1.4-4,25.54,25.54,0,0,0-3.73-2.63,5.29,5.29,0,0,1-2.57-4,10.71,10.71,0,0,0-.07,5.5l.05.15a9.71,9.71,0,0,0,.85,4.46l.05.1a10,10,0,0,0,1.42,4.21l.07.1a10.22,10.22,0,0,0,1.83,3.92l.09.1a10,10,0,0,0,2.11,3.64l.08.08c.18.41.38.81.6,1.2l-.28-.05c-1.49-.3-3-.71-3.77-1.75a14.16,14.16,0,0,0,.66,2,7.93,7.93,0,0,0,1,1.82l.06.08A11.74,11.74,0,0,0,99,61.36a7.61,7.61,0,0,0,.9,1.89l.05.08a10.13,10.13,0,0,0,1.09,3.4l.05.08a10.27,10.27,0,0,0,.88,3.46l.05.1c0,.49.05,1,.12,1.47a8.9,8.9,0,0,0,.53,2l0,.11c0,.49,0,1,0,1.47a9.21,9.21,0,0,0,.4,2.06l0,.11c0,.49-.06,1-.06,1.47a9.1,9.1,0,0,0,.27,2.08l0,.1a10.48,10.48,0,0,0,0,3.57l0,.1a10.61,10.61,0,0,0-.23,3.59l0,.11a10.45,10.45,0,0,0-.43,3.64s0,.07,0,.11a10.31,10.31,0,0,0-.56,3.7s0,.07,0,.11a10.3,10.3,0,0,0-.64,3.77s0,.07,0,.11a10.19,10.19,0,0,0-.64,3.84s0,.07,0,.11a10.14,10.14,0,0,0-.57,3.93s0,.07,0,.11a10.12,10.12,0,0,0-.43,4s0,.08,0,.12a9.82,9.82,0,0,0-.21,4.09l0,.11a12.17,12.17,0,0,0-.18,1.83s0,.08,0,.12q0,.32,0,.63s0,0,0,.05v.06q0,.26.06.52s0,.06,0,.09a1.46,1.46,0,0,0-.29.54,3,3,0,0,0,.41,2.44v0l-.08.24-.13.41c-.11.36-.2.74-.28,1.08l-.06.25h0a9.32,9.32,0,0,0-.18,1.07,20.56,20.56,0,0,0,.13,5.49c.28,1.22,1.41,1.08,2.39,1.39a3,3,0,0,0,.64.14,1.8,1.8,0,0,0,.4,0c.82-.14,1.55-.73,2.37-.73a9.28,9.28,0,0,1,1,.14,3.6,3.6,0,0,0,3.36-2.24c.21-.65.23-1.41.94-1.82.44-.25,1.12-.39,1.21-.75a.42.42,0,0,0-.11-.35,23.94,23.94,0,0,0-3-3.35h0l-.08-.07-.18-.17c-.37-.34-.74-.69-1.16-1l-.19-.15a1.46,1.46,0,0,0,.17-.25,1.68,1.68,0,0,0,.14-.75,2.49,2.49,0,0,0-.71-1.83c0-.07,0-.14-.07-.21a4.59,4.59,0,0,0-.2-.48l0-.14a7.7,7.7,0,0,0,.18-.76v0c0-.11,0-.22,0-.34s0-.12,0-.19,0-.19,0-.28,0-.17,0-.25,0-.16,0-.24,0-.21,0-.31,0-.13,0-.19,0-.26-.07-.39l0-.12a4.36,4.36,0,0,0-.17-.53q.09-.22.16-.45l0-.12c0-.13.07-.25.11-.38l0-.17q0-.17.07-.35l0-.18c0-.12,0-.24,0-.37s0-.1,0-.15a5,5,0,0,0,0-.51s0-.08,0-.12,0-.25,0-.37,0-.16-.05-.24,0-.11,0-.16h0c0-.09,0-.17-.07-.26a5.56,5.56,0,0,0,.45-3.83,5.58,5.58,0,0,0,.58-3.87,5.57,5.57,0,0,0,.63-3.9,5.54,5.54,0,0,0,.62-3.94,5.53,5.53,0,0,0,.53-4,5.48,5.48,0,0,0,.37-4,5.45,5.45,0,0,0,.13-4.08,6.09,6.09,0,0,0,.33-2.32,4.38,4.38,0,0,0-.45-1.75,5.43,5.43,0,0,0-.38-4.05,5.45,5.45,0,0,0-.63-4,6.54,6.54,0,0,0-.11-2.34,4.78,4.78,0,0,0-.77-1.63c0-.18,0-.36,0-.54a10,10,0,0,0,2.22,2.78l.09.07a10.55,10.55,0,0,0,2.21,3l.09.07a10.51,10.51,0,0,0,2,3l.08.07a10.5,10.5,0,0,0,1.76,3.05l.06.07a10.39,10.39,0,0,0,1.47,3.18l.06.07a10.49,10.49,0,0,0,1.2,3.33l.05.08a10.53,10.53,0,0,0,.93,3.45l0,.09a10.56,10.56,0,0,0,.69,3.54l0,.09c0,.33,0,.65,0,1h0v0a11.19,11.19,0,0,0,.12,1.24v.09q0,.24.1.48v0a1.37,1.37,0,0,0-.27.48,2.43,2.43,0,0,0,.41,2.09l-.25.57v0l-.05.12c-.14.32-.26.63-.37.9l0,0h0c-.17.44-.29.78-.31.86-.33,1.45-.93,2.81-1.13,4.28-.13,1,1,1.16,1.76,1.72a3.36,3.36,0,0,0,.53.32,2.08,2.08,0,0,0,.38.13,15,15,0,0,1,2.46.3,7.2,7.2,0,0,1,.85.53,3.24,3.24,0,0,0,4-.67c.47-.61.75-1.47,1.57-1.66.5-.11,1.19,0,1.39-.41A.76.76,0,0,0,132.09,104.72Z"/><path class="cls-7" d="M100.24,46.89a4.33,4.33,0,0,0-2.11-.57,18.57,18.57,0,0,1-2.4-.25,5.76,5.76,0,0,1-3.84-3.26,10.37,10.37,0,0,1-.81-5.3,4,4,0,0,0,1.18,2.08,8,8,0,0,0,2,1.35c.72.34,1.48.63,2.17.94A8.13,8.13,0,0,1,98.33,43,5.59,5.59,0,0,1,100.24,46.89Z"/><path class="cls-8" d="M102.08,50.25c-1.23-.67-3-.22-4.58-.39a5.82,5.82,0,0,1-4.14-2.73,10.5,10.5,0,0,1-1.5-5,3.84,3.84,0,0,0,.59,1,4.86,4.86,0,0,0,.88.79,7.61,7.61,0,0,0,2.16,1c.74.25,1.53.43,2.27.65a8.39,8.39,0,0,1,2,.86A5.62,5.62,0,0,1,102.08,50.25Z"/><path class="cls-7" d="M104.19,53.48c-1.26-.6-3,0-4.59-.05a5.9,5.9,0,0,1-4.34-2.28,10.91,10.91,0,0,1-2-4.66,5.4,5.4,0,0,0,3.91,2.33,16.9,16.9,0,0,1,4.41,1.08A5.5,5.5,0,0,1,104.19,53.48Z"/><path class="cls-8" d="M106.5,56.61c-1.31-.55-3,.14-4.59.2a5.92,5.92,0,0,1-4.45-1.93,10.69,10.69,0,0,1-2.35-4.36c.86,1.28,2.52,1.74,4.07,1.91a15.7,15.7,0,0,1,4.48.73A5.47,5.47,0,0,1,106.5,56.61Z"/><path class="cls-7" d="M108.94,59.7c-1.33-.54-3,.21-4.58.32a6,6,0,0,1-4.49-1.63,10.92,10.92,0,0,1-2.61-4.1c.95,1.17,2.62,1.5,4.18,1.56a14.45,14.45,0,0,1,4.52.46A5.42,5.42,0,0,1,108.94,59.7Z"/><path class="cls-8" d="M111.42,62.81c-1.33-.55-3,.2-4.58.34a6.09,6.09,0,0,1-4.48-1.48,11,11,0,0,1-2.72-3.85c1,1.09,2.66,1.29,4.21,1.27a13.1,13.1,0,0,1,4.53.31A5.37,5.37,0,0,1,111.42,62.81Z"/><path class="cls-7" d="M113.89,66c-1.33-.6-3,.12-4.58.25a6.18,6.18,0,0,1-4.44-1.42,11.15,11.15,0,0,1-2.74-3.69c1,1,2.66,1.15,4.21,1.11a12.2,12.2,0,0,1,4.53.27A5.33,5.33,0,0,1,113.89,66Z"/><path class="cls-8" d="M116.27,69.31c-1.31-.68-3,0-4.59.05a6.3,6.3,0,0,1-4.36-1.47,11.28,11.28,0,0,1-2.68-3.6c1,1,2.64,1.09,4.18,1a11.38,11.38,0,0,1,4.52.34A5.31,5.31,0,0,1,116.27,69.31Z"/><path class="cls-7" d="M118.46,72.81c-1.27-.78-3-.25-4.59-.26a6.44,6.44,0,0,1-4.25-1.62,11.52,11.52,0,0,1-2.53-3.57c1,1,2.58,1.08,4.12,1.08a10.71,10.71,0,0,1,4.51.51A5.31,5.31,0,0,1,118.46,72.81Z"/><path class="cls-8" d="M120.36,76.52c-1.2-.9-3-.53-4.54-.66A6.58,6.58,0,0,1,111.72,74a11.71,11.71,0,0,1-2.3-3.58c.92,1,2.51,1.13,4,1.2.77,0,1.56,0,2.32.15a5.77,5.77,0,0,1,2.15.65,4.48,4.48,0,0,1,1.7,1.74A6.76,6.76,0,0,1,120.36,76.52Z"/><path class="cls-7" d="M121.92,80.38c-1.11-1-3-.8-4.47-1.07a6.3,6.3,0,0,1-2.23-.82,6.1,6.1,0,0,1-1.67-1.37,11.6,11.6,0,0,1-2-3.64c.84,1,2.4,1.24,3.92,1.42.75.09,1.55.17,2.3.33a6.09,6.09,0,0,1,2.09.84,4.64,4.64,0,0,1,1.53,1.9A6.76,6.76,0,0,1,121.92,80.38Z"/><path class="cls-8" d="M123.16,84.35c-1-1.08-2.88-1-4.37-1.43a6.26,6.26,0,0,1-2.15-1,6.19,6.19,0,0,1-1.54-1.53,11.66,11.66,0,0,1-1.64-3.76,3.64,3.64,0,0,0,1.6,1.12,9,9,0,0,0,1.06.34c.36.1.73.19,1.11.27.74.16,1.53.31,2.27.54a6.13,6.13,0,0,1,2,1,4.62,4.62,0,0,1,1.36,2A6.77,6.77,0,0,1,123.16,84.35Z"/><path class="cls-7" d="M124.08,88.38c-.95-1.14-2.8-1.23-4.25-1.75a6.69,6.69,0,0,1-3.48-2.87A11.81,11.81,0,0,1,115,79.85a3.74,3.74,0,0,0,1.5,1.27,14.36,14.36,0,0,0,2.11.8c.73.22,1.5.44,2.21.73a6.18,6.18,0,0,1,1.91,1.18,4.61,4.61,0,0,1,1.2,2.11A6.78,6.78,0,0,1,124.08,88.38Z"/><path class="cls-8" d="M124.74,92.45c-.88-1.2-2.71-1.41-4.13-2a6.2,6.2,0,0,1-2-1.35,6.33,6.33,0,0,1-1.29-1.79,11.8,11.8,0,0,1-1-4.06,3.74,3.74,0,0,0,1.39,1.41,13.76,13.76,0,0,0,2,1c.71.28,1.46.56,2.15.9a6.22,6.22,0,0,1,1.82,1.32,4.59,4.59,0,0,1,1,2.17A6.79,6.79,0,0,1,124.74,92.45Z"/><path class="cls-7" d="M125.15,96.54c-.81-1.24-2.63-1.55-4-2.25a6.19,6.19,0,0,1-1.9-1.47,6.41,6.41,0,0,1-1.18-1.89,11.79,11.79,0,0,1-.72-4.16,3.75,3.75,0,0,0,1.29,1.52,13.19,13.19,0,0,0,2,1.13c.69.33,1.41.66,2.09,1.05a6.26,6.26,0,0,1,1.73,1.43,4.57,4.57,0,0,1,.91,2.23A6.79,6.79,0,0,1,125.15,96.54Z"/><path class="cls-8" d="M122.13,96l-.17.08c-.54.27-1.66.77-2.3.48s-.91-1.44-1.08-1.92a11.77,11.77,0,0,1-.46-4.24A3.76,3.76,0,0,0,119.31,92a12.66,12.66,0,0,0,1.89,1.26c.78.43,2.3,1.06,1.65,2.13A1.79,1.79,0,0,1,122.13,96Z"/><path class="cls-8" d="M98.75,43.4a4.62,4.62,0,0,0-2-.8,15.06,15.06,0,0,1-2.36-.55A5.76,5.76,0,0,1,91,38.2,10.71,10.71,0,0,1,91,32.7a5.29,5.29,0,0,0,2.57,4,25.54,25.54,0,0,1,3.73,2.63A5.78,5.78,0,0,1,98.75,43.4Z"/><g class="cls-9"><path class="cls-8" d="M124.75,92.39a7,7,0,0,0,.06-2.11,5,5,0,0,0-.72-2,5.71,5.71,0,0,0-.78-3.81,3.63,3.63,0,0,0,0,.86c.06.57.12,1.14.13,1.71a6.47,6.47,0,0,1-.14,1.69,4,4,0,0,1-2.11,2.76,6.78,6.78,0,0,1-3.07.47,9.4,9.4,0,0,0,.46,2.63c.17.48.48,1.65,1.08,1.92s1.76-.22,2.3-.48l.17-.08a1.79,1.79,0,0,0,.72-.59,1.06,1.06,0,0,0,.14-.34,4.41,4.41,0,0,1,2.17,1.49,7.07,7.07,0,0,0,.2-2.13A5,5,0,0,0,124.75,92.39Z"/></g><path class="cls-7" d="M122.32,106.27a7.2,7.2,0,0,0-.85-.53,15,15,0,0,0-2.46-.3,2.08,2.08,0,0,1-.38-.13,3.36,3.36,0,0,1-.53-.32c-.81-.56-1.89-.77-1.76-1.72.2-1.47.81-2.83,1.13-4.28,0-.15.37-1.07.76-2s.78-1.71,1-1.61a9.43,9.43,0,0,0,5.09.65,1.86,1.86,0,0,1,.79,0,1.33,1.33,0,0,1,.58.41,14.43,14.43,0,0,1,3.55,6.58.76.76,0,0,1,0,.5c-.2.42-.9.3-1.39.41-.82.19-1.09,1-1.57,1.66A3.24,3.24,0,0,1,122.32,106.27Z"/><path class="cls-8" d="M125.73,96.45a1.33,1.33,0,0,0-.58-.41,1.86,1.86,0,0,0-.79,0,9.43,9.43,0,0,1-4-.27,13.86,13.86,0,0,1-1.65.34c-.29.58-.63,1.39-.87,2a2.26,2.26,0,0,1,1.1-.35,1.81,1.81,0,0,1,1.46,1.05,6.4,6.4,0,0,1,.78,2.29,1.38,1.38,0,0,0,1-.7c.19-.33.28-.7.44-1a2,2,0,0,1,2.16-1.23c.76.2,1.18,1,2,1.08a1.94,1.94,0,0,1,.36-1.17A15.56,15.56,0,0,0,125.73,96.45Z"/><path class="cls-7" d="M119.19,97.08a2.4,2.4,0,0,1-1.09-2.7,2.14,2.14,0,0,1,1.27-1.19,7.17,7.17,0,0,1,1.92-.44l1.31-.14a4.16,4.16,0,0,1,1.89.14,2.47,2.47,0,0,1,1.38,2.41,2.08,2.08,0,0,1-.14.85,2.18,2.18,0,0,1-1.42,1.07,9.8,9.8,0,0,1-2.19.18,6.19,6.19,0,0,1-2.42,0A2.27,2.27,0,0,1,119.19,97.08Z"/><path class="cls-7" d="M105.07,65.72c-1-1.07-2.86-1-4.33-1.47a6.44,6.44,0,0,1-3.61-2.68,7.61,7.61,0,0,1-.9-1.89,14.82,14.82,0,0,1-.54-2c.67,1.09,2.19,1.59,3.65,2a10.28,10.28,0,0,1,4.19,1.7,4.54,4.54,0,0,1,1.28,2A6.7,6.7,0,0,1,105.07,65.72Z"/><path class="cls-8" d="M105.95,69.68c-1-1.13-2.78-1.23-4.24-1.74A6.46,6.46,0,0,1,98.28,65a11.22,11.22,0,0,1-1.19-4c.6,1.13,2.09,1.73,3.53,2.22.72.24,1.48.47,2.19.77a6.19,6.19,0,0,1,1.88,1.19,4.42,4.42,0,0,1,1.16,2.08A6.6,6.6,0,0,1,105.95,69.68Z"/><path class="cls-7" d="M106.57,73.7c-.87-1.19-2.69-1.4-4.12-2a6.44,6.44,0,0,1-3.25-3.12,11.4,11.4,0,0,1-.94-4.08,3.66,3.66,0,0,0,1.36,1.44,12.68,12.68,0,0,0,2,1,10.22,10.22,0,0,1,3.94,2.22A5.21,5.21,0,0,1,106.57,73.7Z"/><path class="cls-8" d="M106.94,77.76c-.78-1.24-2.6-1.57-4-2.26a6.47,6.47,0,0,1-3-3.32,8.89,8.89,0,0,1-.53-2A20.05,20.05,0,0,1,99.23,68a3.71,3.71,0,0,0,1.27,1.52,12.28,12.28,0,0,0,2,1.12,10.25,10.25,0,0,1,3.79,2.46A5.2,5.2,0,0,1,106.94,77.76Z"/><path class="cls-7" d="M107.06,81.83c-.69-1.29-2.51-1.73-3.83-2.51a6.6,6.6,0,0,1-1.79-1.57,6.83,6.83,0,0,1-1-1.93,9.21,9.21,0,0,1-.4-2.06,20.48,20.48,0,0,1,0-2.11c.4,1.22,1.71,2.1,3.06,2.84a10.28,10.28,0,0,1,3.62,2.7,4.28,4.28,0,0,1,.75,2.26A6.14,6.14,0,0,1,107.06,81.83Z"/><path class="cls-8" d="M106.92,85.91c-.61-1.33-2.4-1.89-3.67-2.75a6.56,6.56,0,0,1-1.69-1.68,6.92,6.92,0,0,1-.92-2,9.1,9.1,0,0,1-.27-2.08,19.17,19.17,0,0,1,.11-2.11c.32,1.25,1.58,2.2,2.87,3a10.27,10.27,0,0,1,3.45,2.92A5.23,5.23,0,0,1,106.92,85.91Z"/><path class="cls-7" d="M106.55,89.94c-.55-1.35-2.29-2-3.51-2.95a6.53,6.53,0,0,1-2.37-3.85,11.48,11.48,0,0,1,.11-4.19,3.51,3.51,0,0,0,1,1.74,11.37,11.37,0,0,0,1.71,1.47,10.32,10.32,0,0,1,3.26,3.14A5.25,5.25,0,0,1,106.55,89.94Z"/><path class="cls-8" d="M106,93.93c-.51-1.35-2.22-2.08-3.39-3.08a6.41,6.41,0,0,1-2.16-4,11.43,11.43,0,0,1,.37-4.2,3.44,3.44,0,0,0,.85,1.79A11.53,11.53,0,0,0,103.3,86a10.69,10.69,0,0,1,3.07,3.32A5.31,5.31,0,0,1,106,93.93Z"/><path class="cls-7" d="M105.4,97.87c-.49-1.35-2.18-2.1-3.33-3.14a6.32,6.32,0,0,1-2-4.14,11.49,11.49,0,0,1,.6-4.26c.08,1.3,1.15,2.5,2.27,3.55a11.16,11.16,0,0,1,2.93,3.44A5.32,5.32,0,0,1,105.4,97.87Z"/><path class="cls-8" d="M104.77,101.77c-.5-1.33-2.19-2.09-3.33-3.15a6.23,6.23,0,0,1-1.94-4.23,11.26,11.26,0,0,1,.77-4.32c0,1.33,1,2.59,2.13,3.68a11.76,11.76,0,0,1,2.85,3.51A5.34,5.34,0,0,1,104.77,101.77Z"/><path class="cls-7" d="M104.19,105.63c-.52-1.31-2.23-2-3.38-3.09a6.14,6.14,0,0,1-1.94-4.28,11.17,11.17,0,0,1,.86-4.39c0,1.36,1,2.65,2,3.76a12.44,12.44,0,0,1,2.83,3.52A5.35,5.35,0,0,1,104.19,105.63Z"/><path class="cls-8" d="M103.74,109.47c-.57-1.27-2.3-1.95-3.48-3a6.06,6.06,0,0,1-2-4.28,11,11,0,0,1,.87-4.48c0,1.38,1,2.7,2,3.81A13.14,13.14,0,0,1,104,105,5.34,5.34,0,0,1,103.74,109.47Z"/><path class="cls-7" d="M103.48,113.29c-.65-1.22-2.4-1.8-3.64-2.77a6,6,0,0,1-2.16-4.26,10.89,10.89,0,0,1,.8-4.57c0,1.41,1,2.73,2.09,3.82a14.14,14.14,0,0,1,3,3.39A5.38,5.38,0,0,1,103.48,113.29Z"/><path class="cls-8" d="M103.48,117.07c-.74-1.16-2.53-1.62-3.81-2.51a5.91,5.91,0,0,1-2.4-4.17,10.85,10.85,0,0,1,.64-4.69c0,1.44,1.06,2.74,2.21,3.79a15.06,15.06,0,0,1,3.15,3.23A5.38,5.38,0,0,1,103.48,117.07Z"/><path class="cls-7" d="M103.78,120.79c-.83-1.07-2.66-1.38-4-2.17a5.83,5.83,0,0,1-2.69-4,10.6,10.6,0,0,1,.38-4.78c0,1.46,1.2,2.72,2.4,3.7a15.76,15.76,0,0,1,3.35,3A5.31,5.31,0,0,1,103.78,120.79Z"/><path class="cls-8" d="M100.74,120.37l-.17.09c-.54.28-1.64.87-2.29.58s-1-1.62-1.1-2.18a10.38,10.38,0,0,1,0-4.87c.14,1.48,1.37,2.67,2.65,3.56.74.53,2.22,1.19,1.57,2.22A1.88,1.88,0,0,1,100.74,120.37Z"/><path class="cls-8" d="M104,61.81c-1.06-1-2.93-.86-4.41-1.2a6.38,6.38,0,0,1-3.77-2.44,7.93,7.93,0,0,1-1-1.82,14.16,14.16,0,0,1-.66-2c.73,1,2.28,1.45,3.77,1.75a10.29,10.29,0,0,1,4.29,1.43,4.53,4.53,0,0,1,1.4,1.91A6.48,6.48,0,0,1,104,61.81Z"/><g class="cls-9"><path class="cls-8" d="M103.5,117a5.63,5.63,0,0,0,0-3.78,5.74,5.74,0,0,0,.33-3.57,3.1,3.1,0,0,0-.28.75,14,14,0,0,1-.92,3.06,4.5,4.5,0,0,1-2.56,2.3,6.31,6.31,0,0,1-3.1,0,9.22,9.22,0,0,0,0,1.53,7.21,7.21,0,0,0,.25,1.52c.14.56.49,1.9,1.1,2.18s1.75-.3,2.29-.58l.17-.09a1.88,1.88,0,0,0,.71-.6,1,1,0,0,0,.13-.33,5.08,5.08,0,0,1,2.19,1.35A5.62,5.62,0,0,0,103.5,117Z"/></g><path class="cls-7" d="M103.33,130.46a9.26,9.26,0,0,0-1-.14c-.82,0-1.55.59-2.37.73a1.8,1.8,0,0,1-.4,0,3,3,0,0,1-.64-.14c-1-.31-2.12-.17-2.39-1.39a20.56,20.56,0,0,1-.13-5.49,14.8,14.8,0,0,1,.52-2.4c.31-1.05.73-2,1-1.87a8.17,8.17,0,0,0,5.1.6,2,2,0,0,1,.79-.05,1.42,1.42,0,0,1,.59.34,26.48,26.48,0,0,1,4.4,4.62.42.42,0,0,1,.11.35c-.09.36-.78.5-1.21.75-.71.4-.73,1.17-.94,1.82A3.6,3.6,0,0,1,103.33,130.46Z"/><path class="cls-8" d="M104.34,120.68a1.42,1.42,0,0,0-.59-.34,2,2,0,0,0-.79.05,8.54,8.54,0,0,1-4-.19,14.31,14.31,0,0,1-1.64.39,15.3,15.3,0,0,0-.71,2.39,2,2,0,0,1,1.06-.5,2,2,0,0,1,1.59,1,10.23,10.23,0,0,1,1.22,2.3,1.48,1.48,0,0,0,.79-.92c.13-.37.14-.76.24-1.13a2,2,0,0,1,2-1.47c.77.1,1.29.74,2.07.68a1.41,1.41,0,0,1,.23-1C105.3,121.52,104.85,121.1,104.34,120.68Z"/><path class="cls-7" d="M97.86,121.66a2.8,2.8,0,0,1-1.14-3.12,2,2,0,0,1,1.34-1.24A6.35,6.35,0,0,1,100,117h1.32a4.6,4.6,0,0,1,1.87.29,2.32,2.32,0,0,1,1.27,2.21,1.68,1.68,0,0,1-.14.75,2.38,2.38,0,0,1-1.37,1.06,10.29,10.29,0,0,1-2.17.34,5.69,5.69,0,0,1-2.42.2A2.08,2.08,0,0,1,97.86,121.66Z"/><path class="cls-10" d="M41.69,86.94a12.06,12.06,0,0,0-7.8,8.83c-.44,2.14-.28,4.41-1,6.47s-2.94,3.88-5,3.14c-1.62-.58-2.38-2.42-2.75-4.11-1.64-7.63,1.34-15.93,7-21.25a28.13,28.13,0,0,1,21.62-7c3.66.34,5.79,3,4.22,6.81a9,9,0,0,1-5.2,4.63C49.24,85.82,45.3,85.72,41.69,86.94Z"/><path class="cls-3" d="M132.67,20.4a19.74,19.74,0,0,1-6.86,3.37L113,28.11c6-.76,12.11-1.53,18.17-1.07a36.9,36.9,0,0,1,8.43,1.59,9.69,9.69,0,0,1-2.76-3.48c-.94-2.43.1-5.3-.91-7.7a4.94,4.94,0,0,0-.78-1.26A7.72,7.72,0,0,1,132.67,20.4Z"/><path class="cls-3" d="M44.25,37.49C34.19,35.38,24.12,33.27,14,31.69l4.92,1.23c-1.58,2.89-.3,6.34,2,8.83.65-.23,1.3-.43,1.94-.6A111.26,111.26,0,0,1,44.25,37.49Z"/><path class="cls-10" d="M76.16,22.53A22.2,22.2,0,0,1,84.7,6.46l-.16.05C80,8,73.75,9.83,69.17,7.34l-1.76-.95A31,31,0,0,1,70,9.68,57.8,57.8,0,0,1,76.16,22.53Z"/><path class="cls-10" d="M48,22.61a19.2,19.2,0,0,1-5.21-11.9,22,22,0,0,1-6.38,4.21,20.34,20.34,0,0,1-6.44,1c1.54.45,3.05,1,4.56,1.59Z"/><path class="cls-10" d="M46.75,46.81A39.32,39.32,0,0,1,52,42.44c-1.66.61-3.32,1.22-5,1.75a56.41,56.41,0,0,1-15.79,2.57,17.69,17.69,0,0,1,2.57,1.15c2.54,1.42,3.87,4,5.95,6a15.66,15.66,0,0,0,1.82,1.54c.06-.3.12-.6.2-.89A18.27,18.27,0,0,1,46.75,46.81Z"/><path class="cls-4" d="M139.63,28.63A36.9,36.9,0,0,0,131.2,27c-6.06-.46-12.14.31-18.17,1.07l12.79-4.33a19.74,19.74,0,0,0,6.86-3.37,7.72,7.72,0,0,0,2.51-4.21c-1.93-2.3-5.77-2.67-9-2.51-5.81.29-11.5.91-16.75-2.48-2.72-1.75-4.77-4.46-7.64-5.93C96.58,2.57,90.3,4.59,84.7,6.46a22.2,22.2,0,0,0-8.54,16.07A57.8,57.8,0,0,0,70,9.68a31,31,0,0,0-2.58-3.29C63.85,4.5,60.1,2.78,56,3c-5.66.33-8.65,3.83-12.78,7.37l-.38.33A19.2,19.2,0,0,0,48,22.61L34.55,17.53C33,17,31.53,16.39,30,15.94a30.32,30.32,0,0,0-8,.88C16,18.68,12.14,24.89,11.62,31.1l2.34.59c10.16,1.58,20.23,3.69,30.29,5.8a111.26,111.26,0,0,0-21.39,3.66c-.64.17-1.29.37-1.94.6a12,12,0,0,0,2.75,2.19c2.33,1.34,5,1.91,7.5,2.82A56.41,56.41,0,0,0,47,44.19c1.69-.53,3.35-1.14,5-1.75a39.32,39.32,0,0,0-5.23,4.38,18.27,18.27,0,0,0-5,7.75c-.08.29-.15.59-.2.89,4,2.94,9.18,3.78,14,3.45,2-.13,4-.37,6-.69a43.67,43.67,0,0,0,5.74-4.66c3.67-3.36,8.14-6.84,13.07-6.1,3.53.53,6.32,3.11,9.19,5.23a42.5,42.5,0,0,0,11.19,5.93c5.94.51,12.89-.17,17.58-4.33q-6.65-4.77-13-10C102,41.54,98.7,38.64,94.7,37c-2.93-1.19-6.37-1.83-8.26-4.36,5.58,4.51,13.49,4.2,20.43,6,4.76,1.23,9.17,3.51,13.77,5.23l1.29.46c3.36-1.66,7.49-2,11.08-2.66.71-.12,1.42-.26,2.13-.45a16.45,16.45,0,0,0,5.56-2.66c1.39-1,2.69-2.43,2.81-4.16C143.67,32,141.57,30.37,139.63,28.63Z"/><path class="cls-3" d="M106.88,38.64c-6.95-1.8-14.85-1.49-20.43-6,1.89,2.53,5.33,3.17,8.26,4.36,4,1.63,7.32,4.53,10.65,7.29q6.3,5.23,13,10l.14-.12a4.24,4.24,0,0,1-1.51-4.6A7.82,7.82,0,0,1,120,45.51a12.37,12.37,0,0,1,1.94-1.17l-1.29-.46C116,42.16,111.63,39.88,106.88,38.64Z"/><path class="cls-10" d="M80.36,47.46c-4.92-.74-9.4,2.74-13.07,6.1a43.67,43.67,0,0,1-5.74,4.66A51.78,51.78,0,0,0,74.7,54.44c5.88-2.69,10.24-.18,15.94,2a39.78,39.78,0,0,0,10.1,2.15,42.5,42.5,0,0,1-11.19-5.93C86.68,50.56,83.88,48,80.36,47.46Z"/><path class="cls-3" d="M51.79,27.27a5.2,5.2,0,0,1,.14,5c-1,2-2.64,1.17-4.15,2.45a2,2,0,0,0-.52,2.59,2.84,2.84,0,0,0,2.21.81q1.6.08,3.2,0c1.32,0,3,0,3.5,1.23.23.51.19,1.14.5,1.61.56.84,1.82.69,2.8.44,3.42-.88,7.35-2.67,10.91-2a21.28,21.28,0,0,1,4.55,1.81,19.62,19.62,0,0,0,9.17,2.09,1.82,1.82,0,0,0,.94-.24,1.59,1.59,0,0,0,.57-1.1c.44-2.78-2-5.77-.61-8.23a4.36,4.36,0,0,1,3.48-2c2.86-.22,5.73.25,8.6.13s5.46-1.07,8.17-1.79a3,3,0,0,0,1.25-.55,1,1,0,0,0,.3-1.24c-.3-.51-1-.49-1.61-.41a57.4,57.4,0,0,1-10.54.37,67.25,67.25,0,0,1-9.72-.83,12.86,12.86,0,0,1-5.12-2.35A8.22,8.22,0,0,0,78,24a2,2,0,0,0-2,.18c-.33.29-.51.73-.83,1a2.78,2.78,0,0,1-1.25.58,17.79,17.79,0,0,1-10.84-.62c-1.6-.62-3.11-1.48-4.77-1.94a10.69,10.69,0,0,0-6.27.17,2.18,2.18,0,0,0-1.3.9C50.26,25.28,51.2,26.34,51.79,27.27Z"/><path class="cls-11" d="M60.6,21.71c-5.53.18-10.09-1.86-10.18-4.57l.07,2c.09,2.71,4.65,4.75,10.18,4.57s9.94-2.53,9.84-5.23l-.07-2C70.53,19.18,66.13,21.53,60.6,21.71Z"/><path class="cls-12" d="M65.6,12.48l-13.84,7a6.84,6.84,0,0,0,1,.69L67,13A12.61,12.61,0,0,0,65.6,12.48Z"/><path class="cls-13" d="M62.9,12q-.54-.05-1.11-.08l-1.06,0h-.47l-.36,0c-5.07.26-9.12,2.33-9.46,4.79a2.45,2.45,0,0,0,0,.41s0,0,0,0a2.46,2.46,0,0,0,.07.49,2.69,2.69,0,0,0,.2.54,4,4,0,0,0,1.08,1.31l13.84-7A16.68,16.68,0,0,0,62.9,12Z"/><path class="cls-13" d="M58.32,21.66a20.2,20.2,0,0,0,2.27.05c5.53-.18,9.94-2.53,9.84-5.23a2.52,2.52,0,0,0-.18-.86Z"/><path class="cls-12" d="M70,15.11,57.27,21.54q.51.07,1.05.11l11.93-6A3,3,0,0,0,70,15.11Z"/><path class="cls-12" d="M68,13.42,53.75,20.63a13.06,13.06,0,0,0,2,.64l13.6-6.88A6.45,6.45,0,0,0,68,13.42Z"/><path class="cls-13" d="M69.38,14.39l-13.6,6.88c.48.11,1,.2,1.49.27L70,15.11A4,4,0,0,0,69.38,14.39Z"/><path class="cls-13" d="M67,13,52.79,20.17a9.5,9.5,0,0,0,1,.46L68,13.42A9.66,9.66,0,0,0,67,13Z"/><path class="cls-11" d="M60.54,20.16c-5.15.17-8.51-1.83-8.56-3.28S55.15,13.22,60.3,13s8.51,1.83,8.56,3.28S65.7,20,60.54,20.16Z"/><path class="cls-14" d="M60.32,13.6c4.84-.16,8.09,1.59,8.52,3a1.08,1.08,0,0,0,0-.28c0-1.45-3.41-3.45-8.56-3.28S51.93,15.43,52,16.88a1.08,1.08,0,0,0,0,.27C52.35,15.72,55.48,13.76,60.32,13.6Z"/><path class="cls-12" d="M60.38,16.25,59,15.84l-.78.39.77.23a14.66,14.66,0,0,1-1.49.13l-1.28.65a14.62,14.62,0,0,0,2.63-.12l1.82-.92Z"/><path class="cls-12" d="M61.06,15.23c.51-.16.55-.33.11-.5l-1.36.69A4,4,0,0,0,61.06,15.23Z"/><path class="cls-12" d="M65.59,17.79c1-.4,1.47-.78,1.34-1.12l-3.32,1.68c.34-.07.67-.15,1-.24l.48.14.78-.39Z"/><path class="cls-12" d="M61.61,18.06c-.41-.12-.42-.26-.39-.34a4.08,4.08,0,0,0-1.44.19c-.58.19-.55.38.09.56a4.58,4.58,0,0,0,1.19.14l1-.49A1.88,1.88,0,0,1,61.61,18.06Z"/><path class="cls-12" d="M61.83,16.68a13.4,13.4,0,0,1,2-.13,4,4,0,0,1,1,.15h0L66,16.12a8.88,8.88,0,0,0-2.87-.21L60.91,17l2.08.62.78-.39Z"/><path class="cls-15" d="M56.25,15l-.34-.1-.78.39.13,0c-1.12.43-1.54.85-1.3,1.19l3.6-1.82C57.11,14.8,56.67,14.9,56.25,15Z"/><path class="cls-14" d="M52.81,20.18l.07,2a9.58,9.58,0,0,0,1,.47l-.07-2A9.59,9.59,0,0,1,52.81,20.18Z"/><path class="cls-14" d="M50.42,17.14l.07,2a3.23,3.23,0,0,0,1.34,2.34l-.07-2A3.23,3.23,0,0,1,50.42,17.14Z"/><path class="cls-14" d="M67.48,20.12l.07,2A8,8,0,0,0,69.22,21l-.07-2A8,8,0,0,1,67.48,20.12Z"/><path class="cls-14" d="M55.75,21.26l.07,2c.52.12,1.07.22,1.64.3l-.07-2C56.82,21.49,56.27,21.39,55.75,21.26Z"/><path class="cls-11" d="M46.42,30.54c-5.53.18-10.09-1.86-10.18-4.57l.07,2c.09,2.71,4.65,4.75,10.18,4.57s9.94-2.53,9.84-5.23l-.07-2C56.36,28,52,30.35,46.42,30.54Z"/><path class="cls-12" d="M51.43,21.31l-13.84,7a6.83,6.83,0,0,0,1,.69l14.25-7.21A12.61,12.61,0,0,0,51.43,21.31Z"/><path class="cls-13" d="M48.72,20.82q-.54-.05-1.11-.08l-1.06,0h-.47l-.36,0c-5.07.26-9.12,2.33-9.46,4.79a2.45,2.45,0,0,0,0,.41s0,0,0,0a2.46,2.46,0,0,0,.07.49,2.68,2.68,0,0,0,.2.54,4,4,0,0,0,1.08,1.31l13.84-7A16.68,16.68,0,0,0,48.72,20.82Z"/><path class="cls-13" d="M44.15,30.49a20.2,20.2,0,0,0,2.27.05c5.53-.18,9.94-2.53,9.84-5.23a2.52,2.52,0,0,0-.18-.86Z"/><path class="cls-12" d="M55.82,23.94,43.1,30.37q.51.07,1.05.11l11.93-6A3,3,0,0,0,55.82,23.94Z"/><path class="cls-12" d="M53.84,22.25,39.58,29.46a13.06,13.06,0,0,0,2,.64l13.6-6.88A6.45,6.45,0,0,0,53.84,22.25Z"/><path class="cls-13" d="M55.21,23.22,41.61,30.1c.48.11,1,.2,1.49.27l12.72-6.43A4,4,0,0,0,55.21,23.22Z"/><path class="cls-13" d="M52.86,21.79,38.61,29a9.5,9.5,0,0,0,1,.46l14.26-7.21A9.65,9.65,0,0,0,52.86,21.79Z"/><path class="cls-11" d="M46.37,29c-5.15.17-8.51-1.83-8.56-3.28S41,22,46.13,21.87s8.51,1.83,8.56,3.28S51.52,28.82,46.37,29Z"/><path class="cls-14" d="M46.14,22.42c4.84-.16,8.09,1.59,8.52,3a1.08,1.08,0,0,0,0-.28c0-1.45-3.41-3.45-8.56-3.28s-8.37,2.39-8.32,3.84a1.08,1.08,0,0,0,0,.27C38.18,24.54,41.31,22.58,46.14,22.42Z"/><path class="cls-12" d="M46.21,25.07l-1.38-.41-.78.39.77.23a14.67,14.67,0,0,1-1.49.13L42,26.07a14.62,14.62,0,0,0,2.63-.12L46.5,25Z"/><path class="cls-12" d="M46.89,24.06c.51-.16.55-.33.11-.5l-1.36.69A4,4,0,0,0,46.89,24.06Z"/><path class="cls-12" d="M51.42,26.62c1-.4,1.47-.78,1.34-1.12l-3.32,1.68c.34-.07.67-.15,1-.24l.48.14.78-.39Z"/><path class="cls-12" d="M47.44,26.89c-.41-.12-.42-.26-.39-.34a4.09,4.09,0,0,0-1.44.19c-.58.19-.55.38.09.56a4.58,4.58,0,0,0,1.19.14l1-.49A1.88,1.88,0,0,1,47.44,26.89Z"/><path class="cls-12" d="M47.66,25.5a13.4,13.4,0,0,1,2-.13,4,4,0,0,1,1,.15h0l1.14-.58A8.87,8.87,0,0,0,49,24.73l-2.22,1.12,2.08.62.78-.39Z"/><path class="cls-15" d="M42.07,23.85l-.34-.1-.78.39.13,0c-1.12.43-1.54.85-1.3,1.19l3.6-1.82C42.94,23.63,42.49,23.73,42.07,23.85Z"/><path class="cls-14" d="M38.64,29l.07,2a9.59,9.59,0,0,0,1,.47l-.07-2A9.59,9.59,0,0,1,38.64,29Z"/><path class="cls-14" d="M36.24,26l.07,2a3.23,3.23,0,0,0,1.34,2.34l-.07-2A3.23,3.23,0,0,1,36.24,26Z"/><path class="cls-14" d="M53.31,28.94l.07,2A8,8,0,0,0,55,29.88l-.07-2A8,8,0,0,1,53.31,28.94Z"/><path class="cls-14" d="M41.58,30.09l.07,2c.52.12,1.07.22,1.64.3l-.07-2C42.65,30.31,42.1,30.21,41.58,30.09Z"/><path class="cls-11" d="M111.65,32c-5.53.18-10.09-1.86-10.18-4.57l.07,2c.09,2.71,4.65,4.75,10.18,4.57s9.94-2.53,9.84-5.23l-.07-2C121.59,29.52,117.18,31.86,111.65,32Z"/><path class="cls-12" d="M116.65,22.81l-13.84,7a6.83,6.83,0,0,0,1,.69l14.25-7.21A12.61,12.61,0,0,0,116.65,22.81Z"/><path class="cls-13" d="M114,22.33q-.54-.05-1.11-.08l-1.06,0h-.47l-.36,0c-5.07.26-9.12,2.33-9.46,4.79a2.46,2.46,0,0,0,0,.41s0,0,0,0a2.46,2.46,0,0,0,.07.49,2.69,2.69,0,0,0,.2.54,4,4,0,0,0,1.08,1.31l13.84-7A16.68,16.68,0,0,0,114,22.33Z"/><path class="cls-13" d="M109.38,32a20.2,20.2,0,0,0,2.27.05c5.53-.18,9.94-2.53,9.84-5.23a2.52,2.52,0,0,0-.18-.86Z"/><path class="cls-12" d="M121,25.44l-12.72,6.43q.51.07,1.05.11l11.93-6A3,3,0,0,0,121,25.44Z"/><path class="cls-12" d="M119.06,23.75,104.81,31a13.06,13.06,0,0,0,2,.64l13.6-6.88A6.45,6.45,0,0,0,119.06,23.75Z"/><path class="cls-13" d="M120.44,24.72l-13.6,6.88c.48.11,1,.2,1.49.27L121,25.44A4,4,0,0,0,120.44,24.72Z"/><path class="cls-13" d="M118.09,23.29,103.84,30.5a9.49,9.49,0,0,0,1,.46l14.26-7.21A9.65,9.65,0,0,0,118.09,23.29Z"/><path class="cls-11" d="M111.6,30.5c-5.15.17-8.51-1.83-8.56-3.28s3.17-3.67,8.32-3.84,8.51,1.83,8.56,3.28S116.75,30.32,111.6,30.5Z"/><path class="cls-14" d="M111.37,23.93c4.84-.16,8.09,1.59,8.52,3a1.08,1.08,0,0,0,0-.28c0-1.45-3.41-3.45-8.56-3.28S103,25.77,103,27.22a1.08,1.08,0,0,0,0,.27C103.41,26,106.54,24.09,111.37,23.93Z"/><path class="cls-12" d="M111.43,26.58l-1.38-.41-.78.39.77.23a14.67,14.67,0,0,1-1.49.13l-1.28.65a14.62,14.62,0,0,0,2.63-.12l1.83-.92Z"/><path class="cls-12" d="M112.12,25.56c.51-.16.55-.33.11-.5l-1.36.69A4,4,0,0,0,112.12,25.56Z"/><path class="cls-12" d="M116.65,28.12c1-.4,1.47-.78,1.34-1.12l-3.32,1.68c.34-.07.67-.15,1-.24l.48.14.78-.39Z"/><path class="cls-12" d="M112.66,28.39c-.41-.12-.42-.26-.39-.34a4.09,4.09,0,0,0-1.44.19c-.58.19-.55.38.09.56a4.58,4.58,0,0,0,1.19.14l1-.49A1.88,1.88,0,0,1,112.66,28.39Z"/><path class="cls-12" d="M112.89,27a13.4,13.4,0,0,1,2-.13,4,4,0,0,1,1,.15h0l1.14-.58a8.87,8.87,0,0,0-2.87-.21L112,27.36,114,28l.78-.39Z"/><path class="cls-15" d="M107.3,25.35l-.34-.1-.78.39.13,0c-1.12.43-1.54.85-1.3,1.19l3.6-1.82C108.16,25.14,107.72,25.24,107.3,25.35Z"/><path class="cls-14" d="M103.86,30.52l.07,2a9.6,9.6,0,0,0,1,.47l-.07-2A9.58,9.58,0,0,1,103.86,30.52Z"/><path class="cls-14" d="M101.47,27.47l.07,2a3.23,3.23,0,0,0,1.34,2.34l-.07-2A3.23,3.23,0,0,1,101.47,27.47Z"/><path class="cls-14" d="M118.53,30.45l.07,2a8,8,0,0,0,1.67-1.11l-.07-2A8,8,0,0,1,118.53,30.45Z"/><path class="cls-14" d="M106.81,31.6l.07,2c.52.12,1.07.22,1.64.3l-.07-2C107.88,31.82,107.33,31.72,106.81,31.6Z"/><path class="cls-11" d="M72.8,37.81c-5.53.18-10.09-1.86-10.18-4.57l.07,2C62.78,38,67.34,40,72.87,39.85s9.94-2.53,9.84-5.23l-.07-2C82.73,35.29,78.33,37.63,72.8,37.81Z"/><path class="cls-12" d="M77.8,28.58,64,35.58a6.84,6.84,0,0,0,1,.69l14.25-7.21A12.61,12.61,0,0,0,77.8,28.58Z"/><path class="cls-13" d="M75.1,28.1Q74.55,28,74,28l-1.06,0h-.47l-.36,0c-5.07.26-9.12,2.33-9.46,4.79a2.45,2.45,0,0,0,0,.41s0,0,0,0a2.46,2.46,0,0,0,.07.49,2.68,2.68,0,0,0,.2.54A4,4,0,0,0,64,35.58l13.84-7A16.68,16.68,0,0,0,75.1,28.1Z"/><path class="cls-13" d="M70.52,37.76a20.2,20.2,0,0,0,2.27.05c5.53-.18,9.94-2.53,9.84-5.23a2.52,2.52,0,0,0-.18-.86Z"/><path class="cls-12" d="M82.19,31.21,69.47,37.65q.51.07,1.05.11l11.93-6A3,3,0,0,0,82.19,31.21Z"/><path class="cls-12" d="M80.21,29.52,66,36.73a13.06,13.06,0,0,0,2,.64l13.6-6.88A6.45,6.45,0,0,0,80.21,29.52Z"/><path class="cls-13" d="M81.58,30.49,68,37.37c.48.11,1,.2,1.49.27l12.72-6.43A4,4,0,0,0,81.58,30.49Z"/><path class="cls-13" d="M79.24,29.06,65,36.27a9.5,9.5,0,0,0,1,.46l14.26-7.21A9.65,9.65,0,0,0,79.24,29.06Z"/><path class="cls-11" d="M72.74,36.27c-5.15.17-8.51-1.83-8.56-3.28s3.17-3.67,8.32-3.84S81,31,81.06,32.43,77.9,36.09,72.74,36.27Z"/><path class="cls-14" d="M72.52,29.7c4.84-.16,8.09,1.59,8.52,3a1.08,1.08,0,0,0,0-.28C81,31,77.65,29,72.5,29.15S64.13,31.54,64.18,33a1.08,1.08,0,0,0,0,.27C64.55,31.82,67.68,29.86,72.52,29.7Z"/><path class="cls-12" d="M72.58,32.35l-1.38-.41-.78.39.77.23a14.67,14.67,0,0,1-1.49.13l-1.28.65a14.62,14.62,0,0,0,2.63-.12l1.82-.92Z"/><path class="cls-12" d="M73.26,31.33c.51-.16.55-.33.11-.5L72,31.53A4,4,0,0,0,73.26,31.33Z"/><path class="cls-12" d="M77.79,33.89c1-.4,1.47-.78,1.34-1.12l-3.32,1.68c.34-.07.67-.15,1-.24l.48.14.78-.39Z"/><path class="cls-12" d="M73.81,34.16c-.41-.12-.42-.26-.39-.34A4.09,4.09,0,0,0,72,34c-.58.19-.55.38.09.56a4.58,4.58,0,0,0,1.19.14l1-.49A1.88,1.88,0,0,1,73.81,34.16Z"/><path class="cls-12" d="M74,32.78a13.4,13.4,0,0,1,2-.13,4,4,0,0,1,1,.15h0l1.14-.58A8.87,8.87,0,0,0,75.33,32l-2.22,1.12,2.08.62.78-.39Z"/><path class="cls-15" d="M68.45,31.12,68.1,31l-.78.39.13,0c-1.12.43-1.54.85-1.3,1.19l3.6-1.82C69.31,30.91,68.87,31,68.45,31.12Z"/><path class="cls-14" d="M65,36.29l.07,2a9.6,9.6,0,0,0,1,.47l-.07-2A9.58,9.58,0,0,1,65,36.29Z"/><path class="cls-14" d="M62.61,33.24l.07,2A3.23,3.23,0,0,0,64,37.63l-.07-2A3.23,3.23,0,0,1,62.61,33.24Z"/><path class="cls-14" d="M79.68,36.22l.07,2a8,8,0,0,0,1.67-1.11l-.07-2A8,8,0,0,1,79.68,36.22Z"/><path class="cls-14" d="M68,37.37l.07,2c.52.12,1.07.22,1.64.3l-.07-2C69,37.59,68.47,37.49,68,37.37Z"/><path class="cls-11" d="M68.58,29.44c-5.53.18-10.09-1.86-10.18-4.57l.07,2c.09,2.71,4.65,4.75,10.18,4.57s9.94-2.53,9.84-5.23l-.07-2C78.52,26.91,74.11,29.26,68.58,29.44Z"/><path class="cls-12" d="M73.58,20.21l-13.84,7a6.83,6.83,0,0,0,1,.69L75,20.69A12.62,12.62,0,0,0,73.58,20.21Z"/><path class="cls-13" d="M70.88,19.73q-.54-.05-1.11-.08l-1.06,0h-.47l-.36,0c-5.07.26-9.12,2.33-9.46,4.79a2.45,2.45,0,0,0,0,.41s0,0,0,0a2.46,2.46,0,0,0,.07.49,2.69,2.69,0,0,0,.2.54,4,4,0,0,0,1.08,1.31l13.84-7A16.68,16.68,0,0,0,70.88,19.73Z"/><path class="cls-13" d="M66.31,29.39a20.2,20.2,0,0,0,2.27.05c5.53-.18,9.94-2.53,9.84-5.23a2.52,2.52,0,0,0-.18-.86Z"/><path class="cls-12" d="M78,22.84,65.26,29.27q.51.07,1.05.11l11.93-6A3,3,0,0,0,78,22.84Z"/><path class="cls-12" d="M76,21.15,61.74,28.36a13.06,13.06,0,0,0,2,.64l13.6-6.88A6.45,6.45,0,0,0,76,21.15Z"/><path class="cls-13" d="M77.37,22.12,63.77,29c.48.11,1,.2,1.49.27L78,22.84A4,4,0,0,0,77.37,22.12Z"/><path class="cls-13" d="M75,20.69,60.77,27.9a9.5,9.5,0,0,0,1,.46L76,21.15A9.65,9.65,0,0,0,75,20.69Z"/><path class="cls-11" d="M68.53,27.89c-5.15.17-8.51-1.83-8.56-3.28s3.17-3.67,8.32-3.84,8.51,1.83,8.56,3.28S73.68,27.72,68.53,27.89Z"/><path class="cls-14" d="M68.3,21.32c4.84-.16,8.09,1.59,8.52,3a1.08,1.08,0,0,0,0-.28c0-1.45-3.41-3.45-8.56-3.28S59.91,23.16,60,24.61a1.08,1.08,0,0,0,0,.27C60.34,23.45,63.47,21.49,68.3,21.32Z"/><path class="cls-12" d="M68.36,24,67,23.57l-.78.39.77.23a14.67,14.67,0,0,1-1.49.13L64.2,25a14.62,14.62,0,0,0,2.63-.12l1.82-.92Z"/><path class="cls-12" d="M69,23c.51-.16.55-.33.11-.5l-1.36.69A4,4,0,0,0,69,23Z"/><path class="cls-12" d="M73.58,25.52c1-.4,1.47-.78,1.34-1.12l-3.32,1.68c.34-.07.67-.15,1-.24l.48.14.78-.39Z"/><path class="cls-12" d="M69.59,25.79c-.41-.12-.42-.26-.39-.34a4.09,4.09,0,0,0-1.44.19c-.58.19-.55.38.09.56a4.58,4.58,0,0,0,1.19.14l1-.49A1.88,1.88,0,0,1,69.59,25.79Z"/><path class="cls-12" d="M69.82,24.41a13.39,13.39,0,0,1,2-.13,4,4,0,0,1,1,.15h0L74,23.85a8.87,8.87,0,0,0-2.87-.21L68.9,24.76l2.08.62.78-.39Z"/><path class="cls-15" d="M64.23,22.75l-.34-.1-.78.39.13,0c-1.12.43-1.54.85-1.3,1.19l3.6-1.82C65.09,22.53,64.65,22.63,64.23,22.75Z"/><path class="cls-14" d="M60.79,27.91l.07,2a9.6,9.6,0,0,0,1,.47l-.07-2A9.59,9.59,0,0,1,60.79,27.91Z"/><path class="cls-14" d="M58.4,24.87l.07,2a3.23,3.23,0,0,0,1.34,2.34l-.07-2A3.23,3.23,0,0,1,58.4,24.87Z"/><path class="cls-14" d="M75.46,27.85l.07,2a8,8,0,0,0,1.67-1.11l-.07-2A8,8,0,0,1,75.46,27.85Z"/><path class="cls-14" d="M63.74,29l.07,2c.52.12,1.07.22,1.64.3l-.07-2C64.81,29.22,64.26,29.12,63.74,29Z"/><path class="cls-11" d="M85.7,33.39c-5.53.18-10.09-1.86-10.18-4.57l.07,2c.09,2.71,4.65,4.75,10.18,4.57s9.94-2.53,9.84-5.23l-.07-2C95.64,30.87,91.23,33.21,85.7,33.39Z"/><path class="cls-12" d="M90.71,24.17l-13.84,7a6.83,6.83,0,0,0,1,.69l14.25-7.21A12.61,12.61,0,0,0,90.71,24.17Z"/><path class="cls-13" d="M88,23.68q-.54-.05-1.11-.08l-1.06,0h-.47l-.36,0c-5.07.26-9.12,2.33-9.46,4.79a2.45,2.45,0,0,0,0,.41s0,0,0,0a2.46,2.46,0,0,0,.07.49,2.69,2.69,0,0,0,.2.54,4,4,0,0,0,1.08,1.31l13.84-7A16.68,16.68,0,0,0,88,23.68Z"/><path class="cls-13" d="M83.43,33.34a20.2,20.2,0,0,0,2.27.05c5.53-.18,9.94-2.53,9.84-5.23a2.52,2.52,0,0,0-.18-.86Z"/><path class="cls-12" d="M95.1,26.79,82.38,33.23q.51.07,1.05.11l11.93-6A3,3,0,0,0,95.1,26.79Z"/><path class="cls-12" d="M93.12,25.1,78.86,32.32a13.07,13.07,0,0,0,2,.64l13.6-6.88A6.45,6.45,0,0,0,93.12,25.1Z"/><path class="cls-13" d="M94.49,26.07,80.89,33c.48.11,1,.2,1.49.27L95.1,26.79A4,4,0,0,0,94.49,26.07Z"/><path class="cls-13" d="M92.15,24.65,77.9,31.86a9.5,9.5,0,0,0,1,.46L93.12,25.1A9.66,9.66,0,0,0,92.15,24.65Z"/><path class="cls-11" d="M85.65,31.85C80.5,32,77.14,30,77.09,28.57s3.17-3.67,8.32-3.84S93.92,26.56,94,28,90.8,31.68,85.65,31.85Z"/><path class="cls-14" d="M85.43,25.28c4.84-.16,8.09,1.59,8.52,3A1.08,1.08,0,0,0,94,28c0-1.45-3.41-3.45-8.56-3.28S77,27.12,77.09,28.57a1.08,1.08,0,0,0,0,.27C77.46,27.4,80.59,25.44,85.43,25.28Z"/><path class="cls-12" d="M85.49,27.93l-1.38-.41-.78.39.77.23a14.66,14.66,0,0,1-1.49.13l-1.28.65A14.62,14.62,0,0,0,84,28.8l1.82-.92Z"/><path class="cls-12" d="M86.17,26.92c.51-.16.55-.33.11-.5l-1.36.69A4,4,0,0,0,86.17,26.92Z"/><path class="cls-12" d="M90.7,29.47c1-.4,1.47-.78,1.34-1.12L88.72,30c.34-.07.67-.15,1-.24l.48.14.78-.39Z"/><path class="cls-12" d="M86.72,29.75c-.41-.12-.42-.26-.39-.34a4.08,4.08,0,0,0-1.44.19c-.58.19-.55.38.09.56a4.58,4.58,0,0,0,1.19.14l1-.49A1.88,1.88,0,0,1,86.72,29.75Z"/><path class="cls-12" d="M86.94,28.36a13.4,13.4,0,0,1,2-.13,4,4,0,0,1,1,.15h0l1.14-.58a8.88,8.88,0,0,0-2.87-.21L86,28.71l2.08.62.78-.39Z"/><path class="cls-15" d="M81.35,26.71,81,26.6l-.78.39.13,0c-1.12.43-1.54.85-1.3,1.19l3.6-1.82C82.22,26.49,81.77,26.59,81.35,26.71Z"/><path class="cls-14" d="M77.92,31.87l.07,2a9.59,9.59,0,0,0,1,.47l-.07-2A9.58,9.58,0,0,1,77.92,31.87Z"/><path class="cls-14" d="M75.52,28.83l.07,2a3.23,3.23,0,0,0,1.34,2.34l-.07-2A3.23,3.23,0,0,1,75.52,28.83Z"/><path class="cls-14" d="M92.59,31.8l.07,2a8,8,0,0,0,1.67-1.11l-.07-2A8,8,0,0,1,92.59,31.8Z"/><path class="cls-14" d="M80.86,32.95l.07,2c.52.12,1.07.22,1.64.3l-.07-2C81.93,33.17,81.38,33.07,80.86,32.95Z"/><path class="cls-11" d="M78.78,24.47c-4.16-3.58-6.06-8.14-4.25-10.18l-1.37,1.54c-1.82,2,.09,6.59,4.25,10.18s9,4.84,10.82,2.8l1.37-1.54C87.79,29.31,82.95,28.05,78.78,24.47Z"/><path class="cls-12" d="M88.86,21.1l-15-4.2a6.61,6.61,0,0,0,.27,1.19l15.41,4.32A12.18,12.18,0,0,0,88.86,21.1Z"/><path class="cls-13" d="M87.22,18.93q-.36-.41-.76-.8t-.76-.72l-.35-.31-.27-.23c-3.88-3.22-8.27-4.43-10.24-2.87a2.52,2.52,0,0,0-.3.28v0a2.5,2.5,0,0,0-.29.41,2.69,2.69,0,0,0-.23.53,3.88,3.88,0,0,0-.12,1.68l15,4.2A16.15,16.15,0,0,0,87.22,18.93Z"/><path class="cls-13" d="M77.16,22.9a19.68,19.68,0,0,0,1.62,1.57c4.16,3.58,9,4.84,10.82,2.8a2.55,2.55,0,0,0,.46-.75Z"/><path class="cls-12" d="M90.23,26,76.47,22.11q.33.4.69.79l12.91,3.62A3,3,0,0,0,90.23,26Z"/><path class="cls-12" d="M90,23.4,74.54,19.08a12.62,12.62,0,0,0,1,1.83L90.29,25A6.24,6.24,0,0,0,90,23.4Z"/><path class="cls-13" d="M90.29,25,75.58,20.91c.27.4.57.8.9,1.2L90.23,26A3.9,3.9,0,0,0,90.29,25Z"/><path class="cls-13" d="M89.57,22.42,74.16,18.1a9.18,9.18,0,0,0,.38,1L90,23.4A9.32,9.32,0,0,0,89.57,22.42Z"/><path class="cls-11" d="M79.82,23.3c-3.88-3.34-4.94-7.06-4-8.15s4.86-.55,8.74,2.79,4.94,7.06,4,8.15S83.7,26.64,79.82,23.3Z"/><path class="cls-14" d="M84.23,18.36c3.64,3.13,4.8,6.6,4.12,7.92a1.11,1.11,0,0,0,.21-.18c1-1.09-.09-4.81-4-8.15s-7.77-3.88-8.74-2.79a1.1,1.1,0,0,0-.16.23C76.94,14.56,80.59,15.23,84.23,18.36Z"/><path class="cls-12" d="M82.43,20.34l-.72-1.23-.84-.24.41.69a14.38,14.38,0,0,1-1.18-.91l-1.39-.39a14.31,14.31,0,0,0,2,1.68l2,.55Z"/><path class="cls-12" d="M83.63,20.06c.49.22.63.13.43-.29l-1.47-.41A3.89,3.89,0,0,0,83.63,20.06Z"/><path class="cls-12" d="M85.16,25c1,.41,1.62.42,1.75.09l-3.59-1c.29.18.59.34.89.49l.25.42.84.24Z"/><path class="cls-12" d="M82.06,22.49c-.21-.36-.13-.47,0-.51a4,4,0,0,0-1.18-.83c-.55-.25-.66-.09-.33.47a4.45,4.45,0,0,0,.77.91l1.05.29A1.82,1.82,0,0,1,82.06,22.49Z"/><path class="cls-12" d="M83.19,21.63a13.12,13.12,0,0,1,1.56,1.25,3.87,3.87,0,0,1,.63.79h0l1.23.35a8.63,8.63,0,0,0-1.95-2.09l-2.4-.67,1.09,1.85.84.24Z"/><path class="cls-15" d="M80.26,16.66l-.18-.3-.84-.24.07.11c-1.11-.44-1.71-.42-1.78,0l3.89,1.09C81,17.09,80.65,16.86,80.26,16.66Z"/><path class="cls-14" d="M74.17,18.12,72.8,19.66a9.25,9.25,0,0,0,.39,1l1.37-1.54A9.25,9.25,0,0,1,74.17,18.12Z"/><path class="cls-14" d="M74.54,14.29l-1.37,1.54a3.2,3.2,0,0,0-.65,2.61l1.37-1.54A3.2,3.2,0,0,1,74.54,14.29Z"/><path class="cls-14" d="M84.91,27.93l-1.37,1.54a8.07,8.07,0,0,0,2,.31l1.37-1.54A8.07,8.07,0,0,1,84.91,27.93Z"/><path class="cls-14" d="M75.56,20.89l-1.37,1.54a16.19,16.19,0,0,0,1,1.32l1.37-1.54A16.19,16.19,0,0,1,75.56,20.89Z"/><path class="cls-11" d="M96.36,25.6c-5.53.18-10.09-1.86-10.18-4.57l.07,2c.09,2.71,4.65,4.75,10.18,4.57s9.94-2.53,9.84-5.23l-.07-2C106.29,23.07,101.89,25.42,96.36,25.6Z"/><path class="cls-12" d="M101.36,16.37l-13.84,7a6.83,6.83,0,0,0,1,.69l14.25-7.21A12.6,12.6,0,0,0,101.36,16.37Z"/><path class="cls-13" d="M98.66,15.89q-.54-.05-1.11-.08l-1.06,0H96l-.36,0c-5.07.26-9.12,2.33-9.46,4.79a2.45,2.45,0,0,0,0,.41s0,0,0,0a2.46,2.46,0,0,0,.07.49,2.69,2.69,0,0,0,.2.54,4,4,0,0,0,1.08,1.31l13.84-7A16.67,16.67,0,0,0,98.66,15.89Z"/><path class="cls-13" d="M94.08,25.55a20.19,20.19,0,0,0,2.27.05c5.53-.18,9.94-2.53,9.84-5.23a2.52,2.52,0,0,0-.18-.86Z"/><path class="cls-12" d="M105.75,19,93,25.43q.51.07,1.05.11l11.93-6A3,3,0,0,0,105.75,19Z"/><path class="cls-12" d="M103.77,17.31,89.51,24.52a13.06,13.06,0,0,0,2,.64l13.6-6.88A6.45,6.45,0,0,0,103.77,17.31Z"/><path class="cls-13" d="M105.14,18.28l-13.6,6.88c.48.11,1,.2,1.49.27L105.75,19A4,4,0,0,0,105.14,18.28Z"/><path class="cls-13" d="M102.8,16.85,88.55,24.06a9.5,9.5,0,0,0,1,.46l14.26-7.21A9.66,9.66,0,0,0,102.8,16.85Z"/><path class="cls-11" d="M96.3,24.05c-5.15.17-8.51-1.83-8.56-3.28s3.17-3.67,8.32-3.84,8.51,1.83,8.56,3.28S101.46,23.88,96.3,24.05Z"/><path class="cls-14" d="M96.08,17.49c4.84-.16,8.09,1.59,8.52,3a1.08,1.08,0,0,0,0-.28c0-1.45-3.41-3.45-8.56-3.28s-8.37,2.39-8.32,3.84a1.08,1.08,0,0,0,0,.27C88.11,19.61,91.24,17.65,96.08,17.49Z"/><path class="cls-12" d="M96.14,20.14l-1.38-.41-.78.39.78.23a14.66,14.66,0,0,1-1.49.13L92,21.13A14.62,14.62,0,0,0,94.61,21l1.83-.92Z"/><path class="cls-12" d="M96.82,19.12c.51-.16.55-.33.11-.5l-1.36.69A4,4,0,0,0,96.82,19.12Z"/><path class="cls-12" d="M101.35,21.68c1-.4,1.47-.78,1.34-1.12l-3.32,1.68c.34-.07.67-.15,1-.24l.48.14.78-.39Z"/><path class="cls-12" d="M97.37,22c-.41-.12-.42-.26-.39-.34a4.08,4.08,0,0,0-1.44.19c-.58.19-.55.38.09.56a4.58,4.58,0,0,0,1.19.14l1-.49A1.88,1.88,0,0,1,97.37,22Z"/><path class="cls-12" d="M97.59,20.57a13.39,13.39,0,0,1,2-.13,4,4,0,0,1,1,.15h0l1.14-.58a8.88,8.88,0,0,0-2.87-.21l-2.22,1.12,2.08.62.78-.39Z"/><path class="cls-15" d="M92,18.91l-.34-.1-.78.39.13,0c-1.12.43-1.54.85-1.3,1.19l3.6-1.82C92.87,18.69,92.43,18.79,92,18.91Z"/><path class="cls-14" d="M88.57,24.07l.07,2a9.59,9.59,0,0,0,1,.47l-.07-2A9.59,9.59,0,0,1,88.57,24.07Z"/><path class="cls-14" d="M86.18,21l.07,2a3.23,3.23,0,0,0,1.34,2.34l-.07-2A3.23,3.23,0,0,1,86.18,21Z"/><path class="cls-14" d="M103.24,24l.07,2A8,8,0,0,0,105,24.94l-.07-2A8,8,0,0,1,103.24,24Z"/><path class="cls-14" d="M91.51,25.15l.07,2c.52.12,1.07.22,1.64.3l-.07-2C92.58,25.38,92,25.28,91.51,25.15Z"/><path class="cls-11" d="M91.27,20.92c-5.14.17-9.39-1.73-9.47-4.25l.07,1.9c.09,2.52,4.33,4.42,9.47,4.25s9.25-2.35,9.16-4.87l-.07-1.9C100.52,18.58,96.42,20.75,91.27,20.92Z"/><path class="cls-12" d="M95.93,12.34,83.05,18.85a6.35,6.35,0,0,0,1,.64l13.26-6.71A11.72,11.72,0,0,0,95.93,12.34Z"/><path class="cls-13" d="M93.42,11.89q-.51-.05-1-.07H90.63c-4.72.24-8.48,2.16-8.81,4.45a2.28,2.28,0,0,0,0,.38s0,0,0,0a2.29,2.29,0,0,0,.06.46,2.5,2.5,0,0,0,.18.5,3.68,3.68,0,0,0,1,1.21l12.88-6.51A15.52,15.52,0,0,0,93.42,11.89Z"/><path class="cls-13" d="M89.16,20.88a18.78,18.78,0,0,0,2.11,0c5.14-.17,9.25-2.35,9.16-4.87a2.34,2.34,0,0,0-.17-.8Z"/><path class="cls-12" d="M100,14.79l-11.83,6,1,.11,11.1-5.62A2.8,2.8,0,0,0,100,14.79Z"/><path class="cls-12" d="M98.17,13.21,84.91,19.92a12.15,12.15,0,0,0,1.89.6l12.65-6.4A6,6,0,0,0,98.17,13.21Z"/><path class="cls-13" d="M99.45,14.12,86.8,20.52c.44.1.91.19,1.39.25l11.83-6A3.71,3.71,0,0,0,99.45,14.12Z"/><path class="cls-13" d="M97.27,12.79,84,19.49a8.84,8.84,0,0,0,.9.43l13.27-6.71A9,9,0,0,0,97.27,12.79Z"/><path class="cls-11" d="M91.22,19.49c-4.79.16-7.92-1.7-8-3.05S86.2,13,91,12.86s7.92,1.7,8,3.05S96,19.33,91.22,19.49Z"/><path class="cls-14" d="M91,13.38c4.5-.15,7.53,1.48,7.92,2.8a1,1,0,0,0,0-.26c0-1.35-3.17-3.21-8-3.05s-7.79,2.22-7.74,3.57a1,1,0,0,0,0,.25C83.61,15.35,86.52,13.52,91,13.38Z"/><path class="cls-12" d="M91.07,15.84l-1.28-.38-.72.37.72.21a13.64,13.64,0,0,1-1.39.12l-1.2.6a13.6,13.6,0,0,0,2.45-.11l1.7-.86Z"/><path class="cls-12" d="M91.71,14.9c.48-.15.51-.31.11-.46l-1.27.64A3.68,3.68,0,0,0,91.71,14.9Z"/><path class="cls-12" d="M95.92,17.28c1-.37,1.37-.73,1.25-1L94.08,17.8c.31-.06.62-.14.92-.22l.44.13.72-.37Z"/><path class="cls-12" d="M92.22,17.53c-.38-.11-.39-.24-.36-.32a3.8,3.8,0,0,0-1.34.18c-.54.17-.51.35.08.52a4.27,4.27,0,0,0,1.11.13l.9-.46A1.75,1.75,0,0,1,92.22,17.53Z"/><path class="cls-12" d="M92.42,16.24a12.47,12.47,0,0,1,1.87-.12,3.72,3.72,0,0,1,.94.14h0l1.06-.54a8.26,8.26,0,0,0-2.67-.2l-2.06,1,1.93.57.72-.37Z"/><path class="cls-15" d="M87.23,14.7l-.32-.09-.72.37.12,0c-1,.4-1.43.79-1.21,1.11l3.35-1.69C88,14.5,87.62,14.59,87.23,14.7Z"/><path class="cls-14" d="M84,19.51l.07,1.9a8.92,8.92,0,0,0,.91.43l-.07-1.9A8.92,8.92,0,0,1,84,19.51Z"/><path class="cls-14" d="M81.8,16.68l.07,1.9a3,3,0,0,0,1.25,2.18l-.07-1.9A3,3,0,0,1,81.8,16.68Z"/><path class="cls-14" d="M97.68,19.44l.07,1.9a7.4,7.4,0,0,0,1.55-1l-.07-1.9A7.4,7.4,0,0,1,97.68,19.44Z"/><path class="cls-14" d="M86.77,20.51l.07,1.9c.49.11,1,.21,1.53.28l-.07-1.9C87.76,20.72,87.25,20.62,86.77,20.51Z"/><path class="cls-11" d="M52.13,41.08c-5.53.18-10.09-1.86-10.18-4.57l.07,2c.09,2.71,4.65,4.75,10.18,4.57S62.13,40.6,62,37.89l-.07-2C62.06,38.56,57.66,40.9,52.13,41.08Z"/><path class="cls-12" d="M57.13,31.86l-13.84,7a6.83,6.83,0,0,0,1,.69l14.25-7.21A12.6,12.6,0,0,0,57.13,31.86Z"/><path class="cls-13" d="M54.43,31.37q-.54-.05-1.11-.08l-1.06,0h-.47l-.36,0c-5.07.26-9.12,2.33-9.46,4.79a2.45,2.45,0,0,0,0,.41s0,0,0,0A2.46,2.46,0,0,0,42,37a2.69,2.69,0,0,0,.2.54,4,4,0,0,0,1.08,1.31l13.84-7A16.67,16.67,0,0,0,54.43,31.37Z"/><path class="cls-13" d="M49.85,41a20.19,20.19,0,0,0,2.27.05c5.53-.18,9.94-2.53,9.84-5.23a2.52,2.52,0,0,0-.18-.86Z"/><path class="cls-12" d="M61.52,34.48,48.8,40.92q.51.07,1.05.11l11.93-6A3,3,0,0,0,61.52,34.48Z"/><path class="cls-12" d="M59.54,32.79,45.28,40a13.06,13.06,0,0,0,2,.64l13.6-6.88A6.45,6.45,0,0,0,59.54,32.79Z"/><path class="cls-13" d="M60.91,33.76l-13.6,6.88c.48.11,1,.2,1.49.27l12.72-6.43A4,4,0,0,0,60.91,33.76Z"/><path class="cls-13" d="M58.57,32.34,44.32,39.54a9.5,9.5,0,0,0,1,.46l14.26-7.21A9.66,9.66,0,0,0,58.57,32.34Z"/><path class="cls-11" d="M52.07,39.54c-5.15.17-8.51-1.83-8.56-3.28s3.17-3.67,8.32-3.84,8.51,1.83,8.56,3.28S57.23,39.37,52.07,39.54Z"/><path class="cls-14" d="M51.85,33c4.84-.16,8.09,1.59,8.52,3a1.08,1.08,0,0,0,0-.28c0-1.45-3.41-3.45-8.56-3.28s-8.37,2.39-8.32,3.84a1.08,1.08,0,0,0,0,.27C43.88,35.09,47,33.13,51.85,33Z"/><path class="cls-12" d="M51.91,35.62l-1.38-.41-.78.39.77.23A14.65,14.65,0,0,1,49,36l-1.28.65a14.62,14.62,0,0,0,2.63-.12l1.83-.92Z"/><path class="cls-12" d="M52.59,34.6c.51-.16.55-.33.11-.5l-1.36.69A4,4,0,0,0,52.59,34.6Z"/><path class="cls-12" d="M57.12,37.16c1-.4,1.47-.78,1.34-1.12l-3.32,1.68c.34-.07.67-.15,1-.24l.48.14.78-.39Z"/><path class="cls-12" d="M53.14,37.44c-.41-.12-.42-.26-.39-.34a4.08,4.08,0,0,0-1.44.19c-.58.19-.55.38.09.56a4.58,4.58,0,0,0,1.19.14l1-.49A1.88,1.88,0,0,1,53.14,37.44Z"/><path class="cls-12" d="M53.36,36.05a13.39,13.39,0,0,1,2-.13,4,4,0,0,1,1,.15h0l1.14-.58a8.88,8.88,0,0,0-2.87-.21L52.44,36.4l2.08.62.78-.39Z"/><path class="cls-15" d="M47.78,34.4l-.34-.1-.78.39.13,0c-1.12.43-1.54.85-1.3,1.19l3.6-1.82C48.64,34.18,48.2,34.28,47.78,34.4Z"/><path class="cls-14" d="M44.34,39.56l.07,2a9.58,9.58,0,0,0,1,.47l-.07-2A9.58,9.58,0,0,1,44.34,39.56Z"/><path class="cls-14" d="M41.95,36.52l.07,2a3.23,3.23,0,0,0,1.34,2.34l-.07-2A3.23,3.23,0,0,1,41.95,36.52Z"/><path class="cls-14" d="M59,39.49l.07,2a8,8,0,0,0,1.67-1.11l-.07-2A8,8,0,0,1,59,39.49Z"/><path class="cls-14" d="M47.28,40.64l.07,2c.52.12,1.07.22,1.64.3l-.07-2C48.35,40.86,47.8,40.76,47.28,40.64Z"/><path class="cls-11" d="M67.45,43.28c-5.53.18-10.09-1.86-10.18-4.57l.07,2c.09,2.71,4.65,4.75,10.18,4.57s9.94-2.53,9.84-5.23l-.07-2C77.39,40.75,73,43.1,67.45,43.28Z"/><path class="cls-12" d="M72.45,34.05l-13.84,7a6.83,6.83,0,0,0,1,.69l14.25-7.21A12.61,12.61,0,0,0,72.45,34.05Z"/><path class="cls-13" d="M69.75,33.57q-.54-.05-1.11-.08l-1.06,0h-.47l-.36,0c-5.07.26-9.12,2.33-9.46,4.79a2.45,2.45,0,0,0,0,.41s0,0,0,0a2.46,2.46,0,0,0,.07.49,2.69,2.69,0,0,0,.2.54,4,4,0,0,0,1.08,1.31l13.84-7A16.68,16.68,0,0,0,69.75,33.57Z"/><path class="cls-13" d="M65.18,43.23a20.19,20.19,0,0,0,2.27.05C73,43.1,77.39,40.75,77.29,38a2.52,2.52,0,0,0-.18-.86Z"/><path class="cls-12" d="M76.84,36.68,64.13,43.11q.51.07,1.05.11l11.93-6A3,3,0,0,0,76.84,36.68Z"/><path class="cls-12" d="M74.86,35,60.61,42.2a13.05,13.05,0,0,0,2,.64L76.24,36A6.45,6.45,0,0,0,74.86,35Z"/><path class="cls-13" d="M76.24,36l-13.6,6.88c.48.11,1,.2,1.49.27l12.72-6.43A4,4,0,0,0,76.24,36Z"/><path class="cls-13" d="M73.89,34.53,59.64,41.74a9.51,9.51,0,0,0,1,.46L74.86,35A9.66,9.66,0,0,0,73.89,34.53Z"/><path class="cls-11" d="M67.4,41.73c-5.15.17-8.51-1.83-8.56-3.28s3.17-3.67,8.32-3.84,8.51,1.83,8.56,3.28S72.55,41.56,67.4,41.73Z"/><path class="cls-14" d="M67.17,35.16c4.84-.16,8.09,1.59,8.52,3a1.08,1.08,0,0,0,0-.28c0-1.45-3.41-3.45-8.56-3.28S58.78,37,58.83,38.45a1.08,1.08,0,0,0,0,.27C59.21,37.29,62.34,35.32,67.17,35.16Z"/><path class="cls-12" d="M67.23,37.82l-1.38-.41-.78.39.78.23a14.68,14.68,0,0,1-1.49.13l-1.28.65a14.62,14.62,0,0,0,2.63-.12l1.83-.92Z"/><path class="cls-12" d="M67.92,36.8c.51-.16.55-.33.11-.5L66.67,37A4,4,0,0,0,67.92,36.8Z"/><path class="cls-12" d="M72.45,39.36c1-.4,1.47-.78,1.34-1.12l-3.32,1.68c.34-.07.67-.15,1-.24l.48.14.78-.39Z"/><path class="cls-12" d="M68.46,39.63c-.41-.12-.42-.26-.39-.34a4.08,4.08,0,0,0-1.44.19c-.58.19-.55.38.09.56a4.58,4.58,0,0,0,1.19.14l1-.49A1.88,1.88,0,0,1,68.46,39.63Z"/><path class="cls-12" d="M68.69,38.25a13.39,13.39,0,0,1,2-.13,4,4,0,0,1,1,.15h0l1.14-.58A8.87,8.87,0,0,0,70,37.47L67.77,38.6l2.08.62.78-.39Z"/><path class="cls-15" d="M63.1,36.59l-.34-.1-.78.39.13,0c-1.12.43-1.54.85-1.3,1.19l3.6-1.82C64,36.37,63.52,36.47,63.1,36.59Z"/><path class="cls-14" d="M59.66,41.75l.07,2a9.59,9.59,0,0,0,1,.47l-.07-2A9.6,9.6,0,0,1,59.66,41.75Z"/><path class="cls-14" d="M57.27,38.71l.07,2a3.23,3.23,0,0,0,1.34,2.34l-.07-2A3.23,3.23,0,0,1,57.27,38.71Z"/><path class="cls-14" d="M74.33,41.69l.07,2a8,8,0,0,0,1.67-1.11l-.07-2A8,8,0,0,1,74.33,41.69Z"/><path class="cls-14" d="M62.61,42.83l.07,2c.52.12,1.07.22,1.64.3l-.07-2C63.68,43.06,63.13,43,62.61,42.83Z"/><path class="cls-11" d="M104.84,40.72c-5.53.18-10.09-1.86-10.18-4.57l.07,2c.09,2.71,4.65,4.75,10.18,4.57s9.94-2.53,9.84-5.23l-.07-2C114.78,38.19,110.37,40.54,104.84,40.72Z"/><path class="cls-12" d="M109.84,31.49,96,38.49a6.83,6.83,0,0,0,1,.69L111.28,32A12.61,12.61,0,0,0,109.84,31.49Z"/><path class="cls-13" d="M107.14,31q-.54-.05-1.11-.08l-1.06,0h-.47l-.36,0c-5.07.26-9.12,2.33-9.46,4.79a2.45,2.45,0,0,0,0,.41s0,0,0,0a2.46,2.46,0,0,0,.07.49,2.68,2.68,0,0,0,.2.54A4,4,0,0,0,96,38.49l13.84-7A16.68,16.68,0,0,0,107.14,31Z"/><path class="cls-13" d="M102.57,40.67a20.19,20.19,0,0,0,2.27.05c5.53-.18,9.94-2.53,9.84-5.23a2.52,2.52,0,0,0-.18-.86Z"/><path class="cls-12" d="M114.23,34.12l-12.72,6.43q.51.07,1.05.11l11.93-6A3,3,0,0,0,114.23,34.12Z"/><path class="cls-12" d="M112.25,32.43,98,39.64a13.06,13.06,0,0,0,2,.64l13.6-6.88A6.45,6.45,0,0,0,112.25,32.43Z"/><path class="cls-13" d="M113.63,33.4,100,40.28c.48.11,1,.2,1.49.27l12.72-6.43A4,4,0,0,0,113.63,33.4Z"/><path class="cls-13" d="M111.28,32,97,39.18a9.51,9.51,0,0,0,1,.46l14.26-7.21A9.67,9.67,0,0,0,111.28,32Z"/><path class="cls-11" d="M104.79,39.17c-5.15.17-8.51-1.83-8.56-3.28s3.17-3.67,8.32-3.84,8.51,1.83,8.56,3.28S109.94,39,104.79,39.17Z"/><path class="cls-14" d="M104.56,32.6c4.84-.16,8.09,1.59,8.52,3a1.08,1.08,0,0,0,0-.28c0-1.45-3.41-3.45-8.56-3.28s-8.37,2.39-8.32,3.84a1.08,1.08,0,0,0,0,.27C96.6,34.73,99.73,32.76,104.56,32.6Z"/><path class="cls-12" d="M104.62,35.26l-1.38-.41-.78.39.77.23a14.66,14.66,0,0,1-1.49.13l-1.28.65a14.62,14.62,0,0,0,2.63-.12l1.82-.92Z"/><path class="cls-12" d="M105.31,34.24c.51-.16.55-.33.11-.5l-1.36.69A4,4,0,0,0,105.31,34.24Z"/><path class="cls-12" d="M109.84,36.8c1-.4,1.47-.78,1.34-1.12l-3.32,1.68c.34-.07.67-.15,1-.24l.48.14.78-.39Z"/><path class="cls-12" d="M105.85,37.07c-.41-.12-.42-.26-.39-.34a4.08,4.08,0,0,0-1.44.19c-.58.19-.55.38.09.56a4.58,4.58,0,0,0,1.19.14l1-.49A1.88,1.88,0,0,1,105.85,37.07Z"/><path class="cls-12" d="M106.08,35.69a13.39,13.39,0,0,1,2-.13,4,4,0,0,1,1,.15h0l1.14-.58a8.88,8.88,0,0,0-2.87-.21L105.16,36l2.08.62.78-.39Z"/><path class="cls-15" d="M100.49,34l-.34-.1-.78.39.13,0c-1.12.43-1.54.85-1.3,1.19l3.6-1.82C101.35,33.81,100.91,33.91,100.49,34Z"/><path class="cls-14" d="M97.05,39.19l.07,2a9.59,9.59,0,0,0,1,.47l-.07-2A9.59,9.59,0,0,1,97.05,39.19Z"/><path class="cls-14" d="M94.66,36.15l.07,2a3.23,3.23,0,0,0,1.34,2.34l-.07-2A3.23,3.23,0,0,1,94.66,36.15Z"/><path class="cls-14" d="M111.72,39.13l.07,2a8,8,0,0,0,1.67-1.11l-.07-2A8,8,0,0,1,111.72,39.13Z"/><path class="cls-14" d="M100,40.27l.07,2c.52.12,1.07.22,1.64.3l-.07-2C101.06,40.5,100.52,40.4,100,40.27Z"/><path class="cls-11" d="M79.88,47.12c-5.09-2.12-8.35-5.87-7.28-8.36l-.81,1.88C70.72,43.14,74,46.88,79.07,49s10.1,1.82,11.17-.67l.81-1.88C90,48.95,85,49.25,79.88,47.12Z"/><path class="cls-12" d="M88.37,40.83l-15.55.62a6.69,6.69,0,0,0,.64,1l16-.64A12.38,12.38,0,0,0,88.37,40.83Z"/><path class="cls-13" d="M86.13,39.27q-.47-.27-1-.53t-1-.45l-.43-.19L83.45,38c-4.71-1.87-9.27-1.67-10.64.42a2.48,2.48,0,0,0-.2.36v0a2.47,2.47,0,0,0-.15.48,2.67,2.67,0,0,0-.05.57,3.89,3.89,0,0,0,.42,1.63l15.55-.62A16.42,16.42,0,0,0,86.13,39.27Z"/><path class="cls-13" d="M77.84,46.14a20,20,0,0,0,2,1C85,49.25,90,48.95,91.05,46.46a2.52,2.52,0,0,0,.2-.85Z"/><path class="cls-12" d="M91.23,45l-14.29.57q.44.28.9.54l13.41-.53A3,3,0,0,0,91.23,45Z"/><path class="cls-12" d="M90.16,42.67l-16,.64a12.81,12.81,0,0,0,1.57,1.42L91,44.12A6.31,6.31,0,0,0,90.16,42.67Z"/><path class="cls-13" d="M91,44.12l-15.28.61q.58.45,1.23.86L91.23,45A3.92,3.92,0,0,0,91,44.12Z"/><path class="cls-13" d="M89.47,41.86l-16,.64a9.31,9.31,0,0,0,.68.82l16-.64A9.47,9.47,0,0,0,89.47,41.86Z"/><path class="cls-11" d="M80.5,45.7c-4.75-2-6.94-5.18-6.36-6.52s4.44-2,9.19,0,6.94,5.18,6.36,6.52S85.24,47.68,80.5,45.7Z"/><path class="cls-14" d="M83.11,39.65c4.45,1.86,6.66,4.79,6.43,6.25a1.1,1.1,0,0,0,.14-.24c.58-1.34-1.61-4.54-6.36-6.52s-8.61-1.3-9.19,0a1.09,1.09,0,0,0-.07.27C75,38.28,78.65,37.79,83.11,39.65Z"/><path class="cls-12" d="M82,42.08,81,41.14l-.87,0,.6.53a14.58,14.58,0,0,1-1.41-.5l-1.44.06a14.51,14.51,0,0,0,2.44,1l2.05-.08Z"/><path class="cls-12" d="M83.08,41.44c.53.06.64-.07.32-.4l-1.53.06A3.94,3.94,0,0,0,83.08,41.44Z"/><path class="cls-12" d="M86.09,45.64c1.11.07,1.67-.1,1.69-.46l-3.73.15c.33.08.67.14,1,.2l.37.32.87,0Z"/><path class="cls-12" d="M82.36,44.24c-.32-.28-.28-.41-.21-.47a4.07,4.07,0,0,0-1.39-.42c-.61-.07-.66.11-.16.55a4.52,4.52,0,0,0,1,.63l1.09,0A1.85,1.85,0,0,1,82.36,44.24Z"/><path class="cls-12" d="M83.16,43.07a13.31,13.31,0,0,1,1.88.71,3.94,3.94,0,0,1,.85.55h0l1.28-.05a8.77,8.77,0,0,0-2.51-1.38l-2.49.1,1.62,1.42.87,0Z"/><path class="cls-15" d="M78.8,39.26,78.54,39l-.87,0,.1.09c-1.2-.07-1.76.13-1.69.55l4-.16C79.68,39.42,79.23,39.32,78.8,39.26Z"/><path class="cls-14" d="M73.47,42.52l-.81,1.88a9.38,9.38,0,0,0,.69.83l.81-1.88A9.39,9.39,0,0,1,73.47,42.52Z"/><path class="cls-14" d="M72.61,38.77l-.81,1.88A3.19,3.19,0,0,0,72,43.32l.81-1.88A3.19,3.19,0,0,1,72.61,38.77Z"/><path class="cls-14" d="M86.81,48.53,86,50.41a8.07,8.07,0,0,0,2-.32l.81-1.88A8.07,8.07,0,0,1,86.81,48.53Z"/><path class="cls-14" d="M75.68,44.71l-.81,1.88a16.44,16.44,0,0,0,1.36.95L77,45.66A16.44,16.44,0,0,1,75.68,44.71Z"/><path class="cls-11" d="M101.34,36.59c-5.53.18-10.09-1.86-10.18-4.57l.07,2c.09,2.71,4.65,4.75,10.18,4.57s9.94-2.53,9.84-5.23l-.07-2C111.28,34.06,106.87,36.4,101.34,36.59Z"/><path class="cls-12" d="M106.35,27.36l-13.84,7a6.83,6.83,0,0,0,1,.69l14.25-7.21A12.6,12.6,0,0,0,106.35,27.36Z"/><path class="cls-13" d="M103.65,26.87q-.54-.05-1.11-.08l-1.06,0H101l-.36,0c-5.07.26-9.12,2.33-9.46,4.79a2.45,2.45,0,0,0,0,.41s0,0,0,0a2.46,2.46,0,0,0,.07.49,2.68,2.68,0,0,0,.2.54,4,4,0,0,0,1.08,1.31l13.84-7A16.68,16.68,0,0,0,103.65,26.87Z"/><path class="cls-13" d="M99.07,36.54a20.19,20.19,0,0,0,2.27.05c5.53-.18,9.94-2.53,9.84-5.23a2.52,2.52,0,0,0-.18-.86Z"/><path class="cls-12" d="M110.74,30,98,36.42q.51.07,1.05.11l11.93-6A3,3,0,0,0,110.74,30Z"/><path class="cls-12" d="M108.76,28.3,94.5,35.51a13.06,13.06,0,0,0,2,.64l13.6-6.88A6.45,6.45,0,0,0,108.76,28.3Z"/><path class="cls-13" d="M110.13,29.27l-13.6,6.88c.48.11,1,.2,1.49.27L110.74,30A4,4,0,0,0,110.13,29.27Z"/><path class="cls-13" d="M107.79,27.84,93.54,35a9.51,9.51,0,0,0,1,.46l14.26-7.21A9.66,9.66,0,0,0,107.79,27.84Z"/><path class="cls-11" d="M101.29,35c-5.15.17-8.51-1.83-8.56-3.28s3.17-3.67,8.32-3.84,8.51,1.83,8.56,3.28S106.44,34.87,101.29,35Z"/><path class="cls-14" d="M101.07,28.47c4.84-.16,8.09,1.59,8.52,3a1.08,1.08,0,0,0,0-.28c0-1.45-3.41-3.45-8.56-3.28s-8.37,2.39-8.32,3.84a1.08,1.08,0,0,0,0,.27C93.1,30.6,96.23,28.63,101.07,28.47Z"/><path class="cls-12" d="M101.13,31.12l-1.38-.41-.78.39.77.23a14.66,14.66,0,0,1-1.49.13L97,32.12A14.62,14.62,0,0,0,99.6,32l1.82-.92Z"/><path class="cls-12" d="M101.81,30.11c.51-.16.55-.33.11-.5l-1.36.69A4,4,0,0,0,101.81,30.11Z"/><path class="cls-12" d="M106.34,32.67c1-.4,1.47-.78,1.34-1.12l-3.32,1.68c.34-.07.67-.15,1-.24l.48.14.78-.39Z"/><path class="cls-12" d="M102.36,32.94c-.41-.12-.42-.26-.39-.34a4.08,4.08,0,0,0-1.44.19c-.58.19-.55.38.09.56a4.58,4.58,0,0,0,1.19.14l1-.49A1.88,1.88,0,0,1,102.36,32.94Z"/><path class="cls-12" d="M102.58,31.55a13.39,13.39,0,0,1,2-.13,4,4,0,0,1,1,.15h0l1.14-.58a8.88,8.88,0,0,0-2.87-.21l-2.22,1.12,2.08.62.78-.39Z"/><path class="cls-15" d="M97,29.9l-.34-.1-.78.39.13,0c-1.12.43-1.54.85-1.3,1.19l3.6-1.82C97.86,29.68,97.41,29.78,97,29.9Z"/><path class="cls-14" d="M93.56,35.06l.07,2a9.57,9.57,0,0,0,1,.47l-.07-2A9.58,9.58,0,0,1,93.56,35.06Z"/><path class="cls-14" d="M91.16,32l.07,2a3.23,3.23,0,0,0,1.34,2.34l-.07-2A3.23,3.23,0,0,1,91.16,32Z"/><path class="cls-14" d="M108.23,35l.07,2A8,8,0,0,0,110,35.93l-.07-2A8,8,0,0,1,108.23,35Z"/><path class="cls-14" d="M96.5,36.14l.07,2c.52.12,1.07.22,1.64.3l-.07-2C97.57,36.36,97,36.26,96.5,36.14Z"/><path class="cls-11" d="M89.29,42.14C84.2,40,80.94,36.27,82,33.78l-.81,1.88c-1.08,2.49,2.18,6.23,7.28,8.36s10.1,1.82,11.17-.67l.81-1.88C99.39,44,94.39,44.26,89.29,42.14Z"/><path class="cls-12" d="M97.78,35.84l-15.55.62a6.68,6.68,0,0,0,.64,1l16-.64A12.37,12.37,0,0,0,97.78,35.84Z"/><path class="cls-13" d="M95.54,34.28q-.47-.27-1-.53t-1-.45l-.43-.19L92.86,33c-4.71-1.87-9.27-1.67-10.64.42a2.48,2.48,0,0,0-.2.36v0a2.47,2.47,0,0,0-.15.48,2.68,2.68,0,0,0-.05.57,3.89,3.89,0,0,0,.42,1.63l15.55-.62A16.42,16.42,0,0,0,95.54,34.28Z"/><path class="cls-13" d="M87.25,41.15a20,20,0,0,0,2,1c5.09,2.12,10.1,1.82,11.17-.67a2.52,2.52,0,0,0,.2-.85Z"/><path class="cls-12" d="M100.64,40l-14.29.57q.44.28.9.54l13.41-.53A3,3,0,0,0,100.64,40Z"/><path class="cls-12" d="M99.57,37.69l-16,.64a12.81,12.81,0,0,0,1.57,1.42l15.28-.61A6.31,6.31,0,0,0,99.57,37.69Z"/><path class="cls-13" d="M100.4,39.14l-15.28.61q.58.45,1.23.86L100.64,40A3.92,3.92,0,0,0,100.4,39.14Z"/><path class="cls-13" d="M98.88,36.87l-16,.64a9.31,9.31,0,0,0,.68.82l16-.64A9.46,9.46,0,0,0,98.88,36.87Z"/><path class="cls-11" d="M89.91,40.71c-4.75-2-6.94-5.18-6.36-6.52s4.44-2,9.19,0,6.94,5.18,6.36,6.52S94.65,42.69,89.91,40.71Z"/><path class="cls-14" d="M92.52,34.66C97,36.52,99.18,39.45,99,40.91a1.1,1.1,0,0,0,.14-.24c.58-1.34-1.61-4.54-6.36-6.52s-8.61-1.3-9.19,0a1.09,1.09,0,0,0-.07.27C84.39,33.29,88.06,32.8,92.52,34.66Z"/><path class="cls-12" d="M91.44,37.09l-1.08-.94-.87,0,.6.53a14.58,14.58,0,0,1-1.41-.5l-1.44.06a14.52,14.52,0,0,0,2.44,1l2.05-.08Z"/><path class="cls-12" d="M92.49,36.45c.53.06.64-.07.32-.4l-1.53.06A3.94,3.94,0,0,0,92.49,36.45Z"/><path class="cls-12" d="M95.5,40.65c1.11.07,1.67-.1,1.69-.46l-3.73.15c.33.08.67.14,1,.2l.37.32.87,0Z"/><path class="cls-12" d="M91.77,39.25c-.32-.28-.28-.41-.21-.47a4.07,4.07,0,0,0-1.39-.42c-.61-.07-.66.11-.16.55a4.52,4.52,0,0,0,1,.63l1.09,0A1.85,1.85,0,0,1,91.77,39.25Z"/><path class="cls-12" d="M92.57,38.08a13.31,13.31,0,0,1,1.88.71,3.94,3.94,0,0,1,.85.55h0l1.28-.05a8.77,8.77,0,0,0-2.51-1.38l-2.49.1,1.62,1.42.87,0Z"/><path class="cls-15" d="M88.21,34.27,87.95,34l-.87,0,.1.09c-1.2-.07-1.76.13-1.69.55l4-.16C89.09,34.43,88.64,34.34,88.21,34.27Z"/><path class="cls-14" d="M82.88,37.53l-.81,1.88a9.39,9.39,0,0,0,.69.83l.81-1.88A9.38,9.38,0,0,1,82.88,37.53Z"/><path class="cls-14" d="M82,33.78l-.81,1.88a3.19,3.19,0,0,0,.22,2.68l.81-1.88A3.19,3.19,0,0,1,82,33.78Z"/><path class="cls-14" d="M96.22,43.54l-.81,1.88a8.07,8.07,0,0,0,2-.32l.81-1.88A8.07,8.07,0,0,1,96.22,43.54Z"/><path class="cls-14" d="M85.09,39.73l-.81,1.88a16.44,16.44,0,0,0,1.36.95l.81-1.88A16.45,16.45,0,0,1,85.09,39.73Z"/><path class="cls-11" d="M54.1,34.65c-5.53.18-10.09-1.86-10.18-4.57l.07,2c.09,2.71,4.65,4.75,10.18,4.57s9.94-2.53,9.84-5.23l-.07-2C64,32.13,59.63,34.47,54.1,34.65Z"/><path class="cls-12" d="M59.1,25.43l-13.84,7a6.83,6.83,0,0,0,1,.69l14.25-7.21A12.6,12.6,0,0,0,59.1,25.43Z"/><path class="cls-13" d="M56.4,24.94q-.54-.05-1.11-.08l-1.06,0h-.47l-.36,0c-5.07.26-9.12,2.33-9.46,4.79a2.45,2.45,0,0,0,0,.41s0,0,0,0a2.46,2.46,0,0,0,.07.49,2.69,2.69,0,0,0,.2.54,4,4,0,0,0,1.08,1.31l13.84-7A16.68,16.68,0,0,0,56.4,24.94Z"/><path class="cls-13" d="M51.83,34.6a20.19,20.19,0,0,0,2.27.05c5.53-.18,9.94-2.53,9.84-5.23a2.52,2.52,0,0,0-.18-.86Z"/><path class="cls-12" d="M63.49,28.06,50.78,34.49q.51.07,1.05.11l11.93-6A3,3,0,0,0,63.49,28.06Z"/><path class="cls-12" d="M61.51,26.36,47.26,33.58a13.06,13.06,0,0,0,2,.64l13.6-6.88A6.45,6.45,0,0,0,61.51,26.36Z"/><path class="cls-13" d="M62.89,27.34l-13.6,6.88c.48.11,1,.2,1.49.27l12.72-6.43A4,4,0,0,0,62.89,27.34Z"/><path class="cls-13" d="M60.54,25.91,46.29,33.12a9.51,9.51,0,0,0,1,.46l14.26-7.21A9.66,9.66,0,0,0,60.54,25.91Z"/><path class="cls-11" d="M54,33.11c-5.15.17-8.51-1.83-8.56-3.28S48.65,26.16,53.8,26s8.51,1.83,8.56,3.28S59.2,32.94,54,33.11Z"/><path class="cls-14" d="M53.82,26.54c4.84-.16,8.09,1.59,8.52,3a1.08,1.08,0,0,0,0-.28c0-1.45-3.41-3.45-8.56-3.28s-8.37,2.39-8.32,3.84a1.08,1.08,0,0,0,0,.27C45.86,28.66,49,26.7,53.82,26.54Z"/><path class="cls-12" d="M53.88,29.19l-1.38-.41-.78.39.78.23a14.66,14.66,0,0,1-1.49.13l-1.28.65a14.62,14.62,0,0,0,2.63-.12l1.83-.92Z"/><path class="cls-12" d="M54.57,28.18c.51-.16.55-.33.11-.5l-1.36.69A4,4,0,0,0,54.57,28.18Z"/><path class="cls-12" d="M59.1,30.74c1-.4,1.47-.78,1.34-1.12L57.11,31.3c.34-.07.67-.15,1-.24l.48.14.78-.39Z"/><path class="cls-12" d="M55.11,31c-.41-.12-.42-.26-.39-.34a4.08,4.08,0,0,0-1.44.19c-.58.19-.55.38.09.56a4.58,4.58,0,0,0,1.19.14l1-.49A1.88,1.88,0,0,1,55.11,31Z"/><path class="cls-12" d="M55.34,29.62a13.39,13.39,0,0,1,2-.13,4,4,0,0,1,1,.15h0l1.14-.58a8.88,8.88,0,0,0-2.87-.21L54.42,30l2.08.62.78-.39Z"/><path class="cls-15" d="M49.75,28l-.34-.1-.78.39.13,0c-1.12.43-1.54.85-1.3,1.19l3.6-1.82C50.61,27.75,50.17,27.85,49.75,28Z"/><path class="cls-14" d="M46.31,33.13l.07,2a9.58,9.58,0,0,0,1,.47l-.07-2A9.58,9.58,0,0,1,46.31,33.13Z"/><path class="cls-14" d="M43.92,30.09l.07,2a3.23,3.23,0,0,0,1.34,2.34l-.07-2A3.23,3.23,0,0,1,43.92,30.09Z"/><path class="cls-14" d="M61,33.06l.07,2A8,8,0,0,0,62.72,34l-.07-2A8,8,0,0,1,61,33.06Z"/><path class="cls-14" d="M49.26,34.21l.07,2c.52.12,1.07.22,1.64.3l-.07-2C50.32,34.43,49.78,34.33,49.26,34.21Z"/><path class="cls-13" d="M95.12,24.12a12.1,12.1,0,0,0-1.25-.81q-.38-.22-.79-.41t-.89-.38q-.52-.2-1.06-.35c-4.08-1.14-7.75.15-9,2.92a4.92,4.92,0,0,0-.24.67,5.14,5.14,0,0,0-.14.65l0,.16a5.62,5.62,0,0,0,0,1,6.77,6.77,0,0,0,.59,2.32l14.84-3.8A11.15,11.15,0,0,0,95.12,24.12Z"/><path class="cls-12" d="M97.15,26.06l-14.84,3.8a8.68,8.68,0,0,0,.78,1.39l15-3.84A9.38,9.38,0,0,0,97.15,26.06Z"/><path class="cls-13" d="M98.06,27.42l-15,3.84q.25.36.53.7l14.81-3.79A8.2,8.2,0,0,0,98.06,27.42Z"/><path class="cls-13" d="M98.68,28.85,84.16,32.57a11.71,11.71,0,0,0,2.35,1.87L99,31.25A6.11,6.11,0,0,0,98.68,28.85Z"/><path class="cls-13" d="M88.28,35.32a12.16,12.16,0,0,0,1.28.44c4.16,1.16,7.9-.2,9.05-3.08Z"/><path class="cls-12" d="M98.43,28.16,83.62,32q.26.31.55.61l14.52-3.72Q98.57,28.5,98.43,28.16Z"/><path class="cls-12" d="M98.94,31.36v-.11L86.51,34.43a12.26,12.26,0,0,0,1.76.88l10.33-2.65A5.08,5.08,0,0,0,98.94,31.36Z"/><path class="cls-11" d="M89.72,34.36C85.9,33.29,83.07,30,83.42,27s3.73-4.53,7.55-3.47,6.65,4.36,6.3,7.34S93.54,35.43,89.72,34.36Z"/><path class="cls-14" d="M90.93,23.86c3.75,1,6.55,4.25,6.31,7.19,0-.05,0-.1,0-.15.34-3-2.48-6.27-6.3-7.34S83.76,24,83.42,27c0,.05,0,.1,0,.15C83.84,24.29,87.18,22.81,90.93,23.86Z"/><path class="cls-12" d="M90.88,29l.75-1.54-1.09.28-.31.63a4.13,4.13,0,0,1-.37-.45l-1.08.28a5.22,5.22,0,0,0,.41.49c.18.19.38.39.6.59l-.14.29,1.43-.37Z"/><path class="cls-12" d="M92.66,28a.6.6,0,0,1-.51.34.94.94,0,0,0,.39.54l1.24-.32a1.8,1.8,0,0,0-.68-1.42l-.67.17C92.67,27.53,92.75,27.77,92.66,28Z"/><path class="cls-12" d="M87.9,29.34c-.44-.23-.75-.14-1,.26a.87.87,0,0,0,0,.66l1.53-.39A1.13,1.13,0,0,0,87.9,29.34Z"/><path class="cls-12" d="M91,30.8l1.12-.29a3.49,3.49,0,0,0-.35-.56l-.06-.08-1.09.28A2.54,2.54,0,0,1,91,30.8Z"/><polygon class="cls-12" points="90.27 30.24 89.18 30.52 88.76 31.38 89.85 31.1 90.27 30.24"/><path class="cls-12" d="M88.06,30.81l-.7.18a4.17,4.17,0,0,0,.63.59l.7-.18A2,2,0,0,1,88.06,30.81Z"/><path class="cls-14" d="M84,32.43l.37,1.21a11.59,11.59,0,0,0,2.5,1.89l-.32-1A11.67,11.67,0,0,1,84,32.43Z"/><path class="cls-11" d="M83.07,31.23l.42,1.38a10.77,10.77,0,0,0,.91,1L84,32.43A10.13,10.13,0,0,1,83.07,31.23Z"/><path class="cls-14" d="M81.72,26.75c0,.07,0,.14,0,.21a7.87,7.87,0,0,0,1.8,5.64l-.42-1.38A7.06,7.06,0,0,1,81.72,26.75Z"/><path class="cls-14" d="M88.28,35.32l.3,1,.6.2-.29-1Z"/><path class="cls-11" d="M86.58,34.48l.32,1a11.67,11.67,0,0,0,1.68.78l-.3-1A12.27,12.27,0,0,1,86.58,34.48Z"/><path class="cls-11" d="M98.89,31.78c0-.07,0-.14,0-.21-.56,3.62-4.69,5.5-9.36,4.2l-.67-.21.29,1,.28.08C94.21,37.91,98.43,35.76,98.89,31.78Z"/><path class="cls-16" d="M93.22,35,91,34.5l-.47-2.17a.16.16,0,0,0-.32,0l-.47,2.17L87.61,35a.16.16,0,0,0,0,.32l2.17.47.47,2.17a.16.16,0,0,0,.32,0L91,35.75l2.17-.47A.16.16,0,0,0,93.22,35Z"/><path class="cls-16" d="M116.26,31l-2.17-.47-.47-2.17a.16.16,0,0,0-.32,0l-.47,2.17-2.17.47a.16.16,0,0,0,0,.32l2.17.47.47,2.17a.16.16,0,0,0,.32,0l.47-2.17,2.17-.47A.16.16,0,0,0,116.26,31Z"/><path class="cls-16" d="M91.63,22l-4.24-.91-.91-4.24a.32.32,0,0,0-.63,0L85,21.09,80.72,22a.32.32,0,0,0,0,.63l4.24.91.91,4.24a.32.32,0,0,0,.63,0l.91-4.24,4.24-.91A.32.32,0,0,0,91.63,22Z"/><g class="cls-17"><path class="cls-18" d="M71.5,98.45c5.56,0,10.07-5.47,10.07-12.23S80.08,74,71.5,74,61.43,79.47,61.43,86.23,65.94,98.45,71.5,98.45Zm0,0"/><path d="M52.48,117.12c0-.41,0-.12,0,0Zm0,0"/></g><path class="cls-18" d="M90.49,116.63C90.3,104.86,88.76,101.51,77,99.39c0,0-1.66,2.11-5.51,2.11S66,99.39,66,99.39c-11.63,2.1-13.26,5.4-13.47,16.85,0,.94,0,1,0,.88,0,.2,0,.58,0,1.24,0,0,2.8,5.64,19,5.64s19-5.64,19-5.64c0-.42,0-.71,0-.91a8.09,8.09,0,0,1,0-.82Zm0,0"/></g></g></svg>